G04 #@! TF.GenerationSoftware,KiCad,Pcbnew,(5.1.6)-1*
G04 #@! TF.CreationDate,2020-10-27T17:39:53-03:00*
G04 #@! TF.ProjectId,TP3-Panel,5450332d-5061-46e6-956c-2e6b69636164,v1.0*
G04 #@! TF.SameCoordinates,Original*
G04 #@! TF.FileFunction,Legend,Bot*
G04 #@! TF.FilePolarity,Positive*
%FSLAX46Y46*%
G04 Gerber Fmt 4.6, Leading zero omitted, Abs format (unit mm)*
G04 Created by KiCad (PCBNEW (5.1.6)-1) date 2020-10-27 17:39:53*
%MOMM*%
%LPD*%
G01*
G04 APERTURE LIST*
%ADD10C,0.500000*%
%ADD11C,0.100000*%
%ADD12C,0.120000*%
G04 APERTURE END LIST*
D10*
X331000000Y-59000000D02*
X331000000Y-52250000D01*
X273833333Y-116916666D02*
X277166666Y-116916666D01*
X277500000Y-120250000D01*
X277166666Y-119916666D01*
X276500000Y-119583333D01*
X274833333Y-119583333D01*
X274166666Y-119916666D01*
X273833333Y-120250000D01*
X273500000Y-120916666D01*
X273500000Y-122583333D01*
X273833333Y-123250000D01*
X274166666Y-123583333D01*
X274833333Y-123916666D01*
X276500000Y-123916666D01*
X277166666Y-123583333D01*
X277500000Y-123250000D01*
X218833333Y-58250000D02*
X219166666Y-58583333D01*
X220166666Y-58916666D01*
X220833333Y-58916666D01*
X221833333Y-58583333D01*
X222500000Y-57916666D01*
X222833333Y-57250000D01*
X223166666Y-55916666D01*
X223166666Y-54916666D01*
X222833333Y-53583333D01*
X222500000Y-52916666D01*
X221833333Y-52250000D01*
X220833333Y-51916666D01*
X220166666Y-51916666D01*
X219166666Y-52250000D01*
X218833333Y-52583333D01*
X256833333Y-144166666D02*
X255500000Y-144166666D01*
X254833333Y-143833333D01*
X254500000Y-143500000D01*
X253833333Y-142500000D01*
X253500000Y-141166666D01*
X253500000Y-138500000D01*
X253833333Y-137833333D01*
X254166666Y-137500000D01*
X254833333Y-137166666D01*
X256166666Y-137166666D01*
X256833333Y-137500000D01*
X257166666Y-137833333D01*
X257500000Y-138500000D01*
X257500000Y-140166666D01*
X257166666Y-140833333D01*
X256833333Y-141166666D01*
X256166666Y-141500000D01*
X254833333Y-141500000D01*
X254166666Y-141166666D01*
X253833333Y-140833333D01*
X253500000Y-140166666D01*
X293500000Y-103916666D02*
X297500000Y-103916666D01*
X295500000Y-103916666D02*
X295500000Y-96916666D01*
X296166666Y-97916666D01*
X296833333Y-98583333D01*
X297500000Y-98916666D01*
X257833333Y-96916666D02*
X253500000Y-96916666D01*
X255833333Y-99583333D01*
X254833333Y-99583333D01*
X254166666Y-99916666D01*
X253833333Y-100250000D01*
X253500000Y-100916666D01*
X253500000Y-102583333D01*
X253833333Y-103250000D01*
X254166666Y-103583333D01*
X254833333Y-103916666D01*
X256833333Y-103916666D01*
X257500000Y-103583333D01*
X257833333Y-103250000D01*
X276166666Y-139916666D02*
X276833333Y-139583333D01*
X277166666Y-139250000D01*
X277500000Y-138583333D01*
X277500000Y-138250000D01*
X277166666Y-137583333D01*
X276833333Y-137250000D01*
X276166666Y-136916666D01*
X274833333Y-136916666D01*
X274166666Y-137250000D01*
X273833333Y-137583333D01*
X273500000Y-138250000D01*
X273500000Y-138583333D01*
X273833333Y-139250000D01*
X274166666Y-139583333D01*
X274833333Y-139916666D01*
X276166666Y-139916666D01*
X276833333Y-140250000D01*
X277166666Y-140583333D01*
X277500000Y-141250000D01*
X277500000Y-142583333D01*
X277166666Y-143250000D01*
X276833333Y-143583333D01*
X276166666Y-143916666D01*
X274833333Y-143916666D01*
X274166666Y-143583333D01*
X273833333Y-143250000D01*
X273500000Y-142583333D01*
X273500000Y-141250000D01*
X273833333Y-140583333D01*
X274166666Y-140250000D01*
X274833333Y-139916666D01*
X275833333Y-156916666D02*
X275166666Y-156916666D01*
X274500000Y-157250000D01*
X274166666Y-157583333D01*
X273833333Y-158250000D01*
X273500000Y-159583333D01*
X273500000Y-161250000D01*
X273833333Y-162583333D01*
X274166666Y-163250000D01*
X274500000Y-163583333D01*
X275166666Y-163916666D01*
X275833333Y-163916666D01*
X276500000Y-163583333D01*
X276833333Y-163250000D01*
X277166666Y-162583333D01*
X277500000Y-161250000D01*
X277500000Y-159583333D01*
X277166666Y-158250000D01*
X276833333Y-157583333D01*
X276500000Y-157250000D01*
X275833333Y-156916666D01*
X277500000Y-97583333D02*
X277166666Y-97250000D01*
X276500000Y-96916666D01*
X274833333Y-96916666D01*
X274166666Y-97250000D01*
X273833333Y-97583333D01*
X273500000Y-98250000D01*
X273500000Y-98916666D01*
X273833333Y-99916666D01*
X277833333Y-103916666D01*
X273500000Y-103916666D01*
X297833333Y-137166666D02*
X293166666Y-137166666D01*
X296166666Y-144166666D01*
X254166666Y-116916666D02*
X255500000Y-116916666D01*
X256166666Y-117250000D01*
X256500000Y-117583333D01*
X257166666Y-118583333D01*
X257500000Y-119916666D01*
X257500000Y-122583333D01*
X257166666Y-123250000D01*
X256833333Y-123583333D01*
X256166666Y-123916666D01*
X254833333Y-123916666D01*
X254166666Y-123583333D01*
X253833333Y-123250000D01*
X253500000Y-122583333D01*
X253500000Y-120916666D01*
X253833333Y-120250000D01*
X254166666Y-119916666D01*
X254833333Y-119583333D01*
X256166666Y-119583333D01*
X256833333Y-119916666D01*
X257166666Y-120250000D01*
X257500000Y-120916666D01*
X294166666Y-119250000D02*
X294166666Y-123916666D01*
X295833333Y-116583333D02*
X297500000Y-121583333D01*
X293166666Y-121583333D01*
X224000000Y-84250000D02*
X222000000Y-83250000D01*
X222000000Y-85250000D02*
X222000000Y-83250000D01*
X224000000Y-84250000D02*
X222000000Y-85250000D01*
X219000000Y-84250000D02*
X224000000Y-84250000D01*
D11*
G36*
X331000000Y-86250000D02*
G01*
X329500000Y-83750000D01*
X332500000Y-83750000D01*
X331000000Y-86250000D01*
G37*
X331000000Y-86250000D02*
X329500000Y-83750000D01*
X332500000Y-83750000D01*
X331000000Y-86250000D01*
D10*
X219000000Y-79500000D02*
X219000000Y-84250000D01*
D11*
G36*
X224000000Y-84250000D02*
G01*
X222000000Y-85250000D01*
X222000000Y-83250000D01*
X224000000Y-84250000D01*
G37*
X224000000Y-84250000D02*
X222000000Y-85250000D01*
X222000000Y-83250000D01*
X224000000Y-84250000D01*
G36*
X332500000Y-54250000D02*
G01*
X329500000Y-54250000D01*
X331000000Y-51750000D01*
X332500000Y-54250000D01*
G37*
X332500000Y-54250000D02*
X329500000Y-54250000D01*
X331000000Y-51750000D01*
X332500000Y-54250000D01*
D10*
X331000000Y-79000000D02*
X331000000Y-85750000D01*
X145833333Y-156916666D02*
X145166666Y-156916666D01*
X144500000Y-157250000D01*
X144166666Y-157583333D01*
X143833333Y-158250000D01*
X143500000Y-159583333D01*
X143500000Y-161250000D01*
X143833333Y-162583333D01*
X144166666Y-163250000D01*
X144500000Y-163583333D01*
X145166666Y-163916666D01*
X145833333Y-163916666D01*
X146500000Y-163583333D01*
X146833333Y-163250000D01*
X147166666Y-162583333D01*
X147500000Y-161250000D01*
X147500000Y-159583333D01*
X147166666Y-158250000D01*
X146833333Y-157583333D01*
X146500000Y-157250000D01*
X145833333Y-156916666D01*
X201000000Y-79000000D02*
X201000000Y-85750000D01*
D11*
G36*
X201000000Y-86250000D02*
G01*
X199500000Y-83750000D01*
X202500000Y-83750000D01*
X201000000Y-86250000D01*
G37*
X201000000Y-86250000D02*
X199500000Y-83750000D01*
X202500000Y-83750000D01*
X201000000Y-86250000D01*
G36*
X202500000Y-54250000D02*
G01*
X199500000Y-54250000D01*
X201000000Y-51750000D01*
X202500000Y-54250000D01*
G37*
X202500000Y-54250000D02*
X199500000Y-54250000D01*
X201000000Y-51750000D01*
X202500000Y-54250000D01*
D10*
X201000000Y-59000000D02*
X201000000Y-52250000D01*
D11*
G36*
X94000000Y-84250000D02*
G01*
X92000000Y-85250000D01*
X92000000Y-83250000D01*
X94000000Y-84250000D01*
G37*
X94000000Y-84250000D02*
X92000000Y-85250000D01*
X92000000Y-83250000D01*
X94000000Y-84250000D01*
D10*
X92000000Y-85250000D02*
X92000000Y-83250000D01*
X94000000Y-84250000D02*
X92000000Y-83250000D01*
X94000000Y-84250000D02*
X92000000Y-85250000D01*
X89000000Y-84250000D02*
X94000000Y-84250000D01*
X89000000Y-79500000D02*
X89000000Y-84250000D01*
X88833333Y-58250000D02*
X89166666Y-58583333D01*
X90166666Y-58916666D01*
X90833333Y-58916666D01*
X91833333Y-58583333D01*
X92500000Y-57916666D01*
X92833333Y-57250000D01*
X93166666Y-55916666D01*
X93166666Y-54916666D01*
X92833333Y-53583333D01*
X92500000Y-52916666D01*
X91833333Y-52250000D01*
X90833333Y-51916666D01*
X90166666Y-51916666D01*
X89166666Y-52250000D01*
X88833333Y-52583333D01*
X126833333Y-144166666D02*
X125500000Y-144166666D01*
X124833333Y-143833333D01*
X124500000Y-143500000D01*
X123833333Y-142500000D01*
X123500000Y-141166666D01*
X123500000Y-138500000D01*
X123833333Y-137833333D01*
X124166666Y-137500000D01*
X124833333Y-137166666D01*
X126166666Y-137166666D01*
X126833333Y-137500000D01*
X127166666Y-137833333D01*
X127500000Y-138500000D01*
X127500000Y-140166666D01*
X127166666Y-140833333D01*
X126833333Y-141166666D01*
X126166666Y-141500000D01*
X124833333Y-141500000D01*
X124166666Y-141166666D01*
X123833333Y-140833333D01*
X123500000Y-140166666D01*
X146166666Y-139916666D02*
X146833333Y-139583333D01*
X147166666Y-139250000D01*
X147500000Y-138583333D01*
X147500000Y-138250000D01*
X147166666Y-137583333D01*
X146833333Y-137250000D01*
X146166666Y-136916666D01*
X144833333Y-136916666D01*
X144166666Y-137250000D01*
X143833333Y-137583333D01*
X143500000Y-138250000D01*
X143500000Y-138583333D01*
X143833333Y-139250000D01*
X144166666Y-139583333D01*
X144833333Y-139916666D01*
X146166666Y-139916666D01*
X146833333Y-140250000D01*
X147166666Y-140583333D01*
X147500000Y-141250000D01*
X147500000Y-142583333D01*
X147166666Y-143250000D01*
X146833333Y-143583333D01*
X146166666Y-143916666D01*
X144833333Y-143916666D01*
X144166666Y-143583333D01*
X143833333Y-143250000D01*
X143500000Y-142583333D01*
X143500000Y-141250000D01*
X143833333Y-140583333D01*
X144166666Y-140250000D01*
X144833333Y-139916666D01*
X167833333Y-137166666D02*
X163166666Y-137166666D01*
X166166666Y-144166666D01*
X124166666Y-116916666D02*
X125500000Y-116916666D01*
X126166666Y-117250000D01*
X126500000Y-117583333D01*
X127166666Y-118583333D01*
X127500000Y-119916666D01*
X127500000Y-122583333D01*
X127166666Y-123250000D01*
X126833333Y-123583333D01*
X126166666Y-123916666D01*
X124833333Y-123916666D01*
X124166666Y-123583333D01*
X123833333Y-123250000D01*
X123500000Y-122583333D01*
X123500000Y-120916666D01*
X123833333Y-120250000D01*
X124166666Y-119916666D01*
X124833333Y-119583333D01*
X126166666Y-119583333D01*
X126833333Y-119916666D01*
X127166666Y-120250000D01*
X127500000Y-120916666D01*
X143833333Y-116916666D02*
X147166666Y-116916666D01*
X147500000Y-120250000D01*
X147166666Y-119916666D01*
X146500000Y-119583333D01*
X144833333Y-119583333D01*
X144166666Y-119916666D01*
X143833333Y-120250000D01*
X143500000Y-120916666D01*
X143500000Y-122583333D01*
X143833333Y-123250000D01*
X144166666Y-123583333D01*
X144833333Y-123916666D01*
X146500000Y-123916666D01*
X147166666Y-123583333D01*
X147500000Y-123250000D01*
X164166666Y-119250000D02*
X164166666Y-123916666D01*
X165833333Y-116583333D02*
X167500000Y-121583333D01*
X163166666Y-121583333D01*
X127833333Y-96916666D02*
X123500000Y-96916666D01*
X125833333Y-99583333D01*
X124833333Y-99583333D01*
X124166666Y-99916666D01*
X123833333Y-100250000D01*
X123500000Y-100916666D01*
X123500000Y-102583333D01*
X123833333Y-103250000D01*
X124166666Y-103583333D01*
X124833333Y-103916666D01*
X126833333Y-103916666D01*
X127500000Y-103583333D01*
X127833333Y-103250000D01*
X147500000Y-97583333D02*
X147166666Y-97250000D01*
X146500000Y-96916666D01*
X144833333Y-96916666D01*
X144166666Y-97250000D01*
X143833333Y-97583333D01*
X143500000Y-98250000D01*
X143500000Y-98916666D01*
X143833333Y-99916666D01*
X147833333Y-103916666D01*
X143500000Y-103916666D01*
X163500000Y-103916666D02*
X167500000Y-103916666D01*
X165500000Y-103916666D02*
X165500000Y-96916666D01*
X166166666Y-97916666D01*
X166833333Y-98583333D01*
X167500000Y-98916666D01*
D12*
X253000000Y-115600000D02*
X258000000Y-115600000D01*
X250350000Y-118250000D02*
X250350000Y-123250000D01*
X260650000Y-123250000D02*
X260650000Y-118250000D01*
X258000000Y-125900000D02*
X253000000Y-125900000D01*
X258000000Y-125900000D02*
G75*
G03*
X260650000Y-123250000I0J2650000D01*
G01*
X250350000Y-123250000D02*
G75*
G03*
X253000000Y-125900000I2650000J0D01*
G01*
X253000000Y-115600000D02*
G75*
G03*
X250350000Y-118250000I0J-2650000D01*
G01*
X260650000Y-118250000D02*
G75*
G03*
X258000000Y-115600000I-2650000J0D01*
G01*
X253000000Y-135600000D02*
X258000000Y-135600000D01*
X250350000Y-138250000D02*
X250350000Y-143250000D01*
X260650000Y-143250000D02*
X260650000Y-138250000D01*
X258000000Y-145900000D02*
X253000000Y-145900000D01*
X258000000Y-145900000D02*
G75*
G03*
X260650000Y-143250000I0J2650000D01*
G01*
X250350000Y-143250000D02*
G75*
G03*
X253000000Y-145900000I2650000J0D01*
G01*
X253000000Y-135600000D02*
G75*
G03*
X250350000Y-138250000I0J-2650000D01*
G01*
X260650000Y-138250000D02*
G75*
G03*
X258000000Y-135600000I-2650000J0D01*
G01*
X273000000Y-115600000D02*
X278000000Y-115600000D01*
X270350000Y-118250000D02*
X270350000Y-123250000D01*
X280650000Y-123250000D02*
X280650000Y-118250000D01*
X278000000Y-125900000D02*
X273000000Y-125900000D01*
X278000000Y-125900000D02*
G75*
G03*
X280650000Y-123250000I0J2650000D01*
G01*
X270350000Y-123250000D02*
G75*
G03*
X273000000Y-125900000I2650000J0D01*
G01*
X273000000Y-115600000D02*
G75*
G03*
X270350000Y-118250000I0J-2650000D01*
G01*
X280650000Y-118250000D02*
G75*
G03*
X278000000Y-115600000I-2650000J0D01*
G01*
X328500000Y-77350000D02*
X333500000Y-77350000D01*
X325850000Y-80000000D02*
X325850000Y-85000000D01*
X336150000Y-85000000D02*
X336150000Y-80000000D01*
X333500000Y-87650000D02*
X328500000Y-87650000D01*
X333500000Y-87650000D02*
G75*
G03*
X336150000Y-85000000I0J2650000D01*
G01*
X325850000Y-85000000D02*
G75*
G03*
X328500000Y-87650000I2650000J0D01*
G01*
X328500000Y-77350000D02*
G75*
G03*
X325850000Y-80000000I0J-2650000D01*
G01*
X336150000Y-80000000D02*
G75*
G03*
X333500000Y-77350000I-2650000J0D01*
G01*
X293000000Y-135600000D02*
X298000000Y-135600000D01*
X290350000Y-138250000D02*
X290350000Y-143250000D01*
X300650000Y-143250000D02*
X300650000Y-138250000D01*
X298000000Y-145900000D02*
X293000000Y-145900000D01*
X298000000Y-145900000D02*
G75*
G03*
X300650000Y-143250000I0J2650000D01*
G01*
X290350000Y-143250000D02*
G75*
G03*
X293000000Y-145900000I2650000J0D01*
G01*
X293000000Y-135600000D02*
G75*
G03*
X290350000Y-138250000I0J-2650000D01*
G01*
X300650000Y-138250000D02*
G75*
G03*
X298000000Y-135600000I-2650000J0D01*
G01*
X218000000Y-77350000D02*
X223000000Y-77350000D01*
X215350000Y-80000000D02*
X215350000Y-85000000D01*
X225650000Y-85000000D02*
X225650000Y-80000000D01*
X223000000Y-87650000D02*
X218000000Y-87650000D01*
X223000000Y-87650000D02*
G75*
G03*
X225650000Y-85000000I0J2650000D01*
G01*
X215350000Y-85000000D02*
G75*
G03*
X218000000Y-87650000I2650000J0D01*
G01*
X218000000Y-77350000D02*
G75*
G03*
X215350000Y-80000000I0J-2650000D01*
G01*
X225650000Y-80000000D02*
G75*
G03*
X223000000Y-77350000I-2650000J0D01*
G01*
X293000000Y-95600000D02*
X298000000Y-95600000D01*
X290350000Y-98250000D02*
X290350000Y-103250000D01*
X300650000Y-103250000D02*
X300650000Y-98250000D01*
X298000000Y-105900000D02*
X293000000Y-105900000D01*
X298000000Y-105900000D02*
G75*
G03*
X300650000Y-103250000I0J2650000D01*
G01*
X290350000Y-103250000D02*
G75*
G03*
X293000000Y-105900000I2650000J0D01*
G01*
X293000000Y-95600000D02*
G75*
G03*
X290350000Y-98250000I0J-2650000D01*
G01*
X300650000Y-98250000D02*
G75*
G03*
X298000000Y-95600000I-2650000J0D01*
G01*
X218000000Y-50350000D02*
X223000000Y-50350000D01*
X215350000Y-53000000D02*
X215350000Y-58000000D01*
X225650000Y-58000000D02*
X225650000Y-53000000D01*
X223000000Y-60650000D02*
X218000000Y-60650000D01*
X223000000Y-60650000D02*
G75*
G03*
X225650000Y-58000000I0J2650000D01*
G01*
X215350000Y-58000000D02*
G75*
G03*
X218000000Y-60650000I2650000J0D01*
G01*
X218000000Y-50350000D02*
G75*
G03*
X215350000Y-53000000I0J-2650000D01*
G01*
X225650000Y-53000000D02*
G75*
G03*
X223000000Y-50350000I-2650000J0D01*
G01*
X253000000Y-95600000D02*
X258000000Y-95600000D01*
X250350000Y-98250000D02*
X250350000Y-103250000D01*
X260650000Y-103250000D02*
X260650000Y-98250000D01*
X258000000Y-105900000D02*
X253000000Y-105900000D01*
X258000000Y-105900000D02*
G75*
G03*
X260650000Y-103250000I0J2650000D01*
G01*
X250350000Y-103250000D02*
G75*
G03*
X253000000Y-105900000I2650000J0D01*
G01*
X253000000Y-95600000D02*
G75*
G03*
X250350000Y-98250000I0J-2650000D01*
G01*
X260650000Y-98250000D02*
G75*
G03*
X258000000Y-95600000I-2650000J0D01*
G01*
X293000000Y-115600000D02*
X298000000Y-115600000D01*
X290350000Y-118250000D02*
X290350000Y-123250000D01*
X300650000Y-123250000D02*
X300650000Y-118250000D01*
X298000000Y-125900000D02*
X293000000Y-125900000D01*
X298000000Y-125900000D02*
G75*
G03*
X300650000Y-123250000I0J2650000D01*
G01*
X290350000Y-123250000D02*
G75*
G03*
X293000000Y-125900000I2650000J0D01*
G01*
X293000000Y-115600000D02*
G75*
G03*
X290350000Y-118250000I0J-2650000D01*
G01*
X300650000Y-118250000D02*
G75*
G03*
X298000000Y-115600000I-2650000J0D01*
G01*
X273000000Y-95600000D02*
X278000000Y-95600000D01*
X270350000Y-98250000D02*
X270350000Y-103250000D01*
X280650000Y-103250000D02*
X280650000Y-98250000D01*
X278000000Y-105900000D02*
X273000000Y-105900000D01*
X278000000Y-105900000D02*
G75*
G03*
X280650000Y-103250000I0J2650000D01*
G01*
X270350000Y-103250000D02*
G75*
G03*
X273000000Y-105900000I2650000J0D01*
G01*
X273000000Y-95600000D02*
G75*
G03*
X270350000Y-98250000I0J-2650000D01*
G01*
X280650000Y-98250000D02*
G75*
G03*
X278000000Y-95600000I-2650000J0D01*
G01*
X328500000Y-50350000D02*
X333500000Y-50350000D01*
X325850000Y-53000000D02*
X325850000Y-58000000D01*
X336150000Y-58000000D02*
X336150000Y-53000000D01*
X333500000Y-60650000D02*
X328500000Y-60650000D01*
X333500000Y-60650000D02*
G75*
G03*
X336150000Y-58000000I0J2650000D01*
G01*
X325850000Y-58000000D02*
G75*
G03*
X328500000Y-60650000I2650000J0D01*
G01*
X328500000Y-50350000D02*
G75*
G03*
X325850000Y-53000000I0J-2650000D01*
G01*
X336150000Y-53000000D02*
G75*
G03*
X333500000Y-50350000I-2650000J0D01*
G01*
X273000000Y-155600000D02*
X278000000Y-155600000D01*
X270350000Y-158250000D02*
X270350000Y-163250000D01*
X280650000Y-163250000D02*
X280650000Y-158250000D01*
X278000000Y-165900000D02*
X273000000Y-165900000D01*
X278000000Y-165900000D02*
G75*
G03*
X280650000Y-163250000I0J2650000D01*
G01*
X270350000Y-163250000D02*
G75*
G03*
X273000000Y-165900000I2650000J0D01*
G01*
X273000000Y-155600000D02*
G75*
G03*
X270350000Y-158250000I0J-2650000D01*
G01*
X280650000Y-158250000D02*
G75*
G03*
X278000000Y-155600000I-2650000J0D01*
G01*
X273000000Y-135600000D02*
X278000000Y-135600000D01*
X270350000Y-138250000D02*
X270350000Y-143250000D01*
X280650000Y-143250000D02*
X280650000Y-138250000D01*
X278000000Y-145900000D02*
X273000000Y-145900000D01*
X278000000Y-145900000D02*
G75*
G03*
X280650000Y-143250000I0J2650000D01*
G01*
X270350000Y-143250000D02*
G75*
G03*
X273000000Y-145900000I2650000J0D01*
G01*
X273000000Y-135600000D02*
G75*
G03*
X270350000Y-138250000I0J-2650000D01*
G01*
X280650000Y-138250000D02*
G75*
G03*
X278000000Y-135600000I-2650000J0D01*
G01*
X203500000Y-87650000D02*
X198500000Y-87650000D01*
X206150000Y-85000000D02*
X206150000Y-80000000D01*
X195850000Y-80000000D02*
X195850000Y-85000000D01*
X198500000Y-77350000D02*
X203500000Y-77350000D01*
X206150000Y-80000000D02*
G75*
G03*
X203500000Y-77350000I-2650000J0D01*
G01*
X198500000Y-77350000D02*
G75*
G03*
X195850000Y-80000000I0J-2650000D01*
G01*
X195850000Y-85000000D02*
G75*
G03*
X198500000Y-87650000I2650000J0D01*
G01*
X203500000Y-87650000D02*
G75*
G03*
X206150000Y-85000000I0J2650000D01*
G01*
X203500000Y-60650000D02*
X198500000Y-60650000D01*
X206150000Y-58000000D02*
X206150000Y-53000000D01*
X195850000Y-53000000D02*
X195850000Y-58000000D01*
X198500000Y-50350000D02*
X203500000Y-50350000D01*
X206150000Y-53000000D02*
G75*
G03*
X203500000Y-50350000I-2650000J0D01*
G01*
X198500000Y-50350000D02*
G75*
G03*
X195850000Y-53000000I0J-2650000D01*
G01*
X195850000Y-58000000D02*
G75*
G03*
X198500000Y-60650000I2650000J0D01*
G01*
X203500000Y-60650000D02*
G75*
G03*
X206150000Y-58000000I0J2650000D01*
G01*
X93000000Y-87650000D02*
X88000000Y-87650000D01*
X95650000Y-85000000D02*
X95650000Y-80000000D01*
X85350000Y-80000000D02*
X85350000Y-85000000D01*
X88000000Y-77350000D02*
X93000000Y-77350000D01*
X95650000Y-80000000D02*
G75*
G03*
X93000000Y-77350000I-2650000J0D01*
G01*
X88000000Y-77350000D02*
G75*
G03*
X85350000Y-80000000I0J-2650000D01*
G01*
X85350000Y-85000000D02*
G75*
G03*
X88000000Y-87650000I2650000J0D01*
G01*
X93000000Y-87650000D02*
G75*
G03*
X95650000Y-85000000I0J2650000D01*
G01*
X93000000Y-60650000D02*
X88000000Y-60650000D01*
X95650000Y-58000000D02*
X95650000Y-53000000D01*
X85350000Y-53000000D02*
X85350000Y-58000000D01*
X88000000Y-50350000D02*
X93000000Y-50350000D01*
X95650000Y-53000000D02*
G75*
G03*
X93000000Y-50350000I-2650000J0D01*
G01*
X88000000Y-50350000D02*
G75*
G03*
X85350000Y-53000000I0J-2650000D01*
G01*
X85350000Y-58000000D02*
G75*
G03*
X88000000Y-60650000I2650000J0D01*
G01*
X93000000Y-60650000D02*
G75*
G03*
X95650000Y-58000000I0J2650000D01*
G01*
X148000000Y-165900000D02*
X143000000Y-165900000D01*
X150650000Y-163250000D02*
X150650000Y-158250000D01*
X140350000Y-158250000D02*
X140350000Y-163250000D01*
X143000000Y-155600000D02*
X148000000Y-155600000D01*
X150650000Y-158250000D02*
G75*
G03*
X148000000Y-155600000I-2650000J0D01*
G01*
X143000000Y-155600000D02*
G75*
G03*
X140350000Y-158250000I0J-2650000D01*
G01*
X140350000Y-163250000D02*
G75*
G03*
X143000000Y-165900000I2650000J0D01*
G01*
X148000000Y-165900000D02*
G75*
G03*
X150650000Y-163250000I0J2650000D01*
G01*
X128000000Y-145900000D02*
X123000000Y-145900000D01*
X130650000Y-143250000D02*
X130650000Y-138250000D01*
X120350000Y-138250000D02*
X120350000Y-143250000D01*
X123000000Y-135600000D02*
X128000000Y-135600000D01*
X130650000Y-138250000D02*
G75*
G03*
X128000000Y-135600000I-2650000J0D01*
G01*
X123000000Y-135600000D02*
G75*
G03*
X120350000Y-138250000I0J-2650000D01*
G01*
X120350000Y-143250000D02*
G75*
G03*
X123000000Y-145900000I2650000J0D01*
G01*
X128000000Y-145900000D02*
G75*
G03*
X130650000Y-143250000I0J2650000D01*
G01*
X148000000Y-145900000D02*
X143000000Y-145900000D01*
X150650000Y-143250000D02*
X150650000Y-138250000D01*
X140350000Y-138250000D02*
X140350000Y-143250000D01*
X143000000Y-135600000D02*
X148000000Y-135600000D01*
X150650000Y-138250000D02*
G75*
G03*
X148000000Y-135600000I-2650000J0D01*
G01*
X143000000Y-135600000D02*
G75*
G03*
X140350000Y-138250000I0J-2650000D01*
G01*
X140350000Y-143250000D02*
G75*
G03*
X143000000Y-145900000I2650000J0D01*
G01*
X148000000Y-145900000D02*
G75*
G03*
X150650000Y-143250000I0J2650000D01*
G01*
X168000000Y-145900000D02*
X163000000Y-145900000D01*
X170650000Y-143250000D02*
X170650000Y-138250000D01*
X160350000Y-138250000D02*
X160350000Y-143250000D01*
X163000000Y-135600000D02*
X168000000Y-135600000D01*
X170650000Y-138250000D02*
G75*
G03*
X168000000Y-135600000I-2650000J0D01*
G01*
X163000000Y-135600000D02*
G75*
G03*
X160350000Y-138250000I0J-2650000D01*
G01*
X160350000Y-143250000D02*
G75*
G03*
X163000000Y-145900000I2650000J0D01*
G01*
X168000000Y-145900000D02*
G75*
G03*
X170650000Y-143250000I0J2650000D01*
G01*
X128000000Y-125900000D02*
X123000000Y-125900000D01*
X130650000Y-123250000D02*
X130650000Y-118250000D01*
X120350000Y-118250000D02*
X120350000Y-123250000D01*
X123000000Y-115600000D02*
X128000000Y-115600000D01*
X130650000Y-118250000D02*
G75*
G03*
X128000000Y-115600000I-2650000J0D01*
G01*
X123000000Y-115600000D02*
G75*
G03*
X120350000Y-118250000I0J-2650000D01*
G01*
X120350000Y-123250000D02*
G75*
G03*
X123000000Y-125900000I2650000J0D01*
G01*
X128000000Y-125900000D02*
G75*
G03*
X130650000Y-123250000I0J2650000D01*
G01*
X148000000Y-125900000D02*
X143000000Y-125900000D01*
X150650000Y-123250000D02*
X150650000Y-118250000D01*
X140350000Y-118250000D02*
X140350000Y-123250000D01*
X143000000Y-115600000D02*
X148000000Y-115600000D01*
X150650000Y-118250000D02*
G75*
G03*
X148000000Y-115600000I-2650000J0D01*
G01*
X143000000Y-115600000D02*
G75*
G03*
X140350000Y-118250000I0J-2650000D01*
G01*
X140350000Y-123250000D02*
G75*
G03*
X143000000Y-125900000I2650000J0D01*
G01*
X148000000Y-125900000D02*
G75*
G03*
X150650000Y-123250000I0J2650000D01*
G01*
X168000000Y-125900000D02*
X163000000Y-125900000D01*
X170650000Y-123250000D02*
X170650000Y-118250000D01*
X160350000Y-118250000D02*
X160350000Y-123250000D01*
X163000000Y-115600000D02*
X168000000Y-115600000D01*
X170650000Y-118250000D02*
G75*
G03*
X168000000Y-115600000I-2650000J0D01*
G01*
X163000000Y-115600000D02*
G75*
G03*
X160350000Y-118250000I0J-2650000D01*
G01*
X160350000Y-123250000D02*
G75*
G03*
X163000000Y-125900000I2650000J0D01*
G01*
X168000000Y-125900000D02*
G75*
G03*
X170650000Y-123250000I0J2650000D01*
G01*
X128000000Y-105900000D02*
X123000000Y-105900000D01*
X130650000Y-103250000D02*
X130650000Y-98250000D01*
X120350000Y-98250000D02*
X120350000Y-103250000D01*
X123000000Y-95600000D02*
X128000000Y-95600000D01*
X130650000Y-98250000D02*
G75*
G03*
X128000000Y-95600000I-2650000J0D01*
G01*
X123000000Y-95600000D02*
G75*
G03*
X120350000Y-98250000I0J-2650000D01*
G01*
X120350000Y-103250000D02*
G75*
G03*
X123000000Y-105900000I2650000J0D01*
G01*
X128000000Y-105900000D02*
G75*
G03*
X130650000Y-103250000I0J2650000D01*
G01*
X148000000Y-105900000D02*
X143000000Y-105900000D01*
X150650000Y-103250000D02*
X150650000Y-98250000D01*
X140350000Y-98250000D02*
X140350000Y-103250000D01*
X143000000Y-95600000D02*
X148000000Y-95600000D01*
X150650000Y-98250000D02*
G75*
G03*
X148000000Y-95600000I-2650000J0D01*
G01*
X143000000Y-95600000D02*
G75*
G03*
X140350000Y-98250000I0J-2650000D01*
G01*
X140350000Y-103250000D02*
G75*
G03*
X143000000Y-105900000I2650000J0D01*
G01*
X148000000Y-105900000D02*
G75*
G03*
X150650000Y-103250000I0J2650000D01*
G01*
X168000000Y-105900000D02*
X163000000Y-105900000D01*
X170650000Y-103250000D02*
X170650000Y-98250000D01*
X160350000Y-98250000D02*
X160350000Y-103250000D01*
X163000000Y-95600000D02*
X168000000Y-95600000D01*
X170650000Y-98250000D02*
G75*
G03*
X168000000Y-95600000I-2650000J0D01*
G01*
X163000000Y-95600000D02*
G75*
G03*
X160350000Y-98250000I0J-2650000D01*
G01*
X160350000Y-103250000D02*
G75*
G03*
X163000000Y-105900000I2650000J0D01*
G01*
X168000000Y-105900000D02*
G75*
G03*
X170650000Y-103250000I0J2650000D01*
G01*
M02*
