G04 #@! TF.GenerationSoftware,KiCad,Pcbnew,(5.1.6)-1*
G04 #@! TF.CreationDate,2020-10-27T17:39:53-03:00*
G04 #@! TF.ProjectId,TP3-Panel,5450332d-5061-46e6-956c-2e6b69636164,v1.0*
G04 #@! TF.SameCoordinates,Original*
G04 #@! TF.FileFunction,Soldermask,Bot*
G04 #@! TF.FilePolarity,Negative*
%FSLAX46Y46*%
G04 Gerber Fmt 4.6, Leading zero omitted, Abs format (unit mm)*
G04 Created by KiCad (PCBNEW (5.1.6)-1) date 2020-10-27 17:39:53*
%MOMM*%
%LPD*%
G01*
G04 APERTURE LIST*
%ADD10C,0.100000*%
G04 APERTURE END LIST*
D10*
G36*
X336125256Y-229391298D02*
G01*
X336231579Y-229412447D01*
X336532042Y-229536903D01*
X336802451Y-229717585D01*
X337032415Y-229947549D01*
X337213097Y-230217958D01*
X337337553Y-230518421D01*
X337401000Y-230837391D01*
X337401000Y-231162609D01*
X337337553Y-231481579D01*
X337213097Y-231782042D01*
X337032415Y-232052451D01*
X336802451Y-232282415D01*
X336532042Y-232463097D01*
X336231579Y-232587553D01*
X336125256Y-232608702D01*
X335912611Y-232651000D01*
X335587389Y-232651000D01*
X335374744Y-232608702D01*
X335268421Y-232587553D01*
X334967958Y-232463097D01*
X334697549Y-232282415D01*
X334467585Y-232052451D01*
X334286903Y-231782042D01*
X334162447Y-231481579D01*
X334099000Y-231162609D01*
X334099000Y-230837391D01*
X334162447Y-230518421D01*
X334286903Y-230217958D01*
X334467585Y-229947549D01*
X334697549Y-229717585D01*
X334967958Y-229536903D01*
X335268421Y-229412447D01*
X335374744Y-229391298D01*
X335587389Y-229349000D01*
X335912611Y-229349000D01*
X336125256Y-229391298D01*
G37*
G36*
X86125256Y-229391298D02*
G01*
X86231579Y-229412447D01*
X86532042Y-229536903D01*
X86802451Y-229717585D01*
X87032415Y-229947549D01*
X87213097Y-230217958D01*
X87337553Y-230518421D01*
X87401000Y-230837391D01*
X87401000Y-231162609D01*
X87337553Y-231481579D01*
X87213097Y-231782042D01*
X87032415Y-232052451D01*
X86802451Y-232282415D01*
X86532042Y-232463097D01*
X86231579Y-232587553D01*
X86125256Y-232608702D01*
X85912611Y-232651000D01*
X85587389Y-232651000D01*
X85374744Y-232608702D01*
X85268421Y-232587553D01*
X84967958Y-232463097D01*
X84697549Y-232282415D01*
X84467585Y-232052451D01*
X84286903Y-231782042D01*
X84162447Y-231481579D01*
X84099000Y-231162609D01*
X84099000Y-230837391D01*
X84162447Y-230518421D01*
X84286903Y-230217958D01*
X84467585Y-229947549D01*
X84697549Y-229717585D01*
X84967958Y-229536903D01*
X85268421Y-229412447D01*
X85374744Y-229391298D01*
X85587389Y-229349000D01*
X85912611Y-229349000D01*
X86125256Y-229391298D01*
G37*
G36*
X286710443Y-223505519D02*
G01*
X286776627Y-223512037D01*
X286946466Y-223563557D01*
X287102991Y-223647222D01*
X287138729Y-223676552D01*
X287240186Y-223759814D01*
X287323448Y-223861271D01*
X287352778Y-223897009D01*
X287436443Y-224053534D01*
X287487963Y-224223373D01*
X287505359Y-224400000D01*
X287487963Y-224576627D01*
X287436443Y-224746466D01*
X287352778Y-224902991D01*
X287323448Y-224938729D01*
X287240186Y-225040186D01*
X287138729Y-225123448D01*
X287102991Y-225152778D01*
X286946466Y-225236443D01*
X286776627Y-225287963D01*
X286710442Y-225294482D01*
X286644260Y-225301000D01*
X284855740Y-225301000D01*
X284789558Y-225294482D01*
X284723373Y-225287963D01*
X284553534Y-225236443D01*
X284397009Y-225152778D01*
X284361271Y-225123448D01*
X284259814Y-225040186D01*
X284176552Y-224938729D01*
X284147222Y-224902991D01*
X284063557Y-224746466D01*
X284012037Y-224576627D01*
X283994641Y-224400000D01*
X284012037Y-224223373D01*
X284063557Y-224053534D01*
X284147222Y-223897009D01*
X284176552Y-223861271D01*
X284259814Y-223759814D01*
X284361271Y-223676552D01*
X284397009Y-223647222D01*
X284553534Y-223563557D01*
X284723373Y-223512037D01*
X284789557Y-223505519D01*
X284855740Y-223499000D01*
X286644260Y-223499000D01*
X286710443Y-223505519D01*
G37*
G36*
X121710443Y-223505519D02*
G01*
X121776627Y-223512037D01*
X121946466Y-223563557D01*
X122102991Y-223647222D01*
X122138729Y-223676552D01*
X122240186Y-223759814D01*
X122323448Y-223861271D01*
X122352778Y-223897009D01*
X122436443Y-224053534D01*
X122487963Y-224223373D01*
X122505359Y-224400000D01*
X122487963Y-224576627D01*
X122436443Y-224746466D01*
X122352778Y-224902991D01*
X122323448Y-224938729D01*
X122240186Y-225040186D01*
X122138729Y-225123448D01*
X122102991Y-225152778D01*
X121946466Y-225236443D01*
X121776627Y-225287963D01*
X121710442Y-225294482D01*
X121644260Y-225301000D01*
X119855740Y-225301000D01*
X119789558Y-225294482D01*
X119723373Y-225287963D01*
X119553534Y-225236443D01*
X119397009Y-225152778D01*
X119361271Y-225123448D01*
X119259814Y-225040186D01*
X119176552Y-224938729D01*
X119147222Y-224902991D01*
X119063557Y-224746466D01*
X119012037Y-224576627D01*
X118994641Y-224400000D01*
X119012037Y-224223373D01*
X119063557Y-224053534D01*
X119147222Y-223897009D01*
X119176552Y-223861271D01*
X119259814Y-223759814D01*
X119361271Y-223676552D01*
X119397009Y-223647222D01*
X119553534Y-223563557D01*
X119723373Y-223512037D01*
X119789557Y-223505519D01*
X119855740Y-223499000D01*
X121644260Y-223499000D01*
X121710443Y-223505519D01*
G37*
G36*
X172384239Y-218811467D02*
G01*
X172698282Y-218873934D01*
X173289926Y-219119001D01*
X173822392Y-219474784D01*
X174275216Y-219927608D01*
X174630999Y-220460074D01*
X174876066Y-221051718D01*
X174896441Y-221154149D01*
X174987945Y-221614169D01*
X175001000Y-221679804D01*
X175001000Y-222320196D01*
X174876066Y-222948282D01*
X174630999Y-223539926D01*
X174410326Y-223870186D01*
X174284165Y-224059000D01*
X174275216Y-224072392D01*
X173822392Y-224525216D01*
X173289926Y-224880999D01*
X172698282Y-225126066D01*
X172384239Y-225188533D01*
X172070197Y-225251000D01*
X171429803Y-225251000D01*
X171115761Y-225188533D01*
X170801718Y-225126066D01*
X170210074Y-224880999D01*
X169677608Y-224525216D01*
X169224784Y-224072392D01*
X169215836Y-224059000D01*
X169089674Y-223870186D01*
X168869001Y-223539926D01*
X168623934Y-222948282D01*
X168499000Y-222320196D01*
X168499000Y-221679804D01*
X168512056Y-221614169D01*
X168603559Y-221154149D01*
X168623934Y-221051718D01*
X168869001Y-220460074D01*
X169224784Y-219927608D01*
X169677608Y-219474784D01*
X170210074Y-219119001D01*
X170801718Y-218873934D01*
X171115761Y-218811467D01*
X171429803Y-218749000D01*
X172070197Y-218749000D01*
X172384239Y-218811467D01*
G37*
G36*
X337384239Y-218811467D02*
G01*
X337698282Y-218873934D01*
X338289926Y-219119001D01*
X338822392Y-219474784D01*
X339275216Y-219927608D01*
X339630999Y-220460074D01*
X339876066Y-221051718D01*
X339896441Y-221154149D01*
X339987945Y-221614169D01*
X340001000Y-221679804D01*
X340001000Y-222320196D01*
X339876066Y-222948282D01*
X339630999Y-223539926D01*
X339410326Y-223870186D01*
X339284165Y-224059000D01*
X339275216Y-224072392D01*
X338822392Y-224525216D01*
X338289926Y-224880999D01*
X337698282Y-225126066D01*
X337384239Y-225188533D01*
X337070197Y-225251000D01*
X336429803Y-225251000D01*
X336115761Y-225188533D01*
X335801718Y-225126066D01*
X335210074Y-224880999D01*
X334677608Y-224525216D01*
X334224784Y-224072392D01*
X334215836Y-224059000D01*
X334089674Y-223870186D01*
X333869001Y-223539926D01*
X333623934Y-222948282D01*
X333499000Y-222320196D01*
X333499000Y-221679804D01*
X333512056Y-221614169D01*
X333603559Y-221154149D01*
X333623934Y-221051718D01*
X333869001Y-220460074D01*
X334224784Y-219927608D01*
X334677608Y-219474784D01*
X335210074Y-219119001D01*
X335801718Y-218873934D01*
X336115761Y-218811467D01*
X336429803Y-218749000D01*
X337070197Y-218749000D01*
X337384239Y-218811467D01*
G37*
G36*
X250384239Y-218811467D02*
G01*
X250698282Y-218873934D01*
X251289926Y-219119001D01*
X251822392Y-219474784D01*
X252275216Y-219927608D01*
X252630999Y-220460074D01*
X252876066Y-221051718D01*
X252896441Y-221154149D01*
X252987945Y-221614169D01*
X253001000Y-221679804D01*
X253001000Y-222320196D01*
X252876066Y-222948282D01*
X252630999Y-223539926D01*
X252410326Y-223870186D01*
X252284165Y-224059000D01*
X252275216Y-224072392D01*
X251822392Y-224525216D01*
X251289926Y-224880999D01*
X250698282Y-225126066D01*
X250384239Y-225188533D01*
X250070197Y-225251000D01*
X249429803Y-225251000D01*
X249115761Y-225188533D01*
X248801718Y-225126066D01*
X248210074Y-224880999D01*
X247677608Y-224525216D01*
X247224784Y-224072392D01*
X247215836Y-224059000D01*
X247089674Y-223870186D01*
X246869001Y-223539926D01*
X246623934Y-222948282D01*
X246499000Y-222320196D01*
X246499000Y-221679804D01*
X246512056Y-221614169D01*
X246603559Y-221154149D01*
X246623934Y-221051718D01*
X246869001Y-220460074D01*
X247224784Y-219927608D01*
X247677608Y-219474784D01*
X248210074Y-219119001D01*
X248801718Y-218873934D01*
X249115761Y-218811467D01*
X249429803Y-218749000D01*
X250070197Y-218749000D01*
X250384239Y-218811467D01*
G37*
G36*
X85384239Y-218811467D02*
G01*
X85698282Y-218873934D01*
X86289926Y-219119001D01*
X86822392Y-219474784D01*
X87275216Y-219927608D01*
X87630999Y-220460074D01*
X87876066Y-221051718D01*
X87896441Y-221154149D01*
X87987945Y-221614169D01*
X88001000Y-221679804D01*
X88001000Y-222320196D01*
X87876066Y-222948282D01*
X87630999Y-223539926D01*
X87410326Y-223870186D01*
X87284165Y-224059000D01*
X87275216Y-224072392D01*
X86822392Y-224525216D01*
X86289926Y-224880999D01*
X85698282Y-225126066D01*
X85384239Y-225188533D01*
X85070197Y-225251000D01*
X84429803Y-225251000D01*
X84115761Y-225188533D01*
X83801718Y-225126066D01*
X83210074Y-224880999D01*
X82677608Y-224525216D01*
X82224784Y-224072392D01*
X82215836Y-224059000D01*
X82089674Y-223870186D01*
X81869001Y-223539926D01*
X81623934Y-222948282D01*
X81499000Y-222320196D01*
X81499000Y-221679804D01*
X81512056Y-221614169D01*
X81603559Y-221154149D01*
X81623934Y-221051718D01*
X81869001Y-220460074D01*
X82224784Y-219927608D01*
X82677608Y-219474784D01*
X83210074Y-219119001D01*
X83801718Y-218873934D01*
X84115761Y-218811467D01*
X84429803Y-218749000D01*
X85070197Y-218749000D01*
X85384239Y-218811467D01*
G37*
G36*
X113433911Y-220804754D02*
G01*
X113584872Y-220867284D01*
X113735831Y-220929813D01*
X113735832Y-220929814D01*
X114007548Y-221111368D01*
X114238632Y-221342452D01*
X114366368Y-221533624D01*
X114420187Y-221614169D01*
X114455325Y-221699000D01*
X114545246Y-221916089D01*
X114609000Y-222236601D01*
X114609000Y-222563399D01*
X114545246Y-222883911D01*
X114507783Y-222974354D01*
X114420187Y-223185831D01*
X114420186Y-223185832D01*
X114238632Y-223457548D01*
X114007548Y-223688632D01*
X113803761Y-223824798D01*
X113735831Y-223870187D01*
X113584871Y-223932716D01*
X113433911Y-223995246D01*
X113113399Y-224059000D01*
X112786601Y-224059000D01*
X112466089Y-223995246D01*
X112315129Y-223932716D01*
X112164169Y-223870187D01*
X112096239Y-223824798D01*
X111892452Y-223688632D01*
X111661368Y-223457548D01*
X111479814Y-223185832D01*
X111479813Y-223185831D01*
X111392217Y-222974354D01*
X111354754Y-222883911D01*
X111291000Y-222563399D01*
X111291000Y-222236601D01*
X111354754Y-221916089D01*
X111444675Y-221699000D01*
X111479813Y-221614169D01*
X111533632Y-221533624D01*
X111661368Y-221342452D01*
X111892452Y-221111368D01*
X112164168Y-220929814D01*
X112164169Y-220929813D01*
X112315128Y-220867284D01*
X112466089Y-220804754D01*
X112786601Y-220741000D01*
X113113399Y-220741000D01*
X113433911Y-220804754D01*
G37*
G36*
X129033911Y-220804754D02*
G01*
X129184872Y-220867284D01*
X129335831Y-220929813D01*
X129335832Y-220929814D01*
X129607548Y-221111368D01*
X129838632Y-221342452D01*
X129966368Y-221533624D01*
X130020187Y-221614169D01*
X130055325Y-221699000D01*
X130145246Y-221916089D01*
X130209000Y-222236601D01*
X130209000Y-222563399D01*
X130145246Y-222883911D01*
X130107783Y-222974354D01*
X130020187Y-223185831D01*
X130020186Y-223185832D01*
X129838632Y-223457548D01*
X129607548Y-223688632D01*
X129403761Y-223824798D01*
X129335831Y-223870187D01*
X129184871Y-223932716D01*
X129033911Y-223995246D01*
X128713399Y-224059000D01*
X128386601Y-224059000D01*
X128066089Y-223995246D01*
X127915129Y-223932716D01*
X127764169Y-223870187D01*
X127696239Y-223824798D01*
X127492452Y-223688632D01*
X127261368Y-223457548D01*
X127079814Y-223185832D01*
X127079813Y-223185831D01*
X126992217Y-222974354D01*
X126954754Y-222883911D01*
X126891000Y-222563399D01*
X126891000Y-222236601D01*
X126954754Y-221916089D01*
X127044675Y-221699000D01*
X127079813Y-221614169D01*
X127133632Y-221533624D01*
X127261368Y-221342452D01*
X127492452Y-221111368D01*
X127764168Y-220929814D01*
X127764169Y-220929813D01*
X127915128Y-220867284D01*
X128066089Y-220804754D01*
X128386601Y-220741000D01*
X128713399Y-220741000D01*
X129033911Y-220804754D01*
G37*
G36*
X278433911Y-220804754D02*
G01*
X278584872Y-220867284D01*
X278735831Y-220929813D01*
X278735832Y-220929814D01*
X279007548Y-221111368D01*
X279238632Y-221342452D01*
X279366368Y-221533624D01*
X279420187Y-221614169D01*
X279455325Y-221699000D01*
X279545246Y-221916089D01*
X279609000Y-222236601D01*
X279609000Y-222563399D01*
X279545246Y-222883911D01*
X279507783Y-222974354D01*
X279420187Y-223185831D01*
X279420186Y-223185832D01*
X279238632Y-223457548D01*
X279007548Y-223688632D01*
X278803761Y-223824798D01*
X278735831Y-223870187D01*
X278584871Y-223932716D01*
X278433911Y-223995246D01*
X278113399Y-224059000D01*
X277786601Y-224059000D01*
X277466089Y-223995246D01*
X277315129Y-223932716D01*
X277164169Y-223870187D01*
X277096239Y-223824798D01*
X276892452Y-223688632D01*
X276661368Y-223457548D01*
X276479814Y-223185832D01*
X276479813Y-223185831D01*
X276392217Y-222974354D01*
X276354754Y-222883911D01*
X276291000Y-222563399D01*
X276291000Y-222236601D01*
X276354754Y-221916089D01*
X276444675Y-221699000D01*
X276479813Y-221614169D01*
X276533632Y-221533624D01*
X276661368Y-221342452D01*
X276892452Y-221111368D01*
X277164168Y-220929814D01*
X277164169Y-220929813D01*
X277315128Y-220867284D01*
X277466089Y-220804754D01*
X277786601Y-220741000D01*
X278113399Y-220741000D01*
X278433911Y-220804754D01*
G37*
G36*
X294033911Y-220804754D02*
G01*
X294184872Y-220867284D01*
X294335831Y-220929813D01*
X294335832Y-220929814D01*
X294607548Y-221111368D01*
X294838632Y-221342452D01*
X294966368Y-221533624D01*
X295020187Y-221614169D01*
X295055325Y-221699000D01*
X295145246Y-221916089D01*
X295209000Y-222236601D01*
X295209000Y-222563399D01*
X295145246Y-222883911D01*
X295107783Y-222974354D01*
X295020187Y-223185831D01*
X295020186Y-223185832D01*
X294838632Y-223457548D01*
X294607548Y-223688632D01*
X294403761Y-223824798D01*
X294335831Y-223870187D01*
X294184871Y-223932716D01*
X294033911Y-223995246D01*
X293713399Y-224059000D01*
X293386601Y-224059000D01*
X293066089Y-223995246D01*
X292915129Y-223932716D01*
X292764169Y-223870187D01*
X292696239Y-223824798D01*
X292492452Y-223688632D01*
X292261368Y-223457548D01*
X292079814Y-223185832D01*
X292079813Y-223185831D01*
X291992217Y-222974354D01*
X291954754Y-222883911D01*
X291891000Y-222563399D01*
X291891000Y-222236601D01*
X291954754Y-221916089D01*
X292044675Y-221699000D01*
X292079813Y-221614169D01*
X292133632Y-221533624D01*
X292261368Y-221342452D01*
X292492452Y-221111368D01*
X292764168Y-220929814D01*
X292764169Y-220929813D01*
X292915128Y-220867284D01*
X293066089Y-220804754D01*
X293386601Y-220741000D01*
X293713399Y-220741000D01*
X294033911Y-220804754D01*
G37*
G36*
X100853097Y-221704069D02*
G01*
X100956032Y-221714207D01*
X101154146Y-221774305D01*
X101154149Y-221774306D01*
X101213603Y-221806085D01*
X101336729Y-221871897D01*
X101496765Y-222003235D01*
X101628103Y-222163271D01*
X101673939Y-222249025D01*
X101725694Y-222345851D01*
X101725695Y-222345854D01*
X101785793Y-222543968D01*
X101806085Y-222750000D01*
X101785793Y-222956032D01*
X101742165Y-223099852D01*
X101725694Y-223154149D01*
X101708759Y-223185832D01*
X101628103Y-223336729D01*
X101496765Y-223496765D01*
X101336729Y-223628103D01*
X101250975Y-223673939D01*
X101154149Y-223725694D01*
X101154146Y-223725695D01*
X100956032Y-223785793D01*
X100853097Y-223795931D01*
X100801631Y-223801000D01*
X98698369Y-223801000D01*
X98646903Y-223795931D01*
X98543968Y-223785793D01*
X98345854Y-223725695D01*
X98345851Y-223725694D01*
X98249025Y-223673939D01*
X98163271Y-223628103D01*
X98003235Y-223496765D01*
X97871897Y-223336729D01*
X97791241Y-223185832D01*
X97774306Y-223154149D01*
X97757835Y-223099852D01*
X97714207Y-222956032D01*
X97693915Y-222750000D01*
X97714207Y-222543968D01*
X97774305Y-222345854D01*
X97774306Y-222345851D01*
X97826061Y-222249025D01*
X97871897Y-222163271D01*
X98003235Y-222003235D01*
X98163271Y-221871897D01*
X98286397Y-221806085D01*
X98345851Y-221774306D01*
X98345854Y-221774305D01*
X98543968Y-221714207D01*
X98646903Y-221704069D01*
X98698369Y-221699000D01*
X100801631Y-221699000D01*
X100853097Y-221704069D01*
G37*
G36*
X265853097Y-221704069D02*
G01*
X265956032Y-221714207D01*
X266154146Y-221774305D01*
X266154149Y-221774306D01*
X266213603Y-221806085D01*
X266336729Y-221871897D01*
X266496765Y-222003235D01*
X266628103Y-222163271D01*
X266673939Y-222249025D01*
X266725694Y-222345851D01*
X266725695Y-222345854D01*
X266785793Y-222543968D01*
X266806085Y-222750000D01*
X266785793Y-222956032D01*
X266742165Y-223099852D01*
X266725694Y-223154149D01*
X266708759Y-223185832D01*
X266628103Y-223336729D01*
X266496765Y-223496765D01*
X266336729Y-223628103D01*
X266250975Y-223673939D01*
X266154149Y-223725694D01*
X266154146Y-223725695D01*
X265956032Y-223785793D01*
X265853097Y-223795931D01*
X265801631Y-223801000D01*
X263698369Y-223801000D01*
X263646903Y-223795931D01*
X263543968Y-223785793D01*
X263345854Y-223725695D01*
X263345851Y-223725694D01*
X263249025Y-223673939D01*
X263163271Y-223628103D01*
X263003235Y-223496765D01*
X262871897Y-223336729D01*
X262791241Y-223185832D01*
X262774306Y-223154149D01*
X262757835Y-223099852D01*
X262714207Y-222956032D01*
X262693915Y-222750000D01*
X262714207Y-222543968D01*
X262774305Y-222345854D01*
X262774306Y-222345851D01*
X262826061Y-222249025D01*
X262871897Y-222163271D01*
X263003235Y-222003235D01*
X263163271Y-221871897D01*
X263286397Y-221806085D01*
X263345851Y-221774306D01*
X263345854Y-221774305D01*
X263543968Y-221714207D01*
X263646903Y-221704069D01*
X263698369Y-221699000D01*
X265801631Y-221699000D01*
X265853097Y-221704069D01*
G37*
G36*
X288363512Y-221503927D02*
G01*
X288512812Y-221533624D01*
X288676784Y-221601544D01*
X288824354Y-221700147D01*
X288949853Y-221825646D01*
X289048456Y-221973216D01*
X289116376Y-222137188D01*
X289151000Y-222311259D01*
X289151000Y-222488741D01*
X289116376Y-222662812D01*
X289048456Y-222826784D01*
X288949853Y-222974354D01*
X288824354Y-223099853D01*
X288676784Y-223198456D01*
X288512812Y-223266376D01*
X288363512Y-223296073D01*
X288338742Y-223301000D01*
X288161258Y-223301000D01*
X288136488Y-223296073D01*
X287987188Y-223266376D01*
X287823216Y-223198456D01*
X287675646Y-223099853D01*
X287550147Y-222974354D01*
X287451544Y-222826784D01*
X287383624Y-222662812D01*
X287349000Y-222488741D01*
X287349000Y-222311259D01*
X287383624Y-222137188D01*
X287451544Y-221973216D01*
X287550147Y-221825646D01*
X287675646Y-221700147D01*
X287823216Y-221601544D01*
X287987188Y-221533624D01*
X288136488Y-221503927D01*
X288161258Y-221499000D01*
X288338742Y-221499000D01*
X288363512Y-221503927D01*
G37*
G36*
X118363512Y-221503927D02*
G01*
X118512812Y-221533624D01*
X118676784Y-221601544D01*
X118824354Y-221700147D01*
X118949853Y-221825646D01*
X119048456Y-221973216D01*
X119116376Y-222137188D01*
X119151000Y-222311259D01*
X119151000Y-222488741D01*
X119116376Y-222662812D01*
X119048456Y-222826784D01*
X118949853Y-222974354D01*
X118824354Y-223099853D01*
X118676784Y-223198456D01*
X118512812Y-223266376D01*
X118363512Y-223296073D01*
X118338742Y-223301000D01*
X118161258Y-223301000D01*
X118136488Y-223296073D01*
X117987188Y-223266376D01*
X117823216Y-223198456D01*
X117675646Y-223099853D01*
X117550147Y-222974354D01*
X117451544Y-222826784D01*
X117383624Y-222662812D01*
X117349000Y-222488741D01*
X117349000Y-222311259D01*
X117383624Y-222137188D01*
X117451544Y-221973216D01*
X117550147Y-221825646D01*
X117675646Y-221700147D01*
X117823216Y-221601544D01*
X117987188Y-221533624D01*
X118136488Y-221503927D01*
X118161258Y-221499000D01*
X118338742Y-221499000D01*
X118363512Y-221503927D01*
G37*
G36*
X123363512Y-221503927D02*
G01*
X123512812Y-221533624D01*
X123676784Y-221601544D01*
X123824354Y-221700147D01*
X123949853Y-221825646D01*
X124048456Y-221973216D01*
X124116376Y-222137188D01*
X124151000Y-222311259D01*
X124151000Y-222488741D01*
X124116376Y-222662812D01*
X124048456Y-222826784D01*
X123949853Y-222974354D01*
X123824354Y-223099853D01*
X123676784Y-223198456D01*
X123512812Y-223266376D01*
X123363512Y-223296073D01*
X123338742Y-223301000D01*
X123161258Y-223301000D01*
X123136488Y-223296073D01*
X122987188Y-223266376D01*
X122823216Y-223198456D01*
X122675646Y-223099853D01*
X122550147Y-222974354D01*
X122451544Y-222826784D01*
X122383624Y-222662812D01*
X122349000Y-222488741D01*
X122349000Y-222311259D01*
X122383624Y-222137188D01*
X122451544Y-221973216D01*
X122550147Y-221825646D01*
X122675646Y-221700147D01*
X122823216Y-221601544D01*
X122987188Y-221533624D01*
X123136488Y-221503927D01*
X123161258Y-221499000D01*
X123338742Y-221499000D01*
X123363512Y-221503927D01*
G37*
G36*
X283363512Y-221503927D02*
G01*
X283512812Y-221533624D01*
X283676784Y-221601544D01*
X283824354Y-221700147D01*
X283949853Y-221825646D01*
X284048456Y-221973216D01*
X284116376Y-222137188D01*
X284151000Y-222311259D01*
X284151000Y-222488741D01*
X284116376Y-222662812D01*
X284048456Y-222826784D01*
X283949853Y-222974354D01*
X283824354Y-223099853D01*
X283676784Y-223198456D01*
X283512812Y-223266376D01*
X283363512Y-223296073D01*
X283338742Y-223301000D01*
X283161258Y-223301000D01*
X283136488Y-223296073D01*
X282987188Y-223266376D01*
X282823216Y-223198456D01*
X282675646Y-223099853D01*
X282550147Y-222974354D01*
X282451544Y-222826784D01*
X282383624Y-222662812D01*
X282349000Y-222488741D01*
X282349000Y-222311259D01*
X282383624Y-222137188D01*
X282451544Y-221973216D01*
X282550147Y-221825646D01*
X282675646Y-221700147D01*
X282823216Y-221601544D01*
X282987188Y-221533624D01*
X283136488Y-221503927D01*
X283161258Y-221499000D01*
X283338742Y-221499000D01*
X283363512Y-221503927D01*
G37*
G36*
X269656032Y-217714207D02*
G01*
X269854146Y-217774305D01*
X269854149Y-217774306D01*
X269942525Y-217821544D01*
X270036729Y-217871897D01*
X270196765Y-218003235D01*
X270328103Y-218163271D01*
X270344110Y-218193218D01*
X270425694Y-218345851D01*
X270425695Y-218345854D01*
X270485793Y-218543968D01*
X270501000Y-218698370D01*
X270501000Y-220801630D01*
X270485793Y-220956032D01*
X270456766Y-221051719D01*
X270425694Y-221154149D01*
X270373939Y-221250975D01*
X270328103Y-221336729D01*
X270196765Y-221496765D01*
X270036729Y-221628103D01*
X269940004Y-221679803D01*
X269854148Y-221725694D01*
X269854145Y-221725695D01*
X269656031Y-221785793D01*
X269450000Y-221806085D01*
X269243968Y-221785793D01*
X269045854Y-221725695D01*
X269045851Y-221725694D01*
X268949025Y-221673939D01*
X268863271Y-221628103D01*
X268703235Y-221496765D01*
X268571897Y-221336729D01*
X268474307Y-221154149D01*
X268474306Y-221154148D01*
X268474305Y-221154145D01*
X268414207Y-220956031D01*
X268399000Y-220801629D01*
X268399001Y-218698370D01*
X268414208Y-218543968D01*
X268474306Y-218345854D01*
X268474307Y-218345851D01*
X268555891Y-218193218D01*
X268571898Y-218163271D01*
X268703236Y-218003235D01*
X268863272Y-217871897D01*
X268957476Y-217821544D01*
X269045852Y-217774306D01*
X269045855Y-217774305D01*
X269243969Y-217714207D01*
X269450000Y-217693915D01*
X269656032Y-217714207D01*
G37*
G36*
X104656032Y-217714207D02*
G01*
X104854146Y-217774305D01*
X104854149Y-217774306D01*
X104942525Y-217821544D01*
X105036729Y-217871897D01*
X105196765Y-218003235D01*
X105328103Y-218163271D01*
X105344110Y-218193218D01*
X105425694Y-218345851D01*
X105425695Y-218345854D01*
X105485793Y-218543968D01*
X105501000Y-218698370D01*
X105501000Y-220801630D01*
X105485793Y-220956032D01*
X105456766Y-221051719D01*
X105425694Y-221154149D01*
X105373939Y-221250975D01*
X105328103Y-221336729D01*
X105196765Y-221496765D01*
X105036729Y-221628103D01*
X104940004Y-221679803D01*
X104854148Y-221725694D01*
X104854145Y-221725695D01*
X104656031Y-221785793D01*
X104450000Y-221806085D01*
X104243968Y-221785793D01*
X104045854Y-221725695D01*
X104045851Y-221725694D01*
X103949025Y-221673939D01*
X103863271Y-221628103D01*
X103703235Y-221496765D01*
X103571897Y-221336729D01*
X103474307Y-221154149D01*
X103474306Y-221154148D01*
X103474305Y-221154145D01*
X103414207Y-220956031D01*
X103399000Y-220801629D01*
X103399001Y-218698370D01*
X103414208Y-218543968D01*
X103474306Y-218345854D01*
X103474307Y-218345851D01*
X103555891Y-218193218D01*
X103571898Y-218163271D01*
X103703236Y-218003235D01*
X103863272Y-217871897D01*
X103957476Y-217821544D01*
X104045852Y-217774306D01*
X104045855Y-217774305D01*
X104243969Y-217714207D01*
X104450000Y-217693915D01*
X104656032Y-217714207D01*
G37*
G36*
X298841587Y-217719566D02*
G01*
X299012812Y-217753624D01*
X299176784Y-217821544D01*
X299324354Y-217920147D01*
X299449853Y-218045646D01*
X299548456Y-218193216D01*
X299616376Y-218357188D01*
X299651000Y-218531259D01*
X299651000Y-218708741D01*
X299616376Y-218882812D01*
X299548456Y-219046784D01*
X299449853Y-219194354D01*
X299324354Y-219319853D01*
X299176784Y-219418456D01*
X299012812Y-219486376D01*
X298863512Y-219516073D01*
X298838742Y-219521000D01*
X298661258Y-219521000D01*
X298636488Y-219516073D01*
X298487188Y-219486376D01*
X298323216Y-219418456D01*
X298175646Y-219319853D01*
X298050147Y-219194354D01*
X297951544Y-219046784D01*
X297883624Y-218882812D01*
X297849000Y-218708741D01*
X297849000Y-218531259D01*
X297883624Y-218357188D01*
X297951544Y-218193216D01*
X298050147Y-218045646D01*
X298175646Y-217920147D01*
X298323216Y-217821544D01*
X298487188Y-217753624D01*
X298658413Y-217719566D01*
X298661258Y-217719000D01*
X298838742Y-217719000D01*
X298841587Y-217719566D01*
G37*
G36*
X133841587Y-217719566D02*
G01*
X134012812Y-217753624D01*
X134176784Y-217821544D01*
X134324354Y-217920147D01*
X134449853Y-218045646D01*
X134548456Y-218193216D01*
X134616376Y-218357188D01*
X134651000Y-218531259D01*
X134651000Y-218708741D01*
X134616376Y-218882812D01*
X134548456Y-219046784D01*
X134449853Y-219194354D01*
X134324354Y-219319853D01*
X134176784Y-219418456D01*
X134012812Y-219486376D01*
X133863512Y-219516073D01*
X133838742Y-219521000D01*
X133661258Y-219521000D01*
X133636488Y-219516073D01*
X133487188Y-219486376D01*
X133323216Y-219418456D01*
X133175646Y-219319853D01*
X133050147Y-219194354D01*
X132951544Y-219046784D01*
X132883624Y-218882812D01*
X132849000Y-218708741D01*
X132849000Y-218531259D01*
X132883624Y-218357188D01*
X132951544Y-218193216D01*
X133050147Y-218045646D01*
X133175646Y-217920147D01*
X133323216Y-217821544D01*
X133487188Y-217753624D01*
X133658413Y-217719566D01*
X133661258Y-217719000D01*
X133838742Y-217719000D01*
X133841587Y-217719566D01*
G37*
G36*
X127005520Y-217557664D02*
G01*
X127164942Y-217623699D01*
X127308418Y-217719566D01*
X127430434Y-217841582D01*
X127526301Y-217985058D01*
X127592336Y-218144480D01*
X127626000Y-218313721D01*
X127626000Y-218486279D01*
X127592336Y-218655520D01*
X127526301Y-218814942D01*
X127430434Y-218958418D01*
X127308418Y-219080434D01*
X127164942Y-219176301D01*
X127005520Y-219242336D01*
X126920899Y-219259168D01*
X126836280Y-219276000D01*
X126663720Y-219276000D01*
X126579101Y-219259168D01*
X126494480Y-219242336D01*
X126335058Y-219176301D01*
X126191582Y-219080434D01*
X126069566Y-218958418D01*
X125973699Y-218814942D01*
X125907664Y-218655520D01*
X125874000Y-218486279D01*
X125874000Y-218313721D01*
X125907664Y-218144480D01*
X125973699Y-217985058D01*
X126069566Y-217841582D01*
X126191582Y-217719566D01*
X126335058Y-217623699D01*
X126494480Y-217557664D01*
X126663720Y-217524000D01*
X126836280Y-217524000D01*
X127005520Y-217557664D01*
G37*
G36*
X292005520Y-217557664D02*
G01*
X292164942Y-217623699D01*
X292308418Y-217719566D01*
X292430434Y-217841582D01*
X292526301Y-217985058D01*
X292592336Y-218144480D01*
X292626000Y-218313721D01*
X292626000Y-218486279D01*
X292592336Y-218655520D01*
X292526301Y-218814942D01*
X292430434Y-218958418D01*
X292308418Y-219080434D01*
X292164942Y-219176301D01*
X292005520Y-219242336D01*
X291920899Y-219259168D01*
X291836280Y-219276000D01*
X291663720Y-219276000D01*
X291579101Y-219259168D01*
X291494480Y-219242336D01*
X291335058Y-219176301D01*
X291191582Y-219080434D01*
X291069566Y-218958418D01*
X290973699Y-218814942D01*
X290907664Y-218655520D01*
X290874000Y-218486279D01*
X290874000Y-218313721D01*
X290907664Y-218144480D01*
X290973699Y-217985058D01*
X291069566Y-217841582D01*
X291191582Y-217719566D01*
X291335058Y-217623699D01*
X291494480Y-217557664D01*
X291663720Y-217524000D01*
X291836280Y-217524000D01*
X292005520Y-217557664D01*
G37*
G36*
X266103097Y-215704069D02*
G01*
X266206032Y-215714207D01*
X266404146Y-215774305D01*
X266404149Y-215774306D01*
X266484375Y-215817188D01*
X266586729Y-215871897D01*
X266746765Y-216003235D01*
X266878103Y-216163271D01*
X266881027Y-216168742D01*
X266975694Y-216345851D01*
X266975695Y-216345854D01*
X267035793Y-216543968D01*
X267056085Y-216750000D01*
X267035793Y-216956032D01*
X266975695Y-217154146D01*
X266975694Y-217154149D01*
X266923939Y-217250975D01*
X266878103Y-217336729D01*
X266746765Y-217496765D01*
X266586729Y-217628103D01*
X266500975Y-217673939D01*
X266404149Y-217725694D01*
X266404146Y-217725695D01*
X266206032Y-217785793D01*
X266103097Y-217795931D01*
X266051631Y-217801000D01*
X263448369Y-217801000D01*
X263396903Y-217795931D01*
X263293968Y-217785793D01*
X263095854Y-217725695D01*
X263095851Y-217725694D01*
X262999025Y-217673939D01*
X262913271Y-217628103D01*
X262753235Y-217496765D01*
X262621897Y-217336729D01*
X262576061Y-217250975D01*
X262524306Y-217154149D01*
X262524305Y-217154146D01*
X262464207Y-216956032D01*
X262443915Y-216750000D01*
X262464207Y-216543968D01*
X262524305Y-216345854D01*
X262524306Y-216345851D01*
X262618973Y-216168742D01*
X262621897Y-216163271D01*
X262753235Y-216003235D01*
X262913271Y-215871897D01*
X263015625Y-215817188D01*
X263095851Y-215774306D01*
X263095854Y-215774305D01*
X263293968Y-215714207D01*
X263396903Y-215704069D01*
X263448369Y-215699000D01*
X266051631Y-215699000D01*
X266103097Y-215704069D01*
G37*
G36*
X101103097Y-215704069D02*
G01*
X101206032Y-215714207D01*
X101404146Y-215774305D01*
X101404149Y-215774306D01*
X101484375Y-215817188D01*
X101586729Y-215871897D01*
X101746765Y-216003235D01*
X101878103Y-216163271D01*
X101881027Y-216168742D01*
X101975694Y-216345851D01*
X101975695Y-216345854D01*
X102035793Y-216543968D01*
X102056085Y-216750000D01*
X102035793Y-216956032D01*
X101975695Y-217154146D01*
X101975694Y-217154149D01*
X101923939Y-217250975D01*
X101878103Y-217336729D01*
X101746765Y-217496765D01*
X101586729Y-217628103D01*
X101500975Y-217673939D01*
X101404149Y-217725694D01*
X101404146Y-217725695D01*
X101206032Y-217785793D01*
X101103097Y-217795931D01*
X101051631Y-217801000D01*
X98448369Y-217801000D01*
X98396903Y-217795931D01*
X98293968Y-217785793D01*
X98095854Y-217725695D01*
X98095851Y-217725694D01*
X97999025Y-217673939D01*
X97913271Y-217628103D01*
X97753235Y-217496765D01*
X97621897Y-217336729D01*
X97576061Y-217250975D01*
X97524306Y-217154149D01*
X97524305Y-217154146D01*
X97464207Y-216956032D01*
X97443915Y-216750000D01*
X97464207Y-216543968D01*
X97524305Y-216345854D01*
X97524306Y-216345851D01*
X97618973Y-216168742D01*
X97621897Y-216163271D01*
X97753235Y-216003235D01*
X97913271Y-215871897D01*
X98015625Y-215817188D01*
X98095851Y-215774306D01*
X98095854Y-215774305D01*
X98293968Y-215714207D01*
X98396903Y-215704069D01*
X98448369Y-215699000D01*
X101051631Y-215699000D01*
X101103097Y-215704069D01*
G37*
G36*
X283426627Y-213512037D02*
G01*
X283596466Y-213563557D01*
X283752991Y-213647222D01*
X283788729Y-213676552D01*
X283890186Y-213759814D01*
X283973448Y-213861271D01*
X284002778Y-213897009D01*
X284086443Y-214053534D01*
X284137963Y-214223373D01*
X284137963Y-214223375D01*
X284151000Y-214355740D01*
X284151000Y-216144260D01*
X284149127Y-216163272D01*
X284137963Y-216276627D01*
X284086443Y-216446466D01*
X284002778Y-216602991D01*
X283973448Y-216638729D01*
X283890186Y-216740186D01*
X283752989Y-216852779D01*
X283596467Y-216936442D01*
X283596465Y-216936443D01*
X283426626Y-216987963D01*
X283250000Y-217005359D01*
X283073373Y-216987963D01*
X282903534Y-216936443D01*
X282747009Y-216852778D01*
X282711271Y-216823448D01*
X282609814Y-216740186D01*
X282497221Y-216602989D01*
X282413558Y-216446467D01*
X282413557Y-216446465D01*
X282362037Y-216276626D01*
X282355519Y-216210442D01*
X282349000Y-216144259D01*
X282349001Y-214355740D01*
X282362038Y-214223375D01*
X282362038Y-214223373D01*
X282413558Y-214053534D01*
X282497223Y-213897009D01*
X282526553Y-213861271D01*
X282609815Y-213759814D01*
X282711272Y-213676552D01*
X282747010Y-213647222D01*
X282903535Y-213563557D01*
X283073374Y-213512037D01*
X283250000Y-213494641D01*
X283426627Y-213512037D01*
G37*
G36*
X288426627Y-213512037D02*
G01*
X288596466Y-213563557D01*
X288752991Y-213647222D01*
X288788729Y-213676552D01*
X288890186Y-213759814D01*
X288973448Y-213861271D01*
X289002778Y-213897009D01*
X289086443Y-214053534D01*
X289137963Y-214223373D01*
X289137963Y-214223375D01*
X289151000Y-214355740D01*
X289151000Y-216144260D01*
X289149127Y-216163272D01*
X289137963Y-216276627D01*
X289086443Y-216446466D01*
X289002778Y-216602991D01*
X288973448Y-216638729D01*
X288890186Y-216740186D01*
X288752989Y-216852779D01*
X288596467Y-216936442D01*
X288596465Y-216936443D01*
X288426626Y-216987963D01*
X288250000Y-217005359D01*
X288073373Y-216987963D01*
X287903534Y-216936443D01*
X287747009Y-216852778D01*
X287711271Y-216823448D01*
X287609814Y-216740186D01*
X287497221Y-216602989D01*
X287413558Y-216446467D01*
X287413557Y-216446465D01*
X287362037Y-216276626D01*
X287355519Y-216210442D01*
X287349000Y-216144259D01*
X287349001Y-214355740D01*
X287362038Y-214223375D01*
X287362038Y-214223373D01*
X287413558Y-214053534D01*
X287497223Y-213897009D01*
X287526553Y-213861271D01*
X287609815Y-213759814D01*
X287711272Y-213676552D01*
X287747010Y-213647222D01*
X287903535Y-213563557D01*
X288073374Y-213512037D01*
X288250000Y-213494641D01*
X288426627Y-213512037D01*
G37*
G36*
X123426627Y-213512037D02*
G01*
X123596466Y-213563557D01*
X123752991Y-213647222D01*
X123788729Y-213676552D01*
X123890186Y-213759814D01*
X123973448Y-213861271D01*
X124002778Y-213897009D01*
X124086443Y-214053534D01*
X124137963Y-214223373D01*
X124137963Y-214223375D01*
X124151000Y-214355740D01*
X124151000Y-216144260D01*
X124149127Y-216163272D01*
X124137963Y-216276627D01*
X124086443Y-216446466D01*
X124002778Y-216602991D01*
X123973448Y-216638729D01*
X123890186Y-216740186D01*
X123752989Y-216852779D01*
X123596467Y-216936442D01*
X123596465Y-216936443D01*
X123426626Y-216987963D01*
X123250000Y-217005359D01*
X123073373Y-216987963D01*
X122903534Y-216936443D01*
X122747009Y-216852778D01*
X122711271Y-216823448D01*
X122609814Y-216740186D01*
X122497221Y-216602989D01*
X122413558Y-216446467D01*
X122413557Y-216446465D01*
X122362037Y-216276626D01*
X122355519Y-216210442D01*
X122349000Y-216144259D01*
X122349001Y-214355740D01*
X122362038Y-214223375D01*
X122362038Y-214223373D01*
X122413558Y-214053534D01*
X122497223Y-213897009D01*
X122526553Y-213861271D01*
X122609815Y-213759814D01*
X122711272Y-213676552D01*
X122747010Y-213647222D01*
X122903535Y-213563557D01*
X123073374Y-213512037D01*
X123250000Y-213494641D01*
X123426627Y-213512037D01*
G37*
G36*
X118426627Y-213512037D02*
G01*
X118596466Y-213563557D01*
X118752991Y-213647222D01*
X118788729Y-213676552D01*
X118890186Y-213759814D01*
X118973448Y-213861271D01*
X119002778Y-213897009D01*
X119086443Y-214053534D01*
X119137963Y-214223373D01*
X119137963Y-214223375D01*
X119151000Y-214355740D01*
X119151000Y-216144260D01*
X119149127Y-216163272D01*
X119137963Y-216276627D01*
X119086443Y-216446466D01*
X119002778Y-216602991D01*
X118973448Y-216638729D01*
X118890186Y-216740186D01*
X118752989Y-216852779D01*
X118596467Y-216936442D01*
X118596465Y-216936443D01*
X118426626Y-216987963D01*
X118250000Y-217005359D01*
X118073373Y-216987963D01*
X117903534Y-216936443D01*
X117747009Y-216852778D01*
X117711271Y-216823448D01*
X117609814Y-216740186D01*
X117497221Y-216602989D01*
X117413558Y-216446467D01*
X117413557Y-216446465D01*
X117362037Y-216276626D01*
X117355519Y-216210442D01*
X117349000Y-216144259D01*
X117349001Y-214355740D01*
X117362038Y-214223375D01*
X117362038Y-214223373D01*
X117413558Y-214053534D01*
X117497223Y-213897009D01*
X117526553Y-213861271D01*
X117609815Y-213759814D01*
X117711272Y-213676552D01*
X117747010Y-213647222D01*
X117903535Y-213563557D01*
X118073374Y-213512037D01*
X118250000Y-213494641D01*
X118426627Y-213512037D01*
G37*
G36*
X133863512Y-215183927D02*
G01*
X134012812Y-215213624D01*
X134176784Y-215281544D01*
X134324354Y-215380147D01*
X134449853Y-215505646D01*
X134548456Y-215653216D01*
X134616376Y-215817188D01*
X134651000Y-215991259D01*
X134651000Y-216168741D01*
X134616376Y-216342812D01*
X134548456Y-216506784D01*
X134449853Y-216654354D01*
X134324354Y-216779853D01*
X134176784Y-216878456D01*
X134012812Y-216946376D01*
X133863512Y-216976073D01*
X133838742Y-216981000D01*
X133661258Y-216981000D01*
X133636488Y-216976073D01*
X133487188Y-216946376D01*
X133323216Y-216878456D01*
X133175646Y-216779853D01*
X133050147Y-216654354D01*
X132951544Y-216506784D01*
X132883624Y-216342812D01*
X132849000Y-216168741D01*
X132849000Y-215991259D01*
X132883624Y-215817188D01*
X132951544Y-215653216D01*
X133050147Y-215505646D01*
X133175646Y-215380147D01*
X133323216Y-215281544D01*
X133487188Y-215213624D01*
X133636488Y-215183927D01*
X133661258Y-215179000D01*
X133838742Y-215179000D01*
X133863512Y-215183927D01*
G37*
G36*
X298863512Y-215183927D02*
G01*
X299012812Y-215213624D01*
X299176784Y-215281544D01*
X299324354Y-215380147D01*
X299449853Y-215505646D01*
X299548456Y-215653216D01*
X299616376Y-215817188D01*
X299651000Y-215991259D01*
X299651000Y-216168741D01*
X299616376Y-216342812D01*
X299548456Y-216506784D01*
X299449853Y-216654354D01*
X299324354Y-216779853D01*
X299176784Y-216878456D01*
X299012812Y-216946376D01*
X298863512Y-216976073D01*
X298838742Y-216981000D01*
X298661258Y-216981000D01*
X298636488Y-216976073D01*
X298487188Y-216946376D01*
X298323216Y-216878456D01*
X298175646Y-216779853D01*
X298050147Y-216654354D01*
X297951544Y-216506784D01*
X297883624Y-216342812D01*
X297849000Y-216168741D01*
X297849000Y-215991259D01*
X297883624Y-215817188D01*
X297951544Y-215653216D01*
X298050147Y-215505646D01*
X298175646Y-215380147D01*
X298323216Y-215281544D01*
X298487188Y-215213624D01*
X298636488Y-215183927D01*
X298661258Y-215179000D01*
X298838742Y-215179000D01*
X298863512Y-215183927D01*
G37*
G36*
X128726627Y-212162037D02*
G01*
X128896466Y-212213557D01*
X129052991Y-212297222D01*
X129088729Y-212326552D01*
X129190186Y-212409814D01*
X129273448Y-212511271D01*
X129302778Y-212547009D01*
X129386443Y-212703534D01*
X129437963Y-212873373D01*
X129451000Y-213005742D01*
X129451000Y-214794258D01*
X129437963Y-214926627D01*
X129386443Y-215096466D01*
X129302778Y-215252991D01*
X129279345Y-215281544D01*
X129190186Y-215390186D01*
X129052989Y-215502779D01*
X129047623Y-215505647D01*
X128896465Y-215586443D01*
X128726626Y-215637963D01*
X128550000Y-215655359D01*
X128373373Y-215637963D01*
X128203534Y-215586443D01*
X128047009Y-215502778D01*
X128011271Y-215473448D01*
X127909814Y-215390186D01*
X127797221Y-215252989D01*
X127713558Y-215096467D01*
X127713557Y-215096465D01*
X127662037Y-214926626D01*
X127649000Y-214794257D01*
X127649001Y-213005742D01*
X127662038Y-212873373D01*
X127713558Y-212703534D01*
X127797223Y-212547009D01*
X127826553Y-212511271D01*
X127909815Y-212409814D01*
X128011272Y-212326552D01*
X128047010Y-212297222D01*
X128203535Y-212213557D01*
X128373374Y-212162037D01*
X128550000Y-212144641D01*
X128726627Y-212162037D01*
G37*
G36*
X113126627Y-212162037D02*
G01*
X113296466Y-212213557D01*
X113452991Y-212297222D01*
X113488729Y-212326552D01*
X113590186Y-212409814D01*
X113673448Y-212511271D01*
X113702778Y-212547009D01*
X113786443Y-212703534D01*
X113837963Y-212873373D01*
X113851000Y-213005742D01*
X113851000Y-214794258D01*
X113837963Y-214926627D01*
X113786443Y-215096466D01*
X113702778Y-215252991D01*
X113679345Y-215281544D01*
X113590186Y-215390186D01*
X113452989Y-215502779D01*
X113447623Y-215505647D01*
X113296465Y-215586443D01*
X113126626Y-215637963D01*
X112950000Y-215655359D01*
X112773373Y-215637963D01*
X112603534Y-215586443D01*
X112447009Y-215502778D01*
X112411271Y-215473448D01*
X112309814Y-215390186D01*
X112197221Y-215252989D01*
X112113558Y-215096467D01*
X112113557Y-215096465D01*
X112062037Y-214926626D01*
X112049000Y-214794257D01*
X112049001Y-213005742D01*
X112062038Y-212873373D01*
X112113558Y-212703534D01*
X112197223Y-212547009D01*
X112226553Y-212511271D01*
X112309815Y-212409814D01*
X112411272Y-212326552D01*
X112447010Y-212297222D01*
X112603535Y-212213557D01*
X112773374Y-212162037D01*
X112950000Y-212144641D01*
X113126627Y-212162037D01*
G37*
G36*
X293726627Y-212162037D02*
G01*
X293896466Y-212213557D01*
X294052991Y-212297222D01*
X294088729Y-212326552D01*
X294190186Y-212409814D01*
X294273448Y-212511271D01*
X294302778Y-212547009D01*
X294386443Y-212703534D01*
X294437963Y-212873373D01*
X294451000Y-213005742D01*
X294451000Y-214794258D01*
X294437963Y-214926627D01*
X294386443Y-215096466D01*
X294302778Y-215252991D01*
X294279345Y-215281544D01*
X294190186Y-215390186D01*
X294052989Y-215502779D01*
X294047623Y-215505647D01*
X293896465Y-215586443D01*
X293726626Y-215637963D01*
X293550000Y-215655359D01*
X293373373Y-215637963D01*
X293203534Y-215586443D01*
X293047009Y-215502778D01*
X293011271Y-215473448D01*
X292909814Y-215390186D01*
X292797221Y-215252989D01*
X292713558Y-215096467D01*
X292713557Y-215096465D01*
X292662037Y-214926626D01*
X292649000Y-214794257D01*
X292649001Y-213005742D01*
X292662038Y-212873373D01*
X292713558Y-212703534D01*
X292797223Y-212547009D01*
X292826553Y-212511271D01*
X292909815Y-212409814D01*
X293011272Y-212326552D01*
X293047010Y-212297222D01*
X293203535Y-212213557D01*
X293373374Y-212162037D01*
X293550000Y-212144641D01*
X293726627Y-212162037D01*
G37*
G36*
X278126627Y-212162037D02*
G01*
X278296466Y-212213557D01*
X278452991Y-212297222D01*
X278488729Y-212326552D01*
X278590186Y-212409814D01*
X278673448Y-212511271D01*
X278702778Y-212547009D01*
X278786443Y-212703534D01*
X278837963Y-212873373D01*
X278851000Y-213005742D01*
X278851000Y-214794258D01*
X278837963Y-214926627D01*
X278786443Y-215096466D01*
X278702778Y-215252991D01*
X278679345Y-215281544D01*
X278590186Y-215390186D01*
X278452989Y-215502779D01*
X278447623Y-215505647D01*
X278296465Y-215586443D01*
X278126626Y-215637963D01*
X277950000Y-215655359D01*
X277773373Y-215637963D01*
X277603534Y-215586443D01*
X277447009Y-215502778D01*
X277411271Y-215473448D01*
X277309814Y-215390186D01*
X277197221Y-215252989D01*
X277113558Y-215096467D01*
X277113557Y-215096465D01*
X277062037Y-214926626D01*
X277049000Y-214794257D01*
X277049001Y-213005742D01*
X277062038Y-212873373D01*
X277113558Y-212703534D01*
X277197223Y-212547009D01*
X277226553Y-212511271D01*
X277309815Y-212409814D01*
X277411272Y-212326552D01*
X277447010Y-212297222D01*
X277603535Y-212213557D01*
X277773374Y-212162037D01*
X277950000Y-212144641D01*
X278126627Y-212162037D01*
G37*
G36*
X133863512Y-212643927D02*
G01*
X134012812Y-212673624D01*
X134176784Y-212741544D01*
X134324354Y-212840147D01*
X134449853Y-212965646D01*
X134548456Y-213113216D01*
X134616376Y-213277188D01*
X134651000Y-213451259D01*
X134651000Y-213628741D01*
X134616376Y-213802812D01*
X134548456Y-213966784D01*
X134449853Y-214114354D01*
X134324354Y-214239853D01*
X134176784Y-214338456D01*
X134012812Y-214406376D01*
X133863512Y-214436073D01*
X133838742Y-214441000D01*
X133661258Y-214441000D01*
X133636488Y-214436073D01*
X133487188Y-214406376D01*
X133323216Y-214338456D01*
X133175646Y-214239853D01*
X133050147Y-214114354D01*
X132951544Y-213966784D01*
X132883624Y-213802812D01*
X132849000Y-213628741D01*
X132849000Y-213451259D01*
X132883624Y-213277188D01*
X132951544Y-213113216D01*
X133050147Y-212965646D01*
X133175646Y-212840147D01*
X133323216Y-212741544D01*
X133487188Y-212673624D01*
X133636488Y-212643927D01*
X133661258Y-212639000D01*
X133838742Y-212639000D01*
X133863512Y-212643927D01*
G37*
G36*
X298863512Y-212643927D02*
G01*
X299012812Y-212673624D01*
X299176784Y-212741544D01*
X299324354Y-212840147D01*
X299449853Y-212965646D01*
X299548456Y-213113216D01*
X299616376Y-213277188D01*
X299651000Y-213451259D01*
X299651000Y-213628741D01*
X299616376Y-213802812D01*
X299548456Y-213966784D01*
X299449853Y-214114354D01*
X299324354Y-214239853D01*
X299176784Y-214338456D01*
X299012812Y-214406376D01*
X298863512Y-214436073D01*
X298838742Y-214441000D01*
X298661258Y-214441000D01*
X298636488Y-214436073D01*
X298487188Y-214406376D01*
X298323216Y-214338456D01*
X298175646Y-214239853D01*
X298050147Y-214114354D01*
X297951544Y-213966784D01*
X297883624Y-213802812D01*
X297849000Y-213628741D01*
X297849000Y-213451259D01*
X297883624Y-213277188D01*
X297951544Y-213113216D01*
X298050147Y-212965646D01*
X298175646Y-212840147D01*
X298323216Y-212741544D01*
X298487188Y-212673624D01*
X298636488Y-212643927D01*
X298661258Y-212639000D01*
X298838742Y-212639000D01*
X298863512Y-212643927D01*
G37*
G36*
X172801000Y-214051000D02*
G01*
X169699000Y-214051000D01*
X169699000Y-210949000D01*
X172801000Y-210949000D01*
X172801000Y-214051000D01*
G37*
G36*
X337801000Y-214051000D02*
G01*
X334699000Y-214051000D01*
X334699000Y-210949000D01*
X337801000Y-210949000D01*
X337801000Y-214051000D01*
G37*
G36*
X134651000Y-211901000D02*
G01*
X132849000Y-211901000D01*
X132849000Y-210099000D01*
X134651000Y-210099000D01*
X134651000Y-211901000D01*
G37*
G36*
X299651000Y-211901000D02*
G01*
X297849000Y-211901000D01*
X297849000Y-210099000D01*
X299651000Y-210099000D01*
X299651000Y-211901000D01*
G37*
G36*
X311879487Y-207248996D02*
G01*
X312116253Y-207347068D01*
X312116255Y-207347069D01*
X312329339Y-207489447D01*
X312510553Y-207670661D01*
X312645357Y-207872409D01*
X312652932Y-207883747D01*
X312751004Y-208120513D01*
X312801000Y-208371861D01*
X312801000Y-208628139D01*
X312751004Y-208879487D01*
X312713098Y-208971000D01*
X312652931Y-209116255D01*
X312510553Y-209329339D01*
X312329339Y-209510553D01*
X312116255Y-209652931D01*
X312116254Y-209652932D01*
X312116253Y-209652932D01*
X311879487Y-209751004D01*
X311628139Y-209801000D01*
X311371861Y-209801000D01*
X311120513Y-209751004D01*
X310883747Y-209652932D01*
X310883746Y-209652932D01*
X310883745Y-209652931D01*
X310670661Y-209510553D01*
X310489447Y-209329339D01*
X310347069Y-209116255D01*
X310286902Y-208971000D01*
X310248996Y-208879487D01*
X310199000Y-208628139D01*
X310199000Y-208371861D01*
X310248996Y-208120513D01*
X310347068Y-207883747D01*
X310354644Y-207872409D01*
X310489447Y-207670661D01*
X310670661Y-207489447D01*
X310883745Y-207347069D01*
X310883747Y-207347068D01*
X311120513Y-207248996D01*
X311371861Y-207199000D01*
X311628139Y-207199000D01*
X311879487Y-207248996D01*
G37*
G36*
X146879487Y-207248996D02*
G01*
X147116253Y-207347068D01*
X147116255Y-207347069D01*
X147329339Y-207489447D01*
X147510553Y-207670661D01*
X147645357Y-207872409D01*
X147652932Y-207883747D01*
X147751004Y-208120513D01*
X147801000Y-208371861D01*
X147801000Y-208628139D01*
X147751004Y-208879487D01*
X147713098Y-208971000D01*
X147652931Y-209116255D01*
X147510553Y-209329339D01*
X147329339Y-209510553D01*
X147116255Y-209652931D01*
X147116254Y-209652932D01*
X147116253Y-209652932D01*
X146879487Y-209751004D01*
X146628139Y-209801000D01*
X146371861Y-209801000D01*
X146120513Y-209751004D01*
X145883747Y-209652932D01*
X145883746Y-209652932D01*
X145883745Y-209652931D01*
X145670661Y-209510553D01*
X145489447Y-209329339D01*
X145347069Y-209116255D01*
X145286902Y-208971000D01*
X145248996Y-208879487D01*
X145199000Y-208628139D01*
X145199000Y-208371861D01*
X145248996Y-208120513D01*
X145347068Y-207883747D01*
X145354644Y-207872409D01*
X145489447Y-207670661D01*
X145670661Y-207489447D01*
X145883745Y-207347069D01*
X145883747Y-207347068D01*
X146120513Y-207248996D01*
X146371861Y-207199000D01*
X146628139Y-207199000D01*
X146879487Y-207248996D01*
G37*
G36*
X159079487Y-207248996D02*
G01*
X159316253Y-207347068D01*
X159316255Y-207347069D01*
X159529339Y-207489447D01*
X159710553Y-207670661D01*
X159845357Y-207872409D01*
X159852932Y-207883747D01*
X159951004Y-208120513D01*
X160001000Y-208371861D01*
X160001000Y-208628139D01*
X159951004Y-208879487D01*
X159913098Y-208971000D01*
X159852931Y-209116255D01*
X159710553Y-209329339D01*
X159529339Y-209510553D01*
X159316255Y-209652931D01*
X159316254Y-209652932D01*
X159316253Y-209652932D01*
X159079487Y-209751004D01*
X158828139Y-209801000D01*
X158571861Y-209801000D01*
X158320513Y-209751004D01*
X158083747Y-209652932D01*
X158083746Y-209652932D01*
X158083745Y-209652931D01*
X157870661Y-209510553D01*
X157689447Y-209329339D01*
X157547069Y-209116255D01*
X157486902Y-208971000D01*
X157448996Y-208879487D01*
X157399000Y-208628139D01*
X157399000Y-208371861D01*
X157448996Y-208120513D01*
X157547068Y-207883747D01*
X157554644Y-207872409D01*
X157689447Y-207670661D01*
X157870661Y-207489447D01*
X158083745Y-207347069D01*
X158083747Y-207347068D01*
X158320513Y-207248996D01*
X158571861Y-207199000D01*
X158828139Y-207199000D01*
X159079487Y-207248996D01*
G37*
G36*
X324079487Y-207248996D02*
G01*
X324316253Y-207347068D01*
X324316255Y-207347069D01*
X324529339Y-207489447D01*
X324710553Y-207670661D01*
X324845357Y-207872409D01*
X324852932Y-207883747D01*
X324951004Y-208120513D01*
X325001000Y-208371861D01*
X325001000Y-208628139D01*
X324951004Y-208879487D01*
X324913098Y-208971000D01*
X324852931Y-209116255D01*
X324710553Y-209329339D01*
X324529339Y-209510553D01*
X324316255Y-209652931D01*
X324316254Y-209652932D01*
X324316253Y-209652932D01*
X324079487Y-209751004D01*
X323828139Y-209801000D01*
X323571861Y-209801000D01*
X323320513Y-209751004D01*
X323083747Y-209652932D01*
X323083746Y-209652932D01*
X323083745Y-209652931D01*
X322870661Y-209510553D01*
X322689447Y-209329339D01*
X322547069Y-209116255D01*
X322486902Y-208971000D01*
X322448996Y-208879487D01*
X322399000Y-208628139D01*
X322399000Y-208371861D01*
X322448996Y-208120513D01*
X322547068Y-207883747D01*
X322554644Y-207872409D01*
X322689447Y-207670661D01*
X322870661Y-207489447D01*
X323083745Y-207347069D01*
X323083747Y-207347068D01*
X323320513Y-207248996D01*
X323571861Y-207199000D01*
X323828139Y-207199000D01*
X324079487Y-207248996D01*
G37*
G36*
X171552585Y-205898802D02*
G01*
X171702410Y-205928604D01*
X171984674Y-206045521D01*
X172238705Y-206215259D01*
X172454741Y-206431295D01*
X172624479Y-206685326D01*
X172741396Y-206967590D01*
X172801000Y-207267240D01*
X172801000Y-207572760D01*
X172741396Y-207872410D01*
X172624479Y-208154674D01*
X172454741Y-208408705D01*
X172238705Y-208624741D01*
X171984674Y-208794479D01*
X171702410Y-208911396D01*
X171552585Y-208941198D01*
X171402761Y-208971000D01*
X171097239Y-208971000D01*
X170947415Y-208941198D01*
X170797590Y-208911396D01*
X170515326Y-208794479D01*
X170261295Y-208624741D01*
X170045259Y-208408705D01*
X169875521Y-208154674D01*
X169758604Y-207872410D01*
X169699000Y-207572760D01*
X169699000Y-207267240D01*
X169758604Y-206967590D01*
X169875521Y-206685326D01*
X170045259Y-206431295D01*
X170261295Y-206215259D01*
X170515326Y-206045521D01*
X170797590Y-205928604D01*
X170947415Y-205898802D01*
X171097239Y-205869000D01*
X171402761Y-205869000D01*
X171552585Y-205898802D01*
G37*
G36*
X336552585Y-205898802D02*
G01*
X336702410Y-205928604D01*
X336984674Y-206045521D01*
X337238705Y-206215259D01*
X337454741Y-206431295D01*
X337624479Y-206685326D01*
X337741396Y-206967590D01*
X337801000Y-207267240D01*
X337801000Y-207572760D01*
X337741396Y-207872410D01*
X337624479Y-208154674D01*
X337454741Y-208408705D01*
X337238705Y-208624741D01*
X336984674Y-208794479D01*
X336702410Y-208911396D01*
X336552585Y-208941198D01*
X336402761Y-208971000D01*
X336097239Y-208971000D01*
X335947415Y-208941198D01*
X335797590Y-208911396D01*
X335515326Y-208794479D01*
X335261295Y-208624741D01*
X335045259Y-208408705D01*
X334875521Y-208154674D01*
X334758604Y-207872410D01*
X334699000Y-207572760D01*
X334699000Y-207267240D01*
X334758604Y-206967590D01*
X334875521Y-206685326D01*
X335045259Y-206431295D01*
X335261295Y-206215259D01*
X335515326Y-206045521D01*
X335797590Y-205928604D01*
X335947415Y-205898802D01*
X336097239Y-205869000D01*
X336402761Y-205869000D01*
X336552585Y-205898802D01*
G37*
G36*
X291498228Y-202971703D02*
G01*
X291653100Y-203035853D01*
X291792481Y-203128985D01*
X291911015Y-203247519D01*
X292004147Y-203386900D01*
X292068297Y-203541772D01*
X292101000Y-203706184D01*
X292101000Y-203873816D01*
X292068297Y-204038228D01*
X292004147Y-204193100D01*
X291911015Y-204332481D01*
X291792481Y-204451015D01*
X291653100Y-204544147D01*
X291498228Y-204608297D01*
X291333816Y-204641000D01*
X291166184Y-204641000D01*
X291001772Y-204608297D01*
X290846900Y-204544147D01*
X290707519Y-204451015D01*
X290588985Y-204332481D01*
X290495853Y-204193100D01*
X290431703Y-204038228D01*
X290399000Y-203873816D01*
X290399000Y-203706184D01*
X290431703Y-203541772D01*
X290495853Y-203386900D01*
X290588985Y-203247519D01*
X290707519Y-203128985D01*
X290846900Y-203035853D01*
X291001772Y-202971703D01*
X291166184Y-202939000D01*
X291333816Y-202939000D01*
X291498228Y-202971703D01*
G37*
G36*
X299118228Y-202971703D02*
G01*
X299273100Y-203035853D01*
X299412481Y-203128985D01*
X299531015Y-203247519D01*
X299624147Y-203386900D01*
X299688297Y-203541772D01*
X299721000Y-203706184D01*
X299721000Y-203873816D01*
X299688297Y-204038228D01*
X299624147Y-204193100D01*
X299531015Y-204332481D01*
X299412481Y-204451015D01*
X299273100Y-204544147D01*
X299118228Y-204608297D01*
X298953816Y-204641000D01*
X298786184Y-204641000D01*
X298621772Y-204608297D01*
X298466900Y-204544147D01*
X298327519Y-204451015D01*
X298208985Y-204332481D01*
X298115853Y-204193100D01*
X298051703Y-204038228D01*
X298019000Y-203873816D01*
X298019000Y-203706184D01*
X298051703Y-203541772D01*
X298115853Y-203386900D01*
X298208985Y-203247519D01*
X298327519Y-203128985D01*
X298466900Y-203035853D01*
X298621772Y-202971703D01*
X298786184Y-202939000D01*
X298953816Y-202939000D01*
X299118228Y-202971703D01*
G37*
G36*
X134118228Y-202971703D02*
G01*
X134273100Y-203035853D01*
X134412481Y-203128985D01*
X134531015Y-203247519D01*
X134624147Y-203386900D01*
X134688297Y-203541772D01*
X134721000Y-203706184D01*
X134721000Y-203873816D01*
X134688297Y-204038228D01*
X134624147Y-204193100D01*
X134531015Y-204332481D01*
X134412481Y-204451015D01*
X134273100Y-204544147D01*
X134118228Y-204608297D01*
X133953816Y-204641000D01*
X133786184Y-204641000D01*
X133621772Y-204608297D01*
X133466900Y-204544147D01*
X133327519Y-204451015D01*
X133208985Y-204332481D01*
X133115853Y-204193100D01*
X133051703Y-204038228D01*
X133019000Y-203873816D01*
X133019000Y-203706184D01*
X133051703Y-203541772D01*
X133115853Y-203386900D01*
X133208985Y-203247519D01*
X133327519Y-203128985D01*
X133466900Y-203035853D01*
X133621772Y-202971703D01*
X133786184Y-202939000D01*
X133953816Y-202939000D01*
X134118228Y-202971703D01*
G37*
G36*
X126498228Y-202971703D02*
G01*
X126653100Y-203035853D01*
X126792481Y-203128985D01*
X126911015Y-203247519D01*
X127004147Y-203386900D01*
X127068297Y-203541772D01*
X127101000Y-203706184D01*
X127101000Y-203873816D01*
X127068297Y-204038228D01*
X127004147Y-204193100D01*
X126911015Y-204332481D01*
X126792481Y-204451015D01*
X126653100Y-204544147D01*
X126498228Y-204608297D01*
X126333816Y-204641000D01*
X126166184Y-204641000D01*
X126001772Y-204608297D01*
X125846900Y-204544147D01*
X125707519Y-204451015D01*
X125588985Y-204332481D01*
X125495853Y-204193100D01*
X125431703Y-204038228D01*
X125399000Y-203873816D01*
X125399000Y-203706184D01*
X125431703Y-203541772D01*
X125495853Y-203386900D01*
X125588985Y-203247519D01*
X125707519Y-203128985D01*
X125846900Y-203035853D01*
X126001772Y-202971703D01*
X126166184Y-202939000D01*
X126333816Y-202939000D01*
X126498228Y-202971703D01*
G37*
G36*
X171552585Y-200818802D02*
G01*
X171702410Y-200848604D01*
X171984674Y-200965521D01*
X172238705Y-201135259D01*
X172454741Y-201351295D01*
X172624479Y-201605326D01*
X172741396Y-201887590D01*
X172801000Y-202187240D01*
X172801000Y-202492760D01*
X172741396Y-202792410D01*
X172624479Y-203074674D01*
X172454741Y-203328705D01*
X172238705Y-203544741D01*
X171984674Y-203714479D01*
X171702410Y-203831396D01*
X171552585Y-203861198D01*
X171402761Y-203891000D01*
X171097239Y-203891000D01*
X170947415Y-203861198D01*
X170797590Y-203831396D01*
X170515326Y-203714479D01*
X170261295Y-203544741D01*
X170045259Y-203328705D01*
X169875521Y-203074674D01*
X169758604Y-202792410D01*
X169699000Y-202492760D01*
X169699000Y-202187240D01*
X169758604Y-201887590D01*
X169875521Y-201605326D01*
X170045259Y-201351295D01*
X170261295Y-201135259D01*
X170515326Y-200965521D01*
X170797590Y-200848604D01*
X170947415Y-200818802D01*
X171097239Y-200789000D01*
X171402761Y-200789000D01*
X171552585Y-200818802D01*
G37*
G36*
X336552585Y-200818802D02*
G01*
X336702410Y-200848604D01*
X336984674Y-200965521D01*
X337238705Y-201135259D01*
X337454741Y-201351295D01*
X337624479Y-201605326D01*
X337741396Y-201887590D01*
X337801000Y-202187240D01*
X337801000Y-202492760D01*
X337741396Y-202792410D01*
X337624479Y-203074674D01*
X337454741Y-203328705D01*
X337238705Y-203544741D01*
X336984674Y-203714479D01*
X336702410Y-203831396D01*
X336552585Y-203861198D01*
X336402761Y-203891000D01*
X336097239Y-203891000D01*
X335947415Y-203861198D01*
X335797590Y-203831396D01*
X335515326Y-203714479D01*
X335261295Y-203544741D01*
X335045259Y-203328705D01*
X334875521Y-203074674D01*
X334758604Y-202792410D01*
X334699000Y-202492760D01*
X334699000Y-202187240D01*
X334758604Y-201887590D01*
X334875521Y-201605326D01*
X335045259Y-201351295D01*
X335261295Y-201135259D01*
X335515326Y-200965521D01*
X335797590Y-200848604D01*
X335947415Y-200818802D01*
X336097239Y-200789000D01*
X336402761Y-200789000D01*
X336552585Y-200818802D01*
G37*
G36*
X145801000Y-203801000D02*
G01*
X143199000Y-203801000D01*
X143199000Y-201199000D01*
X145801000Y-201199000D01*
X145801000Y-203801000D01*
G37*
G36*
X310801000Y-203801000D02*
G01*
X308199000Y-203801000D01*
X308199000Y-201199000D01*
X310801000Y-201199000D01*
X310801000Y-203801000D01*
G37*
G36*
X292101000Y-202101000D02*
G01*
X290399000Y-202101000D01*
X290399000Y-200399000D01*
X292101000Y-200399000D01*
X292101000Y-202101000D01*
G37*
G36*
X299118228Y-200431703D02*
G01*
X299273100Y-200495853D01*
X299412481Y-200588985D01*
X299531015Y-200707519D01*
X299624147Y-200846900D01*
X299688297Y-201001772D01*
X299721000Y-201166184D01*
X299721000Y-201333816D01*
X299688297Y-201498228D01*
X299624147Y-201653100D01*
X299531015Y-201792481D01*
X299412481Y-201911015D01*
X299273100Y-202004147D01*
X299118228Y-202068297D01*
X298953816Y-202101000D01*
X298786184Y-202101000D01*
X298621772Y-202068297D01*
X298466900Y-202004147D01*
X298327519Y-201911015D01*
X298208985Y-201792481D01*
X298115853Y-201653100D01*
X298051703Y-201498228D01*
X298019000Y-201333816D01*
X298019000Y-201166184D01*
X298051703Y-201001772D01*
X298115853Y-200846900D01*
X298208985Y-200707519D01*
X298327519Y-200588985D01*
X298466900Y-200495853D01*
X298621772Y-200431703D01*
X298786184Y-200399000D01*
X298953816Y-200399000D01*
X299118228Y-200431703D01*
G37*
G36*
X134118228Y-200431703D02*
G01*
X134273100Y-200495853D01*
X134412481Y-200588985D01*
X134531015Y-200707519D01*
X134624147Y-200846900D01*
X134688297Y-201001772D01*
X134721000Y-201166184D01*
X134721000Y-201333816D01*
X134688297Y-201498228D01*
X134624147Y-201653100D01*
X134531015Y-201792481D01*
X134412481Y-201911015D01*
X134273100Y-202004147D01*
X134118228Y-202068297D01*
X133953816Y-202101000D01*
X133786184Y-202101000D01*
X133621772Y-202068297D01*
X133466900Y-202004147D01*
X133327519Y-201911015D01*
X133208985Y-201792481D01*
X133115853Y-201653100D01*
X133051703Y-201498228D01*
X133019000Y-201333816D01*
X133019000Y-201166184D01*
X133051703Y-201001772D01*
X133115853Y-200846900D01*
X133208985Y-200707519D01*
X133327519Y-200588985D01*
X133466900Y-200495853D01*
X133621772Y-200431703D01*
X133786184Y-200399000D01*
X133953816Y-200399000D01*
X134118228Y-200431703D01*
G37*
G36*
X127101000Y-202101000D02*
G01*
X125399000Y-202101000D01*
X125399000Y-200399000D01*
X127101000Y-200399000D01*
X127101000Y-202101000D01*
G37*
G36*
X337801000Y-198881000D02*
G01*
X334699000Y-198881000D01*
X334699000Y-195779000D01*
X337801000Y-195779000D01*
X337801000Y-198881000D01*
G37*
G36*
X172801000Y-198881000D02*
G01*
X169699000Y-198881000D01*
X169699000Y-195779000D01*
X172801000Y-195779000D01*
X172801000Y-198881000D01*
G37*
G36*
X126498228Y-196181703D02*
G01*
X126653100Y-196245853D01*
X126792481Y-196338985D01*
X126911015Y-196457519D01*
X127004147Y-196596900D01*
X127068297Y-196751772D01*
X127101000Y-196916184D01*
X127101000Y-197083816D01*
X127068297Y-197248228D01*
X127004147Y-197403100D01*
X126911015Y-197542481D01*
X126792481Y-197661015D01*
X126653100Y-197754147D01*
X126498228Y-197818297D01*
X126333816Y-197851000D01*
X126166184Y-197851000D01*
X126001772Y-197818297D01*
X125846900Y-197754147D01*
X125707519Y-197661015D01*
X125588985Y-197542481D01*
X125495853Y-197403100D01*
X125431703Y-197248228D01*
X125399000Y-197083816D01*
X125399000Y-196916184D01*
X125431703Y-196751772D01*
X125495853Y-196596900D01*
X125588985Y-196457519D01*
X125707519Y-196338985D01*
X125846900Y-196245853D01*
X126001772Y-196181703D01*
X126166184Y-196149000D01*
X126333816Y-196149000D01*
X126498228Y-196181703D01*
G37*
G36*
X299118228Y-196181703D02*
G01*
X299273100Y-196245853D01*
X299412481Y-196338985D01*
X299531015Y-196457519D01*
X299624147Y-196596900D01*
X299688297Y-196751772D01*
X299721000Y-196916184D01*
X299721000Y-197083816D01*
X299688297Y-197248228D01*
X299624147Y-197403100D01*
X299531015Y-197542481D01*
X299412481Y-197661015D01*
X299273100Y-197754147D01*
X299118228Y-197818297D01*
X298953816Y-197851000D01*
X298786184Y-197851000D01*
X298621772Y-197818297D01*
X298466900Y-197754147D01*
X298327519Y-197661015D01*
X298208985Y-197542481D01*
X298115853Y-197403100D01*
X298051703Y-197248228D01*
X298019000Y-197083816D01*
X298019000Y-196916184D01*
X298051703Y-196751772D01*
X298115853Y-196596900D01*
X298208985Y-196457519D01*
X298327519Y-196338985D01*
X298466900Y-196245853D01*
X298621772Y-196181703D01*
X298786184Y-196149000D01*
X298953816Y-196149000D01*
X299118228Y-196181703D01*
G37*
G36*
X291498228Y-196181703D02*
G01*
X291653100Y-196245853D01*
X291792481Y-196338985D01*
X291911015Y-196457519D01*
X292004147Y-196596900D01*
X292068297Y-196751772D01*
X292101000Y-196916184D01*
X292101000Y-197083816D01*
X292068297Y-197248228D01*
X292004147Y-197403100D01*
X291911015Y-197542481D01*
X291792481Y-197661015D01*
X291653100Y-197754147D01*
X291498228Y-197818297D01*
X291333816Y-197851000D01*
X291166184Y-197851000D01*
X291001772Y-197818297D01*
X290846900Y-197754147D01*
X290707519Y-197661015D01*
X290588985Y-197542481D01*
X290495853Y-197403100D01*
X290431703Y-197248228D01*
X290399000Y-197083816D01*
X290399000Y-196916184D01*
X290431703Y-196751772D01*
X290495853Y-196596900D01*
X290588985Y-196457519D01*
X290707519Y-196338985D01*
X290846900Y-196245853D01*
X291001772Y-196181703D01*
X291166184Y-196149000D01*
X291333816Y-196149000D01*
X291498228Y-196181703D01*
G37*
G36*
X134118228Y-196181703D02*
G01*
X134273100Y-196245853D01*
X134412481Y-196338985D01*
X134531015Y-196457519D01*
X134624147Y-196596900D01*
X134688297Y-196751772D01*
X134721000Y-196916184D01*
X134721000Y-197083816D01*
X134688297Y-197248228D01*
X134624147Y-197403100D01*
X134531015Y-197542481D01*
X134412481Y-197661015D01*
X134273100Y-197754147D01*
X134118228Y-197818297D01*
X133953816Y-197851000D01*
X133786184Y-197851000D01*
X133621772Y-197818297D01*
X133466900Y-197754147D01*
X133327519Y-197661015D01*
X133208985Y-197542481D01*
X133115853Y-197403100D01*
X133051703Y-197248228D01*
X133019000Y-197083816D01*
X133019000Y-196916184D01*
X133051703Y-196751772D01*
X133115853Y-196596900D01*
X133208985Y-196457519D01*
X133327519Y-196338985D01*
X133466900Y-196245853D01*
X133621772Y-196181703D01*
X133786184Y-196149000D01*
X133953816Y-196149000D01*
X134118228Y-196181703D01*
G37*
G36*
X311879487Y-195248996D02*
G01*
X312029177Y-195311000D01*
X312116255Y-195347069D01*
X312329339Y-195489447D01*
X312510553Y-195670661D01*
X312652932Y-195883747D01*
X312751004Y-196120513D01*
X312801000Y-196371861D01*
X312801000Y-196628139D01*
X312751004Y-196879487D01*
X312735803Y-196916185D01*
X312652931Y-197116255D01*
X312510553Y-197329339D01*
X312329339Y-197510553D01*
X312116255Y-197652931D01*
X312116254Y-197652932D01*
X312116253Y-197652932D01*
X311879487Y-197751004D01*
X311628139Y-197801000D01*
X311371861Y-197801000D01*
X311120513Y-197751004D01*
X310883747Y-197652932D01*
X310883746Y-197652932D01*
X310883745Y-197652931D01*
X310670661Y-197510553D01*
X310489447Y-197329339D01*
X310347069Y-197116255D01*
X310264197Y-196916185D01*
X310248996Y-196879487D01*
X310199000Y-196628139D01*
X310199000Y-196371861D01*
X310248996Y-196120513D01*
X310347068Y-195883747D01*
X310489447Y-195670661D01*
X310670661Y-195489447D01*
X310883745Y-195347069D01*
X310970823Y-195311000D01*
X311120513Y-195248996D01*
X311371861Y-195199000D01*
X311628139Y-195199000D01*
X311879487Y-195248996D01*
G37*
G36*
X159079487Y-195248996D02*
G01*
X159229177Y-195311000D01*
X159316255Y-195347069D01*
X159529339Y-195489447D01*
X159710553Y-195670661D01*
X159852932Y-195883747D01*
X159951004Y-196120513D01*
X160001000Y-196371861D01*
X160001000Y-196628139D01*
X159951004Y-196879487D01*
X159935803Y-196916185D01*
X159852931Y-197116255D01*
X159710553Y-197329339D01*
X159529339Y-197510553D01*
X159316255Y-197652931D01*
X159316254Y-197652932D01*
X159316253Y-197652932D01*
X159079487Y-197751004D01*
X158828139Y-197801000D01*
X158571861Y-197801000D01*
X158320513Y-197751004D01*
X158083747Y-197652932D01*
X158083746Y-197652932D01*
X158083745Y-197652931D01*
X157870661Y-197510553D01*
X157689447Y-197329339D01*
X157547069Y-197116255D01*
X157464197Y-196916185D01*
X157448996Y-196879487D01*
X157399000Y-196628139D01*
X157399000Y-196371861D01*
X157448996Y-196120513D01*
X157547068Y-195883747D01*
X157689447Y-195670661D01*
X157870661Y-195489447D01*
X158083745Y-195347069D01*
X158170823Y-195311000D01*
X158320513Y-195248996D01*
X158571861Y-195199000D01*
X158828139Y-195199000D01*
X159079487Y-195248996D01*
G37*
G36*
X146879487Y-195248996D02*
G01*
X147029177Y-195311000D01*
X147116255Y-195347069D01*
X147329339Y-195489447D01*
X147510553Y-195670661D01*
X147652932Y-195883747D01*
X147751004Y-196120513D01*
X147801000Y-196371861D01*
X147801000Y-196628139D01*
X147751004Y-196879487D01*
X147735803Y-196916185D01*
X147652931Y-197116255D01*
X147510553Y-197329339D01*
X147329339Y-197510553D01*
X147116255Y-197652931D01*
X147116254Y-197652932D01*
X147116253Y-197652932D01*
X146879487Y-197751004D01*
X146628139Y-197801000D01*
X146371861Y-197801000D01*
X146120513Y-197751004D01*
X145883747Y-197652932D01*
X145883746Y-197652932D01*
X145883745Y-197652931D01*
X145670661Y-197510553D01*
X145489447Y-197329339D01*
X145347069Y-197116255D01*
X145264197Y-196916185D01*
X145248996Y-196879487D01*
X145199000Y-196628139D01*
X145199000Y-196371861D01*
X145248996Y-196120513D01*
X145347068Y-195883747D01*
X145489447Y-195670661D01*
X145670661Y-195489447D01*
X145883745Y-195347069D01*
X145970823Y-195311000D01*
X146120513Y-195248996D01*
X146371861Y-195199000D01*
X146628139Y-195199000D01*
X146879487Y-195248996D01*
G37*
G36*
X324079487Y-195248996D02*
G01*
X324229177Y-195311000D01*
X324316255Y-195347069D01*
X324529339Y-195489447D01*
X324710553Y-195670661D01*
X324852932Y-195883747D01*
X324951004Y-196120513D01*
X325001000Y-196371861D01*
X325001000Y-196628139D01*
X324951004Y-196879487D01*
X324935803Y-196916185D01*
X324852931Y-197116255D01*
X324710553Y-197329339D01*
X324529339Y-197510553D01*
X324316255Y-197652931D01*
X324316254Y-197652932D01*
X324316253Y-197652932D01*
X324079487Y-197751004D01*
X323828139Y-197801000D01*
X323571861Y-197801000D01*
X323320513Y-197751004D01*
X323083747Y-197652932D01*
X323083746Y-197652932D01*
X323083745Y-197652931D01*
X322870661Y-197510553D01*
X322689447Y-197329339D01*
X322547069Y-197116255D01*
X322464197Y-196916185D01*
X322448996Y-196879487D01*
X322399000Y-196628139D01*
X322399000Y-196371861D01*
X322448996Y-196120513D01*
X322547068Y-195883747D01*
X322689447Y-195670661D01*
X322870661Y-195489447D01*
X323083745Y-195347069D01*
X323170823Y-195311000D01*
X323320513Y-195248996D01*
X323571861Y-195199000D01*
X323828139Y-195199000D01*
X324079487Y-195248996D01*
G37*
G36*
X134118228Y-193641703D02*
G01*
X134273100Y-193705853D01*
X134412481Y-193798985D01*
X134531015Y-193917519D01*
X134624147Y-194056900D01*
X134688297Y-194211772D01*
X134721000Y-194376184D01*
X134721000Y-194543816D01*
X134688297Y-194708228D01*
X134624147Y-194863100D01*
X134531015Y-195002481D01*
X134412481Y-195121015D01*
X134273100Y-195214147D01*
X134118228Y-195278297D01*
X133953816Y-195311000D01*
X133786184Y-195311000D01*
X133621772Y-195278297D01*
X133466900Y-195214147D01*
X133327519Y-195121015D01*
X133208985Y-195002481D01*
X133115853Y-194863100D01*
X133051703Y-194708228D01*
X133019000Y-194543816D01*
X133019000Y-194376184D01*
X133051703Y-194211772D01*
X133115853Y-194056900D01*
X133208985Y-193917519D01*
X133327519Y-193798985D01*
X133466900Y-193705853D01*
X133621772Y-193641703D01*
X133786184Y-193609000D01*
X133953816Y-193609000D01*
X134118228Y-193641703D01*
G37*
G36*
X127101000Y-195311000D02*
G01*
X125399000Y-195311000D01*
X125399000Y-193609000D01*
X127101000Y-193609000D01*
X127101000Y-195311000D01*
G37*
G36*
X292101000Y-195311000D02*
G01*
X290399000Y-195311000D01*
X290399000Y-193609000D01*
X292101000Y-193609000D01*
X292101000Y-195311000D01*
G37*
G36*
X299118228Y-193641703D02*
G01*
X299273100Y-193705853D01*
X299412481Y-193798985D01*
X299531015Y-193917519D01*
X299624147Y-194056900D01*
X299688297Y-194211772D01*
X299721000Y-194376184D01*
X299721000Y-194543816D01*
X299688297Y-194708228D01*
X299624147Y-194863100D01*
X299531015Y-195002481D01*
X299412481Y-195121015D01*
X299273100Y-195214147D01*
X299118228Y-195278297D01*
X298953816Y-195311000D01*
X298786184Y-195311000D01*
X298621772Y-195278297D01*
X298466900Y-195214147D01*
X298327519Y-195121015D01*
X298208985Y-195002481D01*
X298115853Y-194863100D01*
X298051703Y-194708228D01*
X298019000Y-194543816D01*
X298019000Y-194376184D01*
X298051703Y-194211772D01*
X298115853Y-194056900D01*
X298208985Y-193917519D01*
X298327519Y-193798985D01*
X298466900Y-193705853D01*
X298621772Y-193641703D01*
X298786184Y-193609000D01*
X298953816Y-193609000D01*
X299118228Y-193641703D01*
G37*
G36*
X171552585Y-190728802D02*
G01*
X171702410Y-190758604D01*
X171984674Y-190875521D01*
X172238705Y-191045259D01*
X172454741Y-191261295D01*
X172624479Y-191515326D01*
X172741396Y-191797590D01*
X172801000Y-192097240D01*
X172801000Y-192402760D01*
X172741396Y-192702410D01*
X172624479Y-192984674D01*
X172454741Y-193238705D01*
X172238705Y-193454741D01*
X171984674Y-193624479D01*
X171702410Y-193741396D01*
X171552585Y-193771198D01*
X171402761Y-193801000D01*
X171097239Y-193801000D01*
X170947415Y-193771198D01*
X170797590Y-193741396D01*
X170515326Y-193624479D01*
X170261295Y-193454741D01*
X170045259Y-193238705D01*
X169875521Y-192984674D01*
X169758604Y-192702410D01*
X169699000Y-192402760D01*
X169699000Y-192097240D01*
X169758604Y-191797590D01*
X169875521Y-191515326D01*
X170045259Y-191261295D01*
X170261295Y-191045259D01*
X170515326Y-190875521D01*
X170797590Y-190758604D01*
X170947415Y-190728802D01*
X171097239Y-190699000D01*
X171402761Y-190699000D01*
X171552585Y-190728802D01*
G37*
G36*
X336552585Y-190728802D02*
G01*
X336702410Y-190758604D01*
X336984674Y-190875521D01*
X337238705Y-191045259D01*
X337454741Y-191261295D01*
X337624479Y-191515326D01*
X337741396Y-191797590D01*
X337801000Y-192097240D01*
X337801000Y-192402760D01*
X337741396Y-192702410D01*
X337624479Y-192984674D01*
X337454741Y-193238705D01*
X337238705Y-193454741D01*
X336984674Y-193624479D01*
X336702410Y-193741396D01*
X336552585Y-193771198D01*
X336402761Y-193801000D01*
X336097239Y-193801000D01*
X335947415Y-193771198D01*
X335797590Y-193741396D01*
X335515326Y-193624479D01*
X335261295Y-193454741D01*
X335045259Y-193238705D01*
X334875521Y-192984674D01*
X334758604Y-192702410D01*
X334699000Y-192402760D01*
X334699000Y-192097240D01*
X334758604Y-191797590D01*
X334875521Y-191515326D01*
X335045259Y-191261295D01*
X335261295Y-191045259D01*
X335515326Y-190875521D01*
X335797590Y-190758604D01*
X335947415Y-190728802D01*
X336097239Y-190699000D01*
X336402761Y-190699000D01*
X336552585Y-190728802D01*
G37*
G36*
X324079487Y-189748996D02*
G01*
X324316253Y-189847068D01*
X324316255Y-189847069D01*
X324529339Y-189989447D01*
X324710553Y-190170661D01*
X324852932Y-190383747D01*
X324951004Y-190620513D01*
X325001000Y-190871861D01*
X325001000Y-191128139D01*
X324951004Y-191379487D01*
X324852932Y-191616253D01*
X324852931Y-191616255D01*
X324710553Y-191829339D01*
X324529339Y-192010553D01*
X324316255Y-192152931D01*
X324316254Y-192152932D01*
X324316253Y-192152932D01*
X324079487Y-192251004D01*
X323828139Y-192301000D01*
X323571861Y-192301000D01*
X323320513Y-192251004D01*
X323083747Y-192152932D01*
X323083746Y-192152932D01*
X323083745Y-192152931D01*
X322870661Y-192010553D01*
X322689447Y-191829339D01*
X322547069Y-191616255D01*
X322547068Y-191616253D01*
X322448996Y-191379487D01*
X322399000Y-191128139D01*
X322399000Y-190871861D01*
X322448996Y-190620513D01*
X322547068Y-190383747D01*
X322689447Y-190170661D01*
X322870661Y-189989447D01*
X323083745Y-189847069D01*
X323083747Y-189847068D01*
X323320513Y-189748996D01*
X323571861Y-189699000D01*
X323828139Y-189699000D01*
X324079487Y-189748996D01*
G37*
G36*
X311879487Y-189748996D02*
G01*
X312116253Y-189847068D01*
X312116255Y-189847069D01*
X312329339Y-189989447D01*
X312510553Y-190170661D01*
X312652932Y-190383747D01*
X312751004Y-190620513D01*
X312801000Y-190871861D01*
X312801000Y-191128139D01*
X312751004Y-191379487D01*
X312652932Y-191616253D01*
X312652931Y-191616255D01*
X312510553Y-191829339D01*
X312329339Y-192010553D01*
X312116255Y-192152931D01*
X312116254Y-192152932D01*
X312116253Y-192152932D01*
X311879487Y-192251004D01*
X311628139Y-192301000D01*
X311371861Y-192301000D01*
X311120513Y-192251004D01*
X310883747Y-192152932D01*
X310883746Y-192152932D01*
X310883745Y-192152931D01*
X310670661Y-192010553D01*
X310489447Y-191829339D01*
X310347069Y-191616255D01*
X310347068Y-191616253D01*
X310248996Y-191379487D01*
X310199000Y-191128139D01*
X310199000Y-190871861D01*
X310248996Y-190620513D01*
X310347068Y-190383747D01*
X310489447Y-190170661D01*
X310670661Y-189989447D01*
X310883745Y-189847069D01*
X310883747Y-189847068D01*
X311120513Y-189748996D01*
X311371861Y-189699000D01*
X311628139Y-189699000D01*
X311879487Y-189748996D01*
G37*
G36*
X159079487Y-189748996D02*
G01*
X159316253Y-189847068D01*
X159316255Y-189847069D01*
X159529339Y-189989447D01*
X159710553Y-190170661D01*
X159852932Y-190383747D01*
X159951004Y-190620513D01*
X160001000Y-190871861D01*
X160001000Y-191128139D01*
X159951004Y-191379487D01*
X159852932Y-191616253D01*
X159852931Y-191616255D01*
X159710553Y-191829339D01*
X159529339Y-192010553D01*
X159316255Y-192152931D01*
X159316254Y-192152932D01*
X159316253Y-192152932D01*
X159079487Y-192251004D01*
X158828139Y-192301000D01*
X158571861Y-192301000D01*
X158320513Y-192251004D01*
X158083747Y-192152932D01*
X158083746Y-192152932D01*
X158083745Y-192152931D01*
X157870661Y-192010553D01*
X157689447Y-191829339D01*
X157547069Y-191616255D01*
X157547068Y-191616253D01*
X157448996Y-191379487D01*
X157399000Y-191128139D01*
X157399000Y-190871861D01*
X157448996Y-190620513D01*
X157547068Y-190383747D01*
X157689447Y-190170661D01*
X157870661Y-189989447D01*
X158083745Y-189847069D01*
X158083747Y-189847068D01*
X158320513Y-189748996D01*
X158571861Y-189699000D01*
X158828139Y-189699000D01*
X159079487Y-189748996D01*
G37*
G36*
X146879487Y-189748996D02*
G01*
X147116253Y-189847068D01*
X147116255Y-189847069D01*
X147329339Y-189989447D01*
X147510553Y-190170661D01*
X147652932Y-190383747D01*
X147751004Y-190620513D01*
X147801000Y-190871861D01*
X147801000Y-191128139D01*
X147751004Y-191379487D01*
X147652932Y-191616253D01*
X147652931Y-191616255D01*
X147510553Y-191829339D01*
X147329339Y-192010553D01*
X147116255Y-192152931D01*
X147116254Y-192152932D01*
X147116253Y-192152932D01*
X146879487Y-192251004D01*
X146628139Y-192301000D01*
X146371861Y-192301000D01*
X146120513Y-192251004D01*
X145883747Y-192152932D01*
X145883746Y-192152932D01*
X145883745Y-192152931D01*
X145670661Y-192010553D01*
X145489447Y-191829339D01*
X145347069Y-191616255D01*
X145347068Y-191616253D01*
X145248996Y-191379487D01*
X145199000Y-191128139D01*
X145199000Y-190871861D01*
X145248996Y-190620513D01*
X145347068Y-190383747D01*
X145489447Y-190170661D01*
X145670661Y-189989447D01*
X145883745Y-189847069D01*
X145883747Y-189847068D01*
X146120513Y-189748996D01*
X146371861Y-189699000D01*
X146628139Y-189699000D01*
X146879487Y-189748996D01*
G37*
G36*
X171552585Y-185648802D02*
G01*
X171702410Y-185678604D01*
X171984674Y-185795521D01*
X172238705Y-185965259D01*
X172454741Y-186181295D01*
X172624479Y-186435326D01*
X172741396Y-186717590D01*
X172801000Y-187017240D01*
X172801000Y-187322760D01*
X172741396Y-187622410D01*
X172624479Y-187904674D01*
X172454741Y-188158705D01*
X172238705Y-188374741D01*
X171984674Y-188544479D01*
X171702410Y-188661396D01*
X171552585Y-188691198D01*
X171402761Y-188721000D01*
X171097239Y-188721000D01*
X170947415Y-188691198D01*
X170797590Y-188661396D01*
X170515326Y-188544479D01*
X170261295Y-188374741D01*
X170045259Y-188158705D01*
X169875521Y-187904674D01*
X169758604Y-187622410D01*
X169699000Y-187322760D01*
X169699000Y-187017240D01*
X169758604Y-186717590D01*
X169875521Y-186435326D01*
X170045259Y-186181295D01*
X170261295Y-185965259D01*
X170515326Y-185795521D01*
X170797590Y-185678604D01*
X170947415Y-185648802D01*
X171097239Y-185619000D01*
X171402761Y-185619000D01*
X171552585Y-185648802D01*
G37*
G36*
X336552585Y-185648802D02*
G01*
X336702410Y-185678604D01*
X336984674Y-185795521D01*
X337238705Y-185965259D01*
X337454741Y-186181295D01*
X337624479Y-186435326D01*
X337741396Y-186717590D01*
X337801000Y-187017240D01*
X337801000Y-187322760D01*
X337741396Y-187622410D01*
X337624479Y-187904674D01*
X337454741Y-188158705D01*
X337238705Y-188374741D01*
X336984674Y-188544479D01*
X336702410Y-188661396D01*
X336552585Y-188691198D01*
X336402761Y-188721000D01*
X336097239Y-188721000D01*
X335947415Y-188691198D01*
X335797590Y-188661396D01*
X335515326Y-188544479D01*
X335261295Y-188374741D01*
X335045259Y-188158705D01*
X334875521Y-187904674D01*
X334758604Y-187622410D01*
X334699000Y-187322760D01*
X334699000Y-187017240D01*
X334758604Y-186717590D01*
X334875521Y-186435326D01*
X335045259Y-186181295D01*
X335261295Y-185965259D01*
X335515326Y-185795521D01*
X335797590Y-185678604D01*
X335947415Y-185648802D01*
X336097239Y-185619000D01*
X336402761Y-185619000D01*
X336552585Y-185648802D01*
G37*
G36*
X310801000Y-186301000D02*
G01*
X308199000Y-186301000D01*
X308199000Y-183699000D01*
X310801000Y-183699000D01*
X310801000Y-186301000D01*
G37*
G36*
X145801000Y-186301000D02*
G01*
X143199000Y-186301000D01*
X143199000Y-183699000D01*
X145801000Y-183699000D01*
X145801000Y-186301000D01*
G37*
G36*
X264556564Y-181489389D02*
G01*
X264678571Y-181539926D01*
X264747835Y-181568616D01*
X264919973Y-181683635D01*
X265066365Y-181830027D01*
X265181385Y-182002167D01*
X265260611Y-182193436D01*
X265301000Y-182396484D01*
X265301000Y-182603516D01*
X265260611Y-182806564D01*
X265229779Y-182880999D01*
X265181384Y-182997835D01*
X265066365Y-183169973D01*
X264919973Y-183316365D01*
X264747835Y-183431384D01*
X264747834Y-183431385D01*
X264747833Y-183431385D01*
X264556564Y-183510611D01*
X264353516Y-183551000D01*
X264146484Y-183551000D01*
X263943436Y-183510611D01*
X263752167Y-183431385D01*
X263752166Y-183431385D01*
X263752165Y-183431384D01*
X263580027Y-183316365D01*
X263433635Y-183169973D01*
X263318616Y-182997835D01*
X263270221Y-182880999D01*
X263239389Y-182806564D01*
X263199000Y-182603516D01*
X263199000Y-182396484D01*
X263239389Y-182193436D01*
X263318615Y-182002167D01*
X263433635Y-181830027D01*
X263580027Y-181683635D01*
X263752165Y-181568616D01*
X263821429Y-181539926D01*
X263943436Y-181489389D01*
X264146484Y-181449000D01*
X264353516Y-181449000D01*
X264556564Y-181489389D01*
G37*
G36*
X99556564Y-181489389D02*
G01*
X99678571Y-181539926D01*
X99747835Y-181568616D01*
X99919973Y-181683635D01*
X100066365Y-181830027D01*
X100181385Y-182002167D01*
X100260611Y-182193436D01*
X100301000Y-182396484D01*
X100301000Y-182603516D01*
X100260611Y-182806564D01*
X100229779Y-182880999D01*
X100181384Y-182997835D01*
X100066365Y-183169973D01*
X99919973Y-183316365D01*
X99747835Y-183431384D01*
X99747834Y-183431385D01*
X99747833Y-183431385D01*
X99556564Y-183510611D01*
X99353516Y-183551000D01*
X99146484Y-183551000D01*
X98943436Y-183510611D01*
X98752167Y-183431385D01*
X98752166Y-183431385D01*
X98752165Y-183431384D01*
X98580027Y-183316365D01*
X98433635Y-183169973D01*
X98318616Y-182997835D01*
X98270221Y-182880999D01*
X98239389Y-182806564D01*
X98199000Y-182603516D01*
X98199000Y-182396484D01*
X98239389Y-182193436D01*
X98318615Y-182002167D01*
X98433635Y-181830027D01*
X98580027Y-181683635D01*
X98752165Y-181568616D01*
X98821429Y-181539926D01*
X98943436Y-181489389D01*
X99146484Y-181449000D01*
X99353516Y-181449000D01*
X99556564Y-181489389D01*
G37*
G36*
X93056564Y-181489389D02*
G01*
X93178571Y-181539926D01*
X93247835Y-181568616D01*
X93419973Y-181683635D01*
X93566365Y-181830027D01*
X93681385Y-182002167D01*
X93760611Y-182193436D01*
X93801000Y-182396484D01*
X93801000Y-182603516D01*
X93760611Y-182806564D01*
X93729779Y-182880999D01*
X93681384Y-182997835D01*
X93566365Y-183169973D01*
X93419973Y-183316365D01*
X93247835Y-183431384D01*
X93247834Y-183431385D01*
X93247833Y-183431385D01*
X93056564Y-183510611D01*
X92853516Y-183551000D01*
X92646484Y-183551000D01*
X92443436Y-183510611D01*
X92252167Y-183431385D01*
X92252166Y-183431385D01*
X92252165Y-183431384D01*
X92080027Y-183316365D01*
X91933635Y-183169973D01*
X91818616Y-182997835D01*
X91770221Y-182880999D01*
X91739389Y-182806564D01*
X91699000Y-182603516D01*
X91699000Y-182396484D01*
X91739389Y-182193436D01*
X91818615Y-182002167D01*
X91933635Y-181830027D01*
X92080027Y-181683635D01*
X92252165Y-181568616D01*
X92321429Y-181539926D01*
X92443436Y-181489389D01*
X92646484Y-181449000D01*
X92853516Y-181449000D01*
X93056564Y-181489389D01*
G37*
G36*
X258056564Y-181489389D02*
G01*
X258178571Y-181539926D01*
X258247835Y-181568616D01*
X258419973Y-181683635D01*
X258566365Y-181830027D01*
X258681385Y-182002167D01*
X258760611Y-182193436D01*
X258801000Y-182396484D01*
X258801000Y-182603516D01*
X258760611Y-182806564D01*
X258729779Y-182880999D01*
X258681384Y-182997835D01*
X258566365Y-183169973D01*
X258419973Y-183316365D01*
X258247835Y-183431384D01*
X258247834Y-183431385D01*
X258247833Y-183431385D01*
X258056564Y-183510611D01*
X257853516Y-183551000D01*
X257646484Y-183551000D01*
X257443436Y-183510611D01*
X257252167Y-183431385D01*
X257252166Y-183431385D01*
X257252165Y-183431384D01*
X257080027Y-183316365D01*
X256933635Y-183169973D01*
X256818616Y-182997835D01*
X256770221Y-182880999D01*
X256739389Y-182806564D01*
X256699000Y-182603516D01*
X256699000Y-182396484D01*
X256739389Y-182193436D01*
X256818615Y-182002167D01*
X256933635Y-181830027D01*
X257080027Y-181683635D01*
X257252165Y-181568616D01*
X257321429Y-181539926D01*
X257443436Y-181489389D01*
X257646484Y-181449000D01*
X257853516Y-181449000D01*
X258056564Y-181489389D01*
G37*
G36*
X85384239Y-176811467D02*
G01*
X85698282Y-176873934D01*
X86289926Y-177119001D01*
X86822392Y-177474784D01*
X87275216Y-177927608D01*
X87630999Y-178460074D01*
X87876066Y-179051718D01*
X88001000Y-179679804D01*
X88001000Y-180320196D01*
X87876066Y-180948282D01*
X87630999Y-181539926D01*
X87275216Y-182072392D01*
X86822392Y-182525216D01*
X86289926Y-182880999D01*
X85698282Y-183126066D01*
X85477546Y-183169973D01*
X85070197Y-183251000D01*
X84429803Y-183251000D01*
X84022454Y-183169973D01*
X83801718Y-183126066D01*
X83210074Y-182880999D01*
X82677608Y-182525216D01*
X82224784Y-182072392D01*
X81869001Y-181539926D01*
X81623934Y-180948282D01*
X81499000Y-180320196D01*
X81499000Y-179679804D01*
X81623934Y-179051718D01*
X81869001Y-178460074D01*
X82224784Y-177927608D01*
X82677608Y-177474784D01*
X83210074Y-177119001D01*
X83801718Y-176873934D01*
X84115761Y-176811467D01*
X84429803Y-176749000D01*
X85070197Y-176749000D01*
X85384239Y-176811467D01*
G37*
G36*
X337384239Y-176811467D02*
G01*
X337698282Y-176873934D01*
X338289926Y-177119001D01*
X338822392Y-177474784D01*
X339275216Y-177927608D01*
X339630999Y-178460074D01*
X339876066Y-179051718D01*
X340001000Y-179679804D01*
X340001000Y-180320196D01*
X339876066Y-180948282D01*
X339630999Y-181539926D01*
X339275216Y-182072392D01*
X338822392Y-182525216D01*
X338289926Y-182880999D01*
X337698282Y-183126066D01*
X337477546Y-183169973D01*
X337070197Y-183251000D01*
X336429803Y-183251000D01*
X336022454Y-183169973D01*
X335801718Y-183126066D01*
X335210074Y-182880999D01*
X334677608Y-182525216D01*
X334224784Y-182072392D01*
X333869001Y-181539926D01*
X333623934Y-180948282D01*
X333499000Y-180320196D01*
X333499000Y-179679804D01*
X333623934Y-179051718D01*
X333869001Y-178460074D01*
X334224784Y-177927608D01*
X334677608Y-177474784D01*
X335210074Y-177119001D01*
X335801718Y-176873934D01*
X336115761Y-176811467D01*
X336429803Y-176749000D01*
X337070197Y-176749000D01*
X337384239Y-176811467D01*
G37*
G36*
X172384239Y-176811467D02*
G01*
X172698282Y-176873934D01*
X173289926Y-177119001D01*
X173822392Y-177474784D01*
X174275216Y-177927608D01*
X174630999Y-178460074D01*
X174876066Y-179051718D01*
X175001000Y-179679804D01*
X175001000Y-180320196D01*
X174876066Y-180948282D01*
X174630999Y-181539926D01*
X174275216Y-182072392D01*
X173822392Y-182525216D01*
X173289926Y-182880999D01*
X172698282Y-183126066D01*
X172477546Y-183169973D01*
X172070197Y-183251000D01*
X171429803Y-183251000D01*
X171022454Y-183169973D01*
X170801718Y-183126066D01*
X170210074Y-182880999D01*
X169677608Y-182525216D01*
X169224784Y-182072392D01*
X168869001Y-181539926D01*
X168623934Y-180948282D01*
X168499000Y-180320196D01*
X168499000Y-179679804D01*
X168623934Y-179051718D01*
X168869001Y-178460074D01*
X169224784Y-177927608D01*
X169677608Y-177474784D01*
X170210074Y-177119001D01*
X170801718Y-176873934D01*
X171115761Y-176811467D01*
X171429803Y-176749000D01*
X172070197Y-176749000D01*
X172384239Y-176811467D01*
G37*
G36*
X250384239Y-176811467D02*
G01*
X250698282Y-176873934D01*
X251289926Y-177119001D01*
X251822392Y-177474784D01*
X252275216Y-177927608D01*
X252630999Y-178460074D01*
X252876066Y-179051718D01*
X253001000Y-179679804D01*
X253001000Y-180320196D01*
X252876066Y-180948282D01*
X252630999Y-181539926D01*
X252275216Y-182072392D01*
X251822392Y-182525216D01*
X251289926Y-182880999D01*
X250698282Y-183126066D01*
X250477546Y-183169973D01*
X250070197Y-183251000D01*
X249429803Y-183251000D01*
X249022454Y-183169973D01*
X248801718Y-183126066D01*
X248210074Y-182880999D01*
X247677608Y-182525216D01*
X247224784Y-182072392D01*
X246869001Y-181539926D01*
X246623934Y-180948282D01*
X246499000Y-180320196D01*
X246499000Y-179679804D01*
X246623934Y-179051718D01*
X246869001Y-178460074D01*
X247224784Y-177927608D01*
X247677608Y-177474784D01*
X248210074Y-177119001D01*
X248801718Y-176873934D01*
X249115761Y-176811467D01*
X249429803Y-176749000D01*
X250070197Y-176749000D01*
X250384239Y-176811467D01*
G37*
G36*
X324079487Y-177748996D02*
G01*
X324316253Y-177847068D01*
X324316255Y-177847069D01*
X324390210Y-177896484D01*
X324529339Y-177989447D01*
X324710553Y-178170661D01*
X324852932Y-178383747D01*
X324951004Y-178620513D01*
X325001000Y-178871861D01*
X325001000Y-179128139D01*
X324951004Y-179379487D01*
X324852932Y-179616253D01*
X324852931Y-179616255D01*
X324710553Y-179829339D01*
X324529339Y-180010553D01*
X324316255Y-180152931D01*
X324316254Y-180152932D01*
X324316253Y-180152932D01*
X324079487Y-180251004D01*
X323828139Y-180301000D01*
X323571861Y-180301000D01*
X323320513Y-180251004D01*
X323083747Y-180152932D01*
X323083746Y-180152932D01*
X323083745Y-180152931D01*
X322870661Y-180010553D01*
X322689447Y-179829339D01*
X322547069Y-179616255D01*
X322547068Y-179616253D01*
X322448996Y-179379487D01*
X322399000Y-179128139D01*
X322399000Y-178871861D01*
X322448996Y-178620513D01*
X322547068Y-178383747D01*
X322689447Y-178170661D01*
X322870661Y-177989447D01*
X323009790Y-177896484D01*
X323083745Y-177847069D01*
X323083747Y-177847068D01*
X323320513Y-177748996D01*
X323571861Y-177699000D01*
X323828139Y-177699000D01*
X324079487Y-177748996D01*
G37*
G36*
X311879487Y-177748996D02*
G01*
X312116253Y-177847068D01*
X312116255Y-177847069D01*
X312190210Y-177896484D01*
X312329339Y-177989447D01*
X312510553Y-178170661D01*
X312652932Y-178383747D01*
X312751004Y-178620513D01*
X312801000Y-178871861D01*
X312801000Y-179128139D01*
X312751004Y-179379487D01*
X312652932Y-179616253D01*
X312652931Y-179616255D01*
X312510553Y-179829339D01*
X312329339Y-180010553D01*
X312116255Y-180152931D01*
X312116254Y-180152932D01*
X312116253Y-180152932D01*
X311879487Y-180251004D01*
X311628139Y-180301000D01*
X311371861Y-180301000D01*
X311120513Y-180251004D01*
X310883747Y-180152932D01*
X310883746Y-180152932D01*
X310883745Y-180152931D01*
X310670661Y-180010553D01*
X310489447Y-179829339D01*
X310347069Y-179616255D01*
X310347068Y-179616253D01*
X310248996Y-179379487D01*
X310199000Y-179128139D01*
X310199000Y-178871861D01*
X310248996Y-178620513D01*
X310347068Y-178383747D01*
X310489447Y-178170661D01*
X310670661Y-177989447D01*
X310809790Y-177896484D01*
X310883745Y-177847069D01*
X310883747Y-177847068D01*
X311120513Y-177748996D01*
X311371861Y-177699000D01*
X311628139Y-177699000D01*
X311879487Y-177748996D01*
G37*
G36*
X146879487Y-177748996D02*
G01*
X147116253Y-177847068D01*
X147116255Y-177847069D01*
X147190210Y-177896484D01*
X147329339Y-177989447D01*
X147510553Y-178170661D01*
X147652932Y-178383747D01*
X147751004Y-178620513D01*
X147801000Y-178871861D01*
X147801000Y-179128139D01*
X147751004Y-179379487D01*
X147652932Y-179616253D01*
X147652931Y-179616255D01*
X147510553Y-179829339D01*
X147329339Y-180010553D01*
X147116255Y-180152931D01*
X147116254Y-180152932D01*
X147116253Y-180152932D01*
X146879487Y-180251004D01*
X146628139Y-180301000D01*
X146371861Y-180301000D01*
X146120513Y-180251004D01*
X145883747Y-180152932D01*
X145883746Y-180152932D01*
X145883745Y-180152931D01*
X145670661Y-180010553D01*
X145489447Y-179829339D01*
X145347069Y-179616255D01*
X145347068Y-179616253D01*
X145248996Y-179379487D01*
X145199000Y-179128139D01*
X145199000Y-178871861D01*
X145248996Y-178620513D01*
X145347068Y-178383747D01*
X145489447Y-178170661D01*
X145670661Y-177989447D01*
X145809790Y-177896484D01*
X145883745Y-177847069D01*
X145883747Y-177847068D01*
X146120513Y-177748996D01*
X146371861Y-177699000D01*
X146628139Y-177699000D01*
X146879487Y-177748996D01*
G37*
G36*
X159079487Y-177748996D02*
G01*
X159316253Y-177847068D01*
X159316255Y-177847069D01*
X159390210Y-177896484D01*
X159529339Y-177989447D01*
X159710553Y-178170661D01*
X159852932Y-178383747D01*
X159951004Y-178620513D01*
X160001000Y-178871861D01*
X160001000Y-179128139D01*
X159951004Y-179379487D01*
X159852932Y-179616253D01*
X159852931Y-179616255D01*
X159710553Y-179829339D01*
X159529339Y-180010553D01*
X159316255Y-180152931D01*
X159316254Y-180152932D01*
X159316253Y-180152932D01*
X159079487Y-180251004D01*
X158828139Y-180301000D01*
X158571861Y-180301000D01*
X158320513Y-180251004D01*
X158083747Y-180152932D01*
X158083746Y-180152932D01*
X158083745Y-180152931D01*
X157870661Y-180010553D01*
X157689447Y-179829339D01*
X157547069Y-179616255D01*
X157547068Y-179616253D01*
X157448996Y-179379487D01*
X157399000Y-179128139D01*
X157399000Y-178871861D01*
X157448996Y-178620513D01*
X157547068Y-178383747D01*
X157689447Y-178170661D01*
X157870661Y-177989447D01*
X158009790Y-177896484D01*
X158083745Y-177847069D01*
X158083747Y-177847068D01*
X158320513Y-177748996D01*
X158571861Y-177699000D01*
X158828139Y-177699000D01*
X159079487Y-177748996D01*
G37*
G36*
X93056564Y-176989389D02*
G01*
X93247833Y-177068615D01*
X93247835Y-177068616D01*
X93419973Y-177183635D01*
X93566365Y-177330027D01*
X93663089Y-177474784D01*
X93681385Y-177502167D01*
X93760611Y-177693436D01*
X93801000Y-177896484D01*
X93801000Y-178103516D01*
X93760611Y-178306564D01*
X93697025Y-178460074D01*
X93681384Y-178497835D01*
X93566365Y-178669973D01*
X93419973Y-178816365D01*
X93247835Y-178931384D01*
X93247834Y-178931385D01*
X93247833Y-178931385D01*
X93056564Y-179010611D01*
X92853516Y-179051000D01*
X92646484Y-179051000D01*
X92443436Y-179010611D01*
X92252167Y-178931385D01*
X92252166Y-178931385D01*
X92252165Y-178931384D01*
X92080027Y-178816365D01*
X91933635Y-178669973D01*
X91818616Y-178497835D01*
X91802975Y-178460074D01*
X91739389Y-178306564D01*
X91699000Y-178103516D01*
X91699000Y-177896484D01*
X91739389Y-177693436D01*
X91818615Y-177502167D01*
X91836912Y-177474784D01*
X91933635Y-177330027D01*
X92080027Y-177183635D01*
X92252165Y-177068616D01*
X92252167Y-177068615D01*
X92443436Y-176989389D01*
X92646484Y-176949000D01*
X92853516Y-176949000D01*
X93056564Y-176989389D01*
G37*
G36*
X258056564Y-176989389D02*
G01*
X258247833Y-177068615D01*
X258247835Y-177068616D01*
X258419973Y-177183635D01*
X258566365Y-177330027D01*
X258663089Y-177474784D01*
X258681385Y-177502167D01*
X258760611Y-177693436D01*
X258801000Y-177896484D01*
X258801000Y-178103516D01*
X258760611Y-178306564D01*
X258697025Y-178460074D01*
X258681384Y-178497835D01*
X258566365Y-178669973D01*
X258419973Y-178816365D01*
X258247835Y-178931384D01*
X258247834Y-178931385D01*
X258247833Y-178931385D01*
X258056564Y-179010611D01*
X257853516Y-179051000D01*
X257646484Y-179051000D01*
X257443436Y-179010611D01*
X257252167Y-178931385D01*
X257252166Y-178931385D01*
X257252165Y-178931384D01*
X257080027Y-178816365D01*
X256933635Y-178669973D01*
X256818616Y-178497835D01*
X256802975Y-178460074D01*
X256739389Y-178306564D01*
X256699000Y-178103516D01*
X256699000Y-177896484D01*
X256739389Y-177693436D01*
X256818615Y-177502167D01*
X256836912Y-177474784D01*
X256933635Y-177330027D01*
X257080027Y-177183635D01*
X257252165Y-177068616D01*
X257252167Y-177068615D01*
X257443436Y-176989389D01*
X257646484Y-176949000D01*
X257853516Y-176949000D01*
X258056564Y-176989389D01*
G37*
G36*
X264556564Y-176989389D02*
G01*
X264747833Y-177068615D01*
X264747835Y-177068616D01*
X264919973Y-177183635D01*
X265066365Y-177330027D01*
X265163089Y-177474784D01*
X265181385Y-177502167D01*
X265260611Y-177693436D01*
X265301000Y-177896484D01*
X265301000Y-178103516D01*
X265260611Y-178306564D01*
X265197025Y-178460074D01*
X265181384Y-178497835D01*
X265066365Y-178669973D01*
X264919973Y-178816365D01*
X264747835Y-178931384D01*
X264747834Y-178931385D01*
X264747833Y-178931385D01*
X264556564Y-179010611D01*
X264353516Y-179051000D01*
X264146484Y-179051000D01*
X263943436Y-179010611D01*
X263752167Y-178931385D01*
X263752166Y-178931385D01*
X263752165Y-178931384D01*
X263580027Y-178816365D01*
X263433635Y-178669973D01*
X263318616Y-178497835D01*
X263302975Y-178460074D01*
X263239389Y-178306564D01*
X263199000Y-178103516D01*
X263199000Y-177896484D01*
X263239389Y-177693436D01*
X263318615Y-177502167D01*
X263336912Y-177474784D01*
X263433635Y-177330027D01*
X263580027Y-177183635D01*
X263752165Y-177068616D01*
X263752167Y-177068615D01*
X263943436Y-176989389D01*
X264146484Y-176949000D01*
X264353516Y-176949000D01*
X264556564Y-176989389D01*
G37*
G36*
X99556564Y-176989389D02*
G01*
X99747833Y-177068615D01*
X99747835Y-177068616D01*
X99919973Y-177183635D01*
X100066365Y-177330027D01*
X100163089Y-177474784D01*
X100181385Y-177502167D01*
X100260611Y-177693436D01*
X100301000Y-177896484D01*
X100301000Y-178103516D01*
X100260611Y-178306564D01*
X100197025Y-178460074D01*
X100181384Y-178497835D01*
X100066365Y-178669973D01*
X99919973Y-178816365D01*
X99747835Y-178931384D01*
X99747834Y-178931385D01*
X99747833Y-178931385D01*
X99556564Y-179010611D01*
X99353516Y-179051000D01*
X99146484Y-179051000D01*
X98943436Y-179010611D01*
X98752167Y-178931385D01*
X98752166Y-178931385D01*
X98752165Y-178931384D01*
X98580027Y-178816365D01*
X98433635Y-178669973D01*
X98318616Y-178497835D01*
X98302975Y-178460074D01*
X98239389Y-178306564D01*
X98199000Y-178103516D01*
X98199000Y-177896484D01*
X98239389Y-177693436D01*
X98318615Y-177502167D01*
X98336912Y-177474784D01*
X98433635Y-177330027D01*
X98580027Y-177183635D01*
X98752165Y-177068616D01*
X98752167Y-177068615D01*
X98943436Y-176989389D01*
X99146484Y-176949000D01*
X99353516Y-176949000D01*
X99556564Y-176989389D01*
G37*
G36*
X207125256Y-168391298D02*
G01*
X207231579Y-168412447D01*
X207532042Y-168536903D01*
X207802451Y-168717585D01*
X208032415Y-168947549D01*
X208213097Y-169217958D01*
X208337553Y-169518421D01*
X208401000Y-169837391D01*
X208401000Y-170162609D01*
X208337553Y-170481579D01*
X208213097Y-170782042D01*
X208032415Y-171052451D01*
X207802451Y-171282415D01*
X207532042Y-171463097D01*
X207231579Y-171587553D01*
X207125256Y-171608702D01*
X206912611Y-171651000D01*
X206587389Y-171651000D01*
X206374744Y-171608702D01*
X206268421Y-171587553D01*
X205967958Y-171463097D01*
X205697549Y-171282415D01*
X205467585Y-171052451D01*
X205286903Y-170782042D01*
X205162447Y-170481579D01*
X205099000Y-170162609D01*
X205099000Y-169837391D01*
X205162447Y-169518421D01*
X205286903Y-169217958D01*
X205467585Y-168947549D01*
X205697549Y-168717585D01*
X205967958Y-168536903D01*
X206268421Y-168412447D01*
X206374744Y-168391298D01*
X206587389Y-168349000D01*
X206912611Y-168349000D01*
X207125256Y-168391298D01*
G37*
G36*
X85125256Y-168391298D02*
G01*
X85231579Y-168412447D01*
X85532042Y-168536903D01*
X85802451Y-168717585D01*
X86032415Y-168947549D01*
X86213097Y-169217958D01*
X86337553Y-169518421D01*
X86401000Y-169837391D01*
X86401000Y-170162609D01*
X86337553Y-170481579D01*
X86213097Y-170782042D01*
X86032415Y-171052451D01*
X85802451Y-171282415D01*
X85532042Y-171463097D01*
X85231579Y-171587553D01*
X85125256Y-171608702D01*
X84912611Y-171651000D01*
X84587389Y-171651000D01*
X84374744Y-171608702D01*
X84268421Y-171587553D01*
X83967958Y-171463097D01*
X83697549Y-171282415D01*
X83467585Y-171052451D01*
X83286903Y-170782042D01*
X83162447Y-170481579D01*
X83099000Y-170162609D01*
X83099000Y-169837391D01*
X83162447Y-169518421D01*
X83286903Y-169217958D01*
X83467585Y-168947549D01*
X83697549Y-168717585D01*
X83967958Y-168536903D01*
X84268421Y-168412447D01*
X84374744Y-168391298D01*
X84587389Y-168349000D01*
X84912611Y-168349000D01*
X85125256Y-168391298D01*
G37*
G36*
X337125256Y-168391298D02*
G01*
X337231579Y-168412447D01*
X337532042Y-168536903D01*
X337802451Y-168717585D01*
X338032415Y-168947549D01*
X338213097Y-169217958D01*
X338337553Y-169518421D01*
X338401000Y-169837391D01*
X338401000Y-170162609D01*
X338337553Y-170481579D01*
X338213097Y-170782042D01*
X338032415Y-171052451D01*
X337802451Y-171282415D01*
X337532042Y-171463097D01*
X337231579Y-171587553D01*
X337125256Y-171608702D01*
X336912611Y-171651000D01*
X336587389Y-171651000D01*
X336374744Y-171608702D01*
X336268421Y-171587553D01*
X335967958Y-171463097D01*
X335697549Y-171282415D01*
X335467585Y-171052451D01*
X335286903Y-170782042D01*
X335162447Y-170481579D01*
X335099000Y-170162609D01*
X335099000Y-169837391D01*
X335162447Y-169518421D01*
X335286903Y-169217958D01*
X335467585Y-168947549D01*
X335697549Y-168717585D01*
X335967958Y-168536903D01*
X336268421Y-168412447D01*
X336374744Y-168391298D01*
X336587389Y-168349000D01*
X336912611Y-168349000D01*
X337125256Y-168391298D01*
G37*
G36*
X215125256Y-168391298D02*
G01*
X215231579Y-168412447D01*
X215532042Y-168536903D01*
X215802451Y-168717585D01*
X216032415Y-168947549D01*
X216213097Y-169217958D01*
X216337553Y-169518421D01*
X216401000Y-169837391D01*
X216401000Y-170162609D01*
X216337553Y-170481579D01*
X216213097Y-170782042D01*
X216032415Y-171052451D01*
X215802451Y-171282415D01*
X215532042Y-171463097D01*
X215231579Y-171587553D01*
X215125256Y-171608702D01*
X214912611Y-171651000D01*
X214587389Y-171651000D01*
X214374744Y-171608702D01*
X214268421Y-171587553D01*
X213967958Y-171463097D01*
X213697549Y-171282415D01*
X213467585Y-171052451D01*
X213286903Y-170782042D01*
X213162447Y-170481579D01*
X213099000Y-170162609D01*
X213099000Y-169837391D01*
X213162447Y-169518421D01*
X213286903Y-169217958D01*
X213467585Y-168947549D01*
X213697549Y-168717585D01*
X213967958Y-168536903D01*
X214268421Y-168412447D01*
X214374744Y-168391298D01*
X214587389Y-168349000D01*
X214912611Y-168349000D01*
X215125256Y-168391298D01*
G37*
G36*
X109037852Y-81902797D02*
G01*
X109529402Y-82106404D01*
X109529403Y-82106405D01*
X109971787Y-82401996D01*
X110348004Y-82778213D01*
X110545512Y-83073805D01*
X110643596Y-83220598D01*
X110847203Y-83712148D01*
X110951000Y-84233973D01*
X110951000Y-84766027D01*
X110847203Y-85287852D01*
X110643596Y-85779402D01*
X110643595Y-85779403D01*
X110348004Y-86221787D01*
X109971787Y-86598004D01*
X109676195Y-86795512D01*
X109529402Y-86893596D01*
X109037852Y-87097203D01*
X108516027Y-87201000D01*
X107983973Y-87201000D01*
X107462148Y-87097203D01*
X106970598Y-86893596D01*
X106823805Y-86795512D01*
X106528213Y-86598004D01*
X106151996Y-86221787D01*
X105856405Y-85779403D01*
X105856404Y-85779402D01*
X105652797Y-85287852D01*
X105549000Y-84766027D01*
X105549000Y-84233973D01*
X105652797Y-83712148D01*
X105856404Y-83220598D01*
X105954488Y-83073805D01*
X106151996Y-82778213D01*
X106528213Y-82401996D01*
X106970597Y-82106405D01*
X106970598Y-82106404D01*
X107462148Y-81902797D01*
X107983973Y-81799000D01*
X108516027Y-81799000D01*
X109037852Y-81902797D01*
G37*
G36*
X314037852Y-81902797D02*
G01*
X314529402Y-82106404D01*
X314529403Y-82106405D01*
X314971787Y-82401996D01*
X315348004Y-82778213D01*
X315545512Y-83073805D01*
X315643596Y-83220598D01*
X315847203Y-83712148D01*
X315951000Y-84233973D01*
X315951000Y-84766027D01*
X315847203Y-85287852D01*
X315643596Y-85779402D01*
X315643595Y-85779403D01*
X315348004Y-86221787D01*
X314971787Y-86598004D01*
X314676195Y-86795512D01*
X314529402Y-86893596D01*
X314037852Y-87097203D01*
X313516027Y-87201000D01*
X312983973Y-87201000D01*
X312462148Y-87097203D01*
X311970598Y-86893596D01*
X311823805Y-86795512D01*
X311528213Y-86598004D01*
X311151996Y-86221787D01*
X310856405Y-85779403D01*
X310856404Y-85779402D01*
X310652797Y-85287852D01*
X310549000Y-84766027D01*
X310549000Y-84233973D01*
X310652797Y-83712148D01*
X310856404Y-83220598D01*
X310954488Y-83073805D01*
X311151996Y-82778213D01*
X311528213Y-82401996D01*
X311970597Y-82106405D01*
X311970598Y-82106404D01*
X312462148Y-81902797D01*
X312983973Y-81799000D01*
X313516027Y-81799000D01*
X314037852Y-81902797D01*
G37*
G36*
X239037852Y-81902797D02*
G01*
X239529402Y-82106404D01*
X239529403Y-82106405D01*
X239971787Y-82401996D01*
X240348004Y-82778213D01*
X240545512Y-83073805D01*
X240643596Y-83220598D01*
X240847203Y-83712148D01*
X240951000Y-84233973D01*
X240951000Y-84766027D01*
X240847203Y-85287852D01*
X240643596Y-85779402D01*
X240643595Y-85779403D01*
X240348004Y-86221787D01*
X239971787Y-86598004D01*
X239676195Y-86795512D01*
X239529402Y-86893596D01*
X239037852Y-87097203D01*
X238516027Y-87201000D01*
X237983973Y-87201000D01*
X237462148Y-87097203D01*
X236970598Y-86893596D01*
X236823805Y-86795512D01*
X236528213Y-86598004D01*
X236151996Y-86221787D01*
X235856405Y-85779403D01*
X235856404Y-85779402D01*
X235652797Y-85287852D01*
X235549000Y-84766027D01*
X235549000Y-84233973D01*
X235652797Y-83712148D01*
X235856404Y-83220598D01*
X235954488Y-83073805D01*
X236151996Y-82778213D01*
X236528213Y-82401996D01*
X236970597Y-82106405D01*
X236970598Y-82106404D01*
X237462148Y-81902797D01*
X237983973Y-81799000D01*
X238516027Y-81799000D01*
X239037852Y-81902797D01*
G37*
G36*
X184037852Y-81902797D02*
G01*
X184529402Y-82106404D01*
X184529403Y-82106405D01*
X184971787Y-82401996D01*
X185348004Y-82778213D01*
X185545512Y-83073805D01*
X185643596Y-83220598D01*
X185847203Y-83712148D01*
X185951000Y-84233973D01*
X185951000Y-84766027D01*
X185847203Y-85287852D01*
X185643596Y-85779402D01*
X185643595Y-85779403D01*
X185348004Y-86221787D01*
X184971787Y-86598004D01*
X184676195Y-86795512D01*
X184529402Y-86893596D01*
X184037852Y-87097203D01*
X183516027Y-87201000D01*
X182983973Y-87201000D01*
X182462148Y-87097203D01*
X181970598Y-86893596D01*
X181823805Y-86795512D01*
X181528213Y-86598004D01*
X181151996Y-86221787D01*
X180856405Y-85779403D01*
X180856404Y-85779402D01*
X180652797Y-85287852D01*
X180549000Y-84766027D01*
X180549000Y-84233973D01*
X180652797Y-83712148D01*
X180856404Y-83220598D01*
X180954488Y-83073805D01*
X181151996Y-82778213D01*
X181528213Y-82401996D01*
X181970597Y-82106405D01*
X181970598Y-82106404D01*
X182462148Y-81902797D01*
X182983973Y-81799000D01*
X183516027Y-81799000D01*
X184037852Y-81902797D01*
G37*
G36*
X239037852Y-50902797D02*
G01*
X239529402Y-51106404D01*
X239529403Y-51106405D01*
X239971787Y-51401996D01*
X240348004Y-51778213D01*
X240545512Y-52073805D01*
X240643596Y-52220598D01*
X240847203Y-52712148D01*
X240951000Y-53233973D01*
X240951000Y-53766027D01*
X240847203Y-54287852D01*
X240643596Y-54779402D01*
X240643595Y-54779403D01*
X240348004Y-55221787D01*
X239971787Y-55598004D01*
X239676195Y-55795512D01*
X239529402Y-55893596D01*
X239037852Y-56097203D01*
X238516027Y-56201000D01*
X237983973Y-56201000D01*
X237462148Y-56097203D01*
X236970598Y-55893596D01*
X236823805Y-55795512D01*
X236528213Y-55598004D01*
X236151996Y-55221787D01*
X235856405Y-54779403D01*
X235856404Y-54779402D01*
X235652797Y-54287852D01*
X235549000Y-53766027D01*
X235549000Y-53233973D01*
X235652797Y-52712148D01*
X235856404Y-52220598D01*
X235954488Y-52073805D01*
X236151996Y-51778213D01*
X236528213Y-51401996D01*
X236970597Y-51106405D01*
X236970598Y-51106404D01*
X237462148Y-50902797D01*
X237983973Y-50799000D01*
X238516027Y-50799000D01*
X239037852Y-50902797D01*
G37*
G36*
X314037852Y-50902797D02*
G01*
X314529402Y-51106404D01*
X314529403Y-51106405D01*
X314971787Y-51401996D01*
X315348004Y-51778213D01*
X315545512Y-52073805D01*
X315643596Y-52220598D01*
X315847203Y-52712148D01*
X315951000Y-53233973D01*
X315951000Y-53766027D01*
X315847203Y-54287852D01*
X315643596Y-54779402D01*
X315643595Y-54779403D01*
X315348004Y-55221787D01*
X314971787Y-55598004D01*
X314676195Y-55795512D01*
X314529402Y-55893596D01*
X314037852Y-56097203D01*
X313516027Y-56201000D01*
X312983973Y-56201000D01*
X312462148Y-56097203D01*
X311970598Y-55893596D01*
X311823805Y-55795512D01*
X311528213Y-55598004D01*
X311151996Y-55221787D01*
X310856405Y-54779403D01*
X310856404Y-54779402D01*
X310652797Y-54287852D01*
X310549000Y-53766027D01*
X310549000Y-53233973D01*
X310652797Y-52712148D01*
X310856404Y-52220598D01*
X310954488Y-52073805D01*
X311151996Y-51778213D01*
X311528213Y-51401996D01*
X311970597Y-51106405D01*
X311970598Y-51106404D01*
X312462148Y-50902797D01*
X312983973Y-50799000D01*
X313516027Y-50799000D01*
X314037852Y-50902797D01*
G37*
G36*
X184037852Y-50902797D02*
G01*
X184529402Y-51106404D01*
X184529403Y-51106405D01*
X184971787Y-51401996D01*
X185348004Y-51778213D01*
X185545512Y-52073805D01*
X185643596Y-52220598D01*
X185847203Y-52712148D01*
X185951000Y-53233973D01*
X185951000Y-53766027D01*
X185847203Y-54287852D01*
X185643596Y-54779402D01*
X185643595Y-54779403D01*
X185348004Y-55221787D01*
X184971787Y-55598004D01*
X184676195Y-55795512D01*
X184529402Y-55893596D01*
X184037852Y-56097203D01*
X183516027Y-56201000D01*
X182983973Y-56201000D01*
X182462148Y-56097203D01*
X181970598Y-55893596D01*
X181823805Y-55795512D01*
X181528213Y-55598004D01*
X181151996Y-55221787D01*
X180856405Y-54779403D01*
X180856404Y-54779402D01*
X180652797Y-54287852D01*
X180549000Y-53766027D01*
X180549000Y-53233973D01*
X180652797Y-52712148D01*
X180856404Y-52220598D01*
X180954488Y-52073805D01*
X181151996Y-51778213D01*
X181528213Y-51401996D01*
X181970597Y-51106405D01*
X181970598Y-51106404D01*
X182462148Y-50902797D01*
X182983973Y-50799000D01*
X183516027Y-50799000D01*
X184037852Y-50902797D01*
G37*
G36*
X109037852Y-50902797D02*
G01*
X109529402Y-51106404D01*
X109529403Y-51106405D01*
X109971787Y-51401996D01*
X110348004Y-51778213D01*
X110545512Y-52073805D01*
X110643596Y-52220598D01*
X110847203Y-52712148D01*
X110951000Y-53233973D01*
X110951000Y-53766027D01*
X110847203Y-54287852D01*
X110643596Y-54779402D01*
X110643595Y-54779403D01*
X110348004Y-55221787D01*
X109971787Y-55598004D01*
X109676195Y-55795512D01*
X109529402Y-55893596D01*
X109037852Y-56097203D01*
X108516027Y-56201000D01*
X107983973Y-56201000D01*
X107462148Y-56097203D01*
X106970598Y-55893596D01*
X106823805Y-55795512D01*
X106528213Y-55598004D01*
X106151996Y-55221787D01*
X105856405Y-54779403D01*
X105856404Y-54779402D01*
X105652797Y-54287852D01*
X105549000Y-53766027D01*
X105549000Y-53233973D01*
X105652797Y-52712148D01*
X105856404Y-52220598D01*
X105954488Y-52073805D01*
X106151996Y-51778213D01*
X106528213Y-51401996D01*
X106970597Y-51106405D01*
X106970598Y-51106404D01*
X107462148Y-50902797D01*
X107983973Y-50799000D01*
X108516027Y-50799000D01*
X109037852Y-50902797D01*
G37*
G36*
X207125256Y-36391298D02*
G01*
X207231579Y-36412447D01*
X207532042Y-36536903D01*
X207802451Y-36717585D01*
X208032415Y-36947549D01*
X208213097Y-37217958D01*
X208337553Y-37518421D01*
X208401000Y-37837391D01*
X208401000Y-38162609D01*
X208337553Y-38481579D01*
X208213097Y-38782042D01*
X208032415Y-39052451D01*
X207802451Y-39282415D01*
X207532042Y-39463097D01*
X207231579Y-39587553D01*
X207125256Y-39608702D01*
X206912611Y-39651000D01*
X206587389Y-39651000D01*
X206374744Y-39608702D01*
X206268421Y-39587553D01*
X205967958Y-39463097D01*
X205697549Y-39282415D01*
X205467585Y-39052451D01*
X205286903Y-38782042D01*
X205162447Y-38481579D01*
X205099000Y-38162609D01*
X205099000Y-37837391D01*
X205162447Y-37518421D01*
X205286903Y-37217958D01*
X205467585Y-36947549D01*
X205697549Y-36717585D01*
X205967958Y-36536903D01*
X206268421Y-36412447D01*
X206374744Y-36391298D01*
X206587389Y-36349000D01*
X206912611Y-36349000D01*
X207125256Y-36391298D01*
G37*
G36*
X85125256Y-36391298D02*
G01*
X85231579Y-36412447D01*
X85532042Y-36536903D01*
X85802451Y-36717585D01*
X86032415Y-36947549D01*
X86213097Y-37217958D01*
X86337553Y-37518421D01*
X86401000Y-37837391D01*
X86401000Y-38162609D01*
X86337553Y-38481579D01*
X86213097Y-38782042D01*
X86032415Y-39052451D01*
X85802451Y-39282415D01*
X85532042Y-39463097D01*
X85231579Y-39587553D01*
X85125256Y-39608702D01*
X84912611Y-39651000D01*
X84587389Y-39651000D01*
X84374744Y-39608702D01*
X84268421Y-39587553D01*
X83967958Y-39463097D01*
X83697549Y-39282415D01*
X83467585Y-39052451D01*
X83286903Y-38782042D01*
X83162447Y-38481579D01*
X83099000Y-38162609D01*
X83099000Y-37837391D01*
X83162447Y-37518421D01*
X83286903Y-37217958D01*
X83467585Y-36947549D01*
X83697549Y-36717585D01*
X83967958Y-36536903D01*
X84268421Y-36412447D01*
X84374744Y-36391298D01*
X84587389Y-36349000D01*
X84912611Y-36349000D01*
X85125256Y-36391298D01*
G37*
G36*
X215125256Y-36391298D02*
G01*
X215231579Y-36412447D01*
X215532042Y-36536903D01*
X215802451Y-36717585D01*
X216032415Y-36947549D01*
X216213097Y-37217958D01*
X216337553Y-37518421D01*
X216401000Y-37837391D01*
X216401000Y-38162609D01*
X216337553Y-38481579D01*
X216213097Y-38782042D01*
X216032415Y-39052451D01*
X215802451Y-39282415D01*
X215532042Y-39463097D01*
X215231579Y-39587553D01*
X215125256Y-39608702D01*
X214912611Y-39651000D01*
X214587389Y-39651000D01*
X214374744Y-39608702D01*
X214268421Y-39587553D01*
X213967958Y-39463097D01*
X213697549Y-39282415D01*
X213467585Y-39052451D01*
X213286903Y-38782042D01*
X213162447Y-38481579D01*
X213099000Y-38162609D01*
X213099000Y-37837391D01*
X213162447Y-37518421D01*
X213286903Y-37217958D01*
X213467585Y-36947549D01*
X213697549Y-36717585D01*
X213967958Y-36536903D01*
X214268421Y-36412447D01*
X214374744Y-36391298D01*
X214587389Y-36349000D01*
X214912611Y-36349000D01*
X215125256Y-36391298D01*
G37*
G36*
X337125256Y-36391298D02*
G01*
X337231579Y-36412447D01*
X337532042Y-36536903D01*
X337802451Y-36717585D01*
X338032415Y-36947549D01*
X338213097Y-37217958D01*
X338337553Y-37518421D01*
X338401000Y-37837391D01*
X338401000Y-38162609D01*
X338337553Y-38481579D01*
X338213097Y-38782042D01*
X338032415Y-39052451D01*
X337802451Y-39282415D01*
X337532042Y-39463097D01*
X337231579Y-39587553D01*
X337125256Y-39608702D01*
X336912611Y-39651000D01*
X336587389Y-39651000D01*
X336374744Y-39608702D01*
X336268421Y-39587553D01*
X335967958Y-39463097D01*
X335697549Y-39282415D01*
X335467585Y-39052451D01*
X335286903Y-38782042D01*
X335162447Y-38481579D01*
X335099000Y-38162609D01*
X335099000Y-37837391D01*
X335162447Y-37518421D01*
X335286903Y-37217958D01*
X335467585Y-36947549D01*
X335697549Y-36717585D01*
X335967958Y-36536903D01*
X336268421Y-36412447D01*
X336374744Y-36391298D01*
X336587389Y-36349000D01*
X336912611Y-36349000D01*
X337125256Y-36391298D01*
G37*
G36*
X336125256Y-29891298D02*
G01*
X336231579Y-29912447D01*
X336532042Y-30036903D01*
X336802451Y-30217585D01*
X337032415Y-30447549D01*
X337213097Y-30717958D01*
X337337553Y-31018421D01*
X337401000Y-31337391D01*
X337401000Y-31662609D01*
X337337553Y-31981579D01*
X337213097Y-32282042D01*
X337032415Y-32552451D01*
X336802451Y-32782415D01*
X336532042Y-32963097D01*
X336231579Y-33087553D01*
X336125256Y-33108702D01*
X335912611Y-33151000D01*
X335587389Y-33151000D01*
X335374744Y-33108702D01*
X335268421Y-33087553D01*
X334967958Y-32963097D01*
X334697549Y-32782415D01*
X334467585Y-32552451D01*
X334286903Y-32282042D01*
X334162447Y-31981579D01*
X334099000Y-31662609D01*
X334099000Y-31337391D01*
X334162447Y-31018421D01*
X334286903Y-30717958D01*
X334467585Y-30447549D01*
X334697549Y-30217585D01*
X334967958Y-30036903D01*
X335268421Y-29912447D01*
X335374744Y-29891298D01*
X335587389Y-29849000D01*
X335912611Y-29849000D01*
X336125256Y-29891298D01*
G37*
G36*
X86125256Y-29891298D02*
G01*
X86231579Y-29912447D01*
X86532042Y-30036903D01*
X86802451Y-30217585D01*
X87032415Y-30447549D01*
X87213097Y-30717958D01*
X87337553Y-31018421D01*
X87401000Y-31337391D01*
X87401000Y-31662609D01*
X87337553Y-31981579D01*
X87213097Y-32282042D01*
X87032415Y-32552451D01*
X86802451Y-32782415D01*
X86532042Y-32963097D01*
X86231579Y-33087553D01*
X86125256Y-33108702D01*
X85912611Y-33151000D01*
X85587389Y-33151000D01*
X85374744Y-33108702D01*
X85268421Y-33087553D01*
X84967958Y-32963097D01*
X84697549Y-32782415D01*
X84467585Y-32552451D01*
X84286903Y-32282042D01*
X84162447Y-31981579D01*
X84099000Y-31662609D01*
X84099000Y-31337391D01*
X84162447Y-31018421D01*
X84286903Y-30717958D01*
X84467585Y-30447549D01*
X84697549Y-30217585D01*
X84967958Y-30036903D01*
X85268421Y-29912447D01*
X85374744Y-29891298D01*
X85587389Y-29849000D01*
X85912611Y-29849000D01*
X86125256Y-29891298D01*
G37*
M02*
