M48
; DRILL file {KiCad (5.1.6)-1} date 10/27/20 17:39:59
; FORMAT={-:-/ absolute / inch / decimal}
; #@! TF.CreationDate,2020-10-27T17:39:59-03:00
; #@! TF.GenerationSoftware,Kicad,Pcbnew,(5.1.6)-1
; #@! TF.FileFunction,Plated,1,2,PTH
FMAT,2
INCH
T1C0.0157
T2C0.0236
T3C0.0315
T4C0.0394
T5C0.0433
T6C0.0512
T7C0.0866
T8C0.1181
T9C0.1260
%
G90
G05
T1
X3.9665Y-7.5394
X4.0846Y-7.5394
X4.2618Y-7.4902
X4.4085Y-7.7648
X4.4291Y-7.8839
X4.439Y-7.7362
X4.4587Y-8.2972
X4.4788Y-7.7072
X4.498Y-8.0896
X4.5079Y-8.2579
X4.5177Y-7.815
X4.5472Y-7.7362
X4.5472Y-7.7854
X4.5728Y-8.1299
X4.6063Y-8.1791
X4.6784Y-7.8108
X4.8425Y-7.3425
X4.8819Y-1.7579
X4.8819Y-1.8051
X4.8819Y-1.8563
X4.8819Y-1.9055
X4.9213Y-7.3425
X4.9409Y-3.9665
X4.9409Y-4.7539
X4.9409Y-5.5413
X5.1673Y-8.189
X5.2264Y-7.1457
X5.2461Y-1.6634
X5.2461Y-1.7126
X5.2461Y-1.8583
X5.247Y-1.9567
X5.3041Y-1.9065
X5.3543Y-7.6673
X5.4528Y-8.2087
X5.6201Y-1.7618
X5.6791Y-1.9783
X5.7283Y-3.9665
X5.7283Y-4.7539
X5.7283Y-5.5413
X5.7283Y-6.3287
X5.7382Y-1.7618
X5.7382Y-1.9488
X5.8957Y-1.9193
X5.9941Y-1.8898
X6.437Y-1.8307
X6.4961Y-1.9783
X6.5157Y-4.7539
X6.5157Y-5.5413
X6.7028Y-1.9783
X6.9291Y-5.9154
X6.9882Y-5.9154
X7.0276Y-3.9665
X7.2165Y-4.0374
X7.4213Y-1.6929
X7.4508Y-1.6634
X7.8051Y-4.7244
X8.1791Y-3.248
X8.2579Y-2.185
X10.0Y-1.7579
X10.0Y-1.8051
X10.0Y-1.8563
X10.0Y-1.9055
X10.0591Y-3.9665
X10.0591Y-4.7539
X10.0591Y-5.5413
X10.3642Y-1.6634
X10.3642Y-1.7126
X10.3642Y-1.8583
X10.3652Y-1.9567
X10.4222Y-1.9065
X10.4626Y-7.5394
X10.5807Y-7.5394
X10.7382Y-1.7618
X10.7579Y-7.4902
X10.7972Y-1.9783
X10.8465Y-3.9665
X10.8465Y-4.7539
X10.8465Y-5.5413
X10.8465Y-6.3287
X10.8563Y-1.7618
X10.8563Y-1.9488
X10.9045Y-7.7648
X10.9252Y-7.8839
X10.935Y-7.7362
X10.9547Y-8.2972
X10.9749Y-7.7072
X10.9941Y-8.0896
X11.0039Y-8.2579
X11.0138Y-1.9193
X11.0138Y-7.815
X11.0433Y-7.7362
X11.0433Y-7.7854
X11.0689Y-8.1299
X11.1024Y-8.1791
X11.1122Y-1.8898
X11.1744Y-7.8108
X11.3386Y-7.3425
X11.4173Y-7.3425
X11.5551Y-1.8307
X11.6142Y-1.9783
X11.6339Y-4.7539
X11.6339Y-5.5413
X11.6634Y-8.189
X11.7224Y-7.1457
X11.8209Y-1.9783
X11.8504Y-7.6673
X11.9488Y-8.2087
X12.0472Y-5.9154
X12.1063Y-5.9154
X12.1457Y-3.9665
X12.3346Y-4.0374
X12.5394Y-1.6929
X12.5689Y-1.6634
X12.9232Y-4.7244
X13.2972Y-3.248
X13.376Y-2.185
T3
X4.9705Y-7.9232
X4.9705Y-8.0232
X5.2705Y-7.9232
X5.2705Y-8.0232
X11.4665Y-7.9232
X11.4665Y-8.0232
X11.7665Y-7.9232
X11.7665Y-8.0232
X4.9705Y-7.6559
X4.9705Y-7.7559
X5.2705Y-7.6559
X5.2705Y-7.7559
X11.4665Y-7.6559
X11.4665Y-7.7559
X11.7665Y-7.6559
X11.7665Y-7.7559
T4
X5.2657Y-8.3071
X5.2657Y-8.4071
X5.2657Y-8.5071
X5.2657Y-8.6071
X11.7618Y-8.3071
X11.7618Y-8.4071
X11.7618Y-8.5071
X11.7618Y-8.6071
T5
X10.1476Y-7.0079
X10.1476Y-7.185
X10.4035Y-7.0079
X10.4035Y-7.185
X4.9902Y-8.5984
X11.4862Y-8.5984
X3.6516Y-7.0079
X3.6516Y-7.185
X3.9075Y-7.0079
X3.9075Y-7.185
T6
X13.2382Y-7.9661
X13.2382Y-8.1661
X13.2382Y-8.3661
X5.689Y-7.9724
X5.7677Y-7.7362
X5.7677Y-8.2087
X6.248Y-7.7362
X6.248Y-8.2087
X6.7421Y-7.3689
X6.7421Y-7.5689
X6.7421Y-7.7689
X12.185Y-7.2835
X12.2638Y-7.0472
X12.2638Y-7.5197
X12.7441Y-7.0472
X12.7441Y-7.5197
X5.689Y-7.2835
X5.7677Y-7.0472
X5.7677Y-7.5197
X6.248Y-7.0472
X6.248Y-7.5197
X13.2382Y-7.3689
X13.2382Y-7.5689
X13.2382Y-7.7689
X6.7421Y-7.9661
X6.7421Y-8.1661
X6.7421Y-8.3661
X12.185Y-7.9724
X12.2638Y-7.7362
X12.2638Y-8.2087
X12.7441Y-7.7362
X12.7441Y-8.2087
T7
X4.4469Y-8.7559
X5.061Y-8.7559
X10.9429Y-8.7559
X11.5571Y-8.7559
T8
X12.3327Y-2.1063
X4.2618Y-2.1063
X12.3327Y-3.3268
X7.2146Y-3.3268
X7.2146Y-2.1063
X4.2618Y-3.3268
X9.3799Y-2.1063
X9.3799Y-3.3268
T9
X9.8327Y-7.0866
X13.2579Y-7.0866
X6.7618Y-8.7402
X13.2579Y-8.7402
X3.3366Y-8.7402
X6.7618Y-7.0866
X9.8327Y-8.7402
X3.3366Y-7.0866
T2
G00X4.4469Y-8.4528
M15
G01X4.4469Y-8.3898
M16
G05
G00X4.6555Y-8.5118
M15
G01X4.6555Y-8.437
M16
G05
G00X4.7854Y-8.8346
M15
G01X4.7224Y-8.8346
M16
G05
G00X4.8524Y-8.5118
M15
G01X4.8524Y-8.437
M16
G05
G00X5.061Y-8.4528
M15
G01X5.061Y-8.3898
M16
G05
G00X10.9429Y-8.4528
M15
G01X10.9429Y-8.3898
M16
G05
G00X11.1516Y-8.5118
M15
G01X11.1516Y-8.437
M16
G05
G00X11.2815Y-8.8346
M15
G01X11.2185Y-8.8346
M16
G05
G00X11.3484Y-8.5118
M15
G01X11.3484Y-8.437
M16
G05
G00X11.5571Y-8.4528
M15
G01X11.5571Y-8.3898
M16
G05
T4
G00X10.374Y-8.5335
M15
G01X10.4724Y-8.5335
M16
G05
G00X10.3839Y-8.7697
M15
G01X10.4626Y-8.7697
M16
G05
G00X10.6083Y-8.6909
M15
G01X10.6083Y-8.6122
M16
G05
G00X3.878Y-8.5335
M15
G01X3.9764Y-8.5335
M16
G05
G00X3.8878Y-8.7697
M15
G01X3.9665Y-8.7697
M16
G05
G00X4.1122Y-8.6909
M15
G01X4.1122Y-8.6122
M16
G05
T0
M30
