G04 #@! TF.GenerationSoftware,KiCad,Pcbnew,(5.1.6)-1*
G04 #@! TF.CreationDate,2020-10-27T15:13:45-03:00*
G04 #@! TF.ProjectId,HMIconSTM32,484d4963-6f6e-4535-944d-33322e6b6963,v1.0*
G04 #@! TF.SameCoordinates,Original*
G04 #@! TF.FileFunction,Paste,Top*
G04 #@! TF.FilePolarity,Positive*
%FSLAX46Y46*%
G04 Gerber Fmt 4.6, Leading zero omitted, Abs format (unit mm)*
G04 Created by KiCad (PCBNEW (5.1.6)-1) date 2020-10-27 15:13:45*
%MOMM*%
%LPD*%
G01*
G04 APERTURE LIST*
%ADD10R,1.900000X1.300000*%
%ADD11R,1.400000X3.100000*%
%ADD12R,1.500000X3.400000*%
%ADD13R,2.300000X2.500000*%
%ADD14R,1.900000X2.600000*%
%ADD15R,1.100000X0.250000*%
%ADD16R,2.000000X1.500000*%
%ADD17R,2.000000X3.800000*%
%ADD18R,0.900000X0.800000*%
G04 APERTURE END LIST*
D10*
X102150000Y-57750000D03*
X102150000Y-52250000D03*
X105350000Y-52250000D03*
X105350000Y-57750000D03*
G36*
G01*
X88350000Y-62506250D02*
X88350000Y-61993750D01*
G75*
G02*
X88568750Y-61775000I218750J0D01*
G01*
X89006250Y-61775000D01*
G75*
G02*
X89225000Y-61993750I0J-218750D01*
G01*
X89225000Y-62506250D01*
G75*
G02*
X89006250Y-62725000I-218750J0D01*
G01*
X88568750Y-62725000D01*
G75*
G02*
X88350000Y-62506250I0J218750D01*
G01*
G37*
G36*
G01*
X86775000Y-62506250D02*
X86775000Y-61993750D01*
G75*
G02*
X86993750Y-61775000I218750J0D01*
G01*
X87431250Y-61775000D01*
G75*
G02*
X87650000Y-61993750I0J-218750D01*
G01*
X87650000Y-62506250D01*
G75*
G02*
X87431250Y-62725000I-218750J0D01*
G01*
X86993750Y-62725000D01*
G75*
G02*
X86775000Y-62506250I0J218750D01*
G01*
G37*
G36*
G01*
X87650000Y-59993750D02*
X87650000Y-60506250D01*
G75*
G02*
X87431250Y-60725000I-218750J0D01*
G01*
X86993750Y-60725000D01*
G75*
G02*
X86775000Y-60506250I0J218750D01*
G01*
X86775000Y-59993750D01*
G75*
G02*
X86993750Y-59775000I218750J0D01*
G01*
X87431250Y-59775000D01*
G75*
G02*
X87650000Y-59993750I0J-218750D01*
G01*
G37*
G36*
G01*
X89225000Y-59993750D02*
X89225000Y-60506250D01*
G75*
G02*
X89006250Y-60725000I-218750J0D01*
G01*
X88568750Y-60725000D01*
G75*
G02*
X88350000Y-60506250I0J218750D01*
G01*
X88350000Y-59993750D01*
G75*
G02*
X88568750Y-59775000I218750J0D01*
G01*
X89006250Y-59775000D01*
G75*
G02*
X89225000Y-59993750I0J-218750D01*
G01*
G37*
G36*
G01*
X92000000Y-70950000D02*
X92000000Y-72050000D01*
G75*
G02*
X91750000Y-72300000I-250000J0D01*
G01*
X89650000Y-72300000D01*
G75*
G02*
X89400000Y-72050000I0J250000D01*
G01*
X89400000Y-70950000D01*
G75*
G02*
X89650000Y-70700000I250000J0D01*
G01*
X91750000Y-70700000D01*
G75*
G02*
X92000000Y-70950000I0J-250000D01*
G01*
G37*
G36*
G01*
X95600000Y-70950000D02*
X95600000Y-72050000D01*
G75*
G02*
X95350000Y-72300000I-250000J0D01*
G01*
X93250000Y-72300000D01*
G75*
G02*
X93000000Y-72050000I0J250000D01*
G01*
X93000000Y-70950000D01*
G75*
G02*
X93250000Y-70700000I250000J0D01*
G01*
X95350000Y-70700000D01*
G75*
G02*
X95600000Y-70950000I0J-250000D01*
G01*
G37*
D11*
X107950000Y-52350000D03*
X118550000Y-52350000D03*
D12*
X110250000Y-58000000D03*
X112250000Y-58000000D03*
X114250000Y-58000000D03*
X116250000Y-58000000D03*
G36*
G01*
X107137500Y-66256250D02*
X107137500Y-65743750D01*
G75*
G02*
X107356250Y-65525000I218750J0D01*
G01*
X107793750Y-65525000D01*
G75*
G02*
X108012500Y-65743750I0J-218750D01*
G01*
X108012500Y-66256250D01*
G75*
G02*
X107793750Y-66475000I-218750J0D01*
G01*
X107356250Y-66475000D01*
G75*
G02*
X107137500Y-66256250I0J218750D01*
G01*
G37*
G36*
G01*
X105562500Y-66256250D02*
X105562500Y-65743750D01*
G75*
G02*
X105781250Y-65525000I218750J0D01*
G01*
X106218750Y-65525000D01*
G75*
G02*
X106437500Y-65743750I0J-218750D01*
G01*
X106437500Y-66256250D01*
G75*
G02*
X106218750Y-66475000I-218750J0D01*
G01*
X105781250Y-66475000D01*
G75*
G02*
X105562500Y-66256250I0J218750D01*
G01*
G37*
G36*
G01*
X106100000Y-78506250D02*
X106100000Y-77993750D01*
G75*
G02*
X106318750Y-77775000I218750J0D01*
G01*
X106756250Y-77775000D01*
G75*
G02*
X106975000Y-77993750I0J-218750D01*
G01*
X106975000Y-78506250D01*
G75*
G02*
X106756250Y-78725000I-218750J0D01*
G01*
X106318750Y-78725000D01*
G75*
G02*
X106100000Y-78506250I0J218750D01*
G01*
G37*
G36*
G01*
X104525000Y-78506250D02*
X104525000Y-77993750D01*
G75*
G02*
X104743750Y-77775000I218750J0D01*
G01*
X105181250Y-77775000D01*
G75*
G02*
X105400000Y-77993750I0J-218750D01*
G01*
X105400000Y-78506250D01*
G75*
G02*
X105181250Y-78725000I-218750J0D01*
G01*
X104743750Y-78725000D01*
G75*
G02*
X104525000Y-78506250I0J218750D01*
G01*
G37*
G36*
G01*
X98650000Y-65743750D02*
X98650000Y-66256250D01*
G75*
G02*
X98431250Y-66475000I-218750J0D01*
G01*
X97993750Y-66475000D01*
G75*
G02*
X97775000Y-66256250I0J218750D01*
G01*
X97775000Y-65743750D01*
G75*
G02*
X97993750Y-65525000I218750J0D01*
G01*
X98431250Y-65525000D01*
G75*
G02*
X98650000Y-65743750I0J-218750D01*
G01*
G37*
G36*
G01*
X100225000Y-65743750D02*
X100225000Y-66256250D01*
G75*
G02*
X100006250Y-66475000I-218750J0D01*
G01*
X99568750Y-66475000D01*
G75*
G02*
X99350000Y-66256250I0J218750D01*
G01*
X99350000Y-65743750D01*
G75*
G02*
X99568750Y-65525000I218750J0D01*
G01*
X100006250Y-65525000D01*
G75*
G02*
X100225000Y-65743750I0J-218750D01*
G01*
G37*
G36*
G01*
X105750000Y-69100000D02*
X107075000Y-69100000D01*
G75*
G02*
X107150000Y-69175000I0J-75000D01*
G01*
X107150000Y-69325000D01*
G75*
G02*
X107075000Y-69400000I-75000J0D01*
G01*
X105750000Y-69400000D01*
G75*
G02*
X105675000Y-69325000I0J75000D01*
G01*
X105675000Y-69175000D01*
G75*
G02*
X105750000Y-69100000I75000J0D01*
G01*
G37*
G36*
G01*
X105750000Y-69600000D02*
X107075000Y-69600000D01*
G75*
G02*
X107150000Y-69675000I0J-75000D01*
G01*
X107150000Y-69825000D01*
G75*
G02*
X107075000Y-69900000I-75000J0D01*
G01*
X105750000Y-69900000D01*
G75*
G02*
X105675000Y-69825000I0J75000D01*
G01*
X105675000Y-69675000D01*
G75*
G02*
X105750000Y-69600000I75000J0D01*
G01*
G37*
G36*
G01*
X105750000Y-70100000D02*
X107075000Y-70100000D01*
G75*
G02*
X107150000Y-70175000I0J-75000D01*
G01*
X107150000Y-70325000D01*
G75*
G02*
X107075000Y-70400000I-75000J0D01*
G01*
X105750000Y-70400000D01*
G75*
G02*
X105675000Y-70325000I0J75000D01*
G01*
X105675000Y-70175000D01*
G75*
G02*
X105750000Y-70100000I75000J0D01*
G01*
G37*
G36*
G01*
X105750000Y-70600000D02*
X107075000Y-70600000D01*
G75*
G02*
X107150000Y-70675000I0J-75000D01*
G01*
X107150000Y-70825000D01*
G75*
G02*
X107075000Y-70900000I-75000J0D01*
G01*
X105750000Y-70900000D01*
G75*
G02*
X105675000Y-70825000I0J75000D01*
G01*
X105675000Y-70675000D01*
G75*
G02*
X105750000Y-70600000I75000J0D01*
G01*
G37*
G36*
G01*
X105750000Y-71100000D02*
X107075000Y-71100000D01*
G75*
G02*
X107150000Y-71175000I0J-75000D01*
G01*
X107150000Y-71325000D01*
G75*
G02*
X107075000Y-71400000I-75000J0D01*
G01*
X105750000Y-71400000D01*
G75*
G02*
X105675000Y-71325000I0J75000D01*
G01*
X105675000Y-71175000D01*
G75*
G02*
X105750000Y-71100000I75000J0D01*
G01*
G37*
G36*
G01*
X105750000Y-71600000D02*
X107075000Y-71600000D01*
G75*
G02*
X107150000Y-71675000I0J-75000D01*
G01*
X107150000Y-71825000D01*
G75*
G02*
X107075000Y-71900000I-75000J0D01*
G01*
X105750000Y-71900000D01*
G75*
G02*
X105675000Y-71825000I0J75000D01*
G01*
X105675000Y-71675000D01*
G75*
G02*
X105750000Y-71600000I75000J0D01*
G01*
G37*
G36*
G01*
X105750000Y-72100000D02*
X107075000Y-72100000D01*
G75*
G02*
X107150000Y-72175000I0J-75000D01*
G01*
X107150000Y-72325000D01*
G75*
G02*
X107075000Y-72400000I-75000J0D01*
G01*
X105750000Y-72400000D01*
G75*
G02*
X105675000Y-72325000I0J75000D01*
G01*
X105675000Y-72175000D01*
G75*
G02*
X105750000Y-72100000I75000J0D01*
G01*
G37*
G36*
G01*
X105750000Y-72600000D02*
X107075000Y-72600000D01*
G75*
G02*
X107150000Y-72675000I0J-75000D01*
G01*
X107150000Y-72825000D01*
G75*
G02*
X107075000Y-72900000I-75000J0D01*
G01*
X105750000Y-72900000D01*
G75*
G02*
X105675000Y-72825000I0J75000D01*
G01*
X105675000Y-72675000D01*
G75*
G02*
X105750000Y-72600000I75000J0D01*
G01*
G37*
G36*
G01*
X105750000Y-73100000D02*
X107075000Y-73100000D01*
G75*
G02*
X107150000Y-73175000I0J-75000D01*
G01*
X107150000Y-73325000D01*
G75*
G02*
X107075000Y-73400000I-75000J0D01*
G01*
X105750000Y-73400000D01*
G75*
G02*
X105675000Y-73325000I0J75000D01*
G01*
X105675000Y-73175000D01*
G75*
G02*
X105750000Y-73100000I75000J0D01*
G01*
G37*
G36*
G01*
X105750000Y-73600000D02*
X107075000Y-73600000D01*
G75*
G02*
X107150000Y-73675000I0J-75000D01*
G01*
X107150000Y-73825000D01*
G75*
G02*
X107075000Y-73900000I-75000J0D01*
G01*
X105750000Y-73900000D01*
G75*
G02*
X105675000Y-73825000I0J75000D01*
G01*
X105675000Y-73675000D01*
G75*
G02*
X105750000Y-73600000I75000J0D01*
G01*
G37*
G36*
G01*
X105750000Y-74100000D02*
X107075000Y-74100000D01*
G75*
G02*
X107150000Y-74175000I0J-75000D01*
G01*
X107150000Y-74325000D01*
G75*
G02*
X107075000Y-74400000I-75000J0D01*
G01*
X105750000Y-74400000D01*
G75*
G02*
X105675000Y-74325000I0J75000D01*
G01*
X105675000Y-74175000D01*
G75*
G02*
X105750000Y-74100000I75000J0D01*
G01*
G37*
G36*
G01*
X105750000Y-74600000D02*
X107075000Y-74600000D01*
G75*
G02*
X107150000Y-74675000I0J-75000D01*
G01*
X107150000Y-74825000D01*
G75*
G02*
X107075000Y-74900000I-75000J0D01*
G01*
X105750000Y-74900000D01*
G75*
G02*
X105675000Y-74825000I0J75000D01*
G01*
X105675000Y-74675000D01*
G75*
G02*
X105750000Y-74600000I75000J0D01*
G01*
G37*
G36*
G01*
X104925000Y-75425000D02*
X105075000Y-75425000D01*
G75*
G02*
X105150000Y-75500000I0J-75000D01*
G01*
X105150000Y-76825000D01*
G75*
G02*
X105075000Y-76900000I-75000J0D01*
G01*
X104925000Y-76900000D01*
G75*
G02*
X104850000Y-76825000I0J75000D01*
G01*
X104850000Y-75500000D01*
G75*
G02*
X104925000Y-75425000I75000J0D01*
G01*
G37*
G36*
G01*
X104425000Y-75425000D02*
X104575000Y-75425000D01*
G75*
G02*
X104650000Y-75500000I0J-75000D01*
G01*
X104650000Y-76825000D01*
G75*
G02*
X104575000Y-76900000I-75000J0D01*
G01*
X104425000Y-76900000D01*
G75*
G02*
X104350000Y-76825000I0J75000D01*
G01*
X104350000Y-75500000D01*
G75*
G02*
X104425000Y-75425000I75000J0D01*
G01*
G37*
G36*
G01*
X103925000Y-75425000D02*
X104075000Y-75425000D01*
G75*
G02*
X104150000Y-75500000I0J-75000D01*
G01*
X104150000Y-76825000D01*
G75*
G02*
X104075000Y-76900000I-75000J0D01*
G01*
X103925000Y-76900000D01*
G75*
G02*
X103850000Y-76825000I0J75000D01*
G01*
X103850000Y-75500000D01*
G75*
G02*
X103925000Y-75425000I75000J0D01*
G01*
G37*
G36*
G01*
X103425000Y-75425000D02*
X103575000Y-75425000D01*
G75*
G02*
X103650000Y-75500000I0J-75000D01*
G01*
X103650000Y-76825000D01*
G75*
G02*
X103575000Y-76900000I-75000J0D01*
G01*
X103425000Y-76900000D01*
G75*
G02*
X103350000Y-76825000I0J75000D01*
G01*
X103350000Y-75500000D01*
G75*
G02*
X103425000Y-75425000I75000J0D01*
G01*
G37*
G36*
G01*
X102925000Y-75425000D02*
X103075000Y-75425000D01*
G75*
G02*
X103150000Y-75500000I0J-75000D01*
G01*
X103150000Y-76825000D01*
G75*
G02*
X103075000Y-76900000I-75000J0D01*
G01*
X102925000Y-76900000D01*
G75*
G02*
X102850000Y-76825000I0J75000D01*
G01*
X102850000Y-75500000D01*
G75*
G02*
X102925000Y-75425000I75000J0D01*
G01*
G37*
G36*
G01*
X102425000Y-75425000D02*
X102575000Y-75425000D01*
G75*
G02*
X102650000Y-75500000I0J-75000D01*
G01*
X102650000Y-76825000D01*
G75*
G02*
X102575000Y-76900000I-75000J0D01*
G01*
X102425000Y-76900000D01*
G75*
G02*
X102350000Y-76825000I0J75000D01*
G01*
X102350000Y-75500000D01*
G75*
G02*
X102425000Y-75425000I75000J0D01*
G01*
G37*
G36*
G01*
X101925000Y-75425000D02*
X102075000Y-75425000D01*
G75*
G02*
X102150000Y-75500000I0J-75000D01*
G01*
X102150000Y-76825000D01*
G75*
G02*
X102075000Y-76900000I-75000J0D01*
G01*
X101925000Y-76900000D01*
G75*
G02*
X101850000Y-76825000I0J75000D01*
G01*
X101850000Y-75500000D01*
G75*
G02*
X101925000Y-75425000I75000J0D01*
G01*
G37*
G36*
G01*
X101425000Y-75425000D02*
X101575000Y-75425000D01*
G75*
G02*
X101650000Y-75500000I0J-75000D01*
G01*
X101650000Y-76825000D01*
G75*
G02*
X101575000Y-76900000I-75000J0D01*
G01*
X101425000Y-76900000D01*
G75*
G02*
X101350000Y-76825000I0J75000D01*
G01*
X101350000Y-75500000D01*
G75*
G02*
X101425000Y-75425000I75000J0D01*
G01*
G37*
G36*
G01*
X100925000Y-75425000D02*
X101075000Y-75425000D01*
G75*
G02*
X101150000Y-75500000I0J-75000D01*
G01*
X101150000Y-76825000D01*
G75*
G02*
X101075000Y-76900000I-75000J0D01*
G01*
X100925000Y-76900000D01*
G75*
G02*
X100850000Y-76825000I0J75000D01*
G01*
X100850000Y-75500000D01*
G75*
G02*
X100925000Y-75425000I75000J0D01*
G01*
G37*
G36*
G01*
X100425000Y-75425000D02*
X100575000Y-75425000D01*
G75*
G02*
X100650000Y-75500000I0J-75000D01*
G01*
X100650000Y-76825000D01*
G75*
G02*
X100575000Y-76900000I-75000J0D01*
G01*
X100425000Y-76900000D01*
G75*
G02*
X100350000Y-76825000I0J75000D01*
G01*
X100350000Y-75500000D01*
G75*
G02*
X100425000Y-75425000I75000J0D01*
G01*
G37*
G36*
G01*
X99925000Y-75425000D02*
X100075000Y-75425000D01*
G75*
G02*
X100150000Y-75500000I0J-75000D01*
G01*
X100150000Y-76825000D01*
G75*
G02*
X100075000Y-76900000I-75000J0D01*
G01*
X99925000Y-76900000D01*
G75*
G02*
X99850000Y-76825000I0J75000D01*
G01*
X99850000Y-75500000D01*
G75*
G02*
X99925000Y-75425000I75000J0D01*
G01*
G37*
G36*
G01*
X99425000Y-75425000D02*
X99575000Y-75425000D01*
G75*
G02*
X99650000Y-75500000I0J-75000D01*
G01*
X99650000Y-76825000D01*
G75*
G02*
X99575000Y-76900000I-75000J0D01*
G01*
X99425000Y-76900000D01*
G75*
G02*
X99350000Y-76825000I0J75000D01*
G01*
X99350000Y-75500000D01*
G75*
G02*
X99425000Y-75425000I75000J0D01*
G01*
G37*
G36*
G01*
X97425000Y-74600000D02*
X98750000Y-74600000D01*
G75*
G02*
X98825000Y-74675000I0J-75000D01*
G01*
X98825000Y-74825000D01*
G75*
G02*
X98750000Y-74900000I-75000J0D01*
G01*
X97425000Y-74900000D01*
G75*
G02*
X97350000Y-74825000I0J75000D01*
G01*
X97350000Y-74675000D01*
G75*
G02*
X97425000Y-74600000I75000J0D01*
G01*
G37*
G36*
G01*
X97425000Y-74100000D02*
X98750000Y-74100000D01*
G75*
G02*
X98825000Y-74175000I0J-75000D01*
G01*
X98825000Y-74325000D01*
G75*
G02*
X98750000Y-74400000I-75000J0D01*
G01*
X97425000Y-74400000D01*
G75*
G02*
X97350000Y-74325000I0J75000D01*
G01*
X97350000Y-74175000D01*
G75*
G02*
X97425000Y-74100000I75000J0D01*
G01*
G37*
G36*
G01*
X97425000Y-73600000D02*
X98750000Y-73600000D01*
G75*
G02*
X98825000Y-73675000I0J-75000D01*
G01*
X98825000Y-73825000D01*
G75*
G02*
X98750000Y-73900000I-75000J0D01*
G01*
X97425000Y-73900000D01*
G75*
G02*
X97350000Y-73825000I0J75000D01*
G01*
X97350000Y-73675000D01*
G75*
G02*
X97425000Y-73600000I75000J0D01*
G01*
G37*
G36*
G01*
X97425000Y-73100000D02*
X98750000Y-73100000D01*
G75*
G02*
X98825000Y-73175000I0J-75000D01*
G01*
X98825000Y-73325000D01*
G75*
G02*
X98750000Y-73400000I-75000J0D01*
G01*
X97425000Y-73400000D01*
G75*
G02*
X97350000Y-73325000I0J75000D01*
G01*
X97350000Y-73175000D01*
G75*
G02*
X97425000Y-73100000I75000J0D01*
G01*
G37*
G36*
G01*
X97425000Y-72600000D02*
X98750000Y-72600000D01*
G75*
G02*
X98825000Y-72675000I0J-75000D01*
G01*
X98825000Y-72825000D01*
G75*
G02*
X98750000Y-72900000I-75000J0D01*
G01*
X97425000Y-72900000D01*
G75*
G02*
X97350000Y-72825000I0J75000D01*
G01*
X97350000Y-72675000D01*
G75*
G02*
X97425000Y-72600000I75000J0D01*
G01*
G37*
G36*
G01*
X97425000Y-72100000D02*
X98750000Y-72100000D01*
G75*
G02*
X98825000Y-72175000I0J-75000D01*
G01*
X98825000Y-72325000D01*
G75*
G02*
X98750000Y-72400000I-75000J0D01*
G01*
X97425000Y-72400000D01*
G75*
G02*
X97350000Y-72325000I0J75000D01*
G01*
X97350000Y-72175000D01*
G75*
G02*
X97425000Y-72100000I75000J0D01*
G01*
G37*
G36*
G01*
X97425000Y-71600000D02*
X98750000Y-71600000D01*
G75*
G02*
X98825000Y-71675000I0J-75000D01*
G01*
X98825000Y-71825000D01*
G75*
G02*
X98750000Y-71900000I-75000J0D01*
G01*
X97425000Y-71900000D01*
G75*
G02*
X97350000Y-71825000I0J75000D01*
G01*
X97350000Y-71675000D01*
G75*
G02*
X97425000Y-71600000I75000J0D01*
G01*
G37*
G36*
G01*
X97425000Y-71100000D02*
X98750000Y-71100000D01*
G75*
G02*
X98825000Y-71175000I0J-75000D01*
G01*
X98825000Y-71325000D01*
G75*
G02*
X98750000Y-71400000I-75000J0D01*
G01*
X97425000Y-71400000D01*
G75*
G02*
X97350000Y-71325000I0J75000D01*
G01*
X97350000Y-71175000D01*
G75*
G02*
X97425000Y-71100000I75000J0D01*
G01*
G37*
G36*
G01*
X97425000Y-70600000D02*
X98750000Y-70600000D01*
G75*
G02*
X98825000Y-70675000I0J-75000D01*
G01*
X98825000Y-70825000D01*
G75*
G02*
X98750000Y-70900000I-75000J0D01*
G01*
X97425000Y-70900000D01*
G75*
G02*
X97350000Y-70825000I0J75000D01*
G01*
X97350000Y-70675000D01*
G75*
G02*
X97425000Y-70600000I75000J0D01*
G01*
G37*
G36*
G01*
X97425000Y-70100000D02*
X98750000Y-70100000D01*
G75*
G02*
X98825000Y-70175000I0J-75000D01*
G01*
X98825000Y-70325000D01*
G75*
G02*
X98750000Y-70400000I-75000J0D01*
G01*
X97425000Y-70400000D01*
G75*
G02*
X97350000Y-70325000I0J75000D01*
G01*
X97350000Y-70175000D01*
G75*
G02*
X97425000Y-70100000I75000J0D01*
G01*
G37*
G36*
G01*
X97425000Y-69600000D02*
X98750000Y-69600000D01*
G75*
G02*
X98825000Y-69675000I0J-75000D01*
G01*
X98825000Y-69825000D01*
G75*
G02*
X98750000Y-69900000I-75000J0D01*
G01*
X97425000Y-69900000D01*
G75*
G02*
X97350000Y-69825000I0J75000D01*
G01*
X97350000Y-69675000D01*
G75*
G02*
X97425000Y-69600000I75000J0D01*
G01*
G37*
G36*
G01*
X97425000Y-69100000D02*
X98750000Y-69100000D01*
G75*
G02*
X98825000Y-69175000I0J-75000D01*
G01*
X98825000Y-69325000D01*
G75*
G02*
X98750000Y-69400000I-75000J0D01*
G01*
X97425000Y-69400000D01*
G75*
G02*
X97350000Y-69325000I0J75000D01*
G01*
X97350000Y-69175000D01*
G75*
G02*
X97425000Y-69100000I75000J0D01*
G01*
G37*
G36*
G01*
X99425000Y-67100000D02*
X99575000Y-67100000D01*
G75*
G02*
X99650000Y-67175000I0J-75000D01*
G01*
X99650000Y-68500000D01*
G75*
G02*
X99575000Y-68575000I-75000J0D01*
G01*
X99425000Y-68575000D01*
G75*
G02*
X99350000Y-68500000I0J75000D01*
G01*
X99350000Y-67175000D01*
G75*
G02*
X99425000Y-67100000I75000J0D01*
G01*
G37*
G36*
G01*
X99925000Y-67100000D02*
X100075000Y-67100000D01*
G75*
G02*
X100150000Y-67175000I0J-75000D01*
G01*
X100150000Y-68500000D01*
G75*
G02*
X100075000Y-68575000I-75000J0D01*
G01*
X99925000Y-68575000D01*
G75*
G02*
X99850000Y-68500000I0J75000D01*
G01*
X99850000Y-67175000D01*
G75*
G02*
X99925000Y-67100000I75000J0D01*
G01*
G37*
G36*
G01*
X100425000Y-67100000D02*
X100575000Y-67100000D01*
G75*
G02*
X100650000Y-67175000I0J-75000D01*
G01*
X100650000Y-68500000D01*
G75*
G02*
X100575000Y-68575000I-75000J0D01*
G01*
X100425000Y-68575000D01*
G75*
G02*
X100350000Y-68500000I0J75000D01*
G01*
X100350000Y-67175000D01*
G75*
G02*
X100425000Y-67100000I75000J0D01*
G01*
G37*
G36*
G01*
X100925000Y-67100000D02*
X101075000Y-67100000D01*
G75*
G02*
X101150000Y-67175000I0J-75000D01*
G01*
X101150000Y-68500000D01*
G75*
G02*
X101075000Y-68575000I-75000J0D01*
G01*
X100925000Y-68575000D01*
G75*
G02*
X100850000Y-68500000I0J75000D01*
G01*
X100850000Y-67175000D01*
G75*
G02*
X100925000Y-67100000I75000J0D01*
G01*
G37*
G36*
G01*
X101425000Y-67100000D02*
X101575000Y-67100000D01*
G75*
G02*
X101650000Y-67175000I0J-75000D01*
G01*
X101650000Y-68500000D01*
G75*
G02*
X101575000Y-68575000I-75000J0D01*
G01*
X101425000Y-68575000D01*
G75*
G02*
X101350000Y-68500000I0J75000D01*
G01*
X101350000Y-67175000D01*
G75*
G02*
X101425000Y-67100000I75000J0D01*
G01*
G37*
G36*
G01*
X101925000Y-67100000D02*
X102075000Y-67100000D01*
G75*
G02*
X102150000Y-67175000I0J-75000D01*
G01*
X102150000Y-68500000D01*
G75*
G02*
X102075000Y-68575000I-75000J0D01*
G01*
X101925000Y-68575000D01*
G75*
G02*
X101850000Y-68500000I0J75000D01*
G01*
X101850000Y-67175000D01*
G75*
G02*
X101925000Y-67100000I75000J0D01*
G01*
G37*
G36*
G01*
X102425000Y-67100000D02*
X102575000Y-67100000D01*
G75*
G02*
X102650000Y-67175000I0J-75000D01*
G01*
X102650000Y-68500000D01*
G75*
G02*
X102575000Y-68575000I-75000J0D01*
G01*
X102425000Y-68575000D01*
G75*
G02*
X102350000Y-68500000I0J75000D01*
G01*
X102350000Y-67175000D01*
G75*
G02*
X102425000Y-67100000I75000J0D01*
G01*
G37*
G36*
G01*
X102925000Y-67100000D02*
X103075000Y-67100000D01*
G75*
G02*
X103150000Y-67175000I0J-75000D01*
G01*
X103150000Y-68500000D01*
G75*
G02*
X103075000Y-68575000I-75000J0D01*
G01*
X102925000Y-68575000D01*
G75*
G02*
X102850000Y-68500000I0J75000D01*
G01*
X102850000Y-67175000D01*
G75*
G02*
X102925000Y-67100000I75000J0D01*
G01*
G37*
G36*
G01*
X103425000Y-67100000D02*
X103575000Y-67100000D01*
G75*
G02*
X103650000Y-67175000I0J-75000D01*
G01*
X103650000Y-68500000D01*
G75*
G02*
X103575000Y-68575000I-75000J0D01*
G01*
X103425000Y-68575000D01*
G75*
G02*
X103350000Y-68500000I0J75000D01*
G01*
X103350000Y-67175000D01*
G75*
G02*
X103425000Y-67100000I75000J0D01*
G01*
G37*
G36*
G01*
X103925000Y-67100000D02*
X104075000Y-67100000D01*
G75*
G02*
X104150000Y-67175000I0J-75000D01*
G01*
X104150000Y-68500000D01*
G75*
G02*
X104075000Y-68575000I-75000J0D01*
G01*
X103925000Y-68575000D01*
G75*
G02*
X103850000Y-68500000I0J75000D01*
G01*
X103850000Y-67175000D01*
G75*
G02*
X103925000Y-67100000I75000J0D01*
G01*
G37*
G36*
G01*
X104425000Y-67100000D02*
X104575000Y-67100000D01*
G75*
G02*
X104650000Y-67175000I0J-75000D01*
G01*
X104650000Y-68500000D01*
G75*
G02*
X104575000Y-68575000I-75000J0D01*
G01*
X104425000Y-68575000D01*
G75*
G02*
X104350000Y-68500000I0J75000D01*
G01*
X104350000Y-67175000D01*
G75*
G02*
X104425000Y-67100000I75000J0D01*
G01*
G37*
G36*
G01*
X104925000Y-67100000D02*
X105075000Y-67100000D01*
G75*
G02*
X105150000Y-67175000I0J-75000D01*
G01*
X105150000Y-68500000D01*
G75*
G02*
X105075000Y-68575000I-75000J0D01*
G01*
X104925000Y-68575000D01*
G75*
G02*
X104850000Y-68500000I0J75000D01*
G01*
X104850000Y-67175000D01*
G75*
G02*
X104925000Y-67100000I75000J0D01*
G01*
G37*
D13*
X127750000Y-78650000D03*
X127750000Y-74350000D03*
G36*
G01*
X110100000Y-77506250D02*
X110100000Y-76993750D01*
G75*
G02*
X110318750Y-76775000I218750J0D01*
G01*
X110756250Y-76775000D01*
G75*
G02*
X110975000Y-76993750I0J-218750D01*
G01*
X110975000Y-77506250D01*
G75*
G02*
X110756250Y-77725000I-218750J0D01*
G01*
X110318750Y-77725000D01*
G75*
G02*
X110100000Y-77506250I0J218750D01*
G01*
G37*
G36*
G01*
X108525000Y-77506250D02*
X108525000Y-76993750D01*
G75*
G02*
X108743750Y-76775000I218750J0D01*
G01*
X109181250Y-76775000D01*
G75*
G02*
X109400000Y-76993750I0J-218750D01*
G01*
X109400000Y-77506250D01*
G75*
G02*
X109181250Y-77725000I-218750J0D01*
G01*
X108743750Y-77725000D01*
G75*
G02*
X108525000Y-77506250I0J218750D01*
G01*
G37*
G36*
G01*
X110100000Y-75506250D02*
X110100000Y-74993750D01*
G75*
G02*
X110318750Y-74775000I218750J0D01*
G01*
X110756250Y-74775000D01*
G75*
G02*
X110975000Y-74993750I0J-218750D01*
G01*
X110975000Y-75506250D01*
G75*
G02*
X110756250Y-75725000I-218750J0D01*
G01*
X110318750Y-75725000D01*
G75*
G02*
X110100000Y-75506250I0J218750D01*
G01*
G37*
G36*
G01*
X108525000Y-75506250D02*
X108525000Y-74993750D01*
G75*
G02*
X108743750Y-74775000I218750J0D01*
G01*
X109181250Y-74775000D01*
G75*
G02*
X109400000Y-74993750I0J-218750D01*
G01*
X109400000Y-75506250D01*
G75*
G02*
X109181250Y-75725000I-218750J0D01*
G01*
X108743750Y-75725000D01*
G75*
G02*
X108525000Y-75506250I0J218750D01*
G01*
G37*
D14*
X93100000Y-55250000D03*
X97400000Y-55250000D03*
G36*
G01*
X94250000Y-80495000D02*
X94250000Y-80195000D01*
G75*
G02*
X94400000Y-80045000I150000J0D01*
G01*
X96050000Y-80045000D01*
G75*
G02*
X96200000Y-80195000I0J-150000D01*
G01*
X96200000Y-80495000D01*
G75*
G02*
X96050000Y-80645000I-150000J0D01*
G01*
X94400000Y-80645000D01*
G75*
G02*
X94250000Y-80495000I0J150000D01*
G01*
G37*
G36*
G01*
X94250000Y-81765000D02*
X94250000Y-81465000D01*
G75*
G02*
X94400000Y-81315000I150000J0D01*
G01*
X96050000Y-81315000D01*
G75*
G02*
X96200000Y-81465000I0J-150000D01*
G01*
X96200000Y-81765000D01*
G75*
G02*
X96050000Y-81915000I-150000J0D01*
G01*
X94400000Y-81915000D01*
G75*
G02*
X94250000Y-81765000I0J150000D01*
G01*
G37*
G36*
G01*
X94250000Y-83035000D02*
X94250000Y-82735000D01*
G75*
G02*
X94400000Y-82585000I150000J0D01*
G01*
X96050000Y-82585000D01*
G75*
G02*
X96200000Y-82735000I0J-150000D01*
G01*
X96200000Y-83035000D01*
G75*
G02*
X96050000Y-83185000I-150000J0D01*
G01*
X94400000Y-83185000D01*
G75*
G02*
X94250000Y-83035000I0J150000D01*
G01*
G37*
G36*
G01*
X94250000Y-84305000D02*
X94250000Y-84005000D01*
G75*
G02*
X94400000Y-83855000I150000J0D01*
G01*
X96050000Y-83855000D01*
G75*
G02*
X96200000Y-84005000I0J-150000D01*
G01*
X96200000Y-84305000D01*
G75*
G02*
X96050000Y-84455000I-150000J0D01*
G01*
X94400000Y-84455000D01*
G75*
G02*
X94250000Y-84305000I0J150000D01*
G01*
G37*
G36*
G01*
X89300000Y-84305000D02*
X89300000Y-84005000D01*
G75*
G02*
X89450000Y-83855000I150000J0D01*
G01*
X91100000Y-83855000D01*
G75*
G02*
X91250000Y-84005000I0J-150000D01*
G01*
X91250000Y-84305000D01*
G75*
G02*
X91100000Y-84455000I-150000J0D01*
G01*
X89450000Y-84455000D01*
G75*
G02*
X89300000Y-84305000I0J150000D01*
G01*
G37*
G36*
G01*
X89300000Y-83035000D02*
X89300000Y-82735000D01*
G75*
G02*
X89450000Y-82585000I150000J0D01*
G01*
X91100000Y-82585000D01*
G75*
G02*
X91250000Y-82735000I0J-150000D01*
G01*
X91250000Y-83035000D01*
G75*
G02*
X91100000Y-83185000I-150000J0D01*
G01*
X89450000Y-83185000D01*
G75*
G02*
X89300000Y-83035000I0J150000D01*
G01*
G37*
G36*
G01*
X89300000Y-81765000D02*
X89300000Y-81465000D01*
G75*
G02*
X89450000Y-81315000I150000J0D01*
G01*
X91100000Y-81315000D01*
G75*
G02*
X91250000Y-81465000I0J-150000D01*
G01*
X91250000Y-81765000D01*
G75*
G02*
X91100000Y-81915000I-150000J0D01*
G01*
X89450000Y-81915000D01*
G75*
G02*
X89300000Y-81765000I0J150000D01*
G01*
G37*
G36*
G01*
X89300000Y-80495000D02*
X89300000Y-80195000D01*
G75*
G02*
X89450000Y-80045000I150000J0D01*
G01*
X91100000Y-80045000D01*
G75*
G02*
X91250000Y-80195000I0J-150000D01*
G01*
X91250000Y-80495000D01*
G75*
G02*
X91100000Y-80645000I-150000J0D01*
G01*
X89450000Y-80645000D01*
G75*
G02*
X89300000Y-80495000I0J150000D01*
G01*
G37*
D15*
X107900000Y-80500000D03*
X107900000Y-81000000D03*
X107900000Y-81500000D03*
X107900000Y-82000000D03*
X107900000Y-82500000D03*
X103600000Y-82500000D03*
X103600000Y-82000000D03*
X103600000Y-81500000D03*
X103600000Y-81000000D03*
X103600000Y-80500000D03*
D16*
X79600000Y-73700000D03*
X79600000Y-78300000D03*
X79600000Y-76000000D03*
D17*
X85900000Y-76000000D03*
G36*
G01*
X120400000Y-79993750D02*
X120400000Y-80506250D01*
G75*
G02*
X120181250Y-80725000I-218750J0D01*
G01*
X119743750Y-80725000D01*
G75*
G02*
X119525000Y-80506250I0J218750D01*
G01*
X119525000Y-79993750D01*
G75*
G02*
X119743750Y-79775000I218750J0D01*
G01*
X120181250Y-79775000D01*
G75*
G02*
X120400000Y-79993750I0J-218750D01*
G01*
G37*
G36*
G01*
X121975000Y-79993750D02*
X121975000Y-80506250D01*
G75*
G02*
X121756250Y-80725000I-218750J0D01*
G01*
X121318750Y-80725000D01*
G75*
G02*
X121100000Y-80506250I0J218750D01*
G01*
X121100000Y-79993750D01*
G75*
G02*
X121318750Y-79775000I218750J0D01*
G01*
X121756250Y-79775000D01*
G75*
G02*
X121975000Y-79993750I0J-218750D01*
G01*
G37*
G36*
G01*
X121100000Y-64756250D02*
X121100000Y-64243750D01*
G75*
G02*
X121318750Y-64025000I218750J0D01*
G01*
X121756250Y-64025000D01*
G75*
G02*
X121975000Y-64243750I0J-218750D01*
G01*
X121975000Y-64756250D01*
G75*
G02*
X121756250Y-64975000I-218750J0D01*
G01*
X121318750Y-64975000D01*
G75*
G02*
X121100000Y-64756250I0J218750D01*
G01*
G37*
G36*
G01*
X119525000Y-64756250D02*
X119525000Y-64243750D01*
G75*
G02*
X119743750Y-64025000I218750J0D01*
G01*
X120181250Y-64025000D01*
G75*
G02*
X120400000Y-64243750I0J-218750D01*
G01*
X120400000Y-64756250D01*
G75*
G02*
X120181250Y-64975000I-218750J0D01*
G01*
X119743750Y-64975000D01*
G75*
G02*
X119525000Y-64756250I0J218750D01*
G01*
G37*
G36*
G01*
X100812500Y-82506250D02*
X100812500Y-81993750D01*
G75*
G02*
X101031250Y-81775000I218750J0D01*
G01*
X101468750Y-81775000D01*
G75*
G02*
X101687500Y-81993750I0J-218750D01*
G01*
X101687500Y-82506250D01*
G75*
G02*
X101468750Y-82725000I-218750J0D01*
G01*
X101031250Y-82725000D01*
G75*
G02*
X100812500Y-82506250I0J218750D01*
G01*
G37*
G36*
G01*
X99237500Y-82506250D02*
X99237500Y-81993750D01*
G75*
G02*
X99456250Y-81775000I218750J0D01*
G01*
X99893750Y-81775000D01*
G75*
G02*
X100112500Y-81993750I0J-218750D01*
G01*
X100112500Y-82506250D01*
G75*
G02*
X99893750Y-82725000I-218750J0D01*
G01*
X99456250Y-82725000D01*
G75*
G02*
X99237500Y-82506250I0J218750D01*
G01*
G37*
G36*
G01*
X100137500Y-80093750D02*
X100137500Y-80606250D01*
G75*
G02*
X99918750Y-80825000I-218750J0D01*
G01*
X99481250Y-80825000D01*
G75*
G02*
X99262500Y-80606250I0J218750D01*
G01*
X99262500Y-80093750D01*
G75*
G02*
X99481250Y-79875000I218750J0D01*
G01*
X99918750Y-79875000D01*
G75*
G02*
X100137500Y-80093750I0J-218750D01*
G01*
G37*
G36*
G01*
X101712500Y-80093750D02*
X101712500Y-80606250D01*
G75*
G02*
X101493750Y-80825000I-218750J0D01*
G01*
X101056250Y-80825000D01*
G75*
G02*
X100837500Y-80606250I0J218750D01*
G01*
X100837500Y-80093750D01*
G75*
G02*
X101056250Y-79875000I218750J0D01*
G01*
X101493750Y-79875000D01*
G75*
G02*
X101712500Y-80093750I0J-218750D01*
G01*
G37*
G36*
G01*
X109400000Y-70993750D02*
X109400000Y-71506250D01*
G75*
G02*
X109181250Y-71725000I-218750J0D01*
G01*
X108743750Y-71725000D01*
G75*
G02*
X108525000Y-71506250I0J218750D01*
G01*
X108525000Y-70993750D01*
G75*
G02*
X108743750Y-70775000I218750J0D01*
G01*
X109181250Y-70775000D01*
G75*
G02*
X109400000Y-70993750I0J-218750D01*
G01*
G37*
G36*
G01*
X110975000Y-70993750D02*
X110975000Y-71506250D01*
G75*
G02*
X110756250Y-71725000I-218750J0D01*
G01*
X110318750Y-71725000D01*
G75*
G02*
X110100000Y-71506250I0J218750D01*
G01*
X110100000Y-70993750D01*
G75*
G02*
X110318750Y-70775000I218750J0D01*
G01*
X110756250Y-70775000D01*
G75*
G02*
X110975000Y-70993750I0J-218750D01*
G01*
G37*
G36*
G01*
X109400000Y-72993750D02*
X109400000Y-73506250D01*
G75*
G02*
X109181250Y-73725000I-218750J0D01*
G01*
X108743750Y-73725000D01*
G75*
G02*
X108525000Y-73506250I0J218750D01*
G01*
X108525000Y-72993750D01*
G75*
G02*
X108743750Y-72775000I218750J0D01*
G01*
X109181250Y-72775000D01*
G75*
G02*
X109400000Y-72993750I0J-218750D01*
G01*
G37*
G36*
G01*
X110975000Y-72993750D02*
X110975000Y-73506250D01*
G75*
G02*
X110756250Y-73725000I-218750J0D01*
G01*
X110318750Y-73725000D01*
G75*
G02*
X110100000Y-73506250I0J218750D01*
G01*
X110100000Y-72993750D01*
G75*
G02*
X110318750Y-72775000I218750J0D01*
G01*
X110756250Y-72775000D01*
G75*
G02*
X110975000Y-72993750I0J-218750D01*
G01*
G37*
G36*
G01*
X109400000Y-61993750D02*
X109400000Y-62506250D01*
G75*
G02*
X109181250Y-62725000I-218750J0D01*
G01*
X108743750Y-62725000D01*
G75*
G02*
X108525000Y-62506250I0J218750D01*
G01*
X108525000Y-61993750D01*
G75*
G02*
X108743750Y-61775000I218750J0D01*
G01*
X109181250Y-61775000D01*
G75*
G02*
X109400000Y-61993750I0J-218750D01*
G01*
G37*
G36*
G01*
X110975000Y-61993750D02*
X110975000Y-62506250D01*
G75*
G02*
X110756250Y-62725000I-218750J0D01*
G01*
X110318750Y-62725000D01*
G75*
G02*
X110100000Y-62506250I0J218750D01*
G01*
X110100000Y-61993750D01*
G75*
G02*
X110318750Y-61775000I218750J0D01*
G01*
X110756250Y-61775000D01*
G75*
G02*
X110975000Y-61993750I0J-218750D01*
G01*
G37*
G36*
G01*
X94900000Y-63993750D02*
X94900000Y-64506250D01*
G75*
G02*
X94681250Y-64725000I-218750J0D01*
G01*
X94243750Y-64725000D01*
G75*
G02*
X94025000Y-64506250I0J218750D01*
G01*
X94025000Y-63993750D01*
G75*
G02*
X94243750Y-63775000I218750J0D01*
G01*
X94681250Y-63775000D01*
G75*
G02*
X94900000Y-63993750I0J-218750D01*
G01*
G37*
G36*
G01*
X96475000Y-63993750D02*
X96475000Y-64506250D01*
G75*
G02*
X96256250Y-64725000I-218750J0D01*
G01*
X95818750Y-64725000D01*
G75*
G02*
X95600000Y-64506250I0J218750D01*
G01*
X95600000Y-63993750D01*
G75*
G02*
X95818750Y-63775000I218750J0D01*
G01*
X96256250Y-63775000D01*
G75*
G02*
X96475000Y-63993750I0J-218750D01*
G01*
G37*
G36*
G01*
X109400000Y-63993750D02*
X109400000Y-64506250D01*
G75*
G02*
X109181250Y-64725000I-218750J0D01*
G01*
X108743750Y-64725000D01*
G75*
G02*
X108525000Y-64506250I0J218750D01*
G01*
X108525000Y-63993750D01*
G75*
G02*
X108743750Y-63775000I218750J0D01*
G01*
X109181250Y-63775000D01*
G75*
G02*
X109400000Y-63993750I0J-218750D01*
G01*
G37*
G36*
G01*
X110975000Y-63993750D02*
X110975000Y-64506250D01*
G75*
G02*
X110756250Y-64725000I-218750J0D01*
G01*
X110318750Y-64725000D01*
G75*
G02*
X110100000Y-64506250I0J218750D01*
G01*
X110100000Y-63993750D01*
G75*
G02*
X110318750Y-63775000I218750J0D01*
G01*
X110756250Y-63775000D01*
G75*
G02*
X110975000Y-63993750I0J-218750D01*
G01*
G37*
D18*
X128750000Y-69500000D03*
X126750000Y-70450000D03*
X126750000Y-68550000D03*
X128750000Y-65750000D03*
X126750000Y-66700000D03*
X126750000Y-64800000D03*
D13*
X127750000Y-61150000D03*
X127750000Y-56850000D03*
G36*
G01*
X114550000Y-61543750D02*
X114550000Y-62456250D01*
G75*
G02*
X114306250Y-62700000I-243750J0D01*
G01*
X113818750Y-62700000D01*
G75*
G02*
X113575000Y-62456250I0J243750D01*
G01*
X113575000Y-61543750D01*
G75*
G02*
X113818750Y-61300000I243750J0D01*
G01*
X114306250Y-61300000D01*
G75*
G02*
X114550000Y-61543750I0J-243750D01*
G01*
G37*
G36*
G01*
X116425000Y-61543750D02*
X116425000Y-62456250D01*
G75*
G02*
X116181250Y-62700000I-243750J0D01*
G01*
X115693750Y-62700000D01*
G75*
G02*
X115450000Y-62456250I0J243750D01*
G01*
X115450000Y-61543750D01*
G75*
G02*
X115693750Y-61300000I243750J0D01*
G01*
X116181250Y-61300000D01*
G75*
G02*
X116425000Y-61543750I0J-243750D01*
G01*
G37*
G36*
G01*
X114550000Y-63993750D02*
X114550000Y-64906250D01*
G75*
G02*
X114306250Y-65150000I-243750J0D01*
G01*
X113818750Y-65150000D01*
G75*
G02*
X113575000Y-64906250I0J243750D01*
G01*
X113575000Y-63993750D01*
G75*
G02*
X113818750Y-63750000I243750J0D01*
G01*
X114306250Y-63750000D01*
G75*
G02*
X114550000Y-63993750I0J-243750D01*
G01*
G37*
G36*
G01*
X116425000Y-63993750D02*
X116425000Y-64906250D01*
G75*
G02*
X116181250Y-65150000I-243750J0D01*
G01*
X115693750Y-65150000D01*
G75*
G02*
X115450000Y-64906250I0J243750D01*
G01*
X115450000Y-63993750D01*
G75*
G02*
X115693750Y-63750000I243750J0D01*
G01*
X116181250Y-63750000D01*
G75*
G02*
X116425000Y-63993750I0J-243750D01*
G01*
G37*
G36*
G01*
X94900000Y-78493750D02*
X94900000Y-79006250D01*
G75*
G02*
X94681250Y-79225000I-218750J0D01*
G01*
X94243750Y-79225000D01*
G75*
G02*
X94025000Y-79006250I0J218750D01*
G01*
X94025000Y-78493750D01*
G75*
G02*
X94243750Y-78275000I218750J0D01*
G01*
X94681250Y-78275000D01*
G75*
G02*
X94900000Y-78493750I0J-218750D01*
G01*
G37*
G36*
G01*
X96475000Y-78493750D02*
X96475000Y-79006250D01*
G75*
G02*
X96256250Y-79225000I-218750J0D01*
G01*
X95818750Y-79225000D01*
G75*
G02*
X95600000Y-79006250I0J218750D01*
G01*
X95600000Y-78493750D01*
G75*
G02*
X95818750Y-78275000I218750J0D01*
G01*
X96256250Y-78275000D01*
G75*
G02*
X96475000Y-78493750I0J-218750D01*
G01*
G37*
G36*
G01*
X110600000Y-81756250D02*
X110600000Y-81243750D01*
G75*
G02*
X110818750Y-81025000I218750J0D01*
G01*
X111256250Y-81025000D01*
G75*
G02*
X111475000Y-81243750I0J-218750D01*
G01*
X111475000Y-81756250D01*
G75*
G02*
X111256250Y-81975000I-218750J0D01*
G01*
X110818750Y-81975000D01*
G75*
G02*
X110600000Y-81756250I0J218750D01*
G01*
G37*
G36*
G01*
X109025000Y-81756250D02*
X109025000Y-81243750D01*
G75*
G02*
X109243750Y-81025000I218750J0D01*
G01*
X109681250Y-81025000D01*
G75*
G02*
X109900000Y-81243750I0J-218750D01*
G01*
X109900000Y-81756250D01*
G75*
G02*
X109681250Y-81975000I-218750J0D01*
G01*
X109243750Y-81975000D01*
G75*
G02*
X109025000Y-81756250I0J218750D01*
G01*
G37*
G36*
G01*
X110100000Y-69506250D02*
X110100000Y-68993750D01*
G75*
G02*
X110318750Y-68775000I218750J0D01*
G01*
X110756250Y-68775000D01*
G75*
G02*
X110975000Y-68993750I0J-218750D01*
G01*
X110975000Y-69506250D01*
G75*
G02*
X110756250Y-69725000I-218750J0D01*
G01*
X110318750Y-69725000D01*
G75*
G02*
X110100000Y-69506250I0J218750D01*
G01*
G37*
G36*
G01*
X108525000Y-69506250D02*
X108525000Y-68993750D01*
G75*
G02*
X108743750Y-68775000I218750J0D01*
G01*
X109181250Y-68775000D01*
G75*
G02*
X109400000Y-68993750I0J-218750D01*
G01*
X109400000Y-69506250D01*
G75*
G02*
X109181250Y-69725000I-218750J0D01*
G01*
X108743750Y-69725000D01*
G75*
G02*
X108525000Y-69506250I0J218750D01*
G01*
G37*
G36*
G01*
X94900000Y-74493750D02*
X94900000Y-75006250D01*
G75*
G02*
X94681250Y-75225000I-218750J0D01*
G01*
X94243750Y-75225000D01*
G75*
G02*
X94025000Y-75006250I0J218750D01*
G01*
X94025000Y-74493750D01*
G75*
G02*
X94243750Y-74275000I218750J0D01*
G01*
X94681250Y-74275000D01*
G75*
G02*
X94900000Y-74493750I0J-218750D01*
G01*
G37*
G36*
G01*
X96475000Y-74493750D02*
X96475000Y-75006250D01*
G75*
G02*
X96256250Y-75225000I-218750J0D01*
G01*
X95818750Y-75225000D01*
G75*
G02*
X95600000Y-75006250I0J218750D01*
G01*
X95600000Y-74493750D01*
G75*
G02*
X95818750Y-74275000I218750J0D01*
G01*
X96256250Y-74275000D01*
G75*
G02*
X96475000Y-74493750I0J-218750D01*
G01*
G37*
G36*
G01*
X103400000Y-61993750D02*
X103400000Y-62506250D01*
G75*
G02*
X103181250Y-62725000I-218750J0D01*
G01*
X102743750Y-62725000D01*
G75*
G02*
X102525000Y-62506250I0J218750D01*
G01*
X102525000Y-61993750D01*
G75*
G02*
X102743750Y-61775000I218750J0D01*
G01*
X103181250Y-61775000D01*
G75*
G02*
X103400000Y-61993750I0J-218750D01*
G01*
G37*
G36*
G01*
X104975000Y-61993750D02*
X104975000Y-62506250D01*
G75*
G02*
X104756250Y-62725000I-218750J0D01*
G01*
X104318750Y-62725000D01*
G75*
G02*
X104100000Y-62506250I0J218750D01*
G01*
X104100000Y-61993750D01*
G75*
G02*
X104318750Y-61775000I218750J0D01*
G01*
X104756250Y-61775000D01*
G75*
G02*
X104975000Y-61993750I0J-218750D01*
G01*
G37*
G36*
G01*
X104100000Y-60506250D02*
X104100000Y-59993750D01*
G75*
G02*
X104318750Y-59775000I218750J0D01*
G01*
X104756250Y-59775000D01*
G75*
G02*
X104975000Y-59993750I0J-218750D01*
G01*
X104975000Y-60506250D01*
G75*
G02*
X104756250Y-60725000I-218750J0D01*
G01*
X104318750Y-60725000D01*
G75*
G02*
X104100000Y-60506250I0J218750D01*
G01*
G37*
G36*
G01*
X102525000Y-60506250D02*
X102525000Y-59993750D01*
G75*
G02*
X102743750Y-59775000I218750J0D01*
G01*
X103181250Y-59775000D01*
G75*
G02*
X103400000Y-59993750I0J-218750D01*
G01*
X103400000Y-60506250D01*
G75*
G02*
X103181250Y-60725000I-218750J0D01*
G01*
X102743750Y-60725000D01*
G75*
G02*
X102525000Y-60506250I0J218750D01*
G01*
G37*
G36*
G01*
X94900000Y-61993750D02*
X94900000Y-62506250D01*
G75*
G02*
X94681250Y-62725000I-218750J0D01*
G01*
X94243750Y-62725000D01*
G75*
G02*
X94025000Y-62506250I0J218750D01*
G01*
X94025000Y-61993750D01*
G75*
G02*
X94243750Y-61775000I218750J0D01*
G01*
X94681250Y-61775000D01*
G75*
G02*
X94900000Y-61993750I0J-218750D01*
G01*
G37*
G36*
G01*
X96475000Y-61993750D02*
X96475000Y-62506250D01*
G75*
G02*
X96256250Y-62725000I-218750J0D01*
G01*
X95818750Y-62725000D01*
G75*
G02*
X95600000Y-62506250I0J218750D01*
G01*
X95600000Y-61993750D01*
G75*
G02*
X95818750Y-61775000I218750J0D01*
G01*
X96256250Y-61775000D01*
G75*
G02*
X96475000Y-61993750I0J-218750D01*
G01*
G37*
G36*
G01*
X95600000Y-60506250D02*
X95600000Y-59993750D01*
G75*
G02*
X95818750Y-59775000I218750J0D01*
G01*
X96256250Y-59775000D01*
G75*
G02*
X96475000Y-59993750I0J-218750D01*
G01*
X96475000Y-60506250D01*
G75*
G02*
X96256250Y-60725000I-218750J0D01*
G01*
X95818750Y-60725000D01*
G75*
G02*
X95600000Y-60506250I0J218750D01*
G01*
G37*
G36*
G01*
X94025000Y-60506250D02*
X94025000Y-59993750D01*
G75*
G02*
X94243750Y-59775000I218750J0D01*
G01*
X94681250Y-59775000D01*
G75*
G02*
X94900000Y-59993750I0J-218750D01*
G01*
X94900000Y-60506250D01*
G75*
G02*
X94681250Y-60725000I-218750J0D01*
G01*
X94243750Y-60725000D01*
G75*
G02*
X94025000Y-60506250I0J218750D01*
G01*
G37*
G36*
G01*
X76000000Y-63750000D02*
X76000000Y-65750000D01*
G75*
G02*
X75750000Y-66000000I-250000J0D01*
G01*
X71850000Y-66000000D01*
G75*
G02*
X71600000Y-65750000I0J250000D01*
G01*
X71600000Y-63750000D01*
G75*
G02*
X71850000Y-63500000I250000J0D01*
G01*
X75750000Y-63500000D01*
G75*
G02*
X76000000Y-63750000I0J-250000D01*
G01*
G37*
G36*
G01*
X84400000Y-63750000D02*
X84400000Y-65750000D01*
G75*
G02*
X84150000Y-66000000I-250000J0D01*
G01*
X80250000Y-66000000D01*
G75*
G02*
X80000000Y-65750000I0J250000D01*
G01*
X80000000Y-63750000D01*
G75*
G02*
X80250000Y-63500000I250000J0D01*
G01*
X84150000Y-63500000D01*
G75*
G02*
X84400000Y-63750000I0J-250000D01*
G01*
G37*
G36*
G01*
X73900000Y-75743750D02*
X73900000Y-76256250D01*
G75*
G02*
X73681250Y-76475000I-218750J0D01*
G01*
X73243750Y-76475000D01*
G75*
G02*
X73025000Y-76256250I0J218750D01*
G01*
X73025000Y-75743750D01*
G75*
G02*
X73243750Y-75525000I218750J0D01*
G01*
X73681250Y-75525000D01*
G75*
G02*
X73900000Y-75743750I0J-218750D01*
G01*
G37*
G36*
G01*
X75475000Y-75743750D02*
X75475000Y-76256250D01*
G75*
G02*
X75256250Y-76475000I-218750J0D01*
G01*
X74818750Y-76475000D01*
G75*
G02*
X74600000Y-76256250I0J218750D01*
G01*
X74600000Y-75743750D01*
G75*
G02*
X74818750Y-75525000I218750J0D01*
G01*
X75256250Y-75525000D01*
G75*
G02*
X75475000Y-75743750I0J-218750D01*
G01*
G37*
G36*
G01*
X73900000Y-77993750D02*
X73900000Y-78506250D01*
G75*
G02*
X73681250Y-78725000I-218750J0D01*
G01*
X73243750Y-78725000D01*
G75*
G02*
X73025000Y-78506250I0J218750D01*
G01*
X73025000Y-77993750D01*
G75*
G02*
X73243750Y-77775000I218750J0D01*
G01*
X73681250Y-77775000D01*
G75*
G02*
X73900000Y-77993750I0J-218750D01*
G01*
G37*
G36*
G01*
X75475000Y-77993750D02*
X75475000Y-78506250D01*
G75*
G02*
X75256250Y-78725000I-218750J0D01*
G01*
X74818750Y-78725000D01*
G75*
G02*
X74600000Y-78506250I0J218750D01*
G01*
X74600000Y-77993750D01*
G75*
G02*
X74818750Y-77775000I218750J0D01*
G01*
X75256250Y-77775000D01*
G75*
G02*
X75475000Y-77993750I0J-218750D01*
G01*
G37*
G36*
G01*
X76050000Y-84750000D02*
X76050000Y-86750000D01*
G75*
G02*
X75800000Y-87000000I-250000J0D01*
G01*
X71900000Y-87000000D01*
G75*
G02*
X71650000Y-86750000I0J250000D01*
G01*
X71650000Y-84750000D01*
G75*
G02*
X71900000Y-84500000I250000J0D01*
G01*
X75800000Y-84500000D01*
G75*
G02*
X76050000Y-84750000I0J-250000D01*
G01*
G37*
G36*
G01*
X83450000Y-84750000D02*
X83450000Y-86750000D01*
G75*
G02*
X83200000Y-87000000I-250000J0D01*
G01*
X79300000Y-87000000D01*
G75*
G02*
X79050000Y-86750000I0J250000D01*
G01*
X79050000Y-84750000D01*
G75*
G02*
X79300000Y-84500000I250000J0D01*
G01*
X83200000Y-84500000D01*
G75*
G02*
X83450000Y-84750000I0J-250000D01*
G01*
G37*
M02*
