M48
; DRILL file {KiCad (5.1.6)-1} date 10/27/20 15:13:50
; FORMAT={-:-/ absolute / inch / decimal}
; #@! TF.CreationDate,2020-10-27T15:13:50-03:00
; #@! TF.GenerationSoftware,Kicad,Pcbnew,(5.1.6)-1
; #@! TF.FileFunction,Plated,1,2,PTH
FMAT,2
INCH
T1C0.0157
T2C0.0236
T3C0.0315
T4C0.0394
T5C0.0433
T6C0.0512
T7C0.0866
T8C0.1260
%
G90
G05
T1
X3.5433Y-2.5787
X3.6614Y-2.5787
X3.8386Y-2.5295
X3.9852Y-2.8041
X4.0059Y-2.9232
X4.0157Y-2.7756
X4.0354Y-3.3366
X4.0556Y-2.7466
X4.0748Y-3.1289
X4.0846Y-3.2972
X4.0945Y-2.8543
X4.124Y-2.7756
X4.124Y-2.8248
X4.1496Y-3.1693
X4.1831Y-3.2185
X4.2551Y-2.8502
X4.4193Y-2.3819
X4.498Y-2.3819
X4.7441Y-3.2283
X4.8031Y-2.185
X4.9311Y-2.7067
X5.0295Y-3.248
T3
X4.5472Y-2.6953
X4.5472Y-2.7953
X4.8472Y-2.6953
X4.8472Y-2.7953
X4.5472Y-2.9626
X4.5472Y-3.0626
X4.8472Y-2.9626
X4.8472Y-3.0626
T4
X4.8425Y-3.3465
X4.8425Y-3.4465
X4.8425Y-3.5465
X4.8425Y-3.6465
T5
X4.5669Y-3.6378
X3.2283Y-2.0472
X3.2283Y-2.2244
X3.4843Y-2.0472
X3.4843Y-2.2244
T6
X6.3189Y-2.4083
X6.3189Y-2.6083
X6.3189Y-2.8083
X5.2657Y-2.3228
X5.3445Y-2.0866
X5.3445Y-2.5591
X5.8248Y-2.0866
X5.8248Y-2.5591
X5.2657Y-3.0118
X5.3445Y-2.7756
X5.3445Y-3.248
X5.8248Y-2.7756
X5.8248Y-3.248
X6.3189Y-3.0055
X6.3189Y-3.2055
X6.3189Y-3.4055
T7
X4.0236Y-3.7953
X4.6378Y-3.7953
T8
X6.3386Y-3.7795
X2.9134Y-3.7795
X6.3386Y-2.126
X2.9134Y-2.126
T2
G00X4.0236Y-3.4921
M15
G01X4.0236Y-3.4291
M16
G05
G00X4.2323Y-3.5512
M15
G01X4.2323Y-3.4764
M16
G05
G00X4.3622Y-3.874
M15
G01X4.2992Y-3.874
M16
G05
G00X4.4291Y-3.5512
M15
G01X4.4291Y-3.4764
M16
G05
G00X4.6378Y-3.4921
M15
G01X4.6378Y-3.4291
M16
G05
T4
G00X3.4547Y-3.5728
M15
G01X3.5531Y-3.5728
M16
G05
G00X3.4646Y-3.8091
M15
G01X3.5433Y-3.8091
M16
G05
G00X3.689Y-3.7303
M15
G01X3.689Y-3.6516
M16
G05
T0
M30
