G04 #@! TF.GenerationSoftware,KiCad,Pcbnew,(5.1.6)-1*
G04 #@! TF.CreationDate,2020-10-27T15:13:45-03:00*
G04 #@! TF.ProjectId,HMIconSTM32,484d4963-6f6e-4535-944d-33322e6b6963,v1.0*
G04 #@! TF.SameCoordinates,Original*
G04 #@! TF.FileFunction,Soldermask,Bot*
G04 #@! TF.FilePolarity,Negative*
%FSLAX46Y46*%
G04 Gerber Fmt 4.6, Leading zero omitted, Abs format (unit mm)*
G04 Created by KiCad (PCBNEW (5.1.6)-1) date 2020-10-27 15:13:45*
%MOMM*%
%LPD*%
G01*
G04 APERTURE LIST*
%ADD10C,0.100000*%
G04 APERTURE END LIST*
D10*
G36*
X110960442Y-97505518D02*
G01*
X111026627Y-97512037D01*
X111196466Y-97563557D01*
X111352991Y-97647222D01*
X111388729Y-97676552D01*
X111490186Y-97759814D01*
X111573448Y-97861271D01*
X111602778Y-97897009D01*
X111686443Y-98053534D01*
X111737963Y-98223373D01*
X111755359Y-98400000D01*
X111737963Y-98576627D01*
X111686443Y-98746466D01*
X111602778Y-98902991D01*
X111573448Y-98938729D01*
X111490186Y-99040186D01*
X111388729Y-99123448D01*
X111352991Y-99152778D01*
X111196466Y-99236443D01*
X111026627Y-99287963D01*
X110960443Y-99294481D01*
X110894260Y-99301000D01*
X109105740Y-99301000D01*
X109039558Y-99294482D01*
X108973373Y-99287963D01*
X108803534Y-99236443D01*
X108647009Y-99152778D01*
X108611271Y-99123448D01*
X108509814Y-99040186D01*
X108426552Y-98938729D01*
X108397222Y-98902991D01*
X108313557Y-98746466D01*
X108262037Y-98576627D01*
X108244641Y-98400000D01*
X108262037Y-98223373D01*
X108313557Y-98053534D01*
X108397222Y-97897009D01*
X108426552Y-97861271D01*
X108509814Y-97759814D01*
X108611271Y-97676552D01*
X108647009Y-97647222D01*
X108803534Y-97563557D01*
X108973373Y-97512037D01*
X109039557Y-97505519D01*
X109105740Y-97499000D01*
X110894260Y-97499000D01*
X110960442Y-97505518D01*
G37*
G36*
X161634239Y-92811467D02*
G01*
X161948282Y-92873934D01*
X162539926Y-93119001D01*
X163072392Y-93474784D01*
X163525216Y-93927608D01*
X163880999Y-94460074D01*
X164126066Y-95051718D01*
X164146441Y-95154149D01*
X164237945Y-95614169D01*
X164251000Y-95679804D01*
X164251000Y-96320196D01*
X164126066Y-96948282D01*
X163880999Y-97539926D01*
X163660326Y-97870186D01*
X163534165Y-98059000D01*
X163525216Y-98072392D01*
X163072392Y-98525216D01*
X162539926Y-98880999D01*
X161948282Y-99126066D01*
X161634239Y-99188533D01*
X161320197Y-99251000D01*
X160679803Y-99251000D01*
X160365761Y-99188533D01*
X160051718Y-99126066D01*
X159460074Y-98880999D01*
X158927608Y-98525216D01*
X158474784Y-98072392D01*
X158465836Y-98059000D01*
X158339674Y-97870186D01*
X158119001Y-97539926D01*
X157873934Y-96948282D01*
X157749000Y-96320196D01*
X157749000Y-95679804D01*
X157762056Y-95614169D01*
X157853559Y-95154149D01*
X157873934Y-95051718D01*
X158119001Y-94460074D01*
X158474784Y-93927608D01*
X158927608Y-93474784D01*
X159460074Y-93119001D01*
X160051718Y-92873934D01*
X160365761Y-92811467D01*
X160679803Y-92749000D01*
X161320197Y-92749000D01*
X161634239Y-92811467D01*
G37*
G36*
X74634239Y-92811467D02*
G01*
X74948282Y-92873934D01*
X75539926Y-93119001D01*
X76072392Y-93474784D01*
X76525216Y-93927608D01*
X76880999Y-94460074D01*
X77126066Y-95051718D01*
X77146441Y-95154149D01*
X77237945Y-95614169D01*
X77251000Y-95679804D01*
X77251000Y-96320196D01*
X77126066Y-96948282D01*
X76880999Y-97539926D01*
X76660326Y-97870186D01*
X76534165Y-98059000D01*
X76525216Y-98072392D01*
X76072392Y-98525216D01*
X75539926Y-98880999D01*
X74948282Y-99126066D01*
X74634239Y-99188533D01*
X74320197Y-99251000D01*
X73679803Y-99251000D01*
X73365761Y-99188533D01*
X73051718Y-99126066D01*
X72460074Y-98880999D01*
X71927608Y-98525216D01*
X71474784Y-98072392D01*
X71465836Y-98059000D01*
X71339674Y-97870186D01*
X71119001Y-97539926D01*
X70873934Y-96948282D01*
X70749000Y-96320196D01*
X70749000Y-95679804D01*
X70762056Y-95614169D01*
X70853559Y-95154149D01*
X70873934Y-95051718D01*
X71119001Y-94460074D01*
X71474784Y-93927608D01*
X71927608Y-93474784D01*
X72460074Y-93119001D01*
X73051718Y-92873934D01*
X73365761Y-92811467D01*
X73679803Y-92749000D01*
X74320197Y-92749000D01*
X74634239Y-92811467D01*
G37*
G36*
X118283911Y-94804754D02*
G01*
X118434871Y-94867284D01*
X118585831Y-94929813D01*
X118585832Y-94929814D01*
X118857548Y-95111368D01*
X119088632Y-95342452D01*
X119216368Y-95533624D01*
X119270187Y-95614169D01*
X119305325Y-95699000D01*
X119395246Y-95916089D01*
X119459000Y-96236601D01*
X119459000Y-96563399D01*
X119395246Y-96883911D01*
X119357783Y-96974354D01*
X119270187Y-97185831D01*
X119270186Y-97185832D01*
X119088632Y-97457548D01*
X118857548Y-97688632D01*
X118653761Y-97824798D01*
X118585831Y-97870187D01*
X118434871Y-97932716D01*
X118283911Y-97995246D01*
X117963399Y-98059000D01*
X117636601Y-98059000D01*
X117316089Y-97995246D01*
X117165128Y-97932716D01*
X117014169Y-97870187D01*
X116946239Y-97824798D01*
X116742452Y-97688632D01*
X116511368Y-97457548D01*
X116329814Y-97185832D01*
X116329813Y-97185831D01*
X116242217Y-96974354D01*
X116204754Y-96883911D01*
X116141000Y-96563399D01*
X116141000Y-96236601D01*
X116204754Y-95916089D01*
X116294675Y-95699000D01*
X116329813Y-95614169D01*
X116383632Y-95533624D01*
X116511368Y-95342452D01*
X116742452Y-95111368D01*
X117014168Y-94929814D01*
X117014169Y-94929813D01*
X117165129Y-94867284D01*
X117316089Y-94804754D01*
X117636601Y-94741000D01*
X117963399Y-94741000D01*
X118283911Y-94804754D01*
G37*
G36*
X102683911Y-94804754D02*
G01*
X102834871Y-94867284D01*
X102985831Y-94929813D01*
X102985832Y-94929814D01*
X103257548Y-95111368D01*
X103488632Y-95342452D01*
X103616368Y-95533624D01*
X103670187Y-95614169D01*
X103705325Y-95699000D01*
X103795246Y-95916089D01*
X103859000Y-96236601D01*
X103859000Y-96563399D01*
X103795246Y-96883911D01*
X103757783Y-96974354D01*
X103670187Y-97185831D01*
X103670186Y-97185832D01*
X103488632Y-97457548D01*
X103257548Y-97688632D01*
X103053761Y-97824798D01*
X102985831Y-97870187D01*
X102834871Y-97932716D01*
X102683911Y-97995246D01*
X102363399Y-98059000D01*
X102036601Y-98059000D01*
X101716089Y-97995246D01*
X101565128Y-97932716D01*
X101414169Y-97870187D01*
X101346239Y-97824798D01*
X101142452Y-97688632D01*
X100911368Y-97457548D01*
X100729814Y-97185832D01*
X100729813Y-97185831D01*
X100642217Y-96974354D01*
X100604754Y-96883911D01*
X100541000Y-96563399D01*
X100541000Y-96236601D01*
X100604754Y-95916089D01*
X100694675Y-95699000D01*
X100729813Y-95614169D01*
X100783632Y-95533624D01*
X100911368Y-95342452D01*
X101142452Y-95111368D01*
X101414168Y-94929814D01*
X101414169Y-94929813D01*
X101565129Y-94867284D01*
X101716089Y-94804754D01*
X102036601Y-94741000D01*
X102363399Y-94741000D01*
X102683911Y-94804754D01*
G37*
G36*
X90103097Y-95704069D02*
G01*
X90206032Y-95714207D01*
X90404146Y-95774305D01*
X90404149Y-95774306D01*
X90463603Y-95806085D01*
X90586729Y-95871897D01*
X90746765Y-96003235D01*
X90878103Y-96163271D01*
X90923939Y-96249025D01*
X90975694Y-96345851D01*
X90975695Y-96345854D01*
X91035793Y-96543968D01*
X91056085Y-96750000D01*
X91035793Y-96956032D01*
X90992165Y-97099852D01*
X90975694Y-97154149D01*
X90958759Y-97185832D01*
X90878103Y-97336729D01*
X90746765Y-97496765D01*
X90586729Y-97628103D01*
X90500975Y-97673939D01*
X90404149Y-97725694D01*
X90404146Y-97725695D01*
X90206032Y-97785793D01*
X90103097Y-97795931D01*
X90051631Y-97801000D01*
X87948369Y-97801000D01*
X87896903Y-97795931D01*
X87793968Y-97785793D01*
X87595854Y-97725695D01*
X87595851Y-97725694D01*
X87499025Y-97673939D01*
X87413271Y-97628103D01*
X87253235Y-97496765D01*
X87121897Y-97336729D01*
X87041241Y-97185832D01*
X87024306Y-97154149D01*
X87007835Y-97099852D01*
X86964207Y-96956032D01*
X86943915Y-96750000D01*
X86964207Y-96543968D01*
X87024305Y-96345854D01*
X87024306Y-96345851D01*
X87076061Y-96249025D01*
X87121897Y-96163271D01*
X87253235Y-96003235D01*
X87413271Y-95871897D01*
X87536397Y-95806085D01*
X87595851Y-95774306D01*
X87595854Y-95774305D01*
X87793968Y-95714207D01*
X87896903Y-95704069D01*
X87948369Y-95699000D01*
X90051631Y-95699000D01*
X90103097Y-95704069D01*
G37*
G36*
X107613512Y-95503927D02*
G01*
X107762812Y-95533624D01*
X107926784Y-95601544D01*
X108074354Y-95700147D01*
X108199853Y-95825646D01*
X108298456Y-95973216D01*
X108366376Y-96137188D01*
X108401000Y-96311259D01*
X108401000Y-96488741D01*
X108366376Y-96662812D01*
X108298456Y-96826784D01*
X108199853Y-96974354D01*
X108074354Y-97099853D01*
X107926784Y-97198456D01*
X107762812Y-97266376D01*
X107613512Y-97296073D01*
X107588742Y-97301000D01*
X107411258Y-97301000D01*
X107386488Y-97296073D01*
X107237188Y-97266376D01*
X107073216Y-97198456D01*
X106925646Y-97099853D01*
X106800147Y-96974354D01*
X106701544Y-96826784D01*
X106633624Y-96662812D01*
X106599000Y-96488741D01*
X106599000Y-96311259D01*
X106633624Y-96137188D01*
X106701544Y-95973216D01*
X106800147Y-95825646D01*
X106925646Y-95700147D01*
X107073216Y-95601544D01*
X107237188Y-95533624D01*
X107386488Y-95503927D01*
X107411258Y-95499000D01*
X107588742Y-95499000D01*
X107613512Y-95503927D01*
G37*
G36*
X112613512Y-95503927D02*
G01*
X112762812Y-95533624D01*
X112926784Y-95601544D01*
X113074354Y-95700147D01*
X113199853Y-95825646D01*
X113298456Y-95973216D01*
X113366376Y-96137188D01*
X113401000Y-96311259D01*
X113401000Y-96488741D01*
X113366376Y-96662812D01*
X113298456Y-96826784D01*
X113199853Y-96974354D01*
X113074354Y-97099853D01*
X112926784Y-97198456D01*
X112762812Y-97266376D01*
X112613512Y-97296073D01*
X112588742Y-97301000D01*
X112411258Y-97301000D01*
X112386488Y-97296073D01*
X112237188Y-97266376D01*
X112073216Y-97198456D01*
X111925646Y-97099853D01*
X111800147Y-96974354D01*
X111701544Y-96826784D01*
X111633624Y-96662812D01*
X111599000Y-96488741D01*
X111599000Y-96311259D01*
X111633624Y-96137188D01*
X111701544Y-95973216D01*
X111800147Y-95825646D01*
X111925646Y-95700147D01*
X112073216Y-95601544D01*
X112237188Y-95533624D01*
X112386488Y-95503927D01*
X112411258Y-95499000D01*
X112588742Y-95499000D01*
X112613512Y-95503927D01*
G37*
G36*
X93906032Y-91714207D02*
G01*
X94104146Y-91774305D01*
X94104149Y-91774306D01*
X94192525Y-91821544D01*
X94286729Y-91871897D01*
X94446765Y-92003235D01*
X94578103Y-92163271D01*
X94594110Y-92193218D01*
X94675694Y-92345851D01*
X94675695Y-92345854D01*
X94735793Y-92543968D01*
X94751000Y-92698370D01*
X94751000Y-94801630D01*
X94735793Y-94956032D01*
X94706766Y-95051719D01*
X94675694Y-95154149D01*
X94623939Y-95250975D01*
X94578103Y-95336729D01*
X94446765Y-95496765D01*
X94286729Y-95628103D01*
X94190004Y-95679803D01*
X94104148Y-95725694D01*
X94104145Y-95725695D01*
X93906031Y-95785793D01*
X93700000Y-95806085D01*
X93493968Y-95785793D01*
X93295854Y-95725695D01*
X93295851Y-95725694D01*
X93199025Y-95673939D01*
X93113271Y-95628103D01*
X92953235Y-95496765D01*
X92821897Y-95336729D01*
X92724307Y-95154149D01*
X92724306Y-95154148D01*
X92724305Y-95154145D01*
X92664207Y-94956031D01*
X92649000Y-94801629D01*
X92649001Y-92698370D01*
X92664208Y-92543968D01*
X92724306Y-92345854D01*
X92724307Y-92345851D01*
X92805891Y-92193218D01*
X92821898Y-92163271D01*
X92953236Y-92003235D01*
X93113272Y-91871897D01*
X93207476Y-91821544D01*
X93295852Y-91774306D01*
X93295855Y-91774305D01*
X93493969Y-91714207D01*
X93700000Y-91693915D01*
X93906032Y-91714207D01*
G37*
G36*
X123091587Y-91719566D02*
G01*
X123262812Y-91753624D01*
X123426784Y-91821544D01*
X123574354Y-91920147D01*
X123699853Y-92045646D01*
X123798456Y-92193216D01*
X123866376Y-92357188D01*
X123901000Y-92531259D01*
X123901000Y-92708741D01*
X123866376Y-92882812D01*
X123798456Y-93046784D01*
X123699853Y-93194354D01*
X123574354Y-93319853D01*
X123426784Y-93418456D01*
X123262812Y-93486376D01*
X123113512Y-93516073D01*
X123088742Y-93521000D01*
X122911258Y-93521000D01*
X122886488Y-93516073D01*
X122737188Y-93486376D01*
X122573216Y-93418456D01*
X122425646Y-93319853D01*
X122300147Y-93194354D01*
X122201544Y-93046784D01*
X122133624Y-92882812D01*
X122099000Y-92708741D01*
X122099000Y-92531259D01*
X122133624Y-92357188D01*
X122201544Y-92193216D01*
X122300147Y-92045646D01*
X122425646Y-91920147D01*
X122573216Y-91821544D01*
X122737188Y-91753624D01*
X122908413Y-91719566D01*
X122911258Y-91719000D01*
X123088742Y-91719000D01*
X123091587Y-91719566D01*
G37*
G36*
X116170899Y-91540832D02*
G01*
X116255520Y-91557664D01*
X116414942Y-91623699D01*
X116558418Y-91719566D01*
X116680434Y-91841582D01*
X116776301Y-91985058D01*
X116842336Y-92144480D01*
X116876000Y-92313721D01*
X116876000Y-92486279D01*
X116842336Y-92655520D01*
X116776301Y-92814942D01*
X116680434Y-92958418D01*
X116558418Y-93080434D01*
X116414942Y-93176301D01*
X116255520Y-93242336D01*
X116170899Y-93259168D01*
X116086280Y-93276000D01*
X115913720Y-93276000D01*
X115829101Y-93259168D01*
X115744480Y-93242336D01*
X115585058Y-93176301D01*
X115441582Y-93080434D01*
X115319566Y-92958418D01*
X115223699Y-92814942D01*
X115157664Y-92655520D01*
X115124000Y-92486279D01*
X115124000Y-92313721D01*
X115157664Y-92144480D01*
X115223699Y-91985058D01*
X115319566Y-91841582D01*
X115441582Y-91719566D01*
X115585058Y-91623699D01*
X115744480Y-91557664D01*
X115913720Y-91524000D01*
X116086280Y-91524000D01*
X116170899Y-91540832D01*
G37*
G36*
X90353097Y-89704069D02*
G01*
X90456032Y-89714207D01*
X90654146Y-89774305D01*
X90654149Y-89774306D01*
X90734375Y-89817188D01*
X90836729Y-89871897D01*
X90996765Y-90003235D01*
X91128103Y-90163271D01*
X91131027Y-90168742D01*
X91225694Y-90345851D01*
X91225695Y-90345854D01*
X91285793Y-90543968D01*
X91306085Y-90750000D01*
X91285793Y-90956032D01*
X91225695Y-91154146D01*
X91225694Y-91154149D01*
X91173939Y-91250975D01*
X91128103Y-91336729D01*
X90996765Y-91496765D01*
X90836729Y-91628103D01*
X90750975Y-91673939D01*
X90654149Y-91725694D01*
X90654146Y-91725695D01*
X90456032Y-91785793D01*
X90353097Y-91795931D01*
X90301631Y-91801000D01*
X87698369Y-91801000D01*
X87646903Y-91795931D01*
X87543968Y-91785793D01*
X87345854Y-91725695D01*
X87345851Y-91725694D01*
X87249025Y-91673939D01*
X87163271Y-91628103D01*
X87003235Y-91496765D01*
X86871897Y-91336729D01*
X86826061Y-91250975D01*
X86774306Y-91154149D01*
X86774305Y-91154146D01*
X86714207Y-90956032D01*
X86693915Y-90750000D01*
X86714207Y-90543968D01*
X86774305Y-90345854D01*
X86774306Y-90345851D01*
X86868973Y-90168742D01*
X86871897Y-90163271D01*
X87003235Y-90003235D01*
X87163271Y-89871897D01*
X87265625Y-89817188D01*
X87345851Y-89774306D01*
X87345854Y-89774305D01*
X87543968Y-89714207D01*
X87646903Y-89704069D01*
X87698369Y-89699000D01*
X90301631Y-89699000D01*
X90353097Y-89704069D01*
G37*
G36*
X107676627Y-87512037D02*
G01*
X107846466Y-87563557D01*
X108002991Y-87647222D01*
X108038729Y-87676552D01*
X108140186Y-87759814D01*
X108223448Y-87861271D01*
X108252778Y-87897009D01*
X108336443Y-88053534D01*
X108387963Y-88223373D01*
X108387963Y-88223375D01*
X108401000Y-88355740D01*
X108401000Y-90144260D01*
X108399127Y-90163272D01*
X108387963Y-90276627D01*
X108336443Y-90446466D01*
X108252778Y-90602991D01*
X108223448Y-90638729D01*
X108140186Y-90740186D01*
X108002989Y-90852779D01*
X107846467Y-90936442D01*
X107846465Y-90936443D01*
X107676626Y-90987963D01*
X107500000Y-91005359D01*
X107323373Y-90987963D01*
X107153534Y-90936443D01*
X106997009Y-90852778D01*
X106961271Y-90823448D01*
X106859814Y-90740186D01*
X106747221Y-90602989D01*
X106663558Y-90446467D01*
X106663557Y-90446465D01*
X106612037Y-90276626D01*
X106605518Y-90210441D01*
X106599000Y-90144259D01*
X106599001Y-88355740D01*
X106612038Y-88223375D01*
X106612038Y-88223373D01*
X106663558Y-88053534D01*
X106747223Y-87897009D01*
X106776553Y-87861271D01*
X106859815Y-87759814D01*
X106961272Y-87676552D01*
X106997010Y-87647222D01*
X107153535Y-87563557D01*
X107323374Y-87512037D01*
X107500000Y-87494641D01*
X107676627Y-87512037D01*
G37*
G36*
X112676627Y-87512037D02*
G01*
X112846466Y-87563557D01*
X113002991Y-87647222D01*
X113038729Y-87676552D01*
X113140186Y-87759814D01*
X113223448Y-87861271D01*
X113252778Y-87897009D01*
X113336443Y-88053534D01*
X113387963Y-88223373D01*
X113387963Y-88223375D01*
X113401000Y-88355740D01*
X113401000Y-90144260D01*
X113399127Y-90163272D01*
X113387963Y-90276627D01*
X113336443Y-90446466D01*
X113252778Y-90602991D01*
X113223448Y-90638729D01*
X113140186Y-90740186D01*
X113002989Y-90852779D01*
X112846467Y-90936442D01*
X112846465Y-90936443D01*
X112676626Y-90987963D01*
X112500000Y-91005359D01*
X112323373Y-90987963D01*
X112153534Y-90936443D01*
X111997009Y-90852778D01*
X111961271Y-90823448D01*
X111859814Y-90740186D01*
X111747221Y-90602989D01*
X111663558Y-90446467D01*
X111663557Y-90446465D01*
X111612037Y-90276626D01*
X111605518Y-90210441D01*
X111599000Y-90144259D01*
X111599001Y-88355740D01*
X111612038Y-88223375D01*
X111612038Y-88223373D01*
X111663558Y-88053534D01*
X111747223Y-87897009D01*
X111776553Y-87861271D01*
X111859815Y-87759814D01*
X111961272Y-87676552D01*
X111997010Y-87647222D01*
X112153535Y-87563557D01*
X112323374Y-87512037D01*
X112500000Y-87494641D01*
X112676627Y-87512037D01*
G37*
G36*
X123113512Y-89183927D02*
G01*
X123262812Y-89213624D01*
X123426784Y-89281544D01*
X123574354Y-89380147D01*
X123699853Y-89505646D01*
X123798456Y-89653216D01*
X123866376Y-89817188D01*
X123901000Y-89991259D01*
X123901000Y-90168741D01*
X123866376Y-90342812D01*
X123798456Y-90506784D01*
X123699853Y-90654354D01*
X123574354Y-90779853D01*
X123426784Y-90878456D01*
X123262812Y-90946376D01*
X123113512Y-90976073D01*
X123088742Y-90981000D01*
X122911258Y-90981000D01*
X122886488Y-90976073D01*
X122737188Y-90946376D01*
X122573216Y-90878456D01*
X122425646Y-90779853D01*
X122300147Y-90654354D01*
X122201544Y-90506784D01*
X122133624Y-90342812D01*
X122099000Y-90168741D01*
X122099000Y-89991259D01*
X122133624Y-89817188D01*
X122201544Y-89653216D01*
X122300147Y-89505646D01*
X122425646Y-89380147D01*
X122573216Y-89281544D01*
X122737188Y-89213624D01*
X122886488Y-89183927D01*
X122911258Y-89179000D01*
X123088742Y-89179000D01*
X123113512Y-89183927D01*
G37*
G36*
X117976627Y-86162037D02*
G01*
X118146466Y-86213557D01*
X118302991Y-86297222D01*
X118338729Y-86326552D01*
X118440186Y-86409814D01*
X118523448Y-86511271D01*
X118552778Y-86547009D01*
X118636443Y-86703534D01*
X118687963Y-86873373D01*
X118701000Y-87005742D01*
X118701000Y-88794258D01*
X118687963Y-88926627D01*
X118636443Y-89096466D01*
X118552778Y-89252991D01*
X118529345Y-89281544D01*
X118440186Y-89390186D01*
X118302989Y-89502779D01*
X118297623Y-89505647D01*
X118146465Y-89586443D01*
X117976626Y-89637963D01*
X117800000Y-89655359D01*
X117623373Y-89637963D01*
X117453534Y-89586443D01*
X117297009Y-89502778D01*
X117261271Y-89473448D01*
X117159814Y-89390186D01*
X117047221Y-89252989D01*
X116963558Y-89096467D01*
X116963557Y-89096465D01*
X116912037Y-88926626D01*
X116899000Y-88794257D01*
X116899001Y-87005742D01*
X116912038Y-86873373D01*
X116963558Y-86703534D01*
X117047223Y-86547009D01*
X117076553Y-86511271D01*
X117159815Y-86409814D01*
X117261272Y-86326552D01*
X117297010Y-86297222D01*
X117453535Y-86213557D01*
X117623374Y-86162037D01*
X117800000Y-86144641D01*
X117976627Y-86162037D01*
G37*
G36*
X102376627Y-86162037D02*
G01*
X102546466Y-86213557D01*
X102702991Y-86297222D01*
X102738729Y-86326552D01*
X102840186Y-86409814D01*
X102923448Y-86511271D01*
X102952778Y-86547009D01*
X103036443Y-86703534D01*
X103087963Y-86873373D01*
X103101000Y-87005742D01*
X103101000Y-88794258D01*
X103087963Y-88926627D01*
X103036443Y-89096466D01*
X102952778Y-89252991D01*
X102929345Y-89281544D01*
X102840186Y-89390186D01*
X102702989Y-89502779D01*
X102697623Y-89505647D01*
X102546465Y-89586443D01*
X102376626Y-89637963D01*
X102200000Y-89655359D01*
X102023373Y-89637963D01*
X101853534Y-89586443D01*
X101697009Y-89502778D01*
X101661271Y-89473448D01*
X101559814Y-89390186D01*
X101447221Y-89252989D01*
X101363558Y-89096467D01*
X101363557Y-89096465D01*
X101312037Y-88926626D01*
X101299000Y-88794257D01*
X101299001Y-87005742D01*
X101312038Y-86873373D01*
X101363558Y-86703534D01*
X101447223Y-86547009D01*
X101476553Y-86511271D01*
X101559815Y-86409814D01*
X101661272Y-86326552D01*
X101697010Y-86297222D01*
X101853535Y-86213557D01*
X102023374Y-86162037D01*
X102200000Y-86144641D01*
X102376627Y-86162037D01*
G37*
G36*
X123113512Y-86643927D02*
G01*
X123262812Y-86673624D01*
X123426784Y-86741544D01*
X123574354Y-86840147D01*
X123699853Y-86965646D01*
X123798456Y-87113216D01*
X123866376Y-87277188D01*
X123901000Y-87451259D01*
X123901000Y-87628741D01*
X123866376Y-87802812D01*
X123798456Y-87966784D01*
X123699853Y-88114354D01*
X123574354Y-88239853D01*
X123426784Y-88338456D01*
X123262812Y-88406376D01*
X123113512Y-88436073D01*
X123088742Y-88441000D01*
X122911258Y-88441000D01*
X122886488Y-88436073D01*
X122737188Y-88406376D01*
X122573216Y-88338456D01*
X122425646Y-88239853D01*
X122300147Y-88114354D01*
X122201544Y-87966784D01*
X122133624Y-87802812D01*
X122099000Y-87628741D01*
X122099000Y-87451259D01*
X122133624Y-87277188D01*
X122201544Y-87113216D01*
X122300147Y-86965646D01*
X122425646Y-86840147D01*
X122573216Y-86741544D01*
X122737188Y-86673624D01*
X122886488Y-86643927D01*
X122911258Y-86639000D01*
X123088742Y-86639000D01*
X123113512Y-86643927D01*
G37*
G36*
X162051000Y-88051000D02*
G01*
X158949000Y-88051000D01*
X158949000Y-84949000D01*
X162051000Y-84949000D01*
X162051000Y-88051000D01*
G37*
G36*
X123901000Y-85901000D02*
G01*
X122099000Y-85901000D01*
X122099000Y-84099000D01*
X123901000Y-84099000D01*
X123901000Y-85901000D01*
G37*
G36*
X148329487Y-81248996D02*
G01*
X148566253Y-81347068D01*
X148566255Y-81347069D01*
X148779339Y-81489447D01*
X148960553Y-81670661D01*
X149095357Y-81872409D01*
X149102932Y-81883747D01*
X149201004Y-82120513D01*
X149251000Y-82371861D01*
X149251000Y-82628139D01*
X149201004Y-82879487D01*
X149163098Y-82971000D01*
X149102931Y-83116255D01*
X148960553Y-83329339D01*
X148779339Y-83510553D01*
X148566255Y-83652931D01*
X148566254Y-83652932D01*
X148566253Y-83652932D01*
X148329487Y-83751004D01*
X148078139Y-83801000D01*
X147821861Y-83801000D01*
X147570513Y-83751004D01*
X147333747Y-83652932D01*
X147333746Y-83652932D01*
X147333745Y-83652931D01*
X147120661Y-83510553D01*
X146939447Y-83329339D01*
X146797069Y-83116255D01*
X146736902Y-82971000D01*
X146698996Y-82879487D01*
X146649000Y-82628139D01*
X146649000Y-82371861D01*
X146698996Y-82120513D01*
X146797068Y-81883747D01*
X146804644Y-81872409D01*
X146939447Y-81670661D01*
X147120661Y-81489447D01*
X147333745Y-81347069D01*
X147333747Y-81347068D01*
X147570513Y-81248996D01*
X147821861Y-81199000D01*
X148078139Y-81199000D01*
X148329487Y-81248996D01*
G37*
G36*
X136129487Y-81248996D02*
G01*
X136366253Y-81347068D01*
X136366255Y-81347069D01*
X136579339Y-81489447D01*
X136760553Y-81670661D01*
X136895357Y-81872409D01*
X136902932Y-81883747D01*
X137001004Y-82120513D01*
X137051000Y-82371861D01*
X137051000Y-82628139D01*
X137001004Y-82879487D01*
X136963098Y-82971000D01*
X136902931Y-83116255D01*
X136760553Y-83329339D01*
X136579339Y-83510553D01*
X136366255Y-83652931D01*
X136366254Y-83652932D01*
X136366253Y-83652932D01*
X136129487Y-83751004D01*
X135878139Y-83801000D01*
X135621861Y-83801000D01*
X135370513Y-83751004D01*
X135133747Y-83652932D01*
X135133746Y-83652932D01*
X135133745Y-83652931D01*
X134920661Y-83510553D01*
X134739447Y-83329339D01*
X134597069Y-83116255D01*
X134536902Y-82971000D01*
X134498996Y-82879487D01*
X134449000Y-82628139D01*
X134449000Y-82371861D01*
X134498996Y-82120513D01*
X134597068Y-81883747D01*
X134604644Y-81872409D01*
X134739447Y-81670661D01*
X134920661Y-81489447D01*
X135133745Y-81347069D01*
X135133747Y-81347068D01*
X135370513Y-81248996D01*
X135621861Y-81199000D01*
X135878139Y-81199000D01*
X136129487Y-81248996D01*
G37*
G36*
X160802585Y-79898802D02*
G01*
X160952410Y-79928604D01*
X161234674Y-80045521D01*
X161488705Y-80215259D01*
X161704741Y-80431295D01*
X161874479Y-80685326D01*
X161991396Y-80967590D01*
X162051000Y-81267240D01*
X162051000Y-81572760D01*
X161991396Y-81872410D01*
X161874479Y-82154674D01*
X161704741Y-82408705D01*
X161488705Y-82624741D01*
X161234674Y-82794479D01*
X160952410Y-82911396D01*
X160802585Y-82941198D01*
X160652761Y-82971000D01*
X160347239Y-82971000D01*
X160197415Y-82941198D01*
X160047590Y-82911396D01*
X159765326Y-82794479D01*
X159511295Y-82624741D01*
X159295259Y-82408705D01*
X159125521Y-82154674D01*
X159008604Y-81872410D01*
X158949000Y-81572760D01*
X158949000Y-81267240D01*
X159008604Y-80967590D01*
X159125521Y-80685326D01*
X159295259Y-80431295D01*
X159511295Y-80215259D01*
X159765326Y-80045521D01*
X160047590Y-79928604D01*
X160197415Y-79898802D01*
X160347239Y-79869000D01*
X160652761Y-79869000D01*
X160802585Y-79898802D01*
G37*
G36*
X115748228Y-76971703D02*
G01*
X115903100Y-77035853D01*
X116042481Y-77128985D01*
X116161015Y-77247519D01*
X116254147Y-77386900D01*
X116318297Y-77541772D01*
X116351000Y-77706184D01*
X116351000Y-77873816D01*
X116318297Y-78038228D01*
X116254147Y-78193100D01*
X116161015Y-78332481D01*
X116042481Y-78451015D01*
X115903100Y-78544147D01*
X115748228Y-78608297D01*
X115583816Y-78641000D01*
X115416184Y-78641000D01*
X115251772Y-78608297D01*
X115096900Y-78544147D01*
X114957519Y-78451015D01*
X114838985Y-78332481D01*
X114745853Y-78193100D01*
X114681703Y-78038228D01*
X114649000Y-77873816D01*
X114649000Y-77706184D01*
X114681703Y-77541772D01*
X114745853Y-77386900D01*
X114838985Y-77247519D01*
X114957519Y-77128985D01*
X115096900Y-77035853D01*
X115251772Y-76971703D01*
X115416184Y-76939000D01*
X115583816Y-76939000D01*
X115748228Y-76971703D01*
G37*
G36*
X123368228Y-76971703D02*
G01*
X123523100Y-77035853D01*
X123662481Y-77128985D01*
X123781015Y-77247519D01*
X123874147Y-77386900D01*
X123938297Y-77541772D01*
X123971000Y-77706184D01*
X123971000Y-77873816D01*
X123938297Y-78038228D01*
X123874147Y-78193100D01*
X123781015Y-78332481D01*
X123662481Y-78451015D01*
X123523100Y-78544147D01*
X123368228Y-78608297D01*
X123203816Y-78641000D01*
X123036184Y-78641000D01*
X122871772Y-78608297D01*
X122716900Y-78544147D01*
X122577519Y-78451015D01*
X122458985Y-78332481D01*
X122365853Y-78193100D01*
X122301703Y-78038228D01*
X122269000Y-77873816D01*
X122269000Y-77706184D01*
X122301703Y-77541772D01*
X122365853Y-77386900D01*
X122458985Y-77247519D01*
X122577519Y-77128985D01*
X122716900Y-77035853D01*
X122871772Y-76971703D01*
X123036184Y-76939000D01*
X123203816Y-76939000D01*
X123368228Y-76971703D01*
G37*
G36*
X160802585Y-74818802D02*
G01*
X160952410Y-74848604D01*
X161234674Y-74965521D01*
X161488705Y-75135259D01*
X161704741Y-75351295D01*
X161874479Y-75605326D01*
X161991396Y-75887590D01*
X162051000Y-76187240D01*
X162051000Y-76492760D01*
X161991396Y-76792410D01*
X161874479Y-77074674D01*
X161704741Y-77328705D01*
X161488705Y-77544741D01*
X161234674Y-77714479D01*
X160952410Y-77831396D01*
X160802585Y-77861198D01*
X160652761Y-77891000D01*
X160347239Y-77891000D01*
X160197415Y-77861198D01*
X160047590Y-77831396D01*
X159765326Y-77714479D01*
X159511295Y-77544741D01*
X159295259Y-77328705D01*
X159125521Y-77074674D01*
X159008604Y-76792410D01*
X158949000Y-76492760D01*
X158949000Y-76187240D01*
X159008604Y-75887590D01*
X159125521Y-75605326D01*
X159295259Y-75351295D01*
X159511295Y-75135259D01*
X159765326Y-74965521D01*
X160047590Y-74848604D01*
X160197415Y-74818802D01*
X160347239Y-74789000D01*
X160652761Y-74789000D01*
X160802585Y-74818802D01*
G37*
G36*
X135051000Y-77801000D02*
G01*
X132449000Y-77801000D01*
X132449000Y-75199000D01*
X135051000Y-75199000D01*
X135051000Y-77801000D01*
G37*
G36*
X123368228Y-74431703D02*
G01*
X123523100Y-74495853D01*
X123662481Y-74588985D01*
X123781015Y-74707519D01*
X123874147Y-74846900D01*
X123938297Y-75001772D01*
X123971000Y-75166184D01*
X123971000Y-75333816D01*
X123938297Y-75498228D01*
X123874147Y-75653100D01*
X123781015Y-75792481D01*
X123662481Y-75911015D01*
X123523100Y-76004147D01*
X123368228Y-76068297D01*
X123203816Y-76101000D01*
X123036184Y-76101000D01*
X122871772Y-76068297D01*
X122716900Y-76004147D01*
X122577519Y-75911015D01*
X122458985Y-75792481D01*
X122365853Y-75653100D01*
X122301703Y-75498228D01*
X122269000Y-75333816D01*
X122269000Y-75166184D01*
X122301703Y-75001772D01*
X122365853Y-74846900D01*
X122458985Y-74707519D01*
X122577519Y-74588985D01*
X122716900Y-74495853D01*
X122871772Y-74431703D01*
X123036184Y-74399000D01*
X123203816Y-74399000D01*
X123368228Y-74431703D01*
G37*
G36*
X116351000Y-76101000D02*
G01*
X114649000Y-76101000D01*
X114649000Y-74399000D01*
X116351000Y-74399000D01*
X116351000Y-76101000D01*
G37*
G36*
X162051000Y-72881000D02*
G01*
X158949000Y-72881000D01*
X158949000Y-69779000D01*
X162051000Y-69779000D01*
X162051000Y-72881000D01*
G37*
G36*
X115748228Y-70181703D02*
G01*
X115903100Y-70245853D01*
X116042481Y-70338985D01*
X116161015Y-70457519D01*
X116254147Y-70596900D01*
X116318297Y-70751772D01*
X116351000Y-70916184D01*
X116351000Y-71083816D01*
X116318297Y-71248228D01*
X116254147Y-71403100D01*
X116161015Y-71542481D01*
X116042481Y-71661015D01*
X115903100Y-71754147D01*
X115748228Y-71818297D01*
X115583816Y-71851000D01*
X115416184Y-71851000D01*
X115251772Y-71818297D01*
X115096900Y-71754147D01*
X114957519Y-71661015D01*
X114838985Y-71542481D01*
X114745853Y-71403100D01*
X114681703Y-71248228D01*
X114649000Y-71083816D01*
X114649000Y-70916184D01*
X114681703Y-70751772D01*
X114745853Y-70596900D01*
X114838985Y-70457519D01*
X114957519Y-70338985D01*
X115096900Y-70245853D01*
X115251772Y-70181703D01*
X115416184Y-70149000D01*
X115583816Y-70149000D01*
X115748228Y-70181703D01*
G37*
G36*
X123368228Y-70181703D02*
G01*
X123523100Y-70245853D01*
X123662481Y-70338985D01*
X123781015Y-70457519D01*
X123874147Y-70596900D01*
X123938297Y-70751772D01*
X123971000Y-70916184D01*
X123971000Y-71083816D01*
X123938297Y-71248228D01*
X123874147Y-71403100D01*
X123781015Y-71542481D01*
X123662481Y-71661015D01*
X123523100Y-71754147D01*
X123368228Y-71818297D01*
X123203816Y-71851000D01*
X123036184Y-71851000D01*
X122871772Y-71818297D01*
X122716900Y-71754147D01*
X122577519Y-71661015D01*
X122458985Y-71542481D01*
X122365853Y-71403100D01*
X122301703Y-71248228D01*
X122269000Y-71083816D01*
X122269000Y-70916184D01*
X122301703Y-70751772D01*
X122365853Y-70596900D01*
X122458985Y-70457519D01*
X122577519Y-70338985D01*
X122716900Y-70245853D01*
X122871772Y-70181703D01*
X123036184Y-70149000D01*
X123203816Y-70149000D01*
X123368228Y-70181703D01*
G37*
G36*
X148329487Y-69248996D02*
G01*
X148479177Y-69311000D01*
X148566255Y-69347069D01*
X148779339Y-69489447D01*
X148960553Y-69670661D01*
X149102932Y-69883747D01*
X149201004Y-70120513D01*
X149251000Y-70371861D01*
X149251000Y-70628139D01*
X149201004Y-70879487D01*
X149185803Y-70916185D01*
X149102931Y-71116255D01*
X148960553Y-71329339D01*
X148779339Y-71510553D01*
X148566255Y-71652931D01*
X148566254Y-71652932D01*
X148566253Y-71652932D01*
X148329487Y-71751004D01*
X148078139Y-71801000D01*
X147821861Y-71801000D01*
X147570513Y-71751004D01*
X147333747Y-71652932D01*
X147333746Y-71652932D01*
X147333745Y-71652931D01*
X147120661Y-71510553D01*
X146939447Y-71329339D01*
X146797069Y-71116255D01*
X146714197Y-70916185D01*
X146698996Y-70879487D01*
X146649000Y-70628139D01*
X146649000Y-70371861D01*
X146698996Y-70120513D01*
X146797068Y-69883747D01*
X146939447Y-69670661D01*
X147120661Y-69489447D01*
X147333745Y-69347069D01*
X147420823Y-69311000D01*
X147570513Y-69248996D01*
X147821861Y-69199000D01*
X148078139Y-69199000D01*
X148329487Y-69248996D01*
G37*
G36*
X136129487Y-69248996D02*
G01*
X136279177Y-69311000D01*
X136366255Y-69347069D01*
X136579339Y-69489447D01*
X136760553Y-69670661D01*
X136902932Y-69883747D01*
X137001004Y-70120513D01*
X137051000Y-70371861D01*
X137051000Y-70628139D01*
X137001004Y-70879487D01*
X136985803Y-70916185D01*
X136902931Y-71116255D01*
X136760553Y-71329339D01*
X136579339Y-71510553D01*
X136366255Y-71652931D01*
X136366254Y-71652932D01*
X136366253Y-71652932D01*
X136129487Y-71751004D01*
X135878139Y-71801000D01*
X135621861Y-71801000D01*
X135370513Y-71751004D01*
X135133747Y-71652932D01*
X135133746Y-71652932D01*
X135133745Y-71652931D01*
X134920661Y-71510553D01*
X134739447Y-71329339D01*
X134597069Y-71116255D01*
X134514197Y-70916185D01*
X134498996Y-70879487D01*
X134449000Y-70628139D01*
X134449000Y-70371861D01*
X134498996Y-70120513D01*
X134597068Y-69883747D01*
X134739447Y-69670661D01*
X134920661Y-69489447D01*
X135133745Y-69347069D01*
X135220823Y-69311000D01*
X135370513Y-69248996D01*
X135621861Y-69199000D01*
X135878139Y-69199000D01*
X136129487Y-69248996D01*
G37*
G36*
X123368228Y-67641703D02*
G01*
X123523100Y-67705853D01*
X123662481Y-67798985D01*
X123781015Y-67917519D01*
X123874147Y-68056900D01*
X123938297Y-68211772D01*
X123971000Y-68376184D01*
X123971000Y-68543816D01*
X123938297Y-68708228D01*
X123874147Y-68863100D01*
X123781015Y-69002481D01*
X123662481Y-69121015D01*
X123523100Y-69214147D01*
X123368228Y-69278297D01*
X123203816Y-69311000D01*
X123036184Y-69311000D01*
X122871772Y-69278297D01*
X122716900Y-69214147D01*
X122577519Y-69121015D01*
X122458985Y-69002481D01*
X122365853Y-68863100D01*
X122301703Y-68708228D01*
X122269000Y-68543816D01*
X122269000Y-68376184D01*
X122301703Y-68211772D01*
X122365853Y-68056900D01*
X122458985Y-67917519D01*
X122577519Y-67798985D01*
X122716900Y-67705853D01*
X122871772Y-67641703D01*
X123036184Y-67609000D01*
X123203816Y-67609000D01*
X123368228Y-67641703D01*
G37*
G36*
X116351000Y-69311000D02*
G01*
X114649000Y-69311000D01*
X114649000Y-67609000D01*
X116351000Y-67609000D01*
X116351000Y-69311000D01*
G37*
G36*
X160802585Y-64728802D02*
G01*
X160952410Y-64758604D01*
X161234674Y-64875521D01*
X161488705Y-65045259D01*
X161704741Y-65261295D01*
X161874479Y-65515326D01*
X161991396Y-65797590D01*
X162051000Y-66097240D01*
X162051000Y-66402760D01*
X161991396Y-66702410D01*
X161874479Y-66984674D01*
X161704741Y-67238705D01*
X161488705Y-67454741D01*
X161234674Y-67624479D01*
X160952410Y-67741396D01*
X160802585Y-67771198D01*
X160652761Y-67801000D01*
X160347239Y-67801000D01*
X160197415Y-67771198D01*
X160047590Y-67741396D01*
X159765326Y-67624479D01*
X159511295Y-67454741D01*
X159295259Y-67238705D01*
X159125521Y-66984674D01*
X159008604Y-66702410D01*
X158949000Y-66402760D01*
X158949000Y-66097240D01*
X159008604Y-65797590D01*
X159125521Y-65515326D01*
X159295259Y-65261295D01*
X159511295Y-65045259D01*
X159765326Y-64875521D01*
X160047590Y-64758604D01*
X160197415Y-64728802D01*
X160347239Y-64699000D01*
X160652761Y-64699000D01*
X160802585Y-64728802D01*
G37*
G36*
X148329487Y-63748996D02*
G01*
X148566253Y-63847068D01*
X148566255Y-63847069D01*
X148779339Y-63989447D01*
X148960553Y-64170661D01*
X149102932Y-64383747D01*
X149201004Y-64620513D01*
X149251000Y-64871861D01*
X149251000Y-65128139D01*
X149201004Y-65379487D01*
X149102932Y-65616253D01*
X149102931Y-65616255D01*
X148960553Y-65829339D01*
X148779339Y-66010553D01*
X148566255Y-66152931D01*
X148566254Y-66152932D01*
X148566253Y-66152932D01*
X148329487Y-66251004D01*
X148078139Y-66301000D01*
X147821861Y-66301000D01*
X147570513Y-66251004D01*
X147333747Y-66152932D01*
X147333746Y-66152932D01*
X147333745Y-66152931D01*
X147120661Y-66010553D01*
X146939447Y-65829339D01*
X146797069Y-65616255D01*
X146797068Y-65616253D01*
X146698996Y-65379487D01*
X146649000Y-65128139D01*
X146649000Y-64871861D01*
X146698996Y-64620513D01*
X146797068Y-64383747D01*
X146939447Y-64170661D01*
X147120661Y-63989447D01*
X147333745Y-63847069D01*
X147333747Y-63847068D01*
X147570513Y-63748996D01*
X147821861Y-63699000D01*
X148078139Y-63699000D01*
X148329487Y-63748996D01*
G37*
G36*
X136129487Y-63748996D02*
G01*
X136366253Y-63847068D01*
X136366255Y-63847069D01*
X136579339Y-63989447D01*
X136760553Y-64170661D01*
X136902932Y-64383747D01*
X137001004Y-64620513D01*
X137051000Y-64871861D01*
X137051000Y-65128139D01*
X137001004Y-65379487D01*
X136902932Y-65616253D01*
X136902931Y-65616255D01*
X136760553Y-65829339D01*
X136579339Y-66010553D01*
X136366255Y-66152931D01*
X136366254Y-66152932D01*
X136366253Y-66152932D01*
X136129487Y-66251004D01*
X135878139Y-66301000D01*
X135621861Y-66301000D01*
X135370513Y-66251004D01*
X135133747Y-66152932D01*
X135133746Y-66152932D01*
X135133745Y-66152931D01*
X134920661Y-66010553D01*
X134739447Y-65829339D01*
X134597069Y-65616255D01*
X134597068Y-65616253D01*
X134498996Y-65379487D01*
X134449000Y-65128139D01*
X134449000Y-64871861D01*
X134498996Y-64620513D01*
X134597068Y-64383747D01*
X134739447Y-64170661D01*
X134920661Y-63989447D01*
X135133745Y-63847069D01*
X135133747Y-63847068D01*
X135370513Y-63748996D01*
X135621861Y-63699000D01*
X135878139Y-63699000D01*
X136129487Y-63748996D01*
G37*
G36*
X160802585Y-59648802D02*
G01*
X160952410Y-59678604D01*
X161234674Y-59795521D01*
X161488705Y-59965259D01*
X161704741Y-60181295D01*
X161874479Y-60435326D01*
X161991396Y-60717590D01*
X162051000Y-61017240D01*
X162051000Y-61322760D01*
X161991396Y-61622410D01*
X161874479Y-61904674D01*
X161704741Y-62158705D01*
X161488705Y-62374741D01*
X161234674Y-62544479D01*
X160952410Y-62661396D01*
X160802585Y-62691198D01*
X160652761Y-62721000D01*
X160347239Y-62721000D01*
X160197415Y-62691198D01*
X160047590Y-62661396D01*
X159765326Y-62544479D01*
X159511295Y-62374741D01*
X159295259Y-62158705D01*
X159125521Y-61904674D01*
X159008604Y-61622410D01*
X158949000Y-61322760D01*
X158949000Y-61017240D01*
X159008604Y-60717590D01*
X159125521Y-60435326D01*
X159295259Y-60181295D01*
X159511295Y-59965259D01*
X159765326Y-59795521D01*
X160047590Y-59678604D01*
X160197415Y-59648802D01*
X160347239Y-59619000D01*
X160652761Y-59619000D01*
X160802585Y-59648802D01*
G37*
G36*
X135051000Y-60301000D02*
G01*
X132449000Y-60301000D01*
X132449000Y-57699000D01*
X135051000Y-57699000D01*
X135051000Y-60301000D01*
G37*
G36*
X88806564Y-55489389D02*
G01*
X88928571Y-55539926D01*
X88997835Y-55568616D01*
X89169973Y-55683635D01*
X89316365Y-55830027D01*
X89431385Y-56002167D01*
X89510611Y-56193436D01*
X89551000Y-56396484D01*
X89551000Y-56603516D01*
X89510611Y-56806564D01*
X89479779Y-56880999D01*
X89431384Y-56997835D01*
X89316365Y-57169973D01*
X89169973Y-57316365D01*
X88997835Y-57431384D01*
X88997834Y-57431385D01*
X88997833Y-57431385D01*
X88806564Y-57510611D01*
X88603516Y-57551000D01*
X88396484Y-57551000D01*
X88193436Y-57510611D01*
X88002167Y-57431385D01*
X88002166Y-57431385D01*
X88002165Y-57431384D01*
X87830027Y-57316365D01*
X87683635Y-57169973D01*
X87568616Y-56997835D01*
X87520221Y-56880999D01*
X87489389Y-56806564D01*
X87449000Y-56603516D01*
X87449000Y-56396484D01*
X87489389Y-56193436D01*
X87568615Y-56002167D01*
X87683635Y-55830027D01*
X87830027Y-55683635D01*
X88002165Y-55568616D01*
X88071429Y-55539926D01*
X88193436Y-55489389D01*
X88396484Y-55449000D01*
X88603516Y-55449000D01*
X88806564Y-55489389D01*
G37*
G36*
X82306564Y-55489389D02*
G01*
X82428571Y-55539926D01*
X82497835Y-55568616D01*
X82669973Y-55683635D01*
X82816365Y-55830027D01*
X82931385Y-56002167D01*
X83010611Y-56193436D01*
X83051000Y-56396484D01*
X83051000Y-56603516D01*
X83010611Y-56806564D01*
X82979779Y-56880999D01*
X82931384Y-56997835D01*
X82816365Y-57169973D01*
X82669973Y-57316365D01*
X82497835Y-57431384D01*
X82497834Y-57431385D01*
X82497833Y-57431385D01*
X82306564Y-57510611D01*
X82103516Y-57551000D01*
X81896484Y-57551000D01*
X81693436Y-57510611D01*
X81502167Y-57431385D01*
X81502166Y-57431385D01*
X81502165Y-57431384D01*
X81330027Y-57316365D01*
X81183635Y-57169973D01*
X81068616Y-56997835D01*
X81020221Y-56880999D01*
X80989389Y-56806564D01*
X80949000Y-56603516D01*
X80949000Y-56396484D01*
X80989389Y-56193436D01*
X81068615Y-56002167D01*
X81183635Y-55830027D01*
X81330027Y-55683635D01*
X81502165Y-55568616D01*
X81571429Y-55539926D01*
X81693436Y-55489389D01*
X81896484Y-55449000D01*
X82103516Y-55449000D01*
X82306564Y-55489389D01*
G37*
G36*
X161634239Y-50811467D02*
G01*
X161948282Y-50873934D01*
X162539926Y-51119001D01*
X163072392Y-51474784D01*
X163525216Y-51927608D01*
X163880999Y-52460074D01*
X164126066Y-53051718D01*
X164251000Y-53679804D01*
X164251000Y-54320196D01*
X164126066Y-54948282D01*
X163880999Y-55539926D01*
X163525216Y-56072392D01*
X163072392Y-56525216D01*
X162539926Y-56880999D01*
X161948282Y-57126066D01*
X161727546Y-57169973D01*
X161320197Y-57251000D01*
X160679803Y-57251000D01*
X160272454Y-57169973D01*
X160051718Y-57126066D01*
X159460074Y-56880999D01*
X158927608Y-56525216D01*
X158474784Y-56072392D01*
X158119001Y-55539926D01*
X157873934Y-54948282D01*
X157749000Y-54320196D01*
X157749000Y-53679804D01*
X157873934Y-53051718D01*
X158119001Y-52460074D01*
X158474784Y-51927608D01*
X158927608Y-51474784D01*
X159460074Y-51119001D01*
X160051718Y-50873934D01*
X160365761Y-50811467D01*
X160679803Y-50749000D01*
X161320197Y-50749000D01*
X161634239Y-50811467D01*
G37*
G36*
X74634239Y-50811467D02*
G01*
X74948282Y-50873934D01*
X75539926Y-51119001D01*
X76072392Y-51474784D01*
X76525216Y-51927608D01*
X76880999Y-52460074D01*
X77126066Y-53051718D01*
X77251000Y-53679804D01*
X77251000Y-54320196D01*
X77126066Y-54948282D01*
X76880999Y-55539926D01*
X76525216Y-56072392D01*
X76072392Y-56525216D01*
X75539926Y-56880999D01*
X74948282Y-57126066D01*
X74727546Y-57169973D01*
X74320197Y-57251000D01*
X73679803Y-57251000D01*
X73272454Y-57169973D01*
X73051718Y-57126066D01*
X72460074Y-56880999D01*
X71927608Y-56525216D01*
X71474784Y-56072392D01*
X71119001Y-55539926D01*
X70873934Y-54948282D01*
X70749000Y-54320196D01*
X70749000Y-53679804D01*
X70873934Y-53051718D01*
X71119001Y-52460074D01*
X71474784Y-51927608D01*
X71927608Y-51474784D01*
X72460074Y-51119001D01*
X73051718Y-50873934D01*
X73365761Y-50811467D01*
X73679803Y-50749000D01*
X74320197Y-50749000D01*
X74634239Y-50811467D01*
G37*
G36*
X136129487Y-51748996D02*
G01*
X136366253Y-51847068D01*
X136366255Y-51847069D01*
X136440210Y-51896484D01*
X136579339Y-51989447D01*
X136760553Y-52170661D01*
X136902932Y-52383747D01*
X137001004Y-52620513D01*
X137051000Y-52871861D01*
X137051000Y-53128139D01*
X137001004Y-53379487D01*
X136902932Y-53616253D01*
X136902931Y-53616255D01*
X136760553Y-53829339D01*
X136579339Y-54010553D01*
X136366255Y-54152931D01*
X136366254Y-54152932D01*
X136366253Y-54152932D01*
X136129487Y-54251004D01*
X135878139Y-54301000D01*
X135621861Y-54301000D01*
X135370513Y-54251004D01*
X135133747Y-54152932D01*
X135133746Y-54152932D01*
X135133745Y-54152931D01*
X134920661Y-54010553D01*
X134739447Y-53829339D01*
X134597069Y-53616255D01*
X134597068Y-53616253D01*
X134498996Y-53379487D01*
X134449000Y-53128139D01*
X134449000Y-52871861D01*
X134498996Y-52620513D01*
X134597068Y-52383747D01*
X134739447Y-52170661D01*
X134920661Y-51989447D01*
X135059790Y-51896484D01*
X135133745Y-51847069D01*
X135133747Y-51847068D01*
X135370513Y-51748996D01*
X135621861Y-51699000D01*
X135878139Y-51699000D01*
X136129487Y-51748996D01*
G37*
G36*
X148329487Y-51748996D02*
G01*
X148566253Y-51847068D01*
X148566255Y-51847069D01*
X148640210Y-51896484D01*
X148779339Y-51989447D01*
X148960553Y-52170661D01*
X149102932Y-52383747D01*
X149201004Y-52620513D01*
X149251000Y-52871861D01*
X149251000Y-53128139D01*
X149201004Y-53379487D01*
X149102932Y-53616253D01*
X149102931Y-53616255D01*
X148960553Y-53829339D01*
X148779339Y-54010553D01*
X148566255Y-54152931D01*
X148566254Y-54152932D01*
X148566253Y-54152932D01*
X148329487Y-54251004D01*
X148078139Y-54301000D01*
X147821861Y-54301000D01*
X147570513Y-54251004D01*
X147333747Y-54152932D01*
X147333746Y-54152932D01*
X147333745Y-54152931D01*
X147120661Y-54010553D01*
X146939447Y-53829339D01*
X146797069Y-53616255D01*
X146797068Y-53616253D01*
X146698996Y-53379487D01*
X146649000Y-53128139D01*
X146649000Y-52871861D01*
X146698996Y-52620513D01*
X146797068Y-52383747D01*
X146939447Y-52170661D01*
X147120661Y-51989447D01*
X147259790Y-51896484D01*
X147333745Y-51847069D01*
X147333747Y-51847068D01*
X147570513Y-51748996D01*
X147821861Y-51699000D01*
X148078139Y-51699000D01*
X148329487Y-51748996D01*
G37*
G36*
X88806564Y-50989389D02*
G01*
X88997833Y-51068615D01*
X88997835Y-51068616D01*
X89169973Y-51183635D01*
X89316365Y-51330027D01*
X89413089Y-51474784D01*
X89431385Y-51502167D01*
X89510611Y-51693436D01*
X89551000Y-51896484D01*
X89551000Y-52103516D01*
X89510611Y-52306564D01*
X89447025Y-52460074D01*
X89431384Y-52497835D01*
X89316365Y-52669973D01*
X89169973Y-52816365D01*
X88997835Y-52931384D01*
X88997834Y-52931385D01*
X88997833Y-52931385D01*
X88806564Y-53010611D01*
X88603516Y-53051000D01*
X88396484Y-53051000D01*
X88193436Y-53010611D01*
X88002167Y-52931385D01*
X88002166Y-52931385D01*
X88002165Y-52931384D01*
X87830027Y-52816365D01*
X87683635Y-52669973D01*
X87568616Y-52497835D01*
X87552975Y-52460074D01*
X87489389Y-52306564D01*
X87449000Y-52103516D01*
X87449000Y-51896484D01*
X87489389Y-51693436D01*
X87568615Y-51502167D01*
X87586912Y-51474784D01*
X87683635Y-51330027D01*
X87830027Y-51183635D01*
X88002165Y-51068616D01*
X88002167Y-51068615D01*
X88193436Y-50989389D01*
X88396484Y-50949000D01*
X88603516Y-50949000D01*
X88806564Y-50989389D01*
G37*
G36*
X82306564Y-50989389D02*
G01*
X82497833Y-51068615D01*
X82497835Y-51068616D01*
X82669973Y-51183635D01*
X82816365Y-51330027D01*
X82913089Y-51474784D01*
X82931385Y-51502167D01*
X83010611Y-51693436D01*
X83051000Y-51896484D01*
X83051000Y-52103516D01*
X83010611Y-52306564D01*
X82947025Y-52460074D01*
X82931384Y-52497835D01*
X82816365Y-52669973D01*
X82669973Y-52816365D01*
X82497835Y-52931384D01*
X82497834Y-52931385D01*
X82497833Y-52931385D01*
X82306564Y-53010611D01*
X82103516Y-53051000D01*
X81896484Y-53051000D01*
X81693436Y-53010611D01*
X81502167Y-52931385D01*
X81502166Y-52931385D01*
X81502165Y-52931384D01*
X81330027Y-52816365D01*
X81183635Y-52669973D01*
X81068616Y-52497835D01*
X81052975Y-52460074D01*
X80989389Y-52306564D01*
X80949000Y-52103516D01*
X80949000Y-51896484D01*
X80989389Y-51693436D01*
X81068615Y-51502167D01*
X81086912Y-51474784D01*
X81183635Y-51330027D01*
X81330027Y-51183635D01*
X81502165Y-51068616D01*
X81502167Y-51068615D01*
X81693436Y-50989389D01*
X81896484Y-50949000D01*
X82103516Y-50949000D01*
X82306564Y-50989389D01*
G37*
M02*
