G04 #@! TF.GenerationSoftware,KiCad,Pcbnew,(5.1.6)-1*
G04 #@! TF.CreationDate,2020-10-27T15:13:45-03:00*
G04 #@! TF.ProjectId,HMIconSTM32,484d4963-6f6e-4535-944d-33322e6b6963,v1.0*
G04 #@! TF.SameCoordinates,Original*
G04 #@! TF.FileFunction,Soldermask,Top*
G04 #@! TF.FilePolarity,Negative*
%FSLAX46Y46*%
G04 Gerber Fmt 4.6, Leading zero omitted, Abs format (unit mm)*
G04 Created by KiCad (PCBNEW (5.1.6)-1) date 2020-10-27 15:13:45*
%MOMM*%
%LPD*%
G01*
G04 APERTURE LIST*
%ADD10C,0.100000*%
G04 APERTURE END LIST*
D10*
G36*
X110960442Y-97505518D02*
G01*
X111026627Y-97512037D01*
X111196466Y-97563557D01*
X111352991Y-97647222D01*
X111388729Y-97676552D01*
X111490186Y-97759814D01*
X111573448Y-97861271D01*
X111602778Y-97897009D01*
X111686443Y-98053534D01*
X111737963Y-98223373D01*
X111755359Y-98400000D01*
X111737963Y-98576627D01*
X111686443Y-98746466D01*
X111602778Y-98902991D01*
X111573448Y-98938729D01*
X111490186Y-99040186D01*
X111388729Y-99123448D01*
X111352991Y-99152778D01*
X111196466Y-99236443D01*
X111026627Y-99287963D01*
X110960443Y-99294481D01*
X110894260Y-99301000D01*
X109105740Y-99301000D01*
X109039558Y-99294482D01*
X108973373Y-99287963D01*
X108803534Y-99236443D01*
X108647009Y-99152778D01*
X108611271Y-99123448D01*
X108509814Y-99040186D01*
X108426552Y-98938729D01*
X108397222Y-98902991D01*
X108313557Y-98746466D01*
X108262037Y-98576627D01*
X108244641Y-98400000D01*
X108262037Y-98223373D01*
X108313557Y-98053534D01*
X108397222Y-97897009D01*
X108426552Y-97861271D01*
X108509814Y-97759814D01*
X108611271Y-97676552D01*
X108647009Y-97647222D01*
X108803534Y-97563557D01*
X108973373Y-97512037D01*
X109039557Y-97505519D01*
X109105740Y-97499000D01*
X110894260Y-97499000D01*
X110960442Y-97505518D01*
G37*
G36*
X161634239Y-92811467D02*
G01*
X161948282Y-92873934D01*
X162539926Y-93119001D01*
X163072392Y-93474784D01*
X163525216Y-93927608D01*
X163880999Y-94460074D01*
X164126066Y-95051718D01*
X164146441Y-95154149D01*
X164237945Y-95614169D01*
X164251000Y-95679804D01*
X164251000Y-96320196D01*
X164126066Y-96948282D01*
X163880999Y-97539926D01*
X163660326Y-97870186D01*
X163534165Y-98059000D01*
X163525216Y-98072392D01*
X163072392Y-98525216D01*
X162539926Y-98880999D01*
X161948282Y-99126066D01*
X161634239Y-99188533D01*
X161320197Y-99251000D01*
X160679803Y-99251000D01*
X160365761Y-99188533D01*
X160051718Y-99126066D01*
X159460074Y-98880999D01*
X158927608Y-98525216D01*
X158474784Y-98072392D01*
X158465836Y-98059000D01*
X158339674Y-97870186D01*
X158119001Y-97539926D01*
X157873934Y-96948282D01*
X157749000Y-96320196D01*
X157749000Y-95679804D01*
X157762056Y-95614169D01*
X157853559Y-95154149D01*
X157873934Y-95051718D01*
X158119001Y-94460074D01*
X158474784Y-93927608D01*
X158927608Y-93474784D01*
X159460074Y-93119001D01*
X160051718Y-92873934D01*
X160365761Y-92811467D01*
X160679803Y-92749000D01*
X161320197Y-92749000D01*
X161634239Y-92811467D01*
G37*
G36*
X74634239Y-92811467D02*
G01*
X74948282Y-92873934D01*
X75539926Y-93119001D01*
X76072392Y-93474784D01*
X76525216Y-93927608D01*
X76880999Y-94460074D01*
X77126066Y-95051718D01*
X77146441Y-95154149D01*
X77237945Y-95614169D01*
X77251000Y-95679804D01*
X77251000Y-96320196D01*
X77126066Y-96948282D01*
X76880999Y-97539926D01*
X76660326Y-97870186D01*
X76534165Y-98059000D01*
X76525216Y-98072392D01*
X76072392Y-98525216D01*
X75539926Y-98880999D01*
X74948282Y-99126066D01*
X74634239Y-99188533D01*
X74320197Y-99251000D01*
X73679803Y-99251000D01*
X73365761Y-99188533D01*
X73051718Y-99126066D01*
X72460074Y-98880999D01*
X71927608Y-98525216D01*
X71474784Y-98072392D01*
X71465836Y-98059000D01*
X71339674Y-97870186D01*
X71119001Y-97539926D01*
X70873934Y-96948282D01*
X70749000Y-96320196D01*
X70749000Y-95679804D01*
X70762056Y-95614169D01*
X70853559Y-95154149D01*
X70873934Y-95051718D01*
X71119001Y-94460074D01*
X71474784Y-93927608D01*
X71927608Y-93474784D01*
X72460074Y-93119001D01*
X73051718Y-92873934D01*
X73365761Y-92811467D01*
X73679803Y-92749000D01*
X74320197Y-92749000D01*
X74634239Y-92811467D01*
G37*
G36*
X118283911Y-94804754D02*
G01*
X118434871Y-94867284D01*
X118585831Y-94929813D01*
X118585832Y-94929814D01*
X118857548Y-95111368D01*
X119088632Y-95342452D01*
X119216368Y-95533624D01*
X119270187Y-95614169D01*
X119305325Y-95699000D01*
X119395246Y-95916089D01*
X119459000Y-96236601D01*
X119459000Y-96563399D01*
X119395246Y-96883911D01*
X119357783Y-96974354D01*
X119270187Y-97185831D01*
X119270186Y-97185832D01*
X119088632Y-97457548D01*
X118857548Y-97688632D01*
X118653761Y-97824798D01*
X118585831Y-97870187D01*
X118434871Y-97932716D01*
X118283911Y-97995246D01*
X117963399Y-98059000D01*
X117636601Y-98059000D01*
X117316089Y-97995246D01*
X117165128Y-97932716D01*
X117014169Y-97870187D01*
X116946239Y-97824798D01*
X116742452Y-97688632D01*
X116511368Y-97457548D01*
X116329814Y-97185832D01*
X116329813Y-97185831D01*
X116242217Y-96974354D01*
X116204754Y-96883911D01*
X116141000Y-96563399D01*
X116141000Y-96236601D01*
X116204754Y-95916089D01*
X116294675Y-95699000D01*
X116329813Y-95614169D01*
X116383632Y-95533624D01*
X116511368Y-95342452D01*
X116742452Y-95111368D01*
X117014168Y-94929814D01*
X117014169Y-94929813D01*
X117165129Y-94867284D01*
X117316089Y-94804754D01*
X117636601Y-94741000D01*
X117963399Y-94741000D01*
X118283911Y-94804754D01*
G37*
G36*
X102683911Y-94804754D02*
G01*
X102834871Y-94867284D01*
X102985831Y-94929813D01*
X102985832Y-94929814D01*
X103257548Y-95111368D01*
X103488632Y-95342452D01*
X103616368Y-95533624D01*
X103670187Y-95614169D01*
X103705325Y-95699000D01*
X103795246Y-95916089D01*
X103859000Y-96236601D01*
X103859000Y-96563399D01*
X103795246Y-96883911D01*
X103757783Y-96974354D01*
X103670187Y-97185831D01*
X103670186Y-97185832D01*
X103488632Y-97457548D01*
X103257548Y-97688632D01*
X103053761Y-97824798D01*
X102985831Y-97870187D01*
X102834871Y-97932716D01*
X102683911Y-97995246D01*
X102363399Y-98059000D01*
X102036601Y-98059000D01*
X101716089Y-97995246D01*
X101565128Y-97932716D01*
X101414169Y-97870187D01*
X101346239Y-97824798D01*
X101142452Y-97688632D01*
X100911368Y-97457548D01*
X100729814Y-97185832D01*
X100729813Y-97185831D01*
X100642217Y-96974354D01*
X100604754Y-96883911D01*
X100541000Y-96563399D01*
X100541000Y-96236601D01*
X100604754Y-95916089D01*
X100694675Y-95699000D01*
X100729813Y-95614169D01*
X100783632Y-95533624D01*
X100911368Y-95342452D01*
X101142452Y-95111368D01*
X101414168Y-94929814D01*
X101414169Y-94929813D01*
X101565129Y-94867284D01*
X101716089Y-94804754D01*
X102036601Y-94741000D01*
X102363399Y-94741000D01*
X102683911Y-94804754D01*
G37*
G36*
X90103097Y-95704069D02*
G01*
X90206032Y-95714207D01*
X90404146Y-95774305D01*
X90404149Y-95774306D01*
X90463603Y-95806085D01*
X90586729Y-95871897D01*
X90746765Y-96003235D01*
X90878103Y-96163271D01*
X90923939Y-96249025D01*
X90975694Y-96345851D01*
X90975695Y-96345854D01*
X91035793Y-96543968D01*
X91056085Y-96750000D01*
X91035793Y-96956032D01*
X90992165Y-97099852D01*
X90975694Y-97154149D01*
X90958759Y-97185832D01*
X90878103Y-97336729D01*
X90746765Y-97496765D01*
X90586729Y-97628103D01*
X90500975Y-97673939D01*
X90404149Y-97725694D01*
X90404146Y-97725695D01*
X90206032Y-97785793D01*
X90103097Y-97795931D01*
X90051631Y-97801000D01*
X87948369Y-97801000D01*
X87896903Y-97795931D01*
X87793968Y-97785793D01*
X87595854Y-97725695D01*
X87595851Y-97725694D01*
X87499025Y-97673939D01*
X87413271Y-97628103D01*
X87253235Y-97496765D01*
X87121897Y-97336729D01*
X87041241Y-97185832D01*
X87024306Y-97154149D01*
X87007835Y-97099852D01*
X86964207Y-96956032D01*
X86943915Y-96750000D01*
X86964207Y-96543968D01*
X87024305Y-96345854D01*
X87024306Y-96345851D01*
X87076061Y-96249025D01*
X87121897Y-96163271D01*
X87253235Y-96003235D01*
X87413271Y-95871897D01*
X87536397Y-95806085D01*
X87595851Y-95774306D01*
X87595854Y-95774305D01*
X87793968Y-95714207D01*
X87896903Y-95704069D01*
X87948369Y-95699000D01*
X90051631Y-95699000D01*
X90103097Y-95704069D01*
G37*
G36*
X107613512Y-95503927D02*
G01*
X107762812Y-95533624D01*
X107926784Y-95601544D01*
X108074354Y-95700147D01*
X108199853Y-95825646D01*
X108298456Y-95973216D01*
X108366376Y-96137188D01*
X108401000Y-96311259D01*
X108401000Y-96488741D01*
X108366376Y-96662812D01*
X108298456Y-96826784D01*
X108199853Y-96974354D01*
X108074354Y-97099853D01*
X107926784Y-97198456D01*
X107762812Y-97266376D01*
X107613512Y-97296073D01*
X107588742Y-97301000D01*
X107411258Y-97301000D01*
X107386488Y-97296073D01*
X107237188Y-97266376D01*
X107073216Y-97198456D01*
X106925646Y-97099853D01*
X106800147Y-96974354D01*
X106701544Y-96826784D01*
X106633624Y-96662812D01*
X106599000Y-96488741D01*
X106599000Y-96311259D01*
X106633624Y-96137188D01*
X106701544Y-95973216D01*
X106800147Y-95825646D01*
X106925646Y-95700147D01*
X107073216Y-95601544D01*
X107237188Y-95533624D01*
X107386488Y-95503927D01*
X107411258Y-95499000D01*
X107588742Y-95499000D01*
X107613512Y-95503927D01*
G37*
G36*
X112613512Y-95503927D02*
G01*
X112762812Y-95533624D01*
X112926784Y-95601544D01*
X113074354Y-95700147D01*
X113199853Y-95825646D01*
X113298456Y-95973216D01*
X113366376Y-96137188D01*
X113401000Y-96311259D01*
X113401000Y-96488741D01*
X113366376Y-96662812D01*
X113298456Y-96826784D01*
X113199853Y-96974354D01*
X113074354Y-97099853D01*
X112926784Y-97198456D01*
X112762812Y-97266376D01*
X112613512Y-97296073D01*
X112588742Y-97301000D01*
X112411258Y-97301000D01*
X112386488Y-97296073D01*
X112237188Y-97266376D01*
X112073216Y-97198456D01*
X111925646Y-97099853D01*
X111800147Y-96974354D01*
X111701544Y-96826784D01*
X111633624Y-96662812D01*
X111599000Y-96488741D01*
X111599000Y-96311259D01*
X111633624Y-96137188D01*
X111701544Y-95973216D01*
X111800147Y-95825646D01*
X111925646Y-95700147D01*
X112073216Y-95601544D01*
X112237188Y-95533624D01*
X112386488Y-95503927D01*
X112411258Y-95499000D01*
X112588742Y-95499000D01*
X112613512Y-95503927D01*
G37*
G36*
X93906032Y-91714207D02*
G01*
X94104146Y-91774305D01*
X94104149Y-91774306D01*
X94192525Y-91821544D01*
X94286729Y-91871897D01*
X94446765Y-92003235D01*
X94578103Y-92163271D01*
X94594110Y-92193218D01*
X94675694Y-92345851D01*
X94675695Y-92345854D01*
X94735793Y-92543968D01*
X94751000Y-92698370D01*
X94751000Y-94801630D01*
X94735793Y-94956032D01*
X94706766Y-95051719D01*
X94675694Y-95154149D01*
X94623939Y-95250975D01*
X94578103Y-95336729D01*
X94446765Y-95496765D01*
X94286729Y-95628103D01*
X94190004Y-95679803D01*
X94104148Y-95725694D01*
X94104145Y-95725695D01*
X93906031Y-95785793D01*
X93700000Y-95806085D01*
X93493968Y-95785793D01*
X93295854Y-95725695D01*
X93295851Y-95725694D01*
X93199025Y-95673939D01*
X93113271Y-95628103D01*
X92953235Y-95496765D01*
X92821897Y-95336729D01*
X92724307Y-95154149D01*
X92724306Y-95154148D01*
X92724305Y-95154145D01*
X92664207Y-94956031D01*
X92649000Y-94801629D01*
X92649001Y-92698370D01*
X92664208Y-92543968D01*
X92724306Y-92345854D01*
X92724307Y-92345851D01*
X92805891Y-92193218D01*
X92821898Y-92163271D01*
X92953236Y-92003235D01*
X93113272Y-91871897D01*
X93207476Y-91821544D01*
X93295852Y-91774306D01*
X93295855Y-91774305D01*
X93493969Y-91714207D01*
X93700000Y-91693915D01*
X93906032Y-91714207D01*
G37*
G36*
X123091587Y-91719566D02*
G01*
X123262812Y-91753624D01*
X123426784Y-91821544D01*
X123574354Y-91920147D01*
X123699853Y-92045646D01*
X123798456Y-92193216D01*
X123866376Y-92357188D01*
X123901000Y-92531259D01*
X123901000Y-92708741D01*
X123866376Y-92882812D01*
X123798456Y-93046784D01*
X123699853Y-93194354D01*
X123574354Y-93319853D01*
X123426784Y-93418456D01*
X123262812Y-93486376D01*
X123113512Y-93516073D01*
X123088742Y-93521000D01*
X122911258Y-93521000D01*
X122886488Y-93516073D01*
X122737188Y-93486376D01*
X122573216Y-93418456D01*
X122425646Y-93319853D01*
X122300147Y-93194354D01*
X122201544Y-93046784D01*
X122133624Y-92882812D01*
X122099000Y-92708741D01*
X122099000Y-92531259D01*
X122133624Y-92357188D01*
X122201544Y-92193216D01*
X122300147Y-92045646D01*
X122425646Y-91920147D01*
X122573216Y-91821544D01*
X122737188Y-91753624D01*
X122908413Y-91719566D01*
X122911258Y-91719000D01*
X123088742Y-91719000D01*
X123091587Y-91719566D01*
G37*
G36*
X116170899Y-91540832D02*
G01*
X116255520Y-91557664D01*
X116414942Y-91623699D01*
X116558418Y-91719566D01*
X116680434Y-91841582D01*
X116776301Y-91985058D01*
X116842336Y-92144480D01*
X116876000Y-92313721D01*
X116876000Y-92486279D01*
X116842336Y-92655520D01*
X116776301Y-92814942D01*
X116680434Y-92958418D01*
X116558418Y-93080434D01*
X116414942Y-93176301D01*
X116255520Y-93242336D01*
X116170899Y-93259168D01*
X116086280Y-93276000D01*
X115913720Y-93276000D01*
X115829101Y-93259168D01*
X115744480Y-93242336D01*
X115585058Y-93176301D01*
X115441582Y-93080434D01*
X115319566Y-92958418D01*
X115223699Y-92814942D01*
X115157664Y-92655520D01*
X115124000Y-92486279D01*
X115124000Y-92313721D01*
X115157664Y-92144480D01*
X115223699Y-91985058D01*
X115319566Y-91841582D01*
X115441582Y-91719566D01*
X115585058Y-91623699D01*
X115744480Y-91557664D01*
X115913720Y-91524000D01*
X116086280Y-91524000D01*
X116170899Y-91540832D01*
G37*
G36*
X90353097Y-89704069D02*
G01*
X90456032Y-89714207D01*
X90654146Y-89774305D01*
X90654149Y-89774306D01*
X90734375Y-89817188D01*
X90836729Y-89871897D01*
X90996765Y-90003235D01*
X91128103Y-90163271D01*
X91131027Y-90168742D01*
X91225694Y-90345851D01*
X91225695Y-90345854D01*
X91285793Y-90543968D01*
X91306085Y-90750000D01*
X91285793Y-90956032D01*
X91225695Y-91154146D01*
X91225694Y-91154149D01*
X91173939Y-91250975D01*
X91128103Y-91336729D01*
X90996765Y-91496765D01*
X90836729Y-91628103D01*
X90750975Y-91673939D01*
X90654149Y-91725694D01*
X90654146Y-91725695D01*
X90456032Y-91785793D01*
X90353097Y-91795931D01*
X90301631Y-91801000D01*
X87698369Y-91801000D01*
X87646903Y-91795931D01*
X87543968Y-91785793D01*
X87345854Y-91725695D01*
X87345851Y-91725694D01*
X87249025Y-91673939D01*
X87163271Y-91628103D01*
X87003235Y-91496765D01*
X86871897Y-91336729D01*
X86826061Y-91250975D01*
X86774306Y-91154149D01*
X86774305Y-91154146D01*
X86714207Y-90956032D01*
X86693915Y-90750000D01*
X86714207Y-90543968D01*
X86774305Y-90345854D01*
X86774306Y-90345851D01*
X86868973Y-90168742D01*
X86871897Y-90163271D01*
X87003235Y-90003235D01*
X87163271Y-89871897D01*
X87265625Y-89817188D01*
X87345851Y-89774306D01*
X87345854Y-89774305D01*
X87543968Y-89714207D01*
X87646903Y-89704069D01*
X87698369Y-89699000D01*
X90301631Y-89699000D01*
X90353097Y-89704069D01*
G37*
G36*
X107676627Y-87512037D02*
G01*
X107846466Y-87563557D01*
X108002991Y-87647222D01*
X108038729Y-87676552D01*
X108140186Y-87759814D01*
X108223448Y-87861271D01*
X108252778Y-87897009D01*
X108336443Y-88053534D01*
X108387963Y-88223373D01*
X108387963Y-88223375D01*
X108401000Y-88355740D01*
X108401000Y-90144260D01*
X108399127Y-90163272D01*
X108387963Y-90276627D01*
X108336443Y-90446466D01*
X108252778Y-90602991D01*
X108223448Y-90638729D01*
X108140186Y-90740186D01*
X108002989Y-90852779D01*
X107846467Y-90936442D01*
X107846465Y-90936443D01*
X107676626Y-90987963D01*
X107500000Y-91005359D01*
X107323373Y-90987963D01*
X107153534Y-90936443D01*
X106997009Y-90852778D01*
X106961271Y-90823448D01*
X106859814Y-90740186D01*
X106747221Y-90602989D01*
X106663558Y-90446467D01*
X106663557Y-90446465D01*
X106612037Y-90276626D01*
X106605518Y-90210441D01*
X106599000Y-90144259D01*
X106599001Y-88355740D01*
X106612038Y-88223375D01*
X106612038Y-88223373D01*
X106663558Y-88053534D01*
X106747223Y-87897009D01*
X106776553Y-87861271D01*
X106859815Y-87759814D01*
X106961272Y-87676552D01*
X106997010Y-87647222D01*
X107153535Y-87563557D01*
X107323374Y-87512037D01*
X107500000Y-87494641D01*
X107676627Y-87512037D01*
G37*
G36*
X112676627Y-87512037D02*
G01*
X112846466Y-87563557D01*
X113002991Y-87647222D01*
X113038729Y-87676552D01*
X113140186Y-87759814D01*
X113223448Y-87861271D01*
X113252778Y-87897009D01*
X113336443Y-88053534D01*
X113387963Y-88223373D01*
X113387963Y-88223375D01*
X113401000Y-88355740D01*
X113401000Y-90144260D01*
X113399127Y-90163272D01*
X113387963Y-90276627D01*
X113336443Y-90446466D01*
X113252778Y-90602991D01*
X113223448Y-90638729D01*
X113140186Y-90740186D01*
X113002989Y-90852779D01*
X112846467Y-90936442D01*
X112846465Y-90936443D01*
X112676626Y-90987963D01*
X112500000Y-91005359D01*
X112323373Y-90987963D01*
X112153534Y-90936443D01*
X111997009Y-90852778D01*
X111961271Y-90823448D01*
X111859814Y-90740186D01*
X111747221Y-90602989D01*
X111663558Y-90446467D01*
X111663557Y-90446465D01*
X111612037Y-90276626D01*
X111605518Y-90210441D01*
X111599000Y-90144259D01*
X111599001Y-88355740D01*
X111612038Y-88223375D01*
X111612038Y-88223373D01*
X111663558Y-88053534D01*
X111747223Y-87897009D01*
X111776553Y-87861271D01*
X111859815Y-87759814D01*
X111961272Y-87676552D01*
X111997010Y-87647222D01*
X112153535Y-87563557D01*
X112323374Y-87512037D01*
X112500000Y-87494641D01*
X112676627Y-87512037D01*
G37*
G36*
X123113512Y-89183927D02*
G01*
X123262812Y-89213624D01*
X123426784Y-89281544D01*
X123574354Y-89380147D01*
X123699853Y-89505646D01*
X123798456Y-89653216D01*
X123866376Y-89817188D01*
X123901000Y-89991259D01*
X123901000Y-90168741D01*
X123866376Y-90342812D01*
X123798456Y-90506784D01*
X123699853Y-90654354D01*
X123574354Y-90779853D01*
X123426784Y-90878456D01*
X123262812Y-90946376D01*
X123113512Y-90976073D01*
X123088742Y-90981000D01*
X122911258Y-90981000D01*
X122886488Y-90976073D01*
X122737188Y-90946376D01*
X122573216Y-90878456D01*
X122425646Y-90779853D01*
X122300147Y-90654354D01*
X122201544Y-90506784D01*
X122133624Y-90342812D01*
X122099000Y-90168741D01*
X122099000Y-89991259D01*
X122133624Y-89817188D01*
X122201544Y-89653216D01*
X122300147Y-89505646D01*
X122425646Y-89380147D01*
X122573216Y-89281544D01*
X122737188Y-89213624D01*
X122886488Y-89183927D01*
X122911258Y-89179000D01*
X123088742Y-89179000D01*
X123113512Y-89183927D01*
G37*
G36*
X117976627Y-86162037D02*
G01*
X118146466Y-86213557D01*
X118302991Y-86297222D01*
X118338729Y-86326552D01*
X118440186Y-86409814D01*
X118523448Y-86511271D01*
X118552778Y-86547009D01*
X118636443Y-86703534D01*
X118687963Y-86873373D01*
X118689637Y-86890374D01*
X118697952Y-86974789D01*
X118701000Y-87005742D01*
X118701000Y-88794258D01*
X118687963Y-88926627D01*
X118636443Y-89096466D01*
X118552778Y-89252991D01*
X118529345Y-89281544D01*
X118440186Y-89390186D01*
X118302989Y-89502779D01*
X118297623Y-89505647D01*
X118146465Y-89586443D01*
X117976626Y-89637963D01*
X117800000Y-89655359D01*
X117623373Y-89637963D01*
X117453534Y-89586443D01*
X117297009Y-89502778D01*
X117261271Y-89473448D01*
X117159814Y-89390186D01*
X117047221Y-89252989D01*
X116963558Y-89096467D01*
X116963557Y-89096465D01*
X116912037Y-88926626D01*
X116899000Y-88794257D01*
X116899001Y-87005742D01*
X116902050Y-86974789D01*
X116910364Y-86890374D01*
X116912038Y-86873373D01*
X116963558Y-86703534D01*
X117047223Y-86547009D01*
X117076553Y-86511271D01*
X117159815Y-86409814D01*
X117261272Y-86326552D01*
X117297010Y-86297222D01*
X117453535Y-86213557D01*
X117623374Y-86162037D01*
X117800000Y-86144641D01*
X117976627Y-86162037D01*
G37*
G36*
X102376627Y-86162037D02*
G01*
X102546466Y-86213557D01*
X102702991Y-86297222D01*
X102738729Y-86326552D01*
X102840186Y-86409814D01*
X102923448Y-86511271D01*
X102952778Y-86547009D01*
X103036443Y-86703534D01*
X103087963Y-86873373D01*
X103089637Y-86890374D01*
X103097952Y-86974789D01*
X103101000Y-87005742D01*
X103101000Y-88794258D01*
X103087963Y-88926627D01*
X103036443Y-89096466D01*
X102952778Y-89252991D01*
X102929345Y-89281544D01*
X102840186Y-89390186D01*
X102702989Y-89502779D01*
X102697623Y-89505647D01*
X102546465Y-89586443D01*
X102376626Y-89637963D01*
X102200000Y-89655359D01*
X102023373Y-89637963D01*
X101853534Y-89586443D01*
X101697009Y-89502778D01*
X101661271Y-89473448D01*
X101559814Y-89390186D01*
X101447221Y-89252989D01*
X101363558Y-89096467D01*
X101363557Y-89096465D01*
X101312037Y-88926626D01*
X101299000Y-88794257D01*
X101299001Y-87005742D01*
X101302050Y-86974789D01*
X101310364Y-86890374D01*
X101312038Y-86873373D01*
X101363558Y-86703534D01*
X101447223Y-86547009D01*
X101476553Y-86511271D01*
X101559815Y-86409814D01*
X101661272Y-86326552D01*
X101697010Y-86297222D01*
X101853535Y-86213557D01*
X102023374Y-86162037D01*
X102200000Y-86144641D01*
X102376627Y-86162037D01*
G37*
G36*
X123113512Y-86643927D02*
G01*
X123262812Y-86673624D01*
X123426784Y-86741544D01*
X123574354Y-86840147D01*
X123699853Y-86965646D01*
X123798456Y-87113216D01*
X123866376Y-87277188D01*
X123901000Y-87451259D01*
X123901000Y-87628741D01*
X123866376Y-87802812D01*
X123798456Y-87966784D01*
X123699853Y-88114354D01*
X123574354Y-88239853D01*
X123426784Y-88338456D01*
X123262812Y-88406376D01*
X123113512Y-88436073D01*
X123088742Y-88441000D01*
X122911258Y-88441000D01*
X122886488Y-88436073D01*
X122737188Y-88406376D01*
X122573216Y-88338456D01*
X122425646Y-88239853D01*
X122300147Y-88114354D01*
X122201544Y-87966784D01*
X122133624Y-87802812D01*
X122099000Y-87628741D01*
X122099000Y-87451259D01*
X122133624Y-87277188D01*
X122201544Y-87113216D01*
X122300147Y-86965646D01*
X122425646Y-86840147D01*
X122573216Y-86741544D01*
X122737188Y-86673624D01*
X122886488Y-86643927D01*
X122911258Y-86639000D01*
X123088742Y-86639000D01*
X123113512Y-86643927D01*
G37*
G36*
X162051000Y-88051000D02*
G01*
X158949000Y-88051000D01*
X158949000Y-84949000D01*
X162051000Y-84949000D01*
X162051000Y-88051000D01*
G37*
G36*
X75971934Y-84452671D02*
G01*
X76001877Y-84461754D01*
X76029465Y-84476500D01*
X76053651Y-84496349D01*
X76073500Y-84520535D01*
X76088246Y-84548123D01*
X76097329Y-84578066D01*
X76101000Y-84615340D01*
X76101000Y-86884660D01*
X76097329Y-86921934D01*
X76088246Y-86951877D01*
X76073500Y-86979465D01*
X76053651Y-87003651D01*
X76029465Y-87023500D01*
X76001877Y-87038246D01*
X75971934Y-87047329D01*
X75934660Y-87051000D01*
X71765340Y-87051000D01*
X71728066Y-87047329D01*
X71698123Y-87038246D01*
X71670535Y-87023500D01*
X71646349Y-87003651D01*
X71626500Y-86979465D01*
X71611754Y-86951877D01*
X71602671Y-86921934D01*
X71599000Y-86884660D01*
X71599000Y-84615340D01*
X71602671Y-84578066D01*
X71611754Y-84548123D01*
X71626500Y-84520535D01*
X71646349Y-84496349D01*
X71670535Y-84476500D01*
X71698123Y-84461754D01*
X71728066Y-84452671D01*
X71765340Y-84449000D01*
X75934660Y-84449000D01*
X75971934Y-84452671D01*
G37*
G36*
X83371934Y-84452671D02*
G01*
X83401877Y-84461754D01*
X83429465Y-84476500D01*
X83453651Y-84496349D01*
X83473500Y-84520535D01*
X83488246Y-84548123D01*
X83497329Y-84578066D01*
X83501000Y-84615340D01*
X83501000Y-86884660D01*
X83497329Y-86921934D01*
X83488246Y-86951877D01*
X83473500Y-86979465D01*
X83453651Y-87003651D01*
X83429465Y-87023500D01*
X83401877Y-87038246D01*
X83371934Y-87047329D01*
X83334660Y-87051000D01*
X79165340Y-87051000D01*
X79128066Y-87047329D01*
X79098123Y-87038246D01*
X79070535Y-87023500D01*
X79046349Y-87003651D01*
X79026500Y-86979465D01*
X79011754Y-86951877D01*
X79002671Y-86921934D01*
X78999000Y-86884660D01*
X78999000Y-84615340D01*
X79002671Y-84578066D01*
X79011754Y-84548123D01*
X79026500Y-84520535D01*
X79046349Y-84496349D01*
X79070535Y-84476500D01*
X79098123Y-84461754D01*
X79128066Y-84452671D01*
X79165340Y-84449000D01*
X83334660Y-84449000D01*
X83371934Y-84452671D01*
G37*
G36*
X123901000Y-85901000D02*
G01*
X122099000Y-85901000D01*
X122099000Y-84099000D01*
X123901000Y-84099000D01*
X123901000Y-85901000D01*
G37*
G36*
X91209928Y-83806764D02*
G01*
X91231009Y-83813160D01*
X91250445Y-83823548D01*
X91267476Y-83837524D01*
X91281452Y-83854555D01*
X91291840Y-83873991D01*
X91298236Y-83895072D01*
X91301000Y-83923140D01*
X91301000Y-84386860D01*
X91298236Y-84414928D01*
X91291840Y-84436009D01*
X91281452Y-84455445D01*
X91267476Y-84472476D01*
X91250445Y-84486452D01*
X91231009Y-84496840D01*
X91209928Y-84503236D01*
X91181860Y-84506000D01*
X89368140Y-84506000D01*
X89340072Y-84503236D01*
X89318991Y-84496840D01*
X89299555Y-84486452D01*
X89282524Y-84472476D01*
X89268548Y-84455445D01*
X89258160Y-84436009D01*
X89251764Y-84414928D01*
X89249000Y-84386860D01*
X89249000Y-83923140D01*
X89251764Y-83895072D01*
X89258160Y-83873991D01*
X89268548Y-83854555D01*
X89282524Y-83837524D01*
X89299555Y-83823548D01*
X89318991Y-83813160D01*
X89340072Y-83806764D01*
X89368140Y-83804000D01*
X91181860Y-83804000D01*
X91209928Y-83806764D01*
G37*
G36*
X96159928Y-83806764D02*
G01*
X96181009Y-83813160D01*
X96200445Y-83823548D01*
X96217476Y-83837524D01*
X96231452Y-83854555D01*
X96241840Y-83873991D01*
X96248236Y-83895072D01*
X96251000Y-83923140D01*
X96251000Y-84386860D01*
X96248236Y-84414928D01*
X96241840Y-84436009D01*
X96231452Y-84455445D01*
X96217476Y-84472476D01*
X96200445Y-84486452D01*
X96181009Y-84496840D01*
X96159928Y-84503236D01*
X96131860Y-84506000D01*
X94318140Y-84506000D01*
X94290072Y-84503236D01*
X94268991Y-84496840D01*
X94249555Y-84486452D01*
X94232524Y-84472476D01*
X94218548Y-84455445D01*
X94208160Y-84436009D01*
X94201764Y-84414928D01*
X94199000Y-84386860D01*
X94199000Y-83923140D01*
X94201764Y-83895072D01*
X94208160Y-83873991D01*
X94218548Y-83854555D01*
X94232524Y-83837524D01*
X94249555Y-83823548D01*
X94268991Y-83813160D01*
X94290072Y-83806764D01*
X94318140Y-83804000D01*
X96131860Y-83804000D01*
X96159928Y-83806764D01*
G37*
G36*
X148329487Y-81248996D02*
G01*
X148566253Y-81347068D01*
X148566255Y-81347069D01*
X148779339Y-81489447D01*
X148960553Y-81670661D01*
X149097235Y-81875220D01*
X149102932Y-81883747D01*
X149201004Y-82120513D01*
X149251000Y-82371861D01*
X149251000Y-82628139D01*
X149201004Y-82879487D01*
X149111844Y-83094738D01*
X149102931Y-83116255D01*
X148960553Y-83329339D01*
X148779339Y-83510553D01*
X148566255Y-83652931D01*
X148566254Y-83652932D01*
X148566253Y-83652932D01*
X148329487Y-83751004D01*
X148078139Y-83801000D01*
X147821861Y-83801000D01*
X147570513Y-83751004D01*
X147333747Y-83652932D01*
X147333746Y-83652932D01*
X147333745Y-83652931D01*
X147120661Y-83510553D01*
X146939447Y-83329339D01*
X146797069Y-83116255D01*
X146788156Y-83094738D01*
X146698996Y-82879487D01*
X146649000Y-82628139D01*
X146649000Y-82371861D01*
X146698996Y-82120513D01*
X146797068Y-81883747D01*
X146802766Y-81875220D01*
X146939447Y-81670661D01*
X147120661Y-81489447D01*
X147333745Y-81347069D01*
X147333747Y-81347068D01*
X147570513Y-81248996D01*
X147821861Y-81199000D01*
X148078139Y-81199000D01*
X148329487Y-81248996D01*
G37*
G36*
X136129487Y-81248996D02*
G01*
X136366253Y-81347068D01*
X136366255Y-81347069D01*
X136579339Y-81489447D01*
X136760553Y-81670661D01*
X136897235Y-81875220D01*
X136902932Y-81883747D01*
X137001004Y-82120513D01*
X137051000Y-82371861D01*
X137051000Y-82628139D01*
X137001004Y-82879487D01*
X136911844Y-83094738D01*
X136902931Y-83116255D01*
X136760553Y-83329339D01*
X136579339Y-83510553D01*
X136366255Y-83652931D01*
X136366254Y-83652932D01*
X136366253Y-83652932D01*
X136129487Y-83751004D01*
X135878139Y-83801000D01*
X135621861Y-83801000D01*
X135370513Y-83751004D01*
X135133747Y-83652932D01*
X135133746Y-83652932D01*
X135133745Y-83652931D01*
X134920661Y-83510553D01*
X134739447Y-83329339D01*
X134597069Y-83116255D01*
X134588156Y-83094738D01*
X134498996Y-82879487D01*
X134449000Y-82628139D01*
X134449000Y-82371861D01*
X134498996Y-82120513D01*
X134597068Y-81883747D01*
X134602766Y-81875220D01*
X134739447Y-81670661D01*
X134920661Y-81489447D01*
X135133745Y-81347069D01*
X135133747Y-81347068D01*
X135370513Y-81248996D01*
X135621861Y-81199000D01*
X135878139Y-81199000D01*
X136129487Y-81248996D01*
G37*
G36*
X96159928Y-82536764D02*
G01*
X96181009Y-82543160D01*
X96200445Y-82553548D01*
X96217476Y-82567524D01*
X96231452Y-82584555D01*
X96241840Y-82603991D01*
X96248236Y-82625072D01*
X96251000Y-82653140D01*
X96251000Y-83116860D01*
X96248236Y-83144928D01*
X96241840Y-83166009D01*
X96231452Y-83185445D01*
X96217476Y-83202476D01*
X96200445Y-83216452D01*
X96181009Y-83226840D01*
X96159928Y-83233236D01*
X96131860Y-83236000D01*
X94318140Y-83236000D01*
X94290072Y-83233236D01*
X94268991Y-83226840D01*
X94249555Y-83216452D01*
X94232524Y-83202476D01*
X94218548Y-83185445D01*
X94208160Y-83166009D01*
X94201764Y-83144928D01*
X94199000Y-83116860D01*
X94199000Y-82653140D01*
X94201764Y-82625072D01*
X94208160Y-82603991D01*
X94218548Y-82584555D01*
X94232524Y-82567524D01*
X94249555Y-82553548D01*
X94268991Y-82543160D01*
X94290072Y-82536764D01*
X94318140Y-82534000D01*
X96131860Y-82534000D01*
X96159928Y-82536764D01*
G37*
G36*
X91209928Y-82536764D02*
G01*
X91231009Y-82543160D01*
X91250445Y-82553548D01*
X91267476Y-82567524D01*
X91281452Y-82584555D01*
X91291840Y-82603991D01*
X91298236Y-82625072D01*
X91301000Y-82653140D01*
X91301000Y-83116860D01*
X91298236Y-83144928D01*
X91291840Y-83166009D01*
X91281452Y-83185445D01*
X91267476Y-83202476D01*
X91250445Y-83216452D01*
X91231009Y-83226840D01*
X91209928Y-83233236D01*
X91181860Y-83236000D01*
X89368140Y-83236000D01*
X89340072Y-83233236D01*
X89318991Y-83226840D01*
X89299555Y-83216452D01*
X89282524Y-83202476D01*
X89268548Y-83185445D01*
X89258160Y-83166009D01*
X89251764Y-83144928D01*
X89249000Y-83116860D01*
X89249000Y-82653140D01*
X89251764Y-82625072D01*
X89258160Y-82603991D01*
X89268548Y-82584555D01*
X89282524Y-82567524D01*
X89299555Y-82553548D01*
X89318991Y-82543160D01*
X89340072Y-82536764D01*
X89368140Y-82534000D01*
X91181860Y-82534000D01*
X91209928Y-82536764D01*
G37*
G36*
X160786181Y-79895539D02*
G01*
X160952410Y-79928604D01*
X161234674Y-80045521D01*
X161488705Y-80215259D01*
X161704741Y-80431295D01*
X161874479Y-80685326D01*
X161991396Y-80967590D01*
X161995534Y-80988393D01*
X162050906Y-81266764D01*
X162051000Y-81267240D01*
X162051000Y-81572760D01*
X161991396Y-81872410D01*
X161874479Y-82154674D01*
X161704741Y-82408705D01*
X161488705Y-82624741D01*
X161234674Y-82794479D01*
X160952410Y-82911396D01*
X160802585Y-82941198D01*
X160652761Y-82971000D01*
X160347239Y-82971000D01*
X160197415Y-82941198D01*
X160047590Y-82911396D01*
X159765326Y-82794479D01*
X159511295Y-82624741D01*
X159295259Y-82408705D01*
X159125521Y-82154674D01*
X159008604Y-81872410D01*
X158949000Y-81572760D01*
X158949000Y-81267240D01*
X158949095Y-81266764D01*
X159004466Y-80988393D01*
X159008604Y-80967590D01*
X159125521Y-80685326D01*
X159295259Y-80431295D01*
X159511295Y-80215259D01*
X159765326Y-80045521D01*
X160047590Y-79928604D01*
X160213819Y-79895539D01*
X160347239Y-79869000D01*
X160652761Y-79869000D01*
X160786181Y-79895539D01*
G37*
G36*
X101592091Y-81728085D02*
G01*
X101626069Y-81738393D01*
X101657390Y-81755134D01*
X101684839Y-81777661D01*
X101707366Y-81805110D01*
X101724107Y-81836431D01*
X101734415Y-81870409D01*
X101738500Y-81911890D01*
X101738500Y-82588110D01*
X101734415Y-82629591D01*
X101724107Y-82663569D01*
X101707366Y-82694890D01*
X101684839Y-82722339D01*
X101657390Y-82744866D01*
X101626069Y-82761607D01*
X101592091Y-82771915D01*
X101550610Y-82776000D01*
X100949390Y-82776000D01*
X100907909Y-82771915D01*
X100873931Y-82761607D01*
X100842610Y-82744866D01*
X100815161Y-82722339D01*
X100792634Y-82694890D01*
X100775893Y-82663569D01*
X100765585Y-82629591D01*
X100761500Y-82588110D01*
X100761500Y-81911890D01*
X100765585Y-81870409D01*
X100775893Y-81836431D01*
X100792634Y-81805110D01*
X100815161Y-81777661D01*
X100842610Y-81755134D01*
X100873931Y-81738393D01*
X100907909Y-81728085D01*
X100949390Y-81724000D01*
X101550610Y-81724000D01*
X101592091Y-81728085D01*
G37*
G36*
X100017091Y-81728085D02*
G01*
X100051069Y-81738393D01*
X100082390Y-81755134D01*
X100109839Y-81777661D01*
X100132366Y-81805110D01*
X100149107Y-81836431D01*
X100159415Y-81870409D01*
X100163500Y-81911890D01*
X100163500Y-82588110D01*
X100159415Y-82629591D01*
X100149107Y-82663569D01*
X100132366Y-82694890D01*
X100109839Y-82722339D01*
X100082390Y-82744866D01*
X100051069Y-82761607D01*
X100017091Y-82771915D01*
X99975610Y-82776000D01*
X99374390Y-82776000D01*
X99332909Y-82771915D01*
X99298931Y-82761607D01*
X99267610Y-82744866D01*
X99240161Y-82722339D01*
X99217634Y-82694890D01*
X99200893Y-82663569D01*
X99190585Y-82629591D01*
X99186500Y-82588110D01*
X99186500Y-81911890D01*
X99190585Y-81870409D01*
X99200893Y-81836431D01*
X99217634Y-81805110D01*
X99240161Y-81777661D01*
X99267610Y-81755134D01*
X99298931Y-81738393D01*
X99332909Y-81728085D01*
X99374390Y-81724000D01*
X99975610Y-81724000D01*
X100017091Y-81728085D01*
G37*
G36*
X108501000Y-82676000D02*
G01*
X107299000Y-82676000D01*
X107299000Y-80324000D01*
X108501000Y-80324000D01*
X108501000Y-82676000D01*
G37*
G36*
X104201000Y-82676000D02*
G01*
X102999000Y-82676000D01*
X102999000Y-80324000D01*
X104201000Y-80324000D01*
X104201000Y-82676000D01*
G37*
G36*
X111379591Y-80978085D02*
G01*
X111413569Y-80988393D01*
X111444890Y-81005134D01*
X111472339Y-81027661D01*
X111494866Y-81055110D01*
X111511607Y-81086431D01*
X111521915Y-81120409D01*
X111526000Y-81161890D01*
X111526000Y-81838110D01*
X111521915Y-81879591D01*
X111511607Y-81913569D01*
X111494866Y-81944890D01*
X111472339Y-81972339D01*
X111444890Y-81994866D01*
X111413569Y-82011607D01*
X111379591Y-82021915D01*
X111338110Y-82026000D01*
X110736890Y-82026000D01*
X110695409Y-82021915D01*
X110661431Y-82011607D01*
X110630110Y-81994866D01*
X110602661Y-81972339D01*
X110580134Y-81944890D01*
X110563393Y-81913569D01*
X110553085Y-81879591D01*
X110549000Y-81838110D01*
X110549000Y-81161890D01*
X110553085Y-81120409D01*
X110563393Y-81086431D01*
X110580134Y-81055110D01*
X110602661Y-81027661D01*
X110630110Y-81005134D01*
X110661431Y-80988393D01*
X110695409Y-80978085D01*
X110736890Y-80974000D01*
X111338110Y-80974000D01*
X111379591Y-80978085D01*
G37*
G36*
X109804591Y-80978085D02*
G01*
X109838569Y-80988393D01*
X109869890Y-81005134D01*
X109897339Y-81027661D01*
X109919866Y-81055110D01*
X109936607Y-81086431D01*
X109946915Y-81120409D01*
X109951000Y-81161890D01*
X109951000Y-81838110D01*
X109946915Y-81879591D01*
X109936607Y-81913569D01*
X109919866Y-81944890D01*
X109897339Y-81972339D01*
X109869890Y-81994866D01*
X109838569Y-82011607D01*
X109804591Y-82021915D01*
X109763110Y-82026000D01*
X109161890Y-82026000D01*
X109120409Y-82021915D01*
X109086431Y-82011607D01*
X109055110Y-81994866D01*
X109027661Y-81972339D01*
X109005134Y-81944890D01*
X108988393Y-81913569D01*
X108978085Y-81879591D01*
X108974000Y-81838110D01*
X108974000Y-81161890D01*
X108978085Y-81120409D01*
X108988393Y-81086431D01*
X109005134Y-81055110D01*
X109027661Y-81027661D01*
X109055110Y-81005134D01*
X109086431Y-80988393D01*
X109120409Y-80978085D01*
X109161890Y-80974000D01*
X109763110Y-80974000D01*
X109804591Y-80978085D01*
G37*
G36*
X91209928Y-81266764D02*
G01*
X91231009Y-81273160D01*
X91250445Y-81283548D01*
X91267476Y-81297524D01*
X91281452Y-81314555D01*
X91291840Y-81333991D01*
X91298236Y-81355072D01*
X91301000Y-81383140D01*
X91301000Y-81846860D01*
X91298236Y-81874928D01*
X91291840Y-81896009D01*
X91281452Y-81915445D01*
X91267476Y-81932476D01*
X91250445Y-81946452D01*
X91231009Y-81956840D01*
X91209928Y-81963236D01*
X91181860Y-81966000D01*
X89368140Y-81966000D01*
X89340072Y-81963236D01*
X89318991Y-81956840D01*
X89299555Y-81946452D01*
X89282524Y-81932476D01*
X89268548Y-81915445D01*
X89258160Y-81896009D01*
X89251764Y-81874928D01*
X89249000Y-81846860D01*
X89249000Y-81383140D01*
X89251764Y-81355072D01*
X89258160Y-81333991D01*
X89268548Y-81314555D01*
X89282524Y-81297524D01*
X89299555Y-81283548D01*
X89318991Y-81273160D01*
X89340072Y-81266764D01*
X89368140Y-81264000D01*
X91181860Y-81264000D01*
X91209928Y-81266764D01*
G37*
G36*
X96159928Y-81266764D02*
G01*
X96181009Y-81273160D01*
X96200445Y-81283548D01*
X96217476Y-81297524D01*
X96231452Y-81314555D01*
X96241840Y-81333991D01*
X96248236Y-81355072D01*
X96251000Y-81383140D01*
X96251000Y-81846860D01*
X96248236Y-81874928D01*
X96241840Y-81896009D01*
X96231452Y-81915445D01*
X96217476Y-81932476D01*
X96200445Y-81946452D01*
X96181009Y-81956840D01*
X96159928Y-81963236D01*
X96131860Y-81966000D01*
X94318140Y-81966000D01*
X94290072Y-81963236D01*
X94268991Y-81956840D01*
X94249555Y-81946452D01*
X94232524Y-81932476D01*
X94218548Y-81915445D01*
X94208160Y-81896009D01*
X94201764Y-81874928D01*
X94199000Y-81846860D01*
X94199000Y-81383140D01*
X94201764Y-81355072D01*
X94208160Y-81333991D01*
X94218548Y-81314555D01*
X94232524Y-81297524D01*
X94249555Y-81283548D01*
X94268991Y-81273160D01*
X94290072Y-81266764D01*
X94318140Y-81264000D01*
X96131860Y-81264000D01*
X96159928Y-81266764D01*
G37*
G36*
X101617091Y-79828085D02*
G01*
X101651069Y-79838393D01*
X101682390Y-79855134D01*
X101709839Y-79877661D01*
X101732366Y-79905110D01*
X101749107Y-79936431D01*
X101759415Y-79970409D01*
X101763500Y-80011890D01*
X101763500Y-80688110D01*
X101759415Y-80729591D01*
X101749107Y-80763569D01*
X101732366Y-80794890D01*
X101709839Y-80822339D01*
X101682390Y-80844866D01*
X101651069Y-80861607D01*
X101617091Y-80871915D01*
X101575610Y-80876000D01*
X100974390Y-80876000D01*
X100932909Y-80871915D01*
X100898931Y-80861607D01*
X100867610Y-80844866D01*
X100840161Y-80822339D01*
X100817634Y-80794890D01*
X100800893Y-80763569D01*
X100790585Y-80729591D01*
X100786500Y-80688110D01*
X100786500Y-80011890D01*
X100790585Y-79970409D01*
X100800893Y-79936431D01*
X100817634Y-79905110D01*
X100840161Y-79877661D01*
X100867610Y-79855134D01*
X100898931Y-79838393D01*
X100932909Y-79828085D01*
X100974390Y-79824000D01*
X101575610Y-79824000D01*
X101617091Y-79828085D01*
G37*
G36*
X100042091Y-79828085D02*
G01*
X100076069Y-79838393D01*
X100107390Y-79855134D01*
X100134839Y-79877661D01*
X100157366Y-79905110D01*
X100174107Y-79936431D01*
X100184415Y-79970409D01*
X100188500Y-80011890D01*
X100188500Y-80688110D01*
X100184415Y-80729591D01*
X100174107Y-80763569D01*
X100157366Y-80794890D01*
X100134839Y-80822339D01*
X100107390Y-80844866D01*
X100076069Y-80861607D01*
X100042091Y-80871915D01*
X100000610Y-80876000D01*
X99399390Y-80876000D01*
X99357909Y-80871915D01*
X99323931Y-80861607D01*
X99292610Y-80844866D01*
X99265161Y-80822339D01*
X99242634Y-80794890D01*
X99225893Y-80763569D01*
X99215585Y-80729591D01*
X99211500Y-80688110D01*
X99211500Y-80011890D01*
X99215585Y-79970409D01*
X99225893Y-79936431D01*
X99242634Y-79905110D01*
X99265161Y-79877661D01*
X99292610Y-79855134D01*
X99323931Y-79838393D01*
X99357909Y-79828085D01*
X99399390Y-79824000D01*
X100000610Y-79824000D01*
X100042091Y-79828085D01*
G37*
G36*
X120304591Y-79728085D02*
G01*
X120338569Y-79738393D01*
X120369890Y-79755134D01*
X120397339Y-79777661D01*
X120419866Y-79805110D01*
X120436607Y-79836431D01*
X120446915Y-79870409D01*
X120451000Y-79911890D01*
X120451000Y-80588110D01*
X120446915Y-80629591D01*
X120436607Y-80663569D01*
X120419866Y-80694890D01*
X120397339Y-80722339D01*
X120369890Y-80744866D01*
X120338569Y-80761607D01*
X120304591Y-80771915D01*
X120263110Y-80776000D01*
X119661890Y-80776000D01*
X119620409Y-80771915D01*
X119586431Y-80761607D01*
X119555110Y-80744866D01*
X119527661Y-80722339D01*
X119505134Y-80694890D01*
X119488393Y-80663569D01*
X119478085Y-80629591D01*
X119474000Y-80588110D01*
X119474000Y-79911890D01*
X119478085Y-79870409D01*
X119488393Y-79836431D01*
X119505134Y-79805110D01*
X119527661Y-79777661D01*
X119555110Y-79755134D01*
X119586431Y-79738393D01*
X119620409Y-79728085D01*
X119661890Y-79724000D01*
X120263110Y-79724000D01*
X120304591Y-79728085D01*
G37*
G36*
X121879591Y-79728085D02*
G01*
X121913569Y-79738393D01*
X121944890Y-79755134D01*
X121972339Y-79777661D01*
X121994866Y-79805110D01*
X122011607Y-79836431D01*
X122021915Y-79870409D01*
X122026000Y-79911890D01*
X122026000Y-80588110D01*
X122021915Y-80629591D01*
X122011607Y-80663569D01*
X121994866Y-80694890D01*
X121972339Y-80722339D01*
X121944890Y-80744866D01*
X121913569Y-80761607D01*
X121879591Y-80771915D01*
X121838110Y-80776000D01*
X121236890Y-80776000D01*
X121195409Y-80771915D01*
X121161431Y-80761607D01*
X121130110Y-80744866D01*
X121102661Y-80722339D01*
X121080134Y-80694890D01*
X121063393Y-80663569D01*
X121053085Y-80629591D01*
X121049000Y-80588110D01*
X121049000Y-79911890D01*
X121053085Y-79870409D01*
X121063393Y-79836431D01*
X121080134Y-79805110D01*
X121102661Y-79777661D01*
X121130110Y-79755134D01*
X121161431Y-79738393D01*
X121195409Y-79728085D01*
X121236890Y-79724000D01*
X121838110Y-79724000D01*
X121879591Y-79728085D01*
G37*
G36*
X96159928Y-79996764D02*
G01*
X96181009Y-80003160D01*
X96200445Y-80013548D01*
X96217476Y-80027524D01*
X96231452Y-80044555D01*
X96241840Y-80063991D01*
X96248236Y-80085072D01*
X96251000Y-80113140D01*
X96251000Y-80576860D01*
X96248236Y-80604928D01*
X96241840Y-80626009D01*
X96231452Y-80645445D01*
X96217476Y-80662476D01*
X96200445Y-80676452D01*
X96181009Y-80686840D01*
X96159928Y-80693236D01*
X96131860Y-80696000D01*
X94318140Y-80696000D01*
X94290072Y-80693236D01*
X94268991Y-80686840D01*
X94249555Y-80676452D01*
X94232524Y-80662476D01*
X94218548Y-80645445D01*
X94208160Y-80626009D01*
X94201764Y-80604928D01*
X94199000Y-80576860D01*
X94199000Y-80113140D01*
X94201764Y-80085072D01*
X94208160Y-80063991D01*
X94218548Y-80044555D01*
X94232524Y-80027524D01*
X94249555Y-80013548D01*
X94268991Y-80003160D01*
X94290072Y-79996764D01*
X94318140Y-79994000D01*
X96131860Y-79994000D01*
X96159928Y-79996764D01*
G37*
G36*
X91209928Y-79996764D02*
G01*
X91231009Y-80003160D01*
X91250445Y-80013548D01*
X91267476Y-80027524D01*
X91281452Y-80044555D01*
X91291840Y-80063991D01*
X91298236Y-80085072D01*
X91301000Y-80113140D01*
X91301000Y-80576860D01*
X91298236Y-80604928D01*
X91291840Y-80626009D01*
X91281452Y-80645445D01*
X91267476Y-80662476D01*
X91250445Y-80676452D01*
X91231009Y-80686840D01*
X91209928Y-80693236D01*
X91181860Y-80696000D01*
X89368140Y-80696000D01*
X89340072Y-80693236D01*
X89318991Y-80686840D01*
X89299555Y-80676452D01*
X89282524Y-80662476D01*
X89268548Y-80645445D01*
X89258160Y-80626009D01*
X89251764Y-80604928D01*
X89249000Y-80576860D01*
X89249000Y-80113140D01*
X89251764Y-80085072D01*
X89258160Y-80063991D01*
X89268548Y-80044555D01*
X89282524Y-80027524D01*
X89299555Y-80013548D01*
X89318991Y-80003160D01*
X89340072Y-79996764D01*
X89368140Y-79994000D01*
X91181860Y-79994000D01*
X91209928Y-79996764D01*
G37*
G36*
X128951000Y-79951000D02*
G01*
X126549000Y-79951000D01*
X126549000Y-77349000D01*
X128951000Y-77349000D01*
X128951000Y-79951000D01*
G37*
G36*
X96379591Y-78228085D02*
G01*
X96413569Y-78238393D01*
X96444890Y-78255134D01*
X96472339Y-78277661D01*
X96494866Y-78305110D01*
X96511607Y-78336431D01*
X96521915Y-78370409D01*
X96526000Y-78411890D01*
X96526000Y-79088110D01*
X96521915Y-79129591D01*
X96511607Y-79163569D01*
X96494866Y-79194890D01*
X96472339Y-79222339D01*
X96444890Y-79244866D01*
X96413569Y-79261607D01*
X96379591Y-79271915D01*
X96338110Y-79276000D01*
X95736890Y-79276000D01*
X95695409Y-79271915D01*
X95661431Y-79261607D01*
X95630110Y-79244866D01*
X95602661Y-79222339D01*
X95580134Y-79194890D01*
X95563393Y-79163569D01*
X95553085Y-79129591D01*
X95549000Y-79088110D01*
X95549000Y-78411890D01*
X95553085Y-78370409D01*
X95563393Y-78336431D01*
X95580134Y-78305110D01*
X95602661Y-78277661D01*
X95630110Y-78255134D01*
X95661431Y-78238393D01*
X95695409Y-78228085D01*
X95736890Y-78224000D01*
X96338110Y-78224000D01*
X96379591Y-78228085D01*
G37*
G36*
X94804591Y-78228085D02*
G01*
X94838569Y-78238393D01*
X94869890Y-78255134D01*
X94897339Y-78277661D01*
X94919866Y-78305110D01*
X94936607Y-78336431D01*
X94946915Y-78370409D01*
X94951000Y-78411890D01*
X94951000Y-79088110D01*
X94946915Y-79129591D01*
X94936607Y-79163569D01*
X94919866Y-79194890D01*
X94897339Y-79222339D01*
X94869890Y-79244866D01*
X94838569Y-79261607D01*
X94804591Y-79271915D01*
X94763110Y-79276000D01*
X94161890Y-79276000D01*
X94120409Y-79271915D01*
X94086431Y-79261607D01*
X94055110Y-79244866D01*
X94027661Y-79222339D01*
X94005134Y-79194890D01*
X93988393Y-79163569D01*
X93978085Y-79129591D01*
X93974000Y-79088110D01*
X93974000Y-78411890D01*
X93978085Y-78370409D01*
X93988393Y-78336431D01*
X94005134Y-78305110D01*
X94027661Y-78277661D01*
X94055110Y-78255134D01*
X94086431Y-78238393D01*
X94120409Y-78228085D01*
X94161890Y-78224000D01*
X94763110Y-78224000D01*
X94804591Y-78228085D01*
G37*
G36*
X80651000Y-79101000D02*
G01*
X78549000Y-79101000D01*
X78549000Y-77499000D01*
X80651000Y-77499000D01*
X80651000Y-79101000D01*
G37*
G36*
X75379591Y-77728085D02*
G01*
X75413569Y-77738393D01*
X75444890Y-77755134D01*
X75472339Y-77777661D01*
X75494866Y-77805110D01*
X75511607Y-77836431D01*
X75521915Y-77870409D01*
X75526000Y-77911890D01*
X75526000Y-78588110D01*
X75521915Y-78629591D01*
X75511607Y-78663569D01*
X75494866Y-78694890D01*
X75472339Y-78722339D01*
X75444890Y-78744866D01*
X75413569Y-78761607D01*
X75379591Y-78771915D01*
X75338110Y-78776000D01*
X74736890Y-78776000D01*
X74695409Y-78771915D01*
X74661431Y-78761607D01*
X74630110Y-78744866D01*
X74602661Y-78722339D01*
X74580134Y-78694890D01*
X74563393Y-78663569D01*
X74553085Y-78629591D01*
X74549000Y-78588110D01*
X74549000Y-77911890D01*
X74553085Y-77870409D01*
X74563393Y-77836431D01*
X74580134Y-77805110D01*
X74602661Y-77777661D01*
X74630110Y-77755134D01*
X74661431Y-77738393D01*
X74695409Y-77728085D01*
X74736890Y-77724000D01*
X75338110Y-77724000D01*
X75379591Y-77728085D01*
G37*
G36*
X73804591Y-77728085D02*
G01*
X73838569Y-77738393D01*
X73869890Y-77755134D01*
X73897339Y-77777661D01*
X73919866Y-77805110D01*
X73936607Y-77836431D01*
X73946915Y-77870409D01*
X73951000Y-77911890D01*
X73951000Y-78588110D01*
X73946915Y-78629591D01*
X73936607Y-78663569D01*
X73919866Y-78694890D01*
X73897339Y-78722339D01*
X73869890Y-78744866D01*
X73838569Y-78761607D01*
X73804591Y-78771915D01*
X73763110Y-78776000D01*
X73161890Y-78776000D01*
X73120409Y-78771915D01*
X73086431Y-78761607D01*
X73055110Y-78744866D01*
X73027661Y-78722339D01*
X73005134Y-78694890D01*
X72988393Y-78663569D01*
X72978085Y-78629591D01*
X72974000Y-78588110D01*
X72974000Y-77911890D01*
X72978085Y-77870409D01*
X72988393Y-77836431D01*
X73005134Y-77805110D01*
X73027661Y-77777661D01*
X73055110Y-77755134D01*
X73086431Y-77738393D01*
X73120409Y-77728085D01*
X73161890Y-77724000D01*
X73763110Y-77724000D01*
X73804591Y-77728085D01*
G37*
G36*
X106879591Y-77728085D02*
G01*
X106913569Y-77738393D01*
X106944890Y-77755134D01*
X106972339Y-77777661D01*
X106994866Y-77805110D01*
X107011607Y-77836431D01*
X107021915Y-77870409D01*
X107026000Y-77911890D01*
X107026000Y-78588110D01*
X107021915Y-78629591D01*
X107011607Y-78663569D01*
X106994866Y-78694890D01*
X106972339Y-78722339D01*
X106944890Y-78744866D01*
X106913569Y-78761607D01*
X106879591Y-78771915D01*
X106838110Y-78776000D01*
X106236890Y-78776000D01*
X106195409Y-78771915D01*
X106161431Y-78761607D01*
X106130110Y-78744866D01*
X106102661Y-78722339D01*
X106080134Y-78694890D01*
X106063393Y-78663569D01*
X106053085Y-78629591D01*
X106049000Y-78588110D01*
X106049000Y-77911890D01*
X106053085Y-77870409D01*
X106063393Y-77836431D01*
X106080134Y-77805110D01*
X106102661Y-77777661D01*
X106130110Y-77755134D01*
X106161431Y-77738393D01*
X106195409Y-77728085D01*
X106236890Y-77724000D01*
X106838110Y-77724000D01*
X106879591Y-77728085D01*
G37*
G36*
X105304591Y-77728085D02*
G01*
X105338569Y-77738393D01*
X105369890Y-77755134D01*
X105397339Y-77777661D01*
X105419866Y-77805110D01*
X105436607Y-77836431D01*
X105446915Y-77870409D01*
X105451000Y-77911890D01*
X105451000Y-78588110D01*
X105446915Y-78629591D01*
X105436607Y-78663569D01*
X105419866Y-78694890D01*
X105397339Y-78722339D01*
X105369890Y-78744866D01*
X105338569Y-78761607D01*
X105304591Y-78771915D01*
X105263110Y-78776000D01*
X104661890Y-78776000D01*
X104620409Y-78771915D01*
X104586431Y-78761607D01*
X104555110Y-78744866D01*
X104527661Y-78722339D01*
X104505134Y-78694890D01*
X104488393Y-78663569D01*
X104478085Y-78629591D01*
X104474000Y-78588110D01*
X104474000Y-77911890D01*
X104478085Y-77870409D01*
X104488393Y-77836431D01*
X104505134Y-77805110D01*
X104527661Y-77777661D01*
X104555110Y-77755134D01*
X104586431Y-77738393D01*
X104620409Y-77728085D01*
X104661890Y-77724000D01*
X105263110Y-77724000D01*
X105304591Y-77728085D01*
G37*
G36*
X123368228Y-76971703D02*
G01*
X123523100Y-77035853D01*
X123662481Y-77128985D01*
X123781015Y-77247519D01*
X123874147Y-77386900D01*
X123938297Y-77541772D01*
X123971000Y-77706184D01*
X123971000Y-77873816D01*
X123938297Y-78038228D01*
X123874147Y-78193100D01*
X123781015Y-78332481D01*
X123662481Y-78451015D01*
X123523100Y-78544147D01*
X123368228Y-78608297D01*
X123203816Y-78641000D01*
X123036184Y-78641000D01*
X122871772Y-78608297D01*
X122716900Y-78544147D01*
X122577519Y-78451015D01*
X122458985Y-78332481D01*
X122365853Y-78193100D01*
X122301703Y-78038228D01*
X122269000Y-77873816D01*
X122269000Y-77706184D01*
X122301703Y-77541772D01*
X122365853Y-77386900D01*
X122458985Y-77247519D01*
X122577519Y-77128985D01*
X122716900Y-77035853D01*
X122871772Y-76971703D01*
X123036184Y-76939000D01*
X123203816Y-76939000D01*
X123368228Y-76971703D01*
G37*
G36*
X115748228Y-76971703D02*
G01*
X115903100Y-77035853D01*
X116042481Y-77128985D01*
X116161015Y-77247519D01*
X116254147Y-77386900D01*
X116318297Y-77541772D01*
X116351000Y-77706184D01*
X116351000Y-77873816D01*
X116318297Y-78038228D01*
X116254147Y-78193100D01*
X116161015Y-78332481D01*
X116042481Y-78451015D01*
X115903100Y-78544147D01*
X115748228Y-78608297D01*
X115583816Y-78641000D01*
X115416184Y-78641000D01*
X115251772Y-78608297D01*
X115096900Y-78544147D01*
X114957519Y-78451015D01*
X114838985Y-78332481D01*
X114745853Y-78193100D01*
X114681703Y-78038228D01*
X114649000Y-77873816D01*
X114649000Y-77706184D01*
X114681703Y-77541772D01*
X114745853Y-77386900D01*
X114838985Y-77247519D01*
X114957519Y-77128985D01*
X115096900Y-77035853D01*
X115251772Y-76971703D01*
X115416184Y-76939000D01*
X115583816Y-76939000D01*
X115748228Y-76971703D01*
G37*
G36*
X86951000Y-77951000D02*
G01*
X84849000Y-77951000D01*
X84849000Y-74049000D01*
X86951000Y-74049000D01*
X86951000Y-77951000D01*
G37*
G36*
X160733751Y-74805110D02*
G01*
X160952410Y-74848604D01*
X161234674Y-74965521D01*
X161488705Y-75135259D01*
X161704741Y-75351295D01*
X161874479Y-75605326D01*
X161991396Y-75887590D01*
X161998969Y-75925661D01*
X162051000Y-76187239D01*
X162051000Y-76492761D01*
X162047251Y-76511607D01*
X161991396Y-76792410D01*
X161874479Y-77074674D01*
X161704741Y-77328705D01*
X161488705Y-77544741D01*
X161234674Y-77714479D01*
X160952410Y-77831396D01*
X160802585Y-77861198D01*
X160652761Y-77891000D01*
X160347239Y-77891000D01*
X160197415Y-77861198D01*
X160047590Y-77831396D01*
X159765326Y-77714479D01*
X159511295Y-77544741D01*
X159295259Y-77328705D01*
X159125521Y-77074674D01*
X159008604Y-76792410D01*
X158952749Y-76511607D01*
X158949000Y-76492761D01*
X158949000Y-76187239D01*
X159001031Y-75925661D01*
X159008604Y-75887590D01*
X159125521Y-75605326D01*
X159295259Y-75351295D01*
X159511295Y-75135259D01*
X159765326Y-74965521D01*
X160047590Y-74848604D01*
X160266249Y-74805110D01*
X160347239Y-74789000D01*
X160652761Y-74789000D01*
X160733751Y-74805110D01*
G37*
G36*
X135051000Y-77801000D02*
G01*
X132449000Y-77801000D01*
X132449000Y-75199000D01*
X135051000Y-75199000D01*
X135051000Y-77801000D01*
G37*
G36*
X110879591Y-76728085D02*
G01*
X110913569Y-76738393D01*
X110944890Y-76755134D01*
X110972339Y-76777661D01*
X110994866Y-76805110D01*
X111011607Y-76836431D01*
X111021915Y-76870409D01*
X111026000Y-76911890D01*
X111026000Y-77588110D01*
X111021915Y-77629591D01*
X111011607Y-77663569D01*
X110994866Y-77694890D01*
X110972339Y-77722339D01*
X110944890Y-77744866D01*
X110913569Y-77761607D01*
X110879591Y-77771915D01*
X110838110Y-77776000D01*
X110236890Y-77776000D01*
X110195409Y-77771915D01*
X110161431Y-77761607D01*
X110130110Y-77744866D01*
X110102661Y-77722339D01*
X110080134Y-77694890D01*
X110063393Y-77663569D01*
X110053085Y-77629591D01*
X110049000Y-77588110D01*
X110049000Y-76911890D01*
X110053085Y-76870409D01*
X110063393Y-76836431D01*
X110080134Y-76805110D01*
X110102661Y-76777661D01*
X110130110Y-76755134D01*
X110161431Y-76738393D01*
X110195409Y-76728085D01*
X110236890Y-76724000D01*
X110838110Y-76724000D01*
X110879591Y-76728085D01*
G37*
G36*
X109304591Y-76728085D02*
G01*
X109338569Y-76738393D01*
X109369890Y-76755134D01*
X109397339Y-76777661D01*
X109419866Y-76805110D01*
X109436607Y-76836431D01*
X109446915Y-76870409D01*
X109451000Y-76911890D01*
X109451000Y-77588110D01*
X109446915Y-77629591D01*
X109436607Y-77663569D01*
X109419866Y-77694890D01*
X109397339Y-77722339D01*
X109369890Y-77744866D01*
X109338569Y-77761607D01*
X109304591Y-77771915D01*
X109263110Y-77776000D01*
X108661890Y-77776000D01*
X108620409Y-77771915D01*
X108586431Y-77761607D01*
X108555110Y-77744866D01*
X108527661Y-77722339D01*
X108505134Y-77694890D01*
X108488393Y-77663569D01*
X108478085Y-77629591D01*
X108474000Y-77588110D01*
X108474000Y-76911890D01*
X108478085Y-76870409D01*
X108488393Y-76836431D01*
X108505134Y-76805110D01*
X108527661Y-76777661D01*
X108555110Y-76755134D01*
X108586431Y-76738393D01*
X108620409Y-76728085D01*
X108661890Y-76724000D01*
X109263110Y-76724000D01*
X109304591Y-76728085D01*
G37*
G36*
X99670295Y-75375323D02*
G01*
X99677309Y-75377451D01*
X99691077Y-75384810D01*
X99713716Y-75394187D01*
X99737749Y-75398967D01*
X99762253Y-75398967D01*
X99786286Y-75394186D01*
X99808923Y-75384810D01*
X99822691Y-75377451D01*
X99829705Y-75375323D01*
X99843140Y-75374000D01*
X100156860Y-75374000D01*
X100170295Y-75375323D01*
X100177309Y-75377451D01*
X100191077Y-75384810D01*
X100213716Y-75394187D01*
X100237749Y-75398967D01*
X100262253Y-75398967D01*
X100286286Y-75394186D01*
X100308923Y-75384810D01*
X100322691Y-75377451D01*
X100329705Y-75375323D01*
X100343140Y-75374000D01*
X100656860Y-75374000D01*
X100670295Y-75375323D01*
X100677309Y-75377451D01*
X100691077Y-75384810D01*
X100713716Y-75394187D01*
X100737749Y-75398967D01*
X100762253Y-75398967D01*
X100786286Y-75394186D01*
X100808923Y-75384810D01*
X100822691Y-75377451D01*
X100829705Y-75375323D01*
X100843140Y-75374000D01*
X101156860Y-75374000D01*
X101170295Y-75375323D01*
X101177309Y-75377451D01*
X101191077Y-75384810D01*
X101213716Y-75394187D01*
X101237749Y-75398967D01*
X101262253Y-75398967D01*
X101286286Y-75394186D01*
X101308923Y-75384810D01*
X101322691Y-75377451D01*
X101329705Y-75375323D01*
X101343140Y-75374000D01*
X101656860Y-75374000D01*
X101670295Y-75375323D01*
X101677309Y-75377451D01*
X101691077Y-75384810D01*
X101713716Y-75394187D01*
X101737749Y-75398967D01*
X101762253Y-75398967D01*
X101786286Y-75394186D01*
X101808923Y-75384810D01*
X101822691Y-75377451D01*
X101829705Y-75375323D01*
X101843140Y-75374000D01*
X102156860Y-75374000D01*
X102170295Y-75375323D01*
X102177309Y-75377451D01*
X102191077Y-75384810D01*
X102213716Y-75394187D01*
X102237749Y-75398967D01*
X102262253Y-75398967D01*
X102286286Y-75394186D01*
X102308923Y-75384810D01*
X102322691Y-75377451D01*
X102329705Y-75375323D01*
X102343140Y-75374000D01*
X102656860Y-75374000D01*
X102670295Y-75375323D01*
X102677309Y-75377451D01*
X102691077Y-75384810D01*
X102713716Y-75394187D01*
X102737749Y-75398967D01*
X102762253Y-75398967D01*
X102786286Y-75394186D01*
X102808923Y-75384810D01*
X102822691Y-75377451D01*
X102829705Y-75375323D01*
X102843140Y-75374000D01*
X103156860Y-75374000D01*
X103170295Y-75375323D01*
X103177309Y-75377451D01*
X103191077Y-75384810D01*
X103213716Y-75394187D01*
X103237749Y-75398967D01*
X103262253Y-75398967D01*
X103286286Y-75394186D01*
X103308923Y-75384810D01*
X103322691Y-75377451D01*
X103329705Y-75375323D01*
X103343140Y-75374000D01*
X103656860Y-75374000D01*
X103670295Y-75375323D01*
X103677309Y-75377451D01*
X103691077Y-75384810D01*
X103713716Y-75394187D01*
X103737749Y-75398967D01*
X103762253Y-75398967D01*
X103786286Y-75394186D01*
X103808923Y-75384810D01*
X103822691Y-75377451D01*
X103829705Y-75375323D01*
X103843140Y-75374000D01*
X104156860Y-75374000D01*
X104170295Y-75375323D01*
X104177309Y-75377451D01*
X104191077Y-75384810D01*
X104213716Y-75394187D01*
X104237749Y-75398967D01*
X104262253Y-75398967D01*
X104286286Y-75394186D01*
X104308923Y-75384810D01*
X104322691Y-75377451D01*
X104329705Y-75375323D01*
X104343140Y-75374000D01*
X104656860Y-75374000D01*
X104670295Y-75375323D01*
X104677309Y-75377451D01*
X104691077Y-75384810D01*
X104713716Y-75394187D01*
X104737749Y-75398967D01*
X104762253Y-75398967D01*
X104786286Y-75394186D01*
X104808923Y-75384810D01*
X104822691Y-75377451D01*
X104829705Y-75375323D01*
X104843140Y-75374000D01*
X105156860Y-75374000D01*
X105170295Y-75375323D01*
X105177310Y-75377451D01*
X105183776Y-75380908D01*
X105189442Y-75385558D01*
X105194092Y-75391224D01*
X105197549Y-75397690D01*
X105199677Y-75404705D01*
X105201000Y-75418140D01*
X105201000Y-76906860D01*
X105199677Y-76920295D01*
X105197549Y-76927310D01*
X105194092Y-76933776D01*
X105189442Y-76939442D01*
X105183776Y-76944092D01*
X105177310Y-76947549D01*
X105170295Y-76949677D01*
X105156860Y-76951000D01*
X104843140Y-76951000D01*
X104829705Y-76949677D01*
X104822691Y-76947549D01*
X104808923Y-76940190D01*
X104786284Y-76930813D01*
X104762251Y-76926033D01*
X104737747Y-76926033D01*
X104713714Y-76930814D01*
X104691077Y-76940190D01*
X104677309Y-76947549D01*
X104670295Y-76949677D01*
X104656860Y-76951000D01*
X104343140Y-76951000D01*
X104329705Y-76949677D01*
X104322691Y-76947549D01*
X104308923Y-76940190D01*
X104286284Y-76930813D01*
X104262251Y-76926033D01*
X104237747Y-76926033D01*
X104213714Y-76930814D01*
X104191077Y-76940190D01*
X104177309Y-76947549D01*
X104170295Y-76949677D01*
X104156860Y-76951000D01*
X103843140Y-76951000D01*
X103829705Y-76949677D01*
X103822691Y-76947549D01*
X103808923Y-76940190D01*
X103786284Y-76930813D01*
X103762251Y-76926033D01*
X103737747Y-76926033D01*
X103713714Y-76930814D01*
X103691077Y-76940190D01*
X103677309Y-76947549D01*
X103670295Y-76949677D01*
X103656860Y-76951000D01*
X103343140Y-76951000D01*
X103329705Y-76949677D01*
X103322691Y-76947549D01*
X103308923Y-76940190D01*
X103286284Y-76930813D01*
X103262251Y-76926033D01*
X103237747Y-76926033D01*
X103213714Y-76930814D01*
X103191077Y-76940190D01*
X103177309Y-76947549D01*
X103170295Y-76949677D01*
X103156860Y-76951000D01*
X102843140Y-76951000D01*
X102829705Y-76949677D01*
X102822691Y-76947549D01*
X102808923Y-76940190D01*
X102786284Y-76930813D01*
X102762251Y-76926033D01*
X102737747Y-76926033D01*
X102713714Y-76930814D01*
X102691077Y-76940190D01*
X102677309Y-76947549D01*
X102670295Y-76949677D01*
X102656860Y-76951000D01*
X102343140Y-76951000D01*
X102329705Y-76949677D01*
X102322691Y-76947549D01*
X102308923Y-76940190D01*
X102286284Y-76930813D01*
X102262251Y-76926033D01*
X102237747Y-76926033D01*
X102213714Y-76930814D01*
X102191077Y-76940190D01*
X102177309Y-76947549D01*
X102170295Y-76949677D01*
X102156860Y-76951000D01*
X101843140Y-76951000D01*
X101829705Y-76949677D01*
X101822691Y-76947549D01*
X101808923Y-76940190D01*
X101786284Y-76930813D01*
X101762251Y-76926033D01*
X101737747Y-76926033D01*
X101713714Y-76930814D01*
X101691077Y-76940190D01*
X101677309Y-76947549D01*
X101670295Y-76949677D01*
X101656860Y-76951000D01*
X101343140Y-76951000D01*
X101329705Y-76949677D01*
X101322691Y-76947549D01*
X101308923Y-76940190D01*
X101286284Y-76930813D01*
X101262251Y-76926033D01*
X101237747Y-76926033D01*
X101213714Y-76930814D01*
X101191077Y-76940190D01*
X101177309Y-76947549D01*
X101170295Y-76949677D01*
X101156860Y-76951000D01*
X100843140Y-76951000D01*
X100829705Y-76949677D01*
X100822691Y-76947549D01*
X100808923Y-76940190D01*
X100786284Y-76930813D01*
X100762251Y-76926033D01*
X100737747Y-76926033D01*
X100713714Y-76930814D01*
X100691077Y-76940190D01*
X100677309Y-76947549D01*
X100670295Y-76949677D01*
X100656860Y-76951000D01*
X100343140Y-76951000D01*
X100329705Y-76949677D01*
X100322691Y-76947549D01*
X100308923Y-76940190D01*
X100286284Y-76930813D01*
X100262251Y-76926033D01*
X100237747Y-76926033D01*
X100213714Y-76930814D01*
X100191077Y-76940190D01*
X100177309Y-76947549D01*
X100170295Y-76949677D01*
X100156860Y-76951000D01*
X99843140Y-76951000D01*
X99829705Y-76949677D01*
X99822691Y-76947549D01*
X99808923Y-76940190D01*
X99786284Y-76930813D01*
X99762251Y-76926033D01*
X99737747Y-76926033D01*
X99713714Y-76930814D01*
X99691077Y-76940190D01*
X99677309Y-76947549D01*
X99670295Y-76949677D01*
X99656860Y-76951000D01*
X99343140Y-76951000D01*
X99329705Y-76949677D01*
X99322690Y-76947549D01*
X99316224Y-76944092D01*
X99310558Y-76939442D01*
X99305908Y-76933776D01*
X99302451Y-76927310D01*
X99300323Y-76920295D01*
X99299000Y-76906860D01*
X99299000Y-75418140D01*
X99300323Y-75404705D01*
X99302451Y-75397690D01*
X99305908Y-75391224D01*
X99310558Y-75385558D01*
X99316224Y-75380908D01*
X99322690Y-75377451D01*
X99329705Y-75375323D01*
X99343140Y-75374000D01*
X99656860Y-75374000D01*
X99670295Y-75375323D01*
G37*
G36*
X80651000Y-76801000D02*
G01*
X78549000Y-76801000D01*
X78549000Y-75199000D01*
X80651000Y-75199000D01*
X80651000Y-76801000D01*
G37*
G36*
X106558343Y-75681714D02*
G01*
X106649337Y-75719405D01*
X106649339Y-75719406D01*
X106672431Y-75734836D01*
X106731230Y-75774124D01*
X106800876Y-75843770D01*
X106855595Y-75925663D01*
X106893286Y-76016657D01*
X106912500Y-76113253D01*
X106912500Y-76211747D01*
X106893286Y-76308343D01*
X106863774Y-76379591D01*
X106855594Y-76399339D01*
X106800875Y-76481231D01*
X106731231Y-76550875D01*
X106649339Y-76605594D01*
X106649338Y-76605595D01*
X106649337Y-76605595D01*
X106558343Y-76643286D01*
X106461747Y-76662500D01*
X106363253Y-76662500D01*
X106266657Y-76643286D01*
X106175663Y-76605595D01*
X106175662Y-76605595D01*
X106175661Y-76605594D01*
X106093769Y-76550875D01*
X106024125Y-76481231D01*
X105969406Y-76399339D01*
X105961226Y-76379591D01*
X105931714Y-76308343D01*
X105912500Y-76211747D01*
X105912500Y-76113253D01*
X105931714Y-76016657D01*
X105969405Y-75925663D01*
X106024124Y-75843770D01*
X106093770Y-75774124D01*
X106152569Y-75734836D01*
X106175661Y-75719406D01*
X106175663Y-75719405D01*
X106266657Y-75681714D01*
X106363253Y-75662500D01*
X106461747Y-75662500D01*
X106558343Y-75681714D01*
G37*
G36*
X75379591Y-75478085D02*
G01*
X75413569Y-75488393D01*
X75444890Y-75505134D01*
X75472339Y-75527661D01*
X75494866Y-75555110D01*
X75511607Y-75586431D01*
X75521915Y-75620409D01*
X75526000Y-75661890D01*
X75526000Y-76338110D01*
X75521915Y-76379591D01*
X75511607Y-76413569D01*
X75494866Y-76444890D01*
X75472339Y-76472339D01*
X75444890Y-76494866D01*
X75413569Y-76511607D01*
X75379591Y-76521915D01*
X75338110Y-76526000D01*
X74736890Y-76526000D01*
X74695409Y-76521915D01*
X74661431Y-76511607D01*
X74630110Y-76494866D01*
X74602661Y-76472339D01*
X74580134Y-76444890D01*
X74563393Y-76413569D01*
X74553085Y-76379591D01*
X74549000Y-76338110D01*
X74549000Y-75661890D01*
X74553085Y-75620409D01*
X74563393Y-75586431D01*
X74580134Y-75555110D01*
X74602661Y-75527661D01*
X74630110Y-75505134D01*
X74661431Y-75488393D01*
X74695409Y-75478085D01*
X74736890Y-75474000D01*
X75338110Y-75474000D01*
X75379591Y-75478085D01*
G37*
G36*
X73804591Y-75478085D02*
G01*
X73838569Y-75488393D01*
X73869890Y-75505134D01*
X73897339Y-75527661D01*
X73919866Y-75555110D01*
X73936607Y-75586431D01*
X73946915Y-75620409D01*
X73951000Y-75661890D01*
X73951000Y-76338110D01*
X73946915Y-76379591D01*
X73936607Y-76413569D01*
X73919866Y-76444890D01*
X73897339Y-76472339D01*
X73869890Y-76494866D01*
X73838569Y-76511607D01*
X73804591Y-76521915D01*
X73763110Y-76526000D01*
X73161890Y-76526000D01*
X73120409Y-76521915D01*
X73086431Y-76511607D01*
X73055110Y-76494866D01*
X73027661Y-76472339D01*
X73005134Y-76444890D01*
X72988393Y-76413569D01*
X72978085Y-76379591D01*
X72974000Y-76338110D01*
X72974000Y-75661890D01*
X72978085Y-75620409D01*
X72988393Y-75586431D01*
X73005134Y-75555110D01*
X73027661Y-75527661D01*
X73055110Y-75505134D01*
X73086431Y-75488393D01*
X73120409Y-75478085D01*
X73161890Y-75474000D01*
X73763110Y-75474000D01*
X73804591Y-75478085D01*
G37*
G36*
X116351000Y-76101000D02*
G01*
X114649000Y-76101000D01*
X114649000Y-74399000D01*
X116351000Y-74399000D01*
X116351000Y-76101000D01*
G37*
G36*
X123368228Y-74431703D02*
G01*
X123523100Y-74495853D01*
X123662481Y-74588985D01*
X123781015Y-74707519D01*
X123874147Y-74846900D01*
X123938297Y-75001772D01*
X123971000Y-75166184D01*
X123971000Y-75333816D01*
X123938297Y-75498228D01*
X123874147Y-75653100D01*
X123781015Y-75792481D01*
X123662481Y-75911015D01*
X123523100Y-76004147D01*
X123368228Y-76068297D01*
X123203816Y-76101000D01*
X123036184Y-76101000D01*
X122871772Y-76068297D01*
X122716900Y-76004147D01*
X122577519Y-75911015D01*
X122458985Y-75792481D01*
X122365853Y-75653100D01*
X122301703Y-75498228D01*
X122269000Y-75333816D01*
X122269000Y-75166184D01*
X122301703Y-75001772D01*
X122365853Y-74846900D01*
X122458985Y-74707519D01*
X122577519Y-74588985D01*
X122716900Y-74495853D01*
X122871772Y-74431703D01*
X123036184Y-74399000D01*
X123203816Y-74399000D01*
X123368228Y-74431703D01*
G37*
G36*
X109304591Y-74728085D02*
G01*
X109338569Y-74738393D01*
X109369890Y-74755134D01*
X109397339Y-74777661D01*
X109419866Y-74805110D01*
X109436607Y-74836431D01*
X109446915Y-74870409D01*
X109451000Y-74911890D01*
X109451000Y-75588110D01*
X109446915Y-75629591D01*
X109436607Y-75663569D01*
X109419866Y-75694890D01*
X109397339Y-75722339D01*
X109369890Y-75744866D01*
X109338569Y-75761607D01*
X109304591Y-75771915D01*
X109263110Y-75776000D01*
X108661890Y-75776000D01*
X108620409Y-75771915D01*
X108586431Y-75761607D01*
X108555110Y-75744866D01*
X108527661Y-75722339D01*
X108505134Y-75694890D01*
X108488393Y-75663569D01*
X108478085Y-75629591D01*
X108474000Y-75588110D01*
X108474000Y-74911890D01*
X108478085Y-74870409D01*
X108488393Y-74836431D01*
X108505134Y-74805110D01*
X108527661Y-74777661D01*
X108555110Y-74755134D01*
X108586431Y-74738393D01*
X108620409Y-74728085D01*
X108661890Y-74724000D01*
X109263110Y-74724000D01*
X109304591Y-74728085D01*
G37*
G36*
X110879591Y-74728085D02*
G01*
X110913569Y-74738393D01*
X110944890Y-74755134D01*
X110972339Y-74777661D01*
X110994866Y-74805110D01*
X111011607Y-74836431D01*
X111021915Y-74870409D01*
X111026000Y-74911890D01*
X111026000Y-75588110D01*
X111021915Y-75629591D01*
X111011607Y-75663569D01*
X110994866Y-75694890D01*
X110972339Y-75722339D01*
X110944890Y-75744866D01*
X110913569Y-75761607D01*
X110879591Y-75771915D01*
X110838110Y-75776000D01*
X110236890Y-75776000D01*
X110195409Y-75771915D01*
X110161431Y-75761607D01*
X110130110Y-75744866D01*
X110102661Y-75722339D01*
X110080134Y-75694890D01*
X110063393Y-75663569D01*
X110053085Y-75629591D01*
X110049000Y-75588110D01*
X110049000Y-74911890D01*
X110053085Y-74870409D01*
X110063393Y-74836431D01*
X110080134Y-74805110D01*
X110102661Y-74777661D01*
X110130110Y-74755134D01*
X110161431Y-74738393D01*
X110195409Y-74728085D01*
X110236890Y-74724000D01*
X110838110Y-74724000D01*
X110879591Y-74728085D01*
G37*
G36*
X128951000Y-75651000D02*
G01*
X126549000Y-75651000D01*
X126549000Y-73049000D01*
X128951000Y-73049000D01*
X128951000Y-75651000D01*
G37*
G36*
X94804591Y-74228085D02*
G01*
X94838569Y-74238393D01*
X94869890Y-74255134D01*
X94897339Y-74277661D01*
X94919866Y-74305110D01*
X94936607Y-74336431D01*
X94946915Y-74370409D01*
X94951000Y-74411890D01*
X94951000Y-75088110D01*
X94946915Y-75129591D01*
X94936607Y-75163569D01*
X94919866Y-75194890D01*
X94897339Y-75222339D01*
X94869890Y-75244866D01*
X94838569Y-75261607D01*
X94804591Y-75271915D01*
X94763110Y-75276000D01*
X94161890Y-75276000D01*
X94120409Y-75271915D01*
X94086431Y-75261607D01*
X94055110Y-75244866D01*
X94027661Y-75222339D01*
X94005134Y-75194890D01*
X93988393Y-75163569D01*
X93978085Y-75129591D01*
X93974000Y-75088110D01*
X93974000Y-74411890D01*
X93978085Y-74370409D01*
X93988393Y-74336431D01*
X94005134Y-74305110D01*
X94027661Y-74277661D01*
X94055110Y-74255134D01*
X94086431Y-74238393D01*
X94120409Y-74228085D01*
X94161890Y-74224000D01*
X94763110Y-74224000D01*
X94804591Y-74228085D01*
G37*
G36*
X96379591Y-74228085D02*
G01*
X96413569Y-74238393D01*
X96444890Y-74255134D01*
X96472339Y-74277661D01*
X96494866Y-74305110D01*
X96511607Y-74336431D01*
X96521915Y-74370409D01*
X96526000Y-74411890D01*
X96526000Y-75088110D01*
X96521915Y-75129591D01*
X96511607Y-75163569D01*
X96494866Y-75194890D01*
X96472339Y-75222339D01*
X96444890Y-75244866D01*
X96413569Y-75261607D01*
X96379591Y-75271915D01*
X96338110Y-75276000D01*
X95736890Y-75276000D01*
X95695409Y-75271915D01*
X95661431Y-75261607D01*
X95630110Y-75244866D01*
X95602661Y-75222339D01*
X95580134Y-75194890D01*
X95563393Y-75163569D01*
X95553085Y-75129591D01*
X95549000Y-75088110D01*
X95549000Y-74411890D01*
X95553085Y-74370409D01*
X95563393Y-74336431D01*
X95580134Y-74305110D01*
X95602661Y-74277661D01*
X95630110Y-74255134D01*
X95661431Y-74238393D01*
X95695409Y-74228085D01*
X95736890Y-74224000D01*
X96338110Y-74224000D01*
X96379591Y-74228085D01*
G37*
G36*
X107170295Y-69050323D02*
G01*
X107177310Y-69052451D01*
X107183776Y-69055908D01*
X107189442Y-69060558D01*
X107194092Y-69066224D01*
X107197549Y-69072690D01*
X107199677Y-69079705D01*
X107201000Y-69093140D01*
X107201000Y-69406860D01*
X107199677Y-69420295D01*
X107197549Y-69427309D01*
X107190190Y-69441077D01*
X107180813Y-69463716D01*
X107176033Y-69487749D01*
X107176033Y-69512253D01*
X107180814Y-69536286D01*
X107190190Y-69558923D01*
X107197549Y-69572691D01*
X107199677Y-69579705D01*
X107201000Y-69593140D01*
X107201000Y-69906860D01*
X107199677Y-69920295D01*
X107197549Y-69927309D01*
X107190190Y-69941077D01*
X107180813Y-69963716D01*
X107176033Y-69987749D01*
X107176033Y-70012253D01*
X107180814Y-70036286D01*
X107190190Y-70058923D01*
X107197549Y-70072691D01*
X107199677Y-70079705D01*
X107201000Y-70093140D01*
X107201000Y-70406860D01*
X107199677Y-70420295D01*
X107197549Y-70427309D01*
X107190190Y-70441077D01*
X107180813Y-70463716D01*
X107176033Y-70487749D01*
X107176033Y-70512253D01*
X107180814Y-70536286D01*
X107190190Y-70558923D01*
X107197549Y-70572691D01*
X107199677Y-70579705D01*
X107201000Y-70593140D01*
X107201000Y-70906860D01*
X107199677Y-70920295D01*
X107197549Y-70927309D01*
X107190190Y-70941077D01*
X107180813Y-70963716D01*
X107176033Y-70987749D01*
X107176033Y-71012253D01*
X107180814Y-71036286D01*
X107190190Y-71058923D01*
X107197549Y-71072691D01*
X107199677Y-71079705D01*
X107201000Y-71093140D01*
X107201000Y-71406860D01*
X107199677Y-71420295D01*
X107197549Y-71427309D01*
X107190190Y-71441077D01*
X107180813Y-71463716D01*
X107176033Y-71487749D01*
X107176033Y-71512253D01*
X107180814Y-71536286D01*
X107190190Y-71558923D01*
X107197549Y-71572691D01*
X107199677Y-71579705D01*
X107201000Y-71593140D01*
X107201000Y-71906860D01*
X107199677Y-71920295D01*
X107197549Y-71927309D01*
X107190190Y-71941077D01*
X107180813Y-71963716D01*
X107176033Y-71987749D01*
X107176033Y-72012253D01*
X107180814Y-72036286D01*
X107190190Y-72058923D01*
X107197549Y-72072691D01*
X107199677Y-72079705D01*
X107201000Y-72093140D01*
X107201000Y-72406860D01*
X107199677Y-72420295D01*
X107197549Y-72427309D01*
X107190190Y-72441077D01*
X107180813Y-72463716D01*
X107176033Y-72487749D01*
X107176033Y-72512253D01*
X107180814Y-72536286D01*
X107190190Y-72558923D01*
X107197549Y-72572691D01*
X107199677Y-72579705D01*
X107201000Y-72593140D01*
X107201000Y-72906860D01*
X107199677Y-72920295D01*
X107197549Y-72927309D01*
X107190190Y-72941077D01*
X107180813Y-72963716D01*
X107176033Y-72987749D01*
X107176033Y-73012253D01*
X107180814Y-73036286D01*
X107190190Y-73058923D01*
X107197549Y-73072691D01*
X107199677Y-73079705D01*
X107201000Y-73093140D01*
X107201000Y-73406860D01*
X107199677Y-73420295D01*
X107197549Y-73427309D01*
X107190190Y-73441077D01*
X107180813Y-73463716D01*
X107176033Y-73487749D01*
X107176033Y-73512253D01*
X107180814Y-73536286D01*
X107190190Y-73558923D01*
X107197549Y-73572691D01*
X107199677Y-73579705D01*
X107201000Y-73593140D01*
X107201000Y-73906860D01*
X107199677Y-73920295D01*
X107197549Y-73927309D01*
X107190190Y-73941077D01*
X107180813Y-73963716D01*
X107176033Y-73987749D01*
X107176033Y-74012253D01*
X107180814Y-74036286D01*
X107190190Y-74058923D01*
X107197549Y-74072691D01*
X107199677Y-74079705D01*
X107201000Y-74093140D01*
X107201000Y-74406860D01*
X107199677Y-74420295D01*
X107197549Y-74427309D01*
X107190190Y-74441077D01*
X107180813Y-74463716D01*
X107176033Y-74487749D01*
X107176033Y-74512253D01*
X107180814Y-74536286D01*
X107190190Y-74558923D01*
X107197549Y-74572691D01*
X107199677Y-74579705D01*
X107201000Y-74593140D01*
X107201000Y-74906860D01*
X107199677Y-74920295D01*
X107197549Y-74927310D01*
X107194092Y-74933776D01*
X107189442Y-74939442D01*
X107183776Y-74944092D01*
X107177310Y-74947549D01*
X107170295Y-74949677D01*
X107156860Y-74951000D01*
X105668140Y-74951000D01*
X105654705Y-74949677D01*
X105647690Y-74947549D01*
X105641224Y-74944092D01*
X105635558Y-74939442D01*
X105630908Y-74933776D01*
X105627451Y-74927310D01*
X105625323Y-74920295D01*
X105624000Y-74906860D01*
X105624000Y-74593140D01*
X105625323Y-74579705D01*
X105627451Y-74572691D01*
X105634810Y-74558923D01*
X105644187Y-74536284D01*
X105648967Y-74512251D01*
X105648967Y-74487747D01*
X105644186Y-74463714D01*
X105634810Y-74441077D01*
X105627451Y-74427309D01*
X105625323Y-74420295D01*
X105624000Y-74406860D01*
X105624000Y-74093140D01*
X105625323Y-74079705D01*
X105627451Y-74072691D01*
X105634810Y-74058923D01*
X105644187Y-74036284D01*
X105648967Y-74012251D01*
X105648967Y-73987747D01*
X105644186Y-73963714D01*
X105634810Y-73941077D01*
X105627451Y-73927309D01*
X105625323Y-73920295D01*
X105624000Y-73906860D01*
X105624000Y-73593140D01*
X105625323Y-73579705D01*
X105627451Y-73572691D01*
X105634810Y-73558923D01*
X105644187Y-73536284D01*
X105648967Y-73512251D01*
X105648967Y-73487747D01*
X105644186Y-73463714D01*
X105634810Y-73441077D01*
X105627451Y-73427309D01*
X105625323Y-73420295D01*
X105624000Y-73406860D01*
X105624000Y-73093140D01*
X105625323Y-73079705D01*
X105627451Y-73072691D01*
X105634810Y-73058923D01*
X105644187Y-73036284D01*
X105648967Y-73012251D01*
X105648967Y-72987747D01*
X105644186Y-72963714D01*
X105634810Y-72941077D01*
X105627451Y-72927309D01*
X105625323Y-72920295D01*
X105624000Y-72906860D01*
X105624000Y-72593140D01*
X105625323Y-72579705D01*
X105627451Y-72572691D01*
X105634810Y-72558923D01*
X105644187Y-72536284D01*
X105648967Y-72512251D01*
X105648967Y-72487747D01*
X105644186Y-72463714D01*
X105634810Y-72441077D01*
X105627451Y-72427309D01*
X105625323Y-72420295D01*
X105624000Y-72406860D01*
X105624000Y-72093140D01*
X105625323Y-72079705D01*
X105627451Y-72072691D01*
X105634810Y-72058923D01*
X105644187Y-72036284D01*
X105648967Y-72012251D01*
X105648967Y-71987747D01*
X105644186Y-71963714D01*
X105634810Y-71941077D01*
X105627451Y-71927309D01*
X105625323Y-71920295D01*
X105624000Y-71906860D01*
X105624000Y-71593140D01*
X105625323Y-71579705D01*
X105627451Y-71572691D01*
X105634810Y-71558923D01*
X105644187Y-71536284D01*
X105648967Y-71512251D01*
X105648967Y-71487747D01*
X105644186Y-71463714D01*
X105634810Y-71441077D01*
X105627451Y-71427309D01*
X105625323Y-71420295D01*
X105624000Y-71406860D01*
X105624000Y-71093140D01*
X105625323Y-71079705D01*
X105627451Y-71072691D01*
X105634810Y-71058923D01*
X105644187Y-71036284D01*
X105648967Y-71012251D01*
X105648967Y-70987747D01*
X105644186Y-70963714D01*
X105634810Y-70941077D01*
X105627451Y-70927309D01*
X105625323Y-70920295D01*
X105624000Y-70906860D01*
X105624000Y-70593140D01*
X105625323Y-70579705D01*
X105627451Y-70572691D01*
X105634810Y-70558923D01*
X105644187Y-70536284D01*
X105648967Y-70512251D01*
X105648967Y-70487747D01*
X105644186Y-70463714D01*
X105634810Y-70441077D01*
X105627451Y-70427309D01*
X105625323Y-70420295D01*
X105624000Y-70406860D01*
X105624000Y-70093140D01*
X105625323Y-70079705D01*
X105627451Y-70072691D01*
X105634810Y-70058923D01*
X105644187Y-70036284D01*
X105648967Y-70012251D01*
X105648967Y-69987747D01*
X105644186Y-69963714D01*
X105634810Y-69941077D01*
X105627451Y-69927309D01*
X105625323Y-69920295D01*
X105624000Y-69906860D01*
X105624000Y-69593140D01*
X105625323Y-69579705D01*
X105627451Y-69572691D01*
X105634810Y-69558923D01*
X105644187Y-69536284D01*
X105648967Y-69512251D01*
X105648967Y-69487747D01*
X105644186Y-69463714D01*
X105634810Y-69441077D01*
X105627451Y-69427309D01*
X105625323Y-69420295D01*
X105624000Y-69406860D01*
X105624000Y-69093140D01*
X105625323Y-69079705D01*
X105627451Y-69072690D01*
X105630908Y-69066224D01*
X105635558Y-69060558D01*
X105641224Y-69055908D01*
X105647690Y-69052451D01*
X105654705Y-69050323D01*
X105668140Y-69049000D01*
X107156860Y-69049000D01*
X107170295Y-69050323D01*
G37*
G36*
X98845295Y-69050323D02*
G01*
X98852310Y-69052451D01*
X98858776Y-69055908D01*
X98864442Y-69060558D01*
X98869092Y-69066224D01*
X98872549Y-69072690D01*
X98874677Y-69079705D01*
X98876000Y-69093140D01*
X98876000Y-69406860D01*
X98874677Y-69420295D01*
X98872549Y-69427309D01*
X98865190Y-69441077D01*
X98855813Y-69463716D01*
X98851033Y-69487749D01*
X98851033Y-69512253D01*
X98855814Y-69536286D01*
X98865190Y-69558923D01*
X98872549Y-69572691D01*
X98874677Y-69579705D01*
X98876000Y-69593140D01*
X98876000Y-69906860D01*
X98874677Y-69920295D01*
X98872549Y-69927309D01*
X98865190Y-69941077D01*
X98855813Y-69963716D01*
X98851033Y-69987749D01*
X98851033Y-70012253D01*
X98855814Y-70036286D01*
X98865190Y-70058923D01*
X98872549Y-70072691D01*
X98874677Y-70079705D01*
X98876000Y-70093140D01*
X98876000Y-70406860D01*
X98874677Y-70420295D01*
X98872549Y-70427309D01*
X98865190Y-70441077D01*
X98855813Y-70463716D01*
X98851033Y-70487749D01*
X98851033Y-70512253D01*
X98855814Y-70536286D01*
X98865190Y-70558923D01*
X98872549Y-70572691D01*
X98874677Y-70579705D01*
X98876000Y-70593140D01*
X98876000Y-70906860D01*
X98874677Y-70920295D01*
X98872549Y-70927309D01*
X98865190Y-70941077D01*
X98855813Y-70963716D01*
X98851033Y-70987749D01*
X98851033Y-71012253D01*
X98855814Y-71036286D01*
X98865190Y-71058923D01*
X98872549Y-71072691D01*
X98874677Y-71079705D01*
X98876000Y-71093140D01*
X98876000Y-71406860D01*
X98874677Y-71420295D01*
X98872549Y-71427309D01*
X98865190Y-71441077D01*
X98855813Y-71463716D01*
X98851033Y-71487749D01*
X98851033Y-71512253D01*
X98855814Y-71536286D01*
X98865190Y-71558923D01*
X98872549Y-71572691D01*
X98874677Y-71579705D01*
X98876000Y-71593140D01*
X98876000Y-71906860D01*
X98874677Y-71920295D01*
X98872549Y-71927309D01*
X98865190Y-71941077D01*
X98855813Y-71963716D01*
X98851033Y-71987749D01*
X98851033Y-72012253D01*
X98855814Y-72036286D01*
X98865190Y-72058923D01*
X98872549Y-72072691D01*
X98874677Y-72079705D01*
X98876000Y-72093140D01*
X98876000Y-72406860D01*
X98874677Y-72420295D01*
X98872549Y-72427309D01*
X98865190Y-72441077D01*
X98855813Y-72463716D01*
X98851033Y-72487749D01*
X98851033Y-72512253D01*
X98855814Y-72536286D01*
X98865190Y-72558923D01*
X98872549Y-72572691D01*
X98874677Y-72579705D01*
X98876000Y-72593140D01*
X98876000Y-72906860D01*
X98874677Y-72920295D01*
X98872549Y-72927309D01*
X98865190Y-72941077D01*
X98855813Y-72963716D01*
X98851033Y-72987749D01*
X98851033Y-73012253D01*
X98855814Y-73036286D01*
X98865190Y-73058923D01*
X98872549Y-73072691D01*
X98874677Y-73079705D01*
X98876000Y-73093140D01*
X98876000Y-73406860D01*
X98874677Y-73420295D01*
X98872549Y-73427309D01*
X98865190Y-73441077D01*
X98855813Y-73463716D01*
X98851033Y-73487749D01*
X98851033Y-73512253D01*
X98855814Y-73536286D01*
X98865190Y-73558923D01*
X98872549Y-73572691D01*
X98874677Y-73579705D01*
X98876000Y-73593140D01*
X98876000Y-73906860D01*
X98874677Y-73920295D01*
X98872549Y-73927309D01*
X98865190Y-73941077D01*
X98855813Y-73963716D01*
X98851033Y-73987749D01*
X98851033Y-74012253D01*
X98855814Y-74036286D01*
X98865190Y-74058923D01*
X98872549Y-74072691D01*
X98874677Y-74079705D01*
X98876000Y-74093140D01*
X98876000Y-74406860D01*
X98874677Y-74420295D01*
X98872549Y-74427309D01*
X98865190Y-74441077D01*
X98855813Y-74463716D01*
X98851033Y-74487749D01*
X98851033Y-74512253D01*
X98855814Y-74536286D01*
X98865190Y-74558923D01*
X98872549Y-74572691D01*
X98874677Y-74579705D01*
X98876000Y-74593140D01*
X98876000Y-74906860D01*
X98874677Y-74920295D01*
X98872549Y-74927310D01*
X98869092Y-74933776D01*
X98864442Y-74939442D01*
X98858776Y-74944092D01*
X98852310Y-74947549D01*
X98845295Y-74949677D01*
X98831860Y-74951000D01*
X97343140Y-74951000D01*
X97329705Y-74949677D01*
X97322690Y-74947549D01*
X97316224Y-74944092D01*
X97310558Y-74939442D01*
X97305908Y-74933776D01*
X97302451Y-74927310D01*
X97300323Y-74920295D01*
X97299000Y-74906860D01*
X97299000Y-74593140D01*
X97300323Y-74579705D01*
X97302451Y-74572691D01*
X97309810Y-74558923D01*
X97319187Y-74536284D01*
X97323967Y-74512251D01*
X97323967Y-74487747D01*
X97319186Y-74463714D01*
X97309810Y-74441077D01*
X97302451Y-74427309D01*
X97300323Y-74420295D01*
X97299000Y-74406860D01*
X97299000Y-74093140D01*
X97300323Y-74079705D01*
X97302451Y-74072691D01*
X97309810Y-74058923D01*
X97319187Y-74036284D01*
X97323967Y-74012251D01*
X97323967Y-73987747D01*
X97319186Y-73963714D01*
X97309810Y-73941077D01*
X97302451Y-73927309D01*
X97300323Y-73920295D01*
X97299000Y-73906860D01*
X97299000Y-73593140D01*
X97300323Y-73579705D01*
X97302451Y-73572691D01*
X97309810Y-73558923D01*
X97319187Y-73536284D01*
X97323967Y-73512251D01*
X97323967Y-73487747D01*
X97319186Y-73463714D01*
X97309810Y-73441077D01*
X97302451Y-73427309D01*
X97300323Y-73420295D01*
X97299000Y-73406860D01*
X97299000Y-73093140D01*
X97300323Y-73079705D01*
X97302451Y-73072691D01*
X97309810Y-73058923D01*
X97319187Y-73036284D01*
X97323967Y-73012251D01*
X97323967Y-72987747D01*
X97319186Y-72963714D01*
X97309810Y-72941077D01*
X97302451Y-72927309D01*
X97300323Y-72920295D01*
X97299000Y-72906860D01*
X97299000Y-72593140D01*
X97300323Y-72579705D01*
X97302451Y-72572691D01*
X97309810Y-72558923D01*
X97319187Y-72536284D01*
X97323967Y-72512251D01*
X97323967Y-72487747D01*
X97319186Y-72463714D01*
X97309810Y-72441077D01*
X97302451Y-72427309D01*
X97300323Y-72420295D01*
X97299000Y-72406860D01*
X97299000Y-72093140D01*
X97300323Y-72079705D01*
X97302451Y-72072691D01*
X97309810Y-72058923D01*
X97319187Y-72036284D01*
X97323967Y-72012251D01*
X97323967Y-71987747D01*
X97319186Y-71963714D01*
X97309810Y-71941077D01*
X97302451Y-71927309D01*
X97300323Y-71920295D01*
X97299000Y-71906860D01*
X97299000Y-71593140D01*
X97300323Y-71579705D01*
X97302451Y-71572691D01*
X97309810Y-71558923D01*
X97319187Y-71536284D01*
X97323967Y-71512251D01*
X97323967Y-71487747D01*
X97319186Y-71463714D01*
X97309810Y-71441077D01*
X97302451Y-71427309D01*
X97300323Y-71420295D01*
X97299000Y-71406860D01*
X97299000Y-71093140D01*
X97300323Y-71079705D01*
X97302451Y-71072691D01*
X97309810Y-71058923D01*
X97319187Y-71036284D01*
X97323967Y-71012251D01*
X97323967Y-70987747D01*
X97319186Y-70963714D01*
X97309810Y-70941077D01*
X97302451Y-70927309D01*
X97300323Y-70920295D01*
X97299000Y-70906860D01*
X97299000Y-70593140D01*
X97300323Y-70579705D01*
X97302451Y-70572691D01*
X97309810Y-70558923D01*
X97319187Y-70536284D01*
X97323967Y-70512251D01*
X97323967Y-70487747D01*
X97319186Y-70463714D01*
X97309810Y-70441077D01*
X97302451Y-70427309D01*
X97300323Y-70420295D01*
X97299000Y-70406860D01*
X97299000Y-70093140D01*
X97300323Y-70079705D01*
X97302451Y-70072691D01*
X97309810Y-70058923D01*
X97319187Y-70036284D01*
X97323967Y-70012251D01*
X97323967Y-69987747D01*
X97319186Y-69963714D01*
X97309810Y-69941077D01*
X97302451Y-69927309D01*
X97300323Y-69920295D01*
X97299000Y-69906860D01*
X97299000Y-69593140D01*
X97300323Y-69579705D01*
X97302451Y-69572691D01*
X97309810Y-69558923D01*
X97319187Y-69536284D01*
X97323967Y-69512251D01*
X97323967Y-69487747D01*
X97319186Y-69463714D01*
X97309810Y-69441077D01*
X97302451Y-69427309D01*
X97300323Y-69420295D01*
X97299000Y-69406860D01*
X97299000Y-69093140D01*
X97300323Y-69079705D01*
X97302451Y-69072690D01*
X97305908Y-69066224D01*
X97310558Y-69060558D01*
X97316224Y-69055908D01*
X97322690Y-69052451D01*
X97329705Y-69050323D01*
X97343140Y-69049000D01*
X98831860Y-69049000D01*
X98845295Y-69050323D01*
G37*
G36*
X80651000Y-74501000D02*
G01*
X78549000Y-74501000D01*
X78549000Y-72899000D01*
X80651000Y-72899000D01*
X80651000Y-74501000D01*
G37*
G36*
X110879591Y-72728085D02*
G01*
X110913569Y-72738393D01*
X110944890Y-72755134D01*
X110972339Y-72777661D01*
X110994866Y-72805110D01*
X111011607Y-72836431D01*
X111021915Y-72870409D01*
X111026000Y-72911890D01*
X111026000Y-73588110D01*
X111021915Y-73629591D01*
X111011607Y-73663569D01*
X110994866Y-73694890D01*
X110972339Y-73722339D01*
X110944890Y-73744866D01*
X110913569Y-73761607D01*
X110879591Y-73771915D01*
X110838110Y-73776000D01*
X110236890Y-73776000D01*
X110195409Y-73771915D01*
X110161431Y-73761607D01*
X110130110Y-73744866D01*
X110102661Y-73722339D01*
X110080134Y-73694890D01*
X110063393Y-73663569D01*
X110053085Y-73629591D01*
X110049000Y-73588110D01*
X110049000Y-72911890D01*
X110053085Y-72870409D01*
X110063393Y-72836431D01*
X110080134Y-72805110D01*
X110102661Y-72777661D01*
X110130110Y-72755134D01*
X110161431Y-72738393D01*
X110195409Y-72728085D01*
X110236890Y-72724000D01*
X110838110Y-72724000D01*
X110879591Y-72728085D01*
G37*
G36*
X109304591Y-72728085D02*
G01*
X109338569Y-72738393D01*
X109369890Y-72755134D01*
X109397339Y-72777661D01*
X109419866Y-72805110D01*
X109436607Y-72836431D01*
X109446915Y-72870409D01*
X109451000Y-72911890D01*
X109451000Y-73588110D01*
X109446915Y-73629591D01*
X109436607Y-73663569D01*
X109419866Y-73694890D01*
X109397339Y-73722339D01*
X109369890Y-73744866D01*
X109338569Y-73761607D01*
X109304591Y-73771915D01*
X109263110Y-73776000D01*
X108661890Y-73776000D01*
X108620409Y-73771915D01*
X108586431Y-73761607D01*
X108555110Y-73744866D01*
X108527661Y-73722339D01*
X108505134Y-73694890D01*
X108488393Y-73663569D01*
X108478085Y-73629591D01*
X108474000Y-73588110D01*
X108474000Y-72911890D01*
X108478085Y-72870409D01*
X108488393Y-72836431D01*
X108505134Y-72805110D01*
X108527661Y-72777661D01*
X108555110Y-72755134D01*
X108586431Y-72738393D01*
X108620409Y-72728085D01*
X108661890Y-72724000D01*
X109263110Y-72724000D01*
X109304591Y-72728085D01*
G37*
G36*
X162051000Y-72881000D02*
G01*
X158949000Y-72881000D01*
X158949000Y-69779000D01*
X162051000Y-69779000D01*
X162051000Y-72881000D01*
G37*
G36*
X91905997Y-70653051D02*
G01*
X91939652Y-70663261D01*
X91970665Y-70679838D01*
X91997851Y-70702149D01*
X92020162Y-70729335D01*
X92036739Y-70760348D01*
X92046949Y-70794003D01*
X92051000Y-70835138D01*
X92051000Y-72164862D01*
X92046949Y-72205997D01*
X92036739Y-72239652D01*
X92020162Y-72270665D01*
X91997851Y-72297851D01*
X91970665Y-72320162D01*
X91939652Y-72336739D01*
X91905997Y-72346949D01*
X91864862Y-72351000D01*
X89535138Y-72351000D01*
X89494003Y-72346949D01*
X89460348Y-72336739D01*
X89429335Y-72320162D01*
X89402149Y-72297851D01*
X89379838Y-72270665D01*
X89363261Y-72239652D01*
X89353051Y-72205997D01*
X89349000Y-72164862D01*
X89349000Y-70835138D01*
X89353051Y-70794003D01*
X89363261Y-70760348D01*
X89379838Y-70729335D01*
X89402149Y-70702149D01*
X89429335Y-70679838D01*
X89460348Y-70663261D01*
X89494003Y-70653051D01*
X89535138Y-70649000D01*
X91864862Y-70649000D01*
X91905997Y-70653051D01*
G37*
G36*
X95505997Y-70653051D02*
G01*
X95539652Y-70663261D01*
X95570665Y-70679838D01*
X95597851Y-70702149D01*
X95620162Y-70729335D01*
X95636739Y-70760348D01*
X95646949Y-70794003D01*
X95651000Y-70835138D01*
X95651000Y-72164862D01*
X95646949Y-72205997D01*
X95636739Y-72239652D01*
X95620162Y-72270665D01*
X95597851Y-72297851D01*
X95570665Y-72320162D01*
X95539652Y-72336739D01*
X95505997Y-72346949D01*
X95464862Y-72351000D01*
X93135138Y-72351000D01*
X93094003Y-72346949D01*
X93060348Y-72336739D01*
X93029335Y-72320162D01*
X93002149Y-72297851D01*
X92979838Y-72270665D01*
X92963261Y-72239652D01*
X92953051Y-72205997D01*
X92949000Y-72164862D01*
X92949000Y-70835138D01*
X92953051Y-70794003D01*
X92963261Y-70760348D01*
X92979838Y-70729335D01*
X93002149Y-70702149D01*
X93029335Y-70679838D01*
X93060348Y-70663261D01*
X93094003Y-70653051D01*
X93135138Y-70649000D01*
X95464862Y-70649000D01*
X95505997Y-70653051D01*
G37*
G36*
X115748228Y-70181703D02*
G01*
X115903100Y-70245853D01*
X116042481Y-70338985D01*
X116161015Y-70457519D01*
X116254147Y-70596900D01*
X116318297Y-70751772D01*
X116351000Y-70916184D01*
X116351000Y-71083816D01*
X116318297Y-71248228D01*
X116254147Y-71403100D01*
X116161015Y-71542481D01*
X116042481Y-71661015D01*
X115903100Y-71754147D01*
X115748228Y-71818297D01*
X115583816Y-71851000D01*
X115416184Y-71851000D01*
X115251772Y-71818297D01*
X115096900Y-71754147D01*
X114957519Y-71661015D01*
X114838985Y-71542481D01*
X114745853Y-71403100D01*
X114681703Y-71248228D01*
X114649000Y-71083816D01*
X114649000Y-70916184D01*
X114681703Y-70751772D01*
X114745853Y-70596900D01*
X114838985Y-70457519D01*
X114957519Y-70338985D01*
X115096900Y-70245853D01*
X115251772Y-70181703D01*
X115416184Y-70149000D01*
X115583816Y-70149000D01*
X115748228Y-70181703D01*
G37*
G36*
X123368228Y-70181703D02*
G01*
X123523100Y-70245853D01*
X123662481Y-70338985D01*
X123781015Y-70457519D01*
X123874147Y-70596900D01*
X123938297Y-70751772D01*
X123971000Y-70916184D01*
X123971000Y-71083816D01*
X123938297Y-71248228D01*
X123874147Y-71403100D01*
X123781015Y-71542481D01*
X123662481Y-71661015D01*
X123523100Y-71754147D01*
X123368228Y-71818297D01*
X123203816Y-71851000D01*
X123036184Y-71851000D01*
X122871772Y-71818297D01*
X122716900Y-71754147D01*
X122577519Y-71661015D01*
X122458985Y-71542481D01*
X122365853Y-71403100D01*
X122301703Y-71248228D01*
X122269000Y-71083816D01*
X122269000Y-70916184D01*
X122301703Y-70751772D01*
X122365853Y-70596900D01*
X122458985Y-70457519D01*
X122577519Y-70338985D01*
X122716900Y-70245853D01*
X122871772Y-70181703D01*
X123036184Y-70149000D01*
X123203816Y-70149000D01*
X123368228Y-70181703D01*
G37*
G36*
X148329487Y-69248996D02*
G01*
X148479177Y-69311000D01*
X148566255Y-69347069D01*
X148677745Y-69421564D01*
X148779339Y-69489447D01*
X148960553Y-69670661D01*
X149102932Y-69883747D01*
X149201004Y-70120513D01*
X149251000Y-70371861D01*
X149251000Y-70628139D01*
X149201004Y-70879487D01*
X149116368Y-71083815D01*
X149102931Y-71116255D01*
X148960553Y-71329339D01*
X148779339Y-71510553D01*
X148566255Y-71652931D01*
X148566254Y-71652932D01*
X148566253Y-71652932D01*
X148329487Y-71751004D01*
X148078139Y-71801000D01*
X147821861Y-71801000D01*
X147570513Y-71751004D01*
X147333747Y-71652932D01*
X147333746Y-71652932D01*
X147333745Y-71652931D01*
X147120661Y-71510553D01*
X146939447Y-71329339D01*
X146797069Y-71116255D01*
X146783632Y-71083815D01*
X146698996Y-70879487D01*
X146649000Y-70628139D01*
X146649000Y-70371861D01*
X146698996Y-70120513D01*
X146797068Y-69883747D01*
X146939447Y-69670661D01*
X147120661Y-69489447D01*
X147222255Y-69421564D01*
X147333745Y-69347069D01*
X147420823Y-69311000D01*
X147570513Y-69248996D01*
X147821861Y-69199000D01*
X148078139Y-69199000D01*
X148329487Y-69248996D01*
G37*
G36*
X136129487Y-69248996D02*
G01*
X136279177Y-69311000D01*
X136366255Y-69347069D01*
X136477745Y-69421564D01*
X136579339Y-69489447D01*
X136760553Y-69670661D01*
X136902932Y-69883747D01*
X137001004Y-70120513D01*
X137051000Y-70371861D01*
X137051000Y-70628139D01*
X137001004Y-70879487D01*
X136916368Y-71083815D01*
X136902931Y-71116255D01*
X136760553Y-71329339D01*
X136579339Y-71510553D01*
X136366255Y-71652931D01*
X136366254Y-71652932D01*
X136366253Y-71652932D01*
X136129487Y-71751004D01*
X135878139Y-71801000D01*
X135621861Y-71801000D01*
X135370513Y-71751004D01*
X135133747Y-71652932D01*
X135133746Y-71652932D01*
X135133745Y-71652931D01*
X134920661Y-71510553D01*
X134739447Y-71329339D01*
X134597069Y-71116255D01*
X134583632Y-71083815D01*
X134498996Y-70879487D01*
X134449000Y-70628139D01*
X134449000Y-70371861D01*
X134498996Y-70120513D01*
X134597068Y-69883747D01*
X134739447Y-69670661D01*
X134920661Y-69489447D01*
X135022255Y-69421564D01*
X135133745Y-69347069D01*
X135220823Y-69311000D01*
X135370513Y-69248996D01*
X135621861Y-69199000D01*
X135878139Y-69199000D01*
X136129487Y-69248996D01*
G37*
G36*
X109304591Y-70728085D02*
G01*
X109338569Y-70738393D01*
X109369890Y-70755134D01*
X109397339Y-70777661D01*
X109419866Y-70805110D01*
X109436607Y-70836431D01*
X109446915Y-70870409D01*
X109451000Y-70911890D01*
X109451000Y-71588110D01*
X109446915Y-71629591D01*
X109436607Y-71663569D01*
X109419866Y-71694890D01*
X109397339Y-71722339D01*
X109369890Y-71744866D01*
X109338569Y-71761607D01*
X109304591Y-71771915D01*
X109263110Y-71776000D01*
X108661890Y-71776000D01*
X108620409Y-71771915D01*
X108586431Y-71761607D01*
X108555110Y-71744866D01*
X108527661Y-71722339D01*
X108505134Y-71694890D01*
X108488393Y-71663569D01*
X108478085Y-71629591D01*
X108474000Y-71588110D01*
X108474000Y-70911890D01*
X108478085Y-70870409D01*
X108488393Y-70836431D01*
X108505134Y-70805110D01*
X108527661Y-70777661D01*
X108555110Y-70755134D01*
X108586431Y-70738393D01*
X108620409Y-70728085D01*
X108661890Y-70724000D01*
X109263110Y-70724000D01*
X109304591Y-70728085D01*
G37*
G36*
X110879591Y-70728085D02*
G01*
X110913569Y-70738393D01*
X110944890Y-70755134D01*
X110972339Y-70777661D01*
X110994866Y-70805110D01*
X111011607Y-70836431D01*
X111021915Y-70870409D01*
X111026000Y-70911890D01*
X111026000Y-71588110D01*
X111021915Y-71629591D01*
X111011607Y-71663569D01*
X110994866Y-71694890D01*
X110972339Y-71722339D01*
X110944890Y-71744866D01*
X110913569Y-71761607D01*
X110879591Y-71771915D01*
X110838110Y-71776000D01*
X110236890Y-71776000D01*
X110195409Y-71771915D01*
X110161431Y-71761607D01*
X110130110Y-71744866D01*
X110102661Y-71722339D01*
X110080134Y-71694890D01*
X110063393Y-71663569D01*
X110053085Y-71629591D01*
X110049000Y-71588110D01*
X110049000Y-70911890D01*
X110053085Y-70870409D01*
X110063393Y-70836431D01*
X110080134Y-70805110D01*
X110102661Y-70777661D01*
X110130110Y-70755134D01*
X110161431Y-70738393D01*
X110195409Y-70728085D01*
X110236890Y-70724000D01*
X110838110Y-70724000D01*
X110879591Y-70728085D01*
G37*
G36*
X127251000Y-70901000D02*
G01*
X126249000Y-70901000D01*
X126249000Y-69999000D01*
X127251000Y-69999000D01*
X127251000Y-70901000D01*
G37*
G36*
X129251000Y-69951000D02*
G01*
X128249000Y-69951000D01*
X128249000Y-69049000D01*
X129251000Y-69049000D01*
X129251000Y-69951000D01*
G37*
G36*
X110879591Y-68728085D02*
G01*
X110913569Y-68738393D01*
X110944890Y-68755134D01*
X110972339Y-68777661D01*
X110994866Y-68805110D01*
X111011607Y-68836431D01*
X111021915Y-68870409D01*
X111026000Y-68911890D01*
X111026000Y-69588110D01*
X111021915Y-69629591D01*
X111011607Y-69663569D01*
X110994866Y-69694890D01*
X110972339Y-69722339D01*
X110944890Y-69744866D01*
X110913569Y-69761607D01*
X110879591Y-69771915D01*
X110838110Y-69776000D01*
X110236890Y-69776000D01*
X110195409Y-69771915D01*
X110161431Y-69761607D01*
X110130110Y-69744866D01*
X110102661Y-69722339D01*
X110080134Y-69694890D01*
X110063393Y-69663569D01*
X110053085Y-69629591D01*
X110049000Y-69588110D01*
X110049000Y-68911890D01*
X110053085Y-68870409D01*
X110063393Y-68836431D01*
X110080134Y-68805110D01*
X110102661Y-68777661D01*
X110130110Y-68755134D01*
X110161431Y-68738393D01*
X110195409Y-68728085D01*
X110236890Y-68724000D01*
X110838110Y-68724000D01*
X110879591Y-68728085D01*
G37*
G36*
X109304591Y-68728085D02*
G01*
X109338569Y-68738393D01*
X109369890Y-68755134D01*
X109397339Y-68777661D01*
X109419866Y-68805110D01*
X109436607Y-68836431D01*
X109446915Y-68870409D01*
X109451000Y-68911890D01*
X109451000Y-69588110D01*
X109446915Y-69629591D01*
X109436607Y-69663569D01*
X109419866Y-69694890D01*
X109397339Y-69722339D01*
X109369890Y-69744866D01*
X109338569Y-69761607D01*
X109304591Y-69771915D01*
X109263110Y-69776000D01*
X108661890Y-69776000D01*
X108620409Y-69771915D01*
X108586431Y-69761607D01*
X108555110Y-69744866D01*
X108527661Y-69722339D01*
X108505134Y-69694890D01*
X108488393Y-69663569D01*
X108478085Y-69629591D01*
X108474000Y-69588110D01*
X108474000Y-68911890D01*
X108478085Y-68870409D01*
X108488393Y-68836431D01*
X108505134Y-68805110D01*
X108527661Y-68777661D01*
X108555110Y-68755134D01*
X108586431Y-68738393D01*
X108620409Y-68728085D01*
X108661890Y-68724000D01*
X109263110Y-68724000D01*
X109304591Y-68728085D01*
G37*
G36*
X123368228Y-67641703D02*
G01*
X123523100Y-67705853D01*
X123662481Y-67798985D01*
X123781015Y-67917519D01*
X123874147Y-68056900D01*
X123938297Y-68211772D01*
X123971000Y-68376184D01*
X123971000Y-68543816D01*
X123938297Y-68708228D01*
X123874147Y-68863100D01*
X123781015Y-69002481D01*
X123662481Y-69121015D01*
X123523100Y-69214147D01*
X123368228Y-69278297D01*
X123203816Y-69311000D01*
X123036184Y-69311000D01*
X122871772Y-69278297D01*
X122716900Y-69214147D01*
X122577519Y-69121015D01*
X122458985Y-69002481D01*
X122365853Y-68863100D01*
X122301703Y-68708228D01*
X122269000Y-68543816D01*
X122269000Y-68376184D01*
X122301703Y-68211772D01*
X122365853Y-68056900D01*
X122458985Y-67917519D01*
X122577519Y-67798985D01*
X122716900Y-67705853D01*
X122871772Y-67641703D01*
X123036184Y-67609000D01*
X123203816Y-67609000D01*
X123368228Y-67641703D01*
G37*
G36*
X116351000Y-69311000D02*
G01*
X114649000Y-69311000D01*
X114649000Y-67609000D01*
X116351000Y-67609000D01*
X116351000Y-69311000D01*
G37*
G36*
X127251000Y-69001000D02*
G01*
X126249000Y-69001000D01*
X126249000Y-68099000D01*
X127251000Y-68099000D01*
X127251000Y-69001000D01*
G37*
G36*
X99670295Y-67050323D02*
G01*
X99677309Y-67052451D01*
X99691077Y-67059810D01*
X99713716Y-67069187D01*
X99737749Y-67073967D01*
X99762253Y-67073967D01*
X99786286Y-67069186D01*
X99808923Y-67059810D01*
X99822691Y-67052451D01*
X99829705Y-67050323D01*
X99843140Y-67049000D01*
X100156860Y-67049000D01*
X100170295Y-67050323D01*
X100177309Y-67052451D01*
X100191077Y-67059810D01*
X100213716Y-67069187D01*
X100237749Y-67073967D01*
X100262253Y-67073967D01*
X100286286Y-67069186D01*
X100308923Y-67059810D01*
X100322691Y-67052451D01*
X100329705Y-67050323D01*
X100343140Y-67049000D01*
X100656860Y-67049000D01*
X100670295Y-67050323D01*
X100677309Y-67052451D01*
X100691077Y-67059810D01*
X100713716Y-67069187D01*
X100737749Y-67073967D01*
X100762253Y-67073967D01*
X100786286Y-67069186D01*
X100808923Y-67059810D01*
X100822691Y-67052451D01*
X100829705Y-67050323D01*
X100843140Y-67049000D01*
X101156860Y-67049000D01*
X101170295Y-67050323D01*
X101177309Y-67052451D01*
X101191077Y-67059810D01*
X101213716Y-67069187D01*
X101237749Y-67073967D01*
X101262253Y-67073967D01*
X101286286Y-67069186D01*
X101308923Y-67059810D01*
X101322691Y-67052451D01*
X101329705Y-67050323D01*
X101343140Y-67049000D01*
X101656860Y-67049000D01*
X101670295Y-67050323D01*
X101677309Y-67052451D01*
X101691077Y-67059810D01*
X101713716Y-67069187D01*
X101737749Y-67073967D01*
X101762253Y-67073967D01*
X101786286Y-67069186D01*
X101808923Y-67059810D01*
X101822691Y-67052451D01*
X101829705Y-67050323D01*
X101843140Y-67049000D01*
X102156860Y-67049000D01*
X102170295Y-67050323D01*
X102177309Y-67052451D01*
X102191077Y-67059810D01*
X102213716Y-67069187D01*
X102237749Y-67073967D01*
X102262253Y-67073967D01*
X102286286Y-67069186D01*
X102308923Y-67059810D01*
X102322691Y-67052451D01*
X102329705Y-67050323D01*
X102343140Y-67049000D01*
X102656860Y-67049000D01*
X102670295Y-67050323D01*
X102677309Y-67052451D01*
X102691077Y-67059810D01*
X102713716Y-67069187D01*
X102737749Y-67073967D01*
X102762253Y-67073967D01*
X102786286Y-67069186D01*
X102808923Y-67059810D01*
X102822691Y-67052451D01*
X102829705Y-67050323D01*
X102843140Y-67049000D01*
X103156860Y-67049000D01*
X103170295Y-67050323D01*
X103177309Y-67052451D01*
X103191077Y-67059810D01*
X103213716Y-67069187D01*
X103237749Y-67073967D01*
X103262253Y-67073967D01*
X103286286Y-67069186D01*
X103308923Y-67059810D01*
X103322691Y-67052451D01*
X103329705Y-67050323D01*
X103343140Y-67049000D01*
X103656860Y-67049000D01*
X103670295Y-67050323D01*
X103677309Y-67052451D01*
X103691077Y-67059810D01*
X103713716Y-67069187D01*
X103737749Y-67073967D01*
X103762253Y-67073967D01*
X103786286Y-67069186D01*
X103808923Y-67059810D01*
X103822691Y-67052451D01*
X103829705Y-67050323D01*
X103843140Y-67049000D01*
X104156860Y-67049000D01*
X104170295Y-67050323D01*
X104177309Y-67052451D01*
X104191077Y-67059810D01*
X104213716Y-67069187D01*
X104237749Y-67073967D01*
X104262253Y-67073967D01*
X104286286Y-67069186D01*
X104308923Y-67059810D01*
X104322691Y-67052451D01*
X104329705Y-67050323D01*
X104343140Y-67049000D01*
X104656860Y-67049000D01*
X104670295Y-67050323D01*
X104677309Y-67052451D01*
X104691077Y-67059810D01*
X104713716Y-67069187D01*
X104737749Y-67073967D01*
X104762253Y-67073967D01*
X104786286Y-67069186D01*
X104808923Y-67059810D01*
X104822691Y-67052451D01*
X104829705Y-67050323D01*
X104843140Y-67049000D01*
X105156860Y-67049000D01*
X105170295Y-67050323D01*
X105177310Y-67052451D01*
X105183776Y-67055908D01*
X105189442Y-67060558D01*
X105194092Y-67066224D01*
X105197549Y-67072690D01*
X105199677Y-67079705D01*
X105201000Y-67093140D01*
X105201000Y-68581860D01*
X105199677Y-68595295D01*
X105197549Y-68602310D01*
X105194092Y-68608776D01*
X105189442Y-68614442D01*
X105183776Y-68619092D01*
X105177310Y-68622549D01*
X105170295Y-68624677D01*
X105156860Y-68626000D01*
X104843140Y-68626000D01*
X104829705Y-68624677D01*
X104822691Y-68622549D01*
X104808923Y-68615190D01*
X104786284Y-68605813D01*
X104762251Y-68601033D01*
X104737747Y-68601033D01*
X104713714Y-68605814D01*
X104691077Y-68615190D01*
X104677309Y-68622549D01*
X104670295Y-68624677D01*
X104656860Y-68626000D01*
X104343140Y-68626000D01*
X104329705Y-68624677D01*
X104322691Y-68622549D01*
X104308923Y-68615190D01*
X104286284Y-68605813D01*
X104262251Y-68601033D01*
X104237747Y-68601033D01*
X104213714Y-68605814D01*
X104191077Y-68615190D01*
X104177309Y-68622549D01*
X104170295Y-68624677D01*
X104156860Y-68626000D01*
X103843140Y-68626000D01*
X103829705Y-68624677D01*
X103822691Y-68622549D01*
X103808923Y-68615190D01*
X103786284Y-68605813D01*
X103762251Y-68601033D01*
X103737747Y-68601033D01*
X103713714Y-68605814D01*
X103691077Y-68615190D01*
X103677309Y-68622549D01*
X103670295Y-68624677D01*
X103656860Y-68626000D01*
X103343140Y-68626000D01*
X103329705Y-68624677D01*
X103322691Y-68622549D01*
X103308923Y-68615190D01*
X103286284Y-68605813D01*
X103262251Y-68601033D01*
X103237747Y-68601033D01*
X103213714Y-68605814D01*
X103191077Y-68615190D01*
X103177309Y-68622549D01*
X103170295Y-68624677D01*
X103156860Y-68626000D01*
X102843140Y-68626000D01*
X102829705Y-68624677D01*
X102822691Y-68622549D01*
X102808923Y-68615190D01*
X102786284Y-68605813D01*
X102762251Y-68601033D01*
X102737747Y-68601033D01*
X102713714Y-68605814D01*
X102691077Y-68615190D01*
X102677309Y-68622549D01*
X102670295Y-68624677D01*
X102656860Y-68626000D01*
X102343140Y-68626000D01*
X102329705Y-68624677D01*
X102322691Y-68622549D01*
X102308923Y-68615190D01*
X102286284Y-68605813D01*
X102262251Y-68601033D01*
X102237747Y-68601033D01*
X102213714Y-68605814D01*
X102191077Y-68615190D01*
X102177309Y-68622549D01*
X102170295Y-68624677D01*
X102156860Y-68626000D01*
X101843140Y-68626000D01*
X101829705Y-68624677D01*
X101822691Y-68622549D01*
X101808923Y-68615190D01*
X101786284Y-68605813D01*
X101762251Y-68601033D01*
X101737747Y-68601033D01*
X101713714Y-68605814D01*
X101691077Y-68615190D01*
X101677309Y-68622549D01*
X101670295Y-68624677D01*
X101656860Y-68626000D01*
X101343140Y-68626000D01*
X101329705Y-68624677D01*
X101322691Y-68622549D01*
X101308923Y-68615190D01*
X101286284Y-68605813D01*
X101262251Y-68601033D01*
X101237747Y-68601033D01*
X101213714Y-68605814D01*
X101191077Y-68615190D01*
X101177309Y-68622549D01*
X101170295Y-68624677D01*
X101156860Y-68626000D01*
X100843140Y-68626000D01*
X100829705Y-68624677D01*
X100822691Y-68622549D01*
X100808923Y-68615190D01*
X100786284Y-68605813D01*
X100762251Y-68601033D01*
X100737747Y-68601033D01*
X100713714Y-68605814D01*
X100691077Y-68615190D01*
X100677309Y-68622549D01*
X100670295Y-68624677D01*
X100656860Y-68626000D01*
X100343140Y-68626000D01*
X100329705Y-68624677D01*
X100322691Y-68622549D01*
X100308923Y-68615190D01*
X100286284Y-68605813D01*
X100262251Y-68601033D01*
X100237747Y-68601033D01*
X100213714Y-68605814D01*
X100191077Y-68615190D01*
X100177309Y-68622549D01*
X100170295Y-68624677D01*
X100156860Y-68626000D01*
X99843140Y-68626000D01*
X99829705Y-68624677D01*
X99822691Y-68622549D01*
X99808923Y-68615190D01*
X99786284Y-68605813D01*
X99762251Y-68601033D01*
X99737747Y-68601033D01*
X99713714Y-68605814D01*
X99691077Y-68615190D01*
X99677309Y-68622549D01*
X99670295Y-68624677D01*
X99656860Y-68626000D01*
X99343140Y-68626000D01*
X99329705Y-68624677D01*
X99322690Y-68622549D01*
X99316224Y-68619092D01*
X99310558Y-68614442D01*
X99305908Y-68608776D01*
X99302451Y-68602310D01*
X99300323Y-68595295D01*
X99299000Y-68581860D01*
X99299000Y-67093140D01*
X99300323Y-67079705D01*
X99302451Y-67072690D01*
X99305908Y-67066224D01*
X99310558Y-67060558D01*
X99316224Y-67055908D01*
X99322690Y-67052451D01*
X99329705Y-67050323D01*
X99343140Y-67049000D01*
X99656860Y-67049000D01*
X99670295Y-67050323D01*
G37*
G36*
X98233343Y-67356714D02*
G01*
X98233346Y-67356715D01*
X98233345Y-67356715D01*
X98324339Y-67394406D01*
X98365563Y-67421951D01*
X98406230Y-67449124D01*
X98475876Y-67518770D01*
X98530595Y-67600663D01*
X98568286Y-67691657D01*
X98587500Y-67788253D01*
X98587500Y-67886747D01*
X98568286Y-67983343D01*
X98537816Y-68056903D01*
X98530594Y-68074339D01*
X98475875Y-68156231D01*
X98406231Y-68225875D01*
X98324339Y-68280594D01*
X98324338Y-68280595D01*
X98324337Y-68280595D01*
X98233343Y-68318286D01*
X98136747Y-68337500D01*
X98038253Y-68337500D01*
X97941657Y-68318286D01*
X97850663Y-68280595D01*
X97850662Y-68280595D01*
X97850661Y-68280594D01*
X97768769Y-68225875D01*
X97699125Y-68156231D01*
X97644406Y-68074339D01*
X97637184Y-68056903D01*
X97606714Y-67983343D01*
X97587500Y-67886747D01*
X97587500Y-67788253D01*
X97606714Y-67691657D01*
X97644405Y-67600663D01*
X97699124Y-67518770D01*
X97768770Y-67449124D01*
X97809437Y-67421951D01*
X97850661Y-67394406D01*
X97941655Y-67356715D01*
X97941654Y-67356715D01*
X97941657Y-67356714D01*
X98038253Y-67337500D01*
X98136747Y-67337500D01*
X98233343Y-67356714D01*
G37*
G36*
X160770093Y-64722339D02*
G01*
X160952410Y-64758604D01*
X161234674Y-64875521D01*
X161488705Y-65045259D01*
X161704741Y-65261295D01*
X161874479Y-65515326D01*
X161991396Y-65797590D01*
X162018800Y-65935359D01*
X162051000Y-66097239D01*
X162051000Y-66402761D01*
X162042620Y-66444890D01*
X161991396Y-66702410D01*
X161874479Y-66984674D01*
X161704741Y-67238705D01*
X161488705Y-67454741D01*
X161234674Y-67624479D01*
X160952410Y-67741396D01*
X160802585Y-67771198D01*
X160652761Y-67801000D01*
X160347239Y-67801000D01*
X160197415Y-67771198D01*
X160047590Y-67741396D01*
X159765326Y-67624479D01*
X159511295Y-67454741D01*
X159295259Y-67238705D01*
X159125521Y-66984674D01*
X159008604Y-66702410D01*
X158957380Y-66444890D01*
X158949000Y-66402761D01*
X158949000Y-66097239D01*
X158981200Y-65935359D01*
X159008604Y-65797590D01*
X159125521Y-65515326D01*
X159295259Y-65261295D01*
X159511295Y-65045259D01*
X159765326Y-64875521D01*
X160047590Y-64758604D01*
X160229907Y-64722339D01*
X160347239Y-64699000D01*
X160652761Y-64699000D01*
X160770093Y-64722339D01*
G37*
G36*
X127251000Y-67151000D02*
G01*
X126249000Y-67151000D01*
X126249000Y-66249000D01*
X127251000Y-66249000D01*
X127251000Y-67151000D01*
G37*
G36*
X100129591Y-65478085D02*
G01*
X100163569Y-65488393D01*
X100194890Y-65505134D01*
X100222339Y-65527661D01*
X100244866Y-65555110D01*
X100261607Y-65586431D01*
X100271915Y-65620409D01*
X100276000Y-65661890D01*
X100276000Y-66338110D01*
X100271915Y-66379591D01*
X100261607Y-66413569D01*
X100244866Y-66444890D01*
X100222339Y-66472339D01*
X100194890Y-66494866D01*
X100163569Y-66511607D01*
X100129591Y-66521915D01*
X100088110Y-66526000D01*
X99486890Y-66526000D01*
X99445409Y-66521915D01*
X99411431Y-66511607D01*
X99380110Y-66494866D01*
X99352661Y-66472339D01*
X99330134Y-66444890D01*
X99313393Y-66413569D01*
X99303085Y-66379591D01*
X99299000Y-66338110D01*
X99299000Y-65661890D01*
X99303085Y-65620409D01*
X99313393Y-65586431D01*
X99330134Y-65555110D01*
X99352661Y-65527661D01*
X99380110Y-65505134D01*
X99411431Y-65488393D01*
X99445409Y-65478085D01*
X99486890Y-65474000D01*
X100088110Y-65474000D01*
X100129591Y-65478085D01*
G37*
G36*
X106342091Y-65478085D02*
G01*
X106376069Y-65488393D01*
X106407390Y-65505134D01*
X106434839Y-65527661D01*
X106457366Y-65555110D01*
X106474107Y-65586431D01*
X106484415Y-65620409D01*
X106488500Y-65661890D01*
X106488500Y-66338110D01*
X106484415Y-66379591D01*
X106474107Y-66413569D01*
X106457366Y-66444890D01*
X106434839Y-66472339D01*
X106407390Y-66494866D01*
X106376069Y-66511607D01*
X106342091Y-66521915D01*
X106300610Y-66526000D01*
X105699390Y-66526000D01*
X105657909Y-66521915D01*
X105623931Y-66511607D01*
X105592610Y-66494866D01*
X105565161Y-66472339D01*
X105542634Y-66444890D01*
X105525893Y-66413569D01*
X105515585Y-66379591D01*
X105511500Y-66338110D01*
X105511500Y-65661890D01*
X105515585Y-65620409D01*
X105525893Y-65586431D01*
X105542634Y-65555110D01*
X105565161Y-65527661D01*
X105592610Y-65505134D01*
X105623931Y-65488393D01*
X105657909Y-65478085D01*
X105699390Y-65474000D01*
X106300610Y-65474000D01*
X106342091Y-65478085D01*
G37*
G36*
X98554591Y-65478085D02*
G01*
X98588569Y-65488393D01*
X98619890Y-65505134D01*
X98647339Y-65527661D01*
X98669866Y-65555110D01*
X98686607Y-65586431D01*
X98696915Y-65620409D01*
X98701000Y-65661890D01*
X98701000Y-66338110D01*
X98696915Y-66379591D01*
X98686607Y-66413569D01*
X98669866Y-66444890D01*
X98647339Y-66472339D01*
X98619890Y-66494866D01*
X98588569Y-66511607D01*
X98554591Y-66521915D01*
X98513110Y-66526000D01*
X97911890Y-66526000D01*
X97870409Y-66521915D01*
X97836431Y-66511607D01*
X97805110Y-66494866D01*
X97777661Y-66472339D01*
X97755134Y-66444890D01*
X97738393Y-66413569D01*
X97728085Y-66379591D01*
X97724000Y-66338110D01*
X97724000Y-65661890D01*
X97728085Y-65620409D01*
X97738393Y-65586431D01*
X97755134Y-65555110D01*
X97777661Y-65527661D01*
X97805110Y-65505134D01*
X97836431Y-65488393D01*
X97870409Y-65478085D01*
X97911890Y-65474000D01*
X98513110Y-65474000D01*
X98554591Y-65478085D01*
G37*
G36*
X107917091Y-65478085D02*
G01*
X107951069Y-65488393D01*
X107982390Y-65505134D01*
X108009839Y-65527661D01*
X108032366Y-65555110D01*
X108049107Y-65586431D01*
X108059415Y-65620409D01*
X108063500Y-65661890D01*
X108063500Y-66338110D01*
X108059415Y-66379591D01*
X108049107Y-66413569D01*
X108032366Y-66444890D01*
X108009839Y-66472339D01*
X107982390Y-66494866D01*
X107951069Y-66511607D01*
X107917091Y-66521915D01*
X107875610Y-66526000D01*
X107274390Y-66526000D01*
X107232909Y-66521915D01*
X107198931Y-66511607D01*
X107167610Y-66494866D01*
X107140161Y-66472339D01*
X107117634Y-66444890D01*
X107100893Y-66413569D01*
X107090585Y-66379591D01*
X107086500Y-66338110D01*
X107086500Y-65661890D01*
X107090585Y-65620409D01*
X107100893Y-65586431D01*
X107117634Y-65555110D01*
X107140161Y-65527661D01*
X107167610Y-65505134D01*
X107198931Y-65488393D01*
X107232909Y-65478085D01*
X107274390Y-65474000D01*
X107875610Y-65474000D01*
X107917091Y-65478085D01*
G37*
G36*
X148329487Y-63748996D02*
G01*
X148531208Y-63832552D01*
X148566255Y-63847069D01*
X148747615Y-63968250D01*
X148779339Y-63989447D01*
X148960553Y-64170661D01*
X149102932Y-64383747D01*
X149201004Y-64620513D01*
X149251000Y-64871861D01*
X149251000Y-65128139D01*
X149201004Y-65379487D01*
X149102932Y-65616253D01*
X149102931Y-65616255D01*
X148960553Y-65829339D01*
X148779339Y-66010553D01*
X148566255Y-66152931D01*
X148566254Y-66152932D01*
X148566253Y-66152932D01*
X148329487Y-66251004D01*
X148078139Y-66301000D01*
X147821861Y-66301000D01*
X147570513Y-66251004D01*
X147333747Y-66152932D01*
X147333746Y-66152932D01*
X147333745Y-66152931D01*
X147120661Y-66010553D01*
X146939447Y-65829339D01*
X146797069Y-65616255D01*
X146797068Y-65616253D01*
X146698996Y-65379487D01*
X146649000Y-65128139D01*
X146649000Y-64871861D01*
X146698996Y-64620513D01*
X146797068Y-64383747D01*
X146939447Y-64170661D01*
X147120661Y-63989447D01*
X147152385Y-63968250D01*
X147333745Y-63847069D01*
X147368792Y-63832552D01*
X147570513Y-63748996D01*
X147821861Y-63699000D01*
X148078139Y-63699000D01*
X148329487Y-63748996D01*
G37*
G36*
X136129487Y-63748996D02*
G01*
X136331208Y-63832552D01*
X136366255Y-63847069D01*
X136547615Y-63968250D01*
X136579339Y-63989447D01*
X136760553Y-64170661D01*
X136902932Y-64383747D01*
X137001004Y-64620513D01*
X137051000Y-64871861D01*
X137051000Y-65128139D01*
X137001004Y-65379487D01*
X136902932Y-65616253D01*
X136902931Y-65616255D01*
X136760553Y-65829339D01*
X136579339Y-66010553D01*
X136366255Y-66152931D01*
X136366254Y-66152932D01*
X136366253Y-66152932D01*
X136129487Y-66251004D01*
X135878139Y-66301000D01*
X135621861Y-66301000D01*
X135370513Y-66251004D01*
X135133747Y-66152932D01*
X135133746Y-66152932D01*
X135133745Y-66152931D01*
X134920661Y-66010553D01*
X134739447Y-65829339D01*
X134597069Y-65616255D01*
X134597068Y-65616253D01*
X134498996Y-65379487D01*
X134449000Y-65128139D01*
X134449000Y-64871861D01*
X134498996Y-64620513D01*
X134597068Y-64383747D01*
X134739447Y-64170661D01*
X134920661Y-63989447D01*
X134952385Y-63968250D01*
X135133745Y-63847069D01*
X135168792Y-63832552D01*
X135370513Y-63748996D01*
X135621861Y-63699000D01*
X135878139Y-63699000D01*
X136129487Y-63748996D01*
G37*
G36*
X129251000Y-66201000D02*
G01*
X128249000Y-66201000D01*
X128249000Y-65299000D01*
X129251000Y-65299000D01*
X129251000Y-66201000D01*
G37*
G36*
X75921934Y-63452671D02*
G01*
X75951877Y-63461754D01*
X75979465Y-63476500D01*
X76003651Y-63496349D01*
X76023500Y-63520535D01*
X76038246Y-63548123D01*
X76047329Y-63578066D01*
X76051000Y-63615340D01*
X76051000Y-65884660D01*
X76047329Y-65921934D01*
X76038246Y-65951877D01*
X76023500Y-65979465D01*
X76003651Y-66003651D01*
X75979465Y-66023500D01*
X75951877Y-66038246D01*
X75921934Y-66047329D01*
X75884660Y-66051000D01*
X71715340Y-66051000D01*
X71678066Y-66047329D01*
X71648123Y-66038246D01*
X71620535Y-66023500D01*
X71596349Y-66003651D01*
X71576500Y-65979465D01*
X71561754Y-65951877D01*
X71552671Y-65921934D01*
X71549000Y-65884660D01*
X71549000Y-63615340D01*
X71552671Y-63578066D01*
X71561754Y-63548123D01*
X71576500Y-63520535D01*
X71596349Y-63496349D01*
X71620535Y-63476500D01*
X71648123Y-63461754D01*
X71678066Y-63452671D01*
X71715340Y-63449000D01*
X75884660Y-63449000D01*
X75921934Y-63452671D01*
G37*
G36*
X84321934Y-63452671D02*
G01*
X84351877Y-63461754D01*
X84379465Y-63476500D01*
X84403651Y-63496349D01*
X84423500Y-63520535D01*
X84438246Y-63548123D01*
X84447329Y-63578066D01*
X84451000Y-63615340D01*
X84451000Y-65884660D01*
X84447329Y-65921934D01*
X84438246Y-65951877D01*
X84423500Y-65979465D01*
X84403651Y-66003651D01*
X84379465Y-66023500D01*
X84351877Y-66038246D01*
X84321934Y-66047329D01*
X84284660Y-66051000D01*
X80115340Y-66051000D01*
X80078066Y-66047329D01*
X80048123Y-66038246D01*
X80020535Y-66023500D01*
X79996349Y-66003651D01*
X79976500Y-65979465D01*
X79961754Y-65951877D01*
X79952671Y-65921934D01*
X79949000Y-65884660D01*
X79949000Y-63615340D01*
X79952671Y-63578066D01*
X79961754Y-63548123D01*
X79976500Y-63520535D01*
X79996349Y-63496349D01*
X80020535Y-63476500D01*
X80048123Y-63461754D01*
X80078066Y-63452671D01*
X80115340Y-63449000D01*
X84284660Y-63449000D01*
X84321934Y-63452671D01*
G37*
G36*
X127251000Y-65251000D02*
G01*
X126249000Y-65251000D01*
X126249000Y-64349000D01*
X127251000Y-64349000D01*
X127251000Y-65251000D01*
G37*
G36*
X114434468Y-63703565D02*
G01*
X114473138Y-63715296D01*
X114508777Y-63734346D01*
X114540017Y-63759983D01*
X114565654Y-63791223D01*
X114584704Y-63826862D01*
X114596435Y-63865532D01*
X114601000Y-63911888D01*
X114601000Y-64988112D01*
X114596435Y-65034468D01*
X114584704Y-65073138D01*
X114565654Y-65108777D01*
X114540017Y-65140017D01*
X114508777Y-65165654D01*
X114473138Y-65184704D01*
X114434468Y-65196435D01*
X114388112Y-65201000D01*
X113736888Y-65201000D01*
X113690532Y-65196435D01*
X113651862Y-65184704D01*
X113616223Y-65165654D01*
X113584983Y-65140017D01*
X113559346Y-65108777D01*
X113540296Y-65073138D01*
X113528565Y-65034468D01*
X113524000Y-64988112D01*
X113524000Y-63911888D01*
X113528565Y-63865532D01*
X113540296Y-63826862D01*
X113559346Y-63791223D01*
X113584983Y-63759983D01*
X113616223Y-63734346D01*
X113651862Y-63715296D01*
X113690532Y-63703565D01*
X113736888Y-63699000D01*
X114388112Y-63699000D01*
X114434468Y-63703565D01*
G37*
G36*
X116309468Y-63703565D02*
G01*
X116348138Y-63715296D01*
X116383777Y-63734346D01*
X116415017Y-63759983D01*
X116440654Y-63791223D01*
X116459704Y-63826862D01*
X116471435Y-63865532D01*
X116476000Y-63911888D01*
X116476000Y-64988112D01*
X116471435Y-65034468D01*
X116459704Y-65073138D01*
X116440654Y-65108777D01*
X116415017Y-65140017D01*
X116383777Y-65165654D01*
X116348138Y-65184704D01*
X116309468Y-65196435D01*
X116263112Y-65201000D01*
X115611888Y-65201000D01*
X115565532Y-65196435D01*
X115526862Y-65184704D01*
X115491223Y-65165654D01*
X115459983Y-65140017D01*
X115434346Y-65108777D01*
X115415296Y-65073138D01*
X115403565Y-65034468D01*
X115399000Y-64988112D01*
X115399000Y-63911888D01*
X115403565Y-63865532D01*
X115415296Y-63826862D01*
X115434346Y-63791223D01*
X115459983Y-63759983D01*
X115491223Y-63734346D01*
X115526862Y-63715296D01*
X115565532Y-63703565D01*
X115611888Y-63699000D01*
X116263112Y-63699000D01*
X116309468Y-63703565D01*
G37*
G36*
X120304591Y-63978085D02*
G01*
X120338569Y-63988393D01*
X120369890Y-64005134D01*
X120397339Y-64027661D01*
X120419866Y-64055110D01*
X120436607Y-64086431D01*
X120446915Y-64120409D01*
X120451000Y-64161890D01*
X120451000Y-64838110D01*
X120446915Y-64879591D01*
X120436607Y-64913569D01*
X120419866Y-64944890D01*
X120397339Y-64972339D01*
X120369890Y-64994866D01*
X120338569Y-65011607D01*
X120304591Y-65021915D01*
X120263110Y-65026000D01*
X119661890Y-65026000D01*
X119620409Y-65021915D01*
X119586431Y-65011607D01*
X119555110Y-64994866D01*
X119527661Y-64972339D01*
X119505134Y-64944890D01*
X119488393Y-64913569D01*
X119478085Y-64879591D01*
X119474000Y-64838110D01*
X119474000Y-64161890D01*
X119478085Y-64120409D01*
X119488393Y-64086431D01*
X119505134Y-64055110D01*
X119527661Y-64027661D01*
X119555110Y-64005134D01*
X119586431Y-63988393D01*
X119620409Y-63978085D01*
X119661890Y-63974000D01*
X120263110Y-63974000D01*
X120304591Y-63978085D01*
G37*
G36*
X121879591Y-63978085D02*
G01*
X121913569Y-63988393D01*
X121944890Y-64005134D01*
X121972339Y-64027661D01*
X121994866Y-64055110D01*
X122011607Y-64086431D01*
X122021915Y-64120409D01*
X122026000Y-64161890D01*
X122026000Y-64838110D01*
X122021915Y-64879591D01*
X122011607Y-64913569D01*
X121994866Y-64944890D01*
X121972339Y-64972339D01*
X121944890Y-64994866D01*
X121913569Y-65011607D01*
X121879591Y-65021915D01*
X121838110Y-65026000D01*
X121236890Y-65026000D01*
X121195409Y-65021915D01*
X121161431Y-65011607D01*
X121130110Y-64994866D01*
X121102661Y-64972339D01*
X121080134Y-64944890D01*
X121063393Y-64913569D01*
X121053085Y-64879591D01*
X121049000Y-64838110D01*
X121049000Y-64161890D01*
X121053085Y-64120409D01*
X121063393Y-64086431D01*
X121080134Y-64055110D01*
X121102661Y-64027661D01*
X121130110Y-64005134D01*
X121161431Y-63988393D01*
X121195409Y-63978085D01*
X121236890Y-63974000D01*
X121838110Y-63974000D01*
X121879591Y-63978085D01*
G37*
G36*
X109304591Y-63728085D02*
G01*
X109338569Y-63738393D01*
X109369890Y-63755134D01*
X109397339Y-63777661D01*
X109419866Y-63805110D01*
X109436607Y-63836431D01*
X109446915Y-63870409D01*
X109451000Y-63911890D01*
X109451000Y-64588110D01*
X109446915Y-64629591D01*
X109436607Y-64663569D01*
X109419866Y-64694890D01*
X109397339Y-64722339D01*
X109369890Y-64744866D01*
X109338569Y-64761607D01*
X109304591Y-64771915D01*
X109263110Y-64776000D01*
X108661890Y-64776000D01*
X108620409Y-64771915D01*
X108586431Y-64761607D01*
X108555110Y-64744866D01*
X108527661Y-64722339D01*
X108505134Y-64694890D01*
X108488393Y-64663569D01*
X108478085Y-64629591D01*
X108474000Y-64588110D01*
X108474000Y-63911890D01*
X108478085Y-63870409D01*
X108488393Y-63836431D01*
X108505134Y-63805110D01*
X108527661Y-63777661D01*
X108555110Y-63755134D01*
X108586431Y-63738393D01*
X108620409Y-63728085D01*
X108661890Y-63724000D01*
X109263110Y-63724000D01*
X109304591Y-63728085D01*
G37*
G36*
X96379591Y-63728085D02*
G01*
X96413569Y-63738393D01*
X96444890Y-63755134D01*
X96472339Y-63777661D01*
X96494866Y-63805110D01*
X96511607Y-63836431D01*
X96521915Y-63870409D01*
X96526000Y-63911890D01*
X96526000Y-64588110D01*
X96521915Y-64629591D01*
X96511607Y-64663569D01*
X96494866Y-64694890D01*
X96472339Y-64722339D01*
X96444890Y-64744866D01*
X96413569Y-64761607D01*
X96379591Y-64771915D01*
X96338110Y-64776000D01*
X95736890Y-64776000D01*
X95695409Y-64771915D01*
X95661431Y-64761607D01*
X95630110Y-64744866D01*
X95602661Y-64722339D01*
X95580134Y-64694890D01*
X95563393Y-64663569D01*
X95553085Y-64629591D01*
X95549000Y-64588110D01*
X95549000Y-63911890D01*
X95553085Y-63870409D01*
X95563393Y-63836431D01*
X95580134Y-63805110D01*
X95602661Y-63777661D01*
X95630110Y-63755134D01*
X95661431Y-63738393D01*
X95695409Y-63728085D01*
X95736890Y-63724000D01*
X96338110Y-63724000D01*
X96379591Y-63728085D01*
G37*
G36*
X94804591Y-63728085D02*
G01*
X94838569Y-63738393D01*
X94869890Y-63755134D01*
X94897339Y-63777661D01*
X94919866Y-63805110D01*
X94936607Y-63836431D01*
X94946915Y-63870409D01*
X94951000Y-63911890D01*
X94951000Y-64588110D01*
X94946915Y-64629591D01*
X94936607Y-64663569D01*
X94919866Y-64694890D01*
X94897339Y-64722339D01*
X94869890Y-64744866D01*
X94838569Y-64761607D01*
X94804591Y-64771915D01*
X94763110Y-64776000D01*
X94161890Y-64776000D01*
X94120409Y-64771915D01*
X94086431Y-64761607D01*
X94055110Y-64744866D01*
X94027661Y-64722339D01*
X94005134Y-64694890D01*
X93988393Y-64663569D01*
X93978085Y-64629591D01*
X93974000Y-64588110D01*
X93974000Y-63911890D01*
X93978085Y-63870409D01*
X93988393Y-63836431D01*
X94005134Y-63805110D01*
X94027661Y-63777661D01*
X94055110Y-63755134D01*
X94086431Y-63738393D01*
X94120409Y-63728085D01*
X94161890Y-63724000D01*
X94763110Y-63724000D01*
X94804591Y-63728085D01*
G37*
G36*
X110879591Y-63728085D02*
G01*
X110913569Y-63738393D01*
X110944890Y-63755134D01*
X110972339Y-63777661D01*
X110994866Y-63805110D01*
X111011607Y-63836431D01*
X111021915Y-63870409D01*
X111026000Y-63911890D01*
X111026000Y-64588110D01*
X111021915Y-64629591D01*
X111011607Y-64663569D01*
X110994866Y-64694890D01*
X110972339Y-64722339D01*
X110944890Y-64744866D01*
X110913569Y-64761607D01*
X110879591Y-64771915D01*
X110838110Y-64776000D01*
X110236890Y-64776000D01*
X110195409Y-64771915D01*
X110161431Y-64761607D01*
X110130110Y-64744866D01*
X110102661Y-64722339D01*
X110080134Y-64694890D01*
X110063393Y-64663569D01*
X110053085Y-64629591D01*
X110049000Y-64588110D01*
X110049000Y-63911890D01*
X110053085Y-63870409D01*
X110063393Y-63836431D01*
X110080134Y-63805110D01*
X110102661Y-63777661D01*
X110130110Y-63755134D01*
X110161431Y-63738393D01*
X110195409Y-63728085D01*
X110236890Y-63724000D01*
X110838110Y-63724000D01*
X110879591Y-63728085D01*
G37*
G36*
X109304591Y-61728085D02*
G01*
X109338569Y-61738393D01*
X109369890Y-61755134D01*
X109397339Y-61777661D01*
X109419866Y-61805110D01*
X109436607Y-61836431D01*
X109446915Y-61870409D01*
X109451000Y-61911890D01*
X109451000Y-62588110D01*
X109446915Y-62629591D01*
X109436607Y-62663569D01*
X109419866Y-62694890D01*
X109397339Y-62722339D01*
X109369890Y-62744866D01*
X109338569Y-62761607D01*
X109304591Y-62771915D01*
X109263110Y-62776000D01*
X108661890Y-62776000D01*
X108620409Y-62771915D01*
X108586431Y-62761607D01*
X108555110Y-62744866D01*
X108527661Y-62722339D01*
X108505134Y-62694890D01*
X108488393Y-62663569D01*
X108478085Y-62629591D01*
X108474000Y-62588110D01*
X108474000Y-61911890D01*
X108478085Y-61870409D01*
X108488393Y-61836431D01*
X108505134Y-61805110D01*
X108527661Y-61777661D01*
X108555110Y-61755134D01*
X108586431Y-61738393D01*
X108620409Y-61728085D01*
X108661890Y-61724000D01*
X109263110Y-61724000D01*
X109304591Y-61728085D01*
G37*
G36*
X104879591Y-61728085D02*
G01*
X104913569Y-61738393D01*
X104944890Y-61755134D01*
X104972339Y-61777661D01*
X104994866Y-61805110D01*
X105011607Y-61836431D01*
X105021915Y-61870409D01*
X105026000Y-61911890D01*
X105026000Y-62588110D01*
X105021915Y-62629591D01*
X105011607Y-62663569D01*
X104994866Y-62694890D01*
X104972339Y-62722339D01*
X104944890Y-62744866D01*
X104913569Y-62761607D01*
X104879591Y-62771915D01*
X104838110Y-62776000D01*
X104236890Y-62776000D01*
X104195409Y-62771915D01*
X104161431Y-62761607D01*
X104130110Y-62744866D01*
X104102661Y-62722339D01*
X104080134Y-62694890D01*
X104063393Y-62663569D01*
X104053085Y-62629591D01*
X104049000Y-62588110D01*
X104049000Y-61911890D01*
X104053085Y-61870409D01*
X104063393Y-61836431D01*
X104080134Y-61805110D01*
X104102661Y-61777661D01*
X104130110Y-61755134D01*
X104161431Y-61738393D01*
X104195409Y-61728085D01*
X104236890Y-61724000D01*
X104838110Y-61724000D01*
X104879591Y-61728085D01*
G37*
G36*
X94804591Y-61728085D02*
G01*
X94838569Y-61738393D01*
X94869890Y-61755134D01*
X94897339Y-61777661D01*
X94919866Y-61805110D01*
X94936607Y-61836431D01*
X94946915Y-61870409D01*
X94951000Y-61911890D01*
X94951000Y-62588110D01*
X94946915Y-62629591D01*
X94936607Y-62663569D01*
X94919866Y-62694890D01*
X94897339Y-62722339D01*
X94869890Y-62744866D01*
X94838569Y-62761607D01*
X94804591Y-62771915D01*
X94763110Y-62776000D01*
X94161890Y-62776000D01*
X94120409Y-62771915D01*
X94086431Y-62761607D01*
X94055110Y-62744866D01*
X94027661Y-62722339D01*
X94005134Y-62694890D01*
X93988393Y-62663569D01*
X93978085Y-62629591D01*
X93974000Y-62588110D01*
X93974000Y-61911890D01*
X93978085Y-61870409D01*
X93988393Y-61836431D01*
X94005134Y-61805110D01*
X94027661Y-61777661D01*
X94055110Y-61755134D01*
X94086431Y-61738393D01*
X94120409Y-61728085D01*
X94161890Y-61724000D01*
X94763110Y-61724000D01*
X94804591Y-61728085D01*
G37*
G36*
X103304591Y-61728085D02*
G01*
X103338569Y-61738393D01*
X103369890Y-61755134D01*
X103397339Y-61777661D01*
X103419866Y-61805110D01*
X103436607Y-61836431D01*
X103446915Y-61870409D01*
X103451000Y-61911890D01*
X103451000Y-62588110D01*
X103446915Y-62629591D01*
X103436607Y-62663569D01*
X103419866Y-62694890D01*
X103397339Y-62722339D01*
X103369890Y-62744866D01*
X103338569Y-62761607D01*
X103304591Y-62771915D01*
X103263110Y-62776000D01*
X102661890Y-62776000D01*
X102620409Y-62771915D01*
X102586431Y-62761607D01*
X102555110Y-62744866D01*
X102527661Y-62722339D01*
X102505134Y-62694890D01*
X102488393Y-62663569D01*
X102478085Y-62629591D01*
X102474000Y-62588110D01*
X102474000Y-61911890D01*
X102478085Y-61870409D01*
X102488393Y-61836431D01*
X102505134Y-61805110D01*
X102527661Y-61777661D01*
X102555110Y-61755134D01*
X102586431Y-61738393D01*
X102620409Y-61728085D01*
X102661890Y-61724000D01*
X103263110Y-61724000D01*
X103304591Y-61728085D01*
G37*
G36*
X96379591Y-61728085D02*
G01*
X96413569Y-61738393D01*
X96444890Y-61755134D01*
X96472339Y-61777661D01*
X96494866Y-61805110D01*
X96511607Y-61836431D01*
X96521915Y-61870409D01*
X96526000Y-61911890D01*
X96526000Y-62588110D01*
X96521915Y-62629591D01*
X96511607Y-62663569D01*
X96494866Y-62694890D01*
X96472339Y-62722339D01*
X96444890Y-62744866D01*
X96413569Y-62761607D01*
X96379591Y-62771915D01*
X96338110Y-62776000D01*
X95736890Y-62776000D01*
X95695409Y-62771915D01*
X95661431Y-62761607D01*
X95630110Y-62744866D01*
X95602661Y-62722339D01*
X95580134Y-62694890D01*
X95563393Y-62663569D01*
X95553085Y-62629591D01*
X95549000Y-62588110D01*
X95549000Y-61911890D01*
X95553085Y-61870409D01*
X95563393Y-61836431D01*
X95580134Y-61805110D01*
X95602661Y-61777661D01*
X95630110Y-61755134D01*
X95661431Y-61738393D01*
X95695409Y-61728085D01*
X95736890Y-61724000D01*
X96338110Y-61724000D01*
X96379591Y-61728085D01*
G37*
G36*
X110879591Y-61728085D02*
G01*
X110913569Y-61738393D01*
X110944890Y-61755134D01*
X110972339Y-61777661D01*
X110994866Y-61805110D01*
X111011607Y-61836431D01*
X111021915Y-61870409D01*
X111026000Y-61911890D01*
X111026000Y-62588110D01*
X111021915Y-62629591D01*
X111011607Y-62663569D01*
X110994866Y-62694890D01*
X110972339Y-62722339D01*
X110944890Y-62744866D01*
X110913569Y-62761607D01*
X110879591Y-62771915D01*
X110838110Y-62776000D01*
X110236890Y-62776000D01*
X110195409Y-62771915D01*
X110161431Y-62761607D01*
X110130110Y-62744866D01*
X110102661Y-62722339D01*
X110080134Y-62694890D01*
X110063393Y-62663569D01*
X110053085Y-62629591D01*
X110049000Y-62588110D01*
X110049000Y-61911890D01*
X110053085Y-61870409D01*
X110063393Y-61836431D01*
X110080134Y-61805110D01*
X110102661Y-61777661D01*
X110130110Y-61755134D01*
X110161431Y-61738393D01*
X110195409Y-61728085D01*
X110236890Y-61724000D01*
X110838110Y-61724000D01*
X110879591Y-61728085D01*
G37*
G36*
X87554591Y-61728085D02*
G01*
X87588569Y-61738393D01*
X87619890Y-61755134D01*
X87647339Y-61777661D01*
X87669866Y-61805110D01*
X87686607Y-61836431D01*
X87696915Y-61870409D01*
X87701000Y-61911890D01*
X87701000Y-62588110D01*
X87696915Y-62629591D01*
X87686607Y-62663569D01*
X87669866Y-62694890D01*
X87647339Y-62722339D01*
X87619890Y-62744866D01*
X87588569Y-62761607D01*
X87554591Y-62771915D01*
X87513110Y-62776000D01*
X86911890Y-62776000D01*
X86870409Y-62771915D01*
X86836431Y-62761607D01*
X86805110Y-62744866D01*
X86777661Y-62722339D01*
X86755134Y-62694890D01*
X86738393Y-62663569D01*
X86728085Y-62629591D01*
X86724000Y-62588110D01*
X86724000Y-61911890D01*
X86728085Y-61870409D01*
X86738393Y-61836431D01*
X86755134Y-61805110D01*
X86777661Y-61777661D01*
X86805110Y-61755134D01*
X86836431Y-61738393D01*
X86870409Y-61728085D01*
X86911890Y-61724000D01*
X87513110Y-61724000D01*
X87554591Y-61728085D01*
G37*
G36*
X89129591Y-61728085D02*
G01*
X89163569Y-61738393D01*
X89194890Y-61755134D01*
X89222339Y-61777661D01*
X89244866Y-61805110D01*
X89261607Y-61836431D01*
X89271915Y-61870409D01*
X89276000Y-61911890D01*
X89276000Y-62588110D01*
X89271915Y-62629591D01*
X89261607Y-62663569D01*
X89244866Y-62694890D01*
X89222339Y-62722339D01*
X89194890Y-62744866D01*
X89163569Y-62761607D01*
X89129591Y-62771915D01*
X89088110Y-62776000D01*
X88486890Y-62776000D01*
X88445409Y-62771915D01*
X88411431Y-62761607D01*
X88380110Y-62744866D01*
X88352661Y-62722339D01*
X88330134Y-62694890D01*
X88313393Y-62663569D01*
X88303085Y-62629591D01*
X88299000Y-62588110D01*
X88299000Y-61911890D01*
X88303085Y-61870409D01*
X88313393Y-61836431D01*
X88330134Y-61805110D01*
X88352661Y-61777661D01*
X88380110Y-61755134D01*
X88411431Y-61738393D01*
X88445409Y-61728085D01*
X88486890Y-61724000D01*
X89088110Y-61724000D01*
X89129591Y-61728085D01*
G37*
G36*
X116309468Y-61253565D02*
G01*
X116348138Y-61265296D01*
X116383777Y-61284346D01*
X116415017Y-61309983D01*
X116440654Y-61341223D01*
X116459704Y-61376862D01*
X116471435Y-61415532D01*
X116476000Y-61461888D01*
X116476000Y-62538112D01*
X116471435Y-62584468D01*
X116459704Y-62623138D01*
X116440654Y-62658777D01*
X116415017Y-62690017D01*
X116383777Y-62715654D01*
X116348138Y-62734704D01*
X116309468Y-62746435D01*
X116263112Y-62751000D01*
X115611888Y-62751000D01*
X115565532Y-62746435D01*
X115526862Y-62734704D01*
X115491223Y-62715654D01*
X115459983Y-62690017D01*
X115434346Y-62658777D01*
X115415296Y-62623138D01*
X115403565Y-62584468D01*
X115399000Y-62538112D01*
X115399000Y-61461888D01*
X115403565Y-61415532D01*
X115415296Y-61376862D01*
X115434346Y-61341223D01*
X115459983Y-61309983D01*
X115491223Y-61284346D01*
X115526862Y-61265296D01*
X115565532Y-61253565D01*
X115611888Y-61249000D01*
X116263112Y-61249000D01*
X116309468Y-61253565D01*
G37*
G36*
X114434468Y-61253565D02*
G01*
X114473138Y-61265296D01*
X114508777Y-61284346D01*
X114540017Y-61309983D01*
X114565654Y-61341223D01*
X114584704Y-61376862D01*
X114596435Y-61415532D01*
X114601000Y-61461888D01*
X114601000Y-62538112D01*
X114596435Y-62584468D01*
X114584704Y-62623138D01*
X114565654Y-62658777D01*
X114540017Y-62690017D01*
X114508777Y-62715654D01*
X114473138Y-62734704D01*
X114434468Y-62746435D01*
X114388112Y-62751000D01*
X113736888Y-62751000D01*
X113690532Y-62746435D01*
X113651862Y-62734704D01*
X113616223Y-62715654D01*
X113584983Y-62690017D01*
X113559346Y-62658777D01*
X113540296Y-62623138D01*
X113528565Y-62584468D01*
X113524000Y-62538112D01*
X113524000Y-61461888D01*
X113528565Y-61415532D01*
X113540296Y-61376862D01*
X113559346Y-61341223D01*
X113584983Y-61309983D01*
X113616223Y-61284346D01*
X113651862Y-61265296D01*
X113690532Y-61253565D01*
X113736888Y-61249000D01*
X114388112Y-61249000D01*
X114434468Y-61253565D01*
G37*
G36*
X160802585Y-59648802D02*
G01*
X160952410Y-59678604D01*
X161234674Y-59795521D01*
X161488705Y-59965259D01*
X161704741Y-60181295D01*
X161874479Y-60435326D01*
X161991396Y-60717590D01*
X162002081Y-60771307D01*
X162051000Y-61017239D01*
X162051000Y-61322761D01*
X162032610Y-61415212D01*
X161991396Y-61622410D01*
X161874479Y-61904674D01*
X161704741Y-62158705D01*
X161488705Y-62374741D01*
X161234674Y-62544479D01*
X160952410Y-62661396D01*
X160921984Y-62667448D01*
X160652761Y-62721000D01*
X160347239Y-62721000D01*
X160078016Y-62667448D01*
X160047590Y-62661396D01*
X159765326Y-62544479D01*
X159511295Y-62374741D01*
X159295259Y-62158705D01*
X159125521Y-61904674D01*
X159008604Y-61622410D01*
X158967390Y-61415212D01*
X158949000Y-61322761D01*
X158949000Y-61017239D01*
X158997919Y-60771307D01*
X159008604Y-60717590D01*
X159125521Y-60435326D01*
X159295259Y-60181295D01*
X159511295Y-59965259D01*
X159765326Y-59795521D01*
X160047590Y-59678604D01*
X160197415Y-59648802D01*
X160347239Y-59619000D01*
X160652761Y-59619000D01*
X160802585Y-59648802D01*
G37*
G36*
X128951000Y-62451000D02*
G01*
X126549000Y-62451000D01*
X126549000Y-59849000D01*
X128951000Y-59849000D01*
X128951000Y-62451000D01*
G37*
G36*
X96379591Y-59728085D02*
G01*
X96413569Y-59738393D01*
X96444890Y-59755134D01*
X96472339Y-59777661D01*
X96494866Y-59805110D01*
X96511607Y-59836431D01*
X96521915Y-59870409D01*
X96526000Y-59911890D01*
X96526000Y-60588110D01*
X96521915Y-60629591D01*
X96511607Y-60663569D01*
X96494866Y-60694890D01*
X96472339Y-60722339D01*
X96444890Y-60744866D01*
X96413569Y-60761607D01*
X96379591Y-60771915D01*
X96338110Y-60776000D01*
X95736890Y-60776000D01*
X95695409Y-60771915D01*
X95661431Y-60761607D01*
X95630110Y-60744866D01*
X95602661Y-60722339D01*
X95580134Y-60694890D01*
X95563393Y-60663569D01*
X95553085Y-60629591D01*
X95549000Y-60588110D01*
X95549000Y-59911890D01*
X95553085Y-59870409D01*
X95563393Y-59836431D01*
X95580134Y-59805110D01*
X95602661Y-59777661D01*
X95630110Y-59755134D01*
X95661431Y-59738393D01*
X95695409Y-59728085D01*
X95736890Y-59724000D01*
X96338110Y-59724000D01*
X96379591Y-59728085D01*
G37*
G36*
X89129591Y-59728085D02*
G01*
X89163569Y-59738393D01*
X89194890Y-59755134D01*
X89222339Y-59777661D01*
X89244866Y-59805110D01*
X89261607Y-59836431D01*
X89271915Y-59870409D01*
X89276000Y-59911890D01*
X89276000Y-60588110D01*
X89271915Y-60629591D01*
X89261607Y-60663569D01*
X89244866Y-60694890D01*
X89222339Y-60722339D01*
X89194890Y-60744866D01*
X89163569Y-60761607D01*
X89129591Y-60771915D01*
X89088110Y-60776000D01*
X88486890Y-60776000D01*
X88445409Y-60771915D01*
X88411431Y-60761607D01*
X88380110Y-60744866D01*
X88352661Y-60722339D01*
X88330134Y-60694890D01*
X88313393Y-60663569D01*
X88303085Y-60629591D01*
X88299000Y-60588110D01*
X88299000Y-59911890D01*
X88303085Y-59870409D01*
X88313393Y-59836431D01*
X88330134Y-59805110D01*
X88352661Y-59777661D01*
X88380110Y-59755134D01*
X88411431Y-59738393D01*
X88445409Y-59728085D01*
X88486890Y-59724000D01*
X89088110Y-59724000D01*
X89129591Y-59728085D01*
G37*
G36*
X103304591Y-59728085D02*
G01*
X103338569Y-59738393D01*
X103369890Y-59755134D01*
X103397339Y-59777661D01*
X103419866Y-59805110D01*
X103436607Y-59836431D01*
X103446915Y-59870409D01*
X103451000Y-59911890D01*
X103451000Y-60588110D01*
X103446915Y-60629591D01*
X103436607Y-60663569D01*
X103419866Y-60694890D01*
X103397339Y-60722339D01*
X103369890Y-60744866D01*
X103338569Y-60761607D01*
X103304591Y-60771915D01*
X103263110Y-60776000D01*
X102661890Y-60776000D01*
X102620409Y-60771915D01*
X102586431Y-60761607D01*
X102555110Y-60744866D01*
X102527661Y-60722339D01*
X102505134Y-60694890D01*
X102488393Y-60663569D01*
X102478085Y-60629591D01*
X102474000Y-60588110D01*
X102474000Y-59911890D01*
X102478085Y-59870409D01*
X102488393Y-59836431D01*
X102505134Y-59805110D01*
X102527661Y-59777661D01*
X102555110Y-59755134D01*
X102586431Y-59738393D01*
X102620409Y-59728085D01*
X102661890Y-59724000D01*
X103263110Y-59724000D01*
X103304591Y-59728085D01*
G37*
G36*
X94804591Y-59728085D02*
G01*
X94838569Y-59738393D01*
X94869890Y-59755134D01*
X94897339Y-59777661D01*
X94919866Y-59805110D01*
X94936607Y-59836431D01*
X94946915Y-59870409D01*
X94951000Y-59911890D01*
X94951000Y-60588110D01*
X94946915Y-60629591D01*
X94936607Y-60663569D01*
X94919866Y-60694890D01*
X94897339Y-60722339D01*
X94869890Y-60744866D01*
X94838569Y-60761607D01*
X94804591Y-60771915D01*
X94763110Y-60776000D01*
X94161890Y-60776000D01*
X94120409Y-60771915D01*
X94086431Y-60761607D01*
X94055110Y-60744866D01*
X94027661Y-60722339D01*
X94005134Y-60694890D01*
X93988393Y-60663569D01*
X93978085Y-60629591D01*
X93974000Y-60588110D01*
X93974000Y-59911890D01*
X93978085Y-59870409D01*
X93988393Y-59836431D01*
X94005134Y-59805110D01*
X94027661Y-59777661D01*
X94055110Y-59755134D01*
X94086431Y-59738393D01*
X94120409Y-59728085D01*
X94161890Y-59724000D01*
X94763110Y-59724000D01*
X94804591Y-59728085D01*
G37*
G36*
X104879591Y-59728085D02*
G01*
X104913569Y-59738393D01*
X104944890Y-59755134D01*
X104972339Y-59777661D01*
X104994866Y-59805110D01*
X105011607Y-59836431D01*
X105021915Y-59870409D01*
X105026000Y-59911890D01*
X105026000Y-60588110D01*
X105021915Y-60629591D01*
X105011607Y-60663569D01*
X104994866Y-60694890D01*
X104972339Y-60722339D01*
X104944890Y-60744866D01*
X104913569Y-60761607D01*
X104879591Y-60771915D01*
X104838110Y-60776000D01*
X104236890Y-60776000D01*
X104195409Y-60771915D01*
X104161431Y-60761607D01*
X104130110Y-60744866D01*
X104102661Y-60722339D01*
X104080134Y-60694890D01*
X104063393Y-60663569D01*
X104053085Y-60629591D01*
X104049000Y-60588110D01*
X104049000Y-59911890D01*
X104053085Y-59870409D01*
X104063393Y-59836431D01*
X104080134Y-59805110D01*
X104102661Y-59777661D01*
X104130110Y-59755134D01*
X104161431Y-59738393D01*
X104195409Y-59728085D01*
X104236890Y-59724000D01*
X104838110Y-59724000D01*
X104879591Y-59728085D01*
G37*
G36*
X87554591Y-59728085D02*
G01*
X87588569Y-59738393D01*
X87619890Y-59755134D01*
X87647339Y-59777661D01*
X87669866Y-59805110D01*
X87686607Y-59836431D01*
X87696915Y-59870409D01*
X87701000Y-59911890D01*
X87701000Y-60588110D01*
X87696915Y-60629591D01*
X87686607Y-60663569D01*
X87669866Y-60694890D01*
X87647339Y-60722339D01*
X87619890Y-60744866D01*
X87588569Y-60761607D01*
X87554591Y-60771915D01*
X87513110Y-60776000D01*
X86911890Y-60776000D01*
X86870409Y-60771915D01*
X86836431Y-60761607D01*
X86805110Y-60744866D01*
X86777661Y-60722339D01*
X86755134Y-60694890D01*
X86738393Y-60663569D01*
X86728085Y-60629591D01*
X86724000Y-60588110D01*
X86724000Y-59911890D01*
X86728085Y-59870409D01*
X86738393Y-59836431D01*
X86755134Y-59805110D01*
X86777661Y-59777661D01*
X86805110Y-59755134D01*
X86836431Y-59738393D01*
X86870409Y-59728085D01*
X86911890Y-59724000D01*
X87513110Y-59724000D01*
X87554591Y-59728085D01*
G37*
G36*
X135051000Y-60301000D02*
G01*
X132449000Y-60301000D01*
X132449000Y-57699000D01*
X135051000Y-57699000D01*
X135051000Y-60301000D01*
G37*
G36*
X117051000Y-59751000D02*
G01*
X115449000Y-59751000D01*
X115449000Y-56249000D01*
X117051000Y-56249000D01*
X117051000Y-59751000D01*
G37*
G36*
X111051000Y-59751000D02*
G01*
X109449000Y-59751000D01*
X109449000Y-56249000D01*
X111051000Y-56249000D01*
X111051000Y-59751000D01*
G37*
G36*
X113051000Y-59751000D02*
G01*
X111449000Y-59751000D01*
X111449000Y-56249000D01*
X113051000Y-56249000D01*
X113051000Y-59751000D01*
G37*
G36*
X115051000Y-59751000D02*
G01*
X113449000Y-59751000D01*
X113449000Y-56249000D01*
X115051000Y-56249000D01*
X115051000Y-59751000D01*
G37*
G36*
X106351000Y-58451000D02*
G01*
X104349000Y-58451000D01*
X104349000Y-57049000D01*
X106351000Y-57049000D01*
X106351000Y-58451000D01*
G37*
G36*
X103151000Y-58451000D02*
G01*
X101149000Y-58451000D01*
X101149000Y-57049000D01*
X103151000Y-57049000D01*
X103151000Y-58451000D01*
G37*
G36*
X128951000Y-58151000D02*
G01*
X126549000Y-58151000D01*
X126549000Y-55549000D01*
X128951000Y-55549000D01*
X128951000Y-58151000D01*
G37*
G36*
X82306564Y-55489389D02*
G01*
X82497833Y-55568615D01*
X82497835Y-55568616D01*
X82669973Y-55683635D01*
X82816365Y-55830027D01*
X82931385Y-56002167D01*
X83010611Y-56193436D01*
X83051000Y-56396484D01*
X83051000Y-56603516D01*
X83010611Y-56806564D01*
X82979779Y-56880999D01*
X82931384Y-56997835D01*
X82816365Y-57169973D01*
X82669973Y-57316365D01*
X82497835Y-57431384D01*
X82497834Y-57431385D01*
X82497833Y-57431385D01*
X82306564Y-57510611D01*
X82103516Y-57551000D01*
X81896484Y-57551000D01*
X81693436Y-57510611D01*
X81502167Y-57431385D01*
X81502166Y-57431385D01*
X81502165Y-57431384D01*
X81330027Y-57316365D01*
X81183635Y-57169973D01*
X81068616Y-56997835D01*
X81020221Y-56880999D01*
X80989389Y-56806564D01*
X80949000Y-56603516D01*
X80949000Y-56396484D01*
X80989389Y-56193436D01*
X81068615Y-56002167D01*
X81183635Y-55830027D01*
X81330027Y-55683635D01*
X81502165Y-55568616D01*
X81502167Y-55568615D01*
X81693436Y-55489389D01*
X81896484Y-55449000D01*
X82103516Y-55449000D01*
X82306564Y-55489389D01*
G37*
G36*
X88806564Y-55489389D02*
G01*
X88997833Y-55568615D01*
X88997835Y-55568616D01*
X89169973Y-55683635D01*
X89316365Y-55830027D01*
X89431385Y-56002167D01*
X89510611Y-56193436D01*
X89551000Y-56396484D01*
X89551000Y-56603516D01*
X89510611Y-56806564D01*
X89479779Y-56880999D01*
X89431384Y-56997835D01*
X89316365Y-57169973D01*
X89169973Y-57316365D01*
X88997835Y-57431384D01*
X88997834Y-57431385D01*
X88997833Y-57431385D01*
X88806564Y-57510611D01*
X88603516Y-57551000D01*
X88396484Y-57551000D01*
X88193436Y-57510611D01*
X88002167Y-57431385D01*
X88002166Y-57431385D01*
X88002165Y-57431384D01*
X87830027Y-57316365D01*
X87683635Y-57169973D01*
X87568616Y-56997835D01*
X87520221Y-56880999D01*
X87489389Y-56806564D01*
X87449000Y-56603516D01*
X87449000Y-56396484D01*
X87489389Y-56193436D01*
X87568615Y-56002167D01*
X87683635Y-55830027D01*
X87830027Y-55683635D01*
X88002165Y-55568616D01*
X88002167Y-55568615D01*
X88193436Y-55489389D01*
X88396484Y-55449000D01*
X88603516Y-55449000D01*
X88806564Y-55489389D01*
G37*
G36*
X74634239Y-50811467D02*
G01*
X74948282Y-50873934D01*
X75539926Y-51119001D01*
X76072392Y-51474784D01*
X76525216Y-51927608D01*
X76880999Y-52460074D01*
X77126066Y-53051718D01*
X77251000Y-53679804D01*
X77251000Y-54320196D01*
X77126066Y-54948282D01*
X76880999Y-55539926D01*
X76525216Y-56072392D01*
X76072392Y-56525216D01*
X75539926Y-56880999D01*
X74948282Y-57126066D01*
X74727546Y-57169973D01*
X74320197Y-57251000D01*
X73679803Y-57251000D01*
X73272454Y-57169973D01*
X73051718Y-57126066D01*
X72460074Y-56880999D01*
X71927608Y-56525216D01*
X71474784Y-56072392D01*
X71119001Y-55539926D01*
X70873934Y-54948282D01*
X70749000Y-54320196D01*
X70749000Y-53679804D01*
X70873934Y-53051718D01*
X71119001Y-52460074D01*
X71474784Y-51927608D01*
X71927608Y-51474784D01*
X72460074Y-51119001D01*
X73051718Y-50873934D01*
X73365761Y-50811467D01*
X73679803Y-50749000D01*
X74320197Y-50749000D01*
X74634239Y-50811467D01*
G37*
G36*
X161634239Y-50811467D02*
G01*
X161948282Y-50873934D01*
X162539926Y-51119001D01*
X163072392Y-51474784D01*
X163525216Y-51927608D01*
X163880999Y-52460074D01*
X164126066Y-53051718D01*
X164251000Y-53679804D01*
X164251000Y-54320196D01*
X164126066Y-54948282D01*
X163880999Y-55539926D01*
X163525216Y-56072392D01*
X163072392Y-56525216D01*
X162539926Y-56880999D01*
X161948282Y-57126066D01*
X161727546Y-57169973D01*
X161320197Y-57251000D01*
X160679803Y-57251000D01*
X160272454Y-57169973D01*
X160051718Y-57126066D01*
X159460074Y-56880999D01*
X158927608Y-56525216D01*
X158474784Y-56072392D01*
X158119001Y-55539926D01*
X157873934Y-54948282D01*
X157749000Y-54320196D01*
X157749000Y-53679804D01*
X157873934Y-53051718D01*
X158119001Y-52460074D01*
X158474784Y-51927608D01*
X158927608Y-51474784D01*
X159460074Y-51119001D01*
X160051718Y-50873934D01*
X160365761Y-50811467D01*
X160679803Y-50749000D01*
X161320197Y-50749000D01*
X161634239Y-50811467D01*
G37*
G36*
X98401000Y-56601000D02*
G01*
X96399000Y-56601000D01*
X96399000Y-53899000D01*
X98401000Y-53899000D01*
X98401000Y-56601000D01*
G37*
G36*
X94101000Y-56601000D02*
G01*
X92099000Y-56601000D01*
X92099000Y-53899000D01*
X94101000Y-53899000D01*
X94101000Y-56601000D01*
G37*
G36*
X148329487Y-51748996D02*
G01*
X148566253Y-51847068D01*
X148566255Y-51847069D01*
X148640210Y-51896484D01*
X148779339Y-51989447D01*
X148960553Y-52170661D01*
X149102932Y-52383747D01*
X149201004Y-52620513D01*
X149251000Y-52871861D01*
X149251000Y-53128139D01*
X149201004Y-53379487D01*
X149102932Y-53616253D01*
X149102931Y-53616255D01*
X148960553Y-53829339D01*
X148779339Y-54010553D01*
X148566255Y-54152931D01*
X148566254Y-54152932D01*
X148566253Y-54152932D01*
X148329487Y-54251004D01*
X148078139Y-54301000D01*
X147821861Y-54301000D01*
X147570513Y-54251004D01*
X147333747Y-54152932D01*
X147333746Y-54152932D01*
X147333745Y-54152931D01*
X147120661Y-54010553D01*
X146939447Y-53829339D01*
X146797069Y-53616255D01*
X146797068Y-53616253D01*
X146698996Y-53379487D01*
X146649000Y-53128139D01*
X146649000Y-52871861D01*
X146698996Y-52620513D01*
X146797068Y-52383747D01*
X146939447Y-52170661D01*
X147120661Y-51989447D01*
X147259790Y-51896484D01*
X147333745Y-51847069D01*
X147333747Y-51847068D01*
X147570513Y-51748996D01*
X147821861Y-51699000D01*
X148078139Y-51699000D01*
X148329487Y-51748996D01*
G37*
G36*
X136129487Y-51748996D02*
G01*
X136366253Y-51847068D01*
X136366255Y-51847069D01*
X136440210Y-51896484D01*
X136579339Y-51989447D01*
X136760553Y-52170661D01*
X136902932Y-52383747D01*
X137001004Y-52620513D01*
X137051000Y-52871861D01*
X137051000Y-53128139D01*
X137001004Y-53379487D01*
X136902932Y-53616253D01*
X136902931Y-53616255D01*
X136760553Y-53829339D01*
X136579339Y-54010553D01*
X136366255Y-54152931D01*
X136366254Y-54152932D01*
X136366253Y-54152932D01*
X136129487Y-54251004D01*
X135878139Y-54301000D01*
X135621861Y-54301000D01*
X135370513Y-54251004D01*
X135133747Y-54152932D01*
X135133746Y-54152932D01*
X135133745Y-54152931D01*
X134920661Y-54010553D01*
X134739447Y-53829339D01*
X134597069Y-53616255D01*
X134597068Y-53616253D01*
X134498996Y-53379487D01*
X134449000Y-53128139D01*
X134449000Y-52871861D01*
X134498996Y-52620513D01*
X134597068Y-52383747D01*
X134739447Y-52170661D01*
X134920661Y-51989447D01*
X135059790Y-51896484D01*
X135133745Y-51847069D01*
X135133747Y-51847068D01*
X135370513Y-51748996D01*
X135621861Y-51699000D01*
X135878139Y-51699000D01*
X136129487Y-51748996D01*
G37*
G36*
X108701000Y-53951000D02*
G01*
X107199000Y-53951000D01*
X107199000Y-50749000D01*
X108701000Y-50749000D01*
X108701000Y-53951000D01*
G37*
G36*
X119301000Y-53951000D02*
G01*
X117799000Y-53951000D01*
X117799000Y-50749000D01*
X119301000Y-50749000D01*
X119301000Y-53951000D01*
G37*
G36*
X88806564Y-50989389D02*
G01*
X88997833Y-51068615D01*
X88997835Y-51068616D01*
X89169973Y-51183635D01*
X89316365Y-51330027D01*
X89413089Y-51474784D01*
X89431385Y-51502167D01*
X89510611Y-51693436D01*
X89551000Y-51896484D01*
X89551000Y-52103516D01*
X89510611Y-52306564D01*
X89447025Y-52460074D01*
X89431384Y-52497835D01*
X89316365Y-52669973D01*
X89169973Y-52816365D01*
X88997835Y-52931384D01*
X88997834Y-52931385D01*
X88997833Y-52931385D01*
X88806564Y-53010611D01*
X88603516Y-53051000D01*
X88396484Y-53051000D01*
X88193436Y-53010611D01*
X88002167Y-52931385D01*
X88002166Y-52931385D01*
X88002165Y-52931384D01*
X87830027Y-52816365D01*
X87683635Y-52669973D01*
X87568616Y-52497835D01*
X87552975Y-52460074D01*
X87489389Y-52306564D01*
X87449000Y-52103516D01*
X87449000Y-51896484D01*
X87489389Y-51693436D01*
X87568615Y-51502167D01*
X87586912Y-51474784D01*
X87683635Y-51330027D01*
X87830027Y-51183635D01*
X88002165Y-51068616D01*
X88002167Y-51068615D01*
X88193436Y-50989389D01*
X88396484Y-50949000D01*
X88603516Y-50949000D01*
X88806564Y-50989389D01*
G37*
G36*
X82306564Y-50989389D02*
G01*
X82497833Y-51068615D01*
X82497835Y-51068616D01*
X82669973Y-51183635D01*
X82816365Y-51330027D01*
X82913089Y-51474784D01*
X82931385Y-51502167D01*
X83010611Y-51693436D01*
X83051000Y-51896484D01*
X83051000Y-52103516D01*
X83010611Y-52306564D01*
X82947025Y-52460074D01*
X82931384Y-52497835D01*
X82816365Y-52669973D01*
X82669973Y-52816365D01*
X82497835Y-52931384D01*
X82497834Y-52931385D01*
X82497833Y-52931385D01*
X82306564Y-53010611D01*
X82103516Y-53051000D01*
X81896484Y-53051000D01*
X81693436Y-53010611D01*
X81502167Y-52931385D01*
X81502166Y-52931385D01*
X81502165Y-52931384D01*
X81330027Y-52816365D01*
X81183635Y-52669973D01*
X81068616Y-52497835D01*
X81052975Y-52460074D01*
X80989389Y-52306564D01*
X80949000Y-52103516D01*
X80949000Y-51896484D01*
X80989389Y-51693436D01*
X81068615Y-51502167D01*
X81086912Y-51474784D01*
X81183635Y-51330027D01*
X81330027Y-51183635D01*
X81502165Y-51068616D01*
X81502167Y-51068615D01*
X81693436Y-50989389D01*
X81896484Y-50949000D01*
X82103516Y-50949000D01*
X82306564Y-50989389D01*
G37*
G36*
X106351000Y-52951000D02*
G01*
X104349000Y-52951000D01*
X104349000Y-51549000D01*
X106351000Y-51549000D01*
X106351000Y-52951000D01*
G37*
G36*
X103151000Y-52951000D02*
G01*
X101149000Y-52951000D01*
X101149000Y-51549000D01*
X103151000Y-51549000D01*
X103151000Y-52951000D01*
G37*
M02*
