G04 #@! TF.GenerationSoftware,KiCad,Pcbnew,(5.1.6)-1*
G04 #@! TF.CreationDate,2020-10-27T15:14:38-03:00*
G04 #@! TF.ProjectId,PanelFrontal,50616e65-6c46-4726-9f6e-74616c2e6b69,v1.0*
G04 #@! TF.SameCoordinates,Original*
G04 #@! TF.FileFunction,Copper,L2,Bot*
G04 #@! TF.FilePolarity,Positive*
%FSLAX46Y46*%
G04 Gerber Fmt 4.6, Leading zero omitted, Abs format (unit mm)*
G04 Created by KiCad (PCBNEW (5.1.6)-1) date 2020-10-27 15:14:38*
%MOMM*%
%LPD*%
G01*
G04 APERTURE LIST*
G04 #@! TA.AperFunction,ComponentPad*
%ADD10C,5.300000*%
G04 #@! TD*
G04 #@! TA.AperFunction,ViaPad*
%ADD11C,0.800000*%
G04 #@! TD*
G04 #@! TA.AperFunction,Conductor*
%ADD12C,0.400000*%
G04 #@! TD*
G04 #@! TA.AperFunction,Conductor*
%ADD13C,0.250000*%
G04 #@! TD*
G04 #@! TA.AperFunction,Conductor*
%ADD14C,0.200000*%
G04 #@! TD*
G04 APERTURE END LIST*
G04 #@! TA.AperFunction,Conductor*
G36*
G01*
X214500000Y-110250000D02*
X214500000Y-105250000D01*
G75*
G02*
X217000000Y-102750000I2500000J0D01*
G01*
X222000000Y-102750000D01*
G75*
G02*
X224500000Y-105250000I0J-2500000D01*
G01*
X224500000Y-110250000D01*
G75*
G02*
X222000000Y-112750000I-2500000J0D01*
G01*
X217000000Y-112750000D01*
G75*
G02*
X214500000Y-110250000I0J2500000D01*
G01*
G37*
G04 #@! TD.AperFunction*
G04 #@! TA.AperFunction,Conductor*
G36*
G01*
X214500000Y-83250000D02*
X214500000Y-78250000D01*
G75*
G02*
X217000000Y-75750000I2500000J0D01*
G01*
X222000000Y-75750000D01*
G75*
G02*
X224500000Y-78250000I0J-2500000D01*
G01*
X224500000Y-83250000D01*
G75*
G02*
X222000000Y-85750000I-2500000J0D01*
G01*
X217000000Y-85750000D01*
G75*
G02*
X214500000Y-83250000I0J2500000D01*
G01*
G37*
G04 #@! TD.AperFunction*
G04 #@! TA.AperFunction,Conductor*
G36*
G01*
X104000000Y-110250000D02*
X104000000Y-105250000D01*
G75*
G02*
X106500000Y-102750000I2500000J0D01*
G01*
X111500000Y-102750000D01*
G75*
G02*
X114000000Y-105250000I0J-2500000D01*
G01*
X114000000Y-110250000D01*
G75*
G02*
X111500000Y-112750000I-2500000J0D01*
G01*
X106500000Y-112750000D01*
G75*
G02*
X104000000Y-110250000I0J2500000D01*
G01*
G37*
G04 #@! TD.AperFunction*
G04 #@! TA.AperFunction,Conductor*
G36*
G01*
X104000000Y-83250000D02*
X104000000Y-78250000D01*
G75*
G02*
X106500000Y-75750000I2500000J0D01*
G01*
X111500000Y-75750000D01*
G75*
G02*
X114000000Y-78250000I0J-2500000D01*
G01*
X114000000Y-83250000D01*
G75*
G02*
X111500000Y-85750000I-2500000J0D01*
G01*
X106500000Y-85750000D01*
G75*
G02*
X104000000Y-83250000I0J2500000D01*
G01*
G37*
G04 #@! TD.AperFunction*
G04 #@! TA.AperFunction,Conductor*
G36*
G01*
X159000000Y-188500000D02*
X159000000Y-183500000D01*
G75*
G02*
X161500000Y-181000000I2500000J0D01*
G01*
X166500000Y-181000000D01*
G75*
G02*
X169000000Y-183500000I0J-2500000D01*
G01*
X169000000Y-188500000D01*
G75*
G02*
X166500000Y-191000000I-2500000J0D01*
G01*
X161500000Y-191000000D01*
G75*
G02*
X159000000Y-188500000I0J2500000D01*
G01*
G37*
G04 #@! TD.AperFunction*
G04 #@! TA.AperFunction,Conductor*
G36*
G01*
X139000000Y-168500000D02*
X139000000Y-163500000D01*
G75*
G02*
X141500000Y-161000000I2500000J0D01*
G01*
X146500000Y-161000000D01*
G75*
G02*
X149000000Y-163500000I0J-2500000D01*
G01*
X149000000Y-168500000D01*
G75*
G02*
X146500000Y-171000000I-2500000J0D01*
G01*
X141500000Y-171000000D01*
G75*
G02*
X139000000Y-168500000I0J2500000D01*
G01*
G37*
G04 #@! TD.AperFunction*
G04 #@! TA.AperFunction,Conductor*
G36*
G01*
X159000000Y-168500000D02*
X159000000Y-163500000D01*
G75*
G02*
X161500000Y-161000000I2500000J0D01*
G01*
X166500000Y-161000000D01*
G75*
G02*
X169000000Y-163500000I0J-2500000D01*
G01*
X169000000Y-168500000D01*
G75*
G02*
X166500000Y-171000000I-2500000J0D01*
G01*
X161500000Y-171000000D01*
G75*
G02*
X159000000Y-168500000I0J2500000D01*
G01*
G37*
G04 #@! TD.AperFunction*
G04 #@! TA.AperFunction,Conductor*
G36*
G01*
X179000000Y-168500000D02*
X179000000Y-163500000D01*
G75*
G02*
X181500000Y-161000000I2500000J0D01*
G01*
X186500000Y-161000000D01*
G75*
G02*
X189000000Y-163500000I0J-2500000D01*
G01*
X189000000Y-168500000D01*
G75*
G02*
X186500000Y-171000000I-2500000J0D01*
G01*
X181500000Y-171000000D01*
G75*
G02*
X179000000Y-168500000I0J2500000D01*
G01*
G37*
G04 #@! TD.AperFunction*
G04 #@! TA.AperFunction,Conductor*
G36*
G01*
X139000000Y-148500000D02*
X139000000Y-143500000D01*
G75*
G02*
X141500000Y-141000000I2500000J0D01*
G01*
X146500000Y-141000000D01*
G75*
G02*
X149000000Y-143500000I0J-2500000D01*
G01*
X149000000Y-148500000D01*
G75*
G02*
X146500000Y-151000000I-2500000J0D01*
G01*
X141500000Y-151000000D01*
G75*
G02*
X139000000Y-148500000I0J2500000D01*
G01*
G37*
G04 #@! TD.AperFunction*
G04 #@! TA.AperFunction,Conductor*
G36*
G01*
X159000000Y-148500000D02*
X159000000Y-143500000D01*
G75*
G02*
X161500000Y-141000000I2500000J0D01*
G01*
X166500000Y-141000000D01*
G75*
G02*
X169000000Y-143500000I0J-2500000D01*
G01*
X169000000Y-148500000D01*
G75*
G02*
X166500000Y-151000000I-2500000J0D01*
G01*
X161500000Y-151000000D01*
G75*
G02*
X159000000Y-148500000I0J2500000D01*
G01*
G37*
G04 #@! TD.AperFunction*
G04 #@! TA.AperFunction,Conductor*
G36*
G01*
X179000000Y-148500000D02*
X179000000Y-143500000D01*
G75*
G02*
X181500000Y-141000000I2500000J0D01*
G01*
X186500000Y-141000000D01*
G75*
G02*
X189000000Y-143500000I0J-2500000D01*
G01*
X189000000Y-148500000D01*
G75*
G02*
X186500000Y-151000000I-2500000J0D01*
G01*
X181500000Y-151000000D01*
G75*
G02*
X179000000Y-148500000I0J2500000D01*
G01*
G37*
G04 #@! TD.AperFunction*
G04 #@! TA.AperFunction,Conductor*
G36*
G01*
X139000000Y-128500000D02*
X139000000Y-123500000D01*
G75*
G02*
X141500000Y-121000000I2500000J0D01*
G01*
X146500000Y-121000000D01*
G75*
G02*
X149000000Y-123500000I0J-2500000D01*
G01*
X149000000Y-128500000D01*
G75*
G02*
X146500000Y-131000000I-2500000J0D01*
G01*
X141500000Y-131000000D01*
G75*
G02*
X139000000Y-128500000I0J2500000D01*
G01*
G37*
G04 #@! TD.AperFunction*
G04 #@! TA.AperFunction,Conductor*
G36*
G01*
X159000000Y-128500000D02*
X159000000Y-123500000D01*
G75*
G02*
X161500000Y-121000000I2500000J0D01*
G01*
X166500000Y-121000000D01*
G75*
G02*
X169000000Y-123500000I0J-2500000D01*
G01*
X169000000Y-128500000D01*
G75*
G02*
X166500000Y-131000000I-2500000J0D01*
G01*
X161500000Y-131000000D01*
G75*
G02*
X159000000Y-128500000I0J2500000D01*
G01*
G37*
G04 #@! TD.AperFunction*
G04 #@! TA.AperFunction,Conductor*
G36*
G01*
X179000000Y-128500000D02*
X179000000Y-123500000D01*
G75*
G02*
X181500000Y-121000000I2500000J0D01*
G01*
X186500000Y-121000000D01*
G75*
G02*
X189000000Y-123500000I0J-2500000D01*
G01*
X189000000Y-128500000D01*
G75*
G02*
X186500000Y-131000000I-2500000J0D01*
G01*
X181500000Y-131000000D01*
G75*
G02*
X179000000Y-128500000I0J2500000D01*
G01*
G37*
G04 #@! TD.AperFunction*
D10*
X201750000Y-109750000D03*
X201750000Y-78750000D03*
X126750000Y-109750000D03*
X126750000Y-78750000D03*
D11*
X216750000Y-145250000D03*
X201800000Y-127800000D03*
X161250000Y-70000000D03*
X164250000Y-70000000D03*
X162750000Y-75500000D03*
X142500000Y-73650000D03*
X168250000Y-74000000D03*
X142500000Y-71100000D03*
X183500000Y-75500000D03*
X151750000Y-72450000D03*
X188750000Y-75500000D03*
X151775000Y-74950000D03*
X142500000Y-72400000D03*
X164250000Y-74750000D03*
X170750000Y-73250000D03*
X142500000Y-69900000D03*
X182000000Y-71750000D03*
X153225000Y-73675002D03*
X151750000Y-68750000D03*
X206999990Y-68250000D03*
X151750000Y-67500000D03*
X207750000Y-67500000D03*
X164000000Y-186000000D03*
X197000000Y-126000000D03*
X164000000Y-126000000D03*
X144000000Y-126000000D03*
X184000000Y-146000000D03*
X164000000Y-146000000D03*
X144000000Y-146000000D03*
X184000000Y-166000000D03*
X164000000Y-166000000D03*
X144000000Y-166000000D03*
X228250000Y-80750000D03*
X226250000Y-107750000D03*
X194500000Y-175500000D03*
X196000000Y-175500000D03*
D12*
X161250000Y-70000000D02*
X164250000Y-70000000D01*
D13*
X145750000Y-78500000D02*
X143500000Y-76250000D01*
X162750000Y-75500000D02*
X158250000Y-75500000D01*
X155250000Y-78500000D02*
X145750000Y-78500000D01*
X143500000Y-74000000D02*
X143150000Y-73650000D01*
X158250000Y-75500000D02*
X155250000Y-78500000D01*
X143500000Y-76250000D02*
X143500000Y-74000000D01*
X143150000Y-73650000D02*
X142500000Y-73650000D01*
X146500000Y-77000000D02*
X145000000Y-75500000D01*
X157500000Y-74000000D02*
X154500000Y-77000000D01*
X154500000Y-77000000D02*
X146500000Y-77000000D01*
X145000000Y-75500000D02*
X145000000Y-71500000D01*
X168250000Y-74000000D02*
X157500000Y-74000000D01*
X145000000Y-71500000D02*
X144600000Y-71100000D01*
X144600000Y-71100000D02*
X142500000Y-71100000D01*
X183500000Y-71500000D02*
X183500000Y-75500000D01*
X151750000Y-72450000D02*
X153200000Y-71000000D01*
X183000000Y-71000000D02*
X183500000Y-71500000D01*
X153200000Y-71000000D02*
X183000000Y-71000000D01*
X178250000Y-72500000D02*
X156250000Y-72500000D01*
X182750000Y-77000000D02*
X178250000Y-72500000D01*
X188750000Y-75500000D02*
X187250000Y-77000000D01*
X156250000Y-72500000D02*
X153800000Y-74950000D01*
X187250000Y-77000000D02*
X182750000Y-77000000D01*
X152340685Y-74950000D02*
X151775000Y-74950000D01*
X153800000Y-74950000D02*
X152340685Y-74950000D01*
X157750000Y-74750000D02*
X154750000Y-77750000D01*
X154750000Y-77750000D02*
X146000000Y-77750000D01*
X144250000Y-76000000D02*
X144250000Y-72750000D01*
X164250000Y-74750000D02*
X157750000Y-74750000D01*
X146000000Y-77750000D02*
X144250000Y-76000000D01*
X144250000Y-72750000D02*
X143900000Y-72400000D01*
X143900000Y-72400000D02*
X142500000Y-72400000D01*
X170750000Y-73250000D02*
X157250000Y-73250000D01*
X154250000Y-76250000D02*
X146750000Y-76250000D01*
X145750000Y-70250000D02*
X145400000Y-69900000D01*
X157250000Y-73250000D02*
X154250000Y-76250000D01*
X146750000Y-76250000D02*
X145750000Y-75250000D01*
X145750000Y-75250000D02*
X145750000Y-70250000D01*
X145400000Y-69900000D02*
X142500000Y-69900000D01*
X155150002Y-71750000D02*
X153225000Y-73675002D01*
X182000000Y-71750000D02*
X155150002Y-71750000D01*
X206700000Y-67950010D02*
X206999990Y-68250000D01*
X154549990Y-67950010D02*
X206700000Y-67950010D01*
X151750000Y-68750000D02*
X153750000Y-68750000D01*
X153750000Y-68750000D02*
X154549990Y-67950010D01*
X151750000Y-67500000D02*
X207750000Y-67500000D01*
D14*
X197000000Y-126000000D02*
X184000000Y-126000000D01*
X228250000Y-80750000D02*
X219500000Y-80750000D01*
X226250000Y-107750000D02*
X219500000Y-107750000D01*
X131915689Y-135599990D02*
X109849990Y-135599990D01*
X194500000Y-175500000D02*
X194500000Y-195849990D01*
X194000000Y-196349990D02*
X132665688Y-196349990D01*
X109000000Y-134750000D02*
X109000000Y-107750000D01*
X132400010Y-136084311D02*
X131915689Y-135599990D01*
X194500000Y-195849990D02*
X194000000Y-196349990D01*
X132665688Y-196349990D02*
X132400010Y-196084312D01*
X109849990Y-135599990D02*
X109000000Y-134750000D01*
X132400010Y-196084312D02*
X132400010Y-136084311D01*
X100500000Y-135500000D02*
X100500000Y-81125000D01*
X101000000Y-136000000D02*
X100500000Y-135500000D01*
X100500000Y-81125000D02*
X100875000Y-80750000D01*
X131750000Y-136000000D02*
X101000000Y-136000000D01*
X100875000Y-80750000D02*
X109000000Y-80750000D01*
X195250000Y-196750000D02*
X132500000Y-196750000D01*
X132500000Y-196750000D02*
X132000000Y-196250000D01*
X132000000Y-196250000D02*
X132000000Y-136250000D01*
X196000000Y-196000000D02*
X195250000Y-196750000D01*
X196000000Y-175500000D02*
X196000000Y-196000000D01*
X132000000Y-136250000D02*
X131750000Y-136000000D01*
G36*
X208425485Y-63867768D02*
G01*
X208594229Y-63918955D01*
X208749745Y-64002080D01*
X208886054Y-64113946D01*
X208997920Y-64250255D01*
X209081045Y-64405771D01*
X209132232Y-64574515D01*
X209150000Y-64754908D01*
X209150000Y-117000000D01*
X209150482Y-117009802D01*
X209169697Y-117204892D01*
X209173521Y-117224118D01*
X209230426Y-117411711D01*
X209237928Y-117429823D01*
X209330338Y-117602710D01*
X209341229Y-117619009D01*
X209465592Y-117770546D01*
X209479454Y-117784408D01*
X209630991Y-117908771D01*
X209647290Y-117919662D01*
X209820177Y-118012072D01*
X209838289Y-118019574D01*
X210025882Y-118076479D01*
X210045108Y-118080303D01*
X210240198Y-118099518D01*
X210250000Y-118100000D01*
X223745092Y-118100000D01*
X223925485Y-118117768D01*
X224094229Y-118168955D01*
X224249745Y-118252080D01*
X224386054Y-118363946D01*
X224497920Y-118500255D01*
X224581045Y-118655771D01*
X224632232Y-118824515D01*
X224650000Y-119004908D01*
X224650000Y-159495092D01*
X224632232Y-159675485D01*
X224581045Y-159844229D01*
X224497920Y-159999745D01*
X224386054Y-160136054D01*
X224249745Y-160247920D01*
X224094229Y-160331045D01*
X223925485Y-160382232D01*
X223745092Y-160400000D01*
X208004908Y-160400000D01*
X207824515Y-160382232D01*
X207655771Y-160331045D01*
X207500255Y-160247920D01*
X207363946Y-160136054D01*
X207252080Y-159999745D01*
X207168955Y-159844229D01*
X207117768Y-159675485D01*
X207100000Y-159495092D01*
X207100000Y-157000000D01*
X207099518Y-156990198D01*
X207080303Y-156795108D01*
X207076479Y-156775882D01*
X207019574Y-156588289D01*
X207012072Y-156570177D01*
X206919662Y-156397290D01*
X206908771Y-156380991D01*
X206784408Y-156229454D01*
X206770546Y-156215592D01*
X206619009Y-156091229D01*
X206602710Y-156080338D01*
X206429823Y-155987928D01*
X206411711Y-155980426D01*
X206224118Y-155923521D01*
X206204892Y-155919697D01*
X206009802Y-155900482D01*
X206000000Y-155900000D01*
X203004908Y-155900000D01*
X202824515Y-155882232D01*
X202655771Y-155831045D01*
X202500255Y-155747920D01*
X202363946Y-155636054D01*
X202252080Y-155499745D01*
X202168955Y-155344229D01*
X202117768Y-155175485D01*
X202100000Y-154995092D01*
X202100000Y-153250000D01*
X202099518Y-153240198D01*
X202080303Y-153045108D01*
X202076479Y-153025882D01*
X202019574Y-152838289D01*
X202012072Y-152820177D01*
X201919662Y-152647290D01*
X201908771Y-152630991D01*
X201784408Y-152479454D01*
X201770546Y-152465592D01*
X201619009Y-152341229D01*
X201602710Y-152330338D01*
X201429823Y-152237928D01*
X201411711Y-152230426D01*
X201224118Y-152173521D01*
X201204892Y-152169697D01*
X201009802Y-152150482D01*
X201000000Y-152150000D01*
X199254908Y-152150000D01*
X199074515Y-152132232D01*
X198905771Y-152081045D01*
X198750255Y-151997920D01*
X198613946Y-151886054D01*
X198502080Y-151749745D01*
X198418955Y-151594229D01*
X198367768Y-151425485D01*
X198350000Y-151245092D01*
X198350000Y-119000000D01*
X198349518Y-118990198D01*
X198330303Y-118795108D01*
X198326479Y-118775882D01*
X198269574Y-118588289D01*
X198262072Y-118570177D01*
X198169662Y-118397290D01*
X198158771Y-118380991D01*
X198034408Y-118229454D01*
X198020546Y-118215592D01*
X197869009Y-118091229D01*
X197852710Y-118080338D01*
X197679823Y-117987928D01*
X197661711Y-117980426D01*
X197474118Y-117923521D01*
X197454892Y-117919697D01*
X197259802Y-117900482D01*
X197250000Y-117900000D01*
X120254908Y-117900000D01*
X120074515Y-117882232D01*
X119905771Y-117831045D01*
X119750255Y-117747920D01*
X119613946Y-117636054D01*
X119502080Y-117499745D01*
X119418955Y-117344229D01*
X119367768Y-117175485D01*
X119350000Y-116995092D01*
X119350000Y-112056194D01*
X125009491Y-112056194D01*
X125347186Y-112361328D01*
X125883586Y-112584828D01*
X126453282Y-112699387D01*
X127034380Y-112700602D01*
X127604549Y-112588428D01*
X128141879Y-112367173D01*
X128152814Y-112361328D01*
X128490509Y-112056194D01*
X200009491Y-112056194D01*
X200347186Y-112361328D01*
X200883586Y-112584828D01*
X201453282Y-112699387D01*
X202034380Y-112700602D01*
X202604549Y-112588428D01*
X203141879Y-112367173D01*
X203152814Y-112361328D01*
X203490509Y-112056194D01*
X201750000Y-110315685D01*
X200009491Y-112056194D01*
X128490509Y-112056194D01*
X126750000Y-110315685D01*
X125009491Y-112056194D01*
X119350000Y-112056194D01*
X119350000Y-110034380D01*
X123799398Y-110034380D01*
X123911572Y-110604549D01*
X124132827Y-111141879D01*
X124138672Y-111152814D01*
X124443806Y-111490509D01*
X126184315Y-109750000D01*
X127315685Y-109750000D01*
X129056194Y-111490509D01*
X129361328Y-111152814D01*
X129584828Y-110616414D01*
X129699387Y-110046718D01*
X129699412Y-110034380D01*
X198799398Y-110034380D01*
X198911572Y-110604549D01*
X199132827Y-111141879D01*
X199138672Y-111152814D01*
X199443806Y-111490509D01*
X201184315Y-109750000D01*
X202315685Y-109750000D01*
X204056194Y-111490509D01*
X204361328Y-111152814D01*
X204584828Y-110616414D01*
X204699387Y-110046718D01*
X204700602Y-109465620D01*
X204588428Y-108895451D01*
X204367173Y-108358121D01*
X204361328Y-108347186D01*
X204056194Y-108009491D01*
X202315685Y-109750000D01*
X201184315Y-109750000D01*
X199443806Y-108009491D01*
X199138672Y-108347186D01*
X198915172Y-108883586D01*
X198800613Y-109453282D01*
X198799398Y-110034380D01*
X129699412Y-110034380D01*
X129700602Y-109465620D01*
X129588428Y-108895451D01*
X129367173Y-108358121D01*
X129361328Y-108347186D01*
X129056194Y-108009491D01*
X127315685Y-109750000D01*
X126184315Y-109750000D01*
X124443806Y-108009491D01*
X124138672Y-108347186D01*
X123915172Y-108883586D01*
X123800613Y-109453282D01*
X123799398Y-110034380D01*
X119350000Y-110034380D01*
X119350000Y-81056194D01*
X125009491Y-81056194D01*
X125347186Y-81361328D01*
X125883586Y-81584828D01*
X126453282Y-81699387D01*
X127034380Y-81700602D01*
X127384805Y-81631660D01*
X127376790Y-81713408D01*
X127376790Y-81713416D01*
X127375001Y-81731581D01*
X127375000Y-106768418D01*
X127376577Y-106784433D01*
X127376556Y-106787477D01*
X127377066Y-106792689D01*
X127385049Y-106868647D01*
X127046718Y-106800613D01*
X126465620Y-106799398D01*
X125895451Y-106911572D01*
X125358121Y-107132827D01*
X125347186Y-107138672D01*
X125009491Y-107443806D01*
X126750000Y-109184315D01*
X128309315Y-107625000D01*
X199268419Y-107625000D01*
X199284434Y-107623423D01*
X199287477Y-107623444D01*
X199292689Y-107622934D01*
X199389737Y-107612734D01*
X199423081Y-107605889D01*
X199456416Y-107599530D01*
X199461429Y-107598017D01*
X199554648Y-107569162D01*
X199586016Y-107555976D01*
X199617495Y-107543257D01*
X199622119Y-107540799D01*
X199707956Y-107494387D01*
X199736143Y-107475374D01*
X199764573Y-107456770D01*
X199768631Y-107453461D01*
X199780301Y-107443806D01*
X200009491Y-107443806D01*
X201750000Y-109184315D01*
X203490509Y-107443806D01*
X203152814Y-107138672D01*
X202616414Y-106915172D01*
X202046718Y-106800613D01*
X201465620Y-106799398D01*
X200895451Y-106911572D01*
X200358121Y-107132827D01*
X200347186Y-107138672D01*
X200009491Y-107443806D01*
X199780301Y-107443806D01*
X199843819Y-107391259D01*
X199867741Y-107367169D01*
X199892049Y-107343365D01*
X199895387Y-107339330D01*
X199957063Y-107263709D01*
X199975856Y-107235424D01*
X199995077Y-107207352D01*
X199997567Y-107202746D01*
X200043379Y-107116585D01*
X200056326Y-107085174D01*
X200069719Y-107053925D01*
X200071267Y-107048923D01*
X200099472Y-106955505D01*
X200106072Y-106922176D01*
X200113141Y-106888916D01*
X200113688Y-106883709D01*
X200123210Y-106786592D01*
X200125000Y-106768419D01*
X200125000Y-81731581D01*
X200123423Y-81715566D01*
X200123444Y-81712523D01*
X200122934Y-81707312D01*
X200112734Y-81610263D01*
X200105889Y-81576919D01*
X200099530Y-81543584D01*
X200098017Y-81538571D01*
X200069161Y-81445352D01*
X200055994Y-81414030D01*
X200043257Y-81382504D01*
X200040799Y-81377881D01*
X199994386Y-81292043D01*
X199975380Y-81263866D01*
X199956770Y-81235427D01*
X199953461Y-81231369D01*
X199891259Y-81156180D01*
X199867097Y-81132187D01*
X199843364Y-81107951D01*
X199839330Y-81104613D01*
X199839327Y-81104610D01*
X199839323Y-81104608D01*
X199779964Y-81056194D01*
X200009491Y-81056194D01*
X200347186Y-81361328D01*
X200883586Y-81584828D01*
X201453282Y-81699387D01*
X202034380Y-81700602D01*
X202604549Y-81588428D01*
X203141879Y-81367173D01*
X203152814Y-81361328D01*
X203490509Y-81056194D01*
X201750000Y-79315685D01*
X200009491Y-81056194D01*
X199779964Y-81056194D01*
X199763709Y-81042937D01*
X199735424Y-81024144D01*
X199707352Y-81004923D01*
X199702746Y-81002433D01*
X199616585Y-80956621D01*
X199585174Y-80943674D01*
X199553925Y-80930281D01*
X199548923Y-80928733D01*
X199455505Y-80900528D01*
X199422191Y-80893931D01*
X199388917Y-80886859D01*
X199383715Y-80886313D01*
X199383712Y-80886312D01*
X199383709Y-80886312D01*
X199287069Y-80876837D01*
X199268419Y-80875000D01*
X128309315Y-80875000D01*
X126750000Y-79315685D01*
X125009491Y-81056194D01*
X119350000Y-81056194D01*
X119350000Y-79034380D01*
X123799398Y-79034380D01*
X123911572Y-79604549D01*
X124132827Y-80141879D01*
X124138672Y-80152814D01*
X124443806Y-80490509D01*
X126184315Y-78750000D01*
X127315685Y-78750000D01*
X129056194Y-80490509D01*
X129361328Y-80152814D01*
X129584828Y-79616414D01*
X129699387Y-79046718D01*
X129699412Y-79034380D01*
X198799398Y-79034380D01*
X198911572Y-79604549D01*
X199132827Y-80141879D01*
X199138672Y-80152814D01*
X199443806Y-80490509D01*
X201184315Y-78750000D01*
X202315685Y-78750000D01*
X204056194Y-80490509D01*
X204361328Y-80152814D01*
X204584828Y-79616414D01*
X204699387Y-79046718D01*
X204700602Y-78465620D01*
X204588428Y-77895451D01*
X204367173Y-77358121D01*
X204361328Y-77347186D01*
X204056194Y-77009491D01*
X202315685Y-78750000D01*
X201184315Y-78750000D01*
X199443806Y-77009491D01*
X199138672Y-77347186D01*
X198915172Y-77883586D01*
X198800613Y-78453282D01*
X198799398Y-79034380D01*
X129699412Y-79034380D01*
X129700602Y-78465620D01*
X129588428Y-77895451D01*
X129367173Y-77358121D01*
X129361328Y-77347186D01*
X129056194Y-77009491D01*
X127315685Y-78750000D01*
X126184315Y-78750000D01*
X124443806Y-77009491D01*
X124138672Y-77347186D01*
X123915172Y-77883586D01*
X123800613Y-78453282D01*
X123799398Y-79034380D01*
X119350000Y-79034380D01*
X119350000Y-76443806D01*
X125009491Y-76443806D01*
X126750000Y-78184315D01*
X128490509Y-76443806D01*
X128152814Y-76138672D01*
X127616414Y-75915172D01*
X127046718Y-75800613D01*
X126465620Y-75799398D01*
X125895451Y-75911572D01*
X125358121Y-76132827D01*
X125347186Y-76138672D01*
X125009491Y-76443806D01*
X119350000Y-76443806D01*
X119350000Y-69826131D01*
X141750000Y-69826131D01*
X141750000Y-69973869D01*
X141778822Y-70118767D01*
X141835359Y-70255258D01*
X141917437Y-70378097D01*
X142021903Y-70482563D01*
X142047999Y-70500000D01*
X142021903Y-70517437D01*
X141917437Y-70621903D01*
X141835359Y-70744742D01*
X141778822Y-70881233D01*
X141750000Y-71026131D01*
X141750000Y-71173869D01*
X141778822Y-71318767D01*
X141835359Y-71455258D01*
X141917437Y-71578097D01*
X142021903Y-71682563D01*
X142122830Y-71750000D01*
X142021903Y-71817437D01*
X141917437Y-71921903D01*
X141835359Y-72044742D01*
X141778822Y-72181233D01*
X141750000Y-72326131D01*
X141750000Y-72473869D01*
X141778822Y-72618767D01*
X141835359Y-72755258D01*
X141917437Y-72878097D01*
X142021903Y-72982563D01*
X142085415Y-73025000D01*
X142021903Y-73067437D01*
X141917437Y-73171903D01*
X141835359Y-73294742D01*
X141778822Y-73431233D01*
X141750000Y-73576131D01*
X141750000Y-73723869D01*
X141778822Y-73868767D01*
X141835359Y-74005258D01*
X141917437Y-74128097D01*
X142021903Y-74232563D01*
X142144742Y-74314641D01*
X142281233Y-74371178D01*
X142426131Y-74400000D01*
X142573869Y-74400000D01*
X142718767Y-74371178D01*
X142855258Y-74314641D01*
X142978097Y-74232563D01*
X143019454Y-74191206D01*
X143025001Y-74196752D01*
X143025000Y-76226667D01*
X143022702Y-76250000D01*
X143025000Y-76273331D01*
X143031873Y-76343115D01*
X143059034Y-76432653D01*
X143103141Y-76515173D01*
X143162499Y-76587501D01*
X143180634Y-76602384D01*
X145397625Y-78819377D01*
X145412499Y-78837501D01*
X145430621Y-78852373D01*
X145430622Y-78852374D01*
X145484827Y-78896859D01*
X145567346Y-78940966D01*
X145656884Y-78968127D01*
X145750000Y-78977298D01*
X145773332Y-78975000D01*
X155226668Y-78975000D01*
X155250000Y-78977298D01*
X155273332Y-78975000D01*
X155343116Y-78968127D01*
X155432654Y-78940966D01*
X155515173Y-78896859D01*
X155587501Y-78837501D01*
X155602384Y-78819366D01*
X158446752Y-75975000D01*
X162165368Y-75975000D01*
X162167437Y-75978097D01*
X162271903Y-76082563D01*
X162394742Y-76164641D01*
X162531233Y-76221178D01*
X162676131Y-76250000D01*
X162823869Y-76250000D01*
X162968767Y-76221178D01*
X163105258Y-76164641D01*
X163228097Y-76082563D01*
X163332563Y-75978097D01*
X163414641Y-75855258D01*
X163471178Y-75718767D01*
X163500000Y-75573869D01*
X163500000Y-75426131D01*
X163471178Y-75281233D01*
X163447885Y-75225000D01*
X163665368Y-75225000D01*
X163667437Y-75228097D01*
X163771903Y-75332563D01*
X163894742Y-75414641D01*
X164031233Y-75471178D01*
X164176131Y-75500000D01*
X164323869Y-75500000D01*
X164468767Y-75471178D01*
X164605258Y-75414641D01*
X164728097Y-75332563D01*
X164832563Y-75228097D01*
X164914641Y-75105258D01*
X164971178Y-74968767D01*
X165000000Y-74823869D01*
X165000000Y-74676131D01*
X164971178Y-74531233D01*
X164947885Y-74475000D01*
X167665368Y-74475000D01*
X167667437Y-74478097D01*
X167771903Y-74582563D01*
X167894742Y-74664641D01*
X168031233Y-74721178D01*
X168176131Y-74750000D01*
X168323869Y-74750000D01*
X168468767Y-74721178D01*
X168605258Y-74664641D01*
X168728097Y-74582563D01*
X168832563Y-74478097D01*
X168914641Y-74355258D01*
X168971178Y-74218767D01*
X169000000Y-74073869D01*
X169000000Y-73926131D01*
X168971178Y-73781233D01*
X168947885Y-73725000D01*
X170165368Y-73725000D01*
X170167437Y-73728097D01*
X170271903Y-73832563D01*
X170394742Y-73914641D01*
X170531233Y-73971178D01*
X170676131Y-74000000D01*
X170823869Y-74000000D01*
X170968767Y-73971178D01*
X171105258Y-73914641D01*
X171228097Y-73832563D01*
X171332563Y-73728097D01*
X171414641Y-73605258D01*
X171471178Y-73468767D01*
X171500000Y-73323869D01*
X171500000Y-73176131D01*
X171471178Y-73031233D01*
X171447885Y-72975000D01*
X178053250Y-72975000D01*
X182397621Y-77319372D01*
X182412499Y-77337501D01*
X182484827Y-77396859D01*
X182567346Y-77440966D01*
X182629722Y-77459888D01*
X182656883Y-77468127D01*
X182749999Y-77477298D01*
X182773332Y-77475000D01*
X187226668Y-77475000D01*
X187250000Y-77477298D01*
X187273332Y-77475000D01*
X187343116Y-77468127D01*
X187432654Y-77440966D01*
X187515173Y-77396859D01*
X187587501Y-77337501D01*
X187602384Y-77319366D01*
X188477944Y-76443806D01*
X200009491Y-76443806D01*
X201750000Y-78184315D01*
X203490509Y-76443806D01*
X203152814Y-76138672D01*
X202616414Y-75915172D01*
X202046718Y-75800613D01*
X201465620Y-75799398D01*
X200895451Y-75911572D01*
X200358121Y-76132827D01*
X200347186Y-76138672D01*
X200009491Y-76443806D01*
X188477944Y-76443806D01*
X188672477Y-76249273D01*
X188676131Y-76250000D01*
X188823869Y-76250000D01*
X188968767Y-76221178D01*
X189105258Y-76164641D01*
X189228097Y-76082563D01*
X189332563Y-75978097D01*
X189414641Y-75855258D01*
X189471178Y-75718767D01*
X189500000Y-75573869D01*
X189500000Y-75426131D01*
X189471178Y-75281233D01*
X189414641Y-75144742D01*
X189332563Y-75021903D01*
X189228097Y-74917437D01*
X189105258Y-74835359D01*
X188968767Y-74778822D01*
X188823869Y-74750000D01*
X188676131Y-74750000D01*
X188531233Y-74778822D01*
X188394742Y-74835359D01*
X188271903Y-74917437D01*
X188167437Y-75021903D01*
X188085359Y-75144742D01*
X188028822Y-75281233D01*
X188000000Y-75426131D01*
X188000000Y-75573869D01*
X188000727Y-75577523D01*
X187053250Y-76525000D01*
X182946751Y-76525000D01*
X178646750Y-72225000D01*
X181415368Y-72225000D01*
X181417437Y-72228097D01*
X181521903Y-72332563D01*
X181644742Y-72414641D01*
X181781233Y-72471178D01*
X181926131Y-72500000D01*
X182073869Y-72500000D01*
X182218767Y-72471178D01*
X182355258Y-72414641D01*
X182478097Y-72332563D01*
X182582563Y-72228097D01*
X182664641Y-72105258D01*
X182721178Y-71968767D01*
X182750000Y-71823869D01*
X182750000Y-71676131D01*
X182721178Y-71531233D01*
X182697885Y-71475000D01*
X182803249Y-71475000D01*
X183025000Y-71696751D01*
X183025001Y-74915367D01*
X183021903Y-74917437D01*
X182917437Y-75021903D01*
X182835359Y-75144742D01*
X182778822Y-75281233D01*
X182750000Y-75426131D01*
X182750000Y-75573869D01*
X182778822Y-75718767D01*
X182835359Y-75855258D01*
X182917437Y-75978097D01*
X183021903Y-76082563D01*
X183144742Y-76164641D01*
X183281233Y-76221178D01*
X183426131Y-76250000D01*
X183573869Y-76250000D01*
X183718767Y-76221178D01*
X183855258Y-76164641D01*
X183978097Y-76082563D01*
X184082563Y-75978097D01*
X184164641Y-75855258D01*
X184221178Y-75718767D01*
X184250000Y-75573869D01*
X184250000Y-75426131D01*
X184221178Y-75281233D01*
X184164641Y-75144742D01*
X184082563Y-75021903D01*
X183978097Y-74917437D01*
X183975000Y-74915368D01*
X183975000Y-71523332D01*
X183977298Y-71500000D01*
X183968127Y-71406884D01*
X183940966Y-71317345D01*
X183913079Y-71265173D01*
X183896859Y-71234827D01*
X183837501Y-71162499D01*
X183819376Y-71147625D01*
X183352383Y-70680633D01*
X183337501Y-70662499D01*
X183265173Y-70603141D01*
X183182654Y-70559034D01*
X183093116Y-70531873D01*
X183023332Y-70525000D01*
X183000000Y-70522702D01*
X182976668Y-70525000D01*
X164785660Y-70525000D01*
X164832563Y-70478097D01*
X164914641Y-70355258D01*
X164971178Y-70218767D01*
X165000000Y-70073869D01*
X165000000Y-69926131D01*
X164971178Y-69781233D01*
X164914641Y-69644742D01*
X164832563Y-69521903D01*
X164728097Y-69417437D01*
X164605258Y-69335359D01*
X164468767Y-69278822D01*
X164323869Y-69250000D01*
X164176131Y-69250000D01*
X164031233Y-69278822D01*
X163894742Y-69335359D01*
X163771903Y-69417437D01*
X163739340Y-69450000D01*
X161760660Y-69450000D01*
X161728097Y-69417437D01*
X161605258Y-69335359D01*
X161468767Y-69278822D01*
X161323869Y-69250000D01*
X161176131Y-69250000D01*
X161031233Y-69278822D01*
X160894742Y-69335359D01*
X160771903Y-69417437D01*
X160667437Y-69521903D01*
X160585359Y-69644742D01*
X160528822Y-69781233D01*
X160500000Y-69926131D01*
X160500000Y-70073869D01*
X160528822Y-70218767D01*
X160585359Y-70355258D01*
X160667437Y-70478097D01*
X160714340Y-70525000D01*
X153223332Y-70525000D01*
X153200000Y-70522702D01*
X153176668Y-70525000D01*
X153106884Y-70531873D01*
X153017346Y-70559034D01*
X152934827Y-70603141D01*
X152862499Y-70662499D01*
X152847625Y-70680623D01*
X151827523Y-71700727D01*
X151823869Y-71700000D01*
X151676131Y-71700000D01*
X151531233Y-71728822D01*
X151394742Y-71785359D01*
X151271903Y-71867437D01*
X151167437Y-71971903D01*
X151085359Y-72094742D01*
X151028822Y-72231233D01*
X151000000Y-72376131D01*
X151000000Y-72523869D01*
X151028822Y-72668767D01*
X151085359Y-72805258D01*
X151167437Y-72928097D01*
X151271903Y-73032563D01*
X151394742Y-73114641D01*
X151531233Y-73171178D01*
X151676131Y-73200000D01*
X151823869Y-73200000D01*
X151968767Y-73171178D01*
X152105258Y-73114641D01*
X152228097Y-73032563D01*
X152332563Y-72928097D01*
X152414641Y-72805258D01*
X152471178Y-72668767D01*
X152500000Y-72523869D01*
X152500000Y-72376131D01*
X152499273Y-72372477D01*
X153396752Y-71475000D01*
X154753251Y-71475000D01*
X153302523Y-72925729D01*
X153298869Y-72925002D01*
X153151131Y-72925002D01*
X153006233Y-72953824D01*
X152869742Y-73010361D01*
X152746903Y-73092439D01*
X152642437Y-73196905D01*
X152560359Y-73319744D01*
X152503822Y-73456235D01*
X152475000Y-73601133D01*
X152475000Y-73748871D01*
X152503822Y-73893769D01*
X152560359Y-74030260D01*
X152642437Y-74153099D01*
X152746903Y-74257565D01*
X152869742Y-74339643D01*
X153006233Y-74396180D01*
X153151131Y-74425002D01*
X153298869Y-74425002D01*
X153443767Y-74396180D01*
X153580258Y-74339643D01*
X153703097Y-74257565D01*
X153807563Y-74153099D01*
X153889641Y-74030260D01*
X153946178Y-73893769D01*
X153975000Y-73748871D01*
X153975000Y-73601133D01*
X153974273Y-73597479D01*
X155346753Y-72225000D01*
X155853249Y-72225000D01*
X153603250Y-74475000D01*
X152359632Y-74475000D01*
X152357563Y-74471903D01*
X152253097Y-74367437D01*
X152130258Y-74285359D01*
X151993767Y-74228822D01*
X151848869Y-74200000D01*
X151701131Y-74200000D01*
X151556233Y-74228822D01*
X151419742Y-74285359D01*
X151296903Y-74367437D01*
X151192437Y-74471903D01*
X151110359Y-74594742D01*
X151053822Y-74731233D01*
X151025000Y-74876131D01*
X151025000Y-75023869D01*
X151053822Y-75168767D01*
X151110359Y-75305258D01*
X151192437Y-75428097D01*
X151296903Y-75532563D01*
X151419742Y-75614641D01*
X151556233Y-75671178D01*
X151701131Y-75700000D01*
X151848869Y-75700000D01*
X151993767Y-75671178D01*
X152130258Y-75614641D01*
X152253097Y-75532563D01*
X152357563Y-75428097D01*
X152359632Y-75425000D01*
X153776668Y-75425000D01*
X153800000Y-75427298D01*
X153823332Y-75425000D01*
X153893116Y-75418127D01*
X153982654Y-75390966D01*
X154065173Y-75346859D01*
X154137501Y-75287501D01*
X154152384Y-75269366D01*
X156446751Y-72975000D01*
X156853248Y-72975000D01*
X154053250Y-75775000D01*
X146946752Y-75775000D01*
X146225000Y-75053250D01*
X146225000Y-70273332D01*
X146227298Y-70250000D01*
X146218127Y-70156884D01*
X146190966Y-70067346D01*
X146146859Y-69984827D01*
X146087501Y-69912499D01*
X146069376Y-69897624D01*
X145752383Y-69580633D01*
X145737501Y-69562499D01*
X145665173Y-69503141D01*
X145582654Y-69459034D01*
X145493116Y-69431873D01*
X145423332Y-69425000D01*
X145400000Y-69422702D01*
X145376668Y-69425000D01*
X143084632Y-69425000D01*
X143082563Y-69421903D01*
X142978097Y-69317437D01*
X142855258Y-69235359D01*
X142718767Y-69178822D01*
X142573869Y-69150000D01*
X142426131Y-69150000D01*
X142281233Y-69178822D01*
X142144742Y-69235359D01*
X142021903Y-69317437D01*
X141917437Y-69421903D01*
X141835359Y-69544742D01*
X141778822Y-69681233D01*
X141750000Y-69826131D01*
X119350000Y-69826131D01*
X119350000Y-67426131D01*
X151000000Y-67426131D01*
X151000000Y-67573869D01*
X151028822Y-67718767D01*
X151085359Y-67855258D01*
X151167437Y-67978097D01*
X151271903Y-68082563D01*
X151335415Y-68125000D01*
X151271903Y-68167437D01*
X151167437Y-68271903D01*
X151085359Y-68394742D01*
X151028822Y-68531233D01*
X151000000Y-68676131D01*
X151000000Y-68823869D01*
X151028822Y-68968767D01*
X151085359Y-69105258D01*
X151167437Y-69228097D01*
X151271903Y-69332563D01*
X151394742Y-69414641D01*
X151531233Y-69471178D01*
X151676131Y-69500000D01*
X151823869Y-69500000D01*
X151968767Y-69471178D01*
X152105258Y-69414641D01*
X152228097Y-69332563D01*
X152332563Y-69228097D01*
X152334632Y-69225000D01*
X153726668Y-69225000D01*
X153750000Y-69227298D01*
X153773332Y-69225000D01*
X153843116Y-69218127D01*
X153932654Y-69190966D01*
X154015173Y-69146859D01*
X154087501Y-69087501D01*
X154102384Y-69069366D01*
X154746742Y-68425010D01*
X206270108Y-68425010D01*
X206278812Y-68468767D01*
X206335349Y-68605258D01*
X206417427Y-68728097D01*
X206521893Y-68832563D01*
X206644732Y-68914641D01*
X206781223Y-68971178D01*
X206926121Y-69000000D01*
X207073859Y-69000000D01*
X207218757Y-68971178D01*
X207355248Y-68914641D01*
X207478087Y-68832563D01*
X207582553Y-68728097D01*
X207664631Y-68605258D01*
X207721168Y-68468767D01*
X207749990Y-68323869D01*
X207749990Y-68250000D01*
X207823869Y-68250000D01*
X207968767Y-68221178D01*
X208105258Y-68164641D01*
X208228097Y-68082563D01*
X208332563Y-67978097D01*
X208414641Y-67855258D01*
X208471178Y-67718767D01*
X208500000Y-67573869D01*
X208500000Y-67426131D01*
X208471178Y-67281233D01*
X208414641Y-67144742D01*
X208332563Y-67021903D01*
X208228097Y-66917437D01*
X208105258Y-66835359D01*
X207968767Y-66778822D01*
X207823869Y-66750000D01*
X207676131Y-66750000D01*
X207531233Y-66778822D01*
X207394742Y-66835359D01*
X207271903Y-66917437D01*
X207167437Y-67021903D01*
X207165368Y-67025000D01*
X152334632Y-67025000D01*
X152332563Y-67021903D01*
X152228097Y-66917437D01*
X152105258Y-66835359D01*
X151968767Y-66778822D01*
X151823869Y-66750000D01*
X151676131Y-66750000D01*
X151531233Y-66778822D01*
X151394742Y-66835359D01*
X151271903Y-66917437D01*
X151167437Y-67021903D01*
X151085359Y-67144742D01*
X151028822Y-67281233D01*
X151000000Y-67426131D01*
X119350000Y-67426131D01*
X119350000Y-64754908D01*
X119367768Y-64574515D01*
X119418955Y-64405771D01*
X119502080Y-64250255D01*
X119613946Y-64113946D01*
X119750255Y-64002080D01*
X119905771Y-63918955D01*
X120074515Y-63867768D01*
X120254908Y-63850000D01*
X208245092Y-63850000D01*
X208425485Y-63867768D01*
G37*
X208425485Y-63867768D02*
X208594229Y-63918955D01*
X208749745Y-64002080D01*
X208886054Y-64113946D01*
X208997920Y-64250255D01*
X209081045Y-64405771D01*
X209132232Y-64574515D01*
X209150000Y-64754908D01*
X209150000Y-117000000D01*
X209150482Y-117009802D01*
X209169697Y-117204892D01*
X209173521Y-117224118D01*
X209230426Y-117411711D01*
X209237928Y-117429823D01*
X209330338Y-117602710D01*
X209341229Y-117619009D01*
X209465592Y-117770546D01*
X209479454Y-117784408D01*
X209630991Y-117908771D01*
X209647290Y-117919662D01*
X209820177Y-118012072D01*
X209838289Y-118019574D01*
X210025882Y-118076479D01*
X210045108Y-118080303D01*
X210240198Y-118099518D01*
X210250000Y-118100000D01*
X223745092Y-118100000D01*
X223925485Y-118117768D01*
X224094229Y-118168955D01*
X224249745Y-118252080D01*
X224386054Y-118363946D01*
X224497920Y-118500255D01*
X224581045Y-118655771D01*
X224632232Y-118824515D01*
X224650000Y-119004908D01*
X224650000Y-159495092D01*
X224632232Y-159675485D01*
X224581045Y-159844229D01*
X224497920Y-159999745D01*
X224386054Y-160136054D01*
X224249745Y-160247920D01*
X224094229Y-160331045D01*
X223925485Y-160382232D01*
X223745092Y-160400000D01*
X208004908Y-160400000D01*
X207824515Y-160382232D01*
X207655771Y-160331045D01*
X207500255Y-160247920D01*
X207363946Y-160136054D01*
X207252080Y-159999745D01*
X207168955Y-159844229D01*
X207117768Y-159675485D01*
X207100000Y-159495092D01*
X207100000Y-157000000D01*
X207099518Y-156990198D01*
X207080303Y-156795108D01*
X207076479Y-156775882D01*
X207019574Y-156588289D01*
X207012072Y-156570177D01*
X206919662Y-156397290D01*
X206908771Y-156380991D01*
X206784408Y-156229454D01*
X206770546Y-156215592D01*
X206619009Y-156091229D01*
X206602710Y-156080338D01*
X206429823Y-155987928D01*
X206411711Y-155980426D01*
X206224118Y-155923521D01*
X206204892Y-155919697D01*
X206009802Y-155900482D01*
X206000000Y-155900000D01*
X203004908Y-155900000D01*
X202824515Y-155882232D01*
X202655771Y-155831045D01*
X202500255Y-155747920D01*
X202363946Y-155636054D01*
X202252080Y-155499745D01*
X202168955Y-155344229D01*
X202117768Y-155175485D01*
X202100000Y-154995092D01*
X202100000Y-153250000D01*
X202099518Y-153240198D01*
X202080303Y-153045108D01*
X202076479Y-153025882D01*
X202019574Y-152838289D01*
X202012072Y-152820177D01*
X201919662Y-152647290D01*
X201908771Y-152630991D01*
X201784408Y-152479454D01*
X201770546Y-152465592D01*
X201619009Y-152341229D01*
X201602710Y-152330338D01*
X201429823Y-152237928D01*
X201411711Y-152230426D01*
X201224118Y-152173521D01*
X201204892Y-152169697D01*
X201009802Y-152150482D01*
X201000000Y-152150000D01*
X199254908Y-152150000D01*
X199074515Y-152132232D01*
X198905771Y-152081045D01*
X198750255Y-151997920D01*
X198613946Y-151886054D01*
X198502080Y-151749745D01*
X198418955Y-151594229D01*
X198367768Y-151425485D01*
X198350000Y-151245092D01*
X198350000Y-119000000D01*
X198349518Y-118990198D01*
X198330303Y-118795108D01*
X198326479Y-118775882D01*
X198269574Y-118588289D01*
X198262072Y-118570177D01*
X198169662Y-118397290D01*
X198158771Y-118380991D01*
X198034408Y-118229454D01*
X198020546Y-118215592D01*
X197869009Y-118091229D01*
X197852710Y-118080338D01*
X197679823Y-117987928D01*
X197661711Y-117980426D01*
X197474118Y-117923521D01*
X197454892Y-117919697D01*
X197259802Y-117900482D01*
X197250000Y-117900000D01*
X120254908Y-117900000D01*
X120074515Y-117882232D01*
X119905771Y-117831045D01*
X119750255Y-117747920D01*
X119613946Y-117636054D01*
X119502080Y-117499745D01*
X119418955Y-117344229D01*
X119367768Y-117175485D01*
X119350000Y-116995092D01*
X119350000Y-112056194D01*
X125009491Y-112056194D01*
X125347186Y-112361328D01*
X125883586Y-112584828D01*
X126453282Y-112699387D01*
X127034380Y-112700602D01*
X127604549Y-112588428D01*
X128141879Y-112367173D01*
X128152814Y-112361328D01*
X128490509Y-112056194D01*
X200009491Y-112056194D01*
X200347186Y-112361328D01*
X200883586Y-112584828D01*
X201453282Y-112699387D01*
X202034380Y-112700602D01*
X202604549Y-112588428D01*
X203141879Y-112367173D01*
X203152814Y-112361328D01*
X203490509Y-112056194D01*
X201750000Y-110315685D01*
X200009491Y-112056194D01*
X128490509Y-112056194D01*
X126750000Y-110315685D01*
X125009491Y-112056194D01*
X119350000Y-112056194D01*
X119350000Y-110034380D01*
X123799398Y-110034380D01*
X123911572Y-110604549D01*
X124132827Y-111141879D01*
X124138672Y-111152814D01*
X124443806Y-111490509D01*
X126184315Y-109750000D01*
X127315685Y-109750000D01*
X129056194Y-111490509D01*
X129361328Y-111152814D01*
X129584828Y-110616414D01*
X129699387Y-110046718D01*
X129699412Y-110034380D01*
X198799398Y-110034380D01*
X198911572Y-110604549D01*
X199132827Y-111141879D01*
X199138672Y-111152814D01*
X199443806Y-111490509D01*
X201184315Y-109750000D01*
X202315685Y-109750000D01*
X204056194Y-111490509D01*
X204361328Y-111152814D01*
X204584828Y-110616414D01*
X204699387Y-110046718D01*
X204700602Y-109465620D01*
X204588428Y-108895451D01*
X204367173Y-108358121D01*
X204361328Y-108347186D01*
X204056194Y-108009491D01*
X202315685Y-109750000D01*
X201184315Y-109750000D01*
X199443806Y-108009491D01*
X199138672Y-108347186D01*
X198915172Y-108883586D01*
X198800613Y-109453282D01*
X198799398Y-110034380D01*
X129699412Y-110034380D01*
X129700602Y-109465620D01*
X129588428Y-108895451D01*
X129367173Y-108358121D01*
X129361328Y-108347186D01*
X129056194Y-108009491D01*
X127315685Y-109750000D01*
X126184315Y-109750000D01*
X124443806Y-108009491D01*
X124138672Y-108347186D01*
X123915172Y-108883586D01*
X123800613Y-109453282D01*
X123799398Y-110034380D01*
X119350000Y-110034380D01*
X119350000Y-81056194D01*
X125009491Y-81056194D01*
X125347186Y-81361328D01*
X125883586Y-81584828D01*
X126453282Y-81699387D01*
X127034380Y-81700602D01*
X127384805Y-81631660D01*
X127376790Y-81713408D01*
X127376790Y-81713416D01*
X127375001Y-81731581D01*
X127375000Y-106768418D01*
X127376577Y-106784433D01*
X127376556Y-106787477D01*
X127377066Y-106792689D01*
X127385049Y-106868647D01*
X127046718Y-106800613D01*
X126465620Y-106799398D01*
X125895451Y-106911572D01*
X125358121Y-107132827D01*
X125347186Y-107138672D01*
X125009491Y-107443806D01*
X126750000Y-109184315D01*
X128309315Y-107625000D01*
X199268419Y-107625000D01*
X199284434Y-107623423D01*
X199287477Y-107623444D01*
X199292689Y-107622934D01*
X199389737Y-107612734D01*
X199423081Y-107605889D01*
X199456416Y-107599530D01*
X199461429Y-107598017D01*
X199554648Y-107569162D01*
X199586016Y-107555976D01*
X199617495Y-107543257D01*
X199622119Y-107540799D01*
X199707956Y-107494387D01*
X199736143Y-107475374D01*
X199764573Y-107456770D01*
X199768631Y-107453461D01*
X199780301Y-107443806D01*
X200009491Y-107443806D01*
X201750000Y-109184315D01*
X203490509Y-107443806D01*
X203152814Y-107138672D01*
X202616414Y-106915172D01*
X202046718Y-106800613D01*
X201465620Y-106799398D01*
X200895451Y-106911572D01*
X200358121Y-107132827D01*
X200347186Y-107138672D01*
X200009491Y-107443806D01*
X199780301Y-107443806D01*
X199843819Y-107391259D01*
X199867741Y-107367169D01*
X199892049Y-107343365D01*
X199895387Y-107339330D01*
X199957063Y-107263709D01*
X199975856Y-107235424D01*
X199995077Y-107207352D01*
X199997567Y-107202746D01*
X200043379Y-107116585D01*
X200056326Y-107085174D01*
X200069719Y-107053925D01*
X200071267Y-107048923D01*
X200099472Y-106955505D01*
X200106072Y-106922176D01*
X200113141Y-106888916D01*
X200113688Y-106883709D01*
X200123210Y-106786592D01*
X200125000Y-106768419D01*
X200125000Y-81731581D01*
X200123423Y-81715566D01*
X200123444Y-81712523D01*
X200122934Y-81707312D01*
X200112734Y-81610263D01*
X200105889Y-81576919D01*
X200099530Y-81543584D01*
X200098017Y-81538571D01*
X200069161Y-81445352D01*
X200055994Y-81414030D01*
X200043257Y-81382504D01*
X200040799Y-81377881D01*
X199994386Y-81292043D01*
X199975380Y-81263866D01*
X199956770Y-81235427D01*
X199953461Y-81231369D01*
X199891259Y-81156180D01*
X199867097Y-81132187D01*
X199843364Y-81107951D01*
X199839330Y-81104613D01*
X199839327Y-81104610D01*
X199839323Y-81104608D01*
X199779964Y-81056194D01*
X200009491Y-81056194D01*
X200347186Y-81361328D01*
X200883586Y-81584828D01*
X201453282Y-81699387D01*
X202034380Y-81700602D01*
X202604549Y-81588428D01*
X203141879Y-81367173D01*
X203152814Y-81361328D01*
X203490509Y-81056194D01*
X201750000Y-79315685D01*
X200009491Y-81056194D01*
X199779964Y-81056194D01*
X199763709Y-81042937D01*
X199735424Y-81024144D01*
X199707352Y-81004923D01*
X199702746Y-81002433D01*
X199616585Y-80956621D01*
X199585174Y-80943674D01*
X199553925Y-80930281D01*
X199548923Y-80928733D01*
X199455505Y-80900528D01*
X199422191Y-80893931D01*
X199388917Y-80886859D01*
X199383715Y-80886313D01*
X199383712Y-80886312D01*
X199383709Y-80886312D01*
X199287069Y-80876837D01*
X199268419Y-80875000D01*
X128309315Y-80875000D01*
X126750000Y-79315685D01*
X125009491Y-81056194D01*
X119350000Y-81056194D01*
X119350000Y-79034380D01*
X123799398Y-79034380D01*
X123911572Y-79604549D01*
X124132827Y-80141879D01*
X124138672Y-80152814D01*
X124443806Y-80490509D01*
X126184315Y-78750000D01*
X127315685Y-78750000D01*
X129056194Y-80490509D01*
X129361328Y-80152814D01*
X129584828Y-79616414D01*
X129699387Y-79046718D01*
X129699412Y-79034380D01*
X198799398Y-79034380D01*
X198911572Y-79604549D01*
X199132827Y-80141879D01*
X199138672Y-80152814D01*
X199443806Y-80490509D01*
X201184315Y-78750000D01*
X202315685Y-78750000D01*
X204056194Y-80490509D01*
X204361328Y-80152814D01*
X204584828Y-79616414D01*
X204699387Y-79046718D01*
X204700602Y-78465620D01*
X204588428Y-77895451D01*
X204367173Y-77358121D01*
X204361328Y-77347186D01*
X204056194Y-77009491D01*
X202315685Y-78750000D01*
X201184315Y-78750000D01*
X199443806Y-77009491D01*
X199138672Y-77347186D01*
X198915172Y-77883586D01*
X198800613Y-78453282D01*
X198799398Y-79034380D01*
X129699412Y-79034380D01*
X129700602Y-78465620D01*
X129588428Y-77895451D01*
X129367173Y-77358121D01*
X129361328Y-77347186D01*
X129056194Y-77009491D01*
X127315685Y-78750000D01*
X126184315Y-78750000D01*
X124443806Y-77009491D01*
X124138672Y-77347186D01*
X123915172Y-77883586D01*
X123800613Y-78453282D01*
X123799398Y-79034380D01*
X119350000Y-79034380D01*
X119350000Y-76443806D01*
X125009491Y-76443806D01*
X126750000Y-78184315D01*
X128490509Y-76443806D01*
X128152814Y-76138672D01*
X127616414Y-75915172D01*
X127046718Y-75800613D01*
X126465620Y-75799398D01*
X125895451Y-75911572D01*
X125358121Y-76132827D01*
X125347186Y-76138672D01*
X125009491Y-76443806D01*
X119350000Y-76443806D01*
X119350000Y-69826131D01*
X141750000Y-69826131D01*
X141750000Y-69973869D01*
X141778822Y-70118767D01*
X141835359Y-70255258D01*
X141917437Y-70378097D01*
X142021903Y-70482563D01*
X142047999Y-70500000D01*
X142021903Y-70517437D01*
X141917437Y-70621903D01*
X141835359Y-70744742D01*
X141778822Y-70881233D01*
X141750000Y-71026131D01*
X141750000Y-71173869D01*
X141778822Y-71318767D01*
X141835359Y-71455258D01*
X141917437Y-71578097D01*
X142021903Y-71682563D01*
X142122830Y-71750000D01*
X142021903Y-71817437D01*
X141917437Y-71921903D01*
X141835359Y-72044742D01*
X141778822Y-72181233D01*
X141750000Y-72326131D01*
X141750000Y-72473869D01*
X141778822Y-72618767D01*
X141835359Y-72755258D01*
X141917437Y-72878097D01*
X142021903Y-72982563D01*
X142085415Y-73025000D01*
X142021903Y-73067437D01*
X141917437Y-73171903D01*
X141835359Y-73294742D01*
X141778822Y-73431233D01*
X141750000Y-73576131D01*
X141750000Y-73723869D01*
X141778822Y-73868767D01*
X141835359Y-74005258D01*
X141917437Y-74128097D01*
X142021903Y-74232563D01*
X142144742Y-74314641D01*
X142281233Y-74371178D01*
X142426131Y-74400000D01*
X142573869Y-74400000D01*
X142718767Y-74371178D01*
X142855258Y-74314641D01*
X142978097Y-74232563D01*
X143019454Y-74191206D01*
X143025001Y-74196752D01*
X143025000Y-76226667D01*
X143022702Y-76250000D01*
X143025000Y-76273331D01*
X143031873Y-76343115D01*
X143059034Y-76432653D01*
X143103141Y-76515173D01*
X143162499Y-76587501D01*
X143180634Y-76602384D01*
X145397625Y-78819377D01*
X145412499Y-78837501D01*
X145430621Y-78852373D01*
X145430622Y-78852374D01*
X145484827Y-78896859D01*
X145567346Y-78940966D01*
X145656884Y-78968127D01*
X145750000Y-78977298D01*
X145773332Y-78975000D01*
X155226668Y-78975000D01*
X155250000Y-78977298D01*
X155273332Y-78975000D01*
X155343116Y-78968127D01*
X155432654Y-78940966D01*
X155515173Y-78896859D01*
X155587501Y-78837501D01*
X155602384Y-78819366D01*
X158446752Y-75975000D01*
X162165368Y-75975000D01*
X162167437Y-75978097D01*
X162271903Y-76082563D01*
X162394742Y-76164641D01*
X162531233Y-76221178D01*
X162676131Y-76250000D01*
X162823869Y-76250000D01*
X162968767Y-76221178D01*
X163105258Y-76164641D01*
X163228097Y-76082563D01*
X163332563Y-75978097D01*
X163414641Y-75855258D01*
X163471178Y-75718767D01*
X163500000Y-75573869D01*
X163500000Y-75426131D01*
X163471178Y-75281233D01*
X163447885Y-75225000D01*
X163665368Y-75225000D01*
X163667437Y-75228097D01*
X163771903Y-75332563D01*
X163894742Y-75414641D01*
X164031233Y-75471178D01*
X164176131Y-75500000D01*
X164323869Y-75500000D01*
X164468767Y-75471178D01*
X164605258Y-75414641D01*
X164728097Y-75332563D01*
X164832563Y-75228097D01*
X164914641Y-75105258D01*
X164971178Y-74968767D01*
X165000000Y-74823869D01*
X165000000Y-74676131D01*
X164971178Y-74531233D01*
X164947885Y-74475000D01*
X167665368Y-74475000D01*
X167667437Y-74478097D01*
X167771903Y-74582563D01*
X167894742Y-74664641D01*
X168031233Y-74721178D01*
X168176131Y-74750000D01*
X168323869Y-74750000D01*
X168468767Y-74721178D01*
X168605258Y-74664641D01*
X168728097Y-74582563D01*
X168832563Y-74478097D01*
X168914641Y-74355258D01*
X168971178Y-74218767D01*
X169000000Y-74073869D01*
X169000000Y-73926131D01*
X168971178Y-73781233D01*
X168947885Y-73725000D01*
X170165368Y-73725000D01*
X170167437Y-73728097D01*
X170271903Y-73832563D01*
X170394742Y-73914641D01*
X170531233Y-73971178D01*
X170676131Y-74000000D01*
X170823869Y-74000000D01*
X170968767Y-73971178D01*
X171105258Y-73914641D01*
X171228097Y-73832563D01*
X171332563Y-73728097D01*
X171414641Y-73605258D01*
X171471178Y-73468767D01*
X171500000Y-73323869D01*
X171500000Y-73176131D01*
X171471178Y-73031233D01*
X171447885Y-72975000D01*
X178053250Y-72975000D01*
X182397621Y-77319372D01*
X182412499Y-77337501D01*
X182484827Y-77396859D01*
X182567346Y-77440966D01*
X182629722Y-77459888D01*
X182656883Y-77468127D01*
X182749999Y-77477298D01*
X182773332Y-77475000D01*
X187226668Y-77475000D01*
X187250000Y-77477298D01*
X187273332Y-77475000D01*
X187343116Y-77468127D01*
X187432654Y-77440966D01*
X187515173Y-77396859D01*
X187587501Y-77337501D01*
X187602384Y-77319366D01*
X188477944Y-76443806D01*
X200009491Y-76443806D01*
X201750000Y-78184315D01*
X203490509Y-76443806D01*
X203152814Y-76138672D01*
X202616414Y-75915172D01*
X202046718Y-75800613D01*
X201465620Y-75799398D01*
X200895451Y-75911572D01*
X200358121Y-76132827D01*
X200347186Y-76138672D01*
X200009491Y-76443806D01*
X188477944Y-76443806D01*
X188672477Y-76249273D01*
X188676131Y-76250000D01*
X188823869Y-76250000D01*
X188968767Y-76221178D01*
X189105258Y-76164641D01*
X189228097Y-76082563D01*
X189332563Y-75978097D01*
X189414641Y-75855258D01*
X189471178Y-75718767D01*
X189500000Y-75573869D01*
X189500000Y-75426131D01*
X189471178Y-75281233D01*
X189414641Y-75144742D01*
X189332563Y-75021903D01*
X189228097Y-74917437D01*
X189105258Y-74835359D01*
X188968767Y-74778822D01*
X188823869Y-74750000D01*
X188676131Y-74750000D01*
X188531233Y-74778822D01*
X188394742Y-74835359D01*
X188271903Y-74917437D01*
X188167437Y-75021903D01*
X188085359Y-75144742D01*
X188028822Y-75281233D01*
X188000000Y-75426131D01*
X188000000Y-75573869D01*
X188000727Y-75577523D01*
X187053250Y-76525000D01*
X182946751Y-76525000D01*
X178646750Y-72225000D01*
X181415368Y-72225000D01*
X181417437Y-72228097D01*
X181521903Y-72332563D01*
X181644742Y-72414641D01*
X181781233Y-72471178D01*
X181926131Y-72500000D01*
X182073869Y-72500000D01*
X182218767Y-72471178D01*
X182355258Y-72414641D01*
X182478097Y-72332563D01*
X182582563Y-72228097D01*
X182664641Y-72105258D01*
X182721178Y-71968767D01*
X182750000Y-71823869D01*
X182750000Y-71676131D01*
X182721178Y-71531233D01*
X182697885Y-71475000D01*
X182803249Y-71475000D01*
X183025000Y-71696751D01*
X183025001Y-74915367D01*
X183021903Y-74917437D01*
X182917437Y-75021903D01*
X182835359Y-75144742D01*
X182778822Y-75281233D01*
X182750000Y-75426131D01*
X182750000Y-75573869D01*
X182778822Y-75718767D01*
X182835359Y-75855258D01*
X182917437Y-75978097D01*
X183021903Y-76082563D01*
X183144742Y-76164641D01*
X183281233Y-76221178D01*
X183426131Y-76250000D01*
X183573869Y-76250000D01*
X183718767Y-76221178D01*
X183855258Y-76164641D01*
X183978097Y-76082563D01*
X184082563Y-75978097D01*
X184164641Y-75855258D01*
X184221178Y-75718767D01*
X184250000Y-75573869D01*
X184250000Y-75426131D01*
X184221178Y-75281233D01*
X184164641Y-75144742D01*
X184082563Y-75021903D01*
X183978097Y-74917437D01*
X183975000Y-74915368D01*
X183975000Y-71523332D01*
X183977298Y-71500000D01*
X183968127Y-71406884D01*
X183940966Y-71317345D01*
X183913079Y-71265173D01*
X183896859Y-71234827D01*
X183837501Y-71162499D01*
X183819376Y-71147625D01*
X183352383Y-70680633D01*
X183337501Y-70662499D01*
X183265173Y-70603141D01*
X183182654Y-70559034D01*
X183093116Y-70531873D01*
X183023332Y-70525000D01*
X183000000Y-70522702D01*
X182976668Y-70525000D01*
X164785660Y-70525000D01*
X164832563Y-70478097D01*
X164914641Y-70355258D01*
X164971178Y-70218767D01*
X165000000Y-70073869D01*
X165000000Y-69926131D01*
X164971178Y-69781233D01*
X164914641Y-69644742D01*
X164832563Y-69521903D01*
X164728097Y-69417437D01*
X164605258Y-69335359D01*
X164468767Y-69278822D01*
X164323869Y-69250000D01*
X164176131Y-69250000D01*
X164031233Y-69278822D01*
X163894742Y-69335359D01*
X163771903Y-69417437D01*
X163739340Y-69450000D01*
X161760660Y-69450000D01*
X161728097Y-69417437D01*
X161605258Y-69335359D01*
X161468767Y-69278822D01*
X161323869Y-69250000D01*
X161176131Y-69250000D01*
X161031233Y-69278822D01*
X160894742Y-69335359D01*
X160771903Y-69417437D01*
X160667437Y-69521903D01*
X160585359Y-69644742D01*
X160528822Y-69781233D01*
X160500000Y-69926131D01*
X160500000Y-70073869D01*
X160528822Y-70218767D01*
X160585359Y-70355258D01*
X160667437Y-70478097D01*
X160714340Y-70525000D01*
X153223332Y-70525000D01*
X153200000Y-70522702D01*
X153176668Y-70525000D01*
X153106884Y-70531873D01*
X153017346Y-70559034D01*
X152934827Y-70603141D01*
X152862499Y-70662499D01*
X152847625Y-70680623D01*
X151827523Y-71700727D01*
X151823869Y-71700000D01*
X151676131Y-71700000D01*
X151531233Y-71728822D01*
X151394742Y-71785359D01*
X151271903Y-71867437D01*
X151167437Y-71971903D01*
X151085359Y-72094742D01*
X151028822Y-72231233D01*
X151000000Y-72376131D01*
X151000000Y-72523869D01*
X151028822Y-72668767D01*
X151085359Y-72805258D01*
X151167437Y-72928097D01*
X151271903Y-73032563D01*
X151394742Y-73114641D01*
X151531233Y-73171178D01*
X151676131Y-73200000D01*
X151823869Y-73200000D01*
X151968767Y-73171178D01*
X152105258Y-73114641D01*
X152228097Y-73032563D01*
X152332563Y-72928097D01*
X152414641Y-72805258D01*
X152471178Y-72668767D01*
X152500000Y-72523869D01*
X152500000Y-72376131D01*
X152499273Y-72372477D01*
X153396752Y-71475000D01*
X154753251Y-71475000D01*
X153302523Y-72925729D01*
X153298869Y-72925002D01*
X153151131Y-72925002D01*
X153006233Y-72953824D01*
X152869742Y-73010361D01*
X152746903Y-73092439D01*
X152642437Y-73196905D01*
X152560359Y-73319744D01*
X152503822Y-73456235D01*
X152475000Y-73601133D01*
X152475000Y-73748871D01*
X152503822Y-73893769D01*
X152560359Y-74030260D01*
X152642437Y-74153099D01*
X152746903Y-74257565D01*
X152869742Y-74339643D01*
X153006233Y-74396180D01*
X153151131Y-74425002D01*
X153298869Y-74425002D01*
X153443767Y-74396180D01*
X153580258Y-74339643D01*
X153703097Y-74257565D01*
X153807563Y-74153099D01*
X153889641Y-74030260D01*
X153946178Y-73893769D01*
X153975000Y-73748871D01*
X153975000Y-73601133D01*
X153974273Y-73597479D01*
X155346753Y-72225000D01*
X155853249Y-72225000D01*
X153603250Y-74475000D01*
X152359632Y-74475000D01*
X152357563Y-74471903D01*
X152253097Y-74367437D01*
X152130258Y-74285359D01*
X151993767Y-74228822D01*
X151848869Y-74200000D01*
X151701131Y-74200000D01*
X151556233Y-74228822D01*
X151419742Y-74285359D01*
X151296903Y-74367437D01*
X151192437Y-74471903D01*
X151110359Y-74594742D01*
X151053822Y-74731233D01*
X151025000Y-74876131D01*
X151025000Y-75023869D01*
X151053822Y-75168767D01*
X151110359Y-75305258D01*
X151192437Y-75428097D01*
X151296903Y-75532563D01*
X151419742Y-75614641D01*
X151556233Y-75671178D01*
X151701131Y-75700000D01*
X151848869Y-75700000D01*
X151993767Y-75671178D01*
X152130258Y-75614641D01*
X152253097Y-75532563D01*
X152357563Y-75428097D01*
X152359632Y-75425000D01*
X153776668Y-75425000D01*
X153800000Y-75427298D01*
X153823332Y-75425000D01*
X153893116Y-75418127D01*
X153982654Y-75390966D01*
X154065173Y-75346859D01*
X154137501Y-75287501D01*
X154152384Y-75269366D01*
X156446751Y-72975000D01*
X156853248Y-72975000D01*
X154053250Y-75775000D01*
X146946752Y-75775000D01*
X146225000Y-75053250D01*
X146225000Y-70273332D01*
X146227298Y-70250000D01*
X146218127Y-70156884D01*
X146190966Y-70067346D01*
X146146859Y-69984827D01*
X146087501Y-69912499D01*
X146069376Y-69897624D01*
X145752383Y-69580633D01*
X145737501Y-69562499D01*
X145665173Y-69503141D01*
X145582654Y-69459034D01*
X145493116Y-69431873D01*
X145423332Y-69425000D01*
X145400000Y-69422702D01*
X145376668Y-69425000D01*
X143084632Y-69425000D01*
X143082563Y-69421903D01*
X142978097Y-69317437D01*
X142855258Y-69235359D01*
X142718767Y-69178822D01*
X142573869Y-69150000D01*
X142426131Y-69150000D01*
X142281233Y-69178822D01*
X142144742Y-69235359D01*
X142021903Y-69317437D01*
X141917437Y-69421903D01*
X141835359Y-69544742D01*
X141778822Y-69681233D01*
X141750000Y-69826131D01*
X119350000Y-69826131D01*
X119350000Y-67426131D01*
X151000000Y-67426131D01*
X151000000Y-67573869D01*
X151028822Y-67718767D01*
X151085359Y-67855258D01*
X151167437Y-67978097D01*
X151271903Y-68082563D01*
X151335415Y-68125000D01*
X151271903Y-68167437D01*
X151167437Y-68271903D01*
X151085359Y-68394742D01*
X151028822Y-68531233D01*
X151000000Y-68676131D01*
X151000000Y-68823869D01*
X151028822Y-68968767D01*
X151085359Y-69105258D01*
X151167437Y-69228097D01*
X151271903Y-69332563D01*
X151394742Y-69414641D01*
X151531233Y-69471178D01*
X151676131Y-69500000D01*
X151823869Y-69500000D01*
X151968767Y-69471178D01*
X152105258Y-69414641D01*
X152228097Y-69332563D01*
X152332563Y-69228097D01*
X152334632Y-69225000D01*
X153726668Y-69225000D01*
X153750000Y-69227298D01*
X153773332Y-69225000D01*
X153843116Y-69218127D01*
X153932654Y-69190966D01*
X154015173Y-69146859D01*
X154087501Y-69087501D01*
X154102384Y-69069366D01*
X154746742Y-68425010D01*
X206270108Y-68425010D01*
X206278812Y-68468767D01*
X206335349Y-68605258D01*
X206417427Y-68728097D01*
X206521893Y-68832563D01*
X206644732Y-68914641D01*
X206781223Y-68971178D01*
X206926121Y-69000000D01*
X207073859Y-69000000D01*
X207218757Y-68971178D01*
X207355248Y-68914641D01*
X207478087Y-68832563D01*
X207582553Y-68728097D01*
X207664631Y-68605258D01*
X207721168Y-68468767D01*
X207749990Y-68323869D01*
X207749990Y-68250000D01*
X207823869Y-68250000D01*
X207968767Y-68221178D01*
X208105258Y-68164641D01*
X208228097Y-68082563D01*
X208332563Y-67978097D01*
X208414641Y-67855258D01*
X208471178Y-67718767D01*
X208500000Y-67573869D01*
X208500000Y-67426131D01*
X208471178Y-67281233D01*
X208414641Y-67144742D01*
X208332563Y-67021903D01*
X208228097Y-66917437D01*
X208105258Y-66835359D01*
X207968767Y-66778822D01*
X207823869Y-66750000D01*
X207676131Y-66750000D01*
X207531233Y-66778822D01*
X207394742Y-66835359D01*
X207271903Y-66917437D01*
X207167437Y-67021903D01*
X207165368Y-67025000D01*
X152334632Y-67025000D01*
X152332563Y-67021903D01*
X152228097Y-66917437D01*
X152105258Y-66835359D01*
X151968767Y-66778822D01*
X151823869Y-66750000D01*
X151676131Y-66750000D01*
X151531233Y-66778822D01*
X151394742Y-66835359D01*
X151271903Y-66917437D01*
X151167437Y-67021903D01*
X151085359Y-67144742D01*
X151028822Y-67281233D01*
X151000000Y-67426131D01*
X119350000Y-67426131D01*
X119350000Y-64754908D01*
X119367768Y-64574515D01*
X119418955Y-64405771D01*
X119502080Y-64250255D01*
X119613946Y-64113946D01*
X119750255Y-64002080D01*
X119905771Y-63918955D01*
X120074515Y-63867768D01*
X120254908Y-63850000D01*
X208245092Y-63850000D01*
X208425485Y-63867768D01*
M02*
