G04 #@! TF.GenerationSoftware,KiCad,Pcbnew,(5.1.6)-1*
G04 #@! TF.CreationDate,2020-10-27T15:14:38-03:00*
G04 #@! TF.ProjectId,PanelFrontal,50616e65-6c46-4726-9f6e-74616c2e6b69,v1.0*
G04 #@! TF.SameCoordinates,Original*
G04 #@! TF.FileFunction,Paste,Top*
G04 #@! TF.FilePolarity,Positive*
%FSLAX46Y46*%
G04 Gerber Fmt 4.6, Leading zero omitted, Abs format (unit mm)*
G04 Created by KiCad (PCBNEW (5.1.6)-1) date 2020-10-27 15:14:38*
%MOMM*%
%LPD*%
G01*
G04 APERTURE LIST*
%ADD10R,5.500000X1.000000*%
%ADD11R,3.000000X1.600000*%
%ADD12R,1.000000X2.500000*%
%ADD13R,1.000000X3.000000*%
%ADD14R,3.300000X1.200000*%
%ADD15R,0.800000X0.900000*%
G04 APERTURE END LIST*
G36*
G01*
X210875000Y-160662500D02*
X210875000Y-161287500D01*
G75*
G02*
X210812500Y-161350000I-62500J0D01*
G01*
X210687500Y-161350000D01*
G75*
G02*
X210625000Y-161287500I0J62500D01*
G01*
X210625000Y-160662500D01*
G75*
G02*
X210687500Y-160600000I62500J0D01*
G01*
X210812500Y-160600000D01*
G75*
G02*
X210875000Y-160662500I0J-62500D01*
G01*
G37*
G36*
G01*
X210375000Y-160662500D02*
X210375000Y-161287500D01*
G75*
G02*
X210312500Y-161350000I-62500J0D01*
G01*
X210187500Y-161350000D01*
G75*
G02*
X210125000Y-161287500I0J62500D01*
G01*
X210125000Y-160662500D01*
G75*
G02*
X210187500Y-160600000I62500J0D01*
G01*
X210312500Y-160600000D01*
G75*
G02*
X210375000Y-160662500I0J-62500D01*
G01*
G37*
G36*
G01*
X209875000Y-160662500D02*
X209875000Y-161287500D01*
G75*
G02*
X209812500Y-161350000I-62500J0D01*
G01*
X209687500Y-161350000D01*
G75*
G02*
X209625000Y-161287500I0J62500D01*
G01*
X209625000Y-160662500D01*
G75*
G02*
X209687500Y-160600000I62500J0D01*
G01*
X209812500Y-160600000D01*
G75*
G02*
X209875000Y-160662500I0J-62500D01*
G01*
G37*
G36*
G01*
X209375000Y-160662500D02*
X209375000Y-161287500D01*
G75*
G02*
X209312500Y-161350000I-62500J0D01*
G01*
X209187500Y-161350000D01*
G75*
G02*
X209125000Y-161287500I0J62500D01*
G01*
X209125000Y-160662500D01*
G75*
G02*
X209187500Y-160600000I62500J0D01*
G01*
X209312500Y-160600000D01*
G75*
G02*
X209375000Y-160662500I0J-62500D01*
G01*
G37*
G36*
G01*
X208875000Y-160662500D02*
X208875000Y-161287500D01*
G75*
G02*
X208812500Y-161350000I-62500J0D01*
G01*
X208687500Y-161350000D01*
G75*
G02*
X208625000Y-161287500I0J62500D01*
G01*
X208625000Y-160662500D01*
G75*
G02*
X208687500Y-160600000I62500J0D01*
G01*
X208812500Y-160600000D01*
G75*
G02*
X208875000Y-160662500I0J-62500D01*
G01*
G37*
G36*
G01*
X208375000Y-160662500D02*
X208375000Y-161287500D01*
G75*
G02*
X208312500Y-161350000I-62500J0D01*
G01*
X208187500Y-161350000D01*
G75*
G02*
X208125000Y-161287500I0J62500D01*
G01*
X208125000Y-160662500D01*
G75*
G02*
X208187500Y-160600000I62500J0D01*
G01*
X208312500Y-160600000D01*
G75*
G02*
X208375000Y-160662500I0J-62500D01*
G01*
G37*
G36*
G01*
X207875000Y-160662500D02*
X207875000Y-161287500D01*
G75*
G02*
X207812500Y-161350000I-62500J0D01*
G01*
X207687500Y-161350000D01*
G75*
G02*
X207625000Y-161287500I0J62500D01*
G01*
X207625000Y-160662500D01*
G75*
G02*
X207687500Y-160600000I62500J0D01*
G01*
X207812500Y-160600000D01*
G75*
G02*
X207875000Y-160662500I0J-62500D01*
G01*
G37*
G36*
G01*
X207375000Y-160662500D02*
X207375000Y-161287500D01*
G75*
G02*
X207312500Y-161350000I-62500J0D01*
G01*
X207187500Y-161350000D01*
G75*
G02*
X207125000Y-161287500I0J62500D01*
G01*
X207125000Y-160662500D01*
G75*
G02*
X207187500Y-160600000I62500J0D01*
G01*
X207312500Y-160600000D01*
G75*
G02*
X207375000Y-160662500I0J-62500D01*
G01*
G37*
G36*
G01*
X206900000Y-160187500D02*
X206900000Y-160312500D01*
G75*
G02*
X206837500Y-160375000I-62500J0D01*
G01*
X206212500Y-160375000D01*
G75*
G02*
X206150000Y-160312500I0J62500D01*
G01*
X206150000Y-160187500D01*
G75*
G02*
X206212500Y-160125000I62500J0D01*
G01*
X206837500Y-160125000D01*
G75*
G02*
X206900000Y-160187500I0J-62500D01*
G01*
G37*
G36*
G01*
X206900000Y-159687500D02*
X206900000Y-159812500D01*
G75*
G02*
X206837500Y-159875000I-62500J0D01*
G01*
X206212500Y-159875000D01*
G75*
G02*
X206150000Y-159812500I0J62500D01*
G01*
X206150000Y-159687500D01*
G75*
G02*
X206212500Y-159625000I62500J0D01*
G01*
X206837500Y-159625000D01*
G75*
G02*
X206900000Y-159687500I0J-62500D01*
G01*
G37*
G36*
G01*
X206900000Y-159187500D02*
X206900000Y-159312500D01*
G75*
G02*
X206837500Y-159375000I-62500J0D01*
G01*
X206212500Y-159375000D01*
G75*
G02*
X206150000Y-159312500I0J62500D01*
G01*
X206150000Y-159187500D01*
G75*
G02*
X206212500Y-159125000I62500J0D01*
G01*
X206837500Y-159125000D01*
G75*
G02*
X206900000Y-159187500I0J-62500D01*
G01*
G37*
G36*
G01*
X206900000Y-158687500D02*
X206900000Y-158812500D01*
G75*
G02*
X206837500Y-158875000I-62500J0D01*
G01*
X206212500Y-158875000D01*
G75*
G02*
X206150000Y-158812500I0J62500D01*
G01*
X206150000Y-158687500D01*
G75*
G02*
X206212500Y-158625000I62500J0D01*
G01*
X206837500Y-158625000D01*
G75*
G02*
X206900000Y-158687500I0J-62500D01*
G01*
G37*
G36*
G01*
X206900000Y-158187500D02*
X206900000Y-158312500D01*
G75*
G02*
X206837500Y-158375000I-62500J0D01*
G01*
X206212500Y-158375000D01*
G75*
G02*
X206150000Y-158312500I0J62500D01*
G01*
X206150000Y-158187500D01*
G75*
G02*
X206212500Y-158125000I62500J0D01*
G01*
X206837500Y-158125000D01*
G75*
G02*
X206900000Y-158187500I0J-62500D01*
G01*
G37*
G36*
G01*
X206900000Y-157687500D02*
X206900000Y-157812500D01*
G75*
G02*
X206837500Y-157875000I-62500J0D01*
G01*
X206212500Y-157875000D01*
G75*
G02*
X206150000Y-157812500I0J62500D01*
G01*
X206150000Y-157687500D01*
G75*
G02*
X206212500Y-157625000I62500J0D01*
G01*
X206837500Y-157625000D01*
G75*
G02*
X206900000Y-157687500I0J-62500D01*
G01*
G37*
G36*
G01*
X206900000Y-157187500D02*
X206900000Y-157312500D01*
G75*
G02*
X206837500Y-157375000I-62500J0D01*
G01*
X206212500Y-157375000D01*
G75*
G02*
X206150000Y-157312500I0J62500D01*
G01*
X206150000Y-157187500D01*
G75*
G02*
X206212500Y-157125000I62500J0D01*
G01*
X206837500Y-157125000D01*
G75*
G02*
X206900000Y-157187500I0J-62500D01*
G01*
G37*
G36*
G01*
X206900000Y-156687500D02*
X206900000Y-156812500D01*
G75*
G02*
X206837500Y-156875000I-62500J0D01*
G01*
X206212500Y-156875000D01*
G75*
G02*
X206150000Y-156812500I0J62500D01*
G01*
X206150000Y-156687500D01*
G75*
G02*
X206212500Y-156625000I62500J0D01*
G01*
X206837500Y-156625000D01*
G75*
G02*
X206900000Y-156687500I0J-62500D01*
G01*
G37*
G36*
G01*
X207375000Y-155712500D02*
X207375000Y-156337500D01*
G75*
G02*
X207312500Y-156400000I-62500J0D01*
G01*
X207187500Y-156400000D01*
G75*
G02*
X207125000Y-156337500I0J62500D01*
G01*
X207125000Y-155712500D01*
G75*
G02*
X207187500Y-155650000I62500J0D01*
G01*
X207312500Y-155650000D01*
G75*
G02*
X207375000Y-155712500I0J-62500D01*
G01*
G37*
G36*
G01*
X207875000Y-155712500D02*
X207875000Y-156337500D01*
G75*
G02*
X207812500Y-156400000I-62500J0D01*
G01*
X207687500Y-156400000D01*
G75*
G02*
X207625000Y-156337500I0J62500D01*
G01*
X207625000Y-155712500D01*
G75*
G02*
X207687500Y-155650000I62500J0D01*
G01*
X207812500Y-155650000D01*
G75*
G02*
X207875000Y-155712500I0J-62500D01*
G01*
G37*
G36*
G01*
X208375000Y-155712500D02*
X208375000Y-156337500D01*
G75*
G02*
X208312500Y-156400000I-62500J0D01*
G01*
X208187500Y-156400000D01*
G75*
G02*
X208125000Y-156337500I0J62500D01*
G01*
X208125000Y-155712500D01*
G75*
G02*
X208187500Y-155650000I62500J0D01*
G01*
X208312500Y-155650000D01*
G75*
G02*
X208375000Y-155712500I0J-62500D01*
G01*
G37*
G36*
G01*
X208875000Y-155712500D02*
X208875000Y-156337500D01*
G75*
G02*
X208812500Y-156400000I-62500J0D01*
G01*
X208687500Y-156400000D01*
G75*
G02*
X208625000Y-156337500I0J62500D01*
G01*
X208625000Y-155712500D01*
G75*
G02*
X208687500Y-155650000I62500J0D01*
G01*
X208812500Y-155650000D01*
G75*
G02*
X208875000Y-155712500I0J-62500D01*
G01*
G37*
G36*
G01*
X209375000Y-155712500D02*
X209375000Y-156337500D01*
G75*
G02*
X209312500Y-156400000I-62500J0D01*
G01*
X209187500Y-156400000D01*
G75*
G02*
X209125000Y-156337500I0J62500D01*
G01*
X209125000Y-155712500D01*
G75*
G02*
X209187500Y-155650000I62500J0D01*
G01*
X209312500Y-155650000D01*
G75*
G02*
X209375000Y-155712500I0J-62500D01*
G01*
G37*
G36*
G01*
X209875000Y-155712500D02*
X209875000Y-156337500D01*
G75*
G02*
X209812500Y-156400000I-62500J0D01*
G01*
X209687500Y-156400000D01*
G75*
G02*
X209625000Y-156337500I0J62500D01*
G01*
X209625000Y-155712500D01*
G75*
G02*
X209687500Y-155650000I62500J0D01*
G01*
X209812500Y-155650000D01*
G75*
G02*
X209875000Y-155712500I0J-62500D01*
G01*
G37*
G36*
G01*
X210375000Y-155712500D02*
X210375000Y-156337500D01*
G75*
G02*
X210312500Y-156400000I-62500J0D01*
G01*
X210187500Y-156400000D01*
G75*
G02*
X210125000Y-156337500I0J62500D01*
G01*
X210125000Y-155712500D01*
G75*
G02*
X210187500Y-155650000I62500J0D01*
G01*
X210312500Y-155650000D01*
G75*
G02*
X210375000Y-155712500I0J-62500D01*
G01*
G37*
G36*
G01*
X210875000Y-155712500D02*
X210875000Y-156337500D01*
G75*
G02*
X210812500Y-156400000I-62500J0D01*
G01*
X210687500Y-156400000D01*
G75*
G02*
X210625000Y-156337500I0J62500D01*
G01*
X210625000Y-155712500D01*
G75*
G02*
X210687500Y-155650000I62500J0D01*
G01*
X210812500Y-155650000D01*
G75*
G02*
X210875000Y-155712500I0J-62500D01*
G01*
G37*
G36*
G01*
X211850000Y-156687500D02*
X211850000Y-156812500D01*
G75*
G02*
X211787500Y-156875000I-62500J0D01*
G01*
X211162500Y-156875000D01*
G75*
G02*
X211100000Y-156812500I0J62500D01*
G01*
X211100000Y-156687500D01*
G75*
G02*
X211162500Y-156625000I62500J0D01*
G01*
X211787500Y-156625000D01*
G75*
G02*
X211850000Y-156687500I0J-62500D01*
G01*
G37*
G36*
G01*
X211850000Y-157187500D02*
X211850000Y-157312500D01*
G75*
G02*
X211787500Y-157375000I-62500J0D01*
G01*
X211162500Y-157375000D01*
G75*
G02*
X211100000Y-157312500I0J62500D01*
G01*
X211100000Y-157187500D01*
G75*
G02*
X211162500Y-157125000I62500J0D01*
G01*
X211787500Y-157125000D01*
G75*
G02*
X211850000Y-157187500I0J-62500D01*
G01*
G37*
G36*
G01*
X211850000Y-157687500D02*
X211850000Y-157812500D01*
G75*
G02*
X211787500Y-157875000I-62500J0D01*
G01*
X211162500Y-157875000D01*
G75*
G02*
X211100000Y-157812500I0J62500D01*
G01*
X211100000Y-157687500D01*
G75*
G02*
X211162500Y-157625000I62500J0D01*
G01*
X211787500Y-157625000D01*
G75*
G02*
X211850000Y-157687500I0J-62500D01*
G01*
G37*
G36*
G01*
X211850000Y-158187500D02*
X211850000Y-158312500D01*
G75*
G02*
X211787500Y-158375000I-62500J0D01*
G01*
X211162500Y-158375000D01*
G75*
G02*
X211100000Y-158312500I0J62500D01*
G01*
X211100000Y-158187500D01*
G75*
G02*
X211162500Y-158125000I62500J0D01*
G01*
X211787500Y-158125000D01*
G75*
G02*
X211850000Y-158187500I0J-62500D01*
G01*
G37*
G36*
G01*
X211850000Y-158687500D02*
X211850000Y-158812500D01*
G75*
G02*
X211787500Y-158875000I-62500J0D01*
G01*
X211162500Y-158875000D01*
G75*
G02*
X211100000Y-158812500I0J62500D01*
G01*
X211100000Y-158687500D01*
G75*
G02*
X211162500Y-158625000I62500J0D01*
G01*
X211787500Y-158625000D01*
G75*
G02*
X211850000Y-158687500I0J-62500D01*
G01*
G37*
G36*
G01*
X211850000Y-159187500D02*
X211850000Y-159312500D01*
G75*
G02*
X211787500Y-159375000I-62500J0D01*
G01*
X211162500Y-159375000D01*
G75*
G02*
X211100000Y-159312500I0J62500D01*
G01*
X211100000Y-159187500D01*
G75*
G02*
X211162500Y-159125000I62500J0D01*
G01*
X211787500Y-159125000D01*
G75*
G02*
X211850000Y-159187500I0J-62500D01*
G01*
G37*
G36*
G01*
X211850000Y-159687500D02*
X211850000Y-159812500D01*
G75*
G02*
X211787500Y-159875000I-62500J0D01*
G01*
X211162500Y-159875000D01*
G75*
G02*
X211100000Y-159812500I0J62500D01*
G01*
X211100000Y-159687500D01*
G75*
G02*
X211162500Y-159625000I62500J0D01*
G01*
X211787500Y-159625000D01*
G75*
G02*
X211850000Y-159687500I0J-62500D01*
G01*
G37*
G36*
G01*
X211850000Y-160187500D02*
X211850000Y-160312500D01*
G75*
G02*
X211787500Y-160375000I-62500J0D01*
G01*
X211162500Y-160375000D01*
G75*
G02*
X211100000Y-160312500I0J62500D01*
G01*
X211100000Y-160187500D01*
G75*
G02*
X211162500Y-160125000I62500J0D01*
G01*
X211787500Y-160125000D01*
G75*
G02*
X211850000Y-160187500I0J-62500D01*
G01*
G37*
G36*
G01*
X208270000Y-157035000D02*
X208270000Y-157525000D01*
G75*
G02*
X208025000Y-157770000I-245000J0D01*
G01*
X207535000Y-157770000D01*
G75*
G02*
X207290000Y-157525000I0J245000D01*
G01*
X207290000Y-157035000D01*
G75*
G02*
X207535000Y-156790000I245000J0D01*
G01*
X208025000Y-156790000D01*
G75*
G02*
X208270000Y-157035000I0J-245000D01*
G01*
G37*
G36*
G01*
X208270000Y-158255000D02*
X208270000Y-158745000D01*
G75*
G02*
X208025000Y-158990000I-245000J0D01*
G01*
X207535000Y-158990000D01*
G75*
G02*
X207290000Y-158745000I0J245000D01*
G01*
X207290000Y-158255000D01*
G75*
G02*
X207535000Y-158010000I245000J0D01*
G01*
X208025000Y-158010000D01*
G75*
G02*
X208270000Y-158255000I0J-245000D01*
G01*
G37*
G36*
G01*
X208270000Y-159475000D02*
X208270000Y-159965000D01*
G75*
G02*
X208025000Y-160210000I-245000J0D01*
G01*
X207535000Y-160210000D01*
G75*
G02*
X207290000Y-159965000I0J245000D01*
G01*
X207290000Y-159475000D01*
G75*
G02*
X207535000Y-159230000I245000J0D01*
G01*
X208025000Y-159230000D01*
G75*
G02*
X208270000Y-159475000I0J-245000D01*
G01*
G37*
G36*
G01*
X209490000Y-157035000D02*
X209490000Y-157525000D01*
G75*
G02*
X209245000Y-157770000I-245000J0D01*
G01*
X208755000Y-157770000D01*
G75*
G02*
X208510000Y-157525000I0J245000D01*
G01*
X208510000Y-157035000D01*
G75*
G02*
X208755000Y-156790000I245000J0D01*
G01*
X209245000Y-156790000D01*
G75*
G02*
X209490000Y-157035000I0J-245000D01*
G01*
G37*
G36*
G01*
X209490000Y-158255000D02*
X209490000Y-158745000D01*
G75*
G02*
X209245000Y-158990000I-245000J0D01*
G01*
X208755000Y-158990000D01*
G75*
G02*
X208510000Y-158745000I0J245000D01*
G01*
X208510000Y-158255000D01*
G75*
G02*
X208755000Y-158010000I245000J0D01*
G01*
X209245000Y-158010000D01*
G75*
G02*
X209490000Y-158255000I0J-245000D01*
G01*
G37*
G36*
G01*
X209490000Y-159475000D02*
X209490000Y-159965000D01*
G75*
G02*
X209245000Y-160210000I-245000J0D01*
G01*
X208755000Y-160210000D01*
G75*
G02*
X208510000Y-159965000I0J245000D01*
G01*
X208510000Y-159475000D01*
G75*
G02*
X208755000Y-159230000I245000J0D01*
G01*
X209245000Y-159230000D01*
G75*
G02*
X209490000Y-159475000I0J-245000D01*
G01*
G37*
G36*
G01*
X210710000Y-157035000D02*
X210710000Y-157525000D01*
G75*
G02*
X210465000Y-157770000I-245000J0D01*
G01*
X209975000Y-157770000D01*
G75*
G02*
X209730000Y-157525000I0J245000D01*
G01*
X209730000Y-157035000D01*
G75*
G02*
X209975000Y-156790000I245000J0D01*
G01*
X210465000Y-156790000D01*
G75*
G02*
X210710000Y-157035000I0J-245000D01*
G01*
G37*
G36*
G01*
X210710000Y-158255000D02*
X210710000Y-158745000D01*
G75*
G02*
X210465000Y-158990000I-245000J0D01*
G01*
X209975000Y-158990000D01*
G75*
G02*
X209730000Y-158745000I0J245000D01*
G01*
X209730000Y-158255000D01*
G75*
G02*
X209975000Y-158010000I245000J0D01*
G01*
X210465000Y-158010000D01*
G75*
G02*
X210710000Y-158255000I0J-245000D01*
G01*
G37*
G36*
G01*
X210710000Y-159475000D02*
X210710000Y-159965000D01*
G75*
G02*
X210465000Y-160210000I-245000J0D01*
G01*
X209975000Y-160210000D01*
G75*
G02*
X209730000Y-159965000I0J245000D01*
G01*
X209730000Y-159475000D01*
G75*
G02*
X209975000Y-159230000I245000J0D01*
G01*
X210465000Y-159230000D01*
G75*
G02*
X210710000Y-159475000I0J-245000D01*
G01*
G37*
G36*
G01*
X199100000Y-162006250D02*
X199100000Y-161493750D01*
G75*
G02*
X199318750Y-161275000I218750J0D01*
G01*
X199756250Y-161275000D01*
G75*
G02*
X199975000Y-161493750I0J-218750D01*
G01*
X199975000Y-162006250D01*
G75*
G02*
X199756250Y-162225000I-218750J0D01*
G01*
X199318750Y-162225000D01*
G75*
G02*
X199100000Y-162006250I0J218750D01*
G01*
G37*
G36*
G01*
X197525000Y-162006250D02*
X197525000Y-161493750D01*
G75*
G02*
X197743750Y-161275000I218750J0D01*
G01*
X198181250Y-161275000D01*
G75*
G02*
X198400000Y-161493750I0J-218750D01*
G01*
X198400000Y-162006250D01*
G75*
G02*
X198181250Y-162225000I-218750J0D01*
G01*
X197743750Y-162225000D01*
G75*
G02*
X197525000Y-162006250I0J218750D01*
G01*
G37*
D10*
X205400000Y-129800000D03*
X205400000Y-133800000D03*
D11*
X207650000Y-125400000D03*
X207650000Y-136200000D03*
D10*
X205400000Y-127800000D03*
X205400000Y-131800000D03*
G36*
G01*
X207756250Y-152150000D02*
X207243750Y-152150000D01*
G75*
G02*
X207025000Y-151931250I0J218750D01*
G01*
X207025000Y-151493750D01*
G75*
G02*
X207243750Y-151275000I218750J0D01*
G01*
X207756250Y-151275000D01*
G75*
G02*
X207975000Y-151493750I0J-218750D01*
G01*
X207975000Y-151931250D01*
G75*
G02*
X207756250Y-152150000I-218750J0D01*
G01*
G37*
G36*
G01*
X207756250Y-153725000D02*
X207243750Y-153725000D01*
G75*
G02*
X207025000Y-153506250I0J218750D01*
G01*
X207025000Y-153068750D01*
G75*
G02*
X207243750Y-152850000I218750J0D01*
G01*
X207756250Y-152850000D01*
G75*
G02*
X207975000Y-153068750I0J-218750D01*
G01*
X207975000Y-153506250D01*
G75*
G02*
X207756250Y-153725000I-218750J0D01*
G01*
G37*
G36*
G01*
X213756250Y-152150000D02*
X213243750Y-152150000D01*
G75*
G02*
X213025000Y-151931250I0J218750D01*
G01*
X213025000Y-151493750D01*
G75*
G02*
X213243750Y-151275000I218750J0D01*
G01*
X213756250Y-151275000D01*
G75*
G02*
X213975000Y-151493750I0J-218750D01*
G01*
X213975000Y-151931250D01*
G75*
G02*
X213756250Y-152150000I-218750J0D01*
G01*
G37*
G36*
G01*
X213756250Y-153725000D02*
X213243750Y-153725000D01*
G75*
G02*
X213025000Y-153506250I0J218750D01*
G01*
X213025000Y-153068750D01*
G75*
G02*
X213243750Y-152850000I218750J0D01*
G01*
X213756250Y-152850000D01*
G75*
G02*
X213975000Y-153068750I0J-218750D01*
G01*
X213975000Y-153506250D01*
G75*
G02*
X213756250Y-153725000I-218750J0D01*
G01*
G37*
D12*
X158150000Y-79500000D03*
X163230000Y-79500000D03*
X168310000Y-79500000D03*
X173390000Y-79500000D03*
X178470000Y-79500000D03*
X183550000Y-79500000D03*
X188630000Y-79500000D03*
D13*
X160690000Y-76750000D03*
X165770000Y-76750000D03*
X170850000Y-76750000D03*
X175930000Y-76750000D03*
X181010000Y-76750000D03*
X186090000Y-76750000D03*
X191170000Y-76750000D03*
D12*
X193710000Y-79500000D03*
D13*
X196250000Y-76750000D03*
D14*
X202150000Y-71540000D03*
X202100000Y-66460000D03*
X195700000Y-69000000D03*
G36*
G01*
X147875000Y-66205000D02*
X147875000Y-65905000D01*
G75*
G02*
X148025000Y-65755000I150000J0D01*
G01*
X149775000Y-65755000D01*
G75*
G02*
X149925000Y-65905000I0J-150000D01*
G01*
X149925000Y-66205000D01*
G75*
G02*
X149775000Y-66355000I-150000J0D01*
G01*
X148025000Y-66355000D01*
G75*
G02*
X147875000Y-66205000I0J150000D01*
G01*
G37*
G36*
G01*
X147875000Y-67475000D02*
X147875000Y-67175000D01*
G75*
G02*
X148025000Y-67025000I150000J0D01*
G01*
X149775000Y-67025000D01*
G75*
G02*
X149925000Y-67175000I0J-150000D01*
G01*
X149925000Y-67475000D01*
G75*
G02*
X149775000Y-67625000I-150000J0D01*
G01*
X148025000Y-67625000D01*
G75*
G02*
X147875000Y-67475000I0J150000D01*
G01*
G37*
G36*
G01*
X147875000Y-68745000D02*
X147875000Y-68445000D01*
G75*
G02*
X148025000Y-68295000I150000J0D01*
G01*
X149775000Y-68295000D01*
G75*
G02*
X149925000Y-68445000I0J-150000D01*
G01*
X149925000Y-68745000D01*
G75*
G02*
X149775000Y-68895000I-150000J0D01*
G01*
X148025000Y-68895000D01*
G75*
G02*
X147875000Y-68745000I0J150000D01*
G01*
G37*
G36*
G01*
X147875000Y-70015000D02*
X147875000Y-69715000D01*
G75*
G02*
X148025000Y-69565000I150000J0D01*
G01*
X149775000Y-69565000D01*
G75*
G02*
X149925000Y-69715000I0J-150000D01*
G01*
X149925000Y-70015000D01*
G75*
G02*
X149775000Y-70165000I-150000J0D01*
G01*
X148025000Y-70165000D01*
G75*
G02*
X147875000Y-70015000I0J150000D01*
G01*
G37*
G36*
G01*
X147875000Y-71285000D02*
X147875000Y-70985000D01*
G75*
G02*
X148025000Y-70835000I150000J0D01*
G01*
X149775000Y-70835000D01*
G75*
G02*
X149925000Y-70985000I0J-150000D01*
G01*
X149925000Y-71285000D01*
G75*
G02*
X149775000Y-71435000I-150000J0D01*
G01*
X148025000Y-71435000D01*
G75*
G02*
X147875000Y-71285000I0J150000D01*
G01*
G37*
G36*
G01*
X147875000Y-72555000D02*
X147875000Y-72255000D01*
G75*
G02*
X148025000Y-72105000I150000J0D01*
G01*
X149775000Y-72105000D01*
G75*
G02*
X149925000Y-72255000I0J-150000D01*
G01*
X149925000Y-72555000D01*
G75*
G02*
X149775000Y-72705000I-150000J0D01*
G01*
X148025000Y-72705000D01*
G75*
G02*
X147875000Y-72555000I0J150000D01*
G01*
G37*
G36*
G01*
X147875000Y-73825000D02*
X147875000Y-73525000D01*
G75*
G02*
X148025000Y-73375000I150000J0D01*
G01*
X149775000Y-73375000D01*
G75*
G02*
X149925000Y-73525000I0J-150000D01*
G01*
X149925000Y-73825000D01*
G75*
G02*
X149775000Y-73975000I-150000J0D01*
G01*
X148025000Y-73975000D01*
G75*
G02*
X147875000Y-73825000I0J150000D01*
G01*
G37*
G36*
G01*
X147875000Y-75095000D02*
X147875000Y-74795000D01*
G75*
G02*
X148025000Y-74645000I150000J0D01*
G01*
X149775000Y-74645000D01*
G75*
G02*
X149925000Y-74795000I0J-150000D01*
G01*
X149925000Y-75095000D01*
G75*
G02*
X149775000Y-75245000I-150000J0D01*
G01*
X148025000Y-75245000D01*
G75*
G02*
X147875000Y-75095000I0J150000D01*
G01*
G37*
G36*
G01*
X138575000Y-75095000D02*
X138575000Y-74795000D01*
G75*
G02*
X138725000Y-74645000I150000J0D01*
G01*
X140475000Y-74645000D01*
G75*
G02*
X140625000Y-74795000I0J-150000D01*
G01*
X140625000Y-75095000D01*
G75*
G02*
X140475000Y-75245000I-150000J0D01*
G01*
X138725000Y-75245000D01*
G75*
G02*
X138575000Y-75095000I0J150000D01*
G01*
G37*
G36*
G01*
X138575000Y-73825000D02*
X138575000Y-73525000D01*
G75*
G02*
X138725000Y-73375000I150000J0D01*
G01*
X140475000Y-73375000D01*
G75*
G02*
X140625000Y-73525000I0J-150000D01*
G01*
X140625000Y-73825000D01*
G75*
G02*
X140475000Y-73975000I-150000J0D01*
G01*
X138725000Y-73975000D01*
G75*
G02*
X138575000Y-73825000I0J150000D01*
G01*
G37*
G36*
G01*
X138575000Y-72555000D02*
X138575000Y-72255000D01*
G75*
G02*
X138725000Y-72105000I150000J0D01*
G01*
X140475000Y-72105000D01*
G75*
G02*
X140625000Y-72255000I0J-150000D01*
G01*
X140625000Y-72555000D01*
G75*
G02*
X140475000Y-72705000I-150000J0D01*
G01*
X138725000Y-72705000D01*
G75*
G02*
X138575000Y-72555000I0J150000D01*
G01*
G37*
G36*
G01*
X138575000Y-71285000D02*
X138575000Y-70985000D01*
G75*
G02*
X138725000Y-70835000I150000J0D01*
G01*
X140475000Y-70835000D01*
G75*
G02*
X140625000Y-70985000I0J-150000D01*
G01*
X140625000Y-71285000D01*
G75*
G02*
X140475000Y-71435000I-150000J0D01*
G01*
X138725000Y-71435000D01*
G75*
G02*
X138575000Y-71285000I0J150000D01*
G01*
G37*
G36*
G01*
X138575000Y-70015000D02*
X138575000Y-69715000D01*
G75*
G02*
X138725000Y-69565000I150000J0D01*
G01*
X140475000Y-69565000D01*
G75*
G02*
X140625000Y-69715000I0J-150000D01*
G01*
X140625000Y-70015000D01*
G75*
G02*
X140475000Y-70165000I-150000J0D01*
G01*
X138725000Y-70165000D01*
G75*
G02*
X138575000Y-70015000I0J150000D01*
G01*
G37*
G36*
G01*
X138575000Y-68745000D02*
X138575000Y-68445000D01*
G75*
G02*
X138725000Y-68295000I150000J0D01*
G01*
X140475000Y-68295000D01*
G75*
G02*
X140625000Y-68445000I0J-150000D01*
G01*
X140625000Y-68745000D01*
G75*
G02*
X140475000Y-68895000I-150000J0D01*
G01*
X138725000Y-68895000D01*
G75*
G02*
X138575000Y-68745000I0J150000D01*
G01*
G37*
G36*
G01*
X138575000Y-67475000D02*
X138575000Y-67175000D01*
G75*
G02*
X138725000Y-67025000I150000J0D01*
G01*
X140475000Y-67025000D01*
G75*
G02*
X140625000Y-67175000I0J-150000D01*
G01*
X140625000Y-67475000D01*
G75*
G02*
X140475000Y-67625000I-150000J0D01*
G01*
X138725000Y-67625000D01*
G75*
G02*
X138575000Y-67475000I0J150000D01*
G01*
G37*
G36*
G01*
X138575000Y-66205000D02*
X138575000Y-65905000D01*
G75*
G02*
X138725000Y-65755000I150000J0D01*
G01*
X140475000Y-65755000D01*
G75*
G02*
X140625000Y-65905000I0J-150000D01*
G01*
X140625000Y-66205000D01*
G75*
G02*
X140475000Y-66355000I-150000J0D01*
G01*
X138725000Y-66355000D01*
G75*
G02*
X138575000Y-66205000I0J150000D01*
G01*
G37*
G36*
G01*
X160600000Y-71406250D02*
X160600000Y-70893750D01*
G75*
G02*
X160818750Y-70675000I218750J0D01*
G01*
X161256250Y-70675000D01*
G75*
G02*
X161475000Y-70893750I0J-218750D01*
G01*
X161475000Y-71406250D01*
G75*
G02*
X161256250Y-71625000I-218750J0D01*
G01*
X160818750Y-71625000D01*
G75*
G02*
X160600000Y-71406250I0J218750D01*
G01*
G37*
G36*
G01*
X159025000Y-71406250D02*
X159025000Y-70893750D01*
G75*
G02*
X159243750Y-70675000I218750J0D01*
G01*
X159681250Y-70675000D01*
G75*
G02*
X159900000Y-70893750I0J-218750D01*
G01*
X159900000Y-71406250D01*
G75*
G02*
X159681250Y-71625000I-218750J0D01*
G01*
X159243750Y-71625000D01*
G75*
G02*
X159025000Y-71406250I0J218750D01*
G01*
G37*
G36*
G01*
X152850000Y-71406250D02*
X152850000Y-70893750D01*
G75*
G02*
X153068750Y-70675000I218750J0D01*
G01*
X153506250Y-70675000D01*
G75*
G02*
X153725000Y-70893750I0J-218750D01*
G01*
X153725000Y-71406250D01*
G75*
G02*
X153506250Y-71625000I-218750J0D01*
G01*
X153068750Y-71625000D01*
G75*
G02*
X152850000Y-71406250I0J218750D01*
G01*
G37*
G36*
G01*
X151275000Y-71406250D02*
X151275000Y-70893750D01*
G75*
G02*
X151493750Y-70675000I218750J0D01*
G01*
X151931250Y-70675000D01*
G75*
G02*
X152150000Y-70893750I0J-218750D01*
G01*
X152150000Y-71406250D01*
G75*
G02*
X151931250Y-71625000I-218750J0D01*
G01*
X151493750Y-71625000D01*
G75*
G02*
X151275000Y-71406250I0J218750D01*
G01*
G37*
G36*
G01*
X199100000Y-164006250D02*
X199100000Y-163493750D01*
G75*
G02*
X199318750Y-163275000I218750J0D01*
G01*
X199756250Y-163275000D01*
G75*
G02*
X199975000Y-163493750I0J-218750D01*
G01*
X199975000Y-164006250D01*
G75*
G02*
X199756250Y-164225000I-218750J0D01*
G01*
X199318750Y-164225000D01*
G75*
G02*
X199100000Y-164006250I0J218750D01*
G01*
G37*
G36*
G01*
X197525000Y-164006250D02*
X197525000Y-163493750D01*
G75*
G02*
X197743750Y-163275000I218750J0D01*
G01*
X198181250Y-163275000D01*
G75*
G02*
X198400000Y-163493750I0J-218750D01*
G01*
X198400000Y-164006250D01*
G75*
G02*
X198181250Y-164225000I-218750J0D01*
G01*
X197743750Y-164225000D01*
G75*
G02*
X197525000Y-164006250I0J218750D01*
G01*
G37*
G36*
G01*
X199100000Y-160006250D02*
X199100000Y-159493750D01*
G75*
G02*
X199318750Y-159275000I218750J0D01*
G01*
X199756250Y-159275000D01*
G75*
G02*
X199975000Y-159493750I0J-218750D01*
G01*
X199975000Y-160006250D01*
G75*
G02*
X199756250Y-160225000I-218750J0D01*
G01*
X199318750Y-160225000D01*
G75*
G02*
X199100000Y-160006250I0J218750D01*
G01*
G37*
G36*
G01*
X197525000Y-160006250D02*
X197525000Y-159493750D01*
G75*
G02*
X197743750Y-159275000I218750J0D01*
G01*
X198181250Y-159275000D01*
G75*
G02*
X198400000Y-159493750I0J-218750D01*
G01*
X198400000Y-160006250D01*
G75*
G02*
X198181250Y-160225000I-218750J0D01*
G01*
X197743750Y-160225000D01*
G75*
G02*
X197525000Y-160006250I0J218750D01*
G01*
G37*
G36*
G01*
X199100000Y-158006250D02*
X199100000Y-157493750D01*
G75*
G02*
X199318750Y-157275000I218750J0D01*
G01*
X199756250Y-157275000D01*
G75*
G02*
X199975000Y-157493750I0J-218750D01*
G01*
X199975000Y-158006250D01*
G75*
G02*
X199756250Y-158225000I-218750J0D01*
G01*
X199318750Y-158225000D01*
G75*
G02*
X199100000Y-158006250I0J218750D01*
G01*
G37*
G36*
G01*
X197525000Y-158006250D02*
X197525000Y-157493750D01*
G75*
G02*
X197743750Y-157275000I218750J0D01*
G01*
X198181250Y-157275000D01*
G75*
G02*
X198400000Y-157493750I0J-218750D01*
G01*
X198400000Y-158006250D01*
G75*
G02*
X198181250Y-158225000I-218750J0D01*
G01*
X197743750Y-158225000D01*
G75*
G02*
X197525000Y-158006250I0J218750D01*
G01*
G37*
G36*
G01*
X199100000Y-156006250D02*
X199100000Y-155493750D01*
G75*
G02*
X199318750Y-155275000I218750J0D01*
G01*
X199756250Y-155275000D01*
G75*
G02*
X199975000Y-155493750I0J-218750D01*
G01*
X199975000Y-156006250D01*
G75*
G02*
X199756250Y-156225000I-218750J0D01*
G01*
X199318750Y-156225000D01*
G75*
G02*
X199100000Y-156006250I0J218750D01*
G01*
G37*
G36*
G01*
X197525000Y-156006250D02*
X197525000Y-155493750D01*
G75*
G02*
X197743750Y-155275000I218750J0D01*
G01*
X198181250Y-155275000D01*
G75*
G02*
X198400000Y-155493750I0J-218750D01*
G01*
X198400000Y-156006250D01*
G75*
G02*
X198181250Y-156225000I-218750J0D01*
G01*
X197743750Y-156225000D01*
G75*
G02*
X197525000Y-156006250I0J218750D01*
G01*
G37*
G36*
G01*
X199100000Y-154006250D02*
X199100000Y-153493750D01*
G75*
G02*
X199318750Y-153275000I218750J0D01*
G01*
X199756250Y-153275000D01*
G75*
G02*
X199975000Y-153493750I0J-218750D01*
G01*
X199975000Y-154006250D01*
G75*
G02*
X199756250Y-154225000I-218750J0D01*
G01*
X199318750Y-154225000D01*
G75*
G02*
X199100000Y-154006250I0J218750D01*
G01*
G37*
G36*
G01*
X197525000Y-154006250D02*
X197525000Y-153493750D01*
G75*
G02*
X197743750Y-153275000I218750J0D01*
G01*
X198181250Y-153275000D01*
G75*
G02*
X198400000Y-153493750I0J-218750D01*
G01*
X198400000Y-154006250D01*
G75*
G02*
X198181250Y-154225000I-218750J0D01*
G01*
X197743750Y-154225000D01*
G75*
G02*
X197525000Y-154006250I0J218750D01*
G01*
G37*
G36*
G01*
X211756250Y-168900000D02*
X211243750Y-168900000D01*
G75*
G02*
X211025000Y-168681250I0J218750D01*
G01*
X211025000Y-168243750D01*
G75*
G02*
X211243750Y-168025000I218750J0D01*
G01*
X211756250Y-168025000D01*
G75*
G02*
X211975000Y-168243750I0J-218750D01*
G01*
X211975000Y-168681250D01*
G75*
G02*
X211756250Y-168900000I-218750J0D01*
G01*
G37*
G36*
G01*
X211756250Y-170475000D02*
X211243750Y-170475000D01*
G75*
G02*
X211025000Y-170256250I0J218750D01*
G01*
X211025000Y-169818750D01*
G75*
G02*
X211243750Y-169600000I218750J0D01*
G01*
X211756250Y-169600000D01*
G75*
G02*
X211975000Y-169818750I0J-218750D01*
G01*
X211975000Y-170256250D01*
G75*
G02*
X211756250Y-170475000I-218750J0D01*
G01*
G37*
G36*
G01*
X209756250Y-168900000D02*
X209243750Y-168900000D01*
G75*
G02*
X209025000Y-168681250I0J218750D01*
G01*
X209025000Y-168243750D01*
G75*
G02*
X209243750Y-168025000I218750J0D01*
G01*
X209756250Y-168025000D01*
G75*
G02*
X209975000Y-168243750I0J-218750D01*
G01*
X209975000Y-168681250D01*
G75*
G02*
X209756250Y-168900000I-218750J0D01*
G01*
G37*
G36*
G01*
X209756250Y-170475000D02*
X209243750Y-170475000D01*
G75*
G02*
X209025000Y-170256250I0J218750D01*
G01*
X209025000Y-169818750D01*
G75*
G02*
X209243750Y-169600000I218750J0D01*
G01*
X209756250Y-169600000D01*
G75*
G02*
X209975000Y-169818750I0J-218750D01*
G01*
X209975000Y-170256250D01*
G75*
G02*
X209756250Y-170475000I-218750J0D01*
G01*
G37*
G36*
G01*
X207756250Y-168900000D02*
X207243750Y-168900000D01*
G75*
G02*
X207025000Y-168681250I0J218750D01*
G01*
X207025000Y-168243750D01*
G75*
G02*
X207243750Y-168025000I218750J0D01*
G01*
X207756250Y-168025000D01*
G75*
G02*
X207975000Y-168243750I0J-218750D01*
G01*
X207975000Y-168681250D01*
G75*
G02*
X207756250Y-168900000I-218750J0D01*
G01*
G37*
G36*
G01*
X207756250Y-170475000D02*
X207243750Y-170475000D01*
G75*
G02*
X207025000Y-170256250I0J218750D01*
G01*
X207025000Y-169818750D01*
G75*
G02*
X207243750Y-169600000I218750J0D01*
G01*
X207756250Y-169600000D01*
G75*
G02*
X207975000Y-169818750I0J-218750D01*
G01*
X207975000Y-170256250D01*
G75*
G02*
X207756250Y-170475000I-218750J0D01*
G01*
G37*
G36*
G01*
X205756250Y-168900000D02*
X205243750Y-168900000D01*
G75*
G02*
X205025000Y-168681250I0J218750D01*
G01*
X205025000Y-168243750D01*
G75*
G02*
X205243750Y-168025000I218750J0D01*
G01*
X205756250Y-168025000D01*
G75*
G02*
X205975000Y-168243750I0J-218750D01*
G01*
X205975000Y-168681250D01*
G75*
G02*
X205756250Y-168900000I-218750J0D01*
G01*
G37*
G36*
G01*
X205756250Y-170475000D02*
X205243750Y-170475000D01*
G75*
G02*
X205025000Y-170256250I0J218750D01*
G01*
X205025000Y-169818750D01*
G75*
G02*
X205243750Y-169600000I218750J0D01*
G01*
X205756250Y-169600000D01*
G75*
G02*
X205975000Y-169818750I0J-218750D01*
G01*
X205975000Y-170256250D01*
G75*
G02*
X205756250Y-170475000I-218750J0D01*
G01*
G37*
G36*
G01*
X199100000Y-168006250D02*
X199100000Y-167493750D01*
G75*
G02*
X199318750Y-167275000I218750J0D01*
G01*
X199756250Y-167275000D01*
G75*
G02*
X199975000Y-167493750I0J-218750D01*
G01*
X199975000Y-168006250D01*
G75*
G02*
X199756250Y-168225000I-218750J0D01*
G01*
X199318750Y-168225000D01*
G75*
G02*
X199100000Y-168006250I0J218750D01*
G01*
G37*
G36*
G01*
X197525000Y-168006250D02*
X197525000Y-167493750D01*
G75*
G02*
X197743750Y-167275000I218750J0D01*
G01*
X198181250Y-167275000D01*
G75*
G02*
X198400000Y-167493750I0J-218750D01*
G01*
X198400000Y-168006250D01*
G75*
G02*
X198181250Y-168225000I-218750J0D01*
G01*
X197743750Y-168225000D01*
G75*
G02*
X197525000Y-168006250I0J218750D01*
G01*
G37*
G36*
G01*
X199100000Y-166006250D02*
X199100000Y-165493750D01*
G75*
G02*
X199318750Y-165275000I218750J0D01*
G01*
X199756250Y-165275000D01*
G75*
G02*
X199975000Y-165493750I0J-218750D01*
G01*
X199975000Y-166006250D01*
G75*
G02*
X199756250Y-166225000I-218750J0D01*
G01*
X199318750Y-166225000D01*
G75*
G02*
X199100000Y-166006250I0J218750D01*
G01*
G37*
G36*
G01*
X197525000Y-166006250D02*
X197525000Y-165493750D01*
G75*
G02*
X197743750Y-165275000I218750J0D01*
G01*
X198181250Y-165275000D01*
G75*
G02*
X198400000Y-165493750I0J-218750D01*
G01*
X198400000Y-166006250D01*
G75*
G02*
X198181250Y-166225000I-218750J0D01*
G01*
X197743750Y-166225000D01*
G75*
G02*
X197525000Y-166006250I0J218750D01*
G01*
G37*
G36*
G01*
X215900000Y-165493750D02*
X215900000Y-166006250D01*
G75*
G02*
X215681250Y-166225000I-218750J0D01*
G01*
X215243750Y-166225000D01*
G75*
G02*
X215025000Y-166006250I0J218750D01*
G01*
X215025000Y-165493750D01*
G75*
G02*
X215243750Y-165275000I218750J0D01*
G01*
X215681250Y-165275000D01*
G75*
G02*
X215900000Y-165493750I0J-218750D01*
G01*
G37*
G36*
G01*
X217475000Y-165493750D02*
X217475000Y-166006250D01*
G75*
G02*
X217256250Y-166225000I-218750J0D01*
G01*
X216818750Y-166225000D01*
G75*
G02*
X216600000Y-166006250I0J218750D01*
G01*
X216600000Y-165493750D01*
G75*
G02*
X216818750Y-165275000I218750J0D01*
G01*
X217256250Y-165275000D01*
G75*
G02*
X217475000Y-165493750I0J-218750D01*
G01*
G37*
G36*
G01*
X215900000Y-163493750D02*
X215900000Y-164006250D01*
G75*
G02*
X215681250Y-164225000I-218750J0D01*
G01*
X215243750Y-164225000D01*
G75*
G02*
X215025000Y-164006250I0J218750D01*
G01*
X215025000Y-163493750D01*
G75*
G02*
X215243750Y-163275000I218750J0D01*
G01*
X215681250Y-163275000D01*
G75*
G02*
X215900000Y-163493750I0J-218750D01*
G01*
G37*
G36*
G01*
X217475000Y-163493750D02*
X217475000Y-164006250D01*
G75*
G02*
X217256250Y-164225000I-218750J0D01*
G01*
X216818750Y-164225000D01*
G75*
G02*
X216600000Y-164006250I0J218750D01*
G01*
X216600000Y-163493750D01*
G75*
G02*
X216818750Y-163275000I218750J0D01*
G01*
X217256250Y-163275000D01*
G75*
G02*
X217475000Y-163493750I0J-218750D01*
G01*
G37*
G36*
G01*
X209756250Y-152150000D02*
X209243750Y-152150000D01*
G75*
G02*
X209025000Y-151931250I0J218750D01*
G01*
X209025000Y-151493750D01*
G75*
G02*
X209243750Y-151275000I218750J0D01*
G01*
X209756250Y-151275000D01*
G75*
G02*
X209975000Y-151493750I0J-218750D01*
G01*
X209975000Y-151931250D01*
G75*
G02*
X209756250Y-152150000I-218750J0D01*
G01*
G37*
G36*
G01*
X209756250Y-153725000D02*
X209243750Y-153725000D01*
G75*
G02*
X209025000Y-153506250I0J218750D01*
G01*
X209025000Y-153068750D01*
G75*
G02*
X209243750Y-152850000I218750J0D01*
G01*
X209756250Y-152850000D01*
G75*
G02*
X209975000Y-153068750I0J-218750D01*
G01*
X209975000Y-153506250D01*
G75*
G02*
X209756250Y-153725000I-218750J0D01*
G01*
G37*
G36*
G01*
X214150000Y-155493750D02*
X214150000Y-156006250D01*
G75*
G02*
X213931250Y-156225000I-218750J0D01*
G01*
X213493750Y-156225000D01*
G75*
G02*
X213275000Y-156006250I0J218750D01*
G01*
X213275000Y-155493750D01*
G75*
G02*
X213493750Y-155275000I218750J0D01*
G01*
X213931250Y-155275000D01*
G75*
G02*
X214150000Y-155493750I0J-218750D01*
G01*
G37*
G36*
G01*
X215725000Y-155493750D02*
X215725000Y-156006250D01*
G75*
G02*
X215506250Y-156225000I-218750J0D01*
G01*
X215068750Y-156225000D01*
G75*
G02*
X214850000Y-156006250I0J218750D01*
G01*
X214850000Y-155493750D01*
G75*
G02*
X215068750Y-155275000I218750J0D01*
G01*
X215506250Y-155275000D01*
G75*
G02*
X215725000Y-155493750I0J-218750D01*
G01*
G37*
D15*
X160250000Y-66750000D03*
X161200000Y-68750000D03*
X159300000Y-68750000D03*
G36*
G01*
X204300000Y-150250000D02*
X203200000Y-150250000D01*
G75*
G02*
X202950000Y-150000000I0J250000D01*
G01*
X202950000Y-147900000D01*
G75*
G02*
X203200000Y-147650000I250000J0D01*
G01*
X204300000Y-147650000D01*
G75*
G02*
X204550000Y-147900000I0J-250000D01*
G01*
X204550000Y-150000000D01*
G75*
G02*
X204300000Y-150250000I-250000J0D01*
G01*
G37*
G36*
G01*
X204300000Y-153850000D02*
X203200000Y-153850000D01*
G75*
G02*
X202950000Y-153600000I0J250000D01*
G01*
X202950000Y-151500000D01*
G75*
G02*
X203200000Y-151250000I250000J0D01*
G01*
X204300000Y-151250000D01*
G75*
G02*
X204550000Y-151500000I0J-250000D01*
G01*
X204550000Y-153600000D01*
G75*
G02*
X204300000Y-153850000I-250000J0D01*
G01*
G37*
G36*
G01*
X152850000Y-66256250D02*
X152850000Y-65743750D01*
G75*
G02*
X153068750Y-65525000I218750J0D01*
G01*
X153506250Y-65525000D01*
G75*
G02*
X153725000Y-65743750I0J-218750D01*
G01*
X153725000Y-66256250D01*
G75*
G02*
X153506250Y-66475000I-218750J0D01*
G01*
X153068750Y-66475000D01*
G75*
G02*
X152850000Y-66256250I0J218750D01*
G01*
G37*
G36*
G01*
X151275000Y-66256250D02*
X151275000Y-65743750D01*
G75*
G02*
X151493750Y-65525000I218750J0D01*
G01*
X151931250Y-65525000D01*
G75*
G02*
X152150000Y-65743750I0J-218750D01*
G01*
X152150000Y-66256250D01*
G75*
G02*
X151931250Y-66475000I-218750J0D01*
G01*
X151493750Y-66475000D01*
G75*
G02*
X151275000Y-66256250I0J218750D01*
G01*
G37*
G36*
G01*
X211756250Y-152150000D02*
X211243750Y-152150000D01*
G75*
G02*
X211025000Y-151931250I0J218750D01*
G01*
X211025000Y-151493750D01*
G75*
G02*
X211243750Y-151275000I218750J0D01*
G01*
X211756250Y-151275000D01*
G75*
G02*
X211975000Y-151493750I0J-218750D01*
G01*
X211975000Y-151931250D01*
G75*
G02*
X211756250Y-152150000I-218750J0D01*
G01*
G37*
G36*
G01*
X211756250Y-153725000D02*
X211243750Y-153725000D01*
G75*
G02*
X211025000Y-153506250I0J218750D01*
G01*
X211025000Y-153068750D01*
G75*
G02*
X211243750Y-152850000I218750J0D01*
G01*
X211756250Y-152850000D01*
G75*
G02*
X211975000Y-153068750I0J-218750D01*
G01*
X211975000Y-153506250D01*
G75*
G02*
X211756250Y-153725000I-218750J0D01*
G01*
G37*
G36*
G01*
X217300000Y-150500000D02*
X216200000Y-150500000D01*
G75*
G02*
X215950000Y-150250000I0J250000D01*
G01*
X215950000Y-148150000D01*
G75*
G02*
X216200000Y-147900000I250000J0D01*
G01*
X217300000Y-147900000D01*
G75*
G02*
X217550000Y-148150000I0J-250000D01*
G01*
X217550000Y-150250000D01*
G75*
G02*
X217300000Y-150500000I-250000J0D01*
G01*
G37*
G36*
G01*
X217300000Y-154100000D02*
X216200000Y-154100000D01*
G75*
G02*
X215950000Y-153850000I0J250000D01*
G01*
X215950000Y-151750000D01*
G75*
G02*
X216200000Y-151500000I250000J0D01*
G01*
X217300000Y-151500000D01*
G75*
G02*
X217550000Y-151750000I0J-250000D01*
G01*
X217550000Y-153850000D01*
G75*
G02*
X217300000Y-154100000I-250000J0D01*
G01*
G37*
G36*
G01*
X214850000Y-158006250D02*
X214850000Y-157493750D01*
G75*
G02*
X215068750Y-157275000I218750J0D01*
G01*
X215506250Y-157275000D01*
G75*
G02*
X215725000Y-157493750I0J-218750D01*
G01*
X215725000Y-158006250D01*
G75*
G02*
X215506250Y-158225000I-218750J0D01*
G01*
X215068750Y-158225000D01*
G75*
G02*
X214850000Y-158006250I0J218750D01*
G01*
G37*
G36*
G01*
X213275000Y-158006250D02*
X213275000Y-157493750D01*
G75*
G02*
X213493750Y-157275000I218750J0D01*
G01*
X213931250Y-157275000D01*
G75*
G02*
X214150000Y-157493750I0J-218750D01*
G01*
X214150000Y-158006250D01*
G75*
G02*
X213931250Y-158225000I-218750J0D01*
G01*
X213493750Y-158225000D01*
G75*
G02*
X213275000Y-158006250I0J218750D01*
G01*
G37*
M02*
