G04 #@! TF.GenerationSoftware,KiCad,Pcbnew,(5.1.6)-1*
G04 #@! TF.CreationDate,2020-10-27T15:14:38-03:00*
G04 #@! TF.ProjectId,PanelFrontal,50616e65-6c46-4726-9f6e-74616c2e6b69,v1.0*
G04 #@! TF.SameCoordinates,Original*
G04 #@! TF.FileFunction,Legend,Top*
G04 #@! TF.FilePolarity,Positive*
%FSLAX46Y46*%
G04 Gerber Fmt 4.6, Leading zero omitted, Abs format (unit mm)*
G04 Created by KiCad (PCBNEW (5.1.6)-1) date 2020-10-27 15:14:38*
%MOMM*%
%LPD*%
G01*
G04 APERTURE LIST*
%ADD10C,0.100000*%
%ADD11C,0.200000*%
%ADD12C,0.120000*%
%ADD13C,0.050000*%
%ADD14C,0.150000*%
%ADD15C,0.250000*%
%ADD16C,0.280000*%
G04 APERTURE END LIST*
D10*
G36*
X141000000Y-184250000D02*
G01*
X122500000Y-184250000D01*
X122500000Y-180250000D01*
X141000000Y-180250000D01*
X141000000Y-184250000D01*
G37*
X141000000Y-184250000D02*
X122500000Y-184250000D01*
X122500000Y-180250000D01*
X141000000Y-180250000D01*
X141000000Y-184250000D01*
D11*
X122820476Y-185416666D02*
X123296666Y-185416666D01*
X122725238Y-185702380D02*
X123058571Y-184702380D01*
X123391904Y-185702380D01*
X123677619Y-185654761D02*
X123772857Y-185702380D01*
X123963333Y-185702380D01*
X124058571Y-185654761D01*
X124106190Y-185559523D01*
X124106190Y-185511904D01*
X124058571Y-185416666D01*
X123963333Y-185369047D01*
X123820476Y-185369047D01*
X123725238Y-185321428D01*
X123677619Y-185226190D01*
X123677619Y-185178571D01*
X123725238Y-185083333D01*
X123820476Y-185035714D01*
X123963333Y-185035714D01*
X124058571Y-185083333D01*
X124487142Y-185654761D02*
X124582380Y-185702380D01*
X124772857Y-185702380D01*
X124868095Y-185654761D01*
X124915714Y-185559523D01*
X124915714Y-185511904D01*
X124868095Y-185416666D01*
X124772857Y-185369047D01*
X124630000Y-185369047D01*
X124534761Y-185321428D01*
X124487142Y-185226190D01*
X124487142Y-185178571D01*
X124534761Y-185083333D01*
X124630000Y-185035714D01*
X124772857Y-185035714D01*
X124868095Y-185083333D01*
X125249047Y-185035714D02*
X125487142Y-185702380D01*
X125725238Y-185035714D02*
X125487142Y-185702380D01*
X125391904Y-185940476D01*
X125344285Y-185988095D01*
X125249047Y-186035714D01*
X126106190Y-185607142D02*
X126153809Y-185654761D01*
X126106190Y-185702380D01*
X126058571Y-185654761D01*
X126106190Y-185607142D01*
X126106190Y-185702380D01*
X126106190Y-185083333D02*
X126153809Y-185130952D01*
X126106190Y-185178571D01*
X126058571Y-185130952D01*
X126106190Y-185083333D01*
X126106190Y-185178571D01*
D10*
G36*
X141000000Y-190250000D02*
G01*
X122500000Y-190250000D01*
X122500000Y-186250000D01*
X141000000Y-186250000D01*
X141000000Y-190250000D01*
G37*
X141000000Y-190250000D02*
X122500000Y-190250000D01*
X122500000Y-186250000D01*
X141000000Y-186250000D01*
X141000000Y-190250000D01*
D11*
X122820476Y-179404761D02*
X122963333Y-179452380D01*
X123201428Y-179452380D01*
X123296666Y-179404761D01*
X123344285Y-179357142D01*
X123391904Y-179261904D01*
X123391904Y-179166666D01*
X123344285Y-179071428D01*
X123296666Y-179023809D01*
X123201428Y-178976190D01*
X123010952Y-178928571D01*
X122915714Y-178880952D01*
X122868095Y-178833333D01*
X122820476Y-178738095D01*
X122820476Y-178642857D01*
X122868095Y-178547619D01*
X122915714Y-178500000D01*
X123010952Y-178452380D01*
X123249047Y-178452380D01*
X123391904Y-178500000D01*
X124534761Y-178404761D02*
X123677619Y-179690476D01*
X124868095Y-179452380D02*
X124868095Y-178452380D01*
X125439523Y-179452380D01*
X125439523Y-178452380D01*
X125915714Y-179357142D02*
X125963333Y-179404761D01*
X125915714Y-179452380D01*
X125868095Y-179404761D01*
X125915714Y-179357142D01*
X125915714Y-179452380D01*
X125915714Y-178833333D02*
X125963333Y-178880952D01*
X125915714Y-178928571D01*
X125868095Y-178880952D01*
X125915714Y-178833333D01*
X125915714Y-178928571D01*
X107666666Y-182052380D02*
X107666666Y-181052380D01*
X107666666Y-181528571D02*
X108238095Y-181528571D01*
X108238095Y-182052380D02*
X108238095Y-181052380D01*
X109095238Y-182004761D02*
X109000000Y-182052380D01*
X108809523Y-182052380D01*
X108714285Y-182004761D01*
X108666666Y-181909523D01*
X108666666Y-181528571D01*
X108714285Y-181433333D01*
X108809523Y-181385714D01*
X109000000Y-181385714D01*
X109095238Y-181433333D01*
X109142857Y-181528571D01*
X109142857Y-181623809D01*
X108666666Y-181719047D01*
X109571428Y-182052380D02*
X109571428Y-181385714D01*
X109571428Y-181576190D02*
X109619047Y-181480952D01*
X109666666Y-181433333D01*
X109761904Y-181385714D01*
X109857142Y-181385714D01*
X110190476Y-181385714D02*
X110190476Y-182052380D01*
X110190476Y-181480952D02*
X110238095Y-181433333D01*
X110333333Y-181385714D01*
X110476190Y-181385714D01*
X110571428Y-181433333D01*
X110619047Y-181528571D01*
X110619047Y-182052380D01*
X111523809Y-182052380D02*
X111523809Y-181528571D01*
X111476190Y-181433333D01*
X111380952Y-181385714D01*
X111190476Y-181385714D01*
X111095238Y-181433333D01*
X111523809Y-182004761D02*
X111428571Y-182052380D01*
X111190476Y-182052380D01*
X111095238Y-182004761D01*
X111047619Y-181909523D01*
X111047619Y-181814285D01*
X111095238Y-181719047D01*
X111190476Y-181671428D01*
X111428571Y-181671428D01*
X111523809Y-181623809D01*
X112000000Y-181385714D02*
X112000000Y-182052380D01*
X112000000Y-181480952D02*
X112047619Y-181433333D01*
X112142857Y-181385714D01*
X112285714Y-181385714D01*
X112380952Y-181433333D01*
X112428571Y-181528571D01*
X112428571Y-182052380D01*
X113666666Y-182052380D02*
X113666666Y-181052380D01*
X114000000Y-181766666D01*
X114333333Y-181052380D01*
X114333333Y-182052380D01*
X114809523Y-181957142D02*
X114857142Y-182004761D01*
X114809523Y-182052380D01*
X114761904Y-182004761D01*
X114809523Y-181957142D01*
X114809523Y-182052380D01*
X115904761Y-181052380D02*
X116476190Y-181052380D01*
X116190476Y-182052380D02*
X116190476Y-181052380D01*
X116809523Y-182052380D02*
X116809523Y-181385714D01*
X116809523Y-181576190D02*
X116857142Y-181480952D01*
X116904761Y-181433333D01*
X117000000Y-181385714D01*
X117095238Y-181385714D01*
X117857142Y-182052380D02*
X117857142Y-181528571D01*
X117809523Y-181433333D01*
X117714285Y-181385714D01*
X117523809Y-181385714D01*
X117428571Y-181433333D01*
X117857142Y-182004761D02*
X117761904Y-182052380D01*
X117523809Y-182052380D01*
X117428571Y-182004761D01*
X117380952Y-181909523D01*
X117380952Y-181814285D01*
X117428571Y-181719047D01*
X117523809Y-181671428D01*
X117761904Y-181671428D01*
X117857142Y-181623809D01*
X118238095Y-181385714D02*
X118476190Y-182052380D01*
X118714285Y-181385714D01*
X119523809Y-182052380D02*
X119523809Y-181528571D01*
X119476190Y-181433333D01*
X119380952Y-181385714D01*
X119190476Y-181385714D01*
X119095238Y-181433333D01*
X119523809Y-182004761D02*
X119428571Y-182052380D01*
X119190476Y-182052380D01*
X119095238Y-182004761D01*
X119047619Y-181909523D01*
X119047619Y-181814285D01*
X119095238Y-181719047D01*
X119190476Y-181671428D01*
X119428571Y-181671428D01*
X119523809Y-181623809D01*
X120428571Y-182052380D02*
X120428571Y-181052380D01*
X120428571Y-182004761D02*
X120333333Y-182052380D01*
X120142857Y-182052380D01*
X120047619Y-182004761D01*
X120000000Y-181957142D01*
X119952380Y-181861904D01*
X119952380Y-181576190D01*
X120000000Y-181480952D01*
X120047619Y-181433333D01*
X120142857Y-181385714D01*
X120333333Y-181385714D01*
X120428571Y-181433333D01*
X121047619Y-182052380D02*
X120952380Y-182004761D01*
X120904761Y-181957142D01*
X120857142Y-181861904D01*
X120857142Y-181576190D01*
X120904761Y-181480952D01*
X120952380Y-181433333D01*
X121047619Y-181385714D01*
X121190476Y-181385714D01*
X121285714Y-181433333D01*
X121333333Y-181480952D01*
X121380952Y-181576190D01*
X121380952Y-181861904D01*
X121333333Y-181957142D01*
X121285714Y-182004761D01*
X121190476Y-182052380D01*
X121047619Y-182052380D01*
X111071428Y-183752380D02*
X110500000Y-183752380D01*
X110785714Y-183752380D02*
X110785714Y-182752380D01*
X110690476Y-182895238D01*
X110595238Y-182990476D01*
X110500000Y-183038095D01*
X111404761Y-182752380D02*
X112023809Y-182752380D01*
X111690476Y-183133333D01*
X111833333Y-183133333D01*
X111928571Y-183180952D01*
X111976190Y-183228571D01*
X112023809Y-183323809D01*
X112023809Y-183561904D01*
X111976190Y-183657142D01*
X111928571Y-183704761D01*
X111833333Y-183752380D01*
X111547619Y-183752380D01*
X111452380Y-183704761D01*
X111404761Y-183657142D01*
X112976190Y-183752380D02*
X112404761Y-183752380D01*
X112690476Y-183752380D02*
X112690476Y-182752380D01*
X112595238Y-182895238D01*
X112500000Y-182990476D01*
X112404761Y-183038095D01*
X113404761Y-183657142D02*
X113452380Y-183704761D01*
X113404761Y-183752380D01*
X113357142Y-183704761D01*
X113404761Y-183657142D01*
X113404761Y-183752380D01*
X114309523Y-183085714D02*
X114309523Y-183752380D01*
X114071428Y-182704761D02*
X113833333Y-183419047D01*
X114452380Y-183419047D01*
X115309523Y-182752380D02*
X114833333Y-182752380D01*
X114785714Y-183228571D01*
X114833333Y-183180952D01*
X114928571Y-183133333D01*
X115166666Y-183133333D01*
X115261904Y-183180952D01*
X115309523Y-183228571D01*
X115357142Y-183323809D01*
X115357142Y-183561904D01*
X115309523Y-183657142D01*
X115261904Y-183704761D01*
X115166666Y-183752380D01*
X114928571Y-183752380D01*
X114833333Y-183704761D01*
X114785714Y-183657142D01*
X115690476Y-182752380D02*
X116309523Y-182752380D01*
X115976190Y-183133333D01*
X116119047Y-183133333D01*
X116214285Y-183180952D01*
X116261904Y-183228571D01*
X116309523Y-183323809D01*
X116309523Y-183561904D01*
X116261904Y-183657142D01*
X116214285Y-183704761D01*
X116119047Y-183752380D01*
X115833333Y-183752380D01*
X115738095Y-183704761D01*
X115690476Y-183657142D01*
X116738095Y-183371428D02*
X117500000Y-183371428D01*
X118500000Y-183752380D02*
X117928571Y-183752380D01*
X118214285Y-183752380D02*
X118214285Y-182752380D01*
X118119047Y-182895238D01*
X118023809Y-182990476D01*
X117928571Y-183038095D01*
X112904761Y-185452380D02*
X112571428Y-184976190D01*
X112333333Y-185452380D02*
X112333333Y-184452380D01*
X112714285Y-184452380D01*
X112809523Y-184500000D01*
X112857142Y-184547619D01*
X112904761Y-184642857D01*
X112904761Y-184785714D01*
X112857142Y-184880952D01*
X112809523Y-184928571D01*
X112714285Y-184976190D01*
X112333333Y-184976190D01*
X113857142Y-185452380D02*
X113285714Y-185452380D01*
X113571428Y-185452380D02*
X113571428Y-184452380D01*
X113476190Y-184595238D01*
X113380952Y-184690476D01*
X113285714Y-184738095D01*
X114476190Y-184452380D02*
X114571428Y-184452380D01*
X114666666Y-184500000D01*
X114714285Y-184547619D01*
X114761904Y-184642857D01*
X114809523Y-184833333D01*
X114809523Y-185071428D01*
X114761904Y-185261904D01*
X114714285Y-185357142D01*
X114666666Y-185404761D01*
X114571428Y-185452380D01*
X114476190Y-185452380D01*
X114380952Y-185404761D01*
X114333333Y-185357142D01*
X114285714Y-185261904D01*
X114238095Y-185071428D01*
X114238095Y-184833333D01*
X114285714Y-184642857D01*
X114333333Y-184547619D01*
X114380952Y-184500000D01*
X114476190Y-184452380D01*
X115142857Y-184452380D02*
X115761904Y-184452380D01*
X115428571Y-184833333D01*
X115571428Y-184833333D01*
X115666666Y-184880952D01*
X115714285Y-184928571D01*
X115761904Y-185023809D01*
X115761904Y-185261904D01*
X115714285Y-185357142D01*
X115666666Y-185404761D01*
X115571428Y-185452380D01*
X115285714Y-185452380D01*
X115190476Y-185404761D01*
X115142857Y-185357142D01*
X116714285Y-185452380D02*
X116142857Y-185452380D01*
X116428571Y-185452380D02*
X116428571Y-184452380D01*
X116333333Y-184595238D01*
X116238095Y-184690476D01*
X116142857Y-184738095D01*
X110238095Y-186152380D02*
X110809523Y-186152380D01*
X110523809Y-187152380D02*
X110523809Y-186152380D01*
X111142857Y-187152380D02*
X111142857Y-186152380D01*
X111523809Y-186152380D01*
X111619047Y-186200000D01*
X111666666Y-186247619D01*
X111714285Y-186342857D01*
X111714285Y-186485714D01*
X111666666Y-186580952D01*
X111619047Y-186628571D01*
X111523809Y-186676190D01*
X111142857Y-186676190D01*
X112047619Y-186152380D02*
X112666666Y-186152380D01*
X112333333Y-186533333D01*
X112476190Y-186533333D01*
X112571428Y-186580952D01*
X112619047Y-186628571D01*
X112666666Y-186723809D01*
X112666666Y-186961904D01*
X112619047Y-187057142D01*
X112571428Y-187104761D01*
X112476190Y-187152380D01*
X112190476Y-187152380D01*
X112095238Y-187104761D01*
X112047619Y-187057142D01*
X113857142Y-186771428D02*
X114619047Y-186771428D01*
X115714285Y-186152380D02*
X116047619Y-187152380D01*
X116380952Y-186152380D01*
X117238095Y-187152380D02*
X116666666Y-187152380D01*
X116952380Y-187152380D02*
X116952380Y-186152380D01*
X116857142Y-186295238D01*
X116761904Y-186390476D01*
X116666666Y-186438095D01*
X117666666Y-187057142D02*
X117714285Y-187104761D01*
X117666666Y-187152380D01*
X117619047Y-187104761D01*
X117666666Y-187057142D01*
X117666666Y-187152380D01*
X118333333Y-186152380D02*
X118428571Y-186152380D01*
X118523809Y-186200000D01*
X118571428Y-186247619D01*
X118619047Y-186342857D01*
X118666666Y-186533333D01*
X118666666Y-186771428D01*
X118619047Y-186961904D01*
X118571428Y-187057142D01*
X118523809Y-187104761D01*
X118428571Y-187152380D01*
X118333333Y-187152380D01*
X118238095Y-187104761D01*
X118190476Y-187057142D01*
X118142857Y-186961904D01*
X118095238Y-186771428D01*
X118095238Y-186533333D01*
X118142857Y-186342857D01*
X118190476Y-186247619D01*
X118238095Y-186200000D01*
X118333333Y-186152380D01*
X109761904Y-187852380D02*
X109952380Y-187852380D01*
X110047619Y-187900000D01*
X110142857Y-187995238D01*
X110190476Y-188185714D01*
X110190476Y-188519047D01*
X110142857Y-188709523D01*
X110047619Y-188804761D01*
X109952380Y-188852380D01*
X109761904Y-188852380D01*
X109666666Y-188804761D01*
X109571428Y-188709523D01*
X109523809Y-188519047D01*
X109523809Y-188185714D01*
X109571428Y-187995238D01*
X109666666Y-187900000D01*
X109761904Y-187852380D01*
X111047619Y-188804761D02*
X110952380Y-188852380D01*
X110761904Y-188852380D01*
X110666666Y-188804761D01*
X110619047Y-188757142D01*
X110571428Y-188661904D01*
X110571428Y-188376190D01*
X110619047Y-188280952D01*
X110666666Y-188233333D01*
X110761904Y-188185714D01*
X110952380Y-188185714D01*
X111047619Y-188233333D01*
X111333333Y-188185714D02*
X111714285Y-188185714D01*
X111476190Y-187852380D02*
X111476190Y-188709523D01*
X111523809Y-188804761D01*
X111619047Y-188852380D01*
X111714285Y-188852380D01*
X112476190Y-188185714D02*
X112476190Y-188852380D01*
X112047619Y-188185714D02*
X112047619Y-188709523D01*
X112095238Y-188804761D01*
X112190476Y-188852380D01*
X112333333Y-188852380D01*
X112428571Y-188804761D01*
X112476190Y-188757142D01*
X112952380Y-188852380D02*
X112952380Y-187852380D01*
X112952380Y-188233333D02*
X113047619Y-188185714D01*
X113238095Y-188185714D01*
X113333333Y-188233333D01*
X113380952Y-188280952D01*
X113428571Y-188376190D01*
X113428571Y-188661904D01*
X113380952Y-188757142D01*
X113333333Y-188804761D01*
X113238095Y-188852380D01*
X113047619Y-188852380D01*
X112952380Y-188804761D01*
X113857142Y-188852380D02*
X113857142Y-188185714D01*
X113857142Y-188376190D02*
X113904761Y-188280952D01*
X113952380Y-188233333D01*
X114047619Y-188185714D01*
X114142857Y-188185714D01*
X114857142Y-188804761D02*
X114761904Y-188852380D01*
X114571428Y-188852380D01*
X114476190Y-188804761D01*
X114428571Y-188709523D01*
X114428571Y-188328571D01*
X114476190Y-188233333D01*
X114571428Y-188185714D01*
X114761904Y-188185714D01*
X114857142Y-188233333D01*
X114904761Y-188328571D01*
X114904761Y-188423809D01*
X114428571Y-188519047D01*
X116047619Y-187947619D02*
X116095238Y-187900000D01*
X116190476Y-187852380D01*
X116428571Y-187852380D01*
X116523809Y-187900000D01*
X116571428Y-187947619D01*
X116619047Y-188042857D01*
X116619047Y-188138095D01*
X116571428Y-188280952D01*
X116000000Y-188852380D01*
X116619047Y-188852380D01*
X117238095Y-187852380D02*
X117333333Y-187852380D01*
X117428571Y-187900000D01*
X117476190Y-187947619D01*
X117523809Y-188042857D01*
X117571428Y-188233333D01*
X117571428Y-188471428D01*
X117523809Y-188661904D01*
X117476190Y-188757142D01*
X117428571Y-188804761D01*
X117333333Y-188852380D01*
X117238095Y-188852380D01*
X117142857Y-188804761D01*
X117095238Y-188757142D01*
X117047619Y-188661904D01*
X117000000Y-188471428D01*
X117000000Y-188233333D01*
X117047619Y-188042857D01*
X117095238Y-187947619D01*
X117142857Y-187900000D01*
X117238095Y-187852380D01*
X117952380Y-187947619D02*
X118000000Y-187900000D01*
X118095238Y-187852380D01*
X118333333Y-187852380D01*
X118428571Y-187900000D01*
X118476190Y-187947619D01*
X118523809Y-188042857D01*
X118523809Y-188138095D01*
X118476190Y-188280952D01*
X117904761Y-188852380D01*
X118523809Y-188852380D01*
X119142857Y-187852380D02*
X119238095Y-187852380D01*
X119333333Y-187900000D01*
X119380952Y-187947619D01*
X119428571Y-188042857D01*
X119476190Y-188233333D01*
X119476190Y-188471428D01*
X119428571Y-188661904D01*
X119380952Y-188757142D01*
X119333333Y-188804761D01*
X119238095Y-188852380D01*
X119142857Y-188852380D01*
X119047619Y-188804761D01*
X119000000Y-188757142D01*
X118952380Y-188661904D01*
X118904761Y-188471428D01*
X118904761Y-188233333D01*
X118952380Y-188042857D01*
X119000000Y-187947619D01*
X119047619Y-187900000D01*
X119142857Y-187852380D01*
D12*
X206865000Y-161110000D02*
X206390000Y-161110000D01*
X206390000Y-161110000D02*
X206390000Y-160635000D01*
X211135000Y-155890000D02*
X211610000Y-155890000D01*
X211610000Y-155890000D02*
X211610000Y-156365000D01*
X206865000Y-155890000D02*
X206390000Y-155890000D01*
X206390000Y-155890000D02*
X206390000Y-156365000D01*
X211135000Y-161110000D02*
X211610000Y-161110000D01*
X198587221Y-162260000D02*
X198912779Y-162260000D01*
X198587221Y-161240000D02*
X198912779Y-161240000D01*
X209400000Y-124550000D02*
X210400000Y-124550000D01*
X210400000Y-137050000D02*
X209400000Y-137050000D01*
X204900000Y-137050000D02*
X205900000Y-137050000D01*
X204900000Y-124550000D02*
X204900000Y-127050000D01*
X210400000Y-137050000D02*
X210400000Y-124550000D01*
X204900000Y-137050000D02*
X204900000Y-134550000D01*
X204900000Y-124550000D02*
X205900000Y-124550000D01*
X208010000Y-152662779D02*
X208010000Y-152337221D01*
X206990000Y-152662779D02*
X206990000Y-152337221D01*
X214010000Y-152662779D02*
X214010000Y-152337221D01*
X212990000Y-152662779D02*
X212990000Y-152337221D01*
D13*
X121375000Y-175625000D02*
X121375000Y-175550000D01*
X121150000Y-175625000D02*
X121375000Y-175625000D01*
X121150000Y-175550000D02*
X121150000Y-175625000D01*
D14*
X121300000Y-175550000D02*
X121300000Y-173650000D01*
X121200000Y-173650000D02*
X121200000Y-175550000D01*
D13*
X121950000Y-173425000D02*
X121950000Y-173550000D01*
X120550000Y-173450000D02*
X120550000Y-173550000D01*
D14*
X121925000Y-173575000D02*
X120575000Y-173575000D01*
X120575000Y-173425000D02*
X121925000Y-173425000D01*
D13*
X124275000Y-175500000D02*
G75*
G03*
X124275000Y-175500000I-25000J0D01*
G01*
D11*
X124325000Y-175500000D02*
G75*
G03*
X124325000Y-175500000I-75000J0D01*
G01*
D13*
X123775000Y-175600000D02*
X123775000Y-175525000D01*
X123525000Y-175600000D02*
X123775000Y-175600000D01*
X123525000Y-175525000D02*
X123525000Y-175600000D01*
X122575000Y-175600000D02*
X122575000Y-175525000D01*
X122325000Y-175600000D02*
X122575000Y-175600000D01*
X122325000Y-175500000D02*
X122325000Y-175600000D01*
X118975000Y-173400000D02*
X118975000Y-173475000D01*
X118725000Y-173400000D02*
X118975000Y-173400000D01*
X118725000Y-173475000D02*
X118725000Y-173400000D01*
X120175000Y-173400000D02*
X120175000Y-173475000D01*
X119925000Y-173400000D02*
X120175000Y-173400000D01*
X119925000Y-173500000D02*
X119925000Y-173400000D01*
D15*
X118850000Y-174900000D02*
X118850000Y-173500000D01*
X120050000Y-174900000D02*
X120050000Y-173500000D01*
X123650000Y-174100000D02*
X123650000Y-175500000D01*
X122450000Y-174100000D02*
X122450000Y-175500000D01*
X126800000Y-174900000D02*
X127725000Y-174900000D01*
D13*
X127975000Y-175600000D02*
X127975000Y-175525000D01*
X127950000Y-175600000D02*
X127975000Y-175600000D01*
X127725000Y-175600000D02*
X127950000Y-175600000D01*
X127725000Y-175500000D02*
X127725000Y-175600000D01*
X126525000Y-175500000D02*
X126775000Y-175500000D01*
X126775000Y-175550000D02*
X126525000Y-175550000D01*
X126525000Y-175600000D02*
X126775000Y-175600000D01*
D15*
X127850000Y-174100000D02*
X127850000Y-175500000D01*
X126650000Y-174100000D02*
X126650000Y-175500000D01*
X125475000Y-174450000D02*
X125000000Y-174450000D01*
X124875000Y-175500000D02*
X125500000Y-175500000D01*
X124875000Y-173500000D02*
X124875000Y-175500000D01*
X125475000Y-173500000D02*
X124875000Y-173500000D01*
D13*
X124750000Y-175600000D02*
X125750000Y-175600000D01*
X124750000Y-173425000D02*
X124750000Y-175625000D01*
X124725000Y-173400000D02*
X125700000Y-173400000D01*
X125000000Y-173650000D02*
X125000000Y-174300000D01*
X125000000Y-175350000D02*
X125525000Y-175350000D01*
X124700000Y-173350000D02*
X125475000Y-173350000D01*
X125000000Y-173650000D02*
X125475000Y-173650000D01*
X125000000Y-174300000D02*
X125525000Y-174300000D01*
X125000000Y-174600000D02*
X125525000Y-174600000D01*
X125000000Y-175650000D02*
X125525000Y-175650000D01*
X125000000Y-175350000D02*
X125000000Y-174600000D01*
X125000000Y-175650000D02*
X124700000Y-175650000D01*
X124700000Y-175650000D02*
X124700000Y-173350000D01*
X127700000Y-174750000D02*
X126800000Y-174750000D01*
X126800000Y-175050000D02*
X127700000Y-175050000D01*
X128000000Y-175650000D02*
X128000000Y-174100000D01*
X126800000Y-175650000D02*
X126500000Y-175650000D01*
X126500000Y-175650000D02*
X126500000Y-174100000D01*
X127700000Y-175650000D02*
X127700000Y-174100000D01*
X128000000Y-175650000D02*
X127700000Y-175650000D01*
X126800000Y-175650000D02*
X126800000Y-174100000D01*
X124400000Y-175500000D02*
G75*
G03*
X124400000Y-175500000I-150000J0D01*
G01*
X123800000Y-175650000D02*
X123800000Y-174100000D01*
X123800000Y-175650000D02*
X123500000Y-175650000D01*
X122600000Y-175650000D02*
X122600000Y-174100000D01*
X122600000Y-175650000D02*
X122300000Y-175650000D01*
X123500000Y-175650000D02*
X123500000Y-174100000D01*
X122300000Y-175650000D02*
X122300000Y-174100000D01*
X121400000Y-173650000D02*
X122000000Y-173650000D01*
X120500000Y-173650000D02*
X121100000Y-173650000D01*
X121400000Y-175650000D02*
X121400000Y-173650000D01*
X121100000Y-175650000D02*
X121400000Y-175650000D01*
X121100000Y-173650000D02*
X121100000Y-175650000D01*
X122000000Y-173350000D02*
X122000000Y-173650000D01*
X120500000Y-173350000D02*
X122000000Y-173350000D01*
X120500000Y-173350000D02*
X120500000Y-173650000D01*
X119900000Y-173350000D02*
X119900000Y-174900000D01*
X119900000Y-173350000D02*
X120200000Y-173350000D01*
X120200000Y-173350000D02*
X120200000Y-174900000D01*
X118700000Y-173350000D02*
X118700000Y-174900000D01*
X119000000Y-173350000D02*
X119000000Y-174900000D01*
X118700000Y-173350000D02*
X119000000Y-173350000D01*
D15*
X114600000Y-174500000D02*
X116400000Y-174500000D01*
D13*
X114600000Y-174350000D02*
X114600000Y-174650000D01*
X116400000Y-174350000D02*
X116400000Y-174650000D01*
X116450000Y-174350000D02*
X116450000Y-174650000D01*
X116500000Y-174350000D02*
X116500000Y-174650000D01*
X114550000Y-174650000D02*
X114550000Y-174350000D01*
X114500000Y-174350000D02*
X114500000Y-174650000D01*
D15*
X115500000Y-173450000D02*
X115500000Y-175550000D01*
D13*
X115375000Y-173450000D02*
X115625000Y-173450000D01*
X115375000Y-175550000D02*
X115625000Y-175550000D01*
X115375000Y-175600000D02*
X115625000Y-175600000D01*
X115375000Y-173400000D02*
X115625000Y-173400000D01*
X114450000Y-173350000D02*
X114750000Y-173350000D01*
X116550000Y-173350000D02*
X116250000Y-173350000D01*
X116550000Y-175650000D02*
X116250000Y-175650000D01*
X114450000Y-175650000D02*
X114750000Y-175650000D01*
X115350000Y-174650000D02*
X115350000Y-175650000D01*
X115340000Y-174650000D02*
X115350000Y-174650000D01*
X114450000Y-174650000D02*
X115700000Y-174650000D01*
X114450000Y-174350000D02*
X114450000Y-174650000D01*
X116550000Y-174350000D02*
X114450000Y-174350000D01*
X116550000Y-174650000D02*
X116550000Y-174350000D01*
X115650000Y-174650000D02*
X116550000Y-174650000D01*
X115650000Y-175650000D02*
X115650000Y-174650000D01*
X115350000Y-175650000D02*
X115650000Y-175650000D01*
X115350000Y-173350000D02*
X115350000Y-174700000D01*
X115650000Y-173350000D02*
X115650000Y-174750000D01*
X115350000Y-173350000D02*
X115650000Y-173350000D01*
D12*
X117600000Y-174500000D02*
G75*
G03*
X117600000Y-174500000I-2100000J0D01*
G01*
X117950000Y-174500000D02*
G75*
G03*
X117950000Y-174500000I-2450000J0D01*
G01*
D15*
X120050000Y-174900000D02*
G75*
G02*
X118850000Y-174900000I-600000J0D01*
G01*
X122450000Y-174100000D02*
G75*
G02*
X123650000Y-174100000I600000J0D01*
G01*
X126650000Y-174100000D02*
G75*
G02*
X127850000Y-174100000I600000J0D01*
G01*
X125475000Y-173500000D02*
G75*
G02*
X125475000Y-174450000I0J-475000D01*
G01*
D16*
X125525000Y-174450000D02*
G75*
G02*
X125525000Y-175500000I0J-525000D01*
G01*
D13*
X125475000Y-173650000D02*
G75*
G02*
X125475000Y-174300000I0J-325000D01*
G01*
X125525000Y-174600000D02*
G75*
G02*
X125525000Y-175350000I0J-375000D01*
G01*
X125525000Y-174300000D02*
G75*
G02*
X125525000Y-175650000I0J-675000D01*
G01*
X125475000Y-173350000D02*
G75*
G02*
X125475000Y-174600000I0J-625000D01*
G01*
X126500000Y-174100000D02*
G75*
G02*
X128000000Y-174100000I750000J0D01*
G01*
X126800000Y-174100000D02*
G75*
G02*
X127700000Y-174100000I450000J0D01*
G01*
X122300000Y-174100000D02*
G75*
G02*
X123800000Y-174100000I750000J0D01*
G01*
X122600000Y-174100000D02*
G75*
G02*
X123500000Y-174100000I450000J0D01*
G01*
X120200000Y-174900000D02*
G75*
G02*
X118700000Y-174900000I-750000J0D01*
G01*
X119900000Y-174900000D02*
G75*
G02*
X119000000Y-174900000I-450000J0D01*
G01*
D10*
X114700043Y-175599338D02*
G75*
G02*
X116299999Y-175600001I799957J-50662D01*
G01*
X114499980Y-175600432D02*
G75*
G02*
X116499999Y-175600001I1000020J-49568D01*
G01*
D15*
X114600036Y-175549691D02*
G75*
G02*
X116399999Y-175550001I899964J-100309D01*
G01*
D10*
X116500020Y-173399568D02*
G75*
G02*
X114500001Y-173399999I-1000020J49568D01*
G01*
X116299957Y-173400662D02*
G75*
G02*
X114700001Y-173399999I-799957J50662D01*
G01*
D15*
X116399964Y-173450309D02*
G75*
G02*
X114600001Y-173449999I-899964J100309D01*
G01*
D13*
X116250000Y-173350000D02*
G75*
G02*
X114750000Y-173350000I-750000J0D01*
G01*
X114450000Y-173350000D02*
G75*
G03*
X116550000Y-173350000I1050000J0D01*
G01*
X114750000Y-175650000D02*
G75*
G02*
X116250000Y-175650000I750000J0D01*
G01*
X116550000Y-175650000D02*
G75*
G03*
X114450000Y-175650000I-1050000J0D01*
G01*
D12*
X196500000Y-74250000D02*
X196250000Y-74750000D01*
X196000000Y-74250000D02*
X196500000Y-74250000D01*
X196250000Y-74750000D02*
X196000000Y-74250000D01*
X156880000Y-77000000D02*
X159860000Y-77000000D01*
X161520000Y-77000000D02*
X164940000Y-77000000D01*
X166600000Y-77000000D02*
X170020000Y-77000000D01*
X171680000Y-77000000D02*
X175100000Y-77000000D01*
X176760000Y-77000000D02*
X180180000Y-77000000D01*
X181840000Y-77000000D02*
X185260000Y-77000000D01*
X186920000Y-77000000D02*
X190340000Y-77000000D01*
X161520000Y-76250000D02*
X164940000Y-76250000D01*
X166600000Y-76250000D02*
X170020000Y-76250000D01*
X171680000Y-76250000D02*
X175100000Y-76250000D01*
X176760000Y-76250000D02*
X180180000Y-76250000D01*
X181840000Y-76250000D02*
X185260000Y-76250000D01*
X186920000Y-76250000D02*
X190340000Y-76250000D01*
X197080000Y-76250000D02*
X199750000Y-76250000D01*
X128750000Y-76250000D02*
X159690000Y-76250000D01*
X192000000Y-76250000D02*
X195420000Y-76250000D01*
X156880000Y-79500000D02*
X157190000Y-79500000D01*
X159020000Y-79500000D02*
X162270000Y-79500000D01*
X164100000Y-79500000D02*
X167350000Y-79500000D01*
X169180000Y-79500000D02*
X172430000Y-79500000D01*
X174260000Y-79500000D02*
X177510000Y-79500000D01*
X179340000Y-79500000D02*
X182590000Y-79500000D01*
X184420000Y-79500000D02*
X187670000Y-79500000D01*
X189500000Y-79500000D02*
X192750000Y-79500000D01*
X156880000Y-79500000D02*
X156880000Y-77000000D01*
X159420000Y-79500000D02*
X159420000Y-77000000D01*
X161960000Y-79500000D02*
X161960000Y-77000000D01*
X164500000Y-79500000D02*
X164500000Y-77000000D01*
X167040000Y-79500000D02*
X167040000Y-77000000D01*
X169580000Y-79500000D02*
X169580000Y-77000000D01*
X172120000Y-79500000D02*
X172120000Y-77000000D01*
X174660000Y-79500000D02*
X174660000Y-77000000D01*
X177200000Y-79500000D02*
X177200000Y-77000000D01*
X179740000Y-79500000D02*
X179740000Y-77000000D01*
X182280000Y-79500000D02*
X182280000Y-77000000D01*
X184820000Y-79500000D02*
X184820000Y-77000000D01*
X187360000Y-79500000D02*
X187360000Y-77000000D01*
X189900000Y-79500000D02*
X189900000Y-77000000D01*
X192440000Y-79500000D02*
X192440000Y-77000000D01*
X192000000Y-77000000D02*
X195420000Y-77000000D01*
X194980000Y-79500000D02*
X194980000Y-77000000D01*
X197500000Y-79500000D02*
X194750000Y-79500000D01*
X197500000Y-77000000D02*
X197080000Y-77000000D01*
X197500000Y-79500000D02*
X197500000Y-77000000D01*
X124250000Y-107750000D02*
X124250000Y-80750000D01*
X199750000Y-112250000D02*
X128750000Y-112250000D01*
X204250000Y-80750000D02*
X204250000Y-107750000D01*
X202600000Y-70750000D02*
X202600000Y-67250000D01*
X195500000Y-65650000D02*
X195500000Y-68200000D01*
X197500000Y-69350000D02*
X198400000Y-69350000D01*
X198400000Y-69350000D02*
X198400000Y-70450000D01*
X202600000Y-72350000D02*
X195500000Y-72350000D01*
X198191421Y-69700000D02*
G75*
G03*
X198191421Y-69700000I-141421J0D01*
G01*
X198191421Y-68300000D02*
G75*
G03*
X198191421Y-68300000I-141421J0D01*
G01*
X199100000Y-67550000D02*
X199100000Y-68650000D01*
X198400000Y-68650000D02*
X197500000Y-68650000D01*
X200200000Y-68650000D02*
X199100000Y-68650000D01*
X195500000Y-65650000D02*
X202600000Y-65650000D01*
X199100000Y-69350000D02*
X199100000Y-70450000D01*
X198400000Y-68650000D02*
X198400000Y-67550000D01*
X200200000Y-69350000D02*
X199100000Y-69350000D01*
X195500000Y-72350000D02*
X195500000Y-69800000D01*
X197446903Y-68235363D02*
G75*
G02*
X197450000Y-69750000I1313097J-754637D01*
G01*
X140390000Y-65495000D02*
X138575000Y-65495000D01*
X140390000Y-65240000D02*
X140390000Y-65495000D01*
X144250000Y-65240000D02*
X140390000Y-65240000D01*
X148110000Y-65240000D02*
X148110000Y-65495000D01*
X144250000Y-65240000D02*
X148110000Y-65240000D01*
X140390000Y-75760000D02*
X140390000Y-75505000D01*
X144250000Y-75760000D02*
X140390000Y-75760000D01*
X148110000Y-75760000D02*
X148110000Y-75505000D01*
X144250000Y-75760000D02*
X148110000Y-75760000D01*
X160087221Y-71660000D02*
X160412779Y-71660000D01*
X160087221Y-70640000D02*
X160412779Y-70640000D01*
X152337221Y-71660000D02*
X152662779Y-71660000D01*
X152337221Y-70640000D02*
X152662779Y-70640000D01*
X198587221Y-164260000D02*
X198912779Y-164260000D01*
X198587221Y-163240000D02*
X198912779Y-163240000D01*
X198587221Y-160260000D02*
X198912779Y-160260000D01*
X198587221Y-159240000D02*
X198912779Y-159240000D01*
X198587221Y-158260000D02*
X198912779Y-158260000D01*
X198587221Y-157240000D02*
X198912779Y-157240000D01*
X198587221Y-156260000D02*
X198912779Y-156260000D01*
X198587221Y-155240000D02*
X198912779Y-155240000D01*
X198587221Y-154260000D02*
X198912779Y-154260000D01*
X198587221Y-153240000D02*
X198912779Y-153240000D01*
X212010000Y-169412779D02*
X212010000Y-169087221D01*
X210990000Y-169412779D02*
X210990000Y-169087221D01*
X210010000Y-169412779D02*
X210010000Y-169087221D01*
X208990000Y-169412779D02*
X208990000Y-169087221D01*
X208010000Y-169412779D02*
X208010000Y-169087221D01*
X206990000Y-169412779D02*
X206990000Y-169087221D01*
X206010000Y-169412779D02*
X206010000Y-169087221D01*
X204990000Y-169412779D02*
X204990000Y-169087221D01*
X198587221Y-168260000D02*
X198912779Y-168260000D01*
X198587221Y-167240000D02*
X198912779Y-167240000D01*
X198587221Y-166260000D02*
X198912779Y-166260000D01*
X198587221Y-165240000D02*
X198912779Y-165240000D01*
X216412779Y-165240000D02*
X216087221Y-165240000D01*
X216412779Y-166260000D02*
X216087221Y-166260000D01*
X216412779Y-163240000D02*
X216087221Y-163240000D01*
X216412779Y-164260000D02*
X216087221Y-164260000D01*
X210010000Y-152662779D02*
X210010000Y-152337221D01*
X208990000Y-152662779D02*
X208990000Y-152337221D01*
X214662779Y-155240000D02*
X214337221Y-155240000D01*
X214662779Y-156260000D02*
X214337221Y-156260000D01*
X204650000Y-109750000D02*
G75*
G03*
X204650000Y-109750000I-2900000J0D01*
G01*
X204650000Y-78750000D02*
G75*
G03*
X204650000Y-78750000I-2900000J0D01*
G01*
X129650000Y-109750000D02*
G75*
G03*
X129650000Y-109750000I-2900000J0D01*
G01*
X129650000Y-78750000D02*
G75*
G03*
X129650000Y-78750000I-2900000J0D01*
G01*
X161830000Y-66990000D02*
X161830000Y-68450000D01*
X158670000Y-66990000D02*
X158670000Y-69150000D01*
X158670000Y-66990000D02*
X159600000Y-66990000D01*
X161830000Y-66990000D02*
X160900000Y-66990000D01*
X201940000Y-153500000D02*
X202440000Y-153500000D01*
X202190000Y-153750000D02*
X202190000Y-153250000D01*
X204945563Y-153010000D02*
X206010000Y-151945563D01*
X202554437Y-153010000D02*
X201490000Y-151945563D01*
X202554437Y-153010000D02*
X202690000Y-153010000D01*
X204945563Y-153010000D02*
X204810000Y-153010000D01*
X206010000Y-151945563D02*
X206010000Y-148490000D01*
X201490000Y-151945563D02*
X201490000Y-148490000D01*
X201490000Y-148490000D02*
X202690000Y-148490000D01*
X206010000Y-148490000D02*
X204810000Y-148490000D01*
X152337221Y-66510000D02*
X152662779Y-66510000D01*
X152337221Y-65490000D02*
X152662779Y-65490000D01*
X212010000Y-152662779D02*
X212010000Y-152337221D01*
X210990000Y-152662779D02*
X210990000Y-152337221D01*
X214940000Y-153750000D02*
X215440000Y-153750000D01*
X215190000Y-154000000D02*
X215190000Y-153500000D01*
X217945563Y-153260000D02*
X219010000Y-152195563D01*
X215554437Y-153260000D02*
X214490000Y-152195563D01*
X215554437Y-153260000D02*
X215690000Y-153260000D01*
X217945563Y-153260000D02*
X217810000Y-153260000D01*
X219010000Y-152195563D02*
X219010000Y-148740000D01*
X214490000Y-152195563D02*
X214490000Y-148740000D01*
X214490000Y-148740000D02*
X215690000Y-148740000D01*
X219010000Y-148740000D02*
X217810000Y-148740000D01*
X214337221Y-158260000D02*
X214662779Y-158260000D01*
X214337221Y-157240000D02*
X214662779Y-157240000D01*
D14*
X208238095Y-161752380D02*
X208238095Y-162561904D01*
X208285714Y-162657142D01*
X208333333Y-162704761D01*
X208428571Y-162752380D01*
X208619047Y-162752380D01*
X208714285Y-162704761D01*
X208761904Y-162657142D01*
X208809523Y-162561904D01*
X208809523Y-161752380D01*
X209809523Y-162752380D02*
X209238095Y-162752380D01*
X209523809Y-162752380D02*
X209523809Y-161752380D01*
X209428571Y-161895238D01*
X209333333Y-161990476D01*
X209238095Y-162038095D01*
X195107142Y-162202380D02*
X194773809Y-161726190D01*
X194535714Y-162202380D02*
X194535714Y-161202380D01*
X194916666Y-161202380D01*
X195011904Y-161250000D01*
X195059523Y-161297619D01*
X195107142Y-161392857D01*
X195107142Y-161535714D01*
X195059523Y-161630952D01*
X195011904Y-161678571D01*
X194916666Y-161726190D01*
X194535714Y-161726190D01*
X196059523Y-162202380D02*
X195488095Y-162202380D01*
X195773809Y-162202380D02*
X195773809Y-161202380D01*
X195678571Y-161345238D01*
X195583333Y-161440476D01*
X195488095Y-161488095D01*
X196964285Y-161202380D02*
X196488095Y-161202380D01*
X196440476Y-161678571D01*
X196488095Y-161630952D01*
X196583333Y-161583333D01*
X196821428Y-161583333D01*
X196916666Y-161630952D01*
X196964285Y-161678571D01*
X197011904Y-161773809D01*
X197011904Y-162011904D01*
X196964285Y-162107142D01*
X196916666Y-162154761D01*
X196821428Y-162202380D01*
X196583333Y-162202380D01*
X196488095Y-162154761D01*
X196440476Y-162107142D01*
X207316666Y-123002380D02*
X207316666Y-123716666D01*
X207269047Y-123859523D01*
X207173809Y-123954761D01*
X207030952Y-124002380D01*
X206935714Y-124002380D01*
X208316666Y-124002380D02*
X207745238Y-124002380D01*
X208030952Y-124002380D02*
X208030952Y-123002380D01*
X207935714Y-123145238D01*
X207840476Y-123240476D01*
X207745238Y-123288095D01*
X207333333Y-150357142D02*
X207285714Y-150404761D01*
X207142857Y-150452380D01*
X207047619Y-150452380D01*
X206904761Y-150404761D01*
X206809523Y-150309523D01*
X206761904Y-150214285D01*
X206714285Y-150023809D01*
X206714285Y-149880952D01*
X206761904Y-149690476D01*
X206809523Y-149595238D01*
X206904761Y-149500000D01*
X207047619Y-149452380D01*
X207142857Y-149452380D01*
X207285714Y-149500000D01*
X207333333Y-149547619D01*
X207666666Y-149452380D02*
X208333333Y-149452380D01*
X207904761Y-150452380D01*
X213333333Y-150357142D02*
X213285714Y-150404761D01*
X213142857Y-150452380D01*
X213047619Y-150452380D01*
X212904761Y-150404761D01*
X212809523Y-150309523D01*
X212761904Y-150214285D01*
X212714285Y-150023809D01*
X212714285Y-149880952D01*
X212761904Y-149690476D01*
X212809523Y-149595238D01*
X212904761Y-149500000D01*
X213047619Y-149452380D01*
X213142857Y-149452380D01*
X213285714Y-149500000D01*
X213333333Y-149547619D01*
X214190476Y-149452380D02*
X214000000Y-149452380D01*
X213904761Y-149500000D01*
X213857142Y-149547619D01*
X213761904Y-149690476D01*
X213714285Y-149880952D01*
X213714285Y-150261904D01*
X213761904Y-150357142D01*
X213809523Y-150404761D01*
X213904761Y-150452380D01*
X214095238Y-150452380D01*
X214190476Y-150404761D01*
X214238095Y-150357142D01*
X214285714Y-150261904D01*
X214285714Y-150023809D01*
X214238095Y-149928571D01*
X214190476Y-149880952D01*
X214095238Y-149833333D01*
X213904761Y-149833333D01*
X213809523Y-149880952D01*
X213761904Y-149928571D01*
X213714285Y-150023809D01*
X125035714Y-75452380D02*
X125035714Y-74452380D01*
X125273809Y-74452380D01*
X125416666Y-74500000D01*
X125511904Y-74595238D01*
X125559523Y-74690476D01*
X125607142Y-74880952D01*
X125607142Y-75023809D01*
X125559523Y-75214285D01*
X125511904Y-75309523D01*
X125416666Y-75404761D01*
X125273809Y-75452380D01*
X125035714Y-75452380D01*
X125988095Y-75404761D02*
X126130952Y-75452380D01*
X126369047Y-75452380D01*
X126464285Y-75404761D01*
X126511904Y-75357142D01*
X126559523Y-75261904D01*
X126559523Y-75166666D01*
X126511904Y-75071428D01*
X126464285Y-75023809D01*
X126369047Y-74976190D01*
X126178571Y-74928571D01*
X126083333Y-74880952D01*
X126035714Y-74833333D01*
X125988095Y-74738095D01*
X125988095Y-74642857D01*
X126035714Y-74547619D01*
X126083333Y-74500000D01*
X126178571Y-74452380D01*
X126416666Y-74452380D01*
X126559523Y-74500000D01*
X127511904Y-75452380D02*
X126940476Y-75452380D01*
X127226190Y-75452380D02*
X127226190Y-74452380D01*
X127130952Y-74595238D01*
X127035714Y-74690476D01*
X126940476Y-74738095D01*
X193404761Y-66702380D02*
X193071428Y-66226190D01*
X192833333Y-66702380D02*
X192833333Y-65702380D01*
X193214285Y-65702380D01*
X193309523Y-65750000D01*
X193357142Y-65797619D01*
X193404761Y-65892857D01*
X193404761Y-66035714D01*
X193357142Y-66130952D01*
X193309523Y-66178571D01*
X193214285Y-66226190D01*
X192833333Y-66226190D01*
X193690476Y-65702380D02*
X194023809Y-66702380D01*
X194357142Y-65702380D01*
X195214285Y-66702380D02*
X194642857Y-66702380D01*
X194928571Y-66702380D02*
X194928571Y-65702380D01*
X194833333Y-65845238D01*
X194738095Y-65940476D01*
X194642857Y-65988095D01*
X138488095Y-64202380D02*
X138488095Y-65011904D01*
X138535714Y-65107142D01*
X138583333Y-65154761D01*
X138678571Y-65202380D01*
X138869047Y-65202380D01*
X138964285Y-65154761D01*
X139011904Y-65107142D01*
X139059523Y-65011904D01*
X139059523Y-64202380D01*
X139488095Y-64297619D02*
X139535714Y-64250000D01*
X139630952Y-64202380D01*
X139869047Y-64202380D01*
X139964285Y-64250000D01*
X140011904Y-64297619D01*
X140059523Y-64392857D01*
X140059523Y-64488095D01*
X140011904Y-64630952D01*
X139440476Y-65202380D01*
X140059523Y-65202380D01*
X162607142Y-71602380D02*
X162273809Y-71126190D01*
X162035714Y-71602380D02*
X162035714Y-70602380D01*
X162416666Y-70602380D01*
X162511904Y-70650000D01*
X162559523Y-70697619D01*
X162607142Y-70792857D01*
X162607142Y-70935714D01*
X162559523Y-71030952D01*
X162511904Y-71078571D01*
X162416666Y-71126190D01*
X162035714Y-71126190D01*
X163559523Y-71602380D02*
X162988095Y-71602380D01*
X163273809Y-71602380D02*
X163273809Y-70602380D01*
X163178571Y-70745238D01*
X163083333Y-70840476D01*
X162988095Y-70888095D01*
X164130952Y-71030952D02*
X164035714Y-70983333D01*
X163988095Y-70935714D01*
X163940476Y-70840476D01*
X163940476Y-70792857D01*
X163988095Y-70697619D01*
X164035714Y-70650000D01*
X164130952Y-70602380D01*
X164321428Y-70602380D01*
X164416666Y-70650000D01*
X164464285Y-70697619D01*
X164511904Y-70792857D01*
X164511904Y-70840476D01*
X164464285Y-70935714D01*
X164416666Y-70983333D01*
X164321428Y-71030952D01*
X164130952Y-71030952D01*
X164035714Y-71078571D01*
X163988095Y-71126190D01*
X163940476Y-71221428D01*
X163940476Y-71411904D01*
X163988095Y-71507142D01*
X164035714Y-71554761D01*
X164130952Y-71602380D01*
X164321428Y-71602380D01*
X164416666Y-71554761D01*
X164464285Y-71507142D01*
X164511904Y-71411904D01*
X164511904Y-71221428D01*
X164464285Y-71126190D01*
X164416666Y-71078571D01*
X164321428Y-71030952D01*
X154857142Y-71602380D02*
X154523809Y-71126190D01*
X154285714Y-71602380D02*
X154285714Y-70602380D01*
X154666666Y-70602380D01*
X154761904Y-70650000D01*
X154809523Y-70697619D01*
X154857142Y-70792857D01*
X154857142Y-70935714D01*
X154809523Y-71030952D01*
X154761904Y-71078571D01*
X154666666Y-71126190D01*
X154285714Y-71126190D01*
X155809523Y-71602380D02*
X155238095Y-71602380D01*
X155523809Y-71602380D02*
X155523809Y-70602380D01*
X155428571Y-70745238D01*
X155333333Y-70840476D01*
X155238095Y-70888095D01*
X156142857Y-70602380D02*
X156809523Y-70602380D01*
X156380952Y-71602380D01*
X195107142Y-164202380D02*
X194773809Y-163726190D01*
X194535714Y-164202380D02*
X194535714Y-163202380D01*
X194916666Y-163202380D01*
X195011904Y-163250000D01*
X195059523Y-163297619D01*
X195107142Y-163392857D01*
X195107142Y-163535714D01*
X195059523Y-163630952D01*
X195011904Y-163678571D01*
X194916666Y-163726190D01*
X194535714Y-163726190D01*
X196059523Y-164202380D02*
X195488095Y-164202380D01*
X195773809Y-164202380D02*
X195773809Y-163202380D01*
X195678571Y-163345238D01*
X195583333Y-163440476D01*
X195488095Y-163488095D01*
X196916666Y-163202380D02*
X196726190Y-163202380D01*
X196630952Y-163250000D01*
X196583333Y-163297619D01*
X196488095Y-163440476D01*
X196440476Y-163630952D01*
X196440476Y-164011904D01*
X196488095Y-164107142D01*
X196535714Y-164154761D01*
X196630952Y-164202380D01*
X196821428Y-164202380D01*
X196916666Y-164154761D01*
X196964285Y-164107142D01*
X197011904Y-164011904D01*
X197011904Y-163773809D01*
X196964285Y-163678571D01*
X196916666Y-163630952D01*
X196821428Y-163583333D01*
X196630952Y-163583333D01*
X196535714Y-163630952D01*
X196488095Y-163678571D01*
X196440476Y-163773809D01*
X195107142Y-160202380D02*
X194773809Y-159726190D01*
X194535714Y-160202380D02*
X194535714Y-159202380D01*
X194916666Y-159202380D01*
X195011904Y-159250000D01*
X195059523Y-159297619D01*
X195107142Y-159392857D01*
X195107142Y-159535714D01*
X195059523Y-159630952D01*
X195011904Y-159678571D01*
X194916666Y-159726190D01*
X194535714Y-159726190D01*
X196059523Y-160202380D02*
X195488095Y-160202380D01*
X195773809Y-160202380D02*
X195773809Y-159202380D01*
X195678571Y-159345238D01*
X195583333Y-159440476D01*
X195488095Y-159488095D01*
X196916666Y-159535714D02*
X196916666Y-160202380D01*
X196678571Y-159154761D02*
X196440476Y-159869047D01*
X197059523Y-159869047D01*
X195107142Y-158202380D02*
X194773809Y-157726190D01*
X194535714Y-158202380D02*
X194535714Y-157202380D01*
X194916666Y-157202380D01*
X195011904Y-157250000D01*
X195059523Y-157297619D01*
X195107142Y-157392857D01*
X195107142Y-157535714D01*
X195059523Y-157630952D01*
X195011904Y-157678571D01*
X194916666Y-157726190D01*
X194535714Y-157726190D01*
X196059523Y-158202380D02*
X195488095Y-158202380D01*
X195773809Y-158202380D02*
X195773809Y-157202380D01*
X195678571Y-157345238D01*
X195583333Y-157440476D01*
X195488095Y-157488095D01*
X196392857Y-157202380D02*
X197011904Y-157202380D01*
X196678571Y-157583333D01*
X196821428Y-157583333D01*
X196916666Y-157630952D01*
X196964285Y-157678571D01*
X197011904Y-157773809D01*
X197011904Y-158011904D01*
X196964285Y-158107142D01*
X196916666Y-158154761D01*
X196821428Y-158202380D01*
X196535714Y-158202380D01*
X196440476Y-158154761D01*
X196392857Y-158107142D01*
X195107142Y-156202380D02*
X194773809Y-155726190D01*
X194535714Y-156202380D02*
X194535714Y-155202380D01*
X194916666Y-155202380D01*
X195011904Y-155250000D01*
X195059523Y-155297619D01*
X195107142Y-155392857D01*
X195107142Y-155535714D01*
X195059523Y-155630952D01*
X195011904Y-155678571D01*
X194916666Y-155726190D01*
X194535714Y-155726190D01*
X196059523Y-156202380D02*
X195488095Y-156202380D01*
X195773809Y-156202380D02*
X195773809Y-155202380D01*
X195678571Y-155345238D01*
X195583333Y-155440476D01*
X195488095Y-155488095D01*
X196440476Y-155297619D02*
X196488095Y-155250000D01*
X196583333Y-155202380D01*
X196821428Y-155202380D01*
X196916666Y-155250000D01*
X196964285Y-155297619D01*
X197011904Y-155392857D01*
X197011904Y-155488095D01*
X196964285Y-155630952D01*
X196392857Y-156202380D01*
X197011904Y-156202380D01*
X195107142Y-154202380D02*
X194773809Y-153726190D01*
X194535714Y-154202380D02*
X194535714Y-153202380D01*
X194916666Y-153202380D01*
X195011904Y-153250000D01*
X195059523Y-153297619D01*
X195107142Y-153392857D01*
X195107142Y-153535714D01*
X195059523Y-153630952D01*
X195011904Y-153678571D01*
X194916666Y-153726190D01*
X194535714Y-153726190D01*
X196059523Y-154202380D02*
X195488095Y-154202380D01*
X195773809Y-154202380D02*
X195773809Y-153202380D01*
X195678571Y-153345238D01*
X195583333Y-153440476D01*
X195488095Y-153488095D01*
X197011904Y-154202380D02*
X196440476Y-154202380D01*
X196726190Y-154202380D02*
X196726190Y-153202380D01*
X196630952Y-153345238D01*
X196535714Y-153440476D01*
X196440476Y-153488095D01*
X211357142Y-171952380D02*
X211023809Y-171476190D01*
X210785714Y-171952380D02*
X210785714Y-170952380D01*
X211166666Y-170952380D01*
X211261904Y-171000000D01*
X211309523Y-171047619D01*
X211357142Y-171142857D01*
X211357142Y-171285714D01*
X211309523Y-171380952D01*
X211261904Y-171428571D01*
X211166666Y-171476190D01*
X210785714Y-171476190D01*
X212309523Y-171952380D02*
X211738095Y-171952380D01*
X212023809Y-171952380D02*
X212023809Y-170952380D01*
X211928571Y-171095238D01*
X211833333Y-171190476D01*
X211738095Y-171238095D01*
X212928571Y-170952380D02*
X213023809Y-170952380D01*
X213119047Y-171000000D01*
X213166666Y-171047619D01*
X213214285Y-171142857D01*
X213261904Y-171333333D01*
X213261904Y-171571428D01*
X213214285Y-171761904D01*
X213166666Y-171857142D01*
X213119047Y-171904761D01*
X213023809Y-171952380D01*
X212928571Y-171952380D01*
X212833333Y-171904761D01*
X212785714Y-171857142D01*
X212738095Y-171761904D01*
X212690476Y-171571428D01*
X212690476Y-171333333D01*
X212738095Y-171142857D01*
X212785714Y-171047619D01*
X212833333Y-171000000D01*
X212928571Y-170952380D01*
X209333333Y-171952380D02*
X209000000Y-171476190D01*
X208761904Y-171952380D02*
X208761904Y-170952380D01*
X209142857Y-170952380D01*
X209238095Y-171000000D01*
X209285714Y-171047619D01*
X209333333Y-171142857D01*
X209333333Y-171285714D01*
X209285714Y-171380952D01*
X209238095Y-171428571D01*
X209142857Y-171476190D01*
X208761904Y-171476190D01*
X209809523Y-171952380D02*
X210000000Y-171952380D01*
X210095238Y-171904761D01*
X210142857Y-171857142D01*
X210238095Y-171714285D01*
X210285714Y-171523809D01*
X210285714Y-171142857D01*
X210238095Y-171047619D01*
X210190476Y-171000000D01*
X210095238Y-170952380D01*
X209904761Y-170952380D01*
X209809523Y-171000000D01*
X209761904Y-171047619D01*
X209714285Y-171142857D01*
X209714285Y-171380952D01*
X209761904Y-171476190D01*
X209809523Y-171523809D01*
X209904761Y-171571428D01*
X210095238Y-171571428D01*
X210190476Y-171523809D01*
X210238095Y-171476190D01*
X210285714Y-171380952D01*
X207333333Y-171952380D02*
X207000000Y-171476190D01*
X206761904Y-171952380D02*
X206761904Y-170952380D01*
X207142857Y-170952380D01*
X207238095Y-171000000D01*
X207285714Y-171047619D01*
X207333333Y-171142857D01*
X207333333Y-171285714D01*
X207285714Y-171380952D01*
X207238095Y-171428571D01*
X207142857Y-171476190D01*
X206761904Y-171476190D01*
X207904761Y-171380952D02*
X207809523Y-171333333D01*
X207761904Y-171285714D01*
X207714285Y-171190476D01*
X207714285Y-171142857D01*
X207761904Y-171047619D01*
X207809523Y-171000000D01*
X207904761Y-170952380D01*
X208095238Y-170952380D01*
X208190476Y-171000000D01*
X208238095Y-171047619D01*
X208285714Y-171142857D01*
X208285714Y-171190476D01*
X208238095Y-171285714D01*
X208190476Y-171333333D01*
X208095238Y-171380952D01*
X207904761Y-171380952D01*
X207809523Y-171428571D01*
X207761904Y-171476190D01*
X207714285Y-171571428D01*
X207714285Y-171761904D01*
X207761904Y-171857142D01*
X207809523Y-171904761D01*
X207904761Y-171952380D01*
X208095238Y-171952380D01*
X208190476Y-171904761D01*
X208238095Y-171857142D01*
X208285714Y-171761904D01*
X208285714Y-171571428D01*
X208238095Y-171476190D01*
X208190476Y-171428571D01*
X208095238Y-171380952D01*
X205333333Y-171952380D02*
X205000000Y-171476190D01*
X204761904Y-171952380D02*
X204761904Y-170952380D01*
X205142857Y-170952380D01*
X205238095Y-171000000D01*
X205285714Y-171047619D01*
X205333333Y-171142857D01*
X205333333Y-171285714D01*
X205285714Y-171380952D01*
X205238095Y-171428571D01*
X205142857Y-171476190D01*
X204761904Y-171476190D01*
X205666666Y-170952380D02*
X206333333Y-170952380D01*
X205904761Y-171952380D01*
X196083333Y-168202380D02*
X195750000Y-167726190D01*
X195511904Y-168202380D02*
X195511904Y-167202380D01*
X195892857Y-167202380D01*
X195988095Y-167250000D01*
X196035714Y-167297619D01*
X196083333Y-167392857D01*
X196083333Y-167535714D01*
X196035714Y-167630952D01*
X195988095Y-167678571D01*
X195892857Y-167726190D01*
X195511904Y-167726190D01*
X196940476Y-167202380D02*
X196750000Y-167202380D01*
X196654761Y-167250000D01*
X196607142Y-167297619D01*
X196511904Y-167440476D01*
X196464285Y-167630952D01*
X196464285Y-168011904D01*
X196511904Y-168107142D01*
X196559523Y-168154761D01*
X196654761Y-168202380D01*
X196845238Y-168202380D01*
X196940476Y-168154761D01*
X196988095Y-168107142D01*
X197035714Y-168011904D01*
X197035714Y-167773809D01*
X196988095Y-167678571D01*
X196940476Y-167630952D01*
X196845238Y-167583333D01*
X196654761Y-167583333D01*
X196559523Y-167630952D01*
X196511904Y-167678571D01*
X196464285Y-167773809D01*
X196083333Y-166202380D02*
X195750000Y-165726190D01*
X195511904Y-166202380D02*
X195511904Y-165202380D01*
X195892857Y-165202380D01*
X195988095Y-165250000D01*
X196035714Y-165297619D01*
X196083333Y-165392857D01*
X196083333Y-165535714D01*
X196035714Y-165630952D01*
X195988095Y-165678571D01*
X195892857Y-165726190D01*
X195511904Y-165726190D01*
X196988095Y-165202380D02*
X196511904Y-165202380D01*
X196464285Y-165678571D01*
X196511904Y-165630952D01*
X196607142Y-165583333D01*
X196845238Y-165583333D01*
X196940476Y-165630952D01*
X196988095Y-165678571D01*
X197035714Y-165773809D01*
X197035714Y-166011904D01*
X196988095Y-166107142D01*
X196940476Y-166154761D01*
X196845238Y-166202380D01*
X196607142Y-166202380D01*
X196511904Y-166154761D01*
X196464285Y-166107142D01*
X218583333Y-166202380D02*
X218250000Y-165726190D01*
X218011904Y-166202380D02*
X218011904Y-165202380D01*
X218392857Y-165202380D01*
X218488095Y-165250000D01*
X218535714Y-165297619D01*
X218583333Y-165392857D01*
X218583333Y-165535714D01*
X218535714Y-165630952D01*
X218488095Y-165678571D01*
X218392857Y-165726190D01*
X218011904Y-165726190D01*
X219440476Y-165535714D02*
X219440476Y-166202380D01*
X219202380Y-165154761D02*
X218964285Y-165869047D01*
X219583333Y-165869047D01*
X218583333Y-164202380D02*
X218250000Y-163726190D01*
X218011904Y-164202380D02*
X218011904Y-163202380D01*
X218392857Y-163202380D01*
X218488095Y-163250000D01*
X218535714Y-163297619D01*
X218583333Y-163392857D01*
X218583333Y-163535714D01*
X218535714Y-163630952D01*
X218488095Y-163678571D01*
X218392857Y-163726190D01*
X218011904Y-163726190D01*
X218916666Y-163202380D02*
X219535714Y-163202380D01*
X219202380Y-163583333D01*
X219345238Y-163583333D01*
X219440476Y-163630952D01*
X219488095Y-163678571D01*
X219535714Y-163773809D01*
X219535714Y-164011904D01*
X219488095Y-164107142D01*
X219440476Y-164154761D01*
X219345238Y-164202380D01*
X219059523Y-164202380D01*
X218964285Y-164154761D01*
X218916666Y-164107142D01*
X209333333Y-150414880D02*
X209000000Y-149938690D01*
X208761904Y-150414880D02*
X208761904Y-149414880D01*
X209142857Y-149414880D01*
X209238095Y-149462500D01*
X209285714Y-149510119D01*
X209333333Y-149605357D01*
X209333333Y-149748214D01*
X209285714Y-149843452D01*
X209238095Y-149891071D01*
X209142857Y-149938690D01*
X208761904Y-149938690D01*
X209714285Y-149510119D02*
X209761904Y-149462500D01*
X209857142Y-149414880D01*
X210095238Y-149414880D01*
X210190476Y-149462500D01*
X210238095Y-149510119D01*
X210285714Y-149605357D01*
X210285714Y-149700595D01*
X210238095Y-149843452D01*
X209666666Y-150414880D01*
X210285714Y-150414880D01*
X216833333Y-156202380D02*
X216500000Y-155726190D01*
X216261904Y-156202380D02*
X216261904Y-155202380D01*
X216642857Y-155202380D01*
X216738095Y-155250000D01*
X216785714Y-155297619D01*
X216833333Y-155392857D01*
X216833333Y-155535714D01*
X216785714Y-155630952D01*
X216738095Y-155678571D01*
X216642857Y-155726190D01*
X216261904Y-155726190D01*
X217785714Y-156202380D02*
X217214285Y-156202380D01*
X217500000Y-156202380D02*
X217500000Y-155202380D01*
X217404761Y-155345238D01*
X217309523Y-155440476D01*
X217214285Y-155488095D01*
X162904761Y-68547619D02*
X162809523Y-68500000D01*
X162714285Y-68404761D01*
X162571428Y-68261904D01*
X162476190Y-68214285D01*
X162380952Y-68214285D01*
X162428571Y-68452380D02*
X162333333Y-68404761D01*
X162238095Y-68309523D01*
X162190476Y-68119047D01*
X162190476Y-67785714D01*
X162238095Y-67595238D01*
X162333333Y-67500000D01*
X162428571Y-67452380D01*
X162619047Y-67452380D01*
X162714285Y-67500000D01*
X162809523Y-67595238D01*
X162857142Y-67785714D01*
X162857142Y-68119047D01*
X162809523Y-68309523D01*
X162714285Y-68404761D01*
X162619047Y-68452380D01*
X162428571Y-68452380D01*
X163809523Y-68452380D02*
X163238095Y-68452380D01*
X163523809Y-68452380D02*
X163523809Y-67452380D01*
X163428571Y-67595238D01*
X163333333Y-67690476D01*
X163238095Y-67738095D01*
X203633333Y-146957142D02*
X203585714Y-147004761D01*
X203442857Y-147052380D01*
X203347619Y-147052380D01*
X203204761Y-147004761D01*
X203109523Y-146909523D01*
X203061904Y-146814285D01*
X203014285Y-146623809D01*
X203014285Y-146480952D01*
X203061904Y-146290476D01*
X203109523Y-146195238D01*
X203204761Y-146100000D01*
X203347619Y-146052380D01*
X203442857Y-146052380D01*
X203585714Y-146100000D01*
X203633333Y-146147619D01*
X204538095Y-146052380D02*
X204061904Y-146052380D01*
X204014285Y-146528571D01*
X204061904Y-146480952D01*
X204157142Y-146433333D01*
X204395238Y-146433333D01*
X204490476Y-146480952D01*
X204538095Y-146528571D01*
X204585714Y-146623809D01*
X204585714Y-146861904D01*
X204538095Y-146957142D01*
X204490476Y-147004761D01*
X204395238Y-147052380D01*
X204157142Y-147052380D01*
X204061904Y-147004761D01*
X204014285Y-146957142D01*
X154833333Y-66357142D02*
X154785714Y-66404761D01*
X154642857Y-66452380D01*
X154547619Y-66452380D01*
X154404761Y-66404761D01*
X154309523Y-66309523D01*
X154261904Y-66214285D01*
X154214285Y-66023809D01*
X154214285Y-65880952D01*
X154261904Y-65690476D01*
X154309523Y-65595238D01*
X154404761Y-65500000D01*
X154547619Y-65452380D01*
X154642857Y-65452380D01*
X154785714Y-65500000D01*
X154833333Y-65547619D01*
X155690476Y-65785714D02*
X155690476Y-66452380D01*
X155452380Y-65404761D02*
X155214285Y-66119047D01*
X155833333Y-66119047D01*
X211333333Y-150357142D02*
X211285714Y-150404761D01*
X211142857Y-150452380D01*
X211047619Y-150452380D01*
X210904761Y-150404761D01*
X210809523Y-150309523D01*
X210761904Y-150214285D01*
X210714285Y-150023809D01*
X210714285Y-149880952D01*
X210761904Y-149690476D01*
X210809523Y-149595238D01*
X210904761Y-149500000D01*
X211047619Y-149452380D01*
X211142857Y-149452380D01*
X211285714Y-149500000D01*
X211333333Y-149547619D01*
X211666666Y-149452380D02*
X212285714Y-149452380D01*
X211952380Y-149833333D01*
X212095238Y-149833333D01*
X212190476Y-149880952D01*
X212238095Y-149928571D01*
X212285714Y-150023809D01*
X212285714Y-150261904D01*
X212238095Y-150357142D01*
X212190476Y-150404761D01*
X212095238Y-150452380D01*
X211809523Y-150452380D01*
X211714285Y-150404761D01*
X211666666Y-150357142D01*
X216583333Y-147107142D02*
X216535714Y-147154761D01*
X216392857Y-147202380D01*
X216297619Y-147202380D01*
X216154761Y-147154761D01*
X216059523Y-147059523D01*
X216011904Y-146964285D01*
X215964285Y-146773809D01*
X215964285Y-146630952D01*
X216011904Y-146440476D01*
X216059523Y-146345238D01*
X216154761Y-146250000D01*
X216297619Y-146202380D01*
X216392857Y-146202380D01*
X216535714Y-146250000D01*
X216583333Y-146297619D01*
X216964285Y-146297619D02*
X217011904Y-146250000D01*
X217107142Y-146202380D01*
X217345238Y-146202380D01*
X217440476Y-146250000D01*
X217488095Y-146297619D01*
X217535714Y-146392857D01*
X217535714Y-146488095D01*
X217488095Y-146630952D01*
X216916666Y-147202380D01*
X217535714Y-147202380D01*
X216833333Y-158107142D02*
X216785714Y-158154761D01*
X216642857Y-158202380D01*
X216547619Y-158202380D01*
X216404761Y-158154761D01*
X216309523Y-158059523D01*
X216261904Y-157964285D01*
X216214285Y-157773809D01*
X216214285Y-157630952D01*
X216261904Y-157440476D01*
X216309523Y-157345238D01*
X216404761Y-157250000D01*
X216547619Y-157202380D01*
X216642857Y-157202380D01*
X216785714Y-157250000D01*
X216833333Y-157297619D01*
X217785714Y-158202380D02*
X217214285Y-158202380D01*
X217500000Y-158202380D02*
X217500000Y-157202380D01*
X217404761Y-157345238D01*
X217309523Y-157440476D01*
X217214285Y-157488095D01*
M02*
