G04 #@! TF.GenerationSoftware,KiCad,Pcbnew,(5.1.6)-1*
G04 #@! TF.CreationDate,2020-10-27T15:14:38-03:00*
G04 #@! TF.ProjectId,PanelFrontal,50616e65-6c46-4726-9f6e-74616c2e6b69,v1.0*
G04 #@! TF.SameCoordinates,Original*
G04 #@! TF.FileFunction,Legend,Bot*
G04 #@! TF.FilePolarity,Positive*
%FSLAX46Y46*%
G04 Gerber Fmt 4.6, Leading zero omitted, Abs format (unit mm)*
G04 Created by KiCad (PCBNEW (5.1.6)-1) date 2020-10-27 15:14:38*
%MOMM*%
%LPD*%
G01*
G04 APERTURE LIST*
%ADD10C,0.500000*%
%ADD11C,0.100000*%
%ADD12C,0.120000*%
G04 APERTURE END LIST*
D10*
X164333333Y-182166666D02*
X163666666Y-182166666D01*
X163000000Y-182500000D01*
X162666666Y-182833333D01*
X162333333Y-183500000D01*
X162000000Y-184833333D01*
X162000000Y-186500000D01*
X162333333Y-187833333D01*
X162666666Y-188500000D01*
X163000000Y-188833333D01*
X163666666Y-189166666D01*
X164333333Y-189166666D01*
X165000000Y-188833333D01*
X165333333Y-188500000D01*
X165666666Y-187833333D01*
X166000000Y-186500000D01*
X166000000Y-184833333D01*
X165666666Y-183500000D01*
X165333333Y-182833333D01*
X165000000Y-182500000D01*
X164333333Y-182166666D01*
X219500000Y-104250000D02*
X219500000Y-111000000D01*
D11*
G36*
X219500000Y-111500000D02*
G01*
X218000000Y-109000000D01*
X221000000Y-109000000D01*
X219500000Y-111500000D01*
G37*
X219500000Y-111500000D02*
X218000000Y-109000000D01*
X221000000Y-109000000D01*
X219500000Y-111500000D01*
G36*
X221000000Y-79500000D02*
G01*
X218000000Y-79500000D01*
X219500000Y-77000000D01*
X221000000Y-79500000D01*
G37*
X221000000Y-79500000D02*
X218000000Y-79500000D01*
X219500000Y-77000000D01*
X221000000Y-79500000D01*
D10*
X219500000Y-84250000D02*
X219500000Y-77500000D01*
D11*
G36*
X112500000Y-109500000D02*
G01*
X110500000Y-110500000D01*
X110500000Y-108500000D01*
X112500000Y-109500000D01*
G37*
X112500000Y-109500000D02*
X110500000Y-110500000D01*
X110500000Y-108500000D01*
X112500000Y-109500000D01*
D10*
X110500000Y-110500000D02*
X110500000Y-108500000D01*
X112500000Y-109500000D02*
X110500000Y-108500000D01*
X112500000Y-109500000D02*
X110500000Y-110500000D01*
X107500000Y-109500000D02*
X112500000Y-109500000D01*
X107500000Y-104750000D02*
X107500000Y-109500000D01*
X107333333Y-83500000D02*
X107666666Y-83833333D01*
X108666666Y-84166666D01*
X109333333Y-84166666D01*
X110333333Y-83833333D01*
X111000000Y-83166666D01*
X111333333Y-82500000D01*
X111666666Y-81166666D01*
X111666666Y-80166666D01*
X111333333Y-78833333D01*
X111000000Y-78166666D01*
X110333333Y-77500000D01*
X109333333Y-77166666D01*
X108666666Y-77166666D01*
X107666666Y-77500000D01*
X107333333Y-77833333D01*
X145333333Y-169416666D02*
X144000000Y-169416666D01*
X143333333Y-169083333D01*
X143000000Y-168750000D01*
X142333333Y-167750000D01*
X142000000Y-166416666D01*
X142000000Y-163750000D01*
X142333333Y-163083333D01*
X142666666Y-162750000D01*
X143333333Y-162416666D01*
X144666666Y-162416666D01*
X145333333Y-162750000D01*
X145666666Y-163083333D01*
X146000000Y-163750000D01*
X146000000Y-165416666D01*
X145666666Y-166083333D01*
X145333333Y-166416666D01*
X144666666Y-166750000D01*
X143333333Y-166750000D01*
X142666666Y-166416666D01*
X142333333Y-166083333D01*
X142000000Y-165416666D01*
X164666666Y-165166666D02*
X165333333Y-164833333D01*
X165666666Y-164500000D01*
X166000000Y-163833333D01*
X166000000Y-163500000D01*
X165666666Y-162833333D01*
X165333333Y-162500000D01*
X164666666Y-162166666D01*
X163333333Y-162166666D01*
X162666666Y-162500000D01*
X162333333Y-162833333D01*
X162000000Y-163500000D01*
X162000000Y-163833333D01*
X162333333Y-164500000D01*
X162666666Y-164833333D01*
X163333333Y-165166666D01*
X164666666Y-165166666D01*
X165333333Y-165500000D01*
X165666666Y-165833333D01*
X166000000Y-166500000D01*
X166000000Y-167833333D01*
X165666666Y-168500000D01*
X165333333Y-168833333D01*
X164666666Y-169166666D01*
X163333333Y-169166666D01*
X162666666Y-168833333D01*
X162333333Y-168500000D01*
X162000000Y-167833333D01*
X162000000Y-166500000D01*
X162333333Y-165833333D01*
X162666666Y-165500000D01*
X163333333Y-165166666D01*
X186333333Y-162416666D02*
X181666666Y-162416666D01*
X184666666Y-169416666D01*
X142666666Y-142166666D02*
X144000000Y-142166666D01*
X144666666Y-142500000D01*
X145000000Y-142833333D01*
X145666666Y-143833333D01*
X146000000Y-145166666D01*
X146000000Y-147833333D01*
X145666666Y-148500000D01*
X145333333Y-148833333D01*
X144666666Y-149166666D01*
X143333333Y-149166666D01*
X142666666Y-148833333D01*
X142333333Y-148500000D01*
X142000000Y-147833333D01*
X142000000Y-146166666D01*
X142333333Y-145500000D01*
X142666666Y-145166666D01*
X143333333Y-144833333D01*
X144666666Y-144833333D01*
X145333333Y-145166666D01*
X145666666Y-145500000D01*
X146000000Y-146166666D01*
X162333333Y-142166666D02*
X165666666Y-142166666D01*
X166000000Y-145500000D01*
X165666666Y-145166666D01*
X165000000Y-144833333D01*
X163333333Y-144833333D01*
X162666666Y-145166666D01*
X162333333Y-145500000D01*
X162000000Y-146166666D01*
X162000000Y-147833333D01*
X162333333Y-148500000D01*
X162666666Y-148833333D01*
X163333333Y-149166666D01*
X165000000Y-149166666D01*
X165666666Y-148833333D01*
X166000000Y-148500000D01*
X182666666Y-144500000D02*
X182666666Y-149166666D01*
X184333333Y-141833333D02*
X186000000Y-146833333D01*
X181666666Y-146833333D01*
X146333333Y-122166666D02*
X142000000Y-122166666D01*
X144333333Y-124833333D01*
X143333333Y-124833333D01*
X142666666Y-125166666D01*
X142333333Y-125500000D01*
X142000000Y-126166666D01*
X142000000Y-127833333D01*
X142333333Y-128500000D01*
X142666666Y-128833333D01*
X143333333Y-129166666D01*
X145333333Y-129166666D01*
X146000000Y-128833333D01*
X146333333Y-128500000D01*
X166000000Y-122833333D02*
X165666666Y-122500000D01*
X165000000Y-122166666D01*
X163333333Y-122166666D01*
X162666666Y-122500000D01*
X162333333Y-122833333D01*
X162000000Y-123500000D01*
X162000000Y-124166666D01*
X162333333Y-125166666D01*
X166333333Y-129166666D01*
X162000000Y-129166666D01*
X182000000Y-129166666D02*
X186000000Y-129166666D01*
X184000000Y-129166666D02*
X184000000Y-122166666D01*
X184666666Y-123166666D01*
X185333333Y-123833333D01*
X186000000Y-124166666D01*
D12*
X222000000Y-112900000D02*
X217000000Y-112900000D01*
X224650000Y-110250000D02*
X224650000Y-105250000D01*
X214350000Y-105250000D02*
X214350000Y-110250000D01*
X217000000Y-102600000D02*
X222000000Y-102600000D01*
X224650000Y-105250000D02*
G75*
G03*
X222000000Y-102600000I-2650000J0D01*
G01*
X217000000Y-102600000D02*
G75*
G03*
X214350000Y-105250000I0J-2650000D01*
G01*
X214350000Y-110250000D02*
G75*
G03*
X217000000Y-112900000I2650000J0D01*
G01*
X222000000Y-112900000D02*
G75*
G03*
X224650000Y-110250000I0J2650000D01*
G01*
X222000000Y-85900000D02*
X217000000Y-85900000D01*
X224650000Y-83250000D02*
X224650000Y-78250000D01*
X214350000Y-78250000D02*
X214350000Y-83250000D01*
X217000000Y-75600000D02*
X222000000Y-75600000D01*
X224650000Y-78250000D02*
G75*
G03*
X222000000Y-75600000I-2650000J0D01*
G01*
X217000000Y-75600000D02*
G75*
G03*
X214350000Y-78250000I0J-2650000D01*
G01*
X214350000Y-83250000D02*
G75*
G03*
X217000000Y-85900000I2650000J0D01*
G01*
X222000000Y-85900000D02*
G75*
G03*
X224650000Y-83250000I0J2650000D01*
G01*
X111500000Y-112900000D02*
X106500000Y-112900000D01*
X114150000Y-110250000D02*
X114150000Y-105250000D01*
X103850000Y-105250000D02*
X103850000Y-110250000D01*
X106500000Y-102600000D02*
X111500000Y-102600000D01*
X114150000Y-105250000D02*
G75*
G03*
X111500000Y-102600000I-2650000J0D01*
G01*
X106500000Y-102600000D02*
G75*
G03*
X103850000Y-105250000I0J-2650000D01*
G01*
X103850000Y-110250000D02*
G75*
G03*
X106500000Y-112900000I2650000J0D01*
G01*
X111500000Y-112900000D02*
G75*
G03*
X114150000Y-110250000I0J2650000D01*
G01*
X111500000Y-85900000D02*
X106500000Y-85900000D01*
X114150000Y-83250000D02*
X114150000Y-78250000D01*
X103850000Y-78250000D02*
X103850000Y-83250000D01*
X106500000Y-75600000D02*
X111500000Y-75600000D01*
X114150000Y-78250000D02*
G75*
G03*
X111500000Y-75600000I-2650000J0D01*
G01*
X106500000Y-75600000D02*
G75*
G03*
X103850000Y-78250000I0J-2650000D01*
G01*
X103850000Y-83250000D02*
G75*
G03*
X106500000Y-85900000I2650000J0D01*
G01*
X111500000Y-85900000D02*
G75*
G03*
X114150000Y-83250000I0J2650000D01*
G01*
X166500000Y-191150000D02*
X161500000Y-191150000D01*
X169150000Y-188500000D02*
X169150000Y-183500000D01*
X158850000Y-183500000D02*
X158850000Y-188500000D01*
X161500000Y-180850000D02*
X166500000Y-180850000D01*
X169150000Y-183500000D02*
G75*
G03*
X166500000Y-180850000I-2650000J0D01*
G01*
X161500000Y-180850000D02*
G75*
G03*
X158850000Y-183500000I0J-2650000D01*
G01*
X158850000Y-188500000D02*
G75*
G03*
X161500000Y-191150000I2650000J0D01*
G01*
X166500000Y-191150000D02*
G75*
G03*
X169150000Y-188500000I0J2650000D01*
G01*
X146500000Y-171150000D02*
X141500000Y-171150000D01*
X149150000Y-168500000D02*
X149150000Y-163500000D01*
X138850000Y-163500000D02*
X138850000Y-168500000D01*
X141500000Y-160850000D02*
X146500000Y-160850000D01*
X149150000Y-163500000D02*
G75*
G03*
X146500000Y-160850000I-2650000J0D01*
G01*
X141500000Y-160850000D02*
G75*
G03*
X138850000Y-163500000I0J-2650000D01*
G01*
X138850000Y-168500000D02*
G75*
G03*
X141500000Y-171150000I2650000J0D01*
G01*
X146500000Y-171150000D02*
G75*
G03*
X149150000Y-168500000I0J2650000D01*
G01*
X166500000Y-171150000D02*
X161500000Y-171150000D01*
X169150000Y-168500000D02*
X169150000Y-163500000D01*
X158850000Y-163500000D02*
X158850000Y-168500000D01*
X161500000Y-160850000D02*
X166500000Y-160850000D01*
X169150000Y-163500000D02*
G75*
G03*
X166500000Y-160850000I-2650000J0D01*
G01*
X161500000Y-160850000D02*
G75*
G03*
X158850000Y-163500000I0J-2650000D01*
G01*
X158850000Y-168500000D02*
G75*
G03*
X161500000Y-171150000I2650000J0D01*
G01*
X166500000Y-171150000D02*
G75*
G03*
X169150000Y-168500000I0J2650000D01*
G01*
X186500000Y-171150000D02*
X181500000Y-171150000D01*
X189150000Y-168500000D02*
X189150000Y-163500000D01*
X178850000Y-163500000D02*
X178850000Y-168500000D01*
X181500000Y-160850000D02*
X186500000Y-160850000D01*
X189150000Y-163500000D02*
G75*
G03*
X186500000Y-160850000I-2650000J0D01*
G01*
X181500000Y-160850000D02*
G75*
G03*
X178850000Y-163500000I0J-2650000D01*
G01*
X178850000Y-168500000D02*
G75*
G03*
X181500000Y-171150000I2650000J0D01*
G01*
X186500000Y-171150000D02*
G75*
G03*
X189150000Y-168500000I0J2650000D01*
G01*
X146500000Y-151150000D02*
X141500000Y-151150000D01*
X149150000Y-148500000D02*
X149150000Y-143500000D01*
X138850000Y-143500000D02*
X138850000Y-148500000D01*
X141500000Y-140850000D02*
X146500000Y-140850000D01*
X149150000Y-143500000D02*
G75*
G03*
X146500000Y-140850000I-2650000J0D01*
G01*
X141500000Y-140850000D02*
G75*
G03*
X138850000Y-143500000I0J-2650000D01*
G01*
X138850000Y-148500000D02*
G75*
G03*
X141500000Y-151150000I2650000J0D01*
G01*
X146500000Y-151150000D02*
G75*
G03*
X149150000Y-148500000I0J2650000D01*
G01*
X166500000Y-151150000D02*
X161500000Y-151150000D01*
X169150000Y-148500000D02*
X169150000Y-143500000D01*
X158850000Y-143500000D02*
X158850000Y-148500000D01*
X161500000Y-140850000D02*
X166500000Y-140850000D01*
X169150000Y-143500000D02*
G75*
G03*
X166500000Y-140850000I-2650000J0D01*
G01*
X161500000Y-140850000D02*
G75*
G03*
X158850000Y-143500000I0J-2650000D01*
G01*
X158850000Y-148500000D02*
G75*
G03*
X161500000Y-151150000I2650000J0D01*
G01*
X166500000Y-151150000D02*
G75*
G03*
X169150000Y-148500000I0J2650000D01*
G01*
X186500000Y-151150000D02*
X181500000Y-151150000D01*
X189150000Y-148500000D02*
X189150000Y-143500000D01*
X178850000Y-143500000D02*
X178850000Y-148500000D01*
X181500000Y-140850000D02*
X186500000Y-140850000D01*
X189150000Y-143500000D02*
G75*
G03*
X186500000Y-140850000I-2650000J0D01*
G01*
X181500000Y-140850000D02*
G75*
G03*
X178850000Y-143500000I0J-2650000D01*
G01*
X178850000Y-148500000D02*
G75*
G03*
X181500000Y-151150000I2650000J0D01*
G01*
X186500000Y-151150000D02*
G75*
G03*
X189150000Y-148500000I0J2650000D01*
G01*
X146500000Y-131150000D02*
X141500000Y-131150000D01*
X149150000Y-128500000D02*
X149150000Y-123500000D01*
X138850000Y-123500000D02*
X138850000Y-128500000D01*
X141500000Y-120850000D02*
X146500000Y-120850000D01*
X149150000Y-123500000D02*
G75*
G03*
X146500000Y-120850000I-2650000J0D01*
G01*
X141500000Y-120850000D02*
G75*
G03*
X138850000Y-123500000I0J-2650000D01*
G01*
X138850000Y-128500000D02*
G75*
G03*
X141500000Y-131150000I2650000J0D01*
G01*
X146500000Y-131150000D02*
G75*
G03*
X149150000Y-128500000I0J2650000D01*
G01*
X166500000Y-131150000D02*
X161500000Y-131150000D01*
X169150000Y-128500000D02*
X169150000Y-123500000D01*
X158850000Y-123500000D02*
X158850000Y-128500000D01*
X161500000Y-120850000D02*
X166500000Y-120850000D01*
X169150000Y-123500000D02*
G75*
G03*
X166500000Y-120850000I-2650000J0D01*
G01*
X161500000Y-120850000D02*
G75*
G03*
X158850000Y-123500000I0J-2650000D01*
G01*
X158850000Y-128500000D02*
G75*
G03*
X161500000Y-131150000I2650000J0D01*
G01*
X166500000Y-131150000D02*
G75*
G03*
X169150000Y-128500000I0J2650000D01*
G01*
X186500000Y-131150000D02*
X181500000Y-131150000D01*
X189150000Y-128500000D02*
X189150000Y-123500000D01*
X178850000Y-123500000D02*
X178850000Y-128500000D01*
X181500000Y-120850000D02*
X186500000Y-120850000D01*
X189150000Y-123500000D02*
G75*
G03*
X186500000Y-120850000I-2650000J0D01*
G01*
X181500000Y-120850000D02*
G75*
G03*
X178850000Y-123500000I0J-2650000D01*
G01*
X178850000Y-128500000D02*
G75*
G03*
X181500000Y-131150000I2650000J0D01*
G01*
X186500000Y-131150000D02*
G75*
G03*
X189150000Y-128500000I0J2650000D01*
G01*
M02*
