M48
; DRILL file {KiCad (5.1.6)-1} date 10/27/20 15:14:42
; FORMAT={-:-/ absolute / inch / decimal}
; #@! TF.CreationDate,2020-10-27T15:14:42-03:00
; #@! TF.GenerationSoftware,Kicad,Pcbnew,(5.1.6)-1
; #@! TF.FileFunction,Plated,1,2,PTH
FMAT,2
INCH
T1C0.0157
T2C0.1181
%
G90
G05
T1
X5.6102Y-2.752
X5.6102Y-2.7992
X5.6102Y-2.8504
X5.6102Y-2.8996
X5.6693Y-4.9606
X5.6693Y-5.748
X5.6693Y-6.5354
X5.9744Y-2.6575
X5.9744Y-2.7067
X5.9744Y-2.8524
X5.9754Y-2.9508
X6.0325Y-2.9006
X6.3484Y-2.7559
X6.4075Y-2.9724
X6.4567Y-4.9606
X6.4567Y-5.748
X6.4567Y-6.5354
X6.4567Y-7.3228
X6.4665Y-2.7559
X6.4665Y-2.9429
X6.624Y-2.9134
X6.7224Y-2.8839
X7.1654Y-2.8248
X7.2244Y-2.9724
X7.2441Y-5.748
X7.2441Y-6.5354
X7.4311Y-2.9724
X7.6575Y-6.9094
X7.7165Y-6.9094
X7.7559Y-4.9606
X7.9449Y-5.0315
X8.1496Y-2.687
X8.1791Y-2.6575
X8.5335Y-5.7185
X8.9075Y-4.2421
X8.9862Y-3.1791
T2
X7.9429Y-3.1004
X4.9902Y-4.3209
X7.9429Y-4.3209
X4.9902Y-3.1004
T0
M30
