G04 #@! TF.GenerationSoftware,KiCad,Pcbnew,(5.1.6)-1*
G04 #@! TF.CreationDate,2020-10-27T15:14:38-03:00*
G04 #@! TF.ProjectId,PanelFrontal,50616e65-6c46-4726-9f6e-74616c2e6b69,v1.0*
G04 #@! TF.SameCoordinates,Original*
G04 #@! TF.FileFunction,Soldermask,Top*
G04 #@! TF.FilePolarity,Negative*
%FSLAX46Y46*%
G04 Gerber Fmt 4.6, Leading zero omitted, Abs format (unit mm)*
G04 Created by KiCad (PCBNEW (5.1.6)-1) date 2020-10-27 15:14:38*
%MOMM*%
%LPD*%
G01*
G04 APERTURE LIST*
%ADD10C,0.100000*%
G04 APERTURE END LIST*
D10*
G36*
X225625256Y-193641298D02*
G01*
X225731579Y-193662447D01*
X226032042Y-193786903D01*
X226302451Y-193967585D01*
X226532415Y-194197549D01*
X226713097Y-194467958D01*
X226837553Y-194768421D01*
X226901000Y-195087391D01*
X226901000Y-195412609D01*
X226837553Y-195731579D01*
X226713097Y-196032042D01*
X226532415Y-196302451D01*
X226302451Y-196532415D01*
X226032042Y-196713097D01*
X225731579Y-196837553D01*
X225625256Y-196858702D01*
X225412611Y-196901000D01*
X225087389Y-196901000D01*
X224874744Y-196858702D01*
X224768421Y-196837553D01*
X224467958Y-196713097D01*
X224197549Y-196532415D01*
X223967585Y-196302451D01*
X223786903Y-196032042D01*
X223662447Y-195731579D01*
X223599000Y-195412609D01*
X223599000Y-195087391D01*
X223662447Y-194768421D01*
X223786903Y-194467958D01*
X223967585Y-194197549D01*
X224197549Y-193967585D01*
X224467958Y-193786903D01*
X224768421Y-193662447D01*
X224874744Y-193641298D01*
X225087389Y-193599000D01*
X225412611Y-193599000D01*
X225625256Y-193641298D01*
G37*
G36*
X103625256Y-193641298D02*
G01*
X103731579Y-193662447D01*
X104032042Y-193786903D01*
X104302451Y-193967585D01*
X104532415Y-194197549D01*
X104713097Y-194467958D01*
X104837553Y-194768421D01*
X104901000Y-195087391D01*
X104901000Y-195412609D01*
X104837553Y-195731579D01*
X104713097Y-196032042D01*
X104532415Y-196302451D01*
X104302451Y-196532415D01*
X104032042Y-196713097D01*
X103731579Y-196837553D01*
X103625256Y-196858702D01*
X103412611Y-196901000D01*
X103087389Y-196901000D01*
X102874744Y-196858702D01*
X102768421Y-196837553D01*
X102467958Y-196713097D01*
X102197549Y-196532415D01*
X101967585Y-196302451D01*
X101786903Y-196032042D01*
X101662447Y-195731579D01*
X101599000Y-195412609D01*
X101599000Y-195087391D01*
X101662447Y-194768421D01*
X101786903Y-194467958D01*
X101967585Y-194197549D01*
X102197549Y-193967585D01*
X102467958Y-193786903D01*
X102768421Y-193662447D01*
X102874744Y-193641298D01*
X103087389Y-193599000D01*
X103412611Y-193599000D01*
X103625256Y-193641298D01*
G37*
G36*
X207879591Y-169553085D02*
G01*
X207913569Y-169563393D01*
X207944890Y-169580134D01*
X207972339Y-169602661D01*
X207994866Y-169630110D01*
X208011607Y-169661431D01*
X208021915Y-169695409D01*
X208026000Y-169736890D01*
X208026000Y-170338110D01*
X208021915Y-170379591D01*
X208011607Y-170413569D01*
X207994866Y-170444890D01*
X207972339Y-170472339D01*
X207944890Y-170494866D01*
X207913569Y-170511607D01*
X207879591Y-170521915D01*
X207838110Y-170526000D01*
X207161890Y-170526000D01*
X207120409Y-170521915D01*
X207086431Y-170511607D01*
X207055110Y-170494866D01*
X207027661Y-170472339D01*
X207005134Y-170444890D01*
X206988393Y-170413569D01*
X206978085Y-170379591D01*
X206974000Y-170338110D01*
X206974000Y-169736890D01*
X206978085Y-169695409D01*
X206988393Y-169661431D01*
X207005134Y-169630110D01*
X207027661Y-169602661D01*
X207055110Y-169580134D01*
X207086431Y-169563393D01*
X207120409Y-169553085D01*
X207161890Y-169549000D01*
X207838110Y-169549000D01*
X207879591Y-169553085D01*
G37*
G36*
X205879591Y-169553085D02*
G01*
X205913569Y-169563393D01*
X205944890Y-169580134D01*
X205972339Y-169602661D01*
X205994866Y-169630110D01*
X206011607Y-169661431D01*
X206021915Y-169695409D01*
X206026000Y-169736890D01*
X206026000Y-170338110D01*
X206021915Y-170379591D01*
X206011607Y-170413569D01*
X205994866Y-170444890D01*
X205972339Y-170472339D01*
X205944890Y-170494866D01*
X205913569Y-170511607D01*
X205879591Y-170521915D01*
X205838110Y-170526000D01*
X205161890Y-170526000D01*
X205120409Y-170521915D01*
X205086431Y-170511607D01*
X205055110Y-170494866D01*
X205027661Y-170472339D01*
X205005134Y-170444890D01*
X204988393Y-170413569D01*
X204978085Y-170379591D01*
X204974000Y-170338110D01*
X204974000Y-169736890D01*
X204978085Y-169695409D01*
X204988393Y-169661431D01*
X205005134Y-169630110D01*
X205027661Y-169602661D01*
X205055110Y-169580134D01*
X205086431Y-169563393D01*
X205120409Y-169553085D01*
X205161890Y-169549000D01*
X205838110Y-169549000D01*
X205879591Y-169553085D01*
G37*
G36*
X211879591Y-169553085D02*
G01*
X211913569Y-169563393D01*
X211944890Y-169580134D01*
X211972339Y-169602661D01*
X211994866Y-169630110D01*
X212011607Y-169661431D01*
X212021915Y-169695409D01*
X212026000Y-169736890D01*
X212026000Y-170338110D01*
X212021915Y-170379591D01*
X212011607Y-170413569D01*
X211994866Y-170444890D01*
X211972339Y-170472339D01*
X211944890Y-170494866D01*
X211913569Y-170511607D01*
X211879591Y-170521915D01*
X211838110Y-170526000D01*
X211161890Y-170526000D01*
X211120409Y-170521915D01*
X211086431Y-170511607D01*
X211055110Y-170494866D01*
X211027661Y-170472339D01*
X211005134Y-170444890D01*
X210988393Y-170413569D01*
X210978085Y-170379591D01*
X210974000Y-170338110D01*
X210974000Y-169736890D01*
X210978085Y-169695409D01*
X210988393Y-169661431D01*
X211005134Y-169630110D01*
X211027661Y-169602661D01*
X211055110Y-169580134D01*
X211086431Y-169563393D01*
X211120409Y-169553085D01*
X211161890Y-169549000D01*
X211838110Y-169549000D01*
X211879591Y-169553085D01*
G37*
G36*
X209879591Y-169553085D02*
G01*
X209913569Y-169563393D01*
X209944890Y-169580134D01*
X209972339Y-169602661D01*
X209994866Y-169630110D01*
X210011607Y-169661431D01*
X210021915Y-169695409D01*
X210026000Y-169736890D01*
X210026000Y-170338110D01*
X210021915Y-170379591D01*
X210011607Y-170413569D01*
X209994866Y-170444890D01*
X209972339Y-170472339D01*
X209944890Y-170494866D01*
X209913569Y-170511607D01*
X209879591Y-170521915D01*
X209838110Y-170526000D01*
X209161890Y-170526000D01*
X209120409Y-170521915D01*
X209086431Y-170511607D01*
X209055110Y-170494866D01*
X209027661Y-170472339D01*
X209005134Y-170444890D01*
X208988393Y-170413569D01*
X208978085Y-170379591D01*
X208974000Y-170338110D01*
X208974000Y-169736890D01*
X208978085Y-169695409D01*
X208988393Y-169661431D01*
X209005134Y-169630110D01*
X209027661Y-169602661D01*
X209055110Y-169580134D01*
X209086431Y-169563393D01*
X209120409Y-169553085D01*
X209161890Y-169549000D01*
X209838110Y-169549000D01*
X209879591Y-169553085D01*
G37*
G36*
X211879591Y-167978085D02*
G01*
X211913569Y-167988393D01*
X211944890Y-168005134D01*
X211972339Y-168027661D01*
X211994866Y-168055110D01*
X212011607Y-168086431D01*
X212021915Y-168120409D01*
X212026000Y-168161890D01*
X212026000Y-168763110D01*
X212021915Y-168804591D01*
X212011607Y-168838569D01*
X211994866Y-168869890D01*
X211972339Y-168897339D01*
X211944890Y-168919866D01*
X211913569Y-168936607D01*
X211879591Y-168946915D01*
X211838110Y-168951000D01*
X211161890Y-168951000D01*
X211120409Y-168946915D01*
X211086431Y-168936607D01*
X211055110Y-168919866D01*
X211027661Y-168897339D01*
X211005134Y-168869890D01*
X210988393Y-168838569D01*
X210978085Y-168804591D01*
X210974000Y-168763110D01*
X210974000Y-168161890D01*
X210978085Y-168120409D01*
X210988393Y-168086431D01*
X211005134Y-168055110D01*
X211027661Y-168027661D01*
X211055110Y-168005134D01*
X211086431Y-167988393D01*
X211120409Y-167978085D01*
X211161890Y-167974000D01*
X211838110Y-167974000D01*
X211879591Y-167978085D01*
G37*
G36*
X205879591Y-167978085D02*
G01*
X205913569Y-167988393D01*
X205944890Y-168005134D01*
X205972339Y-168027661D01*
X205994866Y-168055110D01*
X206011607Y-168086431D01*
X206021915Y-168120409D01*
X206026000Y-168161890D01*
X206026000Y-168763110D01*
X206021915Y-168804591D01*
X206011607Y-168838569D01*
X205994866Y-168869890D01*
X205972339Y-168897339D01*
X205944890Y-168919866D01*
X205913569Y-168936607D01*
X205879591Y-168946915D01*
X205838110Y-168951000D01*
X205161890Y-168951000D01*
X205120409Y-168946915D01*
X205086431Y-168936607D01*
X205055110Y-168919866D01*
X205027661Y-168897339D01*
X205005134Y-168869890D01*
X204988393Y-168838569D01*
X204978085Y-168804591D01*
X204974000Y-168763110D01*
X204974000Y-168161890D01*
X204978085Y-168120409D01*
X204988393Y-168086431D01*
X205005134Y-168055110D01*
X205027661Y-168027661D01*
X205055110Y-168005134D01*
X205086431Y-167988393D01*
X205120409Y-167978085D01*
X205161890Y-167974000D01*
X205838110Y-167974000D01*
X205879591Y-167978085D01*
G37*
G36*
X207879591Y-167978085D02*
G01*
X207913569Y-167988393D01*
X207944890Y-168005134D01*
X207972339Y-168027661D01*
X207994866Y-168055110D01*
X208011607Y-168086431D01*
X208021915Y-168120409D01*
X208026000Y-168161890D01*
X208026000Y-168763110D01*
X208021915Y-168804591D01*
X208011607Y-168838569D01*
X207994866Y-168869890D01*
X207972339Y-168897339D01*
X207944890Y-168919866D01*
X207913569Y-168936607D01*
X207879591Y-168946915D01*
X207838110Y-168951000D01*
X207161890Y-168951000D01*
X207120409Y-168946915D01*
X207086431Y-168936607D01*
X207055110Y-168919866D01*
X207027661Y-168897339D01*
X207005134Y-168869890D01*
X206988393Y-168838569D01*
X206978085Y-168804591D01*
X206974000Y-168763110D01*
X206974000Y-168161890D01*
X206978085Y-168120409D01*
X206988393Y-168086431D01*
X207005134Y-168055110D01*
X207027661Y-168027661D01*
X207055110Y-168005134D01*
X207086431Y-167988393D01*
X207120409Y-167978085D01*
X207161890Y-167974000D01*
X207838110Y-167974000D01*
X207879591Y-167978085D01*
G37*
G36*
X209879591Y-167978085D02*
G01*
X209913569Y-167988393D01*
X209944890Y-168005134D01*
X209972339Y-168027661D01*
X209994866Y-168055110D01*
X210011607Y-168086431D01*
X210021915Y-168120409D01*
X210026000Y-168161890D01*
X210026000Y-168763110D01*
X210021915Y-168804591D01*
X210011607Y-168838569D01*
X209994866Y-168869890D01*
X209972339Y-168897339D01*
X209944890Y-168919866D01*
X209913569Y-168936607D01*
X209879591Y-168946915D01*
X209838110Y-168951000D01*
X209161890Y-168951000D01*
X209120409Y-168946915D01*
X209086431Y-168936607D01*
X209055110Y-168919866D01*
X209027661Y-168897339D01*
X209005134Y-168869890D01*
X208988393Y-168838569D01*
X208978085Y-168804591D01*
X208974000Y-168763110D01*
X208974000Y-168161890D01*
X208978085Y-168120409D01*
X208988393Y-168086431D01*
X209005134Y-168055110D01*
X209027661Y-168027661D01*
X209055110Y-168005134D01*
X209086431Y-167988393D01*
X209120409Y-167978085D01*
X209161890Y-167974000D01*
X209838110Y-167974000D01*
X209879591Y-167978085D01*
G37*
G36*
X198304591Y-167228085D02*
G01*
X198338569Y-167238393D01*
X198369890Y-167255134D01*
X198397339Y-167277661D01*
X198419866Y-167305110D01*
X198436607Y-167336431D01*
X198446915Y-167370409D01*
X198451000Y-167411890D01*
X198451000Y-168088110D01*
X198446915Y-168129591D01*
X198436607Y-168163569D01*
X198419866Y-168194890D01*
X198397339Y-168222339D01*
X198369890Y-168244866D01*
X198338569Y-168261607D01*
X198304591Y-168271915D01*
X198263110Y-168276000D01*
X197661890Y-168276000D01*
X197620409Y-168271915D01*
X197586431Y-168261607D01*
X197555110Y-168244866D01*
X197527661Y-168222339D01*
X197505134Y-168194890D01*
X197488393Y-168163569D01*
X197478085Y-168129591D01*
X197474000Y-168088110D01*
X197474000Y-167411890D01*
X197478085Y-167370409D01*
X197488393Y-167336431D01*
X197505134Y-167305110D01*
X197527661Y-167277661D01*
X197555110Y-167255134D01*
X197586431Y-167238393D01*
X197620409Y-167228085D01*
X197661890Y-167224000D01*
X198263110Y-167224000D01*
X198304591Y-167228085D01*
G37*
G36*
X199879591Y-167228085D02*
G01*
X199913569Y-167238393D01*
X199944890Y-167255134D01*
X199972339Y-167277661D01*
X199994866Y-167305110D01*
X200011607Y-167336431D01*
X200021915Y-167370409D01*
X200026000Y-167411890D01*
X200026000Y-168088110D01*
X200021915Y-168129591D01*
X200011607Y-168163569D01*
X199994866Y-168194890D01*
X199972339Y-168222339D01*
X199944890Y-168244866D01*
X199913569Y-168261607D01*
X199879591Y-168271915D01*
X199838110Y-168276000D01*
X199236890Y-168276000D01*
X199195409Y-168271915D01*
X199161431Y-168261607D01*
X199130110Y-168244866D01*
X199102661Y-168222339D01*
X199080134Y-168194890D01*
X199063393Y-168163569D01*
X199053085Y-168129591D01*
X199049000Y-168088110D01*
X199049000Y-167411890D01*
X199053085Y-167370409D01*
X199063393Y-167336431D01*
X199080134Y-167305110D01*
X199102661Y-167277661D01*
X199130110Y-167255134D01*
X199161431Y-167238393D01*
X199195409Y-167228085D01*
X199236890Y-167224000D01*
X199838110Y-167224000D01*
X199879591Y-167228085D01*
G37*
G36*
X198304591Y-165228085D02*
G01*
X198338569Y-165238393D01*
X198369890Y-165255134D01*
X198397339Y-165277661D01*
X198419866Y-165305110D01*
X198436607Y-165336431D01*
X198446915Y-165370409D01*
X198451000Y-165411890D01*
X198451000Y-166088110D01*
X198446915Y-166129591D01*
X198436607Y-166163569D01*
X198419866Y-166194890D01*
X198397339Y-166222339D01*
X198369890Y-166244866D01*
X198338569Y-166261607D01*
X198304591Y-166271915D01*
X198263110Y-166276000D01*
X197661890Y-166276000D01*
X197620409Y-166271915D01*
X197586431Y-166261607D01*
X197555110Y-166244866D01*
X197527661Y-166222339D01*
X197505134Y-166194890D01*
X197488393Y-166163569D01*
X197478085Y-166129591D01*
X197474000Y-166088110D01*
X197474000Y-165411890D01*
X197478085Y-165370409D01*
X197488393Y-165336431D01*
X197505134Y-165305110D01*
X197527661Y-165277661D01*
X197555110Y-165255134D01*
X197586431Y-165238393D01*
X197620409Y-165228085D01*
X197661890Y-165224000D01*
X198263110Y-165224000D01*
X198304591Y-165228085D01*
G37*
G36*
X199879591Y-165228085D02*
G01*
X199913569Y-165238393D01*
X199944890Y-165255134D01*
X199972339Y-165277661D01*
X199994866Y-165305110D01*
X200011607Y-165336431D01*
X200021915Y-165370409D01*
X200026000Y-165411890D01*
X200026000Y-166088110D01*
X200021915Y-166129591D01*
X200011607Y-166163569D01*
X199994866Y-166194890D01*
X199972339Y-166222339D01*
X199944890Y-166244866D01*
X199913569Y-166261607D01*
X199879591Y-166271915D01*
X199838110Y-166276000D01*
X199236890Y-166276000D01*
X199195409Y-166271915D01*
X199161431Y-166261607D01*
X199130110Y-166244866D01*
X199102661Y-166222339D01*
X199080134Y-166194890D01*
X199063393Y-166163569D01*
X199053085Y-166129591D01*
X199049000Y-166088110D01*
X199049000Y-165411890D01*
X199053085Y-165370409D01*
X199063393Y-165336431D01*
X199080134Y-165305110D01*
X199102661Y-165277661D01*
X199130110Y-165255134D01*
X199161431Y-165238393D01*
X199195409Y-165228085D01*
X199236890Y-165224000D01*
X199838110Y-165224000D01*
X199879591Y-165228085D01*
G37*
G36*
X215804591Y-165228085D02*
G01*
X215838569Y-165238393D01*
X215869890Y-165255134D01*
X215897339Y-165277661D01*
X215919866Y-165305110D01*
X215936607Y-165336431D01*
X215946915Y-165370409D01*
X215951000Y-165411890D01*
X215951000Y-166088110D01*
X215946915Y-166129591D01*
X215936607Y-166163569D01*
X215919866Y-166194890D01*
X215897339Y-166222339D01*
X215869890Y-166244866D01*
X215838569Y-166261607D01*
X215804591Y-166271915D01*
X215763110Y-166276000D01*
X215161890Y-166276000D01*
X215120409Y-166271915D01*
X215086431Y-166261607D01*
X215055110Y-166244866D01*
X215027661Y-166222339D01*
X215005134Y-166194890D01*
X214988393Y-166163569D01*
X214978085Y-166129591D01*
X214974000Y-166088110D01*
X214974000Y-165411890D01*
X214978085Y-165370409D01*
X214988393Y-165336431D01*
X215005134Y-165305110D01*
X215027661Y-165277661D01*
X215055110Y-165255134D01*
X215086431Y-165238393D01*
X215120409Y-165228085D01*
X215161890Y-165224000D01*
X215763110Y-165224000D01*
X215804591Y-165228085D01*
G37*
G36*
X217379591Y-165228085D02*
G01*
X217413569Y-165238393D01*
X217444890Y-165255134D01*
X217472339Y-165277661D01*
X217494866Y-165305110D01*
X217511607Y-165336431D01*
X217521915Y-165370409D01*
X217526000Y-165411890D01*
X217526000Y-166088110D01*
X217521915Y-166129591D01*
X217511607Y-166163569D01*
X217494866Y-166194890D01*
X217472339Y-166222339D01*
X217444890Y-166244866D01*
X217413569Y-166261607D01*
X217379591Y-166271915D01*
X217338110Y-166276000D01*
X216736890Y-166276000D01*
X216695409Y-166271915D01*
X216661431Y-166261607D01*
X216630110Y-166244866D01*
X216602661Y-166222339D01*
X216580134Y-166194890D01*
X216563393Y-166163569D01*
X216553085Y-166129591D01*
X216549000Y-166088110D01*
X216549000Y-165411890D01*
X216553085Y-165370409D01*
X216563393Y-165336431D01*
X216580134Y-165305110D01*
X216602661Y-165277661D01*
X216630110Y-165255134D01*
X216661431Y-165238393D01*
X216695409Y-165228085D01*
X216736890Y-165224000D01*
X217338110Y-165224000D01*
X217379591Y-165228085D01*
G37*
G36*
X199879591Y-163228085D02*
G01*
X199913569Y-163238393D01*
X199944890Y-163255134D01*
X199972339Y-163277661D01*
X199994866Y-163305110D01*
X200011607Y-163336431D01*
X200021915Y-163370409D01*
X200026000Y-163411890D01*
X200026000Y-164088110D01*
X200021915Y-164129591D01*
X200011607Y-164163569D01*
X199994866Y-164194890D01*
X199972339Y-164222339D01*
X199944890Y-164244866D01*
X199913569Y-164261607D01*
X199879591Y-164271915D01*
X199838110Y-164276000D01*
X199236890Y-164276000D01*
X199195409Y-164271915D01*
X199161431Y-164261607D01*
X199130110Y-164244866D01*
X199102661Y-164222339D01*
X199080134Y-164194890D01*
X199063393Y-164163569D01*
X199053085Y-164129591D01*
X199049000Y-164088110D01*
X199049000Y-163411890D01*
X199053085Y-163370409D01*
X199063393Y-163336431D01*
X199080134Y-163305110D01*
X199102661Y-163277661D01*
X199130110Y-163255134D01*
X199161431Y-163238393D01*
X199195409Y-163228085D01*
X199236890Y-163224000D01*
X199838110Y-163224000D01*
X199879591Y-163228085D01*
G37*
G36*
X198304591Y-163228085D02*
G01*
X198338569Y-163238393D01*
X198369890Y-163255134D01*
X198397339Y-163277661D01*
X198419866Y-163305110D01*
X198436607Y-163336431D01*
X198446915Y-163370409D01*
X198451000Y-163411890D01*
X198451000Y-164088110D01*
X198446915Y-164129591D01*
X198436607Y-164163569D01*
X198419866Y-164194890D01*
X198397339Y-164222339D01*
X198369890Y-164244866D01*
X198338569Y-164261607D01*
X198304591Y-164271915D01*
X198263110Y-164276000D01*
X197661890Y-164276000D01*
X197620409Y-164271915D01*
X197586431Y-164261607D01*
X197555110Y-164244866D01*
X197527661Y-164222339D01*
X197505134Y-164194890D01*
X197488393Y-164163569D01*
X197478085Y-164129591D01*
X197474000Y-164088110D01*
X197474000Y-163411890D01*
X197478085Y-163370409D01*
X197488393Y-163336431D01*
X197505134Y-163305110D01*
X197527661Y-163277661D01*
X197555110Y-163255134D01*
X197586431Y-163238393D01*
X197620409Y-163228085D01*
X197661890Y-163224000D01*
X198263110Y-163224000D01*
X198304591Y-163228085D01*
G37*
G36*
X217379591Y-163228085D02*
G01*
X217413569Y-163238393D01*
X217444890Y-163255134D01*
X217472339Y-163277661D01*
X217494866Y-163305110D01*
X217511607Y-163336431D01*
X217521915Y-163370409D01*
X217526000Y-163411890D01*
X217526000Y-164088110D01*
X217521915Y-164129591D01*
X217511607Y-164163569D01*
X217494866Y-164194890D01*
X217472339Y-164222339D01*
X217444890Y-164244866D01*
X217413569Y-164261607D01*
X217379591Y-164271915D01*
X217338110Y-164276000D01*
X216736890Y-164276000D01*
X216695409Y-164271915D01*
X216661431Y-164261607D01*
X216630110Y-164244866D01*
X216602661Y-164222339D01*
X216580134Y-164194890D01*
X216563393Y-164163569D01*
X216553085Y-164129591D01*
X216549000Y-164088110D01*
X216549000Y-163411890D01*
X216553085Y-163370409D01*
X216563393Y-163336431D01*
X216580134Y-163305110D01*
X216602661Y-163277661D01*
X216630110Y-163255134D01*
X216661431Y-163238393D01*
X216695409Y-163228085D01*
X216736890Y-163224000D01*
X217338110Y-163224000D01*
X217379591Y-163228085D01*
G37*
G36*
X215804591Y-163228085D02*
G01*
X215838569Y-163238393D01*
X215869890Y-163255134D01*
X215897339Y-163277661D01*
X215919866Y-163305110D01*
X215936607Y-163336431D01*
X215946915Y-163370409D01*
X215951000Y-163411890D01*
X215951000Y-164088110D01*
X215946915Y-164129591D01*
X215936607Y-164163569D01*
X215919866Y-164194890D01*
X215897339Y-164222339D01*
X215869890Y-164244866D01*
X215838569Y-164261607D01*
X215804591Y-164271915D01*
X215763110Y-164276000D01*
X215161890Y-164276000D01*
X215120409Y-164271915D01*
X215086431Y-164261607D01*
X215055110Y-164244866D01*
X215027661Y-164222339D01*
X215005134Y-164194890D01*
X214988393Y-164163569D01*
X214978085Y-164129591D01*
X214974000Y-164088110D01*
X214974000Y-163411890D01*
X214978085Y-163370409D01*
X214988393Y-163336431D01*
X215005134Y-163305110D01*
X215027661Y-163277661D01*
X215055110Y-163255134D01*
X215086431Y-163238393D01*
X215120409Y-163228085D01*
X215161890Y-163224000D01*
X215763110Y-163224000D01*
X215804591Y-163228085D01*
G37*
G36*
X198304591Y-161228085D02*
G01*
X198338569Y-161238393D01*
X198369890Y-161255134D01*
X198397339Y-161277661D01*
X198419866Y-161305110D01*
X198436607Y-161336431D01*
X198446915Y-161370409D01*
X198451000Y-161411890D01*
X198451000Y-162088110D01*
X198446915Y-162129591D01*
X198436607Y-162163569D01*
X198419866Y-162194890D01*
X198397339Y-162222339D01*
X198369890Y-162244866D01*
X198338569Y-162261607D01*
X198304591Y-162271915D01*
X198263110Y-162276000D01*
X197661890Y-162276000D01*
X197620409Y-162271915D01*
X197586431Y-162261607D01*
X197555110Y-162244866D01*
X197527661Y-162222339D01*
X197505134Y-162194890D01*
X197488393Y-162163569D01*
X197478085Y-162129591D01*
X197474000Y-162088110D01*
X197474000Y-161411890D01*
X197478085Y-161370409D01*
X197488393Y-161336431D01*
X197505134Y-161305110D01*
X197527661Y-161277661D01*
X197555110Y-161255134D01*
X197586431Y-161238393D01*
X197620409Y-161228085D01*
X197661890Y-161224000D01*
X198263110Y-161224000D01*
X198304591Y-161228085D01*
G37*
G36*
X199879591Y-161228085D02*
G01*
X199913569Y-161238393D01*
X199944890Y-161255134D01*
X199972339Y-161277661D01*
X199994866Y-161305110D01*
X200011607Y-161336431D01*
X200021915Y-161370409D01*
X200026000Y-161411890D01*
X200026000Y-162088110D01*
X200021915Y-162129591D01*
X200011607Y-162163569D01*
X199994866Y-162194890D01*
X199972339Y-162222339D01*
X199944890Y-162244866D01*
X199913569Y-162261607D01*
X199879591Y-162271915D01*
X199838110Y-162276000D01*
X199236890Y-162276000D01*
X199195409Y-162271915D01*
X199161431Y-162261607D01*
X199130110Y-162244866D01*
X199102661Y-162222339D01*
X199080134Y-162194890D01*
X199063393Y-162163569D01*
X199053085Y-162129591D01*
X199049000Y-162088110D01*
X199049000Y-161411890D01*
X199053085Y-161370409D01*
X199063393Y-161336431D01*
X199080134Y-161305110D01*
X199102661Y-161277661D01*
X199130110Y-161255134D01*
X199161431Y-161238393D01*
X199195409Y-161228085D01*
X199236890Y-161224000D01*
X199838110Y-161224000D01*
X199879591Y-161228085D01*
G37*
G36*
X207405355Y-155600083D02*
G01*
X207410029Y-155601501D01*
X207414330Y-155603800D01*
X207420702Y-155609029D01*
X207441076Y-155622643D01*
X207463715Y-155632020D01*
X207487749Y-155636800D01*
X207512253Y-155636800D01*
X207536286Y-155632019D01*
X207558925Y-155622642D01*
X207579298Y-155609029D01*
X207585670Y-155603800D01*
X207589971Y-155601501D01*
X207594645Y-155600083D01*
X207605641Y-155599000D01*
X207894359Y-155599000D01*
X207905355Y-155600083D01*
X207910029Y-155601501D01*
X207914330Y-155603800D01*
X207920702Y-155609029D01*
X207941076Y-155622643D01*
X207963715Y-155632020D01*
X207987749Y-155636800D01*
X208012253Y-155636800D01*
X208036286Y-155632019D01*
X208058925Y-155622642D01*
X208079298Y-155609029D01*
X208085670Y-155603800D01*
X208089971Y-155601501D01*
X208094645Y-155600083D01*
X208105641Y-155599000D01*
X208394359Y-155599000D01*
X208405355Y-155600083D01*
X208410029Y-155601501D01*
X208414330Y-155603800D01*
X208420702Y-155609029D01*
X208441076Y-155622643D01*
X208463715Y-155632020D01*
X208487749Y-155636800D01*
X208512253Y-155636800D01*
X208536286Y-155632019D01*
X208558925Y-155622642D01*
X208579298Y-155609029D01*
X208585670Y-155603800D01*
X208589971Y-155601501D01*
X208594645Y-155600083D01*
X208605641Y-155599000D01*
X208894359Y-155599000D01*
X208905355Y-155600083D01*
X208910029Y-155601501D01*
X208914330Y-155603800D01*
X208920702Y-155609029D01*
X208941076Y-155622643D01*
X208963715Y-155632020D01*
X208987749Y-155636800D01*
X209012253Y-155636800D01*
X209036286Y-155632019D01*
X209058925Y-155622642D01*
X209079298Y-155609029D01*
X209085670Y-155603800D01*
X209089971Y-155601501D01*
X209094645Y-155600083D01*
X209105641Y-155599000D01*
X209394359Y-155599000D01*
X209405355Y-155600083D01*
X209410029Y-155601501D01*
X209414330Y-155603800D01*
X209420702Y-155609029D01*
X209441076Y-155622643D01*
X209463715Y-155632020D01*
X209487749Y-155636800D01*
X209512253Y-155636800D01*
X209536286Y-155632019D01*
X209558925Y-155622642D01*
X209579298Y-155609029D01*
X209585670Y-155603800D01*
X209589971Y-155601501D01*
X209594645Y-155600083D01*
X209605641Y-155599000D01*
X209894359Y-155599000D01*
X209905355Y-155600083D01*
X209910029Y-155601501D01*
X209914330Y-155603800D01*
X209920702Y-155609029D01*
X209941076Y-155622643D01*
X209963715Y-155632020D01*
X209987749Y-155636800D01*
X210012253Y-155636800D01*
X210036286Y-155632019D01*
X210058925Y-155622642D01*
X210079298Y-155609029D01*
X210085670Y-155603800D01*
X210089971Y-155601501D01*
X210094645Y-155600083D01*
X210105641Y-155599000D01*
X210394359Y-155599000D01*
X210405355Y-155600083D01*
X210410029Y-155601501D01*
X210414330Y-155603800D01*
X210420702Y-155609029D01*
X210441076Y-155622643D01*
X210463715Y-155632020D01*
X210487749Y-155636800D01*
X210512253Y-155636800D01*
X210536286Y-155632019D01*
X210558925Y-155622642D01*
X210579298Y-155609029D01*
X210585670Y-155603800D01*
X210589971Y-155601501D01*
X210594645Y-155600083D01*
X210605641Y-155599000D01*
X210894359Y-155599000D01*
X210905355Y-155600083D01*
X210910029Y-155601501D01*
X210914331Y-155603800D01*
X210918104Y-155606896D01*
X210921200Y-155610669D01*
X210923499Y-155614971D01*
X210924917Y-155619645D01*
X210926000Y-155630641D01*
X210926000Y-156419357D01*
X210924034Y-156439315D01*
X210924034Y-156449034D01*
X210914317Y-156449034D01*
X210902722Y-156450176D01*
X210878689Y-156454956D01*
X210856050Y-156464334D01*
X210835676Y-156477947D01*
X210818349Y-156495274D01*
X210804735Y-156515649D01*
X210795357Y-156538288D01*
X210790577Y-156562321D01*
X210790577Y-156586825D01*
X210795357Y-156610858D01*
X210804735Y-156633497D01*
X210818348Y-156653871D01*
X210828803Y-156664327D01*
X210828805Y-156664329D01*
X210846133Y-156681656D01*
X210866508Y-156695268D01*
X210889148Y-156704644D01*
X210913181Y-156709424D01*
X210937685Y-156709422D01*
X210961718Y-156704641D01*
X210984357Y-156695262D01*
X211004730Y-156681648D01*
X211022057Y-156664320D01*
X211035669Y-156643945D01*
X211045045Y-156621305D01*
X211049824Y-156597278D01*
X211050966Y-156585683D01*
X211050966Y-156575966D01*
X211060685Y-156575966D01*
X211080643Y-156574000D01*
X211869359Y-156574000D01*
X211880355Y-156575083D01*
X211885029Y-156576501D01*
X211889331Y-156578800D01*
X211893104Y-156581896D01*
X211896200Y-156585669D01*
X211898499Y-156589971D01*
X211899917Y-156594645D01*
X211901000Y-156605641D01*
X211901000Y-156894359D01*
X211899917Y-156905355D01*
X211898499Y-156910029D01*
X211896200Y-156914330D01*
X211890971Y-156920702D01*
X211877357Y-156941076D01*
X211867980Y-156963715D01*
X211863200Y-156987749D01*
X211863200Y-157012253D01*
X211867981Y-157036286D01*
X211877358Y-157058925D01*
X211890971Y-157079298D01*
X211896200Y-157085670D01*
X211898499Y-157089971D01*
X211899917Y-157094645D01*
X211901000Y-157105641D01*
X211901000Y-157394359D01*
X211899917Y-157405355D01*
X211898499Y-157410029D01*
X211896200Y-157414330D01*
X211890971Y-157420702D01*
X211877357Y-157441076D01*
X211867980Y-157463715D01*
X211863200Y-157487749D01*
X211863200Y-157512253D01*
X211867981Y-157536286D01*
X211877358Y-157558925D01*
X211890971Y-157579298D01*
X211896200Y-157585670D01*
X211898499Y-157589971D01*
X211899917Y-157594645D01*
X211901000Y-157605641D01*
X211901000Y-157894359D01*
X211899917Y-157905355D01*
X211898499Y-157910029D01*
X211896200Y-157914330D01*
X211890971Y-157920702D01*
X211877357Y-157941076D01*
X211867980Y-157963715D01*
X211863200Y-157987749D01*
X211863200Y-158012253D01*
X211867981Y-158036286D01*
X211877358Y-158058925D01*
X211890971Y-158079298D01*
X211896200Y-158085670D01*
X211898499Y-158089971D01*
X211899917Y-158094645D01*
X211901000Y-158105641D01*
X211901000Y-158394359D01*
X211899917Y-158405355D01*
X211898499Y-158410029D01*
X211896200Y-158414330D01*
X211890971Y-158420702D01*
X211877357Y-158441076D01*
X211867980Y-158463715D01*
X211863200Y-158487749D01*
X211863200Y-158512253D01*
X211867981Y-158536286D01*
X211877358Y-158558925D01*
X211890971Y-158579298D01*
X211896200Y-158585670D01*
X211898499Y-158589971D01*
X211899917Y-158594645D01*
X211901000Y-158605641D01*
X211901000Y-158894359D01*
X211899917Y-158905355D01*
X211898499Y-158910029D01*
X211896200Y-158914330D01*
X211890971Y-158920702D01*
X211877357Y-158941076D01*
X211867980Y-158963715D01*
X211863200Y-158987749D01*
X211863200Y-159012253D01*
X211867981Y-159036286D01*
X211877358Y-159058925D01*
X211890971Y-159079298D01*
X211896200Y-159085670D01*
X211898499Y-159089971D01*
X211899917Y-159094645D01*
X211901000Y-159105641D01*
X211901000Y-159394359D01*
X211899917Y-159405355D01*
X211898499Y-159410029D01*
X211896200Y-159414330D01*
X211890971Y-159420702D01*
X211877357Y-159441076D01*
X211867980Y-159463715D01*
X211863200Y-159487749D01*
X211863200Y-159512253D01*
X211867981Y-159536286D01*
X211877358Y-159558925D01*
X211890971Y-159579298D01*
X211896200Y-159585670D01*
X211898499Y-159589971D01*
X211899917Y-159594645D01*
X211901000Y-159605641D01*
X211901000Y-159894359D01*
X211899917Y-159905355D01*
X211898499Y-159910029D01*
X211896200Y-159914330D01*
X211890971Y-159920702D01*
X211877357Y-159941076D01*
X211867980Y-159963715D01*
X211863200Y-159987749D01*
X211863200Y-160012253D01*
X211867981Y-160036286D01*
X211877358Y-160058925D01*
X211890971Y-160079298D01*
X211896200Y-160085670D01*
X211898499Y-160089971D01*
X211899917Y-160094645D01*
X211901000Y-160105641D01*
X211901000Y-160394359D01*
X211899917Y-160405355D01*
X211898499Y-160410029D01*
X211896200Y-160414331D01*
X211893104Y-160418104D01*
X211889331Y-160421200D01*
X211885029Y-160423499D01*
X211880355Y-160424917D01*
X211869359Y-160426000D01*
X211080643Y-160426000D01*
X211060685Y-160424034D01*
X211050966Y-160424034D01*
X211050966Y-160414317D01*
X211049824Y-160402722D01*
X211045044Y-160378689D01*
X211035666Y-160356050D01*
X211022053Y-160335676D01*
X211004726Y-160318349D01*
X210984351Y-160304735D01*
X210961712Y-160295357D01*
X210937679Y-160290577D01*
X210913175Y-160290577D01*
X210889142Y-160295357D01*
X210866503Y-160304735D01*
X210846129Y-160318348D01*
X210835673Y-160328803D01*
X210835671Y-160328805D01*
X210818344Y-160346133D01*
X210804732Y-160366508D01*
X210795356Y-160389148D01*
X210790576Y-160413181D01*
X210790578Y-160437685D01*
X210795359Y-160461718D01*
X210804738Y-160484357D01*
X210818352Y-160504730D01*
X210835680Y-160522057D01*
X210856055Y-160535669D01*
X210878695Y-160545045D01*
X210902722Y-160549824D01*
X210914317Y-160550966D01*
X210924034Y-160550966D01*
X210924034Y-160560685D01*
X210926000Y-160580643D01*
X210926000Y-161369359D01*
X210924917Y-161380355D01*
X210923499Y-161385029D01*
X210921200Y-161389331D01*
X210918104Y-161393104D01*
X210914331Y-161396200D01*
X210910029Y-161398499D01*
X210905355Y-161399917D01*
X210894359Y-161401000D01*
X210605641Y-161401000D01*
X210594645Y-161399917D01*
X210589971Y-161398499D01*
X210585670Y-161396200D01*
X210579298Y-161390971D01*
X210558924Y-161377357D01*
X210536285Y-161367980D01*
X210512251Y-161363200D01*
X210487747Y-161363200D01*
X210463714Y-161367981D01*
X210441075Y-161377358D01*
X210420702Y-161390971D01*
X210414330Y-161396200D01*
X210410029Y-161398499D01*
X210405355Y-161399917D01*
X210394359Y-161401000D01*
X210105641Y-161401000D01*
X210094645Y-161399917D01*
X210089971Y-161398499D01*
X210085670Y-161396200D01*
X210079298Y-161390971D01*
X210058924Y-161377357D01*
X210036285Y-161367980D01*
X210012251Y-161363200D01*
X209987747Y-161363200D01*
X209963714Y-161367981D01*
X209941075Y-161377358D01*
X209920702Y-161390971D01*
X209914330Y-161396200D01*
X209910029Y-161398499D01*
X209905355Y-161399917D01*
X209894359Y-161401000D01*
X209605641Y-161401000D01*
X209594645Y-161399917D01*
X209589971Y-161398499D01*
X209585670Y-161396200D01*
X209579298Y-161390971D01*
X209558924Y-161377357D01*
X209536285Y-161367980D01*
X209512251Y-161363200D01*
X209487747Y-161363200D01*
X209463714Y-161367981D01*
X209441075Y-161377358D01*
X209420702Y-161390971D01*
X209414330Y-161396200D01*
X209410029Y-161398499D01*
X209405355Y-161399917D01*
X209394359Y-161401000D01*
X209105641Y-161401000D01*
X209094645Y-161399917D01*
X209089971Y-161398499D01*
X209085670Y-161396200D01*
X209079298Y-161390971D01*
X209058924Y-161377357D01*
X209036285Y-161367980D01*
X209012251Y-161363200D01*
X208987747Y-161363200D01*
X208963714Y-161367981D01*
X208941075Y-161377358D01*
X208920702Y-161390971D01*
X208914330Y-161396200D01*
X208910029Y-161398499D01*
X208905355Y-161399917D01*
X208894359Y-161401000D01*
X208605641Y-161401000D01*
X208594645Y-161399917D01*
X208589971Y-161398499D01*
X208585670Y-161396200D01*
X208579298Y-161390971D01*
X208558924Y-161377357D01*
X208536285Y-161367980D01*
X208512251Y-161363200D01*
X208487747Y-161363200D01*
X208463714Y-161367981D01*
X208441075Y-161377358D01*
X208420702Y-161390971D01*
X208414330Y-161396200D01*
X208410029Y-161398499D01*
X208405355Y-161399917D01*
X208394359Y-161401000D01*
X208105641Y-161401000D01*
X208094645Y-161399917D01*
X208089971Y-161398499D01*
X208085670Y-161396200D01*
X208079298Y-161390971D01*
X208058924Y-161377357D01*
X208036285Y-161367980D01*
X208012251Y-161363200D01*
X207987747Y-161363200D01*
X207963714Y-161367981D01*
X207941075Y-161377358D01*
X207920702Y-161390971D01*
X207914330Y-161396200D01*
X207910029Y-161398499D01*
X207905355Y-161399917D01*
X207894359Y-161401000D01*
X207605641Y-161401000D01*
X207594645Y-161399917D01*
X207589971Y-161398499D01*
X207585670Y-161396200D01*
X207579298Y-161390971D01*
X207558924Y-161377357D01*
X207536285Y-161367980D01*
X207512251Y-161363200D01*
X207487747Y-161363200D01*
X207463714Y-161367981D01*
X207441075Y-161377358D01*
X207420702Y-161390971D01*
X207414330Y-161396200D01*
X207410029Y-161398499D01*
X207405355Y-161399917D01*
X207394359Y-161401000D01*
X207105641Y-161401000D01*
X207094645Y-161399917D01*
X207089971Y-161398499D01*
X207085669Y-161396200D01*
X207081896Y-161393104D01*
X207078800Y-161389331D01*
X207076501Y-161385029D01*
X207075083Y-161380355D01*
X207074000Y-161369359D01*
X207074000Y-160580643D01*
X207075966Y-160560685D01*
X207075966Y-160550966D01*
X207085683Y-160550966D01*
X207097278Y-160549824D01*
X207121311Y-160545044D01*
X207143950Y-160535666D01*
X207164324Y-160522053D01*
X207181651Y-160504726D01*
X207195265Y-160484351D01*
X207204643Y-160461712D01*
X207209423Y-160437679D01*
X207209423Y-160413175D01*
X207204643Y-160389142D01*
X207195265Y-160366503D01*
X207181652Y-160346129D01*
X207164329Y-160328805D01*
X207164327Y-160328803D01*
X207153867Y-160318344D01*
X207133492Y-160304732D01*
X207110852Y-160295356D01*
X207086819Y-160290576D01*
X207062315Y-160290578D01*
X207038282Y-160295359D01*
X207015643Y-160304738D01*
X206995270Y-160318352D01*
X206977943Y-160335680D01*
X206964331Y-160356055D01*
X206954955Y-160378695D01*
X206950176Y-160402722D01*
X206949034Y-160414317D01*
X206949034Y-160424034D01*
X206939315Y-160424034D01*
X206919357Y-160426000D01*
X206130641Y-160426000D01*
X206119645Y-160424917D01*
X206114971Y-160423499D01*
X206110669Y-160421200D01*
X206106896Y-160418104D01*
X206103800Y-160414331D01*
X206101501Y-160410029D01*
X206100083Y-160405355D01*
X206099000Y-160394359D01*
X206099000Y-160105641D01*
X206100083Y-160094645D01*
X206101501Y-160089971D01*
X206103800Y-160085670D01*
X206109029Y-160079298D01*
X206122643Y-160058924D01*
X206132020Y-160036285D01*
X206136800Y-160012251D01*
X206136800Y-159987747D01*
X206132019Y-159963714D01*
X206122642Y-159941075D01*
X206109029Y-159920702D01*
X206103800Y-159914330D01*
X206101501Y-159910029D01*
X206100083Y-159905355D01*
X206099000Y-159894359D01*
X206099000Y-159605641D01*
X206100083Y-159594645D01*
X206101501Y-159589971D01*
X206103800Y-159585670D01*
X206109029Y-159579298D01*
X206122643Y-159558924D01*
X206132020Y-159536285D01*
X206136800Y-159512251D01*
X206136800Y-159487747D01*
X206132019Y-159463714D01*
X206122642Y-159441075D01*
X206109029Y-159420702D01*
X206103800Y-159414330D01*
X206101501Y-159410029D01*
X206100083Y-159405355D01*
X206099000Y-159394359D01*
X206099000Y-159105641D01*
X206100083Y-159094645D01*
X206101501Y-159089971D01*
X206103800Y-159085670D01*
X206109029Y-159079298D01*
X206122643Y-159058924D01*
X206132020Y-159036285D01*
X206136800Y-159012251D01*
X206136800Y-158987747D01*
X206132019Y-158963714D01*
X206122642Y-158941075D01*
X206109029Y-158920702D01*
X206103800Y-158914330D01*
X206101501Y-158910029D01*
X206100083Y-158905355D01*
X206099000Y-158894359D01*
X206099000Y-158605641D01*
X206100083Y-158594645D01*
X206101501Y-158589971D01*
X206103800Y-158585670D01*
X206109029Y-158579298D01*
X206122643Y-158558924D01*
X206132020Y-158536285D01*
X206136800Y-158512251D01*
X206136800Y-158487747D01*
X206132019Y-158463714D01*
X206122642Y-158441075D01*
X206109029Y-158420702D01*
X206103800Y-158414330D01*
X206101501Y-158410029D01*
X206100083Y-158405355D01*
X206099000Y-158394359D01*
X206099000Y-158105641D01*
X206100083Y-158094645D01*
X206101501Y-158089971D01*
X206103800Y-158085670D01*
X206109029Y-158079298D01*
X206122643Y-158058924D01*
X206132020Y-158036285D01*
X206136800Y-158012251D01*
X206136800Y-157987747D01*
X206132019Y-157963714D01*
X206122642Y-157941075D01*
X206109029Y-157920702D01*
X206103800Y-157914330D01*
X206101501Y-157910029D01*
X206100083Y-157905355D01*
X206099000Y-157894359D01*
X206099000Y-157605641D01*
X206100083Y-157594645D01*
X206101501Y-157589971D01*
X206103800Y-157585670D01*
X206109029Y-157579298D01*
X206122643Y-157558924D01*
X206132020Y-157536285D01*
X206136800Y-157512251D01*
X206136800Y-157487747D01*
X206132019Y-157463714D01*
X206122642Y-157441075D01*
X206109029Y-157420702D01*
X206103800Y-157414330D01*
X206101501Y-157410029D01*
X206100083Y-157405355D01*
X206099000Y-157394359D01*
X206099000Y-157105641D01*
X206100083Y-157094645D01*
X206101501Y-157089971D01*
X206103800Y-157085670D01*
X206109029Y-157079298D01*
X206122643Y-157058924D01*
X206132020Y-157036285D01*
X206136800Y-157012251D01*
X206136800Y-156987747D01*
X206132019Y-156963714D01*
X206122642Y-156941075D01*
X206109029Y-156920702D01*
X206103800Y-156914330D01*
X206101501Y-156910029D01*
X206100083Y-156905355D01*
X206099000Y-156894359D01*
X206099000Y-156605641D01*
X206100083Y-156594645D01*
X206101501Y-156589971D01*
X206103800Y-156585669D01*
X206106896Y-156581896D01*
X206110669Y-156578800D01*
X206114971Y-156576501D01*
X206119645Y-156575083D01*
X206130641Y-156574000D01*
X206919357Y-156574000D01*
X206939315Y-156575966D01*
X206949034Y-156575966D01*
X206949034Y-156585683D01*
X206950176Y-156597278D01*
X206954956Y-156621311D01*
X206964334Y-156643950D01*
X206977947Y-156664324D01*
X206995274Y-156681651D01*
X207015649Y-156695265D01*
X207038288Y-156704643D01*
X207062321Y-156709423D01*
X207086825Y-156709423D01*
X207110858Y-156704643D01*
X207133497Y-156695265D01*
X207153871Y-156681652D01*
X207171195Y-156664329D01*
X207171197Y-156664327D01*
X207181656Y-156653867D01*
X207195268Y-156633492D01*
X207204644Y-156610852D01*
X207209424Y-156586819D01*
X207209422Y-156562315D01*
X207204641Y-156538282D01*
X207195262Y-156515643D01*
X207181648Y-156495270D01*
X207164320Y-156477943D01*
X207143945Y-156464331D01*
X207121305Y-156454955D01*
X207097278Y-156450176D01*
X207085683Y-156449034D01*
X207075966Y-156449034D01*
X207075966Y-156439315D01*
X207074000Y-156419357D01*
X207074000Y-155630641D01*
X207075083Y-155619645D01*
X207076501Y-155614971D01*
X207078800Y-155610669D01*
X207081896Y-155606896D01*
X207085669Y-155603800D01*
X207089971Y-155601501D01*
X207094645Y-155600083D01*
X207105641Y-155599000D01*
X207394359Y-155599000D01*
X207405355Y-155600083D01*
G37*
G36*
X199879591Y-159228085D02*
G01*
X199913569Y-159238393D01*
X199944890Y-159255134D01*
X199972339Y-159277661D01*
X199994866Y-159305110D01*
X200011607Y-159336431D01*
X200021915Y-159370409D01*
X200026000Y-159411890D01*
X200026000Y-160088110D01*
X200021915Y-160129591D01*
X200011607Y-160163569D01*
X199994866Y-160194890D01*
X199972339Y-160222339D01*
X199944890Y-160244866D01*
X199913569Y-160261607D01*
X199879591Y-160271915D01*
X199838110Y-160276000D01*
X199236890Y-160276000D01*
X199195409Y-160271915D01*
X199161431Y-160261607D01*
X199130110Y-160244866D01*
X199102661Y-160222339D01*
X199080134Y-160194890D01*
X199063393Y-160163569D01*
X199053085Y-160129591D01*
X199049000Y-160088110D01*
X199049000Y-159411890D01*
X199053085Y-159370409D01*
X199063393Y-159336431D01*
X199080134Y-159305110D01*
X199102661Y-159277661D01*
X199130110Y-159255134D01*
X199161431Y-159238393D01*
X199195409Y-159228085D01*
X199236890Y-159224000D01*
X199838110Y-159224000D01*
X199879591Y-159228085D01*
G37*
G36*
X198304591Y-159228085D02*
G01*
X198338569Y-159238393D01*
X198369890Y-159255134D01*
X198397339Y-159277661D01*
X198419866Y-159305110D01*
X198436607Y-159336431D01*
X198446915Y-159370409D01*
X198451000Y-159411890D01*
X198451000Y-160088110D01*
X198446915Y-160129591D01*
X198436607Y-160163569D01*
X198419866Y-160194890D01*
X198397339Y-160222339D01*
X198369890Y-160244866D01*
X198338569Y-160261607D01*
X198304591Y-160271915D01*
X198263110Y-160276000D01*
X197661890Y-160276000D01*
X197620409Y-160271915D01*
X197586431Y-160261607D01*
X197555110Y-160244866D01*
X197527661Y-160222339D01*
X197505134Y-160194890D01*
X197488393Y-160163569D01*
X197478085Y-160129591D01*
X197474000Y-160088110D01*
X197474000Y-159411890D01*
X197478085Y-159370409D01*
X197488393Y-159336431D01*
X197505134Y-159305110D01*
X197527661Y-159277661D01*
X197555110Y-159255134D01*
X197586431Y-159238393D01*
X197620409Y-159228085D01*
X197661890Y-159224000D01*
X198263110Y-159224000D01*
X198304591Y-159228085D01*
G37*
G36*
X198304591Y-157228085D02*
G01*
X198338569Y-157238393D01*
X198369890Y-157255134D01*
X198397339Y-157277661D01*
X198419866Y-157305110D01*
X198436607Y-157336431D01*
X198446915Y-157370409D01*
X198451000Y-157411890D01*
X198451000Y-158088110D01*
X198446915Y-158129591D01*
X198436607Y-158163569D01*
X198419866Y-158194890D01*
X198397339Y-158222339D01*
X198369890Y-158244866D01*
X198338569Y-158261607D01*
X198304591Y-158271915D01*
X198263110Y-158276000D01*
X197661890Y-158276000D01*
X197620409Y-158271915D01*
X197586431Y-158261607D01*
X197555110Y-158244866D01*
X197527661Y-158222339D01*
X197505134Y-158194890D01*
X197488393Y-158163569D01*
X197478085Y-158129591D01*
X197474000Y-158088110D01*
X197474000Y-157411890D01*
X197478085Y-157370409D01*
X197488393Y-157336431D01*
X197505134Y-157305110D01*
X197527661Y-157277661D01*
X197555110Y-157255134D01*
X197586431Y-157238393D01*
X197620409Y-157228085D01*
X197661890Y-157224000D01*
X198263110Y-157224000D01*
X198304591Y-157228085D01*
G37*
G36*
X215629591Y-157228085D02*
G01*
X215663569Y-157238393D01*
X215694890Y-157255134D01*
X215722339Y-157277661D01*
X215744866Y-157305110D01*
X215761607Y-157336431D01*
X215771915Y-157370409D01*
X215776000Y-157411890D01*
X215776000Y-158088110D01*
X215771915Y-158129591D01*
X215761607Y-158163569D01*
X215744866Y-158194890D01*
X215722339Y-158222339D01*
X215694890Y-158244866D01*
X215663569Y-158261607D01*
X215629591Y-158271915D01*
X215588110Y-158276000D01*
X214986890Y-158276000D01*
X214945409Y-158271915D01*
X214911431Y-158261607D01*
X214880110Y-158244866D01*
X214852661Y-158222339D01*
X214830134Y-158194890D01*
X214813393Y-158163569D01*
X214803085Y-158129591D01*
X214799000Y-158088110D01*
X214799000Y-157411890D01*
X214803085Y-157370409D01*
X214813393Y-157336431D01*
X214830134Y-157305110D01*
X214852661Y-157277661D01*
X214880110Y-157255134D01*
X214911431Y-157238393D01*
X214945409Y-157228085D01*
X214986890Y-157224000D01*
X215588110Y-157224000D01*
X215629591Y-157228085D01*
G37*
G36*
X199879591Y-157228085D02*
G01*
X199913569Y-157238393D01*
X199944890Y-157255134D01*
X199972339Y-157277661D01*
X199994866Y-157305110D01*
X200011607Y-157336431D01*
X200021915Y-157370409D01*
X200026000Y-157411890D01*
X200026000Y-158088110D01*
X200021915Y-158129591D01*
X200011607Y-158163569D01*
X199994866Y-158194890D01*
X199972339Y-158222339D01*
X199944890Y-158244866D01*
X199913569Y-158261607D01*
X199879591Y-158271915D01*
X199838110Y-158276000D01*
X199236890Y-158276000D01*
X199195409Y-158271915D01*
X199161431Y-158261607D01*
X199130110Y-158244866D01*
X199102661Y-158222339D01*
X199080134Y-158194890D01*
X199063393Y-158163569D01*
X199053085Y-158129591D01*
X199049000Y-158088110D01*
X199049000Y-157411890D01*
X199053085Y-157370409D01*
X199063393Y-157336431D01*
X199080134Y-157305110D01*
X199102661Y-157277661D01*
X199130110Y-157255134D01*
X199161431Y-157238393D01*
X199195409Y-157228085D01*
X199236890Y-157224000D01*
X199838110Y-157224000D01*
X199879591Y-157228085D01*
G37*
G36*
X214054591Y-157228085D02*
G01*
X214088569Y-157238393D01*
X214119890Y-157255134D01*
X214147339Y-157277661D01*
X214169866Y-157305110D01*
X214186607Y-157336431D01*
X214196915Y-157370409D01*
X214201000Y-157411890D01*
X214201000Y-158088110D01*
X214196915Y-158129591D01*
X214186607Y-158163569D01*
X214169866Y-158194890D01*
X214147339Y-158222339D01*
X214119890Y-158244866D01*
X214088569Y-158261607D01*
X214054591Y-158271915D01*
X214013110Y-158276000D01*
X213411890Y-158276000D01*
X213370409Y-158271915D01*
X213336431Y-158261607D01*
X213305110Y-158244866D01*
X213277661Y-158222339D01*
X213255134Y-158194890D01*
X213238393Y-158163569D01*
X213228085Y-158129591D01*
X213224000Y-158088110D01*
X213224000Y-157411890D01*
X213228085Y-157370409D01*
X213238393Y-157336431D01*
X213255134Y-157305110D01*
X213277661Y-157277661D01*
X213305110Y-157255134D01*
X213336431Y-157238393D01*
X213370409Y-157228085D01*
X213411890Y-157224000D01*
X214013110Y-157224000D01*
X214054591Y-157228085D01*
G37*
G36*
X215629591Y-155228085D02*
G01*
X215663569Y-155238393D01*
X215694890Y-155255134D01*
X215722339Y-155277661D01*
X215744866Y-155305110D01*
X215761607Y-155336431D01*
X215771915Y-155370409D01*
X215776000Y-155411890D01*
X215776000Y-156088110D01*
X215771915Y-156129591D01*
X215761607Y-156163569D01*
X215744866Y-156194890D01*
X215722339Y-156222339D01*
X215694890Y-156244866D01*
X215663569Y-156261607D01*
X215629591Y-156271915D01*
X215588110Y-156276000D01*
X214986890Y-156276000D01*
X214945409Y-156271915D01*
X214911431Y-156261607D01*
X214880110Y-156244866D01*
X214852661Y-156222339D01*
X214830134Y-156194890D01*
X214813393Y-156163569D01*
X214803085Y-156129591D01*
X214799000Y-156088110D01*
X214799000Y-155411890D01*
X214803085Y-155370409D01*
X214813393Y-155336431D01*
X214830134Y-155305110D01*
X214852661Y-155277661D01*
X214880110Y-155255134D01*
X214911431Y-155238393D01*
X214945409Y-155228085D01*
X214986890Y-155224000D01*
X215588110Y-155224000D01*
X215629591Y-155228085D01*
G37*
G36*
X214054591Y-155228085D02*
G01*
X214088569Y-155238393D01*
X214119890Y-155255134D01*
X214147339Y-155277661D01*
X214169866Y-155305110D01*
X214186607Y-155336431D01*
X214196915Y-155370409D01*
X214201000Y-155411890D01*
X214201000Y-156088110D01*
X214196915Y-156129591D01*
X214186607Y-156163569D01*
X214169866Y-156194890D01*
X214147339Y-156222339D01*
X214119890Y-156244866D01*
X214088569Y-156261607D01*
X214054591Y-156271915D01*
X214013110Y-156276000D01*
X213411890Y-156276000D01*
X213370409Y-156271915D01*
X213336431Y-156261607D01*
X213305110Y-156244866D01*
X213277661Y-156222339D01*
X213255134Y-156194890D01*
X213238393Y-156163569D01*
X213228085Y-156129591D01*
X213224000Y-156088110D01*
X213224000Y-155411890D01*
X213228085Y-155370409D01*
X213238393Y-155336431D01*
X213255134Y-155305110D01*
X213277661Y-155277661D01*
X213305110Y-155255134D01*
X213336431Y-155238393D01*
X213370409Y-155228085D01*
X213411890Y-155224000D01*
X214013110Y-155224000D01*
X214054591Y-155228085D01*
G37*
G36*
X199879591Y-155228085D02*
G01*
X199913569Y-155238393D01*
X199944890Y-155255134D01*
X199972339Y-155277661D01*
X199994866Y-155305110D01*
X200011607Y-155336431D01*
X200021915Y-155370409D01*
X200026000Y-155411890D01*
X200026000Y-156088110D01*
X200021915Y-156129591D01*
X200011607Y-156163569D01*
X199994866Y-156194890D01*
X199972339Y-156222339D01*
X199944890Y-156244866D01*
X199913569Y-156261607D01*
X199879591Y-156271915D01*
X199838110Y-156276000D01*
X199236890Y-156276000D01*
X199195409Y-156271915D01*
X199161431Y-156261607D01*
X199130110Y-156244866D01*
X199102661Y-156222339D01*
X199080134Y-156194890D01*
X199063393Y-156163569D01*
X199053085Y-156129591D01*
X199049000Y-156088110D01*
X199049000Y-155411890D01*
X199053085Y-155370409D01*
X199063393Y-155336431D01*
X199080134Y-155305110D01*
X199102661Y-155277661D01*
X199130110Y-155255134D01*
X199161431Y-155238393D01*
X199195409Y-155228085D01*
X199236890Y-155224000D01*
X199838110Y-155224000D01*
X199879591Y-155228085D01*
G37*
G36*
X198304591Y-155228085D02*
G01*
X198338569Y-155238393D01*
X198369890Y-155255134D01*
X198397339Y-155277661D01*
X198419866Y-155305110D01*
X198436607Y-155336431D01*
X198446915Y-155370409D01*
X198451000Y-155411890D01*
X198451000Y-156088110D01*
X198446915Y-156129591D01*
X198436607Y-156163569D01*
X198419866Y-156194890D01*
X198397339Y-156222339D01*
X198369890Y-156244866D01*
X198338569Y-156261607D01*
X198304591Y-156271915D01*
X198263110Y-156276000D01*
X197661890Y-156276000D01*
X197620409Y-156271915D01*
X197586431Y-156261607D01*
X197555110Y-156244866D01*
X197527661Y-156222339D01*
X197505134Y-156194890D01*
X197488393Y-156163569D01*
X197478085Y-156129591D01*
X197474000Y-156088110D01*
X197474000Y-155411890D01*
X197478085Y-155370409D01*
X197488393Y-155336431D01*
X197505134Y-155305110D01*
X197527661Y-155277661D01*
X197555110Y-155255134D01*
X197586431Y-155238393D01*
X197620409Y-155228085D01*
X197661890Y-155224000D01*
X198263110Y-155224000D01*
X198304591Y-155228085D01*
G37*
G36*
X198304591Y-153228085D02*
G01*
X198338569Y-153238393D01*
X198369890Y-153255134D01*
X198397339Y-153277661D01*
X198419866Y-153305110D01*
X198436607Y-153336431D01*
X198446915Y-153370409D01*
X198451000Y-153411890D01*
X198451000Y-154088110D01*
X198446915Y-154129591D01*
X198436607Y-154163569D01*
X198419866Y-154194890D01*
X198397339Y-154222339D01*
X198369890Y-154244866D01*
X198338569Y-154261607D01*
X198304591Y-154271915D01*
X198263110Y-154276000D01*
X197661890Y-154276000D01*
X197620409Y-154271915D01*
X197586431Y-154261607D01*
X197555110Y-154244866D01*
X197527661Y-154222339D01*
X197505134Y-154194890D01*
X197488393Y-154163569D01*
X197478085Y-154129591D01*
X197474000Y-154088110D01*
X197474000Y-153411890D01*
X197478085Y-153370409D01*
X197488393Y-153336431D01*
X197505134Y-153305110D01*
X197527661Y-153277661D01*
X197555110Y-153255134D01*
X197586431Y-153238393D01*
X197620409Y-153228085D01*
X197661890Y-153224000D01*
X198263110Y-153224000D01*
X198304591Y-153228085D01*
G37*
G36*
X199879591Y-153228085D02*
G01*
X199913569Y-153238393D01*
X199944890Y-153255134D01*
X199972339Y-153277661D01*
X199994866Y-153305110D01*
X200011607Y-153336431D01*
X200021915Y-153370409D01*
X200026000Y-153411890D01*
X200026000Y-154088110D01*
X200021915Y-154129591D01*
X200011607Y-154163569D01*
X199994866Y-154194890D01*
X199972339Y-154222339D01*
X199944890Y-154244866D01*
X199913569Y-154261607D01*
X199879591Y-154271915D01*
X199838110Y-154276000D01*
X199236890Y-154276000D01*
X199195409Y-154271915D01*
X199161431Y-154261607D01*
X199130110Y-154244866D01*
X199102661Y-154222339D01*
X199080134Y-154194890D01*
X199063393Y-154163569D01*
X199053085Y-154129591D01*
X199049000Y-154088110D01*
X199049000Y-153411890D01*
X199053085Y-153370409D01*
X199063393Y-153336431D01*
X199080134Y-153305110D01*
X199102661Y-153277661D01*
X199130110Y-153255134D01*
X199161431Y-153238393D01*
X199195409Y-153228085D01*
X199236890Y-153224000D01*
X199838110Y-153224000D01*
X199879591Y-153228085D01*
G37*
G36*
X217455997Y-151453051D02*
G01*
X217489652Y-151463261D01*
X217520665Y-151479838D01*
X217547851Y-151502149D01*
X217570162Y-151529335D01*
X217586739Y-151560348D01*
X217596949Y-151594003D01*
X217601000Y-151635138D01*
X217601000Y-153964862D01*
X217596949Y-154005997D01*
X217586739Y-154039652D01*
X217570162Y-154070665D01*
X217547851Y-154097851D01*
X217520665Y-154120162D01*
X217489652Y-154136739D01*
X217455997Y-154146949D01*
X217414862Y-154151000D01*
X216085138Y-154151000D01*
X216044003Y-154146949D01*
X216010348Y-154136739D01*
X215979335Y-154120162D01*
X215952149Y-154097851D01*
X215929838Y-154070665D01*
X215913261Y-154039652D01*
X215903051Y-154005997D01*
X215899000Y-153964862D01*
X215899000Y-151635138D01*
X215903051Y-151594003D01*
X215913261Y-151560348D01*
X215929838Y-151529335D01*
X215952149Y-151502149D01*
X215979335Y-151479838D01*
X216010348Y-151463261D01*
X216044003Y-151453051D01*
X216085138Y-151449000D01*
X217414862Y-151449000D01*
X217455997Y-151453051D01*
G37*
G36*
X204455997Y-151203051D02*
G01*
X204489652Y-151213261D01*
X204520665Y-151229838D01*
X204547851Y-151252149D01*
X204570162Y-151279335D01*
X204586739Y-151310348D01*
X204596949Y-151344003D01*
X204601000Y-151385138D01*
X204601000Y-153714862D01*
X204596949Y-153755997D01*
X204586739Y-153789652D01*
X204570162Y-153820665D01*
X204547851Y-153847851D01*
X204520665Y-153870162D01*
X204489652Y-153886739D01*
X204455997Y-153896949D01*
X204414862Y-153901000D01*
X203085138Y-153901000D01*
X203044003Y-153896949D01*
X203010348Y-153886739D01*
X202979335Y-153870162D01*
X202952149Y-153847851D01*
X202929838Y-153820665D01*
X202913261Y-153789652D01*
X202903051Y-153755997D01*
X202899000Y-153714862D01*
X202899000Y-151385138D01*
X202903051Y-151344003D01*
X202913261Y-151310348D01*
X202929838Y-151279335D01*
X202952149Y-151252149D01*
X202979335Y-151229838D01*
X203010348Y-151213261D01*
X203044003Y-151203051D01*
X203085138Y-151199000D01*
X204414862Y-151199000D01*
X204455997Y-151203051D01*
G37*
G36*
X213879591Y-152803085D02*
G01*
X213913569Y-152813393D01*
X213944890Y-152830134D01*
X213972339Y-152852661D01*
X213994866Y-152880110D01*
X214011607Y-152911431D01*
X214021915Y-152945409D01*
X214026000Y-152986890D01*
X214026000Y-153588110D01*
X214021915Y-153629591D01*
X214011607Y-153663569D01*
X213994866Y-153694890D01*
X213972339Y-153722339D01*
X213944890Y-153744866D01*
X213913569Y-153761607D01*
X213879591Y-153771915D01*
X213838110Y-153776000D01*
X213161890Y-153776000D01*
X213120409Y-153771915D01*
X213086431Y-153761607D01*
X213055110Y-153744866D01*
X213027661Y-153722339D01*
X213005134Y-153694890D01*
X212988393Y-153663569D01*
X212978085Y-153629591D01*
X212974000Y-153588110D01*
X212974000Y-152986890D01*
X212978085Y-152945409D01*
X212988393Y-152911431D01*
X213005134Y-152880110D01*
X213027661Y-152852661D01*
X213055110Y-152830134D01*
X213086431Y-152813393D01*
X213120409Y-152803085D01*
X213161890Y-152799000D01*
X213838110Y-152799000D01*
X213879591Y-152803085D01*
G37*
G36*
X207879591Y-152803085D02*
G01*
X207913569Y-152813393D01*
X207944890Y-152830134D01*
X207972339Y-152852661D01*
X207994866Y-152880110D01*
X208011607Y-152911431D01*
X208021915Y-152945409D01*
X208026000Y-152986890D01*
X208026000Y-153588110D01*
X208021915Y-153629591D01*
X208011607Y-153663569D01*
X207994866Y-153694890D01*
X207972339Y-153722339D01*
X207944890Y-153744866D01*
X207913569Y-153761607D01*
X207879591Y-153771915D01*
X207838110Y-153776000D01*
X207161890Y-153776000D01*
X207120409Y-153771915D01*
X207086431Y-153761607D01*
X207055110Y-153744866D01*
X207027661Y-153722339D01*
X207005134Y-153694890D01*
X206988393Y-153663569D01*
X206978085Y-153629591D01*
X206974000Y-153588110D01*
X206974000Y-152986890D01*
X206978085Y-152945409D01*
X206988393Y-152911431D01*
X207005134Y-152880110D01*
X207027661Y-152852661D01*
X207055110Y-152830134D01*
X207086431Y-152813393D01*
X207120409Y-152803085D01*
X207161890Y-152799000D01*
X207838110Y-152799000D01*
X207879591Y-152803085D01*
G37*
G36*
X211879591Y-152803085D02*
G01*
X211913569Y-152813393D01*
X211944890Y-152830134D01*
X211972339Y-152852661D01*
X211994866Y-152880110D01*
X212011607Y-152911431D01*
X212021915Y-152945409D01*
X212026000Y-152986890D01*
X212026000Y-153588110D01*
X212021915Y-153629591D01*
X212011607Y-153663569D01*
X211994866Y-153694890D01*
X211972339Y-153722339D01*
X211944890Y-153744866D01*
X211913569Y-153761607D01*
X211879591Y-153771915D01*
X211838110Y-153776000D01*
X211161890Y-153776000D01*
X211120409Y-153771915D01*
X211086431Y-153761607D01*
X211055110Y-153744866D01*
X211027661Y-153722339D01*
X211005134Y-153694890D01*
X210988393Y-153663569D01*
X210978085Y-153629591D01*
X210974000Y-153588110D01*
X210974000Y-152986890D01*
X210978085Y-152945409D01*
X210988393Y-152911431D01*
X211005134Y-152880110D01*
X211027661Y-152852661D01*
X211055110Y-152830134D01*
X211086431Y-152813393D01*
X211120409Y-152803085D01*
X211161890Y-152799000D01*
X211838110Y-152799000D01*
X211879591Y-152803085D01*
G37*
G36*
X209879591Y-152803085D02*
G01*
X209913569Y-152813393D01*
X209944890Y-152830134D01*
X209972339Y-152852661D01*
X209994866Y-152880110D01*
X210011607Y-152911431D01*
X210021915Y-152945409D01*
X210026000Y-152986890D01*
X210026000Y-153588110D01*
X210021915Y-153629591D01*
X210011607Y-153663569D01*
X209994866Y-153694890D01*
X209972339Y-153722339D01*
X209944890Y-153744866D01*
X209913569Y-153761607D01*
X209879591Y-153771915D01*
X209838110Y-153776000D01*
X209161890Y-153776000D01*
X209120409Y-153771915D01*
X209086431Y-153761607D01*
X209055110Y-153744866D01*
X209027661Y-153722339D01*
X209005134Y-153694890D01*
X208988393Y-153663569D01*
X208978085Y-153629591D01*
X208974000Y-153588110D01*
X208974000Y-152986890D01*
X208978085Y-152945409D01*
X208988393Y-152911431D01*
X209005134Y-152880110D01*
X209027661Y-152852661D01*
X209055110Y-152830134D01*
X209086431Y-152813393D01*
X209120409Y-152803085D01*
X209161890Y-152799000D01*
X209838110Y-152799000D01*
X209879591Y-152803085D01*
G37*
G36*
X209879591Y-151228085D02*
G01*
X209913569Y-151238393D01*
X209944890Y-151255134D01*
X209972339Y-151277661D01*
X209994866Y-151305110D01*
X210011607Y-151336431D01*
X210021915Y-151370409D01*
X210026000Y-151411890D01*
X210026000Y-152013110D01*
X210021915Y-152054591D01*
X210011607Y-152088569D01*
X209994866Y-152119890D01*
X209972339Y-152147339D01*
X209944890Y-152169866D01*
X209913569Y-152186607D01*
X209879591Y-152196915D01*
X209838110Y-152201000D01*
X209161890Y-152201000D01*
X209120409Y-152196915D01*
X209086431Y-152186607D01*
X209055110Y-152169866D01*
X209027661Y-152147339D01*
X209005134Y-152119890D01*
X208988393Y-152088569D01*
X208978085Y-152054591D01*
X208974000Y-152013110D01*
X208974000Y-151411890D01*
X208978085Y-151370409D01*
X208988393Y-151336431D01*
X209005134Y-151305110D01*
X209027661Y-151277661D01*
X209055110Y-151255134D01*
X209086431Y-151238393D01*
X209120409Y-151228085D01*
X209161890Y-151224000D01*
X209838110Y-151224000D01*
X209879591Y-151228085D01*
G37*
G36*
X213879591Y-151228085D02*
G01*
X213913569Y-151238393D01*
X213944890Y-151255134D01*
X213972339Y-151277661D01*
X213994866Y-151305110D01*
X214011607Y-151336431D01*
X214021915Y-151370409D01*
X214026000Y-151411890D01*
X214026000Y-152013110D01*
X214021915Y-152054591D01*
X214011607Y-152088569D01*
X213994866Y-152119890D01*
X213972339Y-152147339D01*
X213944890Y-152169866D01*
X213913569Y-152186607D01*
X213879591Y-152196915D01*
X213838110Y-152201000D01*
X213161890Y-152201000D01*
X213120409Y-152196915D01*
X213086431Y-152186607D01*
X213055110Y-152169866D01*
X213027661Y-152147339D01*
X213005134Y-152119890D01*
X212988393Y-152088569D01*
X212978085Y-152054591D01*
X212974000Y-152013110D01*
X212974000Y-151411890D01*
X212978085Y-151370409D01*
X212988393Y-151336431D01*
X213005134Y-151305110D01*
X213027661Y-151277661D01*
X213055110Y-151255134D01*
X213086431Y-151238393D01*
X213120409Y-151228085D01*
X213161890Y-151224000D01*
X213838110Y-151224000D01*
X213879591Y-151228085D01*
G37*
G36*
X211879591Y-151228085D02*
G01*
X211913569Y-151238393D01*
X211944890Y-151255134D01*
X211972339Y-151277661D01*
X211994866Y-151305110D01*
X212011607Y-151336431D01*
X212021915Y-151370409D01*
X212026000Y-151411890D01*
X212026000Y-152013110D01*
X212021915Y-152054591D01*
X212011607Y-152088569D01*
X211994866Y-152119890D01*
X211972339Y-152147339D01*
X211944890Y-152169866D01*
X211913569Y-152186607D01*
X211879591Y-152196915D01*
X211838110Y-152201000D01*
X211161890Y-152201000D01*
X211120409Y-152196915D01*
X211086431Y-152186607D01*
X211055110Y-152169866D01*
X211027661Y-152147339D01*
X211005134Y-152119890D01*
X210988393Y-152088569D01*
X210978085Y-152054591D01*
X210974000Y-152013110D01*
X210974000Y-151411890D01*
X210978085Y-151370409D01*
X210988393Y-151336431D01*
X211005134Y-151305110D01*
X211027661Y-151277661D01*
X211055110Y-151255134D01*
X211086431Y-151238393D01*
X211120409Y-151228085D01*
X211161890Y-151224000D01*
X211838110Y-151224000D01*
X211879591Y-151228085D01*
G37*
G36*
X207879591Y-151228085D02*
G01*
X207913569Y-151238393D01*
X207944890Y-151255134D01*
X207972339Y-151277661D01*
X207994866Y-151305110D01*
X208011607Y-151336431D01*
X208021915Y-151370409D01*
X208026000Y-151411890D01*
X208026000Y-152013110D01*
X208021915Y-152054591D01*
X208011607Y-152088569D01*
X207994866Y-152119890D01*
X207972339Y-152147339D01*
X207944890Y-152169866D01*
X207913569Y-152186607D01*
X207879591Y-152196915D01*
X207838110Y-152201000D01*
X207161890Y-152201000D01*
X207120409Y-152196915D01*
X207086431Y-152186607D01*
X207055110Y-152169866D01*
X207027661Y-152147339D01*
X207005134Y-152119890D01*
X206988393Y-152088569D01*
X206978085Y-152054591D01*
X206974000Y-152013110D01*
X206974000Y-151411890D01*
X206978085Y-151370409D01*
X206988393Y-151336431D01*
X207005134Y-151305110D01*
X207027661Y-151277661D01*
X207055110Y-151255134D01*
X207086431Y-151238393D01*
X207120409Y-151228085D01*
X207161890Y-151224000D01*
X207838110Y-151224000D01*
X207879591Y-151228085D01*
G37*
G36*
X217455997Y-147853051D02*
G01*
X217489652Y-147863261D01*
X217520665Y-147879838D01*
X217547851Y-147902149D01*
X217570162Y-147929335D01*
X217586739Y-147960348D01*
X217596949Y-147994003D01*
X217601000Y-148035138D01*
X217601000Y-150364862D01*
X217596949Y-150405997D01*
X217586739Y-150439652D01*
X217570162Y-150470665D01*
X217547851Y-150497851D01*
X217520665Y-150520162D01*
X217489652Y-150536739D01*
X217455997Y-150546949D01*
X217414862Y-150551000D01*
X216085138Y-150551000D01*
X216044003Y-150546949D01*
X216010348Y-150536739D01*
X215979335Y-150520162D01*
X215952149Y-150497851D01*
X215929838Y-150470665D01*
X215913261Y-150439652D01*
X215903051Y-150405997D01*
X215899000Y-150364862D01*
X215899000Y-148035138D01*
X215903051Y-147994003D01*
X215913261Y-147960348D01*
X215929838Y-147929335D01*
X215952149Y-147902149D01*
X215979335Y-147879838D01*
X216010348Y-147863261D01*
X216044003Y-147853051D01*
X216085138Y-147849000D01*
X217414862Y-147849000D01*
X217455997Y-147853051D01*
G37*
G36*
X204455997Y-147603051D02*
G01*
X204489652Y-147613261D01*
X204520665Y-147629838D01*
X204547851Y-147652149D01*
X204570162Y-147679335D01*
X204586739Y-147710348D01*
X204596949Y-147744003D01*
X204601000Y-147785138D01*
X204601000Y-150114862D01*
X204596949Y-150155997D01*
X204586739Y-150189652D01*
X204570162Y-150220665D01*
X204547851Y-150247851D01*
X204520665Y-150270162D01*
X204489652Y-150286739D01*
X204455997Y-150296949D01*
X204414862Y-150301000D01*
X203085138Y-150301000D01*
X203044003Y-150296949D01*
X203010348Y-150286739D01*
X202979335Y-150270162D01*
X202952149Y-150247851D01*
X202929838Y-150220665D01*
X202913261Y-150189652D01*
X202903051Y-150155997D01*
X202899000Y-150114862D01*
X202899000Y-147785138D01*
X202903051Y-147744003D01*
X202913261Y-147710348D01*
X202929838Y-147679335D01*
X202952149Y-147652149D01*
X202979335Y-147629838D01*
X203010348Y-147613261D01*
X203044003Y-147603051D01*
X203085138Y-147599000D01*
X204414862Y-147599000D01*
X204455997Y-147603051D01*
G37*
G36*
X209201000Y-137051000D02*
G01*
X206099000Y-137051000D01*
X206099000Y-135349000D01*
X209201000Y-135349000D01*
X209201000Y-137051000D01*
G37*
G36*
X208201000Y-134351000D02*
G01*
X202599000Y-134351000D01*
X202599000Y-133249000D01*
X208201000Y-133249000D01*
X208201000Y-134351000D01*
G37*
G36*
X208201000Y-132351000D02*
G01*
X202599000Y-132351000D01*
X202599000Y-131249000D01*
X208201000Y-131249000D01*
X208201000Y-132351000D01*
G37*
G36*
X208201000Y-130351000D02*
G01*
X202599000Y-130351000D01*
X202599000Y-129249000D01*
X208201000Y-129249000D01*
X208201000Y-130351000D01*
G37*
G36*
X208201000Y-128351000D02*
G01*
X202599000Y-128351000D01*
X202599000Y-127249000D01*
X208201000Y-127249000D01*
X208201000Y-128351000D01*
G37*
G36*
X209201000Y-126251000D02*
G01*
X206099000Y-126251000D01*
X206099000Y-124549000D01*
X209201000Y-124549000D01*
X209201000Y-126251000D01*
G37*
G36*
X127537852Y-107152797D02*
G01*
X128029402Y-107356404D01*
X128029403Y-107356405D01*
X128471787Y-107651996D01*
X128848004Y-108028213D01*
X129045512Y-108323805D01*
X129143596Y-108470598D01*
X129347203Y-108962148D01*
X129451000Y-109483973D01*
X129451000Y-110016027D01*
X129347203Y-110537852D01*
X129143596Y-111029402D01*
X129143595Y-111029403D01*
X128848004Y-111471787D01*
X128471787Y-111848004D01*
X128176195Y-112045512D01*
X128029402Y-112143596D01*
X127537852Y-112347203D01*
X127016027Y-112451000D01*
X126483973Y-112451000D01*
X125962148Y-112347203D01*
X125470598Y-112143596D01*
X125323805Y-112045512D01*
X125028213Y-111848004D01*
X124651996Y-111471787D01*
X124356405Y-111029403D01*
X124356404Y-111029402D01*
X124152797Y-110537852D01*
X124049000Y-110016027D01*
X124049000Y-109483973D01*
X124152797Y-108962148D01*
X124356404Y-108470598D01*
X124454488Y-108323805D01*
X124651996Y-108028213D01*
X125028213Y-107651996D01*
X125470597Y-107356405D01*
X125470598Y-107356404D01*
X125962148Y-107152797D01*
X126483973Y-107049000D01*
X127016027Y-107049000D01*
X127537852Y-107152797D01*
G37*
G36*
X202537852Y-107152797D02*
G01*
X203029402Y-107356404D01*
X203029403Y-107356405D01*
X203471787Y-107651996D01*
X203848004Y-108028213D01*
X204045512Y-108323805D01*
X204143596Y-108470598D01*
X204347203Y-108962148D01*
X204451000Y-109483973D01*
X204451000Y-110016027D01*
X204347203Y-110537852D01*
X204143596Y-111029402D01*
X204143595Y-111029403D01*
X203848004Y-111471787D01*
X203471787Y-111848004D01*
X203176195Y-112045512D01*
X203029402Y-112143596D01*
X202537852Y-112347203D01*
X202016027Y-112451000D01*
X201483973Y-112451000D01*
X200962148Y-112347203D01*
X200470598Y-112143596D01*
X200323805Y-112045512D01*
X200028213Y-111848004D01*
X199651996Y-111471787D01*
X199356405Y-111029403D01*
X199356404Y-111029402D01*
X199152797Y-110537852D01*
X199049000Y-110016027D01*
X199049000Y-109483973D01*
X199152797Y-108962148D01*
X199356404Y-108470598D01*
X199454488Y-108323805D01*
X199651996Y-108028213D01*
X200028213Y-107651996D01*
X200470597Y-107356405D01*
X200470598Y-107356404D01*
X200962148Y-107152797D01*
X201483973Y-107049000D01*
X202016027Y-107049000D01*
X202537852Y-107152797D01*
G37*
G36*
X127537852Y-76152797D02*
G01*
X128029402Y-76356404D01*
X128029403Y-76356405D01*
X128471787Y-76651996D01*
X128848004Y-77028213D01*
X129045512Y-77323805D01*
X129143596Y-77470598D01*
X129347203Y-77962148D01*
X129451000Y-78483973D01*
X129451000Y-79016027D01*
X129347203Y-79537852D01*
X129143596Y-80029402D01*
X129143595Y-80029403D01*
X128848004Y-80471787D01*
X128471787Y-80848004D01*
X128176195Y-81045512D01*
X128029402Y-81143596D01*
X127537852Y-81347203D01*
X127016027Y-81451000D01*
X126483973Y-81451000D01*
X125962148Y-81347203D01*
X125470598Y-81143596D01*
X125323805Y-81045512D01*
X125028213Y-80848004D01*
X124651996Y-80471787D01*
X124356405Y-80029403D01*
X124356404Y-80029402D01*
X124152797Y-79537852D01*
X124049000Y-79016027D01*
X124049000Y-78483973D01*
X124152797Y-77962148D01*
X124356404Y-77470598D01*
X124454488Y-77323805D01*
X124651996Y-77028213D01*
X125028213Y-76651996D01*
X125470597Y-76356405D01*
X125470598Y-76356404D01*
X125962148Y-76152797D01*
X126483973Y-76049000D01*
X127016027Y-76049000D01*
X127537852Y-76152797D01*
G37*
G36*
X202537852Y-76152797D02*
G01*
X203029402Y-76356404D01*
X203029403Y-76356405D01*
X203471787Y-76651996D01*
X203848004Y-77028213D01*
X204045512Y-77323805D01*
X204143596Y-77470598D01*
X204347203Y-77962148D01*
X204451000Y-78483973D01*
X204451000Y-79016027D01*
X204347203Y-79537852D01*
X204143596Y-80029402D01*
X204143595Y-80029403D01*
X203848004Y-80471787D01*
X203471787Y-80848004D01*
X203176195Y-81045512D01*
X203029402Y-81143596D01*
X202537852Y-81347203D01*
X202016027Y-81451000D01*
X201483973Y-81451000D01*
X200962148Y-81347203D01*
X200470598Y-81143596D01*
X200323805Y-81045512D01*
X200028213Y-80848004D01*
X199651996Y-80471787D01*
X199356405Y-80029403D01*
X199356404Y-80029402D01*
X199152797Y-79537852D01*
X199049000Y-79016027D01*
X199049000Y-78483973D01*
X199152797Y-77962148D01*
X199356404Y-77470598D01*
X199454488Y-77323805D01*
X199651996Y-77028213D01*
X200028213Y-76651996D01*
X200470597Y-76356405D01*
X200470598Y-76356404D01*
X200962148Y-76152797D01*
X201483973Y-76049000D01*
X202016027Y-76049000D01*
X202537852Y-76152797D01*
G37*
G36*
X158701000Y-80801000D02*
G01*
X157599000Y-80801000D01*
X157599000Y-78199000D01*
X158701000Y-78199000D01*
X158701000Y-80801000D01*
G37*
G36*
X163781000Y-80801000D02*
G01*
X162679000Y-80801000D01*
X162679000Y-78199000D01*
X163781000Y-78199000D01*
X163781000Y-80801000D01*
G37*
G36*
X184101000Y-80801000D02*
G01*
X182999000Y-80801000D01*
X182999000Y-78199000D01*
X184101000Y-78199000D01*
X184101000Y-80801000D01*
G37*
G36*
X194261000Y-80801000D02*
G01*
X193159000Y-80801000D01*
X193159000Y-78199000D01*
X194261000Y-78199000D01*
X194261000Y-80801000D01*
G37*
G36*
X179021000Y-80801000D02*
G01*
X177919000Y-80801000D01*
X177919000Y-78199000D01*
X179021000Y-78199000D01*
X179021000Y-80801000D01*
G37*
G36*
X173941000Y-80801000D02*
G01*
X172839000Y-80801000D01*
X172839000Y-78199000D01*
X173941000Y-78199000D01*
X173941000Y-80801000D01*
G37*
G36*
X189181000Y-80801000D02*
G01*
X188079000Y-80801000D01*
X188079000Y-78199000D01*
X189181000Y-78199000D01*
X189181000Y-80801000D01*
G37*
G36*
X168861000Y-80801000D02*
G01*
X167759000Y-80801000D01*
X167759000Y-78199000D01*
X168861000Y-78199000D01*
X168861000Y-80801000D01*
G37*
G36*
X181561000Y-78301000D02*
G01*
X180459000Y-78301000D01*
X180459000Y-75199000D01*
X181561000Y-75199000D01*
X181561000Y-78301000D01*
G37*
G36*
X176481000Y-78301000D02*
G01*
X175379000Y-78301000D01*
X175379000Y-75199000D01*
X176481000Y-75199000D01*
X176481000Y-78301000D01*
G37*
G36*
X171401000Y-78301000D02*
G01*
X170299000Y-78301000D01*
X170299000Y-75199000D01*
X171401000Y-75199000D01*
X171401000Y-78301000D01*
G37*
G36*
X166321000Y-78301000D02*
G01*
X165219000Y-78301000D01*
X165219000Y-75199000D01*
X166321000Y-75199000D01*
X166321000Y-78301000D01*
G37*
G36*
X161241000Y-78301000D02*
G01*
X160139000Y-78301000D01*
X160139000Y-75199000D01*
X161241000Y-75199000D01*
X161241000Y-78301000D01*
G37*
G36*
X191721000Y-78301000D02*
G01*
X190619000Y-78301000D01*
X190619000Y-75199000D01*
X191721000Y-75199000D01*
X191721000Y-78301000D01*
G37*
G36*
X196801000Y-78301000D02*
G01*
X195699000Y-78301000D01*
X195699000Y-75199000D01*
X196801000Y-75199000D01*
X196801000Y-78301000D01*
G37*
G36*
X186641000Y-78301000D02*
G01*
X185539000Y-78301000D01*
X185539000Y-75199000D01*
X186641000Y-75199000D01*
X186641000Y-78301000D01*
G37*
G36*
X149884928Y-74596764D02*
G01*
X149906009Y-74603160D01*
X149925445Y-74613548D01*
X149942476Y-74627524D01*
X149956452Y-74644555D01*
X149966840Y-74663991D01*
X149973236Y-74685072D01*
X149976000Y-74713140D01*
X149976000Y-75176860D01*
X149973236Y-75204928D01*
X149966840Y-75226009D01*
X149956452Y-75245445D01*
X149942476Y-75262476D01*
X149925445Y-75276452D01*
X149906009Y-75286840D01*
X149884928Y-75293236D01*
X149856860Y-75296000D01*
X147943140Y-75296000D01*
X147915072Y-75293236D01*
X147893991Y-75286840D01*
X147874555Y-75276452D01*
X147857524Y-75262476D01*
X147843548Y-75245445D01*
X147833160Y-75226009D01*
X147826764Y-75204928D01*
X147824000Y-75176860D01*
X147824000Y-74713140D01*
X147826764Y-74685072D01*
X147833160Y-74663991D01*
X147843548Y-74644555D01*
X147857524Y-74627524D01*
X147874555Y-74613548D01*
X147893991Y-74603160D01*
X147915072Y-74596764D01*
X147943140Y-74594000D01*
X149856860Y-74594000D01*
X149884928Y-74596764D01*
G37*
G36*
X140584928Y-74596764D02*
G01*
X140606009Y-74603160D01*
X140625445Y-74613548D01*
X140642476Y-74627524D01*
X140656452Y-74644555D01*
X140666840Y-74663991D01*
X140673236Y-74685072D01*
X140676000Y-74713140D01*
X140676000Y-75176860D01*
X140673236Y-75204928D01*
X140666840Y-75226009D01*
X140656452Y-75245445D01*
X140642476Y-75262476D01*
X140625445Y-75276452D01*
X140606009Y-75286840D01*
X140584928Y-75293236D01*
X140556860Y-75296000D01*
X138643140Y-75296000D01*
X138615072Y-75293236D01*
X138593991Y-75286840D01*
X138574555Y-75276452D01*
X138557524Y-75262476D01*
X138543548Y-75245445D01*
X138533160Y-75226009D01*
X138526764Y-75204928D01*
X138524000Y-75176860D01*
X138524000Y-74713140D01*
X138526764Y-74685072D01*
X138533160Y-74663991D01*
X138543548Y-74644555D01*
X138557524Y-74627524D01*
X138574555Y-74613548D01*
X138593991Y-74603160D01*
X138615072Y-74596764D01*
X138643140Y-74594000D01*
X140556860Y-74594000D01*
X140584928Y-74596764D01*
G37*
G36*
X149884928Y-73326764D02*
G01*
X149906009Y-73333160D01*
X149925445Y-73343548D01*
X149942476Y-73357524D01*
X149956452Y-73374555D01*
X149966840Y-73393991D01*
X149973236Y-73415072D01*
X149976000Y-73443140D01*
X149976000Y-73906860D01*
X149973236Y-73934928D01*
X149966840Y-73956009D01*
X149956452Y-73975445D01*
X149942476Y-73992476D01*
X149925445Y-74006452D01*
X149906009Y-74016840D01*
X149884928Y-74023236D01*
X149856860Y-74026000D01*
X147943140Y-74026000D01*
X147915072Y-74023236D01*
X147893991Y-74016840D01*
X147874555Y-74006452D01*
X147857524Y-73992476D01*
X147843548Y-73975445D01*
X147833160Y-73956009D01*
X147826764Y-73934928D01*
X147824000Y-73906860D01*
X147824000Y-73443140D01*
X147826764Y-73415072D01*
X147833160Y-73393991D01*
X147843548Y-73374555D01*
X147857524Y-73357524D01*
X147874555Y-73343548D01*
X147893991Y-73333160D01*
X147915072Y-73326764D01*
X147943140Y-73324000D01*
X149856860Y-73324000D01*
X149884928Y-73326764D01*
G37*
G36*
X140584928Y-73326764D02*
G01*
X140606009Y-73333160D01*
X140625445Y-73343548D01*
X140642476Y-73357524D01*
X140656452Y-73374555D01*
X140666840Y-73393991D01*
X140673236Y-73415072D01*
X140676000Y-73443140D01*
X140676000Y-73906860D01*
X140673236Y-73934928D01*
X140666840Y-73956009D01*
X140656452Y-73975445D01*
X140642476Y-73992476D01*
X140625445Y-74006452D01*
X140606009Y-74016840D01*
X140584928Y-74023236D01*
X140556860Y-74026000D01*
X138643140Y-74026000D01*
X138615072Y-74023236D01*
X138593991Y-74016840D01*
X138574555Y-74006452D01*
X138557524Y-73992476D01*
X138543548Y-73975445D01*
X138533160Y-73956009D01*
X138526764Y-73934928D01*
X138524000Y-73906860D01*
X138524000Y-73443140D01*
X138526764Y-73415072D01*
X138533160Y-73393991D01*
X138543548Y-73374555D01*
X138557524Y-73357524D01*
X138574555Y-73343548D01*
X138593991Y-73333160D01*
X138615072Y-73326764D01*
X138643140Y-73324000D01*
X140556860Y-73324000D01*
X140584928Y-73326764D01*
G37*
G36*
X140584928Y-72056764D02*
G01*
X140606009Y-72063160D01*
X140625445Y-72073548D01*
X140642476Y-72087524D01*
X140656452Y-72104555D01*
X140666840Y-72123991D01*
X140673236Y-72145072D01*
X140676000Y-72173140D01*
X140676000Y-72636860D01*
X140673236Y-72664928D01*
X140666840Y-72686009D01*
X140656452Y-72705445D01*
X140642476Y-72722476D01*
X140625445Y-72736452D01*
X140606009Y-72746840D01*
X140584928Y-72753236D01*
X140556860Y-72756000D01*
X138643140Y-72756000D01*
X138615072Y-72753236D01*
X138593991Y-72746840D01*
X138574555Y-72736452D01*
X138557524Y-72722476D01*
X138543548Y-72705445D01*
X138533160Y-72686009D01*
X138526764Y-72664928D01*
X138524000Y-72636860D01*
X138524000Y-72173140D01*
X138526764Y-72145072D01*
X138533160Y-72123991D01*
X138543548Y-72104555D01*
X138557524Y-72087524D01*
X138574555Y-72073548D01*
X138593991Y-72063160D01*
X138615072Y-72056764D01*
X138643140Y-72054000D01*
X140556860Y-72054000D01*
X140584928Y-72056764D01*
G37*
G36*
X149884928Y-72056764D02*
G01*
X149906009Y-72063160D01*
X149925445Y-72073548D01*
X149942476Y-72087524D01*
X149956452Y-72104555D01*
X149966840Y-72123991D01*
X149973236Y-72145072D01*
X149976000Y-72173140D01*
X149976000Y-72636860D01*
X149973236Y-72664928D01*
X149966840Y-72686009D01*
X149956452Y-72705445D01*
X149942476Y-72722476D01*
X149925445Y-72736452D01*
X149906009Y-72746840D01*
X149884928Y-72753236D01*
X149856860Y-72756000D01*
X147943140Y-72756000D01*
X147915072Y-72753236D01*
X147893991Y-72746840D01*
X147874555Y-72736452D01*
X147857524Y-72722476D01*
X147843548Y-72705445D01*
X147833160Y-72686009D01*
X147826764Y-72664928D01*
X147824000Y-72636860D01*
X147824000Y-72173140D01*
X147826764Y-72145072D01*
X147833160Y-72123991D01*
X147843548Y-72104555D01*
X147857524Y-72087524D01*
X147874555Y-72073548D01*
X147893991Y-72063160D01*
X147915072Y-72056764D01*
X147943140Y-72054000D01*
X149856860Y-72054000D01*
X149884928Y-72056764D01*
G37*
G36*
X203851000Y-72191000D02*
G01*
X200449000Y-72191000D01*
X200449000Y-70889000D01*
X203851000Y-70889000D01*
X203851000Y-72191000D01*
G37*
G36*
X161379591Y-70628085D02*
G01*
X161413569Y-70638393D01*
X161444890Y-70655134D01*
X161472339Y-70677661D01*
X161494866Y-70705110D01*
X161511607Y-70736431D01*
X161521915Y-70770409D01*
X161526000Y-70811890D01*
X161526000Y-71488110D01*
X161521915Y-71529591D01*
X161511607Y-71563569D01*
X161494866Y-71594890D01*
X161472339Y-71622339D01*
X161444890Y-71644866D01*
X161413569Y-71661607D01*
X161379591Y-71671915D01*
X161338110Y-71676000D01*
X160736890Y-71676000D01*
X160695409Y-71671915D01*
X160661431Y-71661607D01*
X160630110Y-71644866D01*
X160602661Y-71622339D01*
X160580134Y-71594890D01*
X160563393Y-71563569D01*
X160553085Y-71529591D01*
X160549000Y-71488110D01*
X160549000Y-70811890D01*
X160553085Y-70770409D01*
X160563393Y-70736431D01*
X160580134Y-70705110D01*
X160602661Y-70677661D01*
X160630110Y-70655134D01*
X160661431Y-70638393D01*
X160695409Y-70628085D01*
X160736890Y-70624000D01*
X161338110Y-70624000D01*
X161379591Y-70628085D01*
G37*
G36*
X159804591Y-70628085D02*
G01*
X159838569Y-70638393D01*
X159869890Y-70655134D01*
X159897339Y-70677661D01*
X159919866Y-70705110D01*
X159936607Y-70736431D01*
X159946915Y-70770409D01*
X159951000Y-70811890D01*
X159951000Y-71488110D01*
X159946915Y-71529591D01*
X159936607Y-71563569D01*
X159919866Y-71594890D01*
X159897339Y-71622339D01*
X159869890Y-71644866D01*
X159838569Y-71661607D01*
X159804591Y-71671915D01*
X159763110Y-71676000D01*
X159161890Y-71676000D01*
X159120409Y-71671915D01*
X159086431Y-71661607D01*
X159055110Y-71644866D01*
X159027661Y-71622339D01*
X159005134Y-71594890D01*
X158988393Y-71563569D01*
X158978085Y-71529591D01*
X158974000Y-71488110D01*
X158974000Y-70811890D01*
X158978085Y-70770409D01*
X158988393Y-70736431D01*
X159005134Y-70705110D01*
X159027661Y-70677661D01*
X159055110Y-70655134D01*
X159086431Y-70638393D01*
X159120409Y-70628085D01*
X159161890Y-70624000D01*
X159763110Y-70624000D01*
X159804591Y-70628085D01*
G37*
G36*
X153629591Y-70628085D02*
G01*
X153663569Y-70638393D01*
X153694890Y-70655134D01*
X153722339Y-70677661D01*
X153744866Y-70705110D01*
X153761607Y-70736431D01*
X153771915Y-70770409D01*
X153776000Y-70811890D01*
X153776000Y-71488110D01*
X153771915Y-71529591D01*
X153761607Y-71563569D01*
X153744866Y-71594890D01*
X153722339Y-71622339D01*
X153694890Y-71644866D01*
X153663569Y-71661607D01*
X153629591Y-71671915D01*
X153588110Y-71676000D01*
X152986890Y-71676000D01*
X152945409Y-71671915D01*
X152911431Y-71661607D01*
X152880110Y-71644866D01*
X152852661Y-71622339D01*
X152830134Y-71594890D01*
X152813393Y-71563569D01*
X152803085Y-71529591D01*
X152799000Y-71488110D01*
X152799000Y-70811890D01*
X152803085Y-70770409D01*
X152813393Y-70736431D01*
X152830134Y-70705110D01*
X152852661Y-70677661D01*
X152880110Y-70655134D01*
X152911431Y-70638393D01*
X152945409Y-70628085D01*
X152986890Y-70624000D01*
X153588110Y-70624000D01*
X153629591Y-70628085D01*
G37*
G36*
X152054591Y-70628085D02*
G01*
X152088569Y-70638393D01*
X152119890Y-70655134D01*
X152147339Y-70677661D01*
X152169866Y-70705110D01*
X152186607Y-70736431D01*
X152196915Y-70770409D01*
X152201000Y-70811890D01*
X152201000Y-71488110D01*
X152196915Y-71529591D01*
X152186607Y-71563569D01*
X152169866Y-71594890D01*
X152147339Y-71622339D01*
X152119890Y-71644866D01*
X152088569Y-71661607D01*
X152054591Y-71671915D01*
X152013110Y-71676000D01*
X151411890Y-71676000D01*
X151370409Y-71671915D01*
X151336431Y-71661607D01*
X151305110Y-71644866D01*
X151277661Y-71622339D01*
X151255134Y-71594890D01*
X151238393Y-71563569D01*
X151228085Y-71529591D01*
X151224000Y-71488110D01*
X151224000Y-70811890D01*
X151228085Y-70770409D01*
X151238393Y-70736431D01*
X151255134Y-70705110D01*
X151277661Y-70677661D01*
X151305110Y-70655134D01*
X151336431Y-70638393D01*
X151370409Y-70628085D01*
X151411890Y-70624000D01*
X152013110Y-70624000D01*
X152054591Y-70628085D01*
G37*
G36*
X140584928Y-70786764D02*
G01*
X140606009Y-70793160D01*
X140625445Y-70803548D01*
X140642476Y-70817524D01*
X140656452Y-70834555D01*
X140666840Y-70853991D01*
X140673236Y-70875072D01*
X140676000Y-70903140D01*
X140676000Y-71366860D01*
X140673236Y-71394928D01*
X140666840Y-71416009D01*
X140656452Y-71435445D01*
X140642476Y-71452476D01*
X140625445Y-71466452D01*
X140606009Y-71476840D01*
X140584928Y-71483236D01*
X140556860Y-71486000D01*
X138643140Y-71486000D01*
X138615072Y-71483236D01*
X138593991Y-71476840D01*
X138574555Y-71466452D01*
X138557524Y-71452476D01*
X138543548Y-71435445D01*
X138533160Y-71416009D01*
X138526764Y-71394928D01*
X138524000Y-71366860D01*
X138524000Y-70903140D01*
X138526764Y-70875072D01*
X138533160Y-70853991D01*
X138543548Y-70834555D01*
X138557524Y-70817524D01*
X138574555Y-70803548D01*
X138593991Y-70793160D01*
X138615072Y-70786764D01*
X138643140Y-70784000D01*
X140556860Y-70784000D01*
X140584928Y-70786764D01*
G37*
G36*
X149884928Y-70786764D02*
G01*
X149906009Y-70793160D01*
X149925445Y-70803548D01*
X149942476Y-70817524D01*
X149956452Y-70834555D01*
X149966840Y-70853991D01*
X149973236Y-70875072D01*
X149976000Y-70903140D01*
X149976000Y-71366860D01*
X149973236Y-71394928D01*
X149966840Y-71416009D01*
X149956452Y-71435445D01*
X149942476Y-71452476D01*
X149925445Y-71466452D01*
X149906009Y-71476840D01*
X149884928Y-71483236D01*
X149856860Y-71486000D01*
X147943140Y-71486000D01*
X147915072Y-71483236D01*
X147893991Y-71476840D01*
X147874555Y-71466452D01*
X147857524Y-71452476D01*
X147843548Y-71435445D01*
X147833160Y-71416009D01*
X147826764Y-71394928D01*
X147824000Y-71366860D01*
X147824000Y-70903140D01*
X147826764Y-70875072D01*
X147833160Y-70853991D01*
X147843548Y-70834555D01*
X147857524Y-70817524D01*
X147874555Y-70803548D01*
X147893991Y-70793160D01*
X147915072Y-70786764D01*
X147943140Y-70784000D01*
X149856860Y-70784000D01*
X149884928Y-70786764D01*
G37*
G36*
X140584928Y-69516764D02*
G01*
X140606009Y-69523160D01*
X140625445Y-69533548D01*
X140642476Y-69547524D01*
X140656452Y-69564555D01*
X140666840Y-69583991D01*
X140673236Y-69605072D01*
X140676000Y-69633140D01*
X140676000Y-70096860D01*
X140673236Y-70124928D01*
X140666840Y-70146009D01*
X140656452Y-70165445D01*
X140642476Y-70182476D01*
X140625445Y-70196452D01*
X140606009Y-70206840D01*
X140584928Y-70213236D01*
X140556860Y-70216000D01*
X138643140Y-70216000D01*
X138615072Y-70213236D01*
X138593991Y-70206840D01*
X138574555Y-70196452D01*
X138557524Y-70182476D01*
X138543548Y-70165445D01*
X138533160Y-70146009D01*
X138526764Y-70124928D01*
X138524000Y-70096860D01*
X138524000Y-69633140D01*
X138526764Y-69605072D01*
X138533160Y-69583991D01*
X138543548Y-69564555D01*
X138557524Y-69547524D01*
X138574555Y-69533548D01*
X138593991Y-69523160D01*
X138615072Y-69516764D01*
X138643140Y-69514000D01*
X140556860Y-69514000D01*
X140584928Y-69516764D01*
G37*
G36*
X149884928Y-69516764D02*
G01*
X149906009Y-69523160D01*
X149925445Y-69533548D01*
X149942476Y-69547524D01*
X149956452Y-69564555D01*
X149966840Y-69583991D01*
X149973236Y-69605072D01*
X149976000Y-69633140D01*
X149976000Y-70096860D01*
X149973236Y-70124928D01*
X149966840Y-70146009D01*
X149956452Y-70165445D01*
X149942476Y-70182476D01*
X149925445Y-70196452D01*
X149906009Y-70206840D01*
X149884928Y-70213236D01*
X149856860Y-70216000D01*
X147943140Y-70216000D01*
X147915072Y-70213236D01*
X147893991Y-70206840D01*
X147874555Y-70196452D01*
X147857524Y-70182476D01*
X147843548Y-70165445D01*
X147833160Y-70146009D01*
X147826764Y-70124928D01*
X147824000Y-70096860D01*
X147824000Y-69633140D01*
X147826764Y-69605072D01*
X147833160Y-69583991D01*
X147843548Y-69564555D01*
X147857524Y-69547524D01*
X147874555Y-69533548D01*
X147893991Y-69523160D01*
X147915072Y-69516764D01*
X147943140Y-69514000D01*
X149856860Y-69514000D01*
X149884928Y-69516764D01*
G37*
G36*
X197401000Y-69651000D02*
G01*
X193999000Y-69651000D01*
X193999000Y-68349000D01*
X197401000Y-68349000D01*
X197401000Y-69651000D01*
G37*
G36*
X161651000Y-69251000D02*
G01*
X160749000Y-69251000D01*
X160749000Y-68249000D01*
X161651000Y-68249000D01*
X161651000Y-69251000D01*
G37*
G36*
X159751000Y-69251000D02*
G01*
X158849000Y-69251000D01*
X158849000Y-68249000D01*
X159751000Y-68249000D01*
X159751000Y-69251000D01*
G37*
G36*
X149884928Y-68246764D02*
G01*
X149906009Y-68253160D01*
X149925445Y-68263548D01*
X149942476Y-68277524D01*
X149956452Y-68294555D01*
X149966840Y-68313991D01*
X149973236Y-68335072D01*
X149976000Y-68363140D01*
X149976000Y-68826860D01*
X149973236Y-68854928D01*
X149966840Y-68876009D01*
X149956452Y-68895445D01*
X149942476Y-68912476D01*
X149925445Y-68926452D01*
X149906009Y-68936840D01*
X149884928Y-68943236D01*
X149856860Y-68946000D01*
X147943140Y-68946000D01*
X147915072Y-68943236D01*
X147893991Y-68936840D01*
X147874555Y-68926452D01*
X147857524Y-68912476D01*
X147843548Y-68895445D01*
X147833160Y-68876009D01*
X147826764Y-68854928D01*
X147824000Y-68826860D01*
X147824000Y-68363140D01*
X147826764Y-68335072D01*
X147833160Y-68313991D01*
X147843548Y-68294555D01*
X147857524Y-68277524D01*
X147874555Y-68263548D01*
X147893991Y-68253160D01*
X147915072Y-68246764D01*
X147943140Y-68244000D01*
X149856860Y-68244000D01*
X149884928Y-68246764D01*
G37*
G36*
X140584928Y-68246764D02*
G01*
X140606009Y-68253160D01*
X140625445Y-68263548D01*
X140642476Y-68277524D01*
X140656452Y-68294555D01*
X140666840Y-68313991D01*
X140673236Y-68335072D01*
X140676000Y-68363140D01*
X140676000Y-68826860D01*
X140673236Y-68854928D01*
X140666840Y-68876009D01*
X140656452Y-68895445D01*
X140642476Y-68912476D01*
X140625445Y-68926452D01*
X140606009Y-68936840D01*
X140584928Y-68943236D01*
X140556860Y-68946000D01*
X138643140Y-68946000D01*
X138615072Y-68943236D01*
X138593991Y-68936840D01*
X138574555Y-68926452D01*
X138557524Y-68912476D01*
X138543548Y-68895445D01*
X138533160Y-68876009D01*
X138526764Y-68854928D01*
X138524000Y-68826860D01*
X138524000Y-68363140D01*
X138526764Y-68335072D01*
X138533160Y-68313991D01*
X138543548Y-68294555D01*
X138557524Y-68277524D01*
X138574555Y-68263548D01*
X138593991Y-68253160D01*
X138615072Y-68246764D01*
X138643140Y-68244000D01*
X140556860Y-68244000D01*
X140584928Y-68246764D01*
G37*
G36*
X149884928Y-66976764D02*
G01*
X149906009Y-66983160D01*
X149925445Y-66993548D01*
X149942476Y-67007524D01*
X149956452Y-67024555D01*
X149966840Y-67043991D01*
X149973236Y-67065072D01*
X149976000Y-67093140D01*
X149976000Y-67556860D01*
X149973236Y-67584928D01*
X149966840Y-67606009D01*
X149956452Y-67625445D01*
X149942476Y-67642476D01*
X149925445Y-67656452D01*
X149906009Y-67666840D01*
X149884928Y-67673236D01*
X149856860Y-67676000D01*
X147943140Y-67676000D01*
X147915072Y-67673236D01*
X147893991Y-67666840D01*
X147874555Y-67656452D01*
X147857524Y-67642476D01*
X147843548Y-67625445D01*
X147833160Y-67606009D01*
X147826764Y-67584928D01*
X147824000Y-67556860D01*
X147824000Y-67093140D01*
X147826764Y-67065072D01*
X147833160Y-67043991D01*
X147843548Y-67024555D01*
X147857524Y-67007524D01*
X147874555Y-66993548D01*
X147893991Y-66983160D01*
X147915072Y-66976764D01*
X147943140Y-66974000D01*
X149856860Y-66974000D01*
X149884928Y-66976764D01*
G37*
G36*
X140584928Y-66976764D02*
G01*
X140606009Y-66983160D01*
X140625445Y-66993548D01*
X140642476Y-67007524D01*
X140656452Y-67024555D01*
X140666840Y-67043991D01*
X140673236Y-67065072D01*
X140676000Y-67093140D01*
X140676000Y-67556860D01*
X140673236Y-67584928D01*
X140666840Y-67606009D01*
X140656452Y-67625445D01*
X140642476Y-67642476D01*
X140625445Y-67656452D01*
X140606009Y-67666840D01*
X140584928Y-67673236D01*
X140556860Y-67676000D01*
X138643140Y-67676000D01*
X138615072Y-67673236D01*
X138593991Y-67666840D01*
X138574555Y-67656452D01*
X138557524Y-67642476D01*
X138543548Y-67625445D01*
X138533160Y-67606009D01*
X138526764Y-67584928D01*
X138524000Y-67556860D01*
X138524000Y-67093140D01*
X138526764Y-67065072D01*
X138533160Y-67043991D01*
X138543548Y-67024555D01*
X138557524Y-67007524D01*
X138574555Y-66993548D01*
X138593991Y-66983160D01*
X138615072Y-66976764D01*
X138643140Y-66974000D01*
X140556860Y-66974000D01*
X140584928Y-66976764D01*
G37*
G36*
X160701000Y-67251000D02*
G01*
X159799000Y-67251000D01*
X159799000Y-66249000D01*
X160701000Y-66249000D01*
X160701000Y-67251000D01*
G37*
G36*
X203801000Y-67111000D02*
G01*
X200399000Y-67111000D01*
X200399000Y-65809000D01*
X203801000Y-65809000D01*
X203801000Y-67111000D01*
G37*
G36*
X153629591Y-65478085D02*
G01*
X153663569Y-65488393D01*
X153694890Y-65505134D01*
X153722339Y-65527661D01*
X153744866Y-65555110D01*
X153761607Y-65586431D01*
X153771915Y-65620409D01*
X153776000Y-65661890D01*
X153776000Y-66338110D01*
X153771915Y-66379591D01*
X153761607Y-66413569D01*
X153744866Y-66444890D01*
X153722339Y-66472339D01*
X153694890Y-66494866D01*
X153663569Y-66511607D01*
X153629591Y-66521915D01*
X153588110Y-66526000D01*
X152986890Y-66526000D01*
X152945409Y-66521915D01*
X152911431Y-66511607D01*
X152880110Y-66494866D01*
X152852661Y-66472339D01*
X152830134Y-66444890D01*
X152813393Y-66413569D01*
X152803085Y-66379591D01*
X152799000Y-66338110D01*
X152799000Y-65661890D01*
X152803085Y-65620409D01*
X152813393Y-65586431D01*
X152830134Y-65555110D01*
X152852661Y-65527661D01*
X152880110Y-65505134D01*
X152911431Y-65488393D01*
X152945409Y-65478085D01*
X152986890Y-65474000D01*
X153588110Y-65474000D01*
X153629591Y-65478085D01*
G37*
G36*
X152054591Y-65478085D02*
G01*
X152088569Y-65488393D01*
X152119890Y-65505134D01*
X152147339Y-65527661D01*
X152169866Y-65555110D01*
X152186607Y-65586431D01*
X152196915Y-65620409D01*
X152201000Y-65661890D01*
X152201000Y-66338110D01*
X152196915Y-66379591D01*
X152186607Y-66413569D01*
X152169866Y-66444890D01*
X152147339Y-66472339D01*
X152119890Y-66494866D01*
X152088569Y-66511607D01*
X152054591Y-66521915D01*
X152013110Y-66526000D01*
X151411890Y-66526000D01*
X151370409Y-66521915D01*
X151336431Y-66511607D01*
X151305110Y-66494866D01*
X151277661Y-66472339D01*
X151255134Y-66444890D01*
X151238393Y-66413569D01*
X151228085Y-66379591D01*
X151224000Y-66338110D01*
X151224000Y-65661890D01*
X151228085Y-65620409D01*
X151238393Y-65586431D01*
X151255134Y-65555110D01*
X151277661Y-65527661D01*
X151305110Y-65505134D01*
X151336431Y-65488393D01*
X151370409Y-65478085D01*
X151411890Y-65474000D01*
X152013110Y-65474000D01*
X152054591Y-65478085D01*
G37*
G36*
X140584928Y-65706764D02*
G01*
X140606009Y-65713160D01*
X140625445Y-65723548D01*
X140642476Y-65737524D01*
X140656452Y-65754555D01*
X140666840Y-65773991D01*
X140673236Y-65795072D01*
X140676000Y-65823140D01*
X140676000Y-66286860D01*
X140673236Y-66314928D01*
X140666840Y-66336009D01*
X140656452Y-66355445D01*
X140642476Y-66372476D01*
X140625445Y-66386452D01*
X140606009Y-66396840D01*
X140584928Y-66403236D01*
X140556860Y-66406000D01*
X138643140Y-66406000D01*
X138615072Y-66403236D01*
X138593991Y-66396840D01*
X138574555Y-66386452D01*
X138557524Y-66372476D01*
X138543548Y-66355445D01*
X138533160Y-66336009D01*
X138526764Y-66314928D01*
X138524000Y-66286860D01*
X138524000Y-65823140D01*
X138526764Y-65795072D01*
X138533160Y-65773991D01*
X138543548Y-65754555D01*
X138557524Y-65737524D01*
X138574555Y-65723548D01*
X138593991Y-65713160D01*
X138615072Y-65706764D01*
X138643140Y-65704000D01*
X140556860Y-65704000D01*
X140584928Y-65706764D01*
G37*
G36*
X149884928Y-65706764D02*
G01*
X149906009Y-65713160D01*
X149925445Y-65723548D01*
X149942476Y-65737524D01*
X149956452Y-65754555D01*
X149966840Y-65773991D01*
X149973236Y-65795072D01*
X149976000Y-65823140D01*
X149976000Y-66286860D01*
X149973236Y-66314928D01*
X149966840Y-66336009D01*
X149956452Y-66355445D01*
X149942476Y-66372476D01*
X149925445Y-66386452D01*
X149906009Y-66396840D01*
X149884928Y-66403236D01*
X149856860Y-66406000D01*
X147943140Y-66406000D01*
X147915072Y-66403236D01*
X147893991Y-66396840D01*
X147874555Y-66386452D01*
X147857524Y-66372476D01*
X147843548Y-66355445D01*
X147833160Y-66336009D01*
X147826764Y-66314928D01*
X147824000Y-66286860D01*
X147824000Y-65823140D01*
X147826764Y-65795072D01*
X147833160Y-65773991D01*
X147843548Y-65754555D01*
X147857524Y-65737524D01*
X147874555Y-65723548D01*
X147893991Y-65713160D01*
X147915072Y-65706764D01*
X147943140Y-65704000D01*
X149856860Y-65704000D01*
X149884928Y-65706764D01*
G37*
G36*
X103625256Y-61641298D02*
G01*
X103731579Y-61662447D01*
X104032042Y-61786903D01*
X104302451Y-61967585D01*
X104532415Y-62197549D01*
X104713097Y-62467958D01*
X104837553Y-62768421D01*
X104901000Y-63087391D01*
X104901000Y-63412609D01*
X104837553Y-63731579D01*
X104713097Y-64032042D01*
X104532415Y-64302451D01*
X104302451Y-64532415D01*
X104032042Y-64713097D01*
X103731579Y-64837553D01*
X103625256Y-64858702D01*
X103412611Y-64901000D01*
X103087389Y-64901000D01*
X102874744Y-64858702D01*
X102768421Y-64837553D01*
X102467958Y-64713097D01*
X102197549Y-64532415D01*
X101967585Y-64302451D01*
X101786903Y-64032042D01*
X101662447Y-63731579D01*
X101599000Y-63412609D01*
X101599000Y-63087391D01*
X101662447Y-62768421D01*
X101786903Y-62467958D01*
X101967585Y-62197549D01*
X102197549Y-61967585D01*
X102467958Y-61786903D01*
X102768421Y-61662447D01*
X102874744Y-61641298D01*
X103087389Y-61599000D01*
X103412611Y-61599000D01*
X103625256Y-61641298D01*
G37*
G36*
X225625256Y-61641298D02*
G01*
X225731579Y-61662447D01*
X226032042Y-61786903D01*
X226302451Y-61967585D01*
X226532415Y-62197549D01*
X226713097Y-62467958D01*
X226837553Y-62768421D01*
X226901000Y-63087391D01*
X226901000Y-63412609D01*
X226837553Y-63731579D01*
X226713097Y-64032042D01*
X226532415Y-64302451D01*
X226302451Y-64532415D01*
X226032042Y-64713097D01*
X225731579Y-64837553D01*
X225625256Y-64858702D01*
X225412611Y-64901000D01*
X225087389Y-64901000D01*
X224874744Y-64858702D01*
X224768421Y-64837553D01*
X224467958Y-64713097D01*
X224197549Y-64532415D01*
X223967585Y-64302451D01*
X223786903Y-64032042D01*
X223662447Y-63731579D01*
X223599000Y-63412609D01*
X223599000Y-63087391D01*
X223662447Y-62768421D01*
X223786903Y-62467958D01*
X223967585Y-62197549D01*
X224197549Y-61967585D01*
X224467958Y-61786903D01*
X224768421Y-61662447D01*
X224874744Y-61641298D01*
X225087389Y-61599000D01*
X225412611Y-61599000D01*
X225625256Y-61641298D01*
G37*
M02*
